midi.Pattern(format=1, resolution=480, tracks=\
[midi.Track(\
  [midi.SetTempoEvent(tick=0, data=[8, 82, 174]),
   midi.TrackNameEvent(tick=0, text='', data=[]),
   midi.TimeSignatureEvent(tick=0, data=[4, 2, 8, 82]),
   midi.MarkerEvent(tick=0, text='Intro', data=[73, 110, 116, 114, 111]),
   midi.MarkerEvent(tick=38400, text='Vers 1', data=[86, 101, 114, 115, 32, 49]),
   midi.MarkerEvent(tick=23040, text='Chorus', data=[67, 104, 111, 114, 117, 115]),
   midi.MarkerEvent(tick=23040, text='Vers 2', data=[86, 101, 114, 115, 32, 50]),
   midi.MarkerEvent(tick=30720, text='Chorus', data=[67, 104, 111, 114, 117, 115]),
   midi.MarkerEvent(tick=15360, text='Rap-Part', data=[82, 97, 112, 45, 80, 97, 114, 116]),
   midi.MarkerEvent(tick=15360, text='Bridge', data=[66, 114, 105, 100, 103, 101]),
   midi.MarkerEvent(tick=7680, text='Chorus', data=[67, 104, 111, 114, 117, 115]),
   midi.EndOfTrackEvent(tick=0, data=[])]),
 midi.Track(\
  [midi.TrackNameEvent(tick=0, text='Spur 1', data=[83, 112, 117, 114, 32, 49]),
   midi.ControlChangeEvent(tick=0, channel=1, data=[100, 0]),
   midi.ControlChangeEvent(tick=0, channel=1, data=[101, 0]),
   midi.ControlChangeEvent(tick=0, channel=1, data=[6, 12]),
   midi.PitchWheelEvent(tick=0, channel=1, data=[0, 64]),
   midi.ControlChangeEvent(tick=0, channel=1, data=[101, 0]),
   midi.ControlChangeEvent(tick=0, channel=1, data=[100, 1]),
   midi.ControlChangeEvent(tick=0, channel=1, data=[6, 64]),
   midi.ControlChangeEvent(tick=0, channel=1, data=[38, 0]),
   midi.ControlChangeEvent(tick=0, channel=1, data=[101, 127]),
   midi.ControlChangeEvent(tick=0, channel=1, data=[100, 127]),
   midi.ControlChangeEvent(tick=0, channel=0, data=[100, 0]),
   midi.ControlChangeEvent(tick=0, channel=0, data=[101, 0]),
   midi.ControlChangeEvent(tick=0, channel=0, data=[6, 12]),
   midi.PitchWheelEvent(tick=0, channel=0, data=[0, 64]),
   midi.ControlChangeEvent(tick=0, channel=0, data=[101, 0]),
   midi.ControlChangeEvent(tick=0, channel=0, data=[100, 1]),
   midi.ControlChangeEvent(tick=0, channel=0, data=[6, 64]),
   midi.ControlChangeEvent(tick=0, channel=0, data=[38, 0]),
   midi.ControlChangeEvent(tick=0, channel=0, data=[101, 127]),
   midi.ControlChangeEvent(tick=0, channel=0, data=[100, 127]),
   midi.ControlChangeEvent(tick=0, channel=1, data=[101, 0]),
   midi.ControlChangeEvent(tick=0, channel=1, data=[100, 2]),
   midi.ControlChangeEvent(tick=0, channel=1, data=[6, 64]),
   midi.ControlChangeEvent(tick=0, channel=1, data=[101, 127]),
   midi.ControlChangeEvent(tick=0, channel=1, data=[100, 127]),
   midi.ControlChangeEvent(tick=0, channel=0, data=[101, 0]),
   midi.ControlChangeEvent(tick=0, channel=0, data=[100, 2]),
   midi.ControlChangeEvent(tick=0, channel=0, data=[6, 64]),
   midi.ControlChangeEvent(tick=0, channel=0, data=[101, 127]),
   midi.ControlChangeEvent(tick=0, channel=0, data=[100, 127]),
   midi.ProgramChangeEvent(tick=0, channel=1, data=[80]),
   midi.ProgramChangeEvent(tick=0, channel=0, data=[80]),
   midi.ControlChangeEvent(tick=0, channel=1, data=[0, 0]),
   midi.ControlChangeEvent(tick=0, channel=0, data=[0, 0]),
   midi.ControlChangeEvent(tick=0, channel=1, data=[7, 112]),
   midi.ControlChangeEvent(tick=0, channel=0, data=[7, 112]),
   midi.ControlChangeEvent(tick=0, channel=1, data=[10, 64]),
   midi.ControlChangeEvent(tick=0, channel=0, data=[10, 64]),
   midi.ControlChangeEvent(tick=0, channel=1, data=[93, 0]),
   midi.ControlChangeEvent(tick=0, channel=0, data=[93, 0]),
   midi.ControlChangeEvent(tick=0, channel=1, data=[91, 0]),
   midi.ControlChangeEvent(tick=0, channel=0, data=[91, 0]),
   midi.ControlChangeEvent(tick=0, channel=1, data=[92, 0]),
   midi.ControlChangeEvent(tick=0, channel=0, data=[92, 0]),
   midi.ControlChangeEvent(tick=0, channel=1, data=[95, 0]),
   midi.ControlChangeEvent(tick=0, channel=0, data=[95, 0]),
   midi.NoteOnEvent(tick=130560, channel=0, data=[77, 95]),
   midi.NoteOffEvent(tick=1440, channel=0, data=[77, 80]),
   midi.NoteOnEvent(tick=0, channel=0, data=[76, 95]),
   midi.NoteOffEvent(tick=480, channel=0, data=[76, 80]),
   midi.NoteOnEvent(tick=0, channel=0, data=[69, 95]),
   midi.NoteOffEvent(tick=1920, channel=0, data=[69, 80]),
   midi.NoteOnEvent(tick=0, channel=0, data=[72, 95]),
   midi.NoteOffEvent(tick=1440, channel=0, data=[72, 80]),
   midi.NoteOnEvent(tick=0, channel=0, data=[74, 95]),
   midi.NoteOffEvent(tick=480, channel=0, data=[74, 80]),
   midi.NoteOnEvent(tick=0, channel=0, data=[67, 95]),
   midi.NoteOffEvent(tick=1920, channel=0, data=[67, 80]),
   midi.NoteOnEvent(tick=0, channel=0, data=[77, 95]),
   midi.NoteOffEvent(tick=1440, channel=0, data=[77, 80]),
   midi.NoteOnEvent(tick=0, channel=0, data=[76, 95]),
   midi.NoteOffEvent(tick=480, channel=0, data=[76, 80]),
   midi.NoteOnEvent(tick=0, channel=0, data=[69, 95]),
   midi.NoteOffEvent(tick=1920, channel=0, data=[69, 80]),
   midi.NoteOnEvent(tick=0, channel=0, data=[72, 95]),
   midi.NoteOffEvent(tick=1440, channel=0, data=[72, 80]),
   midi.NoteOnEvent(tick=0, channel=0, data=[74, 95]),
   midi.NoteOffEvent(tick=480, channel=0, data=[74, 80]),
   midi.NoteOnEvent(tick=0, channel=0, data=[67, 95]),
   midi.NoteOffEvent(tick=1920, channel=0, data=[67, 80]),
   midi.NoteOnEvent(tick=38400, channel=0, data=[77, 95]),
   midi.NoteOffEvent(tick=1440, channel=0, data=[77, 80]),
   midi.NoteOnEvent(tick=0, channel=0, data=[76, 95]),
   midi.NoteOffEvent(tick=480, channel=0, data=[76, 80]),
   midi.NoteOnEvent(tick=0, channel=0, data=[69, 95]),
   midi.NoteOffEvent(tick=1920, channel=0, data=[69, 80]),
   midi.NoteOnEvent(tick=0, channel=0, data=[72, 95]),
   midi.NoteOffEvent(tick=1440, channel=0, data=[72, 80]),
   midi.NoteOnEvent(tick=0, channel=0, data=[74, 95]),
   midi.NoteOffEvent(tick=480, channel=0, data=[74, 80]),
   midi.NoteOnEvent(tick=0, channel=0, data=[67, 95]),
   midi.NoteOffEvent(tick=1920, channel=0, data=[67, 80]),
   midi.NoteOnEvent(tick=0, channel=0, data=[77, 95]),
   midi.NoteOffEvent(tick=1440, channel=0, data=[77, 80]),
   midi.NoteOnEvent(tick=0, channel=0, data=[76, 95]),
   midi.NoteOffEvent(tick=480, channel=0, data=[76, 80]),
   midi.NoteOnEvent(tick=0, channel=0, data=[69, 95]),
   midi.NoteOffEvent(tick=1920, channel=0, data=[69, 80]),
   midi.NoteOnEvent(tick=0, channel=0, data=[72, 95]),
   midi.NoteOffEvent(tick=1440, channel=0, data=[72, 80]),
   midi.NoteOnEvent(tick=0, channel=0, data=[74, 95]),
   midi.NoteOffEvent(tick=480, channel=0, data=[74, 80]),
   midi.NoteOnEvent(tick=0, channel=0, data=[67, 95]),
   midi.NoteOffEvent(tick=1920, channel=0, data=[67, 80]),
   midi.EndOfTrackEvent(tick=0, data=[])]),
 midi.Track(\
  [midi.TrackNameEvent(tick=0, text='Spur 2', data=[83, 112, 117, 114, 32, 50]),
   midi.ControlChangeEvent(tick=0, channel=3, data=[100, 0]),
   midi.ControlChangeEvent(tick=0, channel=3, data=[101, 0]),
   midi.ControlChangeEvent(tick=0, channel=3, data=[6, 12]),
   midi.PitchWheelEvent(tick=0, channel=3, data=[0, 64]),
   midi.ControlChangeEvent(tick=0, channel=3, data=[101, 0]),
   midi.ControlChangeEvent(tick=0, channel=3, data=[100, 1]),
   midi.ControlChangeEvent(tick=0, channel=3, data=[6, 64]),
   midi.ControlChangeEvent(tick=0, channel=3, data=[38, 0]),
   midi.ControlChangeEvent(tick=0, channel=3, data=[101, 127]),
   midi.ControlChangeEvent(tick=0, channel=3, data=[100, 127]),
   midi.ControlChangeEvent(tick=0, channel=2, data=[100, 0]),
   midi.ControlChangeEvent(tick=0, channel=2, data=[101, 0]),
   midi.ControlChangeEvent(tick=0, channel=2, data=[6, 12]),
   midi.PitchWheelEvent(tick=0, channel=2, data=[0, 64]),
   midi.ControlChangeEvent(tick=0, channel=2, data=[101, 0]),
   midi.ControlChangeEvent(tick=0, channel=2, data=[100, 1]),
   midi.ControlChangeEvent(tick=0, channel=2, data=[6, 64]),
   midi.ControlChangeEvent(tick=0, channel=2, data=[38, 0]),
   midi.ControlChangeEvent(tick=0, channel=2, data=[101, 127]),
   midi.ControlChangeEvent(tick=0, channel=2, data=[100, 127]),
   midi.ControlChangeEvent(tick=0, channel=3, data=[101, 0]),
   midi.ControlChangeEvent(tick=0, channel=3, data=[100, 2]),
   midi.ControlChangeEvent(tick=0, channel=3, data=[6, 64]),
   midi.ControlChangeEvent(tick=0, channel=3, data=[101, 127]),
   midi.ControlChangeEvent(tick=0, channel=3, data=[100, 127]),
   midi.ControlChangeEvent(tick=0, channel=2, data=[101, 0]),
   midi.ControlChangeEvent(tick=0, channel=2, data=[100, 2]),
   midi.ControlChangeEvent(tick=0, channel=2, data=[6, 64]),
   midi.ControlChangeEvent(tick=0, channel=2, data=[101, 127]),
   midi.ControlChangeEvent(tick=0, channel=2, data=[100, 127]),
   midi.ProgramChangeEvent(tick=0, channel=3, data=[81]),
   midi.ProgramChangeEvent(tick=0, channel=2, data=[81]),
   midi.ControlChangeEvent(tick=0, channel=3, data=[0, 0]),
   midi.ControlChangeEvent(tick=0, channel=2, data=[0, 0]),
   midi.ControlChangeEvent(tick=0, channel=3, data=[7, 96]),
   midi.ControlChangeEvent(tick=0, channel=2, data=[7, 96]),
   midi.ControlChangeEvent(tick=0, channel=3, data=[10, 64]),
   midi.ControlChangeEvent(tick=0, channel=2, data=[10, 64]),
   midi.ControlChangeEvent(tick=0, channel=3, data=[93, 0]),
   midi.ControlChangeEvent(tick=0, channel=2, data=[93, 0]),
   midi.ControlChangeEvent(tick=0, channel=3, data=[91, 0]),
   midi.ControlChangeEvent(tick=0, channel=2, data=[91, 0]),
   midi.ControlChangeEvent(tick=0, channel=3, data=[92, 0]),
   midi.ControlChangeEvent(tick=0, channel=2, data=[92, 0]),
   midi.ControlChangeEvent(tick=0, channel=3, data=[95, 0]),
   midi.ControlChangeEvent(tick=0, channel=2, data=[95, 0]),
   midi.NoteOnEvent(tick=7680, channel=2, data=[64, 95]),
   midi.NoteOffEvent(tick=240, channel=2, data=[64, 80]),
   midi.NoteOnEvent(tick=0, channel=2, data=[65, 95]),
   midi.NoteOffEvent(tick=240, channel=2, data=[65, 80]),
   midi.NoteOnEvent(tick=0, channel=2, data=[72, 95]),
   midi.NoteOffEvent(tick=480, channel=2, data=[72, 80]),
   midi.NoteOnEvent(tick=0, channel=2, data=[72, 95]),
   midi.NoteOffEvent(tick=480, channel=2, data=[72, 80]),
   midi.NoteOnEvent(tick=0, channel=2, data=[67, 95]),
   midi.NoteOffEvent(tick=480, channel=2, data=[67, 80]),
   midi.NoteOnEvent(tick=0, channel=2, data=[69, 95]),
   midi.NoteOffEvent(tick=960, channel=2, data=[69, 80]),
   midi.NoteOnEvent(tick=960, channel=2, data=[74, 95]),
   midi.NoteOffEvent(tick=240, channel=2, data=[74, 80]),
   midi.NoteOnEvent(tick=0, channel=2, data=[72, 95]),
   midi.NoteOffEvent(tick=240, channel=2, data=[72, 80]),
   midi.NoteOnEvent(tick=0, channel=2, data=[69, 95]),
   midi.NoteOffEvent(tick=960, channel=2, data=[69, 80]),
   midi.NoteOnEvent(tick=480, channel=2, data=[72, 95]),
   midi.NoteOffEvent(tick=240, channel=2, data=[72, 80]),
   midi.NoteOnEvent(tick=0, channel=2, data=[71, 95]),
   midi.NoteOffEvent(tick=240, channel=2, data=[71, 80]),
   midi.NoteOnEvent(tick=0, channel=2, data=[67, 95]),
   midi.NoteOffEvent(tick=960, channel=2, data=[67, 80]),
   midi.NoteOnEvent(tick=480, channel=2, data=[64, 95]),
   midi.NoteOffEvent(tick=240, channel=2, data=[64, 80]),
   midi.NoteOnEvent(tick=0, channel=2, data=[65, 95]),
   midi.NoteOffEvent(tick=240, channel=2, data=[65, 80]),
   midi.NoteOnEvent(tick=0, channel=2, data=[72, 95]),
   midi.NoteOffEvent(tick=480, channel=2, data=[72, 80]),
   midi.NoteOnEvent(tick=0, channel=2, data=[72, 95]),
   midi.NoteOffEvent(tick=480, channel=2, data=[72, 80]),
   midi.NoteOnEvent(tick=0, channel=2, data=[67, 95]),
   midi.NoteOffEvent(tick=480, channel=2, data=[67, 80]),
   midi.NoteOnEvent(tick=0, channel=2, data=[69, 95]),
   midi.NoteOffEvent(tick=960, channel=2, data=[69, 80]),
   midi.NoteOnEvent(tick=960, channel=2, data=[74, 95]),
   midi.NoteOffEvent(tick=240, channel=2, data=[74, 80]),
   midi.NoteOnEvent(tick=0, channel=2, data=[72, 95]),
   midi.NoteOffEvent(tick=240, channel=2, data=[72, 80]),
   midi.NoteOnEvent(tick=0, channel=2, data=[69, 95]),
   midi.NoteOffEvent(tick=960, channel=2, data=[69, 80]),
   midi.NoteOnEvent(tick=480, channel=2, data=[72, 95]),
   midi.NoteOffEvent(tick=240, channel=2, data=[72, 80]),
   midi.NoteOnEvent(tick=0, channel=2, data=[71, 95]),
   midi.NoteOffEvent(tick=240, channel=2, data=[71, 80]),
   midi.NoteOnEvent(tick=0, channel=2, data=[67, 95]),
   midi.NoteOffEvent(tick=960, channel=2, data=[67, 80]),
   midi.NoteOnEvent(tick=480, channel=2, data=[64, 95]),
   midi.NoteOffEvent(tick=240, channel=2, data=[64, 80]),
   midi.NoteOnEvent(tick=0, channel=2, data=[65, 95]),
   midi.NoteOffEvent(tick=240, channel=2, data=[65, 80]),
   midi.NoteOnEvent(tick=0, channel=2, data=[72, 95]),
   midi.NoteOffEvent(tick=480, channel=2, data=[72, 80]),
   midi.NoteOnEvent(tick=0, channel=2, data=[72, 95]),
   midi.NoteOffEvent(tick=480, channel=2, data=[72, 80]),
   midi.NoteOnEvent(tick=0, channel=2, data=[67, 95]),
   midi.NoteOffEvent(tick=480, channel=2, data=[67, 80]),
   midi.NoteOnEvent(tick=0, channel=2, data=[69, 95]),
   midi.NoteOffEvent(tick=960, channel=2, data=[69, 80]),
   midi.NoteOnEvent(tick=960, channel=2, data=[74, 95]),
   midi.NoteOffEvent(tick=240, channel=2, data=[74, 80]),
   midi.NoteOnEvent(tick=0, channel=2, data=[72, 95]),
   midi.NoteOffEvent(tick=240, channel=2, data=[72, 80]),
   midi.NoteOnEvent(tick=0, channel=2, data=[69, 95]),
   midi.NoteOffEvent(tick=960, channel=2, data=[69, 80]),
   midi.NoteOnEvent(tick=480, channel=2, data=[72, 95]),
   midi.NoteOffEvent(tick=240, channel=2, data=[72, 80]),
   midi.NoteOnEvent(tick=0, channel=2, data=[71, 95]),
   midi.NoteOffEvent(tick=240, channel=2, data=[71, 80]),
   midi.NoteOnEvent(tick=0, channel=2, data=[67, 95]),
   midi.NoteOffEvent(tick=960, channel=2, data=[67, 80]),
   midi.NoteOnEvent(tick=480, channel=2, data=[64, 95]),
   midi.NoteOffEvent(tick=240, channel=2, data=[64, 80]),
   midi.NoteOnEvent(tick=0, channel=2, data=[65, 95]),
   midi.NoteOffEvent(tick=240, channel=2, data=[65, 80]),
   midi.NoteOnEvent(tick=0, channel=2, data=[72, 95]),
   midi.NoteOffEvent(tick=480, channel=2, data=[72, 80]),
   midi.NoteOnEvent(tick=0, channel=2, data=[72, 95]),
   midi.NoteOffEvent(tick=480, channel=2, data=[72, 80]),
   midi.NoteOnEvent(tick=0, channel=2, data=[67, 95]),
   midi.NoteOffEvent(tick=480, channel=2, data=[67, 80]),
   midi.NoteOnEvent(tick=0, channel=2, data=[69, 95]),
   midi.NoteOffEvent(tick=960, channel=2, data=[69, 80]),
   midi.NoteOnEvent(tick=960, channel=2, data=[74, 95]),
   midi.NoteOffEvent(tick=240, channel=2, data=[74, 80]),
   midi.NoteOnEvent(tick=0, channel=2, data=[72, 95]),
   midi.NoteOffEvent(tick=240, channel=2, data=[72, 80]),
   midi.NoteOnEvent(tick=0, channel=2, data=[69, 95]),
   midi.NoteOffEvent(tick=960, channel=2, data=[69, 80]),
   midi.NoteOnEvent(tick=480, channel=2, data=[72, 95]),
   midi.NoteOffEvent(tick=240, channel=2, data=[72, 80]),
   midi.NoteOnEvent(tick=0, channel=2, data=[71, 95]),
   midi.NoteOffEvent(tick=240, channel=2, data=[71, 80]),
   midi.NoteOnEvent(tick=0, channel=2, data=[67, 95]),
   midi.NoteOffEvent(tick=960, channel=2, data=[67, 80]),
   midi.NoteOnEvent(tick=38880, channel=2, data=[64, 95]),
   midi.NoteOffEvent(tick=240, channel=2, data=[64, 80]),
   midi.NoteOnEvent(tick=0, channel=2, data=[65, 95]),
   midi.NoteOffEvent(tick=240, channel=2, data=[65, 80]),
   midi.NoteOnEvent(tick=0, channel=2, data=[72, 95]),
   midi.NoteOffEvent(tick=480, channel=2, data=[72, 80]),
   midi.NoteOnEvent(tick=0, channel=2, data=[72, 95]),
   midi.NoteOffEvent(tick=480, channel=2, data=[72, 80]),
   midi.NoteOnEvent(tick=0, channel=2, data=[67, 95]),
   midi.NoteOffEvent(tick=480, channel=2, data=[67, 80]),
   midi.NoteOnEvent(tick=0, channel=2, data=[69, 95]),
   midi.NoteOffEvent(tick=960, channel=2, data=[69, 80]),
   midi.NoteOnEvent(tick=960, channel=2, data=[74, 95]),
   midi.NoteOffEvent(tick=240, channel=2, data=[74, 80]),
   midi.NoteOnEvent(tick=0, channel=2, data=[72, 95]),
   midi.NoteOffEvent(tick=240, channel=2, data=[72, 80]),
   midi.NoteOnEvent(tick=0, channel=2, data=[69, 95]),
   midi.NoteOffEvent(tick=960, channel=2, data=[69, 80]),
   midi.NoteOnEvent(tick=480, channel=2, data=[72, 95]),
   midi.NoteOffEvent(tick=240, channel=2, data=[72, 80]),
   midi.NoteOnEvent(tick=0, channel=2, data=[71, 95]),
   midi.NoteOffEvent(tick=240, channel=2, data=[71, 80]),
   midi.NoteOnEvent(tick=0, channel=2, data=[67, 95]),
   midi.NoteOffEvent(tick=960, channel=2, data=[67, 80]),
   midi.NoteOnEvent(tick=84960, channel=2, data=[64, 95]),
   midi.NoteOffEvent(tick=240, channel=2, data=[64, 80]),
   midi.NoteOnEvent(tick=0, channel=2, data=[65, 95]),
   midi.NoteOffEvent(tick=240, channel=2, data=[65, 80]),
   midi.NoteOnEvent(tick=0, channel=2, data=[72, 95]),
   midi.NoteOffEvent(tick=480, channel=2, data=[72, 80]),
   midi.NoteOnEvent(tick=0, channel=2, data=[72, 95]),
   midi.NoteOffEvent(tick=480, channel=2, data=[72, 80]),
   midi.NoteOnEvent(tick=0, channel=2, data=[67, 95]),
   midi.NoteOffEvent(tick=480, channel=2, data=[67, 80]),
   midi.NoteOnEvent(tick=0, channel=2, data=[69, 95]),
   midi.NoteOffEvent(tick=960, channel=2, data=[69, 80]),
   midi.NoteOnEvent(tick=960, channel=2, data=[74, 95]),
   midi.NoteOffEvent(tick=240, channel=2, data=[74, 80]),
   midi.NoteOnEvent(tick=0, channel=2, data=[72, 95]),
   midi.NoteOffEvent(tick=240, channel=2, data=[72, 80]),
   midi.NoteOnEvent(tick=0, channel=2, data=[69, 95]),
   midi.NoteOffEvent(tick=960, channel=2, data=[69, 80]),
   midi.NoteOnEvent(tick=480, channel=2, data=[72, 95]),
   midi.NoteOffEvent(tick=240, channel=2, data=[72, 80]),
   midi.NoteOnEvent(tick=0, channel=2, data=[71, 95]),
   midi.NoteOffEvent(tick=240, channel=2, data=[71, 80]),
   midi.NoteOnEvent(tick=0, channel=2, data=[67, 95]),
   midi.NoteOffEvent(tick=960, channel=2, data=[67, 80]),
   midi.NoteOnEvent(tick=480, channel=2, data=[64, 95]),
   midi.NoteOffEvent(tick=240, channel=2, data=[64, 80]),
   midi.NoteOnEvent(tick=0, channel=2, data=[65, 95]),
   midi.NoteOffEvent(tick=240, channel=2, data=[65, 80]),
   midi.NoteOnEvent(tick=0, channel=2, data=[72, 95]),
   midi.NoteOffEvent(tick=480, channel=2, data=[72, 80]),
   midi.NoteOnEvent(tick=0, channel=2, data=[72, 95]),
   midi.NoteOffEvent(tick=480, channel=2, data=[72, 80]),
   midi.NoteOnEvent(tick=0, channel=2, data=[67, 95]),
   midi.NoteOffEvent(tick=480, channel=2, data=[67, 80]),
   midi.NoteOnEvent(tick=0, channel=2, data=[69, 95]),
   midi.NoteOffEvent(tick=960, channel=2, data=[69, 80]),
   midi.NoteOnEvent(tick=960, channel=2, data=[74, 95]),
   midi.NoteOffEvent(tick=240, channel=2, data=[74, 80]),
   midi.NoteOnEvent(tick=0, channel=2, data=[72, 95]),
   midi.NoteOffEvent(tick=240, channel=2, data=[72, 80]),
   midi.NoteOnEvent(tick=0, channel=2, data=[69, 95]),
   midi.NoteOffEvent(tick=960, channel=2, data=[69, 80]),
   midi.NoteOnEvent(tick=480, channel=2, data=[72, 95]),
   midi.NoteOffEvent(tick=240, channel=2, data=[72, 80]),
   midi.NoteOnEvent(tick=0, channel=2, data=[71, 95]),
   midi.NoteOffEvent(tick=240, channel=2, data=[71, 80]),
   midi.NoteOnEvent(tick=0, channel=2, data=[67, 95]),
   midi.NoteOffEvent(tick=960, channel=2, data=[67, 80]),
   midi.NoteOnEvent(tick=480, channel=2, data=[64, 95]),
   midi.NoteOffEvent(tick=240, channel=2, data=[64, 80]),
   midi.NoteOnEvent(tick=0, channel=2, data=[65, 95]),
   midi.NoteOffEvent(tick=240, channel=2, data=[65, 80]),
   midi.NoteOnEvent(tick=0, channel=2, data=[72, 95]),
   midi.NoteOffEvent(tick=480, channel=2, data=[72, 80]),
   midi.NoteOnEvent(tick=0, channel=2, data=[72, 95]),
   midi.NoteOffEvent(tick=480, channel=2, data=[72, 80]),
   midi.NoteOnEvent(tick=0, channel=2, data=[67, 95]),
   midi.NoteOffEvent(tick=480, channel=2, data=[67, 80]),
   midi.NoteOnEvent(tick=0, channel=2, data=[69, 95]),
   midi.NoteOffEvent(tick=960, channel=2, data=[69, 80]),
   midi.NoteOnEvent(tick=960, channel=2, data=[74, 95]),
   midi.NoteOffEvent(tick=240, channel=2, data=[74, 80]),
   midi.NoteOnEvent(tick=0, channel=2, data=[72, 95]),
   midi.NoteOffEvent(tick=240, channel=2, data=[72, 80]),
   midi.NoteOnEvent(tick=0, channel=2, data=[69, 95]),
   midi.NoteOffEvent(tick=960, channel=2, data=[69, 80]),
   midi.NoteOnEvent(tick=480, channel=2, data=[72, 95]),
   midi.NoteOffEvent(tick=240, channel=2, data=[72, 80]),
   midi.NoteOnEvent(tick=0, channel=2, data=[71, 95]),
   midi.NoteOffEvent(tick=240, channel=2, data=[71, 80]),
   midi.NoteOnEvent(tick=0, channel=2, data=[67, 95]),
   midi.NoteOffEvent(tick=960, channel=2, data=[67, 80]),
   midi.NoteOnEvent(tick=480, channel=2, data=[64, 95]),
   midi.NoteOffEvent(tick=240, channel=2, data=[64, 80]),
   midi.NoteOnEvent(tick=0, channel=2, data=[65, 95]),
   midi.NoteOffEvent(tick=240, channel=2, data=[65, 80]),
   midi.NoteOnEvent(tick=0, channel=2, data=[72, 95]),
   midi.NoteOffEvent(tick=480, channel=2, data=[72, 80]),
   midi.NoteOnEvent(tick=0, channel=2, data=[72, 95]),
   midi.NoteOffEvent(tick=480, channel=2, data=[72, 80]),
   midi.NoteOnEvent(tick=0, channel=2, data=[67, 95]),
   midi.NoteOffEvent(tick=480, channel=2, data=[67, 80]),
   midi.NoteOnEvent(tick=0, channel=2, data=[69, 95]),
   midi.NoteOffEvent(tick=960, channel=2, data=[69, 80]),
   midi.NoteOnEvent(tick=960, channel=2, data=[74, 95]),
   midi.NoteOffEvent(tick=240, channel=2, data=[74, 80]),
   midi.NoteOnEvent(tick=0, channel=2, data=[72, 95]),
   midi.NoteOffEvent(tick=240, channel=2, data=[72, 80]),
   midi.NoteOnEvent(tick=0, channel=2, data=[69, 95]),
   midi.NoteOffEvent(tick=960, channel=2, data=[69, 80]),
   midi.NoteOnEvent(tick=480, channel=2, data=[72, 95]),
   midi.NoteOffEvent(tick=240, channel=2, data=[72, 80]),
   midi.NoteOnEvent(tick=0, channel=2, data=[71, 95]),
   midi.NoteOffEvent(tick=240, channel=2, data=[71, 80]),
   midi.NoteOnEvent(tick=0, channel=2, data=[67, 95]),
   midi.NoteOffEvent(tick=960, channel=2, data=[67, 80]),
   midi.EndOfTrackEvent(tick=0, data=[])]),
 midi.Track(\
  [midi.TrackNameEvent(tick=0, text='Spur 3', data=[83, 112, 117, 114, 32, 51]),
   midi.ControlChangeEvent(tick=0, channel=5, data=[100, 0]),
   midi.ControlChangeEvent(tick=0, channel=5, data=[101, 0]),
   midi.ControlChangeEvent(tick=0, channel=5, data=[6, 12]),
   midi.PitchWheelEvent(tick=0, channel=5, data=[0, 64]),
   midi.ControlChangeEvent(tick=0, channel=5, data=[101, 0]),
   midi.ControlChangeEvent(tick=0, channel=5, data=[100, 1]),
   midi.ControlChangeEvent(tick=0, channel=5, data=[6, 64]),
   midi.ControlChangeEvent(tick=0, channel=5, data=[38, 0]),
   midi.ControlChangeEvent(tick=0, channel=5, data=[101, 127]),
   midi.ControlChangeEvent(tick=0, channel=5, data=[100, 127]),
   midi.ControlChangeEvent(tick=0, channel=4, data=[100, 0]),
   midi.ControlChangeEvent(tick=0, channel=4, data=[101, 0]),
   midi.ControlChangeEvent(tick=0, channel=4, data=[6, 12]),
   midi.PitchWheelEvent(tick=0, channel=4, data=[0, 64]),
   midi.ControlChangeEvent(tick=0, channel=4, data=[101, 0]),
   midi.ControlChangeEvent(tick=0, channel=4, data=[100, 1]),
   midi.ControlChangeEvent(tick=0, channel=4, data=[6, 64]),
   midi.ControlChangeEvent(tick=0, channel=4, data=[38, 0]),
   midi.ControlChangeEvent(tick=0, channel=4, data=[101, 127]),
   midi.ControlChangeEvent(tick=0, channel=4, data=[100, 127]),
   midi.ControlChangeEvent(tick=0, channel=5, data=[101, 0]),
   midi.ControlChangeEvent(tick=0, channel=5, data=[100, 2]),
   midi.ControlChangeEvent(tick=0, channel=5, data=[6, 64]),
   midi.ControlChangeEvent(tick=0, channel=5, data=[101, 127]),
   midi.ControlChangeEvent(tick=0, channel=5, data=[100, 127]),
   midi.ControlChangeEvent(tick=0, channel=4, data=[101, 0]),
   midi.ControlChangeEvent(tick=0, channel=4, data=[100, 2]),
   midi.ControlChangeEvent(tick=0, channel=4, data=[6, 64]),
   midi.ControlChangeEvent(tick=0, channel=4, data=[101, 127]),
   midi.ControlChangeEvent(tick=0, channel=4, data=[100, 127]),
   midi.ProgramChangeEvent(tick=0, channel=5, data=[30]),
   midi.ProgramChangeEvent(tick=0, channel=4, data=[30]),
   midi.ControlChangeEvent(tick=0, channel=5, data=[0, 0]),
   midi.ControlChangeEvent(tick=0, channel=4, data=[0, 0]),
   midi.ControlChangeEvent(tick=0, channel=5, data=[7, 104]),
   midi.ControlChangeEvent(tick=0, channel=4, data=[7, 104]),
   midi.ControlChangeEvent(tick=0, channel=5, data=[10, 64]),
   midi.ControlChangeEvent(tick=0, channel=4, data=[10, 64]),
   midi.ControlChangeEvent(tick=0, channel=5, data=[93, 0]),
   midi.ControlChangeEvent(tick=0, channel=4, data=[93, 0]),
   midi.ControlChangeEvent(tick=0, channel=5, data=[91, 0]),
   midi.ControlChangeEvent(tick=0, channel=4, data=[91, 0]),
   midi.ControlChangeEvent(tick=0, channel=5, data=[92, 0]),
   midi.ControlChangeEvent(tick=0, channel=4, data=[92, 0]),
   midi.ControlChangeEvent(tick=0, channel=5, data=[95, 0]),
   midi.ControlChangeEvent(tick=0, channel=4, data=[95, 0]),
   midi.NoteOnEvent(tick=23040, channel=4, data=[50, 95]),
   midi.NoteOnEvent(tick=0, channel=4, data=[45, 95]),
   midi.NoteOnEvent(tick=0, channel=4, data=[38, 95]),
   midi.NoteOffEvent(tick=240, channel=4, data=[50, 80]),
   midi.NoteOffEvent(tick=0, channel=4, data=[45, 80]),
   midi.NoteOffEvent(tick=0, channel=4, data=[38, 80]),
   midi.NoteOnEvent(tick=0, channel=4, data=[50, 95]),
   midi.NoteOnEvent(tick=0, channel=4, data=[45, 95]),
   midi.NoteOnEvent(tick=0, channel=4, data=[38, 95]),
   midi.NoteOffEvent(tick=240, channel=4, data=[50, 80]),
   midi.NoteOffEvent(tick=0, channel=4, data=[45, 80]),
   midi.NoteOffEvent(tick=0, channel=4, data=[38, 80]),
   midi.NoteOnEvent(tick=0, channel=4, data=[50, 95]),
   midi.NoteOnEvent(tick=0, channel=4, data=[45, 95]),
   midi.NoteOnEvent(tick=0, channel=4, data=[38, 95]),
   midi.NoteOffEvent(tick=240, channel=4, data=[50, 80]),
   midi.NoteOffEvent(tick=0, channel=4, data=[45, 80]),
   midi.NoteOffEvent(tick=0, channel=4, data=[38, 80]),
   midi.NoteOnEvent(tick=0, channel=4, data=[50, 95]),
   midi.NoteOnEvent(tick=0, channel=4, data=[45, 95]),
   midi.NoteOnEvent(tick=0, channel=4, data=[38, 95]),
   midi.NoteOffEvent(tick=240, channel=4, data=[50, 80]),
   midi.NoteOffEvent(tick=0, channel=4, data=[45, 80]),
   midi.NoteOffEvent(tick=0, channel=4, data=[38, 80]),
   midi.NoteOnEvent(tick=0, channel=4, data=[50, 95]),
   midi.NoteOnEvent(tick=0, channel=4, data=[45, 95]),
   midi.NoteOnEvent(tick=0, channel=4, data=[38, 95]),
   midi.NoteOffEvent(tick=240, channel=4, data=[50, 80]),
   midi.NoteOffEvent(tick=0, channel=4, data=[45, 80]),
   midi.NoteOffEvent(tick=0, channel=4, data=[38, 80]),
   midi.NoteOnEvent(tick=0, channel=4, data=[50, 95]),
   midi.NoteOnEvent(tick=0, channel=4, data=[45, 95]),
   midi.NoteOnEvent(tick=0, channel=4, data=[38, 95]),
   midi.NoteOffEvent(tick=240, channel=4, data=[50, 80]),
   midi.NoteOffEvent(tick=0, channel=4, data=[45, 80]),
   midi.NoteOffEvent(tick=0, channel=4, data=[38, 80]),
   midi.NoteOnEvent(tick=0, channel=4, data=[52, 95]),
   midi.NoteOnEvent(tick=0, channel=4, data=[47, 95]),
   midi.NoteOnEvent(tick=0, channel=4, data=[40, 95]),
   midi.NoteOffEvent(tick=240, channel=4, data=[52, 80]),
   midi.NoteOffEvent(tick=0, channel=4, data=[47, 80]),
   midi.NoteOffEvent(tick=0, channel=4, data=[40, 80]),
   midi.NoteOnEvent(tick=0, channel=4, data=[52, 95]),
   midi.NoteOnEvent(tick=0, channel=4, data=[47, 95]),
   midi.NoteOnEvent(tick=0, channel=4, data=[40, 95]),
   midi.NoteOffEvent(tick=240, channel=4, data=[52, 80]),
   midi.NoteOffEvent(tick=0, channel=4, data=[47, 80]),
   midi.NoteOffEvent(tick=0, channel=4, data=[40, 80]),
   midi.NoteOnEvent(tick=0, channel=4, data=[53, 95]),
   midi.NoteOnEvent(tick=0, channel=4, data=[48, 95]),
   midi.NoteOnEvent(tick=0, channel=4, data=[41, 95]),
   midi.NoteOffEvent(tick=240, channel=4, data=[53, 80]),
   midi.NoteOffEvent(tick=0, channel=4, data=[48, 80]),
   midi.NoteOffEvent(tick=0, channel=4, data=[41, 80]),
   midi.NoteOnEvent(tick=0, channel=4, data=[53, 95]),
   midi.NoteOnEvent(tick=0, channel=4, data=[48, 95]),
   midi.NoteOnEvent(tick=0, channel=4, data=[41, 95]),
   midi.NoteOffEvent(tick=240, channel=4, data=[53, 80]),
   midi.NoteOffEvent(tick=0, channel=4, data=[48, 80]),
   midi.NoteOffEvent(tick=0, channel=4, data=[41, 80]),
   midi.NoteOnEvent(tick=0, channel=4, data=[53, 95]),
   midi.NoteOnEvent(tick=0, channel=4, data=[48, 95]),
   midi.NoteOnEvent(tick=0, channel=4, data=[41, 95]),
   midi.NoteOffEvent(tick=240, channel=4, data=[53, 80]),
   midi.NoteOffEvent(tick=0, channel=4, data=[48, 80]),
   midi.NoteOffEvent(tick=0, channel=4, data=[41, 80]),
   midi.NoteOnEvent(tick=0, channel=4, data=[53, 95]),
   midi.NoteOnEvent(tick=0, channel=4, data=[48, 95]),
   midi.NoteOnEvent(tick=0, channel=4, data=[41, 95]),
   midi.NoteOffEvent(tick=240, channel=4, data=[53, 80]),
   midi.NoteOffEvent(tick=0, channel=4, data=[48, 80]),
   midi.NoteOffEvent(tick=0, channel=4, data=[41, 80]),
   midi.NoteOnEvent(tick=0, channel=4, data=[53, 95]),
   midi.NoteOnEvent(tick=0, channel=4, data=[48, 95]),
   midi.NoteOnEvent(tick=0, channel=4, data=[41, 95]),
   midi.NoteOffEvent(tick=240, channel=4, data=[53, 80]),
   midi.NoteOffEvent(tick=0, channel=4, data=[48, 80]),
   midi.NoteOffEvent(tick=0, channel=4, data=[41, 80]),
   midi.NoteOnEvent(tick=0, channel=4, data=[53, 95]),
   midi.NoteOnEvent(tick=0, channel=4, data=[48, 95]),
   midi.NoteOnEvent(tick=0, channel=4, data=[41, 95]),
   midi.NoteOffEvent(tick=240, channel=4, data=[53, 80]),
   midi.NoteOffEvent(tick=0, channel=4, data=[48, 80]),
   midi.NoteOffEvent(tick=0, channel=4, data=[41, 80]),
   midi.NoteOnEvent(tick=480, channel=4, data=[57, 95]),
   midi.NoteOnEvent(tick=0, channel=4, data=[52, 95]),
   midi.NoteOnEvent(tick=0, channel=4, data=[45, 95]),
   midi.NoteOffEvent(tick=240, channel=4, data=[57, 80]),
   midi.NoteOffEvent(tick=0, channel=4, data=[52, 80]),
   midi.NoteOffEvent(tick=0, channel=4, data=[45, 80]),
   midi.NoteOnEvent(tick=0, channel=4, data=[57, 95]),
   midi.NoteOnEvent(tick=0, channel=4, data=[52, 95]),
   midi.NoteOnEvent(tick=0, channel=4, data=[45, 95]),
   midi.NoteOffEvent(tick=240, channel=4, data=[57, 80]),
   midi.NoteOffEvent(tick=0, channel=4, data=[52, 80]),
   midi.NoteOffEvent(tick=0, channel=4, data=[45, 80]),
   midi.NoteOnEvent(tick=0, channel=4, data=[57, 95]),
   midi.NoteOnEvent(tick=0, channel=4, data=[52, 95]),
   midi.NoteOnEvent(tick=0, channel=4, data=[45, 95]),
   midi.NoteOffEvent(tick=240, channel=4, data=[57, 80]),
   midi.NoteOffEvent(tick=0, channel=4, data=[52, 80]),
   midi.NoteOffEvent(tick=0, channel=4, data=[45, 80]),
   midi.NoteOnEvent(tick=0, channel=4, data=[57, 95]),
   midi.NoteOnEvent(tick=0, channel=4, data=[52, 95]),
   midi.NoteOnEvent(tick=0, channel=4, data=[45, 95]),
   midi.NoteOffEvent(tick=240, channel=4, data=[57, 80]),
   midi.NoteOffEvent(tick=0, channel=4, data=[52, 80]),
   midi.NoteOffEvent(tick=0, channel=4, data=[45, 80]),
   midi.NoteOnEvent(tick=0, channel=4, data=[57, 95]),
   midi.NoteOnEvent(tick=0, channel=4, data=[52, 95]),
   midi.NoteOnEvent(tick=0, channel=4, data=[45, 95]),
   midi.NoteOffEvent(tick=240, channel=4, data=[57, 80]),
   midi.NoteOffEvent(tick=0, channel=4, data=[52, 80]),
   midi.NoteOffEvent(tick=0, channel=4, data=[45, 80]),
   midi.NoteOnEvent(tick=0, channel=4, data=[57, 95]),
   midi.NoteOnEvent(tick=0, channel=4, data=[52, 95]),
   midi.NoteOnEvent(tick=0, channel=4, data=[45, 95]),
   midi.NoteOffEvent(tick=240, channel=4, data=[57, 80]),
   midi.NoteOffEvent(tick=0, channel=4, data=[52, 80]),
   midi.NoteOffEvent(tick=0, channel=4, data=[45, 80]),
   midi.NoteOnEvent(tick=0, channel=4, data=[59, 95]),
   midi.NoteOnEvent(tick=0, channel=4, data=[54, 95]),
   midi.NoteOnEvent(tick=0, channel=4, data=[47, 95]),
   midi.NoteOffEvent(tick=240, channel=4, data=[59, 80]),
   midi.NoteOffEvent(tick=0, channel=4, data=[54, 80]),
   midi.NoteOffEvent(tick=0, channel=4, data=[47, 80]),
   midi.NoteOnEvent(tick=0, channel=4, data=[59, 95]),
   midi.NoteOnEvent(tick=0, channel=4, data=[54, 95]),
   midi.NoteOnEvent(tick=0, channel=4, data=[47, 95]),
   midi.NoteOffEvent(tick=240, channel=4, data=[59, 80]),
   midi.NoteOffEvent(tick=0, channel=4, data=[54, 80]),
   midi.NoteOffEvent(tick=0, channel=4, data=[47, 80]),
   midi.NoteOnEvent(tick=0, channel=4, data=[55, 95]),
   midi.NoteOnEvent(tick=0, channel=4, data=[50, 95]),
   midi.NoteOnEvent(tick=0, channel=4, data=[43, 95]),
   midi.NoteOffEvent(tick=240, channel=4, data=[55, 80]),
   midi.NoteOffEvent(tick=0, channel=4, data=[50, 80]),
   midi.NoteOffEvent(tick=0, channel=4, data=[43, 80]),
   midi.NoteOnEvent(tick=0, channel=4, data=[55, 95]),
   midi.NoteOnEvent(tick=0, channel=4, data=[50, 95]),
   midi.NoteOnEvent(tick=0, channel=4, data=[43, 95]),
   midi.NoteOffEvent(tick=240, channel=4, data=[55, 80]),
   midi.NoteOffEvent(tick=0, channel=4, data=[50, 80]),
   midi.NoteOffEvent(tick=0, channel=4, data=[43, 80]),
   midi.NoteOnEvent(tick=0, channel=4, data=[55, 95]),
   midi.NoteOnEvent(tick=0, channel=4, data=[50, 95]),
   midi.NoteOnEvent(tick=0, channel=4, data=[43, 95]),
   midi.NoteOffEvent(tick=240, channel=4, data=[55, 80]),
   midi.NoteOffEvent(tick=0, channel=4, data=[50, 80]),
   midi.NoteOffEvent(tick=0, channel=4, data=[43, 80]),
   midi.NoteOnEvent(tick=0, channel=4, data=[55, 95]),
   midi.NoteOnEvent(tick=0, channel=4, data=[50, 95]),
   midi.NoteOnEvent(tick=0, channel=4, data=[43, 95]),
   midi.NoteOffEvent(tick=240, channel=4, data=[55, 80]),
   midi.NoteOffEvent(tick=0, channel=4, data=[50, 80]),
   midi.NoteOffEvent(tick=0, channel=4, data=[43, 80]),
   midi.NoteOnEvent(tick=0, channel=4, data=[55, 95]),
   midi.NoteOnEvent(tick=0, channel=4, data=[50, 95]),
   midi.NoteOnEvent(tick=0, channel=4, data=[43, 95]),
   midi.NoteOffEvent(tick=240, channel=4, data=[55, 80]),
   midi.NoteOffEvent(tick=0, channel=4, data=[50, 80]),
   midi.NoteOffEvent(tick=0, channel=4, data=[43, 80]),
   midi.NoteOnEvent(tick=0, channel=4, data=[55, 95]),
   midi.NoteOnEvent(tick=0, channel=4, data=[50, 95]),
   midi.NoteOnEvent(tick=0, channel=4, data=[43, 95]),
   midi.NoteOffEvent(tick=240, channel=4, data=[55, 80]),
   midi.NoteOffEvent(tick=0, channel=4, data=[50, 80]),
   midi.NoteOffEvent(tick=0, channel=4, data=[43, 80]),
   midi.NoteOnEvent(tick=480, channel=4, data=[50, 95]),
   midi.NoteOnEvent(tick=0, channel=4, data=[45, 95]),
   midi.NoteOnEvent(tick=0, channel=4, data=[38, 95]),
   midi.NoteOffEvent(tick=240, channel=4, data=[50, 80]),
   midi.NoteOffEvent(tick=0, channel=4, data=[45, 80]),
   midi.NoteOffEvent(tick=0, channel=4, data=[38, 80]),
   midi.NoteOnEvent(tick=0, channel=4, data=[50, 95]),
   midi.NoteOnEvent(tick=0, channel=4, data=[45, 95]),
   midi.NoteOnEvent(tick=0, channel=4, data=[38, 95]),
   midi.NoteOffEvent(tick=240, channel=4, data=[50, 80]),
   midi.NoteOffEvent(tick=0, channel=4, data=[45, 80]),
   midi.NoteOffEvent(tick=0, channel=4, data=[38, 80]),
   midi.NoteOnEvent(tick=0, channel=4, data=[50, 95]),
   midi.NoteOnEvent(tick=0, channel=4, data=[45, 95]),
   midi.NoteOnEvent(tick=0, channel=4, data=[38, 95]),
   midi.NoteOffEvent(tick=240, channel=4, data=[50, 80]),
   midi.NoteOffEvent(tick=0, channel=4, data=[45, 80]),
   midi.NoteOffEvent(tick=0, channel=4, data=[38, 80]),
   midi.NoteOnEvent(tick=0, channel=4, data=[50, 95]),
   midi.NoteOnEvent(tick=0, channel=4, data=[45, 95]),
   midi.NoteOnEvent(tick=0, channel=4, data=[38, 95]),
   midi.NoteOffEvent(tick=240, channel=4, data=[50, 80]),
   midi.NoteOffEvent(tick=0, channel=4, data=[45, 80]),
   midi.NoteOffEvent(tick=0, channel=4, data=[38, 80]),
   midi.NoteOnEvent(tick=0, channel=4, data=[50, 95]),
   midi.NoteOnEvent(tick=0, channel=4, data=[45, 95]),
   midi.NoteOnEvent(tick=0, channel=4, data=[38, 95]),
   midi.NoteOffEvent(tick=240, channel=4, data=[50, 80]),
   midi.NoteOffEvent(tick=0, channel=4, data=[45, 80]),
   midi.NoteOffEvent(tick=0, channel=4, data=[38, 80]),
   midi.NoteOnEvent(tick=0, channel=4, data=[50, 95]),
   midi.NoteOnEvent(tick=0, channel=4, data=[45, 95]),
   midi.NoteOnEvent(tick=0, channel=4, data=[38, 95]),
   midi.NoteOffEvent(tick=240, channel=4, data=[50, 80]),
   midi.NoteOffEvent(tick=0, channel=4, data=[45, 80]),
   midi.NoteOffEvent(tick=0, channel=4, data=[38, 80]),
   midi.NoteOnEvent(tick=0, channel=4, data=[52, 95]),
   midi.NoteOnEvent(tick=0, channel=4, data=[47, 95]),
   midi.NoteOnEvent(tick=0, channel=4, data=[40, 95]),
   midi.NoteOffEvent(tick=240, channel=4, data=[52, 80]),
   midi.NoteOffEvent(tick=0, channel=4, data=[47, 80]),
   midi.NoteOffEvent(tick=0, channel=4, data=[40, 80]),
   midi.NoteOnEvent(tick=0, channel=4, data=[52, 95]),
   midi.NoteOnEvent(tick=0, channel=4, data=[47, 95]),
   midi.NoteOnEvent(tick=0, channel=4, data=[40, 95]),
   midi.NoteOffEvent(tick=240, channel=4, data=[52, 80]),
   midi.NoteOffEvent(tick=0, channel=4, data=[47, 80]),
   midi.NoteOffEvent(tick=0, channel=4, data=[40, 80]),
   midi.NoteOnEvent(tick=0, channel=4, data=[53, 95]),
   midi.NoteOnEvent(tick=0, channel=4, data=[48, 95]),
   midi.NoteOnEvent(tick=0, channel=4, data=[41, 95]),
   midi.NoteOffEvent(tick=240, channel=4, data=[53, 80]),
   midi.NoteOffEvent(tick=0, channel=4, data=[48, 80]),
   midi.NoteOffEvent(tick=0, channel=4, data=[41, 80]),
   midi.NoteOnEvent(tick=0, channel=4, data=[53, 95]),
   midi.NoteOnEvent(tick=0, channel=4, data=[48, 95]),
   midi.NoteOnEvent(tick=0, channel=4, data=[41, 95]),
   midi.NoteOffEvent(tick=240, channel=4, data=[53, 80]),
   midi.NoteOffEvent(tick=0, channel=4, data=[48, 80]),
   midi.NoteOffEvent(tick=0, channel=4, data=[41, 80]),
   midi.NoteOnEvent(tick=0, channel=4, data=[53, 95]),
   midi.NoteOnEvent(tick=0, channel=4, data=[48, 95]),
   midi.NoteOnEvent(tick=0, channel=4, data=[41, 95]),
   midi.NoteOffEvent(tick=240, channel=4, data=[53, 80]),
   midi.NoteOffEvent(tick=0, channel=4, data=[48, 80]),
   midi.NoteOffEvent(tick=0, channel=4, data=[41, 80]),
   midi.NoteOnEvent(tick=0, channel=4, data=[53, 95]),
   midi.NoteOnEvent(tick=0, channel=4, data=[48, 95]),
   midi.NoteOnEvent(tick=0, channel=4, data=[41, 95]),
   midi.NoteOffEvent(tick=240, channel=4, data=[53, 80]),
   midi.NoteOffEvent(tick=0, channel=4, data=[48, 80]),
   midi.NoteOffEvent(tick=0, channel=4, data=[41, 80]),
   midi.NoteOnEvent(tick=0, channel=4, data=[53, 95]),
   midi.NoteOnEvent(tick=0, channel=4, data=[48, 95]),
   midi.NoteOnEvent(tick=0, channel=4, data=[41, 95]),
   midi.NoteOffEvent(tick=240, channel=4, data=[53, 80]),
   midi.NoteOffEvent(tick=0, channel=4, data=[48, 80]),
   midi.NoteOffEvent(tick=0, channel=4, data=[41, 80]),
   midi.NoteOnEvent(tick=0, channel=4, data=[53, 95]),
   midi.NoteOnEvent(tick=0, channel=4, data=[48, 95]),
   midi.NoteOnEvent(tick=0, channel=4, data=[41, 95]),
   midi.NoteOffEvent(tick=240, channel=4, data=[53, 80]),
   midi.NoteOffEvent(tick=0, channel=4, data=[48, 80]),
   midi.NoteOffEvent(tick=0, channel=4, data=[41, 80]),
   midi.NoteOnEvent(tick=480, channel=4, data=[57, 95]),
   midi.NoteOnEvent(tick=0, channel=4, data=[52, 95]),
   midi.NoteOnEvent(tick=0, channel=4, data=[45, 95]),
   midi.NoteOffEvent(tick=240, channel=4, data=[57, 80]),
   midi.NoteOffEvent(tick=0, channel=4, data=[52, 80]),
   midi.NoteOffEvent(tick=0, channel=4, data=[45, 80]),
   midi.NoteOnEvent(tick=0, channel=4, data=[57, 95]),
   midi.NoteOnEvent(tick=0, channel=4, data=[52, 95]),
   midi.NoteOnEvent(tick=0, channel=4, data=[45, 95]),
   midi.NoteOffEvent(tick=240, channel=4, data=[57, 80]),
   midi.NoteOffEvent(tick=0, channel=4, data=[52, 80]),
   midi.NoteOffEvent(tick=0, channel=4, data=[45, 80]),
   midi.NoteOnEvent(tick=0, channel=4, data=[57, 95]),
   midi.NoteOnEvent(tick=0, channel=4, data=[52, 95]),
   midi.NoteOnEvent(tick=0, channel=4, data=[45, 95]),
   midi.NoteOffEvent(tick=240, channel=4, data=[57, 80]),
   midi.NoteOffEvent(tick=0, channel=4, data=[52, 80]),
   midi.NoteOffEvent(tick=0, channel=4, data=[45, 80]),
   midi.NoteOnEvent(tick=0, channel=4, data=[57, 95]),
   midi.NoteOnEvent(tick=0, channel=4, data=[52, 95]),
   midi.NoteOnEvent(tick=0, channel=4, data=[45, 95]),
   midi.NoteOffEvent(tick=240, channel=4, data=[57, 80]),
   midi.NoteOffEvent(tick=0, channel=4, data=[52, 80]),
   midi.NoteOffEvent(tick=0, channel=4, data=[45, 80]),
   midi.NoteOnEvent(tick=0, channel=4, data=[57, 95]),
   midi.NoteOnEvent(tick=0, channel=4, data=[52, 95]),
   midi.NoteOnEvent(tick=0, channel=4, data=[45, 95]),
   midi.NoteOffEvent(tick=240, channel=4, data=[57, 80]),
   midi.NoteOffEvent(tick=0, channel=4, data=[52, 80]),
   midi.NoteOffEvent(tick=0, channel=4, data=[45, 80]),
   midi.NoteOnEvent(tick=0, channel=4, data=[57, 95]),
   midi.NoteOnEvent(tick=0, channel=4, data=[52, 95]),
   midi.NoteOnEvent(tick=0, channel=4, data=[45, 95]),
   midi.NoteOffEvent(tick=240, channel=4, data=[57, 80]),
   midi.NoteOffEvent(tick=0, channel=4, data=[52, 80]),
   midi.NoteOffEvent(tick=0, channel=4, data=[45, 80]),
   midi.NoteOnEvent(tick=0, channel=4, data=[59, 95]),
   midi.NoteOnEvent(tick=0, channel=4, data=[54, 95]),
   midi.NoteOnEvent(tick=0, channel=4, data=[47, 95]),
   midi.NoteOffEvent(tick=240, channel=4, data=[59, 80]),
   midi.NoteOffEvent(tick=0, channel=4, data=[54, 80]),
   midi.NoteOffEvent(tick=0, channel=4, data=[47, 80]),
   midi.NoteOnEvent(tick=0, channel=4, data=[59, 95]),
   midi.NoteOnEvent(tick=0, channel=4, data=[54, 95]),
   midi.NoteOnEvent(tick=0, channel=4, data=[47, 95]),
   midi.NoteOffEvent(tick=240, channel=4, data=[59, 80]),
   midi.NoteOffEvent(tick=0, channel=4, data=[54, 80]),
   midi.NoteOffEvent(tick=0, channel=4, data=[47, 80]),
   midi.NoteOnEvent(tick=0, channel=4, data=[55, 95]),
   midi.NoteOnEvent(tick=0, channel=4, data=[50, 95]),
   midi.NoteOnEvent(tick=0, channel=4, data=[43, 95]),
   midi.NoteOffEvent(tick=240, channel=4, data=[55, 80]),
   midi.NoteOffEvent(tick=0, channel=4, data=[50, 80]),
   midi.NoteOffEvent(tick=0, channel=4, data=[43, 80]),
   midi.NoteOnEvent(tick=0, channel=4, data=[55, 95]),
   midi.NoteOnEvent(tick=0, channel=4, data=[50, 95]),
   midi.NoteOnEvent(tick=0, channel=4, data=[43, 95]),
   midi.NoteOffEvent(tick=240, channel=4, data=[55, 80]),
   midi.NoteOffEvent(tick=0, channel=4, data=[50, 80]),
   midi.NoteOffEvent(tick=0, channel=4, data=[43, 80]),
   midi.NoteOnEvent(tick=0, channel=4, data=[55, 95]),
   midi.NoteOnEvent(tick=0, channel=4, data=[50, 95]),
   midi.NoteOnEvent(tick=0, channel=4, data=[43, 95]),
   midi.NoteOffEvent(tick=240, channel=4, data=[55, 80]),
   midi.NoteOffEvent(tick=0, channel=4, data=[50, 80]),
   midi.NoteOffEvent(tick=0, channel=4, data=[43, 80]),
   midi.NoteOnEvent(tick=0, channel=4, data=[55, 95]),
   midi.NoteOnEvent(tick=0, channel=4, data=[50, 95]),
   midi.NoteOnEvent(tick=0, channel=4, data=[43, 95]),
   midi.NoteOffEvent(tick=240, channel=4, data=[55, 80]),
   midi.NoteOffEvent(tick=0, channel=4, data=[50, 80]),
   midi.NoteOffEvent(tick=0, channel=4, data=[43, 80]),
   midi.NoteOnEvent(tick=0, channel=4, data=[55, 95]),
   midi.NoteOnEvent(tick=0, channel=4, data=[50, 95]),
   midi.NoteOnEvent(tick=0, channel=4, data=[43, 95]),
   midi.NoteOffEvent(tick=240, channel=4, data=[55, 80]),
   midi.NoteOffEvent(tick=0, channel=4, data=[50, 80]),
   midi.NoteOffEvent(tick=0, channel=4, data=[43, 80]),
   midi.NoteOnEvent(tick=0, channel=4, data=[55, 95]),
   midi.NoteOnEvent(tick=0, channel=4, data=[50, 95]),
   midi.NoteOnEvent(tick=0, channel=4, data=[43, 95]),
   midi.NoteOffEvent(tick=240, channel=4, data=[55, 80]),
   midi.NoteOffEvent(tick=0, channel=4, data=[50, 80]),
   midi.NoteOffEvent(tick=0, channel=4, data=[43, 80]),
   midi.NoteOnEvent(tick=23520, channel=4, data=[50, 95]),
   midi.NoteOnEvent(tick=0, channel=4, data=[45, 95]),
   midi.NoteOnEvent(tick=0, channel=4, data=[38, 95]),
   midi.NoteOffEvent(tick=240, channel=4, data=[50, 80]),
   midi.NoteOffEvent(tick=0, channel=4, data=[45, 80]),
   midi.NoteOffEvent(tick=0, channel=4, data=[38, 80]),
   midi.NoteOnEvent(tick=0, channel=4, data=[50, 95]),
   midi.NoteOnEvent(tick=0, channel=4, data=[45, 95]),
   midi.NoteOnEvent(tick=0, channel=4, data=[38, 95]),
   midi.NoteOffEvent(tick=240, channel=4, data=[50, 80]),
   midi.NoteOffEvent(tick=0, channel=4, data=[45, 80]),
   midi.NoteOffEvent(tick=0, channel=4, data=[38, 80]),
   midi.NoteOnEvent(tick=0, channel=4, data=[50, 95]),
   midi.NoteOnEvent(tick=0, channel=4, data=[45, 95]),
   midi.NoteOnEvent(tick=0, channel=4, data=[38, 95]),
   midi.NoteOffEvent(tick=240, channel=4, data=[50, 80]),
   midi.NoteOffEvent(tick=0, channel=4, data=[45, 80]),
   midi.NoteOffEvent(tick=0, channel=4, data=[38, 80]),
   midi.NoteOnEvent(tick=0, channel=4, data=[50, 95]),
   midi.NoteOnEvent(tick=0, channel=4, data=[45, 95]),
   midi.NoteOnEvent(tick=0, channel=4, data=[38, 95]),
   midi.NoteOffEvent(tick=240, channel=4, data=[50, 80]),
   midi.NoteOffEvent(tick=0, channel=4, data=[45, 80]),
   midi.NoteOffEvent(tick=0, channel=4, data=[38, 80]),
   midi.NoteOnEvent(tick=0, channel=4, data=[50, 95]),
   midi.NoteOnEvent(tick=0, channel=4, data=[45, 95]),
   midi.NoteOnEvent(tick=0, channel=4, data=[38, 95]),
   midi.NoteOffEvent(tick=240, channel=4, data=[50, 80]),
   midi.NoteOffEvent(tick=0, channel=4, data=[45, 80]),
   midi.NoteOffEvent(tick=0, channel=4, data=[38, 80]),
   midi.NoteOnEvent(tick=0, channel=4, data=[50, 95]),
   midi.NoteOnEvent(tick=0, channel=4, data=[45, 95]),
   midi.NoteOnEvent(tick=0, channel=4, data=[38, 95]),
   midi.NoteOffEvent(tick=240, channel=4, data=[50, 80]),
   midi.NoteOffEvent(tick=0, channel=4, data=[45, 80]),
   midi.NoteOffEvent(tick=0, channel=4, data=[38, 80]),
   midi.NoteOnEvent(tick=0, channel=4, data=[52, 95]),
   midi.NoteOnEvent(tick=0, channel=4, data=[47, 95]),
   midi.NoteOnEvent(tick=0, channel=4, data=[40, 95]),
   midi.NoteOffEvent(tick=240, channel=4, data=[52, 80]),
   midi.NoteOffEvent(tick=0, channel=4, data=[47, 80]),
   midi.NoteOffEvent(tick=0, channel=4, data=[40, 80]),
   midi.NoteOnEvent(tick=0, channel=4, data=[52, 95]),
   midi.NoteOnEvent(tick=0, channel=4, data=[47, 95]),
   midi.NoteOnEvent(tick=0, channel=4, data=[40, 95]),
   midi.NoteOffEvent(tick=240, channel=4, data=[52, 80]),
   midi.NoteOffEvent(tick=0, channel=4, data=[47, 80]),
   midi.NoteOffEvent(tick=0, channel=4, data=[40, 80]),
   midi.NoteOnEvent(tick=0, channel=4, data=[53, 95]),
   midi.NoteOnEvent(tick=0, channel=4, data=[48, 95]),
   midi.NoteOnEvent(tick=0, channel=4, data=[41, 95]),
   midi.NoteOffEvent(tick=240, channel=4, data=[53, 80]),
   midi.NoteOffEvent(tick=0, channel=4, data=[48, 80]),
   midi.NoteOffEvent(tick=0, channel=4, data=[41, 80]),
   midi.NoteOnEvent(tick=0, channel=4, data=[53, 95]),
   midi.NoteOnEvent(tick=0, channel=4, data=[48, 95]),
   midi.NoteOnEvent(tick=0, channel=4, data=[41, 95]),
   midi.NoteOffEvent(tick=240, channel=4, data=[53, 80]),
   midi.NoteOffEvent(tick=0, channel=4, data=[48, 80]),
   midi.NoteOffEvent(tick=0, channel=4, data=[41, 80]),
   midi.NoteOnEvent(tick=0, channel=4, data=[53, 95]),
   midi.NoteOnEvent(tick=0, channel=4, data=[48, 95]),
   midi.NoteOnEvent(tick=0, channel=4, data=[41, 95]),
   midi.NoteOffEvent(tick=240, channel=4, data=[53, 80]),
   midi.NoteOffEvent(tick=0, channel=4, data=[48, 80]),
   midi.NoteOffEvent(tick=0, channel=4, data=[41, 80]),
   midi.NoteOnEvent(tick=0, channel=4, data=[53, 95]),
   midi.NoteOnEvent(tick=0, channel=4, data=[48, 95]),
   midi.NoteOnEvent(tick=0, channel=4, data=[41, 95]),
   midi.NoteOffEvent(tick=240, channel=4, data=[53, 80]),
   midi.NoteOffEvent(tick=0, channel=4, data=[48, 80]),
   midi.NoteOffEvent(tick=0, channel=4, data=[41, 80]),
   midi.NoteOnEvent(tick=0, channel=4, data=[53, 95]),
   midi.NoteOnEvent(tick=0, channel=4, data=[48, 95]),
   midi.NoteOnEvent(tick=0, channel=4, data=[41, 95]),
   midi.NoteOffEvent(tick=240, channel=4, data=[53, 80]),
   midi.NoteOffEvent(tick=0, channel=4, data=[48, 80]),
   midi.NoteOffEvent(tick=0, channel=4, data=[41, 80]),
   midi.NoteOnEvent(tick=0, channel=4, data=[53, 95]),
   midi.NoteOnEvent(tick=0, channel=4, data=[48, 95]),
   midi.NoteOnEvent(tick=0, channel=4, data=[41, 95]),
   midi.NoteOffEvent(tick=240, channel=4, data=[53, 80]),
   midi.NoteOffEvent(tick=0, channel=4, data=[48, 80]),
   midi.NoteOffEvent(tick=0, channel=4, data=[41, 80]),
   midi.NoteOnEvent(tick=480, channel=4, data=[57, 95]),
   midi.NoteOnEvent(tick=0, channel=4, data=[52, 95]),
   midi.NoteOnEvent(tick=0, channel=4, data=[45, 95]),
   midi.NoteOffEvent(tick=240, channel=4, data=[57, 80]),
   midi.NoteOffEvent(tick=0, channel=4, data=[52, 80]),
   midi.NoteOffEvent(tick=0, channel=4, data=[45, 80]),
   midi.NoteOnEvent(tick=0, channel=4, data=[57, 95]),
   midi.NoteOnEvent(tick=0, channel=4, data=[52, 95]),
   midi.NoteOnEvent(tick=0, channel=4, data=[45, 95]),
   midi.NoteOffEvent(tick=240, channel=4, data=[57, 80]),
   midi.NoteOffEvent(tick=0, channel=4, data=[52, 80]),
   midi.NoteOffEvent(tick=0, channel=4, data=[45, 80]),
   midi.NoteOnEvent(tick=0, channel=4, data=[57, 95]),
   midi.NoteOnEvent(tick=0, channel=4, data=[52, 95]),
   midi.NoteOnEvent(tick=0, channel=4, data=[45, 95]),
   midi.NoteOffEvent(tick=240, channel=4, data=[57, 80]),
   midi.NoteOffEvent(tick=0, channel=4, data=[52, 80]),
   midi.NoteOffEvent(tick=0, channel=4, data=[45, 80]),
   midi.NoteOnEvent(tick=0, channel=4, data=[57, 95]),
   midi.NoteOnEvent(tick=0, channel=4, data=[52, 95]),
   midi.NoteOnEvent(tick=0, channel=4, data=[45, 95]),
   midi.NoteOffEvent(tick=240, channel=4, data=[57, 80]),
   midi.NoteOffEvent(tick=0, channel=4, data=[52, 80]),
   midi.NoteOffEvent(tick=0, channel=4, data=[45, 80]),
   midi.NoteOnEvent(tick=0, channel=4, data=[57, 95]),
   midi.NoteOnEvent(tick=0, channel=4, data=[52, 95]),
   midi.NoteOnEvent(tick=0, channel=4, data=[45, 95]),
   midi.NoteOffEvent(tick=240, channel=4, data=[57, 80]),
   midi.NoteOffEvent(tick=0, channel=4, data=[52, 80]),
   midi.NoteOffEvent(tick=0, channel=4, data=[45, 80]),
   midi.NoteOnEvent(tick=0, channel=4, data=[57, 95]),
   midi.NoteOnEvent(tick=0, channel=4, data=[52, 95]),
   midi.NoteOnEvent(tick=0, channel=4, data=[45, 95]),
   midi.NoteOffEvent(tick=240, channel=4, data=[57, 80]),
   midi.NoteOffEvent(tick=0, channel=4, data=[52, 80]),
   midi.NoteOffEvent(tick=0, channel=4, data=[45, 80]),
   midi.NoteOnEvent(tick=0, channel=4, data=[59, 95]),
   midi.NoteOnEvent(tick=0, channel=4, data=[54, 95]),
   midi.NoteOnEvent(tick=0, channel=4, data=[47, 95]),
   midi.NoteOffEvent(tick=240, channel=4, data=[59, 80]),
   midi.NoteOffEvent(tick=0, channel=4, data=[54, 80]),
   midi.NoteOffEvent(tick=0, channel=4, data=[47, 80]),
   midi.NoteOnEvent(tick=0, channel=4, data=[59, 95]),
   midi.NoteOnEvent(tick=0, channel=4, data=[54, 95]),
   midi.NoteOnEvent(tick=0, channel=4, data=[47, 95]),
   midi.NoteOffEvent(tick=240, channel=4, data=[59, 80]),
   midi.NoteOffEvent(tick=0, channel=4, data=[54, 80]),
   midi.NoteOffEvent(tick=0, channel=4, data=[47, 80]),
   midi.NoteOnEvent(tick=0, channel=4, data=[55, 95]),
   midi.NoteOnEvent(tick=0, channel=4, data=[50, 95]),
   midi.NoteOnEvent(tick=0, channel=4, data=[43, 95]),
   midi.NoteOffEvent(tick=240, channel=4, data=[55, 80]),
   midi.NoteOffEvent(tick=0, channel=4, data=[50, 80]),
   midi.NoteOffEvent(tick=0, channel=4, data=[43, 80]),
   midi.NoteOnEvent(tick=0, channel=4, data=[55, 95]),
   midi.NoteOnEvent(tick=0, channel=4, data=[50, 95]),
   midi.NoteOnEvent(tick=0, channel=4, data=[43, 95]),
   midi.NoteOffEvent(tick=240, channel=4, data=[55, 80]),
   midi.NoteOffEvent(tick=0, channel=4, data=[50, 80]),
   midi.NoteOffEvent(tick=0, channel=4, data=[43, 80]),
   midi.NoteOnEvent(tick=0, channel=4, data=[55, 95]),
   midi.NoteOnEvent(tick=0, channel=4, data=[50, 95]),
   midi.NoteOnEvent(tick=0, channel=4, data=[43, 95]),
   midi.NoteOffEvent(tick=240, channel=4, data=[55, 80]),
   midi.NoteOffEvent(tick=0, channel=4, data=[50, 80]),
   midi.NoteOffEvent(tick=0, channel=4, data=[43, 80]),
   midi.NoteOnEvent(tick=0, channel=4, data=[55, 95]),
   midi.NoteOnEvent(tick=0, channel=4, data=[50, 95]),
   midi.NoteOnEvent(tick=0, channel=4, data=[43, 95]),
   midi.NoteOffEvent(tick=240, channel=4, data=[55, 80]),
   midi.NoteOffEvent(tick=0, channel=4, data=[50, 80]),
   midi.NoteOffEvent(tick=0, channel=4, data=[43, 80]),
   midi.NoteOnEvent(tick=0, channel=4, data=[55, 95]),
   midi.NoteOnEvent(tick=0, channel=4, data=[50, 95]),
   midi.NoteOnEvent(tick=0, channel=4, data=[43, 95]),
   midi.NoteOffEvent(tick=240, channel=4, data=[55, 80]),
   midi.NoteOffEvent(tick=0, channel=4, data=[50, 80]),
   midi.NoteOffEvent(tick=0, channel=4, data=[43, 80]),
   midi.NoteOnEvent(tick=0, channel=4, data=[55, 95]),
   midi.NoteOnEvent(tick=0, channel=4, data=[50, 95]),
   midi.NoteOnEvent(tick=0, channel=4, data=[43, 95]),
   midi.NoteOffEvent(tick=240, channel=4, data=[55, 80]),
   midi.NoteOffEvent(tick=0, channel=4, data=[50, 80]),
   midi.NoteOffEvent(tick=0, channel=4, data=[43, 80]),
   midi.NoteOnEvent(tick=480, channel=4, data=[50, 95]),
   midi.NoteOnEvent(tick=0, channel=4, data=[45, 95]),
   midi.NoteOnEvent(tick=0, channel=4, data=[38, 95]),
   midi.NoteOffEvent(tick=240, channel=4, data=[50, 80]),
   midi.NoteOffEvent(tick=0, channel=4, data=[45, 80]),
   midi.NoteOffEvent(tick=0, channel=4, data=[38, 80]),
   midi.NoteOnEvent(tick=0, channel=4, data=[50, 95]),
   midi.NoteOnEvent(tick=0, channel=4, data=[45, 95]),
   midi.NoteOnEvent(tick=0, channel=4, data=[38, 95]),
   midi.NoteOffEvent(tick=240, channel=4, data=[50, 80]),
   midi.NoteOffEvent(tick=0, channel=4, data=[45, 80]),
   midi.NoteOffEvent(tick=0, channel=4, data=[38, 80]),
   midi.NoteOnEvent(tick=0, channel=4, data=[50, 95]),
   midi.NoteOnEvent(tick=0, channel=4, data=[45, 95]),
   midi.NoteOnEvent(tick=0, channel=4, data=[38, 95]),
   midi.NoteOffEvent(tick=240, channel=4, data=[50, 80]),
   midi.NoteOffEvent(tick=0, channel=4, data=[45, 80]),
   midi.NoteOffEvent(tick=0, channel=4, data=[38, 80]),
   midi.NoteOnEvent(tick=0, channel=4, data=[50, 95]),
   midi.NoteOnEvent(tick=0, channel=4, data=[45, 95]),
   midi.NoteOnEvent(tick=0, channel=4, data=[38, 95]),
   midi.NoteOffEvent(tick=240, channel=4, data=[50, 80]),
   midi.NoteOffEvent(tick=0, channel=4, data=[45, 80]),
   midi.NoteOffEvent(tick=0, channel=4, data=[38, 80]),
   midi.NoteOnEvent(tick=0, channel=4, data=[50, 95]),
   midi.NoteOnEvent(tick=0, channel=4, data=[45, 95]),
   midi.NoteOnEvent(tick=0, channel=4, data=[38, 95]),
   midi.NoteOffEvent(tick=240, channel=4, data=[50, 80]),
   midi.NoteOffEvent(tick=0, channel=4, data=[45, 80]),
   midi.NoteOffEvent(tick=0, channel=4, data=[38, 80]),
   midi.NoteOnEvent(tick=0, channel=4, data=[50, 95]),
   midi.NoteOnEvent(tick=0, channel=4, data=[45, 95]),
   midi.NoteOnEvent(tick=0, channel=4, data=[38, 95]),
   midi.NoteOffEvent(tick=240, channel=4, data=[50, 80]),
   midi.NoteOffEvent(tick=0, channel=4, data=[45, 80]),
   midi.NoteOffEvent(tick=0, channel=4, data=[38, 80]),
   midi.NoteOnEvent(tick=0, channel=4, data=[52, 95]),
   midi.NoteOnEvent(tick=0, channel=4, data=[47, 95]),
   midi.NoteOnEvent(tick=0, channel=4, data=[40, 95]),
   midi.NoteOffEvent(tick=240, channel=4, data=[52, 80]),
   midi.NoteOffEvent(tick=0, channel=4, data=[47, 80]),
   midi.NoteOffEvent(tick=0, channel=4, data=[40, 80]),
   midi.NoteOnEvent(tick=0, channel=4, data=[52, 95]),
   midi.NoteOnEvent(tick=0, channel=4, data=[47, 95]),
   midi.NoteOnEvent(tick=0, channel=4, data=[40, 95]),
   midi.NoteOffEvent(tick=240, channel=4, data=[52, 80]),
   midi.NoteOffEvent(tick=0, channel=4, data=[47, 80]),
   midi.NoteOffEvent(tick=0, channel=4, data=[40, 80]),
   midi.NoteOnEvent(tick=0, channel=4, data=[53, 95]),
   midi.NoteOnEvent(tick=0, channel=4, data=[48, 95]),
   midi.NoteOnEvent(tick=0, channel=4, data=[41, 95]),
   midi.NoteOffEvent(tick=240, channel=4, data=[53, 80]),
   midi.NoteOffEvent(tick=0, channel=4, data=[48, 80]),
   midi.NoteOffEvent(tick=0, channel=4, data=[41, 80]),
   midi.NoteOnEvent(tick=0, channel=4, data=[53, 95]),
   midi.NoteOnEvent(tick=0, channel=4, data=[48, 95]),
   midi.NoteOnEvent(tick=0, channel=4, data=[41, 95]),
   midi.NoteOffEvent(tick=240, channel=4, data=[53, 80]),
   midi.NoteOffEvent(tick=0, channel=4, data=[48, 80]),
   midi.NoteOffEvent(tick=0, channel=4, data=[41, 80]),
   midi.NoteOnEvent(tick=0, channel=4, data=[53, 95]),
   midi.NoteOnEvent(tick=0, channel=4, data=[48, 95]),
   midi.NoteOnEvent(tick=0, channel=4, data=[41, 95]),
   midi.NoteOffEvent(tick=240, channel=4, data=[53, 80]),
   midi.NoteOffEvent(tick=0, channel=4, data=[48, 80]),
   midi.NoteOffEvent(tick=0, channel=4, data=[41, 80]),
   midi.NoteOnEvent(tick=0, channel=4, data=[53, 95]),
   midi.NoteOnEvent(tick=0, channel=4, data=[48, 95]),
   midi.NoteOnEvent(tick=0, channel=4, data=[41, 95]),
   midi.NoteOffEvent(tick=240, channel=4, data=[53, 80]),
   midi.NoteOffEvent(tick=0, channel=4, data=[48, 80]),
   midi.NoteOffEvent(tick=0, channel=4, data=[41, 80]),
   midi.NoteOnEvent(tick=0, channel=4, data=[53, 95]),
   midi.NoteOnEvent(tick=0, channel=4, data=[48, 95]),
   midi.NoteOnEvent(tick=0, channel=4, data=[41, 95]),
   midi.NoteOffEvent(tick=240, channel=4, data=[53, 80]),
   midi.NoteOffEvent(tick=0, channel=4, data=[48, 80]),
   midi.NoteOffEvent(tick=0, channel=4, data=[41, 80]),
   midi.NoteOnEvent(tick=0, channel=4, data=[53, 95]),
   midi.NoteOnEvent(tick=0, channel=4, data=[48, 95]),
   midi.NoteOnEvent(tick=0, channel=4, data=[41, 95]),
   midi.NoteOffEvent(tick=240, channel=4, data=[53, 80]),
   midi.NoteOffEvent(tick=0, channel=4, data=[48, 80]),
   midi.NoteOffEvent(tick=0, channel=4, data=[41, 80]),
   midi.NoteOnEvent(tick=480, channel=4, data=[57, 95]),
   midi.NoteOnEvent(tick=0, channel=4, data=[52, 95]),
   midi.NoteOnEvent(tick=0, channel=4, data=[45, 95]),
   midi.NoteOffEvent(tick=240, channel=4, data=[57, 80]),
   midi.NoteOffEvent(tick=0, channel=4, data=[52, 80]),
   midi.NoteOffEvent(tick=0, channel=4, data=[45, 80]),
   midi.NoteOnEvent(tick=0, channel=4, data=[57, 95]),
   midi.NoteOnEvent(tick=0, channel=4, data=[52, 95]),
   midi.NoteOnEvent(tick=0, channel=4, data=[45, 95]),
   midi.NoteOffEvent(tick=240, channel=4, data=[57, 80]),
   midi.NoteOffEvent(tick=0, channel=4, data=[52, 80]),
   midi.NoteOffEvent(tick=0, channel=4, data=[45, 80]),
   midi.NoteOnEvent(tick=0, channel=4, data=[57, 95]),
   midi.NoteOnEvent(tick=0, channel=4, data=[52, 95]),
   midi.NoteOnEvent(tick=0, channel=4, data=[45, 95]),
   midi.NoteOffEvent(tick=240, channel=4, data=[57, 80]),
   midi.NoteOffEvent(tick=0, channel=4, data=[52, 80]),
   midi.NoteOffEvent(tick=0, channel=4, data=[45, 80]),
   midi.NoteOnEvent(tick=0, channel=4, data=[57, 95]),
   midi.NoteOnEvent(tick=0, channel=4, data=[52, 95]),
   midi.NoteOnEvent(tick=0, channel=4, data=[45, 95]),
   midi.NoteOffEvent(tick=240, channel=4, data=[57, 80]),
   midi.NoteOffEvent(tick=0, channel=4, data=[52, 80]),
   midi.NoteOffEvent(tick=0, channel=4, data=[45, 80]),
   midi.NoteOnEvent(tick=0, channel=4, data=[57, 95]),
   midi.NoteOnEvent(tick=0, channel=4, data=[52, 95]),
   midi.NoteOnEvent(tick=0, channel=4, data=[45, 95]),
   midi.NoteOffEvent(tick=240, channel=4, data=[57, 80]),
   midi.NoteOffEvent(tick=0, channel=4, data=[52, 80]),
   midi.NoteOffEvent(tick=0, channel=4, data=[45, 80]),
   midi.NoteOnEvent(tick=0, channel=4, data=[57, 95]),
   midi.NoteOnEvent(tick=0, channel=4, data=[52, 95]),
   midi.NoteOnEvent(tick=0, channel=4, data=[45, 95]),
   midi.NoteOffEvent(tick=240, channel=4, data=[57, 80]),
   midi.NoteOffEvent(tick=0, channel=4, data=[52, 80]),
   midi.NoteOffEvent(tick=0, channel=4, data=[45, 80]),
   midi.NoteOnEvent(tick=0, channel=4, data=[59, 95]),
   midi.NoteOnEvent(tick=0, channel=4, data=[54, 95]),
   midi.NoteOnEvent(tick=0, channel=4, data=[47, 95]),
   midi.NoteOffEvent(tick=240, channel=4, data=[59, 80]),
   midi.NoteOffEvent(tick=0, channel=4, data=[54, 80]),
   midi.NoteOffEvent(tick=0, channel=4, data=[47, 80]),
   midi.NoteOnEvent(tick=0, channel=4, data=[59, 95]),
   midi.NoteOnEvent(tick=0, channel=4, data=[54, 95]),
   midi.NoteOnEvent(tick=0, channel=4, data=[47, 95]),
   midi.NoteOffEvent(tick=240, channel=4, data=[59, 80]),
   midi.NoteOffEvent(tick=0, channel=4, data=[54, 80]),
   midi.NoteOffEvent(tick=0, channel=4, data=[47, 80]),
   midi.NoteOnEvent(tick=0, channel=4, data=[55, 95]),
   midi.NoteOnEvent(tick=0, channel=4, data=[50, 95]),
   midi.NoteOnEvent(tick=0, channel=4, data=[43, 95]),
   midi.NoteOffEvent(tick=240, channel=4, data=[55, 80]),
   midi.NoteOffEvent(tick=0, channel=4, data=[50, 80]),
   midi.NoteOffEvent(tick=0, channel=4, data=[43, 80]),
   midi.NoteOnEvent(tick=0, channel=4, data=[55, 95]),
   midi.NoteOnEvent(tick=0, channel=4, data=[50, 95]),
   midi.NoteOnEvent(tick=0, channel=4, data=[43, 95]),
   midi.NoteOffEvent(tick=240, channel=4, data=[55, 80]),
   midi.NoteOffEvent(tick=0, channel=4, data=[50, 80]),
   midi.NoteOffEvent(tick=0, channel=4, data=[43, 80]),
   midi.NoteOnEvent(tick=0, channel=4, data=[55, 95]),
   midi.NoteOnEvent(tick=0, channel=4, data=[50, 95]),
   midi.NoteOnEvent(tick=0, channel=4, data=[43, 95]),
   midi.NoteOffEvent(tick=240, channel=4, data=[55, 80]),
   midi.NoteOffEvent(tick=0, channel=4, data=[50, 80]),
   midi.NoteOffEvent(tick=0, channel=4, data=[43, 80]),
   midi.NoteOnEvent(tick=0, channel=4, data=[55, 95]),
   midi.NoteOnEvent(tick=0, channel=4, data=[50, 95]),
   midi.NoteOnEvent(tick=0, channel=4, data=[43, 95]),
   midi.NoteOffEvent(tick=240, channel=4, data=[55, 80]),
   midi.NoteOffEvent(tick=0, channel=4, data=[50, 80]),
   midi.NoteOffEvent(tick=0, channel=4, data=[43, 80]),
   midi.NoteOnEvent(tick=0, channel=4, data=[55, 95]),
   midi.NoteOnEvent(tick=0, channel=4, data=[50, 95]),
   midi.NoteOnEvent(tick=0, channel=4, data=[43, 95]),
   midi.NoteOffEvent(tick=240, channel=4, data=[55, 80]),
   midi.NoteOffEvent(tick=0, channel=4, data=[50, 80]),
   midi.NoteOffEvent(tick=0, channel=4, data=[43, 80]),
   midi.NoteOnEvent(tick=0, channel=4, data=[55, 95]),
   midi.NoteOnEvent(tick=0, channel=4, data=[50, 95]),
   midi.NoteOnEvent(tick=0, channel=4, data=[43, 95]),
   midi.NoteOffEvent(tick=240, channel=4, data=[55, 80]),
   midi.NoteOffEvent(tick=0, channel=4, data=[50, 80]),
   midi.NoteOffEvent(tick=0, channel=4, data=[43, 80]),
   midi.NoteOnEvent(tick=480, channel=4, data=[50, 95]),
   midi.NoteOnEvent(tick=0, channel=4, data=[45, 95]),
   midi.NoteOnEvent(tick=0, channel=4, data=[38, 95]),
   midi.NoteOffEvent(tick=240, channel=4, data=[50, 80]),
   midi.NoteOffEvent(tick=0, channel=4, data=[45, 80]),
   midi.NoteOffEvent(tick=0, channel=4, data=[38, 80]),
   midi.NoteOnEvent(tick=0, channel=4, data=[50, 95]),
   midi.NoteOnEvent(tick=0, channel=4, data=[45, 95]),
   midi.NoteOnEvent(tick=0, channel=4, data=[38, 95]),
   midi.NoteOffEvent(tick=240, channel=4, data=[50, 80]),
   midi.NoteOffEvent(tick=0, channel=4, data=[45, 80]),
   midi.NoteOffEvent(tick=0, channel=4, data=[38, 80]),
   midi.NoteOnEvent(tick=0, channel=4, data=[50, 95]),
   midi.NoteOnEvent(tick=0, channel=4, data=[45, 95]),
   midi.NoteOnEvent(tick=0, channel=4, data=[38, 95]),
   midi.NoteOffEvent(tick=240, channel=4, data=[50, 80]),
   midi.NoteOffEvent(tick=0, channel=4, data=[45, 80]),
   midi.NoteOffEvent(tick=0, channel=4, data=[38, 80]),
   midi.NoteOnEvent(tick=0, channel=4, data=[50, 95]),
   midi.NoteOnEvent(tick=0, channel=4, data=[45, 95]),
   midi.NoteOnEvent(tick=0, channel=4, data=[38, 95]),
   midi.NoteOffEvent(tick=240, channel=4, data=[50, 80]),
   midi.NoteOffEvent(tick=0, channel=4, data=[45, 80]),
   midi.NoteOffEvent(tick=0, channel=4, data=[38, 80]),
   midi.NoteOnEvent(tick=0, channel=4, data=[50, 95]),
   midi.NoteOnEvent(tick=0, channel=4, data=[45, 95]),
   midi.NoteOnEvent(tick=0, channel=4, data=[38, 95]),
   midi.NoteOffEvent(tick=240, channel=4, data=[50, 80]),
   midi.NoteOffEvent(tick=0, channel=4, data=[45, 80]),
   midi.NoteOffEvent(tick=0, channel=4, data=[38, 80]),
   midi.NoteOnEvent(tick=0, channel=4, data=[50, 95]),
   midi.NoteOnEvent(tick=0, channel=4, data=[45, 95]),
   midi.NoteOnEvent(tick=0, channel=4, data=[38, 95]),
   midi.NoteOffEvent(tick=240, channel=4, data=[50, 80]),
   midi.NoteOffEvent(tick=0, channel=4, data=[45, 80]),
   midi.NoteOffEvent(tick=0, channel=4, data=[38, 80]),
   midi.NoteOnEvent(tick=0, channel=4, data=[52, 95]),
   midi.NoteOnEvent(tick=0, channel=4, data=[47, 95]),
   midi.NoteOnEvent(tick=0, channel=4, data=[40, 95]),
   midi.NoteOffEvent(tick=240, channel=4, data=[52, 80]),
   midi.NoteOffEvent(tick=0, channel=4, data=[47, 80]),
   midi.NoteOffEvent(tick=0, channel=4, data=[40, 80]),
   midi.NoteOnEvent(tick=0, channel=4, data=[52, 95]),
   midi.NoteOnEvent(tick=0, channel=4, data=[47, 95]),
   midi.NoteOnEvent(tick=0, channel=4, data=[40, 95]),
   midi.NoteOffEvent(tick=240, channel=4, data=[52, 80]),
   midi.NoteOffEvent(tick=0, channel=4, data=[47, 80]),
   midi.NoteOffEvent(tick=0, channel=4, data=[40, 80]),
   midi.NoteOnEvent(tick=0, channel=4, data=[53, 95]),
   midi.NoteOnEvent(tick=0, channel=4, data=[48, 95]),
   midi.NoteOnEvent(tick=0, channel=4, data=[41, 95]),
   midi.NoteOffEvent(tick=240, channel=4, data=[53, 80]),
   midi.NoteOffEvent(tick=0, channel=4, data=[48, 80]),
   midi.NoteOffEvent(tick=0, channel=4, data=[41, 80]),
   midi.NoteOnEvent(tick=0, channel=4, data=[53, 95]),
   midi.NoteOnEvent(tick=0, channel=4, data=[48, 95]),
   midi.NoteOnEvent(tick=0, channel=4, data=[41, 95]),
   midi.NoteOffEvent(tick=240, channel=4, data=[53, 80]),
   midi.NoteOffEvent(tick=0, channel=4, data=[48, 80]),
   midi.NoteOffEvent(tick=0, channel=4, data=[41, 80]),
   midi.NoteOnEvent(tick=0, channel=4, data=[53, 95]),
   midi.NoteOnEvent(tick=0, channel=4, data=[48, 95]),
   midi.NoteOnEvent(tick=0, channel=4, data=[41, 95]),
   midi.NoteOffEvent(tick=240, channel=4, data=[53, 80]),
   midi.NoteOffEvent(tick=0, channel=4, data=[48, 80]),
   midi.NoteOffEvent(tick=0, channel=4, data=[41, 80]),
   midi.NoteOnEvent(tick=0, channel=4, data=[53, 95]),
   midi.NoteOnEvent(tick=0, channel=4, data=[48, 95]),
   midi.NoteOnEvent(tick=0, channel=4, data=[41, 95]),
   midi.NoteOffEvent(tick=240, channel=4, data=[53, 80]),
   midi.NoteOffEvent(tick=0, channel=4, data=[48, 80]),
   midi.NoteOffEvent(tick=0, channel=4, data=[41, 80]),
   midi.NoteOnEvent(tick=0, channel=4, data=[53, 95]),
   midi.NoteOnEvent(tick=0, channel=4, data=[48, 95]),
   midi.NoteOnEvent(tick=0, channel=4, data=[41, 95]),
   midi.NoteOffEvent(tick=240, channel=4, data=[53, 80]),
   midi.NoteOffEvent(tick=0, channel=4, data=[48, 80]),
   midi.NoteOffEvent(tick=0, channel=4, data=[41, 80]),
   midi.NoteOnEvent(tick=0, channel=4, data=[53, 95]),
   midi.NoteOnEvent(tick=0, channel=4, data=[48, 95]),
   midi.NoteOnEvent(tick=0, channel=4, data=[41, 95]),
   midi.NoteOffEvent(tick=240, channel=4, data=[53, 80]),
   midi.NoteOffEvent(tick=0, channel=4, data=[48, 80]),
   midi.NoteOffEvent(tick=0, channel=4, data=[41, 80]),
   midi.NoteOnEvent(tick=480, channel=4, data=[57, 95]),
   midi.NoteOnEvent(tick=0, channel=4, data=[52, 95]),
   midi.NoteOnEvent(tick=0, channel=4, data=[45, 95]),
   midi.NoteOffEvent(tick=240, channel=4, data=[57, 80]),
   midi.NoteOffEvent(tick=0, channel=4, data=[52, 80]),
   midi.NoteOffEvent(tick=0, channel=4, data=[45, 80]),
   midi.NoteOnEvent(tick=0, channel=4, data=[57, 95]),
   midi.NoteOnEvent(tick=0, channel=4, data=[52, 95]),
   midi.NoteOnEvent(tick=0, channel=4, data=[45, 95]),
   midi.NoteOffEvent(tick=240, channel=4, data=[57, 80]),
   midi.NoteOffEvent(tick=0, channel=4, data=[52, 80]),
   midi.NoteOffEvent(tick=0, channel=4, data=[45, 80]),
   midi.NoteOnEvent(tick=0, channel=4, data=[57, 95]),
   midi.NoteOnEvent(tick=0, channel=4, data=[52, 95]),
   midi.NoteOnEvent(tick=0, channel=4, data=[45, 95]),
   midi.NoteOffEvent(tick=240, channel=4, data=[57, 80]),
   midi.NoteOffEvent(tick=0, channel=4, data=[52, 80]),
   midi.NoteOffEvent(tick=0, channel=4, data=[45, 80]),
   midi.NoteOnEvent(tick=0, channel=4, data=[57, 95]),
   midi.NoteOnEvent(tick=0, channel=4, data=[52, 95]),
   midi.NoteOnEvent(tick=0, channel=4, data=[45, 95]),
   midi.NoteOffEvent(tick=240, channel=4, data=[57, 80]),
   midi.NoteOffEvent(tick=0, channel=4, data=[52, 80]),
   midi.NoteOffEvent(tick=0, channel=4, data=[45, 80]),
   midi.NoteOnEvent(tick=0, channel=4, data=[57, 95]),
   midi.NoteOnEvent(tick=0, channel=4, data=[52, 95]),
   midi.NoteOnEvent(tick=0, channel=4, data=[45, 95]),
   midi.NoteOffEvent(tick=240, channel=4, data=[57, 80]),
   midi.NoteOffEvent(tick=0, channel=4, data=[52, 80]),
   midi.NoteOffEvent(tick=0, channel=4, data=[45, 80]),
   midi.NoteOnEvent(tick=0, channel=4, data=[57, 95]),
   midi.NoteOnEvent(tick=0, channel=4, data=[52, 95]),
   midi.NoteOnEvent(tick=0, channel=4, data=[45, 95]),
   midi.NoteOffEvent(tick=240, channel=4, data=[57, 80]),
   midi.NoteOffEvent(tick=0, channel=4, data=[52, 80]),
   midi.NoteOffEvent(tick=0, channel=4, data=[45, 80]),
   midi.NoteOnEvent(tick=0, channel=4, data=[59, 95]),
   midi.NoteOnEvent(tick=0, channel=4, data=[54, 95]),
   midi.NoteOnEvent(tick=0, channel=4, data=[47, 95]),
   midi.NoteOffEvent(tick=240, channel=4, data=[59, 80]),
   midi.NoteOffEvent(tick=0, channel=4, data=[54, 80]),
   midi.NoteOffEvent(tick=0, channel=4, data=[47, 80]),
   midi.NoteOnEvent(tick=0, channel=4, data=[59, 95]),
   midi.NoteOnEvent(tick=0, channel=4, data=[54, 95]),
   midi.NoteOnEvent(tick=0, channel=4, data=[47, 95]),
   midi.NoteOffEvent(tick=240, channel=4, data=[59, 80]),
   midi.NoteOffEvent(tick=0, channel=4, data=[54, 80]),
   midi.NoteOffEvent(tick=0, channel=4, data=[47, 80]),
   midi.NoteOnEvent(tick=0, channel=4, data=[55, 95]),
   midi.NoteOnEvent(tick=0, channel=4, data=[50, 95]),
   midi.NoteOnEvent(tick=0, channel=4, data=[43, 95]),
   midi.NoteOffEvent(tick=240, channel=4, data=[55, 80]),
   midi.NoteOffEvent(tick=0, channel=4, data=[50, 80]),
   midi.NoteOffEvent(tick=0, channel=4, data=[43, 80]),
   midi.NoteOnEvent(tick=0, channel=4, data=[55, 95]),
   midi.NoteOnEvent(tick=0, channel=4, data=[50, 95]),
   midi.NoteOnEvent(tick=0, channel=4, data=[43, 95]),
   midi.NoteOffEvent(tick=240, channel=4, data=[55, 80]),
   midi.NoteOffEvent(tick=0, channel=4, data=[50, 80]),
   midi.NoteOffEvent(tick=0, channel=4, data=[43, 80]),
   midi.NoteOnEvent(tick=0, channel=4, data=[55, 95]),
   midi.NoteOnEvent(tick=0, channel=4, data=[50, 95]),
   midi.NoteOnEvent(tick=0, channel=4, data=[43, 95]),
   midi.NoteOffEvent(tick=240, channel=4, data=[55, 80]),
   midi.NoteOffEvent(tick=0, channel=4, data=[50, 80]),
   midi.NoteOffEvent(tick=0, channel=4, data=[43, 80]),
   midi.NoteOnEvent(tick=0, channel=4, data=[55, 95]),
   midi.NoteOnEvent(tick=0, channel=4, data=[50, 95]),
   midi.NoteOnEvent(tick=0, channel=4, data=[43, 95]),
   midi.NoteOffEvent(tick=240, channel=4, data=[55, 80]),
   midi.NoteOffEvent(tick=0, channel=4, data=[50, 80]),
   midi.NoteOffEvent(tick=0, channel=4, data=[43, 80]),
   midi.NoteOnEvent(tick=0, channel=4, data=[55, 95]),
   midi.NoteOnEvent(tick=0, channel=4, data=[50, 95]),
   midi.NoteOnEvent(tick=0, channel=4, data=[43, 95]),
   midi.NoteOffEvent(tick=240, channel=4, data=[55, 80]),
   midi.NoteOffEvent(tick=0, channel=4, data=[50, 80]),
   midi.NoteOffEvent(tick=0, channel=4, data=[43, 80]),
   midi.NoteOnEvent(tick=0, channel=4, data=[55, 95]),
   midi.NoteOnEvent(tick=0, channel=4, data=[50, 95]),
   midi.NoteOnEvent(tick=0, channel=4, data=[43, 95]),
   midi.NoteOffEvent(tick=240, channel=4, data=[55, 80]),
   midi.NoteOffEvent(tick=0, channel=4, data=[50, 80]),
   midi.NoteOffEvent(tick=0, channel=4, data=[43, 80]),
   midi.NoteOnEvent(tick=31200, channel=4, data=[50, 95]),
   midi.NoteOnEvent(tick=0, channel=4, data=[45, 95]),
   midi.NoteOnEvent(tick=0, channel=4, data=[38, 95]),
   midi.NoteOffEvent(tick=240, channel=4, data=[50, 80]),
   midi.NoteOffEvent(tick=0, channel=4, data=[45, 80]),
   midi.NoteOffEvent(tick=0, channel=4, data=[38, 80]),
   midi.NoteOnEvent(tick=0, channel=4, data=[50, 95]),
   midi.NoteOnEvent(tick=0, channel=4, data=[45, 95]),
   midi.NoteOnEvent(tick=0, channel=4, data=[38, 95]),
   midi.NoteOffEvent(tick=240, channel=4, data=[50, 80]),
   midi.NoteOffEvent(tick=0, channel=4, data=[45, 80]),
   midi.NoteOffEvent(tick=0, channel=4, data=[38, 80]),
   midi.NoteOnEvent(tick=0, channel=4, data=[50, 95]),
   midi.NoteOnEvent(tick=0, channel=4, data=[45, 95]),
   midi.NoteOnEvent(tick=0, channel=4, data=[38, 95]),
   midi.NoteOffEvent(tick=240, channel=4, data=[50, 80]),
   midi.NoteOffEvent(tick=0, channel=4, data=[45, 80]),
   midi.NoteOffEvent(tick=0, channel=4, data=[38, 80]),
   midi.NoteOnEvent(tick=0, channel=4, data=[50, 95]),
   midi.NoteOnEvent(tick=0, channel=4, data=[45, 95]),
   midi.NoteOnEvent(tick=0, channel=4, data=[38, 95]),
   midi.NoteOffEvent(tick=240, channel=4, data=[50, 80]),
   midi.NoteOffEvent(tick=0, channel=4, data=[45, 80]),
   midi.NoteOffEvent(tick=0, channel=4, data=[38, 80]),
   midi.NoteOnEvent(tick=0, channel=4, data=[50, 95]),
   midi.NoteOnEvent(tick=0, channel=4, data=[45, 95]),
   midi.NoteOnEvent(tick=0, channel=4, data=[38, 95]),
   midi.NoteOffEvent(tick=240, channel=4, data=[50, 80]),
   midi.NoteOffEvent(tick=0, channel=4, data=[45, 80]),
   midi.NoteOffEvent(tick=0, channel=4, data=[38, 80]),
   midi.NoteOnEvent(tick=0, channel=4, data=[50, 95]),
   midi.NoteOnEvent(tick=0, channel=4, data=[45, 95]),
   midi.NoteOnEvent(tick=0, channel=4, data=[38, 95]),
   midi.NoteOffEvent(tick=240, channel=4, data=[50, 80]),
   midi.NoteOffEvent(tick=0, channel=4, data=[45, 80]),
   midi.NoteOffEvent(tick=0, channel=4, data=[38, 80]),
   midi.NoteOnEvent(tick=0, channel=4, data=[52, 95]),
   midi.NoteOnEvent(tick=0, channel=4, data=[47, 95]),
   midi.NoteOnEvent(tick=0, channel=4, data=[40, 95]),
   midi.NoteOffEvent(tick=240, channel=4, data=[52, 80]),
   midi.NoteOffEvent(tick=0, channel=4, data=[47, 80]),
   midi.NoteOffEvent(tick=0, channel=4, data=[40, 80]),
   midi.NoteOnEvent(tick=0, channel=4, data=[52, 95]),
   midi.NoteOnEvent(tick=0, channel=4, data=[47, 95]),
   midi.NoteOnEvent(tick=0, channel=4, data=[40, 95]),
   midi.NoteOffEvent(tick=240, channel=4, data=[52, 80]),
   midi.NoteOffEvent(tick=0, channel=4, data=[47, 80]),
   midi.NoteOffEvent(tick=0, channel=4, data=[40, 80]),
   midi.NoteOnEvent(tick=0, channel=4, data=[53, 95]),
   midi.NoteOnEvent(tick=0, channel=4, data=[48, 95]),
   midi.NoteOnEvent(tick=0, channel=4, data=[41, 95]),
   midi.NoteOffEvent(tick=240, channel=4, data=[53, 80]),
   midi.NoteOffEvent(tick=0, channel=4, data=[48, 80]),
   midi.NoteOffEvent(tick=0, channel=4, data=[41, 80]),
   midi.NoteOnEvent(tick=0, channel=4, data=[53, 95]),
   midi.NoteOnEvent(tick=0, channel=4, data=[48, 95]),
   midi.NoteOnEvent(tick=0, channel=4, data=[41, 95]),
   midi.NoteOffEvent(tick=240, channel=4, data=[53, 80]),
   midi.NoteOffEvent(tick=0, channel=4, data=[48, 80]),
   midi.NoteOffEvent(tick=0, channel=4, data=[41, 80]),
   midi.NoteOnEvent(tick=0, channel=4, data=[53, 95]),
   midi.NoteOnEvent(tick=0, channel=4, data=[48, 95]),
   midi.NoteOnEvent(tick=0, channel=4, data=[41, 95]),
   midi.NoteOffEvent(tick=240, channel=4, data=[53, 80]),
   midi.NoteOffEvent(tick=0, channel=4, data=[48, 80]),
   midi.NoteOffEvent(tick=0, channel=4, data=[41, 80]),
   midi.NoteOnEvent(tick=0, channel=4, data=[53, 95]),
   midi.NoteOnEvent(tick=0, channel=4, data=[48, 95]),
   midi.NoteOnEvent(tick=0, channel=4, data=[41, 95]),
   midi.NoteOffEvent(tick=240, channel=4, data=[53, 80]),
   midi.NoteOffEvent(tick=0, channel=4, data=[48, 80]),
   midi.NoteOffEvent(tick=0, channel=4, data=[41, 80]),
   midi.NoteOnEvent(tick=0, channel=4, data=[53, 95]),
   midi.NoteOnEvent(tick=0, channel=4, data=[48, 95]),
   midi.NoteOnEvent(tick=0, channel=4, data=[41, 95]),
   midi.NoteOffEvent(tick=240, channel=4, data=[53, 80]),
   midi.NoteOffEvent(tick=0, channel=4, data=[48, 80]),
   midi.NoteOffEvent(tick=0, channel=4, data=[41, 80]),
   midi.NoteOnEvent(tick=0, channel=4, data=[53, 95]),
   midi.NoteOnEvent(tick=0, channel=4, data=[48, 95]),
   midi.NoteOnEvent(tick=0, channel=4, data=[41, 95]),
   midi.NoteOffEvent(tick=240, channel=4, data=[53, 80]),
   midi.NoteOffEvent(tick=0, channel=4, data=[48, 80]),
   midi.NoteOffEvent(tick=0, channel=4, data=[41, 80]),
   midi.NoteOnEvent(tick=480, channel=4, data=[57, 95]),
   midi.NoteOnEvent(tick=0, channel=4, data=[52, 95]),
   midi.NoteOnEvent(tick=0, channel=4, data=[45, 95]),
   midi.NoteOffEvent(tick=240, channel=4, data=[57, 80]),
   midi.NoteOffEvent(tick=0, channel=4, data=[52, 80]),
   midi.NoteOffEvent(tick=0, channel=4, data=[45, 80]),
   midi.NoteOnEvent(tick=0, channel=4, data=[57, 95]),
   midi.NoteOnEvent(tick=0, channel=4, data=[52, 95]),
   midi.NoteOnEvent(tick=0, channel=4, data=[45, 95]),
   midi.NoteOffEvent(tick=240, channel=4, data=[57, 80]),
   midi.NoteOffEvent(tick=0, channel=4, data=[52, 80]),
   midi.NoteOffEvent(tick=0, channel=4, data=[45, 80]),
   midi.NoteOnEvent(tick=0, channel=4, data=[57, 95]),
   midi.NoteOnEvent(tick=0, channel=4, data=[52, 95]),
   midi.NoteOnEvent(tick=0, channel=4, data=[45, 95]),
   midi.NoteOffEvent(tick=240, channel=4, data=[57, 80]),
   midi.NoteOffEvent(tick=0, channel=4, data=[52, 80]),
   midi.NoteOffEvent(tick=0, channel=4, data=[45, 80]),
   midi.NoteOnEvent(tick=0, channel=4, data=[57, 95]),
   midi.NoteOnEvent(tick=0, channel=4, data=[52, 95]),
   midi.NoteOnEvent(tick=0, channel=4, data=[45, 95]),
   midi.NoteOffEvent(tick=240, channel=4, data=[57, 80]),
   midi.NoteOffEvent(tick=0, channel=4, data=[52, 80]),
   midi.NoteOffEvent(tick=0, channel=4, data=[45, 80]),
   midi.NoteOnEvent(tick=0, channel=4, data=[57, 95]),
   midi.NoteOnEvent(tick=0, channel=4, data=[52, 95]),
   midi.NoteOnEvent(tick=0, channel=4, data=[45, 95]),
   midi.NoteOffEvent(tick=240, channel=4, data=[57, 80]),
   midi.NoteOffEvent(tick=0, channel=4, data=[52, 80]),
   midi.NoteOffEvent(tick=0, channel=4, data=[45, 80]),
   midi.NoteOnEvent(tick=0, channel=4, data=[57, 95]),
   midi.NoteOnEvent(tick=0, channel=4, data=[52, 95]),
   midi.NoteOnEvent(tick=0, channel=4, data=[45, 95]),
   midi.NoteOffEvent(tick=240, channel=4, data=[57, 80]),
   midi.NoteOffEvent(tick=0, channel=4, data=[52, 80]),
   midi.NoteOffEvent(tick=0, channel=4, data=[45, 80]),
   midi.NoteOnEvent(tick=0, channel=4, data=[59, 95]),
   midi.NoteOnEvent(tick=0, channel=4, data=[54, 95]),
   midi.NoteOnEvent(tick=0, channel=4, data=[47, 95]),
   midi.NoteOffEvent(tick=240, channel=4, data=[59, 80]),
   midi.NoteOffEvent(tick=0, channel=4, data=[54, 80]),
   midi.NoteOffEvent(tick=0, channel=4, data=[47, 80]),
   midi.NoteOnEvent(tick=0, channel=4, data=[59, 95]),
   midi.NoteOnEvent(tick=0, channel=4, data=[54, 95]),
   midi.NoteOnEvent(tick=0, channel=4, data=[47, 95]),
   midi.NoteOffEvent(tick=240, channel=4, data=[59, 80]),
   midi.NoteOffEvent(tick=0, channel=4, data=[54, 80]),
   midi.NoteOffEvent(tick=0, channel=4, data=[47, 80]),
   midi.NoteOnEvent(tick=0, channel=4, data=[55, 95]),
   midi.NoteOnEvent(tick=0, channel=4, data=[50, 95]),
   midi.NoteOnEvent(tick=0, channel=4, data=[43, 95]),
   midi.NoteOffEvent(tick=240, channel=4, data=[55, 80]),
   midi.NoteOffEvent(tick=0, channel=4, data=[50, 80]),
   midi.NoteOffEvent(tick=0, channel=4, data=[43, 80]),
   midi.NoteOnEvent(tick=0, channel=4, data=[55, 95]),
   midi.NoteOnEvent(tick=0, channel=4, data=[50, 95]),
   midi.NoteOnEvent(tick=0, channel=4, data=[43, 95]),
   midi.NoteOffEvent(tick=240, channel=4, data=[55, 80]),
   midi.NoteOffEvent(tick=0, channel=4, data=[50, 80]),
   midi.NoteOffEvent(tick=0, channel=4, data=[43, 80]),
   midi.NoteOnEvent(tick=0, channel=4, data=[55, 95]),
   midi.NoteOnEvent(tick=0, channel=4, data=[50, 95]),
   midi.NoteOnEvent(tick=0, channel=4, data=[43, 95]),
   midi.NoteOffEvent(tick=240, channel=4, data=[55, 80]),
   midi.NoteOffEvent(tick=0, channel=4, data=[50, 80]),
   midi.NoteOffEvent(tick=0, channel=4, data=[43, 80]),
   midi.NoteOnEvent(tick=0, channel=4, data=[55, 95]),
   midi.NoteOnEvent(tick=0, channel=4, data=[50, 95]),
   midi.NoteOnEvent(tick=0, channel=4, data=[43, 95]),
   midi.NoteOffEvent(tick=240, channel=4, data=[55, 80]),
   midi.NoteOffEvent(tick=0, channel=4, data=[50, 80]),
   midi.NoteOffEvent(tick=0, channel=4, data=[43, 80]),
   midi.NoteOnEvent(tick=0, channel=4, data=[55, 95]),
   midi.NoteOnEvent(tick=0, channel=4, data=[50, 95]),
   midi.NoteOnEvent(tick=0, channel=4, data=[43, 95]),
   midi.NoteOffEvent(tick=240, channel=4, data=[55, 80]),
   midi.NoteOffEvent(tick=0, channel=4, data=[50, 80]),
   midi.NoteOffEvent(tick=0, channel=4, data=[43, 80]),
   midi.NoteOnEvent(tick=0, channel=4, data=[55, 95]),
   midi.NoteOnEvent(tick=0, channel=4, data=[50, 95]),
   midi.NoteOnEvent(tick=0, channel=4, data=[43, 95]),
   midi.NoteOffEvent(tick=240, channel=4, data=[55, 80]),
   midi.NoteOffEvent(tick=0, channel=4, data=[50, 80]),
   midi.NoteOffEvent(tick=0, channel=4, data=[43, 80]),
   midi.NoteOnEvent(tick=480, channel=4, data=[50, 95]),
   midi.NoteOnEvent(tick=0, channel=4, data=[45, 95]),
   midi.NoteOnEvent(tick=0, channel=4, data=[38, 95]),
   midi.NoteOffEvent(tick=240, channel=4, data=[50, 80]),
   midi.NoteOffEvent(tick=0, channel=4, data=[45, 80]),
   midi.NoteOffEvent(tick=0, channel=4, data=[38, 80]),
   midi.NoteOnEvent(tick=0, channel=4, data=[50, 95]),
   midi.NoteOnEvent(tick=0, channel=4, data=[45, 95]),
   midi.NoteOnEvent(tick=0, channel=4, data=[38, 95]),
   midi.NoteOffEvent(tick=240, channel=4, data=[50, 80]),
   midi.NoteOffEvent(tick=0, channel=4, data=[45, 80]),
   midi.NoteOffEvent(tick=0, channel=4, data=[38, 80]),
   midi.NoteOnEvent(tick=0, channel=4, data=[50, 95]),
   midi.NoteOnEvent(tick=0, channel=4, data=[45, 95]),
   midi.NoteOnEvent(tick=0, channel=4, data=[38, 95]),
   midi.NoteOffEvent(tick=240, channel=4, data=[50, 80]),
   midi.NoteOffEvent(tick=0, channel=4, data=[45, 80]),
   midi.NoteOffEvent(tick=0, channel=4, data=[38, 80]),
   midi.NoteOnEvent(tick=0, channel=4, data=[50, 95]),
   midi.NoteOnEvent(tick=0, channel=4, data=[45, 95]),
   midi.NoteOnEvent(tick=0, channel=4, data=[38, 95]),
   midi.NoteOffEvent(tick=240, channel=4, data=[50, 80]),
   midi.NoteOffEvent(tick=0, channel=4, data=[45, 80]),
   midi.NoteOffEvent(tick=0, channel=4, data=[38, 80]),
   midi.NoteOnEvent(tick=0, channel=4, data=[50, 95]),
   midi.NoteOnEvent(tick=0, channel=4, data=[45, 95]),
   midi.NoteOnEvent(tick=0, channel=4, data=[38, 95]),
   midi.NoteOffEvent(tick=240, channel=4, data=[50, 80]),
   midi.NoteOffEvent(tick=0, channel=4, data=[45, 80]),
   midi.NoteOffEvent(tick=0, channel=4, data=[38, 80]),
   midi.NoteOnEvent(tick=0, channel=4, data=[50, 95]),
   midi.NoteOnEvent(tick=0, channel=4, data=[45, 95]),
   midi.NoteOnEvent(tick=0, channel=4, data=[38, 95]),
   midi.NoteOffEvent(tick=240, channel=4, data=[50, 80]),
   midi.NoteOffEvent(tick=0, channel=4, data=[45, 80]),
   midi.NoteOffEvent(tick=0, channel=4, data=[38, 80]),
   midi.NoteOnEvent(tick=0, channel=4, data=[52, 95]),
   midi.NoteOnEvent(tick=0, channel=4, data=[47, 95]),
   midi.NoteOnEvent(tick=0, channel=4, data=[40, 95]),
   midi.NoteOffEvent(tick=240, channel=4, data=[52, 80]),
   midi.NoteOffEvent(tick=0, channel=4, data=[47, 80]),
   midi.NoteOffEvent(tick=0, channel=4, data=[40, 80]),
   midi.NoteOnEvent(tick=0, channel=4, data=[52, 95]),
   midi.NoteOnEvent(tick=0, channel=4, data=[47, 95]),
   midi.NoteOnEvent(tick=0, channel=4, data=[40, 95]),
   midi.NoteOffEvent(tick=240, channel=4, data=[52, 80]),
   midi.NoteOffEvent(tick=0, channel=4, data=[47, 80]),
   midi.NoteOffEvent(tick=0, channel=4, data=[40, 80]),
   midi.NoteOnEvent(tick=0, channel=4, data=[53, 95]),
   midi.NoteOnEvent(tick=0, channel=4, data=[48, 95]),
   midi.NoteOnEvent(tick=0, channel=4, data=[41, 95]),
   midi.NoteOffEvent(tick=240, channel=4, data=[53, 80]),
   midi.NoteOffEvent(tick=0, channel=4, data=[48, 80]),
   midi.NoteOffEvent(tick=0, channel=4, data=[41, 80]),
   midi.NoteOnEvent(tick=0, channel=4, data=[53, 95]),
   midi.NoteOnEvent(tick=0, channel=4, data=[48, 95]),
   midi.NoteOnEvent(tick=0, channel=4, data=[41, 95]),
   midi.NoteOffEvent(tick=240, channel=4, data=[53, 80]),
   midi.NoteOffEvent(tick=0, channel=4, data=[48, 80]),
   midi.NoteOffEvent(tick=0, channel=4, data=[41, 80]),
   midi.NoteOnEvent(tick=0, channel=4, data=[53, 95]),
   midi.NoteOnEvent(tick=0, channel=4, data=[48, 95]),
   midi.NoteOnEvent(tick=0, channel=4, data=[41, 95]),
   midi.NoteOffEvent(tick=240, channel=4, data=[53, 80]),
   midi.NoteOffEvent(tick=0, channel=4, data=[48, 80]),
   midi.NoteOffEvent(tick=0, channel=4, data=[41, 80]),
   midi.NoteOnEvent(tick=0, channel=4, data=[53, 95]),
   midi.NoteOnEvent(tick=0, channel=4, data=[48, 95]),
   midi.NoteOnEvent(tick=0, channel=4, data=[41, 95]),
   midi.NoteOffEvent(tick=240, channel=4, data=[53, 80]),
   midi.NoteOffEvent(tick=0, channel=4, data=[48, 80]),
   midi.NoteOffEvent(tick=0, channel=4, data=[41, 80]),
   midi.NoteOnEvent(tick=0, channel=4, data=[53, 95]),
   midi.NoteOnEvent(tick=0, channel=4, data=[48, 95]),
   midi.NoteOnEvent(tick=0, channel=4, data=[41, 95]),
   midi.NoteOffEvent(tick=240, channel=4, data=[53, 80]),
   midi.NoteOffEvent(tick=0, channel=4, data=[48, 80]),
   midi.NoteOffEvent(tick=0, channel=4, data=[41, 80]),
   midi.NoteOnEvent(tick=0, channel=4, data=[53, 95]),
   midi.NoteOnEvent(tick=0, channel=4, data=[48, 95]),
   midi.NoteOnEvent(tick=0, channel=4, data=[41, 95]),
   midi.NoteOffEvent(tick=240, channel=4, data=[53, 80]),
   midi.NoteOffEvent(tick=0, channel=4, data=[48, 80]),
   midi.NoteOffEvent(tick=0, channel=4, data=[41, 80]),
   midi.NoteOnEvent(tick=480, channel=4, data=[57, 95]),
   midi.NoteOnEvent(tick=0, channel=4, data=[52, 95]),
   midi.NoteOnEvent(tick=0, channel=4, data=[45, 95]),
   midi.NoteOffEvent(tick=240, channel=4, data=[57, 80]),
   midi.NoteOffEvent(tick=0, channel=4, data=[52, 80]),
   midi.NoteOffEvent(tick=0, channel=4, data=[45, 80]),
   midi.NoteOnEvent(tick=0, channel=4, data=[57, 95]),
   midi.NoteOnEvent(tick=0, channel=4, data=[52, 95]),
   midi.NoteOnEvent(tick=0, channel=4, data=[45, 95]),
   midi.NoteOffEvent(tick=240, channel=4, data=[57, 80]),
   midi.NoteOffEvent(tick=0, channel=4, data=[52, 80]),
   midi.NoteOffEvent(tick=0, channel=4, data=[45, 80]),
   midi.NoteOnEvent(tick=0, channel=4, data=[57, 95]),
   midi.NoteOnEvent(tick=0, channel=4, data=[52, 95]),
   midi.NoteOnEvent(tick=0, channel=4, data=[45, 95]),
   midi.NoteOffEvent(tick=240, channel=4, data=[57, 80]),
   midi.NoteOffEvent(tick=0, channel=4, data=[52, 80]),
   midi.NoteOffEvent(tick=0, channel=4, data=[45, 80]),
   midi.NoteOnEvent(tick=0, channel=4, data=[57, 95]),
   midi.NoteOnEvent(tick=0, channel=4, data=[52, 95]),
   midi.NoteOnEvent(tick=0, channel=4, data=[45, 95]),
   midi.NoteOffEvent(tick=240, channel=4, data=[57, 80]),
   midi.NoteOffEvent(tick=0, channel=4, data=[52, 80]),
   midi.NoteOffEvent(tick=0, channel=4, data=[45, 80]),
   midi.NoteOnEvent(tick=0, channel=4, data=[57, 95]),
   midi.NoteOnEvent(tick=0, channel=4, data=[52, 95]),
   midi.NoteOnEvent(tick=0, channel=4, data=[45, 95]),
   midi.NoteOffEvent(tick=240, channel=4, data=[57, 80]),
   midi.NoteOffEvent(tick=0, channel=4, data=[52, 80]),
   midi.NoteOffEvent(tick=0, channel=4, data=[45, 80]),
   midi.NoteOnEvent(tick=0, channel=4, data=[57, 95]),
   midi.NoteOnEvent(tick=0, channel=4, data=[52, 95]),
   midi.NoteOnEvent(tick=0, channel=4, data=[45, 95]),
   midi.NoteOffEvent(tick=240, channel=4, data=[57, 80]),
   midi.NoteOffEvent(tick=0, channel=4, data=[52, 80]),
   midi.NoteOffEvent(tick=0, channel=4, data=[45, 80]),
   midi.NoteOnEvent(tick=0, channel=4, data=[59, 95]),
   midi.NoteOnEvent(tick=0, channel=4, data=[54, 95]),
   midi.NoteOnEvent(tick=0, channel=4, data=[47, 95]),
   midi.NoteOffEvent(tick=240, channel=4, data=[59, 80]),
   midi.NoteOffEvent(tick=0, channel=4, data=[54, 80]),
   midi.NoteOffEvent(tick=0, channel=4, data=[47, 80]),
   midi.NoteOnEvent(tick=0, channel=4, data=[59, 95]),
   midi.NoteOnEvent(tick=0, channel=4, data=[54, 95]),
   midi.NoteOnEvent(tick=0, channel=4, data=[47, 95]),
   midi.NoteOffEvent(tick=240, channel=4, data=[59, 80]),
   midi.NoteOffEvent(tick=0, channel=4, data=[54, 80]),
   midi.NoteOffEvent(tick=0, channel=4, data=[47, 80]),
   midi.NoteOnEvent(tick=0, channel=4, data=[55, 95]),
   midi.NoteOnEvent(tick=0, channel=4, data=[50, 95]),
   midi.NoteOnEvent(tick=0, channel=4, data=[43, 95]),
   midi.NoteOffEvent(tick=240, channel=4, data=[55, 80]),
   midi.NoteOffEvent(tick=0, channel=4, data=[50, 80]),
   midi.NoteOffEvent(tick=0, channel=4, data=[43, 80]),
   midi.NoteOnEvent(tick=0, channel=4, data=[55, 95]),
   midi.NoteOnEvent(tick=0, channel=4, data=[50, 95]),
   midi.NoteOnEvent(tick=0, channel=4, data=[43, 95]),
   midi.NoteOffEvent(tick=240, channel=4, data=[55, 80]),
   midi.NoteOffEvent(tick=0, channel=4, data=[50, 80]),
   midi.NoteOffEvent(tick=0, channel=4, data=[43, 80]),
   midi.NoteOnEvent(tick=0, channel=4, data=[55, 95]),
   midi.NoteOnEvent(tick=0, channel=4, data=[50, 95]),
   midi.NoteOnEvent(tick=0, channel=4, data=[43, 95]),
   midi.NoteOffEvent(tick=240, channel=4, data=[55, 80]),
   midi.NoteOffEvent(tick=0, channel=4, data=[50, 80]),
   midi.NoteOffEvent(tick=0, channel=4, data=[43, 80]),
   midi.NoteOnEvent(tick=0, channel=4, data=[55, 95]),
   midi.NoteOnEvent(tick=0, channel=4, data=[50, 95]),
   midi.NoteOnEvent(tick=0, channel=4, data=[43, 95]),
   midi.NoteOffEvent(tick=240, channel=4, data=[55, 80]),
   midi.NoteOffEvent(tick=0, channel=4, data=[50, 80]),
   midi.NoteOffEvent(tick=0, channel=4, data=[43, 80]),
   midi.NoteOnEvent(tick=0, channel=4, data=[55, 95]),
   midi.NoteOnEvent(tick=0, channel=4, data=[50, 95]),
   midi.NoteOnEvent(tick=0, channel=4, data=[43, 95]),
   midi.NoteOffEvent(tick=240, channel=4, data=[55, 80]),
   midi.NoteOffEvent(tick=0, channel=4, data=[50, 80]),
   midi.NoteOffEvent(tick=0, channel=4, data=[43, 80]),
   midi.NoteOnEvent(tick=0, channel=4, data=[55, 95]),
   midi.NoteOnEvent(tick=0, channel=4, data=[50, 95]),
   midi.NoteOnEvent(tick=0, channel=4, data=[43, 95]),
   midi.NoteOffEvent(tick=240, channel=4, data=[55, 80]),
   midi.NoteOffEvent(tick=0, channel=4, data=[50, 80]),
   midi.NoteOffEvent(tick=0, channel=4, data=[43, 80]),
   midi.NoteOnEvent(tick=23520, channel=4, data=[50, 95]),
   midi.NoteOnEvent(tick=0, channel=4, data=[45, 95]),
   midi.NoteOnEvent(tick=0, channel=4, data=[38, 95]),
   midi.NoteOffEvent(tick=240, channel=4, data=[50, 80]),
   midi.NoteOffEvent(tick=0, channel=4, data=[45, 80]),
   midi.NoteOffEvent(tick=0, channel=4, data=[38, 80]),
   midi.NoteOnEvent(tick=0, channel=4, data=[50, 95]),
   midi.NoteOnEvent(tick=0, channel=4, data=[45, 95]),
   midi.NoteOnEvent(tick=0, channel=4, data=[38, 95]),
   midi.NoteOffEvent(tick=240, channel=4, data=[50, 80]),
   midi.NoteOffEvent(tick=0, channel=4, data=[45, 80]),
   midi.NoteOffEvent(tick=0, channel=4, data=[38, 80]),
   midi.NoteOnEvent(tick=0, channel=4, data=[50, 95]),
   midi.NoteOnEvent(tick=0, channel=4, data=[45, 95]),
   midi.NoteOnEvent(tick=0, channel=4, data=[38, 95]),
   midi.NoteOffEvent(tick=240, channel=4, data=[50, 80]),
   midi.NoteOffEvent(tick=0, channel=4, data=[45, 80]),
   midi.NoteOffEvent(tick=0, channel=4, data=[38, 80]),
   midi.NoteOnEvent(tick=0, channel=4, data=[50, 95]),
   midi.NoteOnEvent(tick=0, channel=4, data=[45, 95]),
   midi.NoteOnEvent(tick=0, channel=4, data=[38, 95]),
   midi.NoteOffEvent(tick=240, channel=4, data=[50, 80]),
   midi.NoteOffEvent(tick=0, channel=4, data=[45, 80]),
   midi.NoteOffEvent(tick=0, channel=4, data=[38, 80]),
   midi.NoteOnEvent(tick=0, channel=4, data=[50, 95]),
   midi.NoteOnEvent(tick=0, channel=4, data=[45, 95]),
   midi.NoteOnEvent(tick=0, channel=4, data=[38, 95]),
   midi.NoteOffEvent(tick=240, channel=4, data=[50, 80]),
   midi.NoteOffEvent(tick=0, channel=4, data=[45, 80]),
   midi.NoteOffEvent(tick=0, channel=4, data=[38, 80]),
   midi.NoteOnEvent(tick=0, channel=4, data=[50, 95]),
   midi.NoteOnEvent(tick=0, channel=4, data=[45, 95]),
   midi.NoteOnEvent(tick=0, channel=4, data=[38, 95]),
   midi.NoteOffEvent(tick=240, channel=4, data=[50, 80]),
   midi.NoteOffEvent(tick=0, channel=4, data=[45, 80]),
   midi.NoteOffEvent(tick=0, channel=4, data=[38, 80]),
   midi.NoteOnEvent(tick=0, channel=4, data=[52, 95]),
   midi.NoteOnEvent(tick=0, channel=4, data=[47, 95]),
   midi.NoteOnEvent(tick=0, channel=4, data=[40, 95]),
   midi.NoteOffEvent(tick=240, channel=4, data=[52, 80]),
   midi.NoteOffEvent(tick=0, channel=4, data=[47, 80]),
   midi.NoteOffEvent(tick=0, channel=4, data=[40, 80]),
   midi.NoteOnEvent(tick=0, channel=4, data=[52, 95]),
   midi.NoteOnEvent(tick=0, channel=4, data=[47, 95]),
   midi.NoteOnEvent(tick=0, channel=4, data=[40, 95]),
   midi.NoteOffEvent(tick=240, channel=4, data=[52, 80]),
   midi.NoteOffEvent(tick=0, channel=4, data=[47, 80]),
   midi.NoteOffEvent(tick=0, channel=4, data=[40, 80]),
   midi.NoteOnEvent(tick=0, channel=4, data=[53, 95]),
   midi.NoteOnEvent(tick=0, channel=4, data=[48, 95]),
   midi.NoteOnEvent(tick=0, channel=4, data=[41, 95]),
   midi.NoteOffEvent(tick=240, channel=4, data=[53, 80]),
   midi.NoteOffEvent(tick=0, channel=4, data=[48, 80]),
   midi.NoteOffEvent(tick=0, channel=4, data=[41, 80]),
   midi.NoteOnEvent(tick=0, channel=4, data=[53, 95]),
   midi.NoteOnEvent(tick=0, channel=4, data=[48, 95]),
   midi.NoteOnEvent(tick=0, channel=4, data=[41, 95]),
   midi.NoteOffEvent(tick=240, channel=4, data=[53, 80]),
   midi.NoteOffEvent(tick=0, channel=4, data=[48, 80]),
   midi.NoteOffEvent(tick=0, channel=4, data=[41, 80]),
   midi.NoteOnEvent(tick=0, channel=4, data=[53, 95]),
   midi.NoteOnEvent(tick=0, channel=4, data=[48, 95]),
   midi.NoteOnEvent(tick=0, channel=4, data=[41, 95]),
   midi.NoteOffEvent(tick=240, channel=4, data=[53, 80]),
   midi.NoteOffEvent(tick=0, channel=4, data=[48, 80]),
   midi.NoteOffEvent(tick=0, channel=4, data=[41, 80]),
   midi.NoteOnEvent(tick=0, channel=4, data=[53, 95]),
   midi.NoteOnEvent(tick=0, channel=4, data=[48, 95]),
   midi.NoteOnEvent(tick=0, channel=4, data=[41, 95]),
   midi.NoteOffEvent(tick=240, channel=4, data=[53, 80]),
   midi.NoteOffEvent(tick=0, channel=4, data=[48, 80]),
   midi.NoteOffEvent(tick=0, channel=4, data=[41, 80]),
   midi.NoteOnEvent(tick=0, channel=4, data=[53, 95]),
   midi.NoteOnEvent(tick=0, channel=4, data=[48, 95]),
   midi.NoteOnEvent(tick=0, channel=4, data=[41, 95]),
   midi.NoteOffEvent(tick=240, channel=4, data=[53, 80]),
   midi.NoteOffEvent(tick=0, channel=4, data=[48, 80]),
   midi.NoteOffEvent(tick=0, channel=4, data=[41, 80]),
   midi.NoteOnEvent(tick=0, channel=4, data=[53, 95]),
   midi.NoteOnEvent(tick=0, channel=4, data=[48, 95]),
   midi.NoteOnEvent(tick=0, channel=4, data=[41, 95]),
   midi.NoteOffEvent(tick=240, channel=4, data=[53, 80]),
   midi.NoteOffEvent(tick=0, channel=4, data=[48, 80]),
   midi.NoteOffEvent(tick=0, channel=4, data=[41, 80]),
   midi.NoteOnEvent(tick=480, channel=4, data=[57, 95]),
   midi.NoteOnEvent(tick=0, channel=4, data=[52, 95]),
   midi.NoteOnEvent(tick=0, channel=4, data=[45, 95]),
   midi.NoteOffEvent(tick=240, channel=4, data=[57, 80]),
   midi.NoteOffEvent(tick=0, channel=4, data=[52, 80]),
   midi.NoteOffEvent(tick=0, channel=4, data=[45, 80]),
   midi.NoteOnEvent(tick=0, channel=4, data=[57, 95]),
   midi.NoteOnEvent(tick=0, channel=4, data=[52, 95]),
   midi.NoteOnEvent(tick=0, channel=4, data=[45, 95]),
   midi.NoteOffEvent(tick=240, channel=4, data=[57, 80]),
   midi.NoteOffEvent(tick=0, channel=4, data=[52, 80]),
   midi.NoteOffEvent(tick=0, channel=4, data=[45, 80]),
   midi.NoteOnEvent(tick=0, channel=4, data=[57, 95]),
   midi.NoteOnEvent(tick=0, channel=4, data=[52, 95]),
   midi.NoteOnEvent(tick=0, channel=4, data=[45, 95]),
   midi.NoteOffEvent(tick=240, channel=4, data=[57, 80]),
   midi.NoteOffEvent(tick=0, channel=4, data=[52, 80]),
   midi.NoteOffEvent(tick=0, channel=4, data=[45, 80]),
   midi.NoteOnEvent(tick=0, channel=4, data=[57, 95]),
   midi.NoteOnEvent(tick=0, channel=4, data=[52, 95]),
   midi.NoteOnEvent(tick=0, channel=4, data=[45, 95]),
   midi.NoteOffEvent(tick=240, channel=4, data=[57, 80]),
   midi.NoteOffEvent(tick=0, channel=4, data=[52, 80]),
   midi.NoteOffEvent(tick=0, channel=4, data=[45, 80]),
   midi.NoteOnEvent(tick=0, channel=4, data=[57, 95]),
   midi.NoteOnEvent(tick=0, channel=4, data=[52, 95]),
   midi.NoteOnEvent(tick=0, channel=4, data=[45, 95]),
   midi.NoteOffEvent(tick=240, channel=4, data=[57, 80]),
   midi.NoteOffEvent(tick=0, channel=4, data=[52, 80]),
   midi.NoteOffEvent(tick=0, channel=4, data=[45, 80]),
   midi.NoteOnEvent(tick=0, channel=4, data=[57, 95]),
   midi.NoteOnEvent(tick=0, channel=4, data=[52, 95]),
   midi.NoteOnEvent(tick=0, channel=4, data=[45, 95]),
   midi.NoteOffEvent(tick=240, channel=4, data=[57, 80]),
   midi.NoteOffEvent(tick=0, channel=4, data=[52, 80]),
   midi.NoteOffEvent(tick=0, channel=4, data=[45, 80]),
   midi.NoteOnEvent(tick=0, channel=4, data=[59, 95]),
   midi.NoteOnEvent(tick=0, channel=4, data=[54, 95]),
   midi.NoteOnEvent(tick=0, channel=4, data=[47, 95]),
   midi.NoteOffEvent(tick=240, channel=4, data=[59, 80]),
   midi.NoteOffEvent(tick=0, channel=4, data=[54, 80]),
   midi.NoteOffEvent(tick=0, channel=4, data=[47, 80]),
   midi.NoteOnEvent(tick=0, channel=4, data=[59, 95]),
   midi.NoteOnEvent(tick=0, channel=4, data=[54, 95]),
   midi.NoteOnEvent(tick=0, channel=4, data=[47, 95]),
   midi.NoteOffEvent(tick=240, channel=4, data=[59, 80]),
   midi.NoteOffEvent(tick=0, channel=4, data=[54, 80]),
   midi.NoteOffEvent(tick=0, channel=4, data=[47, 80]),
   midi.NoteOnEvent(tick=0, channel=4, data=[55, 95]),
   midi.NoteOnEvent(tick=0, channel=4, data=[50, 95]),
   midi.NoteOnEvent(tick=0, channel=4, data=[43, 95]),
   midi.NoteOffEvent(tick=240, channel=4, data=[55, 80]),
   midi.NoteOffEvent(tick=0, channel=4, data=[50, 80]),
   midi.NoteOffEvent(tick=0, channel=4, data=[43, 80]),
   midi.NoteOnEvent(tick=0, channel=4, data=[55, 95]),
   midi.NoteOnEvent(tick=0, channel=4, data=[50, 95]),
   midi.NoteOnEvent(tick=0, channel=4, data=[43, 95]),
   midi.NoteOffEvent(tick=240, channel=4, data=[55, 80]),
   midi.NoteOffEvent(tick=0, channel=4, data=[50, 80]),
   midi.NoteOffEvent(tick=0, channel=4, data=[43, 80]),
   midi.NoteOnEvent(tick=0, channel=4, data=[55, 95]),
   midi.NoteOnEvent(tick=0, channel=4, data=[50, 95]),
   midi.NoteOnEvent(tick=0, channel=4, data=[43, 95]),
   midi.NoteOffEvent(tick=240, channel=4, data=[55, 80]),
   midi.NoteOffEvent(tick=0, channel=4, data=[50, 80]),
   midi.NoteOffEvent(tick=0, channel=4, data=[43, 80]),
   midi.NoteOnEvent(tick=0, channel=4, data=[55, 95]),
   midi.NoteOnEvent(tick=0, channel=4, data=[50, 95]),
   midi.NoteOnEvent(tick=0, channel=4, data=[43, 95]),
   midi.NoteOffEvent(tick=240, channel=4, data=[55, 80]),
   midi.NoteOffEvent(tick=0, channel=4, data=[50, 80]),
   midi.NoteOffEvent(tick=0, channel=4, data=[43, 80]),
   midi.NoteOnEvent(tick=0, channel=4, data=[55, 95]),
   midi.NoteOnEvent(tick=0, channel=4, data=[50, 95]),
   midi.NoteOnEvent(tick=0, channel=4, data=[43, 95]),
   midi.NoteOffEvent(tick=240, channel=4, data=[55, 80]),
   midi.NoteOffEvent(tick=0, channel=4, data=[50, 80]),
   midi.NoteOffEvent(tick=0, channel=4, data=[43, 80]),
   midi.NoteOnEvent(tick=0, channel=4, data=[55, 95]),
   midi.NoteOnEvent(tick=0, channel=4, data=[50, 95]),
   midi.NoteOnEvent(tick=0, channel=4, data=[43, 95]),
   midi.NoteOffEvent(tick=240, channel=4, data=[55, 80]),
   midi.NoteOffEvent(tick=0, channel=4, data=[50, 80]),
   midi.NoteOffEvent(tick=0, channel=4, data=[43, 80]),
   midi.NoteOnEvent(tick=480, channel=4, data=[50, 95]),
   midi.NoteOnEvent(tick=0, channel=4, data=[45, 95]),
   midi.NoteOnEvent(tick=0, channel=4, data=[38, 95]),
   midi.NoteOffEvent(tick=240, channel=4, data=[50, 80]),
   midi.NoteOffEvent(tick=0, channel=4, data=[45, 80]),
   midi.NoteOffEvent(tick=0, channel=4, data=[38, 80]),
   midi.NoteOnEvent(tick=0, channel=4, data=[50, 95]),
   midi.NoteOnEvent(tick=0, channel=4, data=[45, 95]),
   midi.NoteOnEvent(tick=0, channel=4, data=[38, 95]),
   midi.NoteOffEvent(tick=240, channel=4, data=[50, 80]),
   midi.NoteOffEvent(tick=0, channel=4, data=[45, 80]),
   midi.NoteOffEvent(tick=0, channel=4, data=[38, 80]),
   midi.NoteOnEvent(tick=0, channel=4, data=[50, 95]),
   midi.NoteOnEvent(tick=0, channel=4, data=[45, 95]),
   midi.NoteOnEvent(tick=0, channel=4, data=[38, 95]),
   midi.NoteOffEvent(tick=240, channel=4, data=[50, 80]),
   midi.NoteOffEvent(tick=0, channel=4, data=[45, 80]),
   midi.NoteOffEvent(tick=0, channel=4, data=[38, 80]),
   midi.NoteOnEvent(tick=0, channel=4, data=[50, 95]),
   midi.NoteOnEvent(tick=0, channel=4, data=[45, 95]),
   midi.NoteOnEvent(tick=0, channel=4, data=[38, 95]),
   midi.NoteOffEvent(tick=240, channel=4, data=[50, 80]),
   midi.NoteOffEvent(tick=0, channel=4, data=[45, 80]),
   midi.NoteOffEvent(tick=0, channel=4, data=[38, 80]),
   midi.NoteOnEvent(tick=0, channel=4, data=[50, 95]),
   midi.NoteOnEvent(tick=0, channel=4, data=[45, 95]),
   midi.NoteOnEvent(tick=0, channel=4, data=[38, 95]),
   midi.NoteOffEvent(tick=240, channel=4, data=[50, 80]),
   midi.NoteOffEvent(tick=0, channel=4, data=[45, 80]),
   midi.NoteOffEvent(tick=0, channel=4, data=[38, 80]),
   midi.NoteOnEvent(tick=0, channel=4, data=[50, 95]),
   midi.NoteOnEvent(tick=0, channel=4, data=[45, 95]),
   midi.NoteOnEvent(tick=0, channel=4, data=[38, 95]),
   midi.NoteOffEvent(tick=240, channel=4, data=[50, 80]),
   midi.NoteOffEvent(tick=0, channel=4, data=[45, 80]),
   midi.NoteOffEvent(tick=0, channel=4, data=[38, 80]),
   midi.NoteOnEvent(tick=0, channel=4, data=[52, 95]),
   midi.NoteOnEvent(tick=0, channel=4, data=[47, 95]),
   midi.NoteOnEvent(tick=0, channel=4, data=[40, 95]),
   midi.NoteOffEvent(tick=240, channel=4, data=[52, 80]),
   midi.NoteOffEvent(tick=0, channel=4, data=[47, 80]),
   midi.NoteOffEvent(tick=0, channel=4, data=[40, 80]),
   midi.NoteOnEvent(tick=0, channel=4, data=[52, 95]),
   midi.NoteOnEvent(tick=0, channel=4, data=[47, 95]),
   midi.NoteOnEvent(tick=0, channel=4, data=[40, 95]),
   midi.NoteOffEvent(tick=240, channel=4, data=[52, 80]),
   midi.NoteOffEvent(tick=0, channel=4, data=[47, 80]),
   midi.NoteOffEvent(tick=0, channel=4, data=[40, 80]),
   midi.NoteOnEvent(tick=0, channel=4, data=[53, 95]),
   midi.NoteOnEvent(tick=0, channel=4, data=[48, 95]),
   midi.NoteOnEvent(tick=0, channel=4, data=[41, 95]),
   midi.NoteOffEvent(tick=240, channel=4, data=[53, 80]),
   midi.NoteOffEvent(tick=0, channel=4, data=[48, 80]),
   midi.NoteOffEvent(tick=0, channel=4, data=[41, 80]),
   midi.NoteOnEvent(tick=0, channel=4, data=[53, 95]),
   midi.NoteOnEvent(tick=0, channel=4, data=[48, 95]),
   midi.NoteOnEvent(tick=0, channel=4, data=[41, 95]),
   midi.NoteOffEvent(tick=240, channel=4, data=[53, 80]),
   midi.NoteOffEvent(tick=0, channel=4, data=[48, 80]),
   midi.NoteOffEvent(tick=0, channel=4, data=[41, 80]),
   midi.NoteOnEvent(tick=0, channel=4, data=[53, 95]),
   midi.NoteOnEvent(tick=0, channel=4, data=[48, 95]),
   midi.NoteOnEvent(tick=0, channel=4, data=[41, 95]),
   midi.NoteOffEvent(tick=240, channel=4, data=[53, 80]),
   midi.NoteOffEvent(tick=0, channel=4, data=[48, 80]),
   midi.NoteOffEvent(tick=0, channel=4, data=[41, 80]),
   midi.NoteOnEvent(tick=0, channel=4, data=[53, 95]),
   midi.NoteOnEvent(tick=0, channel=4, data=[48, 95]),
   midi.NoteOnEvent(tick=0, channel=4, data=[41, 95]),
   midi.NoteOffEvent(tick=240, channel=4, data=[53, 80]),
   midi.NoteOffEvent(tick=0, channel=4, data=[48, 80]),
   midi.NoteOffEvent(tick=0, channel=4, data=[41, 80]),
   midi.NoteOnEvent(tick=0, channel=4, data=[53, 95]),
   midi.NoteOnEvent(tick=0, channel=4, data=[48, 95]),
   midi.NoteOnEvent(tick=0, channel=4, data=[41, 95]),
   midi.NoteOffEvent(tick=240, channel=4, data=[53, 80]),
   midi.NoteOffEvent(tick=0, channel=4, data=[48, 80]),
   midi.NoteOffEvent(tick=0, channel=4, data=[41, 80]),
   midi.NoteOnEvent(tick=0, channel=4, data=[53, 95]),
   midi.NoteOnEvent(tick=0, channel=4, data=[48, 95]),
   midi.NoteOnEvent(tick=0, channel=4, data=[41, 95]),
   midi.NoteOffEvent(tick=240, channel=4, data=[53, 80]),
   midi.NoteOffEvent(tick=0, channel=4, data=[48, 80]),
   midi.NoteOffEvent(tick=0, channel=4, data=[41, 80]),
   midi.NoteOnEvent(tick=480, channel=4, data=[57, 95]),
   midi.NoteOnEvent(tick=0, channel=4, data=[52, 95]),
   midi.NoteOnEvent(tick=0, channel=4, data=[45, 95]),
   midi.NoteOffEvent(tick=240, channel=4, data=[57, 80]),
   midi.NoteOffEvent(tick=0, channel=4, data=[52, 80]),
   midi.NoteOffEvent(tick=0, channel=4, data=[45, 80]),
   midi.NoteOnEvent(tick=0, channel=4, data=[57, 95]),
   midi.NoteOnEvent(tick=0, channel=4, data=[52, 95]),
   midi.NoteOnEvent(tick=0, channel=4, data=[45, 95]),
   midi.NoteOffEvent(tick=240, channel=4, data=[57, 80]),
   midi.NoteOffEvent(tick=0, channel=4, data=[52, 80]),
   midi.NoteOffEvent(tick=0, channel=4, data=[45, 80]),
   midi.NoteOnEvent(tick=0, channel=4, data=[57, 95]),
   midi.NoteOnEvent(tick=0, channel=4, data=[52, 95]),
   midi.NoteOnEvent(tick=0, channel=4, data=[45, 95]),
   midi.NoteOffEvent(tick=240, channel=4, data=[57, 80]),
   midi.NoteOffEvent(tick=0, channel=4, data=[52, 80]),
   midi.NoteOffEvent(tick=0, channel=4, data=[45, 80]),
   midi.NoteOnEvent(tick=0, channel=4, data=[57, 95]),
   midi.NoteOnEvent(tick=0, channel=4, data=[52, 95]),
   midi.NoteOnEvent(tick=0, channel=4, data=[45, 95]),
   midi.NoteOffEvent(tick=240, channel=4, data=[57, 80]),
   midi.NoteOffEvent(tick=0, channel=4, data=[52, 80]),
   midi.NoteOffEvent(tick=0, channel=4, data=[45, 80]),
   midi.NoteOnEvent(tick=0, channel=4, data=[57, 95]),
   midi.NoteOnEvent(tick=0, channel=4, data=[52, 95]),
   midi.NoteOnEvent(tick=0, channel=4, data=[45, 95]),
   midi.NoteOffEvent(tick=240, channel=4, data=[57, 80]),
   midi.NoteOffEvent(tick=0, channel=4, data=[52, 80]),
   midi.NoteOffEvent(tick=0, channel=4, data=[45, 80]),
   midi.NoteOnEvent(tick=0, channel=4, data=[57, 95]),
   midi.NoteOnEvent(tick=0, channel=4, data=[52, 95]),
   midi.NoteOnEvent(tick=0, channel=4, data=[45, 95]),
   midi.NoteOffEvent(tick=240, channel=4, data=[57, 80]),
   midi.NoteOffEvent(tick=0, channel=4, data=[52, 80]),
   midi.NoteOffEvent(tick=0, channel=4, data=[45, 80]),
   midi.NoteOnEvent(tick=0, channel=4, data=[59, 95]),
   midi.NoteOnEvent(tick=0, channel=4, data=[54, 95]),
   midi.NoteOnEvent(tick=0, channel=4, data=[47, 95]),
   midi.NoteOffEvent(tick=240, channel=4, data=[59, 80]),
   midi.NoteOffEvent(tick=0, channel=4, data=[54, 80]),
   midi.NoteOffEvent(tick=0, channel=4, data=[47, 80]),
   midi.NoteOnEvent(tick=0, channel=4, data=[59, 95]),
   midi.NoteOnEvent(tick=0, channel=4, data=[54, 95]),
   midi.NoteOnEvent(tick=0, channel=4, data=[47, 95]),
   midi.NoteOffEvent(tick=240, channel=4, data=[59, 80]),
   midi.NoteOffEvent(tick=0, channel=4, data=[54, 80]),
   midi.NoteOffEvent(tick=0, channel=4, data=[47, 80]),
   midi.NoteOnEvent(tick=0, channel=4, data=[55, 95]),
   midi.NoteOnEvent(tick=0, channel=4, data=[50, 95]),
   midi.NoteOnEvent(tick=0, channel=4, data=[43, 95]),
   midi.NoteOffEvent(tick=240, channel=4, data=[55, 80]),
   midi.NoteOffEvent(tick=0, channel=4, data=[50, 80]),
   midi.NoteOffEvent(tick=0, channel=4, data=[43, 80]),
   midi.NoteOnEvent(tick=0, channel=4, data=[55, 95]),
   midi.NoteOnEvent(tick=0, channel=4, data=[50, 95]),
   midi.NoteOnEvent(tick=0, channel=4, data=[43, 95]),
   midi.NoteOffEvent(tick=240, channel=4, data=[55, 80]),
   midi.NoteOffEvent(tick=0, channel=4, data=[50, 80]),
   midi.NoteOffEvent(tick=0, channel=4, data=[43, 80]),
   midi.NoteOnEvent(tick=0, channel=4, data=[55, 95]),
   midi.NoteOnEvent(tick=0, channel=4, data=[50, 95]),
   midi.NoteOnEvent(tick=0, channel=4, data=[43, 95]),
   midi.NoteOffEvent(tick=240, channel=4, data=[55, 80]),
   midi.NoteOffEvent(tick=0, channel=4, data=[50, 80]),
   midi.NoteOffEvent(tick=0, channel=4, data=[43, 80]),
   midi.NoteOnEvent(tick=0, channel=4, data=[55, 95]),
   midi.NoteOnEvent(tick=0, channel=4, data=[50, 95]),
   midi.NoteOnEvent(tick=0, channel=4, data=[43, 95]),
   midi.NoteOffEvent(tick=240, channel=4, data=[55, 80]),
   midi.NoteOffEvent(tick=0, channel=4, data=[50, 80]),
   midi.NoteOffEvent(tick=0, channel=4, data=[43, 80]),
   midi.NoteOnEvent(tick=0, channel=4, data=[55, 95]),
   midi.NoteOnEvent(tick=0, channel=4, data=[50, 95]),
   midi.NoteOnEvent(tick=0, channel=4, data=[43, 95]),
   midi.NoteOffEvent(tick=240, channel=4, data=[55, 80]),
   midi.NoteOffEvent(tick=0, channel=4, data=[50, 80]),
   midi.NoteOffEvent(tick=0, channel=4, data=[43, 80]),
   midi.NoteOnEvent(tick=0, channel=4, data=[55, 95]),
   midi.NoteOnEvent(tick=0, channel=4, data=[50, 95]),
   midi.NoteOnEvent(tick=0, channel=4, data=[43, 95]),
   midi.NoteOffEvent(tick=240, channel=4, data=[55, 80]),
   midi.NoteOffEvent(tick=0, channel=4, data=[50, 80]),
   midi.NoteOffEvent(tick=0, channel=4, data=[43, 80]),
   midi.NoteOnEvent(tick=480, channel=4, data=[50, 95]),
   midi.NoteOnEvent(tick=0, channel=4, data=[45, 95]),
   midi.NoteOnEvent(tick=0, channel=4, data=[38, 95]),
   midi.NoteOffEvent(tick=240, channel=4, data=[50, 80]),
   midi.NoteOffEvent(tick=0, channel=4, data=[45, 80]),
   midi.NoteOffEvent(tick=0, channel=4, data=[38, 80]),
   midi.NoteOnEvent(tick=0, channel=4, data=[50, 95]),
   midi.NoteOnEvent(tick=0, channel=4, data=[45, 95]),
   midi.NoteOnEvent(tick=0, channel=4, data=[38, 95]),
   midi.NoteOffEvent(tick=240, channel=4, data=[50, 80]),
   midi.NoteOffEvent(tick=0, channel=4, data=[45, 80]),
   midi.NoteOffEvent(tick=0, channel=4, data=[38, 80]),
   midi.NoteOnEvent(tick=0, channel=4, data=[50, 95]),
   midi.NoteOnEvent(tick=0, channel=4, data=[45, 95]),
   midi.NoteOnEvent(tick=0, channel=4, data=[38, 95]),
   midi.NoteOffEvent(tick=240, channel=4, data=[50, 80]),
   midi.NoteOffEvent(tick=0, channel=4, data=[45, 80]),
   midi.NoteOffEvent(tick=0, channel=4, data=[38, 80]),
   midi.NoteOnEvent(tick=0, channel=4, data=[50, 95]),
   midi.NoteOnEvent(tick=0, channel=4, data=[45, 95]),
   midi.NoteOnEvent(tick=0, channel=4, data=[38, 95]),
   midi.NoteOffEvent(tick=240, channel=4, data=[50, 80]),
   midi.NoteOffEvent(tick=0, channel=4, data=[45, 80]),
   midi.NoteOffEvent(tick=0, channel=4, data=[38, 80]),
   midi.NoteOnEvent(tick=0, channel=4, data=[50, 95]),
   midi.NoteOnEvent(tick=0, channel=4, data=[45, 95]),
   midi.NoteOnEvent(tick=0, channel=4, data=[38, 95]),
   midi.NoteOffEvent(tick=240, channel=4, data=[50, 80]),
   midi.NoteOffEvent(tick=0, channel=4, data=[45, 80]),
   midi.NoteOffEvent(tick=0, channel=4, data=[38, 80]),
   midi.NoteOnEvent(tick=0, channel=4, data=[50, 95]),
   midi.NoteOnEvent(tick=0, channel=4, data=[45, 95]),
   midi.NoteOnEvent(tick=0, channel=4, data=[38, 95]),
   midi.NoteOffEvent(tick=240, channel=4, data=[50, 80]),
   midi.NoteOffEvent(tick=0, channel=4, data=[45, 80]),
   midi.NoteOffEvent(tick=0, channel=4, data=[38, 80]),
   midi.NoteOnEvent(tick=0, channel=4, data=[52, 95]),
   midi.NoteOnEvent(tick=0, channel=4, data=[47, 95]),
   midi.NoteOnEvent(tick=0, channel=4, data=[40, 95]),
   midi.NoteOffEvent(tick=240, channel=4, data=[52, 80]),
   midi.NoteOffEvent(tick=0, channel=4, data=[47, 80]),
   midi.NoteOffEvent(tick=0, channel=4, data=[40, 80]),
   midi.NoteOnEvent(tick=0, channel=4, data=[52, 95]),
   midi.NoteOnEvent(tick=0, channel=4, data=[47, 95]),
   midi.NoteOnEvent(tick=0, channel=4, data=[40, 95]),
   midi.NoteOffEvent(tick=240, channel=4, data=[52, 80]),
   midi.NoteOffEvent(tick=0, channel=4, data=[47, 80]),
   midi.NoteOffEvent(tick=0, channel=4, data=[40, 80]),
   midi.NoteOnEvent(tick=0, channel=4, data=[53, 95]),
   midi.NoteOnEvent(tick=0, channel=4, data=[48, 95]),
   midi.NoteOnEvent(tick=0, channel=4, data=[41, 95]),
   midi.NoteOffEvent(tick=240, channel=4, data=[53, 80]),
   midi.NoteOffEvent(tick=0, channel=4, data=[48, 80]),
   midi.NoteOffEvent(tick=0, channel=4, data=[41, 80]),
   midi.NoteOnEvent(tick=0, channel=4, data=[53, 95]),
   midi.NoteOnEvent(tick=0, channel=4, data=[48, 95]),
   midi.NoteOnEvent(tick=0, channel=4, data=[41, 95]),
   midi.NoteOffEvent(tick=240, channel=4, data=[53, 80]),
   midi.NoteOffEvent(tick=0, channel=4, data=[48, 80]),
   midi.NoteOffEvent(tick=0, channel=4, data=[41, 80]),
   midi.NoteOnEvent(tick=0, channel=4, data=[53, 95]),
   midi.NoteOnEvent(tick=0, channel=4, data=[48, 95]),
   midi.NoteOnEvent(tick=0, channel=4, data=[41, 95]),
   midi.NoteOffEvent(tick=240, channel=4, data=[53, 80]),
   midi.NoteOffEvent(tick=0, channel=4, data=[48, 80]),
   midi.NoteOffEvent(tick=0, channel=4, data=[41, 80]),
   midi.NoteOnEvent(tick=0, channel=4, data=[53, 95]),
   midi.NoteOnEvent(tick=0, channel=4, data=[48, 95]),
   midi.NoteOnEvent(tick=0, channel=4, data=[41, 95]),
   midi.NoteOffEvent(tick=240, channel=4, data=[53, 80]),
   midi.NoteOffEvent(tick=0, channel=4, data=[48, 80]),
   midi.NoteOffEvent(tick=0, channel=4, data=[41, 80]),
   midi.NoteOnEvent(tick=0, channel=4, data=[53, 95]),
   midi.NoteOnEvent(tick=0, channel=4, data=[48, 95]),
   midi.NoteOnEvent(tick=0, channel=4, data=[41, 95]),
   midi.NoteOffEvent(tick=240, channel=4, data=[53, 80]),
   midi.NoteOffEvent(tick=0, channel=4, data=[48, 80]),
   midi.NoteOffEvent(tick=0, channel=4, data=[41, 80]),
   midi.NoteOnEvent(tick=0, channel=4, data=[53, 95]),
   midi.NoteOnEvent(tick=0, channel=4, data=[48, 95]),
   midi.NoteOnEvent(tick=0, channel=4, data=[41, 95]),
   midi.NoteOffEvent(tick=240, channel=4, data=[53, 80]),
   midi.NoteOffEvent(tick=0, channel=4, data=[48, 80]),
   midi.NoteOffEvent(tick=0, channel=4, data=[41, 80]),
   midi.NoteOnEvent(tick=480, channel=4, data=[57, 95]),
   midi.NoteOnEvent(tick=0, channel=4, data=[52, 95]),
   midi.NoteOnEvent(tick=0, channel=4, data=[45, 95]),
   midi.NoteOffEvent(tick=240, channel=4, data=[57, 80]),
   midi.NoteOffEvent(tick=0, channel=4, data=[52, 80]),
   midi.NoteOffEvent(tick=0, channel=4, data=[45, 80]),
   midi.NoteOnEvent(tick=0, channel=4, data=[57, 95]),
   midi.NoteOnEvent(tick=0, channel=4, data=[52, 95]),
   midi.NoteOnEvent(tick=0, channel=4, data=[45, 95]),
   midi.NoteOffEvent(tick=240, channel=4, data=[57, 80]),
   midi.NoteOffEvent(tick=0, channel=4, data=[52, 80]),
   midi.NoteOffEvent(tick=0, channel=4, data=[45, 80]),
   midi.NoteOnEvent(tick=0, channel=4, data=[57, 95]),
   midi.NoteOnEvent(tick=0, channel=4, data=[52, 95]),
   midi.NoteOnEvent(tick=0, channel=4, data=[45, 95]),
   midi.NoteOffEvent(tick=240, channel=4, data=[57, 80]),
   midi.NoteOffEvent(tick=0, channel=4, data=[52, 80]),
   midi.NoteOffEvent(tick=0, channel=4, data=[45, 80]),
   midi.NoteOnEvent(tick=0, channel=4, data=[57, 95]),
   midi.NoteOnEvent(tick=0, channel=4, data=[52, 95]),
   midi.NoteOnEvent(tick=0, channel=4, data=[45, 95]),
   midi.NoteOffEvent(tick=240, channel=4, data=[57, 80]),
   midi.NoteOffEvent(tick=0, channel=4, data=[52, 80]),
   midi.NoteOffEvent(tick=0, channel=4, data=[45, 80]),
   midi.NoteOnEvent(tick=0, channel=4, data=[57, 95]),
   midi.NoteOnEvent(tick=0, channel=4, data=[52, 95]),
   midi.NoteOnEvent(tick=0, channel=4, data=[45, 95]),
   midi.NoteOffEvent(tick=240, channel=4, data=[57, 80]),
   midi.NoteOffEvent(tick=0, channel=4, data=[52, 80]),
   midi.NoteOffEvent(tick=0, channel=4, data=[45, 80]),
   midi.NoteOnEvent(tick=0, channel=4, data=[57, 95]),
   midi.NoteOnEvent(tick=0, channel=4, data=[52, 95]),
   midi.NoteOnEvent(tick=0, channel=4, data=[45, 95]),
   midi.NoteOffEvent(tick=240, channel=4, data=[57, 80]),
   midi.NoteOffEvent(tick=0, channel=4, data=[52, 80]),
   midi.NoteOffEvent(tick=0, channel=4, data=[45, 80]),
   midi.NoteOnEvent(tick=0, channel=4, data=[59, 95]),
   midi.NoteOnEvent(tick=0, channel=4, data=[54, 95]),
   midi.NoteOnEvent(tick=0, channel=4, data=[47, 95]),
   midi.NoteOffEvent(tick=240, channel=4, data=[59, 80]),
   midi.NoteOffEvent(tick=0, channel=4, data=[54, 80]),
   midi.NoteOffEvent(tick=0, channel=4, data=[47, 80]),
   midi.NoteOnEvent(tick=0, channel=4, data=[59, 95]),
   midi.NoteOnEvent(tick=0, channel=4, data=[54, 95]),
   midi.NoteOnEvent(tick=0, channel=4, data=[47, 95]),
   midi.NoteOffEvent(tick=240, channel=4, data=[59, 80]),
   midi.NoteOffEvent(tick=0, channel=4, data=[54, 80]),
   midi.NoteOffEvent(tick=0, channel=4, data=[47, 80]),
   midi.NoteOnEvent(tick=0, channel=4, data=[55, 95]),
   midi.NoteOnEvent(tick=0, channel=4, data=[50, 95]),
   midi.NoteOnEvent(tick=0, channel=4, data=[43, 95]),
   midi.NoteOffEvent(tick=240, channel=4, data=[55, 80]),
   midi.NoteOffEvent(tick=0, channel=4, data=[50, 80]),
   midi.NoteOffEvent(tick=0, channel=4, data=[43, 80]),
   midi.NoteOnEvent(tick=0, channel=4, data=[55, 95]),
   midi.NoteOnEvent(tick=0, channel=4, data=[50, 95]),
   midi.NoteOnEvent(tick=0, channel=4, data=[43, 95]),
   midi.NoteOffEvent(tick=240, channel=4, data=[55, 80]),
   midi.NoteOffEvent(tick=0, channel=4, data=[50, 80]),
   midi.NoteOffEvent(tick=0, channel=4, data=[43, 80]),
   midi.NoteOnEvent(tick=0, channel=4, data=[55, 95]),
   midi.NoteOnEvent(tick=0, channel=4, data=[50, 95]),
   midi.NoteOnEvent(tick=0, channel=4, data=[43, 95]),
   midi.NoteOffEvent(tick=240, channel=4, data=[55, 80]),
   midi.NoteOffEvent(tick=0, channel=4, data=[50, 80]),
   midi.NoteOffEvent(tick=0, channel=4, data=[43, 80]),
   midi.NoteOnEvent(tick=0, channel=4, data=[55, 95]),
   midi.NoteOnEvent(tick=0, channel=4, data=[50, 95]),
   midi.NoteOnEvent(tick=0, channel=4, data=[43, 95]),
   midi.NoteOffEvent(tick=240, channel=4, data=[55, 80]),
   midi.NoteOffEvent(tick=0, channel=4, data=[50, 80]),
   midi.NoteOffEvent(tick=0, channel=4, data=[43, 80]),
   midi.NoteOnEvent(tick=0, channel=4, data=[55, 95]),
   midi.NoteOnEvent(tick=0, channel=4, data=[50, 95]),
   midi.NoteOnEvent(tick=0, channel=4, data=[43, 95]),
   midi.NoteOffEvent(tick=240, channel=4, data=[55, 80]),
   midi.NoteOffEvent(tick=0, channel=4, data=[50, 80]),
   midi.NoteOffEvent(tick=0, channel=4, data=[43, 80]),
   midi.NoteOnEvent(tick=0, channel=4, data=[55, 95]),
   midi.NoteOnEvent(tick=0, channel=4, data=[50, 95]),
   midi.NoteOnEvent(tick=0, channel=4, data=[43, 95]),
   midi.NoteOffEvent(tick=240, channel=4, data=[55, 80]),
   midi.NoteOffEvent(tick=0, channel=4, data=[50, 80]),
   midi.NoteOffEvent(tick=0, channel=4, data=[43, 80]),
   midi.NoteOnEvent(tick=480, channel=4, data=[50, 95]),
   midi.NoteOnEvent(tick=0, channel=4, data=[45, 95]),
   midi.NoteOnEvent(tick=0, channel=4, data=[38, 95]),
   midi.NoteOffEvent(tick=240, channel=4, data=[50, 80]),
   midi.NoteOffEvent(tick=0, channel=4, data=[45, 80]),
   midi.NoteOffEvent(tick=0, channel=4, data=[38, 80]),
   midi.NoteOnEvent(tick=0, channel=4, data=[50, 95]),
   midi.NoteOnEvent(tick=0, channel=4, data=[45, 95]),
   midi.NoteOnEvent(tick=0, channel=4, data=[38, 95]),
   midi.NoteOffEvent(tick=240, channel=4, data=[50, 80]),
   midi.NoteOffEvent(tick=0, channel=4, data=[45, 80]),
   midi.NoteOffEvent(tick=0, channel=4, data=[38, 80]),
   midi.NoteOnEvent(tick=0, channel=4, data=[50, 95]),
   midi.NoteOnEvent(tick=0, channel=4, data=[45, 95]),
   midi.NoteOnEvent(tick=0, channel=4, data=[38, 95]),
   midi.NoteOffEvent(tick=240, channel=4, data=[50, 80]),
   midi.NoteOffEvent(tick=0, channel=4, data=[45, 80]),
   midi.NoteOffEvent(tick=0, channel=4, data=[38, 80]),
   midi.NoteOnEvent(tick=0, channel=4, data=[50, 95]),
   midi.NoteOnEvent(tick=0, channel=4, data=[45, 95]),
   midi.NoteOnEvent(tick=0, channel=4, data=[38, 95]),
   midi.NoteOffEvent(tick=240, channel=4, data=[50, 80]),
   midi.NoteOffEvent(tick=0, channel=4, data=[45, 80]),
   midi.NoteOffEvent(tick=0, channel=4, data=[38, 80]),
   midi.NoteOnEvent(tick=0, channel=4, data=[50, 95]),
   midi.NoteOnEvent(tick=0, channel=4, data=[45, 95]),
   midi.NoteOnEvent(tick=0, channel=4, data=[38, 95]),
   midi.NoteOffEvent(tick=240, channel=4, data=[50, 80]),
   midi.NoteOffEvent(tick=0, channel=4, data=[45, 80]),
   midi.NoteOffEvent(tick=0, channel=4, data=[38, 80]),
   midi.NoteOnEvent(tick=0, channel=4, data=[50, 95]),
   midi.NoteOnEvent(tick=0, channel=4, data=[45, 95]),
   midi.NoteOnEvent(tick=0, channel=4, data=[38, 95]),
   midi.NoteOffEvent(tick=240, channel=4, data=[50, 80]),
   midi.NoteOffEvent(tick=0, channel=4, data=[45, 80]),
   midi.NoteOffEvent(tick=0, channel=4, data=[38, 80]),
   midi.NoteOnEvent(tick=0, channel=4, data=[52, 95]),
   midi.NoteOnEvent(tick=0, channel=4, data=[47, 95]),
   midi.NoteOnEvent(tick=0, channel=4, data=[40, 95]),
   midi.NoteOffEvent(tick=240, channel=4, data=[52, 80]),
   midi.NoteOffEvent(tick=0, channel=4, data=[47, 80]),
   midi.NoteOffEvent(tick=0, channel=4, data=[40, 80]),
   midi.NoteOnEvent(tick=0, channel=4, data=[52, 95]),
   midi.NoteOnEvent(tick=0, channel=4, data=[47, 95]),
   midi.NoteOnEvent(tick=0, channel=4, data=[40, 95]),
   midi.NoteOffEvent(tick=240, channel=4, data=[52, 80]),
   midi.NoteOffEvent(tick=0, channel=4, data=[47, 80]),
   midi.NoteOffEvent(tick=0, channel=4, data=[40, 80]),
   midi.NoteOnEvent(tick=0, channel=4, data=[53, 95]),
   midi.NoteOnEvent(tick=0, channel=4, data=[48, 95]),
   midi.NoteOnEvent(tick=0, channel=4, data=[41, 95]),
   midi.NoteOffEvent(tick=240, channel=4, data=[53, 80]),
   midi.NoteOffEvent(tick=0, channel=4, data=[48, 80]),
   midi.NoteOffEvent(tick=0, channel=4, data=[41, 80]),
   midi.NoteOnEvent(tick=0, channel=4, data=[53, 95]),
   midi.NoteOnEvent(tick=0, channel=4, data=[48, 95]),
   midi.NoteOnEvent(tick=0, channel=4, data=[41, 95]),
   midi.NoteOffEvent(tick=240, channel=4, data=[53, 80]),
   midi.NoteOffEvent(tick=0, channel=4, data=[48, 80]),
   midi.NoteOffEvent(tick=0, channel=4, data=[41, 80]),
   midi.NoteOnEvent(tick=0, channel=4, data=[53, 95]),
   midi.NoteOnEvent(tick=0, channel=4, data=[48, 95]),
   midi.NoteOnEvent(tick=0, channel=4, data=[41, 95]),
   midi.NoteOffEvent(tick=240, channel=4, data=[53, 80]),
   midi.NoteOffEvent(tick=0, channel=4, data=[48, 80]),
   midi.NoteOffEvent(tick=0, channel=4, data=[41, 80]),
   midi.NoteOnEvent(tick=0, channel=4, data=[53, 95]),
   midi.NoteOnEvent(tick=0, channel=4, data=[48, 95]),
   midi.NoteOnEvent(tick=0, channel=4, data=[41, 95]),
   midi.NoteOffEvent(tick=240, channel=4, data=[53, 80]),
   midi.NoteOffEvent(tick=0, channel=4, data=[48, 80]),
   midi.NoteOffEvent(tick=0, channel=4, data=[41, 80]),
   midi.NoteOnEvent(tick=0, channel=4, data=[53, 95]),
   midi.NoteOnEvent(tick=0, channel=4, data=[48, 95]),
   midi.NoteOnEvent(tick=0, channel=4, data=[41, 95]),
   midi.NoteOffEvent(tick=240, channel=4, data=[53, 80]),
   midi.NoteOffEvent(tick=0, channel=4, data=[48, 80]),
   midi.NoteOffEvent(tick=0, channel=4, data=[41, 80]),
   midi.NoteOnEvent(tick=0, channel=4, data=[53, 95]),
   midi.NoteOnEvent(tick=0, channel=4, data=[48, 95]),
   midi.NoteOnEvent(tick=0, channel=4, data=[41, 95]),
   midi.NoteOffEvent(tick=240, channel=4, data=[53, 80]),
   midi.NoteOffEvent(tick=0, channel=4, data=[48, 80]),
   midi.NoteOffEvent(tick=0, channel=4, data=[41, 80]),
   midi.NoteOnEvent(tick=480, channel=4, data=[57, 95]),
   midi.NoteOnEvent(tick=0, channel=4, data=[52, 95]),
   midi.NoteOnEvent(tick=0, channel=4, data=[45, 95]),
   midi.NoteOffEvent(tick=240, channel=4, data=[57, 80]),
   midi.NoteOffEvent(tick=0, channel=4, data=[52, 80]),
   midi.NoteOffEvent(tick=0, channel=4, data=[45, 80]),
   midi.NoteOnEvent(tick=0, channel=4, data=[57, 95]),
   midi.NoteOnEvent(tick=0, channel=4, data=[52, 95]),
   midi.NoteOnEvent(tick=0, channel=4, data=[45, 95]),
   midi.NoteOffEvent(tick=240, channel=4, data=[57, 80]),
   midi.NoteOffEvent(tick=0, channel=4, data=[52, 80]),
   midi.NoteOffEvent(tick=0, channel=4, data=[45, 80]),
   midi.NoteOnEvent(tick=0, channel=4, data=[57, 95]),
   midi.NoteOnEvent(tick=0, channel=4, data=[52, 95]),
   midi.NoteOnEvent(tick=0, channel=4, data=[45, 95]),
   midi.NoteOffEvent(tick=240, channel=4, data=[57, 80]),
   midi.NoteOffEvent(tick=0, channel=4, data=[52, 80]),
   midi.NoteOffEvent(tick=0, channel=4, data=[45, 80]),
   midi.NoteOnEvent(tick=0, channel=4, data=[57, 95]),
   midi.NoteOnEvent(tick=0, channel=4, data=[52, 95]),
   midi.NoteOnEvent(tick=0, channel=4, data=[45, 95]),
   midi.NoteOffEvent(tick=240, channel=4, data=[57, 80]),
   midi.NoteOffEvent(tick=0, channel=4, data=[52, 80]),
   midi.NoteOffEvent(tick=0, channel=4, data=[45, 80]),
   midi.NoteOnEvent(tick=0, channel=4, data=[57, 95]),
   midi.NoteOnEvent(tick=0, channel=4, data=[52, 95]),
   midi.NoteOnEvent(tick=0, channel=4, data=[45, 95]),
   midi.NoteOffEvent(tick=240, channel=4, data=[57, 80]),
   midi.NoteOffEvent(tick=0, channel=4, data=[52, 80]),
   midi.NoteOffEvent(tick=0, channel=4, data=[45, 80]),
   midi.NoteOnEvent(tick=0, channel=4, data=[57, 95]),
   midi.NoteOnEvent(tick=0, channel=4, data=[52, 95]),
   midi.NoteOnEvent(tick=0, channel=4, data=[45, 95]),
   midi.NoteOffEvent(tick=240, channel=4, data=[57, 80]),
   midi.NoteOffEvent(tick=0, channel=4, data=[52, 80]),
   midi.NoteOffEvent(tick=0, channel=4, data=[45, 80]),
   midi.NoteOnEvent(tick=0, channel=4, data=[59, 95]),
   midi.NoteOnEvent(tick=0, channel=4, data=[54, 95]),
   midi.NoteOnEvent(tick=0, channel=4, data=[47, 95]),
   midi.NoteOffEvent(tick=240, channel=4, data=[59, 80]),
   midi.NoteOffEvent(tick=0, channel=4, data=[54, 80]),
   midi.NoteOffEvent(tick=0, channel=4, data=[47, 80]),
   midi.NoteOnEvent(tick=0, channel=4, data=[59, 95]),
   midi.NoteOnEvent(tick=0, channel=4, data=[54, 95]),
   midi.NoteOnEvent(tick=0, channel=4, data=[47, 95]),
   midi.NoteOffEvent(tick=240, channel=4, data=[59, 80]),
   midi.NoteOffEvent(tick=0, channel=4, data=[54, 80]),
   midi.NoteOffEvent(tick=0, channel=4, data=[47, 80]),
   midi.NoteOnEvent(tick=0, channel=4, data=[55, 95]),
   midi.NoteOnEvent(tick=0, channel=4, data=[50, 95]),
   midi.NoteOnEvent(tick=0, channel=4, data=[43, 95]),
   midi.NoteOffEvent(tick=240, channel=4, data=[55, 80]),
   midi.NoteOffEvent(tick=0, channel=4, data=[50, 80]),
   midi.NoteOffEvent(tick=0, channel=4, data=[43, 80]),
   midi.NoteOnEvent(tick=0, channel=4, data=[55, 95]),
   midi.NoteOnEvent(tick=0, channel=4, data=[50, 95]),
   midi.NoteOnEvent(tick=0, channel=4, data=[43, 95]),
   midi.NoteOffEvent(tick=240, channel=4, data=[55, 80]),
   midi.NoteOffEvent(tick=0, channel=4, data=[50, 80]),
   midi.NoteOffEvent(tick=0, channel=4, data=[43, 80]),
   midi.NoteOnEvent(tick=0, channel=4, data=[55, 95]),
   midi.NoteOnEvent(tick=0, channel=4, data=[50, 95]),
   midi.NoteOnEvent(tick=0, channel=4, data=[43, 95]),
   midi.NoteOffEvent(tick=240, channel=4, data=[55, 80]),
   midi.NoteOffEvent(tick=0, channel=4, data=[50, 80]),
   midi.NoteOffEvent(tick=0, channel=4, data=[43, 80]),
   midi.NoteOnEvent(tick=0, channel=4, data=[55, 95]),
   midi.NoteOnEvent(tick=0, channel=4, data=[50, 95]),
   midi.NoteOnEvent(tick=0, channel=4, data=[43, 95]),
   midi.NoteOffEvent(tick=240, channel=4, data=[55, 80]),
   midi.NoteOffEvent(tick=0, channel=4, data=[50, 80]),
   midi.NoteOffEvent(tick=0, channel=4, data=[43, 80]),
   midi.NoteOnEvent(tick=0, channel=4, data=[55, 95]),
   midi.NoteOnEvent(tick=0, channel=4, data=[50, 95]),
   midi.NoteOnEvent(tick=0, channel=4, data=[43, 95]),
   midi.NoteOffEvent(tick=240, channel=4, data=[55, 80]),
   midi.NoteOffEvent(tick=0, channel=4, data=[50, 80]),
   midi.NoteOffEvent(tick=0, channel=4, data=[43, 80]),
   midi.NoteOnEvent(tick=0, channel=4, data=[55, 95]),
   midi.NoteOnEvent(tick=0, channel=4, data=[50, 95]),
   midi.NoteOnEvent(tick=0, channel=4, data=[43, 95]),
   midi.NoteOffEvent(tick=240, channel=4, data=[55, 80]),
   midi.NoteOffEvent(tick=0, channel=4, data=[50, 80]),
   midi.NoteOffEvent(tick=0, channel=4, data=[43, 80]),
   midi.NoteOnEvent(tick=2400, channel=4, data=[53, 95]),
   midi.NoteOnEvent(tick=0, channel=4, data=[48, 95]),
   midi.NoteOnEvent(tick=0, channel=4, data=[41, 95]),
   midi.NoteOffEvent(tick=240, channel=4, data=[53, 80]),
   midi.NoteOffEvent(tick=0, channel=4, data=[48, 80]),
   midi.NoteOffEvent(tick=0, channel=4, data=[41, 80]),
   midi.NoteOnEvent(tick=0, channel=4, data=[53, 95]),
   midi.NoteOnEvent(tick=0, channel=4, data=[48, 95]),
   midi.NoteOnEvent(tick=0, channel=4, data=[41, 95]),
   midi.NoteOffEvent(tick=240, channel=4, data=[53, 80]),
   midi.NoteOffEvent(tick=0, channel=4, data=[48, 80]),
   midi.NoteOffEvent(tick=0, channel=4, data=[41, 80]),
   midi.NoteOnEvent(tick=0, channel=4, data=[53, 95]),
   midi.NoteOnEvent(tick=0, channel=4, data=[48, 95]),
   midi.NoteOnEvent(tick=0, channel=4, data=[41, 95]),
   midi.NoteOffEvent(tick=240, channel=4, data=[53, 80]),
   midi.NoteOffEvent(tick=0, channel=4, data=[48, 80]),
   midi.NoteOffEvent(tick=0, channel=4, data=[41, 80]),
   midi.NoteOnEvent(tick=0, channel=4, data=[53, 95]),
   midi.NoteOnEvent(tick=0, channel=4, data=[48, 95]),
   midi.NoteOnEvent(tick=0, channel=4, data=[41, 95]),
   midi.NoteOffEvent(tick=240, channel=4, data=[53, 80]),
   midi.NoteOffEvent(tick=0, channel=4, data=[48, 80]),
   midi.NoteOffEvent(tick=0, channel=4, data=[41, 80]),
   midi.NoteOnEvent(tick=0, channel=4, data=[53, 95]),
   midi.NoteOnEvent(tick=0, channel=4, data=[48, 95]),
   midi.NoteOnEvent(tick=0, channel=4, data=[41, 95]),
   midi.NoteOffEvent(tick=240, channel=4, data=[53, 80]),
   midi.NoteOffEvent(tick=0, channel=4, data=[48, 80]),
   midi.NoteOffEvent(tick=0, channel=4, data=[41, 80]),
   midi.NoteOnEvent(tick=0, channel=4, data=[53, 95]),
   midi.NoteOnEvent(tick=0, channel=4, data=[48, 95]),
   midi.NoteOnEvent(tick=0, channel=4, data=[41, 95]),
   midi.NoteOffEvent(tick=240, channel=4, data=[53, 80]),
   midi.NoteOffEvent(tick=0, channel=4, data=[48, 80]),
   midi.NoteOffEvent(tick=0, channel=4, data=[41, 80]),
   midi.NoteOnEvent(tick=480, channel=4, data=[57, 95]),
   midi.NoteOnEvent(tick=0, channel=4, data=[52, 95]),
   midi.NoteOnEvent(tick=0, channel=4, data=[45, 95]),
   midi.NoteOffEvent(tick=240, channel=4, data=[57, 80]),
   midi.NoteOffEvent(tick=0, channel=4, data=[52, 80]),
   midi.NoteOffEvent(tick=0, channel=4, data=[45, 80]),
   midi.NoteOnEvent(tick=0, channel=4, data=[57, 95]),
   midi.NoteOnEvent(tick=0, channel=4, data=[52, 95]),
   midi.NoteOnEvent(tick=0, channel=4, data=[45, 95]),
   midi.NoteOffEvent(tick=240, channel=4, data=[57, 80]),
   midi.NoteOffEvent(tick=0, channel=4, data=[52, 80]),
   midi.NoteOffEvent(tick=0, channel=4, data=[45, 80]),
   midi.NoteOnEvent(tick=0, channel=4, data=[57, 95]),
   midi.NoteOnEvent(tick=0, channel=4, data=[52, 95]),
   midi.NoteOnEvent(tick=0, channel=4, data=[45, 95]),
   midi.NoteOffEvent(tick=240, channel=4, data=[57, 80]),
   midi.NoteOffEvent(tick=0, channel=4, data=[52, 80]),
   midi.NoteOffEvent(tick=0, channel=4, data=[45, 80]),
   midi.NoteOnEvent(tick=0, channel=4, data=[57, 95]),
   midi.NoteOnEvent(tick=0, channel=4, data=[52, 95]),
   midi.NoteOnEvent(tick=0, channel=4, data=[45, 95]),
   midi.NoteOffEvent(tick=240, channel=4, data=[57, 80]),
   midi.NoteOffEvent(tick=0, channel=4, data=[52, 80]),
   midi.NoteOffEvent(tick=0, channel=4, data=[45, 80]),
   midi.NoteOnEvent(tick=0, channel=4, data=[57, 95]),
   midi.NoteOnEvent(tick=0, channel=4, data=[52, 95]),
   midi.NoteOnEvent(tick=0, channel=4, data=[45, 95]),
   midi.NoteOffEvent(tick=240, channel=4, data=[57, 80]),
   midi.NoteOffEvent(tick=0, channel=4, data=[52, 80]),
   midi.NoteOffEvent(tick=0, channel=4, data=[45, 80]),
   midi.NoteOnEvent(tick=0, channel=4, data=[57, 95]),
   midi.NoteOnEvent(tick=0, channel=4, data=[52, 95]),
   midi.NoteOnEvent(tick=0, channel=4, data=[45, 95]),
   midi.NoteOffEvent(tick=240, channel=4, data=[57, 80]),
   midi.NoteOffEvent(tick=0, channel=4, data=[52, 80]),
   midi.NoteOffEvent(tick=0, channel=4, data=[45, 80]),
   midi.NoteOnEvent(tick=0, channel=4, data=[59, 95]),
   midi.NoteOnEvent(tick=0, channel=4, data=[54, 95]),
   midi.NoteOnEvent(tick=0, channel=4, data=[47, 95]),
   midi.NoteOffEvent(tick=240, channel=4, data=[59, 80]),
   midi.NoteOffEvent(tick=0, channel=4, data=[54, 80]),
   midi.NoteOffEvent(tick=0, channel=4, data=[47, 80]),
   midi.NoteOnEvent(tick=0, channel=4, data=[59, 95]),
   midi.NoteOnEvent(tick=0, channel=4, data=[54, 95]),
   midi.NoteOnEvent(tick=0, channel=4, data=[47, 95]),
   midi.NoteOffEvent(tick=240, channel=4, data=[59, 80]),
   midi.NoteOffEvent(tick=0, channel=4, data=[54, 80]),
   midi.NoteOffEvent(tick=0, channel=4, data=[47, 80]),
   midi.NoteOnEvent(tick=0, channel=4, data=[55, 95]),
   midi.NoteOnEvent(tick=0, channel=4, data=[50, 95]),
   midi.NoteOnEvent(tick=0, channel=4, data=[43, 95]),
   midi.NoteOffEvent(tick=240, channel=4, data=[55, 80]),
   midi.NoteOffEvent(tick=0, channel=4, data=[50, 80]),
   midi.NoteOffEvent(tick=0, channel=4, data=[43, 80]),
   midi.NoteOnEvent(tick=0, channel=4, data=[55, 95]),
   midi.NoteOnEvent(tick=0, channel=4, data=[50, 95]),
   midi.NoteOnEvent(tick=0, channel=4, data=[43, 95]),
   midi.NoteOffEvent(tick=240, channel=4, data=[55, 80]),
   midi.NoteOffEvent(tick=0, channel=4, data=[50, 80]),
   midi.NoteOffEvent(tick=0, channel=4, data=[43, 80]),
   midi.NoteOnEvent(tick=0, channel=4, data=[55, 95]),
   midi.NoteOnEvent(tick=0, channel=4, data=[50, 95]),
   midi.NoteOnEvent(tick=0, channel=4, data=[43, 95]),
   midi.NoteOffEvent(tick=240, channel=4, data=[55, 80]),
   midi.NoteOffEvent(tick=0, channel=4, data=[50, 80]),
   midi.NoteOffEvent(tick=0, channel=4, data=[43, 80]),
   midi.NoteOnEvent(tick=0, channel=4, data=[55, 95]),
   midi.NoteOnEvent(tick=0, channel=4, data=[50, 95]),
   midi.NoteOnEvent(tick=0, channel=4, data=[43, 95]),
   midi.NoteOffEvent(tick=240, channel=4, data=[55, 80]),
   midi.NoteOffEvent(tick=0, channel=4, data=[50, 80]),
   midi.NoteOffEvent(tick=0, channel=4, data=[43, 80]),
   midi.NoteOnEvent(tick=0, channel=4, data=[55, 95]),
   midi.NoteOnEvent(tick=0, channel=4, data=[50, 95]),
   midi.NoteOnEvent(tick=0, channel=4, data=[43, 95]),
   midi.NoteOffEvent(tick=240, channel=4, data=[55, 80]),
   midi.NoteOffEvent(tick=0, channel=4, data=[50, 80]),
   midi.NoteOffEvent(tick=0, channel=4, data=[43, 80]),
   midi.NoteOnEvent(tick=0, channel=4, data=[55, 95]),
   midi.NoteOnEvent(tick=0, channel=4, data=[50, 95]),
   midi.NoteOnEvent(tick=0, channel=4, data=[43, 95]),
   midi.NoteOffEvent(tick=240, channel=4, data=[55, 80]),
   midi.NoteOffEvent(tick=0, channel=4, data=[50, 80]),
   midi.NoteOffEvent(tick=0, channel=4, data=[43, 80]),
   midi.EndOfTrackEvent(tick=0, data=[])]),
 midi.Track(\
  [midi.TrackNameEvent(tick=0, text='Spur 4', data=[83, 112, 117, 114, 32, 52]),
   midi.ControlChangeEvent(tick=0, channel=7, data=[100, 0]),
   midi.ControlChangeEvent(tick=0, channel=7, data=[101, 0]),
   midi.ControlChangeEvent(tick=0, channel=7, data=[6, 12]),
   midi.PitchWheelEvent(tick=0, channel=7, data=[0, 64]),
   midi.ControlChangeEvent(tick=0, channel=7, data=[101, 0]),
   midi.ControlChangeEvent(tick=0, channel=7, data=[100, 1]),
   midi.ControlChangeEvent(tick=0, channel=7, data=[6, 64]),
   midi.ControlChangeEvent(tick=0, channel=7, data=[38, 0]),
   midi.ControlChangeEvent(tick=0, channel=7, data=[101, 127]),
   midi.ControlChangeEvent(tick=0, channel=7, data=[100, 127]),
   midi.ControlChangeEvent(tick=0, channel=6, data=[100, 0]),
   midi.ControlChangeEvent(tick=0, channel=6, data=[101, 0]),
   midi.ControlChangeEvent(tick=0, channel=6, data=[6, 12]),
   midi.PitchWheelEvent(tick=0, channel=6, data=[0, 64]),
   midi.ControlChangeEvent(tick=0, channel=6, data=[101, 0]),
   midi.ControlChangeEvent(tick=0, channel=6, data=[100, 1]),
   midi.ControlChangeEvent(tick=0, channel=6, data=[6, 64]),
   midi.ControlChangeEvent(tick=0, channel=6, data=[38, 0]),
   midi.ControlChangeEvent(tick=0, channel=6, data=[101, 127]),
   midi.ControlChangeEvent(tick=0, channel=6, data=[100, 127]),
   midi.ControlChangeEvent(tick=0, channel=7, data=[101, 0]),
   midi.ControlChangeEvent(tick=0, channel=7, data=[100, 2]),
   midi.ControlChangeEvent(tick=0, channel=7, data=[6, 64]),
   midi.ControlChangeEvent(tick=0, channel=7, data=[101, 127]),
   midi.ControlChangeEvent(tick=0, channel=7, data=[100, 127]),
   midi.ControlChangeEvent(tick=0, channel=6, data=[101, 0]),
   midi.ControlChangeEvent(tick=0, channel=6, data=[100, 2]),
   midi.ControlChangeEvent(tick=0, channel=6, data=[6, 64]),
   midi.ControlChangeEvent(tick=0, channel=6, data=[101, 127]),
   midi.ControlChangeEvent(tick=0, channel=6, data=[100, 127]),
   midi.ProgramChangeEvent(tick=0, channel=7, data=[34]),
   midi.ProgramChangeEvent(tick=0, channel=6, data=[34]),
   midi.ControlChangeEvent(tick=0, channel=7, data=[0, 0]),
   midi.ControlChangeEvent(tick=0, channel=6, data=[0, 0]),
   midi.ControlChangeEvent(tick=0, channel=7, data=[7, 127]),
   midi.ControlChangeEvent(tick=0, channel=6, data=[7, 127]),
   midi.ControlChangeEvent(tick=0, channel=7, data=[10, 64]),
   midi.ControlChangeEvent(tick=0, channel=6, data=[10, 64]),
   midi.ControlChangeEvent(tick=0, channel=7, data=[93, 0]),
   midi.ControlChangeEvent(tick=0, channel=6, data=[93, 0]),
   midi.ControlChangeEvent(tick=0, channel=7, data=[91, 0]),
   midi.ControlChangeEvent(tick=0, channel=6, data=[91, 0]),
   midi.ControlChangeEvent(tick=0, channel=7, data=[92, 0]),
   midi.ControlChangeEvent(tick=0, channel=6, data=[92, 0]),
   midi.ControlChangeEvent(tick=0, channel=7, data=[95, 0]),
   midi.ControlChangeEvent(tick=0, channel=6, data=[95, 0]),
   midi.NoteOnEvent(tick=15360, channel=6, data=[26, 95]),
   midi.NoteOffEvent(tick=480, channel=6, data=[26, 80]),
   midi.NoteOnEvent(tick=0, channel=6, data=[26, 95]),
   midi.NoteOffEvent(tick=480, channel=6, data=[26, 80]),
   midi.NoteOnEvent(tick=0, channel=6, data=[26, 95]),
   midi.NoteOffEvent(tick=480, channel=6, data=[26, 80]),
   midi.NoteOnEvent(tick=0, channel=6, data=[28, 95]),
   midi.NoteOffEvent(tick=480, channel=6, data=[28, 80]),
   midi.NoteOnEvent(tick=0, channel=6, data=[29, 95]),
   midi.NoteOffEvent(tick=480, channel=6, data=[29, 80]),
   midi.NoteOnEvent(tick=0, channel=6, data=[29, 95]),
   midi.NoteOffEvent(tick=480, channel=6, data=[29, 80]),
   midi.NoteOnEvent(tick=0, channel=6, data=[29, 95]),
   midi.NoteOffEvent(tick=480, channel=6, data=[29, 80]),
   midi.NoteOnEvent(tick=0, channel=6, data=[29, 95]),
   midi.NoteOffEvent(tick=480, channel=6, data=[29, 80]),
   midi.NoteOnEvent(tick=0, channel=6, data=[33, 95]),
   midi.NoteOffEvent(tick=240, channel=6, data=[33, 80]),
   midi.NoteOnEvent(tick=0, channel=6, data=[33, 95]),
   midi.NoteOffEvent(tick=240, channel=6, data=[33, 80]),
   midi.NoteOnEvent(tick=0, channel=6, data=[33, 95]),
   midi.NoteOffEvent(tick=480, channel=6, data=[33, 80]),
   midi.NoteOnEvent(tick=0, channel=6, data=[33, 95]),
   midi.NoteOffEvent(tick=480, channel=6, data=[33, 80]),
   midi.NoteOnEvent(tick=0, channel=6, data=[35, 95]),
   midi.NoteOffEvent(tick=480, channel=6, data=[35, 80]),
   midi.NoteOnEvent(tick=0, channel=6, data=[31, 95]),
   midi.NoteOffEvent(tick=240, channel=6, data=[31, 80]),
   midi.NoteOnEvent(tick=0, channel=6, data=[31, 95]),
   midi.NoteOffEvent(tick=240, channel=6, data=[31, 80]),
   midi.NoteOnEvent(tick=0, channel=6, data=[31, 95]),
   midi.NoteOffEvent(tick=480, channel=6, data=[31, 80]),
   midi.NoteOnEvent(tick=0, channel=6, data=[31, 95]),
   midi.NoteOffEvent(tick=480, channel=6, data=[31, 80]),
   midi.NoteOnEvent(tick=0, channel=6, data=[31, 95]),
   midi.NoteOffEvent(tick=480, channel=6, data=[31, 80]),
   midi.NoteOnEvent(tick=0, channel=6, data=[26, 95]),
   midi.NoteOffEvent(tick=480, channel=6, data=[26, 80]),
   midi.NoteOnEvent(tick=0, channel=6, data=[26, 95]),
   midi.NoteOffEvent(tick=480, channel=6, data=[26, 80]),
   midi.NoteOnEvent(tick=0, channel=6, data=[26, 95]),
   midi.NoteOffEvent(tick=480, channel=6, data=[26, 80]),
   midi.NoteOnEvent(tick=0, channel=6, data=[28, 95]),
   midi.NoteOffEvent(tick=480, channel=6, data=[28, 80]),
   midi.NoteOnEvent(tick=0, channel=6, data=[29, 95]),
   midi.NoteOffEvent(tick=480, channel=6, data=[29, 80]),
   midi.NoteOnEvent(tick=0, channel=6, data=[29, 95]),
   midi.NoteOffEvent(tick=480, channel=6, data=[29, 80]),
   midi.NoteOnEvent(tick=0, channel=6, data=[29, 95]),
   midi.NoteOffEvent(tick=480, channel=6, data=[29, 80]),
   midi.NoteOnEvent(tick=480, channel=6, data=[33, 95]),
   midi.NoteOffEvent(tick=240, channel=6, data=[33, 80]),
   midi.NoteOnEvent(tick=0, channel=6, data=[33, 95]),
   midi.NoteOffEvent(tick=240, channel=6, data=[33, 80]),
   midi.NoteOnEvent(tick=0, channel=6, data=[33, 95]),
   midi.NoteOffEvent(tick=480, channel=6, data=[33, 80]),
   midi.NoteOnEvent(tick=0, channel=6, data=[33, 95]),
   midi.NoteOffEvent(tick=480, channel=6, data=[33, 80]),
   midi.NoteOnEvent(tick=0, channel=6, data=[35, 95]),
   midi.NoteOffEvent(tick=480, channel=6, data=[35, 80]),
   midi.NoteOnEvent(tick=0, channel=6, data=[31, 95]),
   midi.NoteOffEvent(tick=240, channel=6, data=[31, 80]),
   midi.NoteOnEvent(tick=0, channel=6, data=[31, 95]),
   midi.NoteOffEvent(tick=240, channel=6, data=[31, 80]),
   midi.NoteOnEvent(tick=0, channel=6, data=[31, 95]),
   midi.NoteOffEvent(tick=480, channel=6, data=[31, 80]),
   midi.NoteOnEvent(tick=0, channel=6, data=[31, 95]),
   midi.NoteOffEvent(tick=480, channel=6, data=[31, 80]),
   midi.NoteOnEvent(tick=480, channel=6, data=[26, 95]),
   midi.NoteOffEvent(tick=480, channel=6, data=[26, 80]),
   midi.NoteOnEvent(tick=0, channel=6, data=[26, 95]),
   midi.NoteOffEvent(tick=480, channel=6, data=[26, 80]),
   midi.NoteOnEvent(tick=0, channel=6, data=[26, 95]),
   midi.NoteOffEvent(tick=480, channel=6, data=[26, 80]),
   midi.NoteOnEvent(tick=0, channel=6, data=[28, 95]),
   midi.NoteOffEvent(tick=480, channel=6, data=[28, 80]),
   midi.NoteOnEvent(tick=0, channel=6, data=[29, 95]),
   midi.NoteOffEvent(tick=480, channel=6, data=[29, 80]),
   midi.NoteOnEvent(tick=0, channel=6, data=[29, 95]),
   midi.NoteOffEvent(tick=480, channel=6, data=[29, 80]),
   midi.NoteOnEvent(tick=0, channel=6, data=[29, 95]),
   midi.NoteOffEvent(tick=480, channel=6, data=[29, 80]),
   midi.NoteOnEvent(tick=480, channel=6, data=[33, 95]),
   midi.NoteOffEvent(tick=240, channel=6, data=[33, 80]),
   midi.NoteOnEvent(tick=0, channel=6, data=[33, 95]),
   midi.NoteOffEvent(tick=240, channel=6, data=[33, 80]),
   midi.NoteOnEvent(tick=0, channel=6, data=[33, 95]),
   midi.NoteOffEvent(tick=480, channel=6, data=[33, 80]),
   midi.NoteOnEvent(tick=0, channel=6, data=[33, 95]),
   midi.NoteOffEvent(tick=480, channel=6, data=[33, 80]),
   midi.NoteOnEvent(tick=0, channel=6, data=[35, 95]),
   midi.NoteOffEvent(tick=480, channel=6, data=[35, 80]),
   midi.NoteOnEvent(tick=0, channel=6, data=[31, 95]),
   midi.NoteOffEvent(tick=240, channel=6, data=[31, 80]),
   midi.NoteOnEvent(tick=0, channel=6, data=[31, 95]),
   midi.NoteOffEvent(tick=240, channel=6, data=[31, 80]),
   midi.NoteOnEvent(tick=0, channel=6, data=[31, 95]),
   midi.NoteOffEvent(tick=480, channel=6, data=[31, 80]),
   midi.NoteOnEvent(tick=0, channel=6, data=[31, 95]),
   midi.NoteOffEvent(tick=480, channel=6, data=[31, 80]),
   midi.NoteOnEvent(tick=480, channel=6, data=[26, 95]),
   midi.NoteOffEvent(tick=480, channel=6, data=[26, 80]),
   midi.NoteOnEvent(tick=0, channel=6, data=[26, 95]),
   midi.NoteOffEvent(tick=480, channel=6, data=[26, 80]),
   midi.NoteOnEvent(tick=0, channel=6, data=[26, 95]),
   midi.NoteOffEvent(tick=480, channel=6, data=[26, 80]),
   midi.NoteOnEvent(tick=0, channel=6, data=[28, 95]),
   midi.NoteOffEvent(tick=480, channel=6, data=[28, 80]),
   midi.NoteOnEvent(tick=0, channel=6, data=[29, 95]),
   midi.NoteOffEvent(tick=480, channel=6, data=[29, 80]),
   midi.NoteOnEvent(tick=0, channel=6, data=[29, 95]),
   midi.NoteOffEvent(tick=480, channel=6, data=[29, 80]),
   midi.NoteOnEvent(tick=0, channel=6, data=[29, 95]),
   midi.NoteOffEvent(tick=480, channel=6, data=[29, 80]),
   midi.NoteOnEvent(tick=0, channel=6, data=[29, 95]),
   midi.NoteOffEvent(tick=480, channel=6, data=[29, 80]),
   midi.NoteOnEvent(tick=0, channel=6, data=[33, 95]),
   midi.NoteOffEvent(tick=240, channel=6, data=[33, 80]),
   midi.NoteOnEvent(tick=0, channel=6, data=[33, 95]),
   midi.NoteOffEvent(tick=240, channel=6, data=[33, 80]),
   midi.NoteOnEvent(tick=0, channel=6, data=[33, 95]),
   midi.NoteOffEvent(tick=480, channel=6, data=[33, 80]),
   midi.NoteOnEvent(tick=0, channel=6, data=[33, 95]),
   midi.NoteOffEvent(tick=480, channel=6, data=[33, 80]),
   midi.NoteOnEvent(tick=0, channel=6, data=[35, 95]),
   midi.NoteOffEvent(tick=480, channel=6, data=[35, 80]),
   midi.NoteOnEvent(tick=0, channel=6, data=[31, 95]),
   midi.NoteOffEvent(tick=240, channel=6, data=[31, 80]),
   midi.NoteOnEvent(tick=0, channel=6, data=[31, 95]),
   midi.NoteOffEvent(tick=240, channel=6, data=[31, 80]),
   midi.NoteOnEvent(tick=0, channel=6, data=[31, 95]),
   midi.NoteOffEvent(tick=480, channel=6, data=[31, 80]),
   midi.NoteOnEvent(tick=0, channel=6, data=[31, 95]),
   midi.NoteOffEvent(tick=480, channel=6, data=[31, 80]),
   midi.NoteOnEvent(tick=0, channel=6, data=[31, 95]),
   midi.NoteOffEvent(tick=480, channel=6, data=[31, 80]),
   midi.NoteOnEvent(tick=0, channel=6, data=[26, 95]),
   midi.NoteOffEvent(tick=480, channel=6, data=[26, 80]),
   midi.NoteOnEvent(tick=0, channel=6, data=[26, 95]),
   midi.NoteOffEvent(tick=480, channel=6, data=[26, 80]),
   midi.NoteOnEvent(tick=0, channel=6, data=[26, 95]),
   midi.NoteOffEvent(tick=480, channel=6, data=[26, 80]),
   midi.NoteOnEvent(tick=0, channel=6, data=[28, 95]),
   midi.NoteOffEvent(tick=480, channel=6, data=[28, 80]),
   midi.NoteOnEvent(tick=0, channel=6, data=[29, 95]),
   midi.NoteOffEvent(tick=480, channel=6, data=[29, 80]),
   midi.NoteOnEvent(tick=0, channel=6, data=[29, 95]),
   midi.NoteOffEvent(tick=480, channel=6, data=[29, 80]),
   midi.NoteOnEvent(tick=0, channel=6, data=[29, 95]),
   midi.NoteOffEvent(tick=480, channel=6, data=[29, 80]),
   midi.NoteOnEvent(tick=0, channel=6, data=[29, 95]),
   midi.NoteOffEvent(tick=480, channel=6, data=[29, 80]),
   midi.NoteOnEvent(tick=0, channel=6, data=[33, 95]),
   midi.NoteOffEvent(tick=240, channel=6, data=[33, 80]),
   midi.NoteOnEvent(tick=0, channel=6, data=[33, 95]),
   midi.NoteOffEvent(tick=240, channel=6, data=[33, 80]),
   midi.NoteOnEvent(tick=0, channel=6, data=[33, 95]),
   midi.NoteOffEvent(tick=480, channel=6, data=[33, 80]),
   midi.NoteOnEvent(tick=0, channel=6, data=[33, 95]),
   midi.NoteOffEvent(tick=480, channel=6, data=[33, 80]),
   midi.NoteOnEvent(tick=0, channel=6, data=[35, 95]),
   midi.NoteOffEvent(tick=480, channel=6, data=[35, 80]),
   midi.NoteOnEvent(tick=0, channel=6, data=[31, 95]),
   midi.NoteOffEvent(tick=240, channel=6, data=[31, 80]),
   midi.NoteOnEvent(tick=0, channel=6, data=[31, 95]),
   midi.NoteOffEvent(tick=240, channel=6, data=[31, 80]),
   midi.NoteOnEvent(tick=0, channel=6, data=[31, 95]),
   midi.NoteOffEvent(tick=480, channel=6, data=[31, 80]),
   midi.NoteOnEvent(tick=0, channel=6, data=[31, 95]),
   midi.NoteOffEvent(tick=480, channel=6, data=[31, 80]),
   midi.NoteOnEvent(tick=0, channel=6, data=[31, 95]),
   midi.NoteOffEvent(tick=480, channel=6, data=[31, 80]),
   midi.NoteOnEvent(tick=0, channel=6, data=[26, 95]),
   midi.NoteOffEvent(tick=480, channel=6, data=[26, 80]),
   midi.NoteOnEvent(tick=0, channel=6, data=[26, 95]),
   midi.NoteOffEvent(tick=480, channel=6, data=[26, 80]),
   midi.NoteOnEvent(tick=0, channel=6, data=[26, 95]),
   midi.NoteOffEvent(tick=480, channel=6, data=[26, 80]),
   midi.NoteOnEvent(tick=0, channel=6, data=[28, 95]),
   midi.NoteOffEvent(tick=480, channel=6, data=[28, 80]),
   midi.NoteOnEvent(tick=0, channel=6, data=[29, 95]),
   midi.NoteOffEvent(tick=480, channel=6, data=[29, 80]),
   midi.NoteOnEvent(tick=0, channel=6, data=[29, 95]),
   midi.NoteOffEvent(tick=480, channel=6, data=[29, 80]),
   midi.NoteOnEvent(tick=0, channel=6, data=[29, 95]),
   midi.NoteOffEvent(tick=480, channel=6, data=[29, 80]),
   midi.NoteOnEvent(tick=0, channel=6, data=[29, 95]),
   midi.NoteOffEvent(tick=480, channel=6, data=[29, 80]),
   midi.NoteOnEvent(tick=0, channel=6, data=[33, 95]),
   midi.NoteOffEvent(tick=240, channel=6, data=[33, 80]),
   midi.NoteOnEvent(tick=0, channel=6, data=[33, 95]),
   midi.NoteOffEvent(tick=240, channel=6, data=[33, 80]),
   midi.NoteOnEvent(tick=0, channel=6, data=[33, 95]),
   midi.NoteOffEvent(tick=480, channel=6, data=[33, 80]),
   midi.NoteOnEvent(tick=0, channel=6, data=[33, 95]),
   midi.NoteOffEvent(tick=480, channel=6, data=[33, 80]),
   midi.NoteOnEvent(tick=0, channel=6, data=[35, 95]),
   midi.NoteOffEvent(tick=480, channel=6, data=[35, 80]),
   midi.NoteOnEvent(tick=1920, channel=6, data=[26, 95]),
   midi.NoteOffEvent(tick=480, channel=6, data=[26, 80]),
   midi.NoteOnEvent(tick=0, channel=6, data=[26, 95]),
   midi.NoteOffEvent(tick=480, channel=6, data=[26, 80]),
   midi.NoteOnEvent(tick=0, channel=6, data=[26, 95]),
   midi.NoteOffEvent(tick=480, channel=6, data=[26, 80]),
   midi.NoteOnEvent(tick=0, channel=6, data=[28, 95]),
   midi.NoteOffEvent(tick=480, channel=6, data=[28, 80]),
   midi.NoteOnEvent(tick=0, channel=6, data=[29, 95]),
   midi.NoteOffEvent(tick=480, channel=6, data=[29, 80]),
   midi.NoteOnEvent(tick=0, channel=6, data=[29, 95]),
   midi.NoteOffEvent(tick=480, channel=6, data=[29, 80]),
   midi.NoteOnEvent(tick=0, channel=6, data=[29, 95]),
   midi.NoteOffEvent(tick=480, channel=6, data=[29, 80]),
   midi.NoteOnEvent(tick=480, channel=6, data=[33, 95]),
   midi.NoteOffEvent(tick=240, channel=6, data=[33, 80]),
   midi.NoteOnEvent(tick=0, channel=6, data=[33, 95]),
   midi.NoteOffEvent(tick=240, channel=6, data=[33, 80]),
   midi.NoteOnEvent(tick=0, channel=6, data=[33, 95]),
   midi.NoteOffEvent(tick=480, channel=6, data=[33, 80]),
   midi.NoteOnEvent(tick=0, channel=6, data=[33, 95]),
   midi.NoteOffEvent(tick=480, channel=6, data=[33, 80]),
   midi.NoteOnEvent(tick=0, channel=6, data=[35, 95]),
   midi.NoteOffEvent(tick=480, channel=6, data=[35, 80]),
   midi.NoteOnEvent(tick=0, channel=6, data=[31, 95]),
   midi.NoteOffEvent(tick=240, channel=6, data=[31, 80]),
   midi.NoteOnEvent(tick=0, channel=6, data=[31, 95]),
   midi.NoteOffEvent(tick=240, channel=6, data=[31, 80]),
   midi.NoteOnEvent(tick=0, channel=6, data=[31, 95]),
   midi.NoteOffEvent(tick=480, channel=6, data=[31, 80]),
   midi.NoteOnEvent(tick=0, channel=6, data=[31, 95]),
   midi.NoteOffEvent(tick=480, channel=6, data=[31, 80]),
   midi.NoteOnEvent(tick=480, channel=6, data=[26, 95]),
   midi.NoteOffEvent(tick=480, channel=6, data=[26, 80]),
   midi.NoteOnEvent(tick=0, channel=6, data=[26, 95]),
   midi.NoteOffEvent(tick=480, channel=6, data=[26, 80]),
   midi.NoteOnEvent(tick=0, channel=6, data=[26, 95]),
   midi.NoteOffEvent(tick=480, channel=6, data=[26, 80]),
   midi.NoteOnEvent(tick=0, channel=6, data=[28, 95]),
   midi.NoteOffEvent(tick=480, channel=6, data=[28, 80]),
   midi.NoteOnEvent(tick=0, channel=6, data=[29, 95]),
   midi.NoteOffEvent(tick=480, channel=6, data=[29, 80]),
   midi.NoteOnEvent(tick=0, channel=6, data=[29, 95]),
   midi.NoteOffEvent(tick=480, channel=6, data=[29, 80]),
   midi.NoteOnEvent(tick=0, channel=6, data=[29, 95]),
   midi.NoteOffEvent(tick=480, channel=6, data=[29, 80]),
   midi.NoteOnEvent(tick=480, channel=6, data=[33, 95]),
   midi.NoteOffEvent(tick=240, channel=6, data=[33, 80]),
   midi.NoteOnEvent(tick=0, channel=6, data=[33, 95]),
   midi.NoteOffEvent(tick=240, channel=6, data=[33, 80]),
   midi.NoteOnEvent(tick=0, channel=6, data=[33, 95]),
   midi.NoteOffEvent(tick=480, channel=6, data=[33, 80]),
   midi.NoteOnEvent(tick=0, channel=6, data=[33, 95]),
   midi.NoteOffEvent(tick=480, channel=6, data=[33, 80]),
   midi.NoteOnEvent(tick=0, channel=6, data=[35, 95]),
   midi.NoteOffEvent(tick=480, channel=6, data=[35, 80]),
   midi.NoteOnEvent(tick=0, channel=6, data=[31, 95]),
   midi.NoteOffEvent(tick=240, channel=6, data=[31, 80]),
   midi.NoteOnEvent(tick=0, channel=6, data=[31, 95]),
   midi.NoteOffEvent(tick=240, channel=6, data=[31, 80]),
   midi.NoteOnEvent(tick=0, channel=6, data=[31, 95]),
   midi.NoteOffEvent(tick=480, channel=6, data=[31, 80]),
   midi.NoteOnEvent(tick=0, channel=6, data=[31, 95]),
   midi.NoteOffEvent(tick=480, channel=6, data=[31, 80]),
   midi.NoteOnEvent(tick=480, channel=6, data=[26, 95]),
   midi.NoteOffEvent(tick=480, channel=6, data=[26, 80]),
   midi.NoteOnEvent(tick=0, channel=6, data=[26, 95]),
   midi.NoteOffEvent(tick=480, channel=6, data=[26, 80]),
   midi.NoteOnEvent(tick=0, channel=6, data=[26, 95]),
   midi.NoteOffEvent(tick=480, channel=6, data=[26, 80]),
   midi.NoteOnEvent(tick=0, channel=6, data=[28, 95]),
   midi.NoteOffEvent(tick=480, channel=6, data=[28, 80]),
   midi.NoteOnEvent(tick=0, channel=6, data=[29, 95]),
   midi.NoteOffEvent(tick=480, channel=6, data=[29, 80]),
   midi.NoteOnEvent(tick=0, channel=6, data=[29, 95]),
   midi.NoteOffEvent(tick=480, channel=6, data=[29, 80]),
   midi.NoteOnEvent(tick=0, channel=6, data=[29, 95]),
   midi.NoteOffEvent(tick=480, channel=6, data=[29, 80]),
   midi.NoteOnEvent(tick=480, channel=6, data=[33, 95]),
   midi.NoteOffEvent(tick=240, channel=6, data=[33, 80]),
   midi.NoteOnEvent(tick=0, channel=6, data=[33, 95]),
   midi.NoteOffEvent(tick=240, channel=6, data=[33, 80]),
   midi.NoteOnEvent(tick=0, channel=6, data=[33, 95]),
   midi.NoteOffEvent(tick=480, channel=6, data=[33, 80]),
   midi.NoteOnEvent(tick=0, channel=6, data=[33, 95]),
   midi.NoteOffEvent(tick=480, channel=6, data=[33, 80]),
   midi.NoteOnEvent(tick=0, channel=6, data=[35, 95]),
   midi.NoteOffEvent(tick=480, channel=6, data=[35, 80]),
   midi.NoteOnEvent(tick=0, channel=6, data=[31, 95]),
   midi.NoteOffEvent(tick=240, channel=6, data=[31, 80]),
   midi.NoteOnEvent(tick=0, channel=6, data=[31, 95]),
   midi.NoteOffEvent(tick=240, channel=6, data=[31, 80]),
   midi.NoteOnEvent(tick=0, channel=6, data=[31, 95]),
   midi.NoteOffEvent(tick=480, channel=6, data=[31, 80]),
   midi.NoteOnEvent(tick=0, channel=6, data=[31, 95]),
   midi.NoteOffEvent(tick=480, channel=6, data=[31, 80]),
   midi.NoteOnEvent(tick=2400, channel=6, data=[29, 95]),
   midi.NoteOffEvent(tick=480, channel=6, data=[29, 80]),
   midi.NoteOnEvent(tick=0, channel=6, data=[29, 95]),
   midi.NoteOffEvent(tick=480, channel=6, data=[29, 80]),
   midi.NoteOnEvent(tick=0, channel=6, data=[29, 95]),
   midi.NoteOffEvent(tick=480, channel=6, data=[29, 80]),
   midi.NoteOnEvent(tick=0, channel=6, data=[29, 95]),
   midi.NoteOffEvent(tick=480, channel=6, data=[29, 80]),
   midi.NoteOnEvent(tick=0, channel=6, data=[33, 95]),
   midi.NoteOffEvent(tick=240, channel=6, data=[33, 80]),
   midi.NoteOnEvent(tick=0, channel=6, data=[33, 95]),
   midi.NoteOffEvent(tick=240, channel=6, data=[33, 80]),
   midi.NoteOnEvent(tick=0, channel=6, data=[33, 95]),
   midi.NoteOffEvent(tick=480, channel=6, data=[33, 80]),
   midi.NoteOnEvent(tick=0, channel=6, data=[33, 95]),
   midi.NoteOffEvent(tick=480, channel=6, data=[33, 80]),
   midi.NoteOnEvent(tick=0, channel=6, data=[35, 95]),
   midi.NoteOffEvent(tick=480, channel=6, data=[35, 80]),
   midi.NoteOnEvent(tick=0, channel=6, data=[31, 95]),
   midi.NoteOffEvent(tick=240, channel=6, data=[31, 80]),
   midi.NoteOnEvent(tick=0, channel=6, data=[31, 95]),
   midi.NoteOffEvent(tick=240, channel=6, data=[31, 80]),
   midi.NoteOnEvent(tick=0, channel=6, data=[31, 95]),
   midi.NoteOffEvent(tick=480, channel=6, data=[31, 80]),
   midi.NoteOnEvent(tick=0, channel=6, data=[31, 95]),
   midi.NoteOffEvent(tick=480, channel=6, data=[31, 80]),
   midi.NoteOnEvent(tick=0, channel=6, data=[31, 95]),
   midi.NoteOffEvent(tick=480, channel=6, data=[31, 80]),
   midi.NoteOnEvent(tick=0, channel=6, data=[26, 95]),
   midi.NoteOffEvent(tick=480, channel=6, data=[26, 80]),
   midi.NoteOnEvent(tick=0, channel=6, data=[26, 95]),
   midi.NoteOffEvent(tick=480, channel=6, data=[26, 80]),
   midi.NoteOnEvent(tick=0, channel=6, data=[26, 95]),
   midi.NoteOffEvent(tick=480, channel=6, data=[26, 80]),
   midi.NoteOnEvent(tick=0, channel=6, data=[28, 95]),
   midi.NoteOffEvent(tick=480, channel=6, data=[28, 80]),
   midi.NoteOnEvent(tick=0, channel=6, data=[29, 95]),
   midi.NoteOffEvent(tick=480, channel=6, data=[29, 80]),
   midi.NoteOnEvent(tick=0, channel=6, data=[29, 95]),
   midi.NoteOffEvent(tick=480, channel=6, data=[29, 80]),
   midi.NoteOnEvent(tick=0, channel=6, data=[29, 95]),
   midi.NoteOffEvent(tick=480, channel=6, data=[29, 80]),
   midi.NoteOnEvent(tick=0, channel=6, data=[29, 95]),
   midi.NoteOffEvent(tick=480, channel=6, data=[29, 80]),
   midi.NoteOnEvent(tick=0, channel=6, data=[33, 95]),
   midi.NoteOffEvent(tick=240, channel=6, data=[33, 80]),
   midi.NoteOnEvent(tick=0, channel=6, data=[33, 95]),
   midi.NoteOffEvent(tick=240, channel=6, data=[33, 80]),
   midi.NoteOnEvent(tick=0, channel=6, data=[33, 95]),
   midi.NoteOffEvent(tick=480, channel=6, data=[33, 80]),
   midi.NoteOnEvent(tick=0, channel=6, data=[33, 95]),
   midi.NoteOffEvent(tick=480, channel=6, data=[33, 80]),
   midi.NoteOnEvent(tick=0, channel=6, data=[35, 95]),
   midi.NoteOffEvent(tick=480, channel=6, data=[35, 80]),
   midi.NoteOnEvent(tick=0, channel=6, data=[31, 95]),
   midi.NoteOffEvent(tick=240, channel=6, data=[31, 80]),
   midi.NoteOnEvent(tick=0, channel=6, data=[31, 95]),
   midi.NoteOffEvent(tick=240, channel=6, data=[31, 80]),
   midi.NoteOnEvent(tick=0, channel=6, data=[31, 95]),
   midi.NoteOffEvent(tick=480, channel=6, data=[31, 80]),
   midi.NoteOnEvent(tick=0, channel=6, data=[31, 95]),
   midi.NoteOffEvent(tick=480, channel=6, data=[31, 80]),
   midi.NoteOnEvent(tick=0, channel=6, data=[31, 95]),
   midi.NoteOffEvent(tick=480, channel=6, data=[31, 80]),
   midi.NoteOnEvent(tick=0, channel=6, data=[26, 95]),
   midi.NoteOffEvent(tick=480, channel=6, data=[26, 80]),
   midi.NoteOnEvent(tick=0, channel=6, data=[26, 95]),
   midi.NoteOffEvent(tick=480, channel=6, data=[26, 80]),
   midi.NoteOnEvent(tick=0, channel=6, data=[26, 95]),
   midi.NoteOffEvent(tick=480, channel=6, data=[26, 80]),
   midi.NoteOnEvent(tick=0, channel=6, data=[28, 95]),
   midi.NoteOffEvent(tick=480, channel=6, data=[28, 80]),
   midi.NoteOnEvent(tick=0, channel=6, data=[29, 95]),
   midi.NoteOffEvent(tick=480, channel=6, data=[29, 80]),
   midi.NoteOnEvent(tick=0, channel=6, data=[29, 95]),
   midi.NoteOffEvent(tick=480, channel=6, data=[29, 80]),
   midi.NoteOnEvent(tick=0, channel=6, data=[29, 95]),
   midi.NoteOffEvent(tick=480, channel=6, data=[29, 80]),
   midi.NoteOnEvent(tick=0, channel=6, data=[29, 95]),
   midi.NoteOffEvent(tick=480, channel=6, data=[29, 80]),
   midi.NoteOnEvent(tick=0, channel=6, data=[33, 95]),
   midi.NoteOffEvent(tick=240, channel=6, data=[33, 80]),
   midi.NoteOnEvent(tick=0, channel=6, data=[33, 95]),
   midi.NoteOffEvent(tick=240, channel=6, data=[33, 80]),
   midi.NoteOnEvent(tick=0, channel=6, data=[33, 95]),
   midi.NoteOffEvent(tick=480, channel=6, data=[33, 80]),
   midi.NoteOnEvent(tick=0, channel=6, data=[33, 95]),
   midi.NoteOffEvent(tick=480, channel=6, data=[33, 80]),
   midi.NoteOnEvent(tick=0, channel=6, data=[35, 95]),
   midi.NoteOffEvent(tick=480, channel=6, data=[35, 80]),
   midi.NoteOnEvent(tick=0, channel=6, data=[31, 95]),
   midi.NoteOffEvent(tick=240, channel=6, data=[31, 80]),
   midi.NoteOnEvent(tick=0, channel=6, data=[31, 95]),
   midi.NoteOffEvent(tick=240, channel=6, data=[31, 80]),
   midi.NoteOnEvent(tick=0, channel=6, data=[31, 95]),
   midi.NoteOffEvent(tick=480, channel=6, data=[31, 80]),
   midi.NoteOnEvent(tick=0, channel=6, data=[31, 95]),
   midi.NoteOffEvent(tick=480, channel=6, data=[31, 80]),
   midi.NoteOnEvent(tick=0, channel=6, data=[31, 95]),
   midi.NoteOffEvent(tick=480, channel=6, data=[31, 80]),
   midi.NoteOnEvent(tick=0, channel=6, data=[26, 95]),
   midi.NoteOffEvent(tick=480, channel=6, data=[26, 80]),
   midi.NoteOnEvent(tick=0, channel=6, data=[26, 95]),
   midi.NoteOffEvent(tick=480, channel=6, data=[26, 80]),
   midi.NoteOnEvent(tick=0, channel=6, data=[26, 95]),
   midi.NoteOffEvent(tick=480, channel=6, data=[26, 80]),
   midi.NoteOnEvent(tick=0, channel=6, data=[28, 95]),
   midi.NoteOffEvent(tick=480, channel=6, data=[28, 80]),
   midi.NoteOnEvent(tick=0, channel=6, data=[29, 95]),
   midi.NoteOffEvent(tick=480, channel=6, data=[29, 80]),
   midi.NoteOnEvent(tick=0, channel=6, data=[29, 95]),
   midi.NoteOffEvent(tick=480, channel=6, data=[29, 80]),
   midi.NoteOnEvent(tick=0, channel=6, data=[29, 95]),
   midi.NoteOffEvent(tick=480, channel=6, data=[29, 80]),
   midi.NoteOnEvent(tick=0, channel=6, data=[29, 95]),
   midi.NoteOffEvent(tick=480, channel=6, data=[29, 80]),
   midi.NoteOnEvent(tick=0, channel=6, data=[33, 95]),
   midi.NoteOffEvent(tick=240, channel=6, data=[33, 80]),
   midi.NoteOnEvent(tick=0, channel=6, data=[33, 95]),
   midi.NoteOffEvent(tick=240, channel=6, data=[33, 80]),
   midi.NoteOnEvent(tick=0, channel=6, data=[33, 95]),
   midi.NoteOffEvent(tick=480, channel=6, data=[33, 80]),
   midi.NoteOnEvent(tick=0, channel=6, data=[33, 95]),
   midi.NoteOffEvent(tick=480, channel=6, data=[33, 80]),
   midi.NoteOnEvent(tick=0, channel=6, data=[35, 95]),
   midi.NoteOffEvent(tick=480, channel=6, data=[35, 80]),
   midi.NoteOnEvent(tick=1920, channel=6, data=[26, 95]),
   midi.NoteOffEvent(tick=480, channel=6, data=[26, 80]),
   midi.NoteOnEvent(tick=0, channel=6, data=[26, 95]),
   midi.NoteOffEvent(tick=480, channel=6, data=[26, 80]),
   midi.NoteOnEvent(tick=0, channel=6, data=[26, 95]),
   midi.NoteOffEvent(tick=480, channel=6, data=[26, 80]),
   midi.NoteOnEvent(tick=0, channel=6, data=[28, 95]),
   midi.NoteOffEvent(tick=480, channel=6, data=[28, 80]),
   midi.NoteOnEvent(tick=0, channel=6, data=[29, 95]),
   midi.NoteOffEvent(tick=480, channel=6, data=[29, 80]),
   midi.NoteOnEvent(tick=0, channel=6, data=[29, 95]),
   midi.NoteOffEvent(tick=480, channel=6, data=[29, 80]),
   midi.NoteOnEvent(tick=0, channel=6, data=[29, 95]),
   midi.NoteOffEvent(tick=480, channel=6, data=[29, 80]),
   midi.NoteOnEvent(tick=480, channel=6, data=[33, 95]),
   midi.NoteOffEvent(tick=240, channel=6, data=[33, 80]),
   midi.NoteOnEvent(tick=0, channel=6, data=[33, 95]),
   midi.NoteOffEvent(tick=240, channel=6, data=[33, 80]),
   midi.NoteOnEvent(tick=0, channel=6, data=[33, 95]),
   midi.NoteOffEvent(tick=480, channel=6, data=[33, 80]),
   midi.NoteOnEvent(tick=0, channel=6, data=[33, 95]),
   midi.NoteOffEvent(tick=480, channel=6, data=[33, 80]),
   midi.NoteOnEvent(tick=0, channel=6, data=[35, 95]),
   midi.NoteOffEvent(tick=480, channel=6, data=[35, 80]),
   midi.NoteOnEvent(tick=0, channel=6, data=[31, 95]),
   midi.NoteOffEvent(tick=240, channel=6, data=[31, 80]),
   midi.NoteOnEvent(tick=0, channel=6, data=[31, 95]),
   midi.NoteOffEvent(tick=240, channel=6, data=[31, 80]),
   midi.NoteOnEvent(tick=0, channel=6, data=[31, 95]),
   midi.NoteOffEvent(tick=480, channel=6, data=[31, 80]),
   midi.NoteOnEvent(tick=0, channel=6, data=[31, 95]),
   midi.NoteOffEvent(tick=480, channel=6, data=[31, 80]),
   midi.NoteOnEvent(tick=480, channel=6, data=[26, 95]),
   midi.NoteOffEvent(tick=480, channel=6, data=[26, 80]),
   midi.NoteOnEvent(tick=0, channel=6, data=[26, 95]),
   midi.NoteOffEvent(tick=480, channel=6, data=[26, 80]),
   midi.NoteOnEvent(tick=0, channel=6, data=[26, 95]),
   midi.NoteOffEvent(tick=480, channel=6, data=[26, 80]),
   midi.NoteOnEvent(tick=0, channel=6, data=[28, 95]),
   midi.NoteOffEvent(tick=480, channel=6, data=[28, 80]),
   midi.NoteOnEvent(tick=0, channel=6, data=[29, 95]),
   midi.NoteOffEvent(tick=480, channel=6, data=[29, 80]),
   midi.NoteOnEvent(tick=0, channel=6, data=[29, 95]),
   midi.NoteOffEvent(tick=480, channel=6, data=[29, 80]),
   midi.NoteOnEvent(tick=0, channel=6, data=[29, 95]),
   midi.NoteOffEvent(tick=480, channel=6, data=[29, 80]),
   midi.NoteOnEvent(tick=480, channel=6, data=[33, 95]),
   midi.NoteOffEvent(tick=240, channel=6, data=[33, 80]),
   midi.NoteOnEvent(tick=0, channel=6, data=[33, 95]),
   midi.NoteOffEvent(tick=240, channel=6, data=[33, 80]),
   midi.NoteOnEvent(tick=0, channel=6, data=[33, 95]),
   midi.NoteOffEvent(tick=480, channel=6, data=[33, 80]),
   midi.NoteOnEvent(tick=0, channel=6, data=[33, 95]),
   midi.NoteOffEvent(tick=480, channel=6, data=[33, 80]),
   midi.NoteOnEvent(tick=0, channel=6, data=[35, 95]),
   midi.NoteOffEvent(tick=480, channel=6, data=[35, 80]),
   midi.NoteOnEvent(tick=0, channel=6, data=[31, 95]),
   midi.NoteOffEvent(tick=240, channel=6, data=[31, 80]),
   midi.NoteOnEvent(tick=0, channel=6, data=[31, 95]),
   midi.NoteOffEvent(tick=240, channel=6, data=[31, 80]),
   midi.NoteOnEvent(tick=0, channel=6, data=[31, 95]),
   midi.NoteOffEvent(tick=480, channel=6, data=[31, 80]),
   midi.NoteOnEvent(tick=0, channel=6, data=[31, 95]),
   midi.NoteOffEvent(tick=480, channel=6, data=[31, 80]),
   midi.NoteOnEvent(tick=480, channel=6, data=[26, 95]),
   midi.NoteOffEvent(tick=480, channel=6, data=[26, 80]),
   midi.NoteOnEvent(tick=0, channel=6, data=[26, 95]),
   midi.NoteOffEvent(tick=480, channel=6, data=[26, 80]),
   midi.NoteOnEvent(tick=0, channel=6, data=[26, 95]),
   midi.NoteOffEvent(tick=480, channel=6, data=[26, 80]),
   midi.NoteOnEvent(tick=0, channel=6, data=[28, 95]),
   midi.NoteOffEvent(tick=480, channel=6, data=[28, 80]),
   midi.NoteOnEvent(tick=0, channel=6, data=[29, 95]),
   midi.NoteOffEvent(tick=480, channel=6, data=[29, 80]),
   midi.NoteOnEvent(tick=0, channel=6, data=[29, 95]),
   midi.NoteOffEvent(tick=480, channel=6, data=[29, 80]),
   midi.NoteOnEvent(tick=0, channel=6, data=[29, 95]),
   midi.NoteOffEvent(tick=480, channel=6, data=[29, 80]),
   midi.NoteOnEvent(tick=0, channel=6, data=[29, 95]),
   midi.NoteOffEvent(tick=480, channel=6, data=[29, 80]),
   midi.NoteOnEvent(tick=0, channel=6, data=[33, 95]),
   midi.NoteOffEvent(tick=240, channel=6, data=[33, 80]),
   midi.NoteOnEvent(tick=0, channel=6, data=[33, 95]),
   midi.NoteOffEvent(tick=240, channel=6, data=[33, 80]),
   midi.NoteOnEvent(tick=0, channel=6, data=[33, 95]),
   midi.NoteOffEvent(tick=480, channel=6, data=[33, 80]),
   midi.NoteOnEvent(tick=0, channel=6, data=[33, 95]),
   midi.NoteOffEvent(tick=480, channel=6, data=[33, 80]),
   midi.NoteOnEvent(tick=0, channel=6, data=[35, 95]),
   midi.NoteOffEvent(tick=480, channel=6, data=[35, 80]),
   midi.NoteOnEvent(tick=0, channel=6, data=[31, 95]),
   midi.NoteOffEvent(tick=240, channel=6, data=[31, 80]),
   midi.NoteOnEvent(tick=0, channel=6, data=[31, 95]),
   midi.NoteOffEvent(tick=240, channel=6, data=[31, 80]),
   midi.NoteOnEvent(tick=0, channel=6, data=[31, 95]),
   midi.NoteOffEvent(tick=480, channel=6, data=[31, 80]),
   midi.NoteOnEvent(tick=0, channel=6, data=[31, 95]),
   midi.NoteOffEvent(tick=480, channel=6, data=[31, 80]),
   midi.NoteOnEvent(tick=0, channel=6, data=[31, 95]),
   midi.NoteOffEvent(tick=480, channel=6, data=[31, 80]),
   midi.NoteOnEvent(tick=0, channel=6, data=[26, 95]),
   midi.NoteOffEvent(tick=480, channel=6, data=[26, 80]),
   midi.NoteOnEvent(tick=0, channel=6, data=[26, 95]),
   midi.NoteOffEvent(tick=480, channel=6, data=[26, 80]),
   midi.NoteOnEvent(tick=0, channel=6, data=[26, 95]),
   midi.NoteOffEvent(tick=480, channel=6, data=[26, 80]),
   midi.NoteOnEvent(tick=0, channel=6, data=[28, 95]),
   midi.NoteOffEvent(tick=480, channel=6, data=[28, 80]),
   midi.NoteOnEvent(tick=0, channel=6, data=[29, 95]),
   midi.NoteOffEvent(tick=480, channel=6, data=[29, 80]),
   midi.NoteOnEvent(tick=0, channel=6, data=[29, 95]),
   midi.NoteOffEvent(tick=480, channel=6, data=[29, 80]),
   midi.NoteOnEvent(tick=0, channel=6, data=[29, 95]),
   midi.NoteOffEvent(tick=480, channel=6, data=[29, 80]),
   midi.NoteOnEvent(tick=0, channel=6, data=[29, 95]),
   midi.NoteOffEvent(tick=480, channel=6, data=[29, 80]),
   midi.NoteOnEvent(tick=0, channel=6, data=[33, 95]),
   midi.NoteOffEvent(tick=240, channel=6, data=[33, 80]),
   midi.NoteOnEvent(tick=0, channel=6, data=[33, 95]),
   midi.NoteOffEvent(tick=240, channel=6, data=[33, 80]),
   midi.NoteOnEvent(tick=0, channel=6, data=[33, 95]),
   midi.NoteOffEvent(tick=480, channel=6, data=[33, 80]),
   midi.NoteOnEvent(tick=0, channel=6, data=[33, 95]),
   midi.NoteOffEvent(tick=480, channel=6, data=[33, 80]),
   midi.NoteOnEvent(tick=0, channel=6, data=[35, 95]),
   midi.NoteOffEvent(tick=480, channel=6, data=[35, 80]),
   midi.NoteOnEvent(tick=0, channel=6, data=[31, 95]),
   midi.NoteOffEvent(tick=240, channel=6, data=[31, 80]),
   midi.NoteOnEvent(tick=0, channel=6, data=[31, 95]),
   midi.NoteOffEvent(tick=240, channel=6, data=[31, 80]),
   midi.NoteOnEvent(tick=0, channel=6, data=[31, 95]),
   midi.NoteOffEvent(tick=480, channel=6, data=[31, 80]),
   midi.NoteOnEvent(tick=0, channel=6, data=[31, 95]),
   midi.NoteOffEvent(tick=480, channel=6, data=[31, 80]),
   midi.NoteOnEvent(tick=0, channel=6, data=[31, 95]),
   midi.NoteOffEvent(tick=480, channel=6, data=[31, 80]),
   midi.NoteOnEvent(tick=7680, channel=6, data=[26, 95]),
   midi.NoteOffEvent(tick=480, channel=6, data=[26, 80]),
   midi.NoteOnEvent(tick=0, channel=6, data=[26, 95]),
   midi.NoteOffEvent(tick=480, channel=6, data=[26, 80]),
   midi.NoteOnEvent(tick=0, channel=6, data=[26, 95]),
   midi.NoteOffEvent(tick=480, channel=6, data=[26, 80]),
   midi.NoteOnEvent(tick=0, channel=6, data=[28, 95]),
   midi.NoteOffEvent(tick=480, channel=6, data=[28, 80]),
   midi.NoteOnEvent(tick=0, channel=6, data=[29, 95]),
   midi.NoteOffEvent(tick=480, channel=6, data=[29, 80]),
   midi.NoteOnEvent(tick=0, channel=6, data=[29, 95]),
   midi.NoteOffEvent(tick=480, channel=6, data=[29, 80]),
   midi.NoteOnEvent(tick=0, channel=6, data=[29, 95]),
   midi.NoteOffEvent(tick=480, channel=6, data=[29, 80]),
   midi.NoteOnEvent(tick=480, channel=6, data=[33, 95]),
   midi.NoteOffEvent(tick=240, channel=6, data=[33, 80]),
   midi.NoteOnEvent(tick=0, channel=6, data=[33, 95]),
   midi.NoteOffEvent(tick=240, channel=6, data=[33, 80]),
   midi.NoteOnEvent(tick=0, channel=6, data=[33, 95]),
   midi.NoteOffEvent(tick=480, channel=6, data=[33, 80]),
   midi.NoteOnEvent(tick=0, channel=6, data=[33, 95]),
   midi.NoteOffEvent(tick=480, channel=6, data=[33, 80]),
   midi.NoteOnEvent(tick=0, channel=6, data=[35, 95]),
   midi.NoteOffEvent(tick=480, channel=6, data=[35, 80]),
   midi.NoteOnEvent(tick=0, channel=6, data=[31, 95]),
   midi.NoteOffEvent(tick=240, channel=6, data=[31, 80]),
   midi.NoteOnEvent(tick=0, channel=6, data=[31, 95]),
   midi.NoteOffEvent(tick=240, channel=6, data=[31, 80]),
   midi.NoteOnEvent(tick=0, channel=6, data=[31, 95]),
   midi.NoteOffEvent(tick=480, channel=6, data=[31, 80]),
   midi.NoteOnEvent(tick=0, channel=6, data=[31, 95]),
   midi.NoteOffEvent(tick=480, channel=6, data=[31, 80]),
   midi.NoteOnEvent(tick=480, channel=6, data=[26, 95]),
   midi.NoteOffEvent(tick=480, channel=6, data=[26, 80]),
   midi.NoteOnEvent(tick=0, channel=6, data=[26, 95]),
   midi.NoteOffEvent(tick=480, channel=6, data=[26, 80]),
   midi.NoteOnEvent(tick=0, channel=6, data=[26, 95]),
   midi.NoteOffEvent(tick=480, channel=6, data=[26, 80]),
   midi.NoteOnEvent(tick=0, channel=6, data=[28, 95]),
   midi.NoteOffEvent(tick=480, channel=6, data=[28, 80]),
   midi.NoteOnEvent(tick=0, channel=6, data=[29, 95]),
   midi.NoteOffEvent(tick=480, channel=6, data=[29, 80]),
   midi.NoteOnEvent(tick=0, channel=6, data=[29, 95]),
   midi.NoteOffEvent(tick=480, channel=6, data=[29, 80]),
   midi.NoteOnEvent(tick=0, channel=6, data=[29, 95]),
   midi.NoteOffEvent(tick=480, channel=6, data=[29, 80]),
   midi.NoteOnEvent(tick=480, channel=6, data=[33, 95]),
   midi.NoteOffEvent(tick=240, channel=6, data=[33, 80]),
   midi.NoteOnEvent(tick=0, channel=6, data=[33, 95]),
   midi.NoteOffEvent(tick=240, channel=6, data=[33, 80]),
   midi.NoteOnEvent(tick=0, channel=6, data=[33, 95]),
   midi.NoteOffEvent(tick=480, channel=6, data=[33, 80]),
   midi.NoteOnEvent(tick=0, channel=6, data=[33, 95]),
   midi.NoteOffEvent(tick=480, channel=6, data=[33, 80]),
   midi.NoteOnEvent(tick=0, channel=6, data=[35, 95]),
   midi.NoteOffEvent(tick=480, channel=6, data=[35, 80]),
   midi.NoteOnEvent(tick=0, channel=6, data=[31, 95]),
   midi.NoteOffEvent(tick=240, channel=6, data=[31, 80]),
   midi.NoteOnEvent(tick=0, channel=6, data=[31, 95]),
   midi.NoteOffEvent(tick=240, channel=6, data=[31, 80]),
   midi.NoteOnEvent(tick=0, channel=6, data=[31, 95]),
   midi.NoteOffEvent(tick=480, channel=6, data=[31, 80]),
   midi.NoteOnEvent(tick=0, channel=6, data=[31, 95]),
   midi.NoteOffEvent(tick=480, channel=6, data=[31, 80]),
   midi.NoteOnEvent(tick=480, channel=6, data=[26, 95]),
   midi.NoteOffEvent(tick=480, channel=6, data=[26, 80]),
   midi.NoteOnEvent(tick=0, channel=6, data=[26, 95]),
   midi.NoteOffEvent(tick=480, channel=6, data=[26, 80]),
   midi.NoteOnEvent(tick=0, channel=6, data=[26, 95]),
   midi.NoteOffEvent(tick=480, channel=6, data=[26, 80]),
   midi.NoteOnEvent(tick=0, channel=6, data=[28, 95]),
   midi.NoteOffEvent(tick=480, channel=6, data=[28, 80]),
   midi.NoteOnEvent(tick=0, channel=6, data=[29, 95]),
   midi.NoteOffEvent(tick=480, channel=6, data=[29, 80]),
   midi.NoteOnEvent(tick=0, channel=6, data=[29, 95]),
   midi.NoteOffEvent(tick=480, channel=6, data=[29, 80]),
   midi.NoteOnEvent(tick=0, channel=6, data=[29, 95]),
   midi.NoteOffEvent(tick=480, channel=6, data=[29, 80]),
   midi.NoteOnEvent(tick=480, channel=6, data=[33, 95]),
   midi.NoteOffEvent(tick=240, channel=6, data=[33, 80]),
   midi.NoteOnEvent(tick=0, channel=6, data=[33, 95]),
   midi.NoteOffEvent(tick=240, channel=6, data=[33, 80]),
   midi.NoteOnEvent(tick=0, channel=6, data=[33, 95]),
   midi.NoteOffEvent(tick=480, channel=6, data=[33, 80]),
   midi.NoteOnEvent(tick=0, channel=6, data=[33, 95]),
   midi.NoteOffEvent(tick=480, channel=6, data=[33, 80]),
   midi.NoteOnEvent(tick=0, channel=6, data=[35, 95]),
   midi.NoteOffEvent(tick=480, channel=6, data=[35, 80]),
   midi.NoteOnEvent(tick=0, channel=6, data=[31, 95]),
   midi.NoteOffEvent(tick=240, channel=6, data=[31, 80]),
   midi.NoteOnEvent(tick=0, channel=6, data=[31, 95]),
   midi.NoteOffEvent(tick=240, channel=6, data=[31, 80]),
   midi.NoteOnEvent(tick=0, channel=6, data=[31, 95]),
   midi.NoteOffEvent(tick=480, channel=6, data=[31, 80]),
   midi.NoteOnEvent(tick=0, channel=6, data=[31, 95]),
   midi.NoteOffEvent(tick=480, channel=6, data=[31, 80]),
   midi.NoteOnEvent(tick=480, channel=6, data=[26, 95]),
   midi.NoteOffEvent(tick=480, channel=6, data=[26, 80]),
   midi.NoteOnEvent(tick=0, channel=6, data=[26, 95]),
   midi.NoteOffEvent(tick=480, channel=6, data=[26, 80]),
   midi.NoteOnEvent(tick=0, channel=6, data=[26, 95]),
   midi.NoteOffEvent(tick=480, channel=6, data=[26, 80]),
   midi.NoteOnEvent(tick=0, channel=6, data=[28, 95]),
   midi.NoteOffEvent(tick=480, channel=6, data=[28, 80]),
   midi.NoteOnEvent(tick=0, channel=6, data=[29, 95]),
   midi.NoteOffEvent(tick=480, channel=6, data=[29, 80]),
   midi.NoteOnEvent(tick=0, channel=6, data=[29, 95]),
   midi.NoteOffEvent(tick=480, channel=6, data=[29, 80]),
   midi.NoteOnEvent(tick=0, channel=6, data=[29, 95]),
   midi.NoteOffEvent(tick=480, channel=6, data=[29, 80]),
   midi.NoteOnEvent(tick=480, channel=6, data=[33, 95]),
   midi.NoteOffEvent(tick=240, channel=6, data=[33, 80]),
   midi.NoteOnEvent(tick=0, channel=6, data=[33, 95]),
   midi.NoteOffEvent(tick=240, channel=6, data=[33, 80]),
   midi.NoteOnEvent(tick=0, channel=6, data=[33, 95]),
   midi.NoteOffEvent(tick=480, channel=6, data=[33, 80]),
   midi.NoteOnEvent(tick=0, channel=6, data=[33, 95]),
   midi.NoteOffEvent(tick=480, channel=6, data=[33, 80]),
   midi.NoteOnEvent(tick=0, channel=6, data=[35, 95]),
   midi.NoteOffEvent(tick=480, channel=6, data=[35, 80]),
   midi.NoteOnEvent(tick=0, channel=6, data=[31, 95]),
   midi.NoteOffEvent(tick=240, channel=6, data=[31, 80]),
   midi.NoteOnEvent(tick=0, channel=6, data=[31, 95]),
   midi.NoteOffEvent(tick=240, channel=6, data=[31, 80]),
   midi.NoteOnEvent(tick=0, channel=6, data=[31, 95]),
   midi.NoteOffEvent(tick=480, channel=6, data=[31, 80]),
   midi.NoteOnEvent(tick=0, channel=6, data=[31, 95]),
   midi.NoteOffEvent(tick=480, channel=6, data=[31, 80]),
   midi.NoteOnEvent(tick=2400, channel=6, data=[29, 95]),
   midi.NoteOffEvent(tick=480, channel=6, data=[29, 80]),
   midi.NoteOnEvent(tick=0, channel=6, data=[29, 95]),
   midi.NoteOffEvent(tick=480, channel=6, data=[29, 80]),
   midi.NoteOnEvent(tick=0, channel=6, data=[29, 95]),
   midi.NoteOffEvent(tick=480, channel=6, data=[29, 80]),
   midi.NoteOnEvent(tick=480, channel=6, data=[33, 95]),
   midi.NoteOffEvent(tick=240, channel=6, data=[33, 80]),
   midi.NoteOnEvent(tick=0, channel=6, data=[33, 95]),
   midi.NoteOffEvent(tick=240, channel=6, data=[33, 80]),
   midi.NoteOnEvent(tick=0, channel=6, data=[33, 95]),
   midi.NoteOffEvent(tick=480, channel=6, data=[33, 80]),
   midi.NoteOnEvent(tick=0, channel=6, data=[33, 95]),
   midi.NoteOffEvent(tick=480, channel=6, data=[33, 80]),
   midi.NoteOnEvent(tick=0, channel=6, data=[35, 95]),
   midi.NoteOffEvent(tick=480, channel=6, data=[35, 80]),
   midi.NoteOnEvent(tick=0, channel=6, data=[31, 95]),
   midi.NoteOffEvent(tick=240, channel=6, data=[31, 80]),
   midi.NoteOnEvent(tick=0, channel=6, data=[31, 95]),
   midi.NoteOffEvent(tick=240, channel=6, data=[31, 80]),
   midi.NoteOnEvent(tick=0, channel=6, data=[31, 95]),
   midi.NoteOffEvent(tick=480, channel=6, data=[31, 80]),
   midi.NoteOnEvent(tick=0, channel=6, data=[31, 95]),
   midi.NoteOffEvent(tick=480, channel=6, data=[31, 80]),
   midi.EndOfTrackEvent(tick=0, data=[])]),
 midi.Track(\
  [midi.TrackNameEvent(tick=0, text='Schlaginstrumente - Auswahl', data=[83, 99, 104, 108, 97, 103, 105, 110, 115, 116, 114, 117, 109, 101, 110, 116, 101, 32, 45, 32, 65, 117, 115, 119, 97, 104, 108]),
   midi.ControlChangeEvent(tick=0, channel=9, data=[100, 0]),
   midi.ControlChangeEvent(tick=0, channel=9, data=[101, 0]),
   midi.ControlChangeEvent(tick=0, channel=9, data=[6, 12]),
   midi.PitchWheelEvent(tick=0, channel=9, data=[0, 64]),
   midi.ControlChangeEvent(tick=0, channel=9, data=[101, 0]),
   midi.ControlChangeEvent(tick=0, channel=9, data=[100, 1]),
   midi.ControlChangeEvent(tick=0, channel=9, data=[6, 64]),
   midi.ControlChangeEvent(tick=0, channel=9, data=[38, 0]),
   midi.ControlChangeEvent(tick=0, channel=9, data=[101, 127]),
   midi.ControlChangeEvent(tick=0, channel=9, data=[100, 127]),
   midi.ProgramChangeEvent(tick=0, channel=9, data=[0]),
   midi.ControlChangeEvent(tick=0, channel=9, data=[0, 0]),
   midi.ControlChangeEvent(tick=0, channel=9, data=[7, 96]),
   midi.ControlChangeEvent(tick=0, channel=9, data=[10, 64]),
   midi.ControlChangeEvent(tick=0, channel=9, data=[93, 0]),
   midi.ControlChangeEvent(tick=0, channel=9, data=[91, 0]),
   midi.ControlChangeEvent(tick=0, channel=9, data=[92, 0]),
   midi.ControlChangeEvent(tick=0, channel=9, data=[95, 0]),
   midi.NoteOnEvent(tick=15360, channel=9, data=[36, 95]),
   midi.NoteOffEvent(tick=480, channel=9, data=[36, 80]),
   midi.NoteOnEvent(tick=0, channel=9, data=[36, 95]),
   midi.NoteOffEvent(tick=480, channel=9, data=[36, 80]),
   midi.NoteOnEvent(tick=0, channel=9, data=[36, 95]),
   midi.NoteOffEvent(tick=480, channel=9, data=[36, 80]),
   midi.NoteOnEvent(tick=0, channel=9, data=[36, 95]),
   midi.NoteOffEvent(tick=480, channel=9, data=[36, 80]),
   midi.NoteOnEvent(tick=0, channel=9, data=[36, 95]),
   midi.NoteOffEvent(tick=480, channel=9, data=[36, 80]),
   midi.NoteOnEvent(tick=0, channel=9, data=[36, 95]),
   midi.NoteOffEvent(tick=480, channel=9, data=[36, 80]),
   midi.NoteOnEvent(tick=0, channel=9, data=[36, 95]),
   midi.NoteOffEvent(tick=480, channel=9, data=[36, 80]),
   midi.NoteOnEvent(tick=0, channel=9, data=[36, 95]),
   midi.NoteOffEvent(tick=480, channel=9, data=[36, 80]),
   midi.NoteOnEvent(tick=0, channel=9, data=[36, 95]),
   midi.NoteOffEvent(tick=480, channel=9, data=[36, 80]),
   midi.NoteOnEvent(tick=0, channel=9, data=[36, 95]),
   midi.NoteOffEvent(tick=480, channel=9, data=[36, 80]),
   midi.NoteOnEvent(tick=0, channel=9, data=[36, 95]),
   midi.NoteOffEvent(tick=480, channel=9, data=[36, 80]),
   midi.NoteOnEvent(tick=0, channel=9, data=[36, 95]),
   midi.NoteOffEvent(tick=480, channel=9, data=[36, 80]),
   midi.NoteOnEvent(tick=0, channel=9, data=[36, 95]),
   midi.NoteOffEvent(tick=480, channel=9, data=[36, 80]),
   midi.NoteOnEvent(tick=0, channel=9, data=[36, 95]),
   midi.NoteOffEvent(tick=480, channel=9, data=[36, 80]),
   midi.NoteOnEvent(tick=0, channel=9, data=[38, 95]),
   midi.NoteOnEvent(tick=0, channel=9, data=[36, 95]),
   midi.NoteOffEvent(tick=480, channel=9, data=[38, 80]),
   midi.NoteOffEvent(tick=0, channel=9, data=[36, 80]),
   midi.NoteOnEvent(tick=0, channel=9, data=[38, 95]),
   midi.NoteOnEvent(tick=0, channel=9, data=[36, 95]),
   midi.NoteOffEvent(tick=240, channel=9, data=[38, 80]),
   midi.NoteOffEvent(tick=0, channel=9, data=[36, 80]),
   midi.NoteOnEvent(tick=0, channel=9, data=[38, 95]),
   midi.NoteOffEvent(tick=120, channel=9, data=[38, 80]),
   midi.NoteOnEvent(tick=0, channel=9, data=[38, 95]),
   midi.NoteOffEvent(tick=120, channel=9, data=[38, 80]),
   midi.NoteOnEvent(tick=0, channel=9, data=[36, 95]),
   midi.NoteOffEvent(tick=240, channel=9, data=[36, 80]),
   midi.NoteOnEvent(tick=0, channel=9, data=[42, 95]),
   midi.NoteOffEvent(tick=240, channel=9, data=[42, 80]),
   midi.NoteOnEvent(tick=0, channel=9, data=[38, 95]),
   midi.NoteOnEvent(tick=0, channel=9, data=[36, 95]),
   midi.NoteOffEvent(tick=240, channel=9, data=[38, 80]),
   midi.NoteOffEvent(tick=0, channel=9, data=[36, 80]),
   midi.NoteOnEvent(tick=0, channel=9, data=[42, 95]),
   midi.NoteOffEvent(tick=120, channel=9, data=[42, 80]),
   midi.NoteOnEvent(tick=0, channel=9, data=[44, 95]),
   midi.NoteOffEvent(tick=120, channel=9, data=[44, 80]),
   midi.NoteOnEvent(tick=0, channel=9, data=[36, 95]),
   midi.NoteOffEvent(tick=240, channel=9, data=[36, 80]),
   midi.NoteOnEvent(tick=0, channel=9, data=[42, 95]),
   midi.NoteOffEvent(tick=240, channel=9, data=[42, 80]),
   midi.NoteOnEvent(tick=0, channel=9, data=[38, 95]),
   midi.NoteOnEvent(tick=0, channel=9, data=[36, 95]),
   midi.NoteOffEvent(tick=240, channel=9, data=[38, 80]),
   midi.NoteOffEvent(tick=0, channel=9, data=[36, 80]),
   midi.NoteOnEvent(tick=0, channel=9, data=[42, 95]),
   midi.NoteOffEvent(tick=240, channel=9, data=[42, 80]),
   midi.NoteOnEvent(tick=0, channel=9, data=[36, 95]),
   midi.NoteOffEvent(tick=240, channel=9, data=[36, 80]),
   midi.NoteOnEvent(tick=0, channel=9, data=[42, 95]),
   midi.NoteOffEvent(tick=240, channel=9, data=[42, 80]),
   midi.NoteOnEvent(tick=0, channel=9, data=[38, 95]),
   midi.NoteOnEvent(tick=0, channel=9, data=[36, 95]),
   midi.NoteOffEvent(tick=240, channel=9, data=[38, 80]),
   midi.NoteOffEvent(tick=0, channel=9, data=[36, 80]),
   midi.NoteOnEvent(tick=0, channel=9, data=[42, 95]),
   midi.NoteOffEvent(tick=240, channel=9, data=[42, 80]),
   midi.NoteOnEvent(tick=0, channel=9, data=[36, 95]),
   midi.NoteOffEvent(tick=240, channel=9, data=[36, 80]),
   midi.NoteOnEvent(tick=0, channel=9, data=[42, 95]),
   midi.NoteOffEvent(tick=240, channel=9, data=[42, 80]),
   midi.NoteOnEvent(tick=0, channel=9, data=[38, 95]),
   midi.NoteOnEvent(tick=0, channel=9, data=[36, 95]),
   midi.NoteOffEvent(tick=240, channel=9, data=[38, 80]),
   midi.NoteOffEvent(tick=0, channel=9, data=[36, 80]),
   midi.NoteOnEvent(tick=0, channel=9, data=[42, 95]),
   midi.NoteOffEvent(tick=240, channel=9, data=[42, 80]),
   midi.NoteOnEvent(tick=0, channel=9, data=[36, 95]),
   midi.NoteOffEvent(tick=240, channel=9, data=[36, 80]),
   midi.NoteOnEvent(tick=0, channel=9, data=[42, 95]),
   midi.NoteOffEvent(tick=240, channel=9, data=[42, 80]),
   midi.NoteOnEvent(tick=0, channel=9, data=[38, 95]),
   midi.NoteOnEvent(tick=0, channel=9, data=[36, 95]),
   midi.NoteOffEvent(tick=240, channel=9, data=[38, 80]),
   midi.NoteOffEvent(tick=0, channel=9, data=[36, 80]),
   midi.NoteOnEvent(tick=0, channel=9, data=[42, 95]),
   midi.NoteOffEvent(tick=120, channel=9, data=[42, 80]),
   midi.NoteOnEvent(tick=0, channel=9, data=[44, 95]),
   midi.NoteOffEvent(tick=120, channel=9, data=[44, 80]),
   midi.NoteOnEvent(tick=0, channel=9, data=[36, 95]),
   midi.NoteOffEvent(tick=240, channel=9, data=[36, 80]),
   midi.NoteOnEvent(tick=0, channel=9, data=[42, 95]),
   midi.NoteOffEvent(tick=240, channel=9, data=[42, 80]),
   midi.NoteOnEvent(tick=0, channel=9, data=[38, 95]),
   midi.NoteOnEvent(tick=0, channel=9, data=[36, 95]),
   midi.NoteOffEvent(tick=240, channel=9, data=[38, 80]),
   midi.NoteOffEvent(tick=0, channel=9, data=[36, 80]),
   midi.NoteOnEvent(tick=0, channel=9, data=[42, 95]),
   midi.NoteOffEvent(tick=240, channel=9, data=[42, 80]),
   midi.NoteOnEvent(tick=0, channel=9, data=[36, 95]),
   midi.NoteOffEvent(tick=240, channel=9, data=[36, 80]),
   midi.NoteOnEvent(tick=0, channel=9, data=[42, 95]),
   midi.NoteOffEvent(tick=240, channel=9, data=[42, 80]),
   midi.NoteOnEvent(tick=0, channel=9, data=[38, 95]),
   midi.NoteOnEvent(tick=0, channel=9, data=[36, 95]),
   midi.NoteOffEvent(tick=240, channel=9, data=[38, 80]),
   midi.NoteOffEvent(tick=0, channel=9, data=[36, 80]),
   midi.NoteOnEvent(tick=0, channel=9, data=[42, 95]),
   midi.NoteOffEvent(tick=240, channel=9, data=[42, 80]),
   midi.NoteOnEvent(tick=0, channel=9, data=[36, 95]),
   midi.NoteOffEvent(tick=240, channel=9, data=[36, 80]),
   midi.NoteOnEvent(tick=0, channel=9, data=[42, 95]),
   midi.NoteOffEvent(tick=240, channel=9, data=[42, 80]),
   midi.NoteOnEvent(tick=0, channel=9, data=[38, 95]),
   midi.NoteOnEvent(tick=0, channel=9, data=[36, 95]),
   midi.NoteOffEvent(tick=240, channel=9, data=[38, 80]),
   midi.NoteOffEvent(tick=0, channel=9, data=[36, 80]),
   midi.NoteOnEvent(tick=0, channel=9, data=[42, 95]),
   midi.NoteOffEvent(tick=240, channel=9, data=[42, 80]),
   midi.NoteOnEvent(tick=0, channel=9, data=[49, 95]),
   midi.NoteOnEvent(tick=0, channel=9, data=[36, 95]),
   midi.NoteOffEvent(tick=240, channel=9, data=[49, 80]),
   midi.NoteOffEvent(tick=0, channel=9, data=[36, 80]),
   midi.NoteOnEvent(tick=0, channel=9, data=[42, 95]),
   midi.NoteOffEvent(tick=240, channel=9, data=[42, 80]),
   midi.NoteOnEvent(tick=0, channel=9, data=[38, 95]),
   midi.NoteOnEvent(tick=0, channel=9, data=[36, 95]),
   midi.NoteOffEvent(tick=240, channel=9, data=[38, 80]),
   midi.NoteOffEvent(tick=0, channel=9, data=[36, 80]),
   midi.NoteOnEvent(tick=0, channel=9, data=[42, 95]),
   midi.NoteOffEvent(tick=120, channel=9, data=[42, 80]),
   midi.NoteOnEvent(tick=0, channel=9, data=[44, 95]),
   midi.NoteOffEvent(tick=120, channel=9, data=[44, 80]),
   midi.NoteOnEvent(tick=0, channel=9, data=[36, 95]),
   midi.NoteOffEvent(tick=240, channel=9, data=[36, 80]),
   midi.NoteOnEvent(tick=0, channel=9, data=[42, 95]),
   midi.NoteOffEvent(tick=240, channel=9, data=[42, 80]),
   midi.NoteOnEvent(tick=0, channel=9, data=[38, 95]),
   midi.NoteOnEvent(tick=0, channel=9, data=[36, 95]),
   midi.NoteOffEvent(tick=240, channel=9, data=[38, 80]),
   midi.NoteOffEvent(tick=0, channel=9, data=[36, 80]),
   midi.NoteOnEvent(tick=0, channel=9, data=[42, 95]),
   midi.NoteOffEvent(tick=240, channel=9, data=[42, 80]),
   midi.NoteOnEvent(tick=0, channel=9, data=[36, 95]),
   midi.NoteOffEvent(tick=240, channel=9, data=[36, 80]),
   midi.NoteOnEvent(tick=0, channel=9, data=[42, 95]),
   midi.NoteOffEvent(tick=240, channel=9, data=[42, 80]),
   midi.NoteOnEvent(tick=0, channel=9, data=[38, 95]),
   midi.NoteOnEvent(tick=0, channel=9, data=[36, 95]),
   midi.NoteOffEvent(tick=240, channel=9, data=[38, 80]),
   midi.NoteOffEvent(tick=0, channel=9, data=[36, 80]),
   midi.NoteOnEvent(tick=0, channel=9, data=[42, 95]),
   midi.NoteOffEvent(tick=240, channel=9, data=[42, 80]),
   midi.NoteOnEvent(tick=0, channel=9, data=[36, 95]),
   midi.NoteOffEvent(tick=240, channel=9, data=[36, 80]),
   midi.NoteOnEvent(tick=0, channel=9, data=[42, 95]),
   midi.NoteOffEvent(tick=240, channel=9, data=[42, 80]),
   midi.NoteOnEvent(tick=0, channel=9, data=[38, 95]),
   midi.NoteOnEvent(tick=0, channel=9, data=[36, 95]),
   midi.NoteOffEvent(tick=240, channel=9, data=[38, 80]),
   midi.NoteOffEvent(tick=0, channel=9, data=[36, 80]),
   midi.NoteOnEvent(tick=0, channel=9, data=[42, 95]),
   midi.NoteOffEvent(tick=240, channel=9, data=[42, 80]),
   midi.NoteOnEvent(tick=0, channel=9, data=[36, 95]),
   midi.NoteOffEvent(tick=240, channel=9, data=[36, 80]),
   midi.NoteOnEvent(tick=0, channel=9, data=[42, 95]),
   midi.NoteOffEvent(tick=240, channel=9, data=[42, 80]),
   midi.NoteOnEvent(tick=0, channel=9, data=[38, 95]),
   midi.NoteOnEvent(tick=0, channel=9, data=[36, 95]),
   midi.NoteOffEvent(tick=240, channel=9, data=[38, 80]),
   midi.NoteOffEvent(tick=0, channel=9, data=[36, 80]),
   midi.NoteOnEvent(tick=0, channel=9, data=[42, 95]),
   midi.NoteOffEvent(tick=120, channel=9, data=[42, 80]),
   midi.NoteOnEvent(tick=0, channel=9, data=[44, 95]),
   midi.NoteOffEvent(tick=120, channel=9, data=[44, 80]),
   midi.NoteOnEvent(tick=0, channel=9, data=[36, 95]),
   midi.NoteOffEvent(tick=240, channel=9, data=[36, 80]),
   midi.NoteOnEvent(tick=0, channel=9, data=[42, 95]),
   midi.NoteOffEvent(tick=240, channel=9, data=[42, 80]),
   midi.NoteOnEvent(tick=0, channel=9, data=[38, 95]),
   midi.NoteOnEvent(tick=0, channel=9, data=[36, 95]),
   midi.NoteOffEvent(tick=240, channel=9, data=[38, 80]),
   midi.NoteOffEvent(tick=0, channel=9, data=[36, 80]),
   midi.NoteOnEvent(tick=0, channel=9, data=[42, 95]),
   midi.NoteOffEvent(tick=240, channel=9, data=[42, 80]),
   midi.NoteOnEvent(tick=0, channel=9, data=[36, 95]),
   midi.NoteOffEvent(tick=240, channel=9, data=[36, 80]),
   midi.NoteOnEvent(tick=0, channel=9, data=[42, 95]),
   midi.NoteOffEvent(tick=240, channel=9, data=[42, 80]),
   midi.NoteOnEvent(tick=0, channel=9, data=[38, 95]),
   midi.NoteOnEvent(tick=0, channel=9, data=[36, 95]),
   midi.NoteOffEvent(tick=240, channel=9, data=[38, 80]),
   midi.NoteOffEvent(tick=0, channel=9, data=[36, 80]),
   midi.NoteOnEvent(tick=0, channel=9, data=[42, 95]),
   midi.NoteOffEvent(tick=240, channel=9, data=[42, 80]),
   midi.NoteOnEvent(tick=0, channel=9, data=[36, 95]),
   midi.NoteOffEvent(tick=240, channel=9, data=[36, 80]),
   midi.NoteOnEvent(tick=0, channel=9, data=[42, 95]),
   midi.NoteOffEvent(tick=240, channel=9, data=[42, 80]),
   midi.NoteOnEvent(tick=0, channel=9, data=[38, 95]),
   midi.NoteOnEvent(tick=0, channel=9, data=[36, 95]),
   midi.NoteOffEvent(tick=240, channel=9, data=[38, 80]),
   midi.NoteOffEvent(tick=0, channel=9, data=[36, 80]),
   midi.NoteOnEvent(tick=0, channel=9, data=[42, 95]),
   midi.NoteOffEvent(tick=240, channel=9, data=[42, 80]),
   midi.NoteOnEvent(tick=0, channel=9, data=[36, 95]),
   midi.NoteOffEvent(tick=240, channel=9, data=[36, 80]),
   midi.NoteOnEvent(tick=0, channel=9, data=[42, 95]),
   midi.NoteOffEvent(tick=240, channel=9, data=[42, 80]),
   midi.NoteOnEvent(tick=0, channel=9, data=[38, 95]),
   midi.NoteOnEvent(tick=0, channel=9, data=[36, 95]),
   midi.NoteOffEvent(tick=240, channel=9, data=[38, 80]),
   midi.NoteOffEvent(tick=0, channel=9, data=[36, 80]),
   midi.NoteOnEvent(tick=0, channel=9, data=[42, 95]),
   midi.NoteOffEvent(tick=120, channel=9, data=[42, 80]),
   midi.NoteOnEvent(tick=0, channel=9, data=[44, 95]),
   midi.NoteOffEvent(tick=120, channel=9, data=[44, 80]),
   midi.NoteOnEvent(tick=0, channel=9, data=[36, 95]),
   midi.NoteOffEvent(tick=240, channel=9, data=[36, 80]),
   midi.NoteOnEvent(tick=0, channel=9, data=[42, 95]),
   midi.NoteOffEvent(tick=240, channel=9, data=[42, 80]),
   midi.NoteOnEvent(tick=0, channel=9, data=[38, 95]),
   midi.NoteOnEvent(tick=0, channel=9, data=[36, 95]),
   midi.NoteOffEvent(tick=240, channel=9, data=[38, 80]),
   midi.NoteOffEvent(tick=0, channel=9, data=[36, 80]),
   midi.NoteOnEvent(tick=0, channel=9, data=[42, 95]),
   midi.NoteOffEvent(tick=240, channel=9, data=[42, 80]),
   midi.NoteOnEvent(tick=0, channel=9, data=[36, 95]),
   midi.NoteOffEvent(tick=240, channel=9, data=[36, 80]),
   midi.NoteOnEvent(tick=0, channel=9, data=[42, 95]),
   midi.NoteOffEvent(tick=240, channel=9, data=[42, 80]),
   midi.NoteOnEvent(tick=0, channel=9, data=[38, 95]),
   midi.NoteOnEvent(tick=0, channel=9, data=[36, 95]),
   midi.NoteOffEvent(tick=240, channel=9, data=[38, 80]),
   midi.NoteOffEvent(tick=0, channel=9, data=[36, 80]),
   midi.NoteOnEvent(tick=0, channel=9, data=[42, 95]),
   midi.NoteOffEvent(tick=240, channel=9, data=[42, 80]),
   midi.NoteOnEvent(tick=0, channel=9, data=[36, 95]),
   midi.NoteOffEvent(tick=240, channel=9, data=[36, 80]),
   midi.NoteOnEvent(tick=0, channel=9, data=[42, 95]),
   midi.NoteOffEvent(tick=240, channel=9, data=[42, 80]),
   midi.NoteOnEvent(tick=0, channel=9, data=[38, 95]),
   midi.NoteOnEvent(tick=0, channel=9, data=[36, 95]),
   midi.NoteOffEvent(tick=240, channel=9, data=[38, 80]),
   midi.NoteOffEvent(tick=0, channel=9, data=[36, 80]),
   midi.NoteOnEvent(tick=0, channel=9, data=[42, 95]),
   midi.NoteOffEvent(tick=240, channel=9, data=[42, 80]),
   midi.NoteOnEvent(tick=0, channel=9, data=[36, 95]),
   midi.NoteOffEvent(tick=240, channel=9, data=[36, 80]),
   midi.NoteOnEvent(tick=0, channel=9, data=[42, 95]),
   midi.NoteOnEvent(tick=0, channel=9, data=[36, 95]),
   midi.NoteOffEvent(tick=240, channel=9, data=[42, 80]),
   midi.NoteOffEvent(tick=0, channel=9, data=[36, 80]),
   midi.NoteOnEvent(tick=0, channel=9, data=[38, 95]),
   midi.NoteOnEvent(tick=0, channel=9, data=[36, 95]),
   midi.NoteOffEvent(tick=240, channel=9, data=[38, 80]),
   midi.NoteOffEvent(tick=0, channel=9, data=[36, 80]),
   midi.NoteOnEvent(tick=0, channel=9, data=[42, 95]),
   midi.NoteOffEvent(tick=120, channel=9, data=[42, 80]),
   midi.NoteOnEvent(tick=0, channel=9, data=[44, 95]),
   midi.NoteOffEvent(tick=120, channel=9, data=[44, 80]),
   midi.NoteOnEvent(tick=0, channel=9, data=[36, 95]),
   midi.NoteOffEvent(tick=240, channel=9, data=[36, 80]),
   midi.NoteOnEvent(tick=0, channel=9, data=[42, 95]),
   midi.NoteOffEvent(tick=240, channel=9, data=[42, 80]),
   midi.NoteOnEvent(tick=0, channel=9, data=[38, 95]),
   midi.NoteOnEvent(tick=0, channel=9, data=[36, 95]),
   midi.NoteOffEvent(tick=240, channel=9, data=[38, 80]),
   midi.NoteOffEvent(tick=0, channel=9, data=[36, 80]),
   midi.NoteOnEvent(tick=0, channel=9, data=[42, 95]),
   midi.NoteOffEvent(tick=240, channel=9, data=[42, 80]),
   midi.NoteOnEvent(tick=0, channel=9, data=[36, 95]),
   midi.NoteOffEvent(tick=240, channel=9, data=[36, 80]),
   midi.NoteOnEvent(tick=0, channel=9, data=[42, 95]),
   midi.NoteOnEvent(tick=0, channel=9, data=[36, 95]),
   midi.NoteOffEvent(tick=240, channel=9, data=[42, 80]),
   midi.NoteOffEvent(tick=0, channel=9, data=[36, 80]),
   midi.NoteOnEvent(tick=0, channel=9, data=[38, 95]),
   midi.NoteOnEvent(tick=0, channel=9, data=[36, 95]),
   midi.NoteOffEvent(tick=240, channel=9, data=[38, 80]),
   midi.NoteOffEvent(tick=0, channel=9, data=[36, 80]),
   midi.NoteOnEvent(tick=0, channel=9, data=[42, 95]),
   midi.NoteOffEvent(tick=240, channel=9, data=[42, 80]),
   midi.NoteOnEvent(tick=0, channel=9, data=[36, 95]),
   midi.NoteOffEvent(tick=240, channel=9, data=[36, 80]),
   midi.NoteOnEvent(tick=0, channel=9, data=[42, 95]),
   midi.NoteOffEvent(tick=240, channel=9, data=[42, 80]),
   midi.NoteOnEvent(tick=0, channel=9, data=[38, 95]),
   midi.NoteOnEvent(tick=0, channel=9, data=[36, 95]),
   midi.NoteOffEvent(tick=240, channel=9, data=[38, 80]),
   midi.NoteOffEvent(tick=0, channel=9, data=[36, 80]),
   midi.NoteOnEvent(tick=0, channel=9, data=[42, 95]),
   midi.NoteOffEvent(tick=240, channel=9, data=[42, 80]),
   midi.NoteOnEvent(tick=0, channel=9, data=[49, 95]),
   midi.NoteOnEvent(tick=0, channel=9, data=[36, 95]),
   midi.NoteOffEvent(tick=240, channel=9, data=[49, 80]),
   midi.NoteOffEvent(tick=0, channel=9, data=[36, 80]),
   midi.NoteOnEvent(tick=0, channel=9, data=[42, 95]),
   midi.NoteOffEvent(tick=240, channel=9, data=[42, 80]),
   midi.NoteOnEvent(tick=0, channel=9, data=[38, 95]),
   midi.NoteOnEvent(tick=0, channel=9, data=[36, 95]),
   midi.NoteOffEvent(tick=240, channel=9, data=[38, 80]),
   midi.NoteOffEvent(tick=0, channel=9, data=[36, 80]),
   midi.NoteOnEvent(tick=0, channel=9, data=[42, 95]),
   midi.NoteOffEvent(tick=120, channel=9, data=[42, 80]),
   midi.NoteOnEvent(tick=0, channel=9, data=[44, 95]),
   midi.NoteOffEvent(tick=120, channel=9, data=[44, 80]),
   midi.NoteOnEvent(tick=0, channel=9, data=[36, 95]),
   midi.NoteOffEvent(tick=240, channel=9, data=[36, 80]),
   midi.NoteOnEvent(tick=0, channel=9, data=[42, 95]),
   midi.NoteOffEvent(tick=240, channel=9, data=[42, 80]),
   midi.NoteOnEvent(tick=0, channel=9, data=[38, 95]),
   midi.NoteOnEvent(tick=0, channel=9, data=[36, 95]),
   midi.NoteOffEvent(tick=240, channel=9, data=[38, 80]),
   midi.NoteOffEvent(tick=0, channel=9, data=[36, 80]),
   midi.NoteOnEvent(tick=0, channel=9, data=[42, 95]),
   midi.NoteOffEvent(tick=240, channel=9, data=[42, 80]),
   midi.NoteOnEvent(tick=0, channel=9, data=[36, 95]),
   midi.NoteOffEvent(tick=240, channel=9, data=[36, 80]),
   midi.NoteOnEvent(tick=0, channel=9, data=[42, 95]),
   midi.NoteOffEvent(tick=240, channel=9, data=[42, 80]),
   midi.NoteOnEvent(tick=0, channel=9, data=[38, 95]),
   midi.NoteOnEvent(tick=0, channel=9, data=[36, 95]),
   midi.NoteOffEvent(tick=240, channel=9, data=[38, 80]),
   midi.NoteOffEvent(tick=0, channel=9, data=[36, 80]),
   midi.NoteOnEvent(tick=0, channel=9, data=[42, 95]),
   midi.NoteOffEvent(tick=240, channel=9, data=[42, 80]),
   midi.NoteOnEvent(tick=0, channel=9, data=[36, 95]),
   midi.NoteOffEvent(tick=240, channel=9, data=[36, 80]),
   midi.NoteOnEvent(tick=0, channel=9, data=[42, 95]),
   midi.NoteOffEvent(tick=240, channel=9, data=[42, 80]),
   midi.NoteOnEvent(tick=0, channel=9, data=[38, 95]),
   midi.NoteOnEvent(tick=0, channel=9, data=[36, 95]),
   midi.NoteOffEvent(tick=240, channel=9, data=[38, 80]),
   midi.NoteOffEvent(tick=0, channel=9, data=[36, 80]),
   midi.NoteOnEvent(tick=0, channel=9, data=[42, 95]),
   midi.NoteOffEvent(tick=240, channel=9, data=[42, 80]),
   midi.NoteOnEvent(tick=0, channel=9, data=[36, 95]),
   midi.NoteOffEvent(tick=240, channel=9, data=[36, 80]),
   midi.NoteOnEvent(tick=0, channel=9, data=[42, 95]),
   midi.NoteOnEvent(tick=0, channel=9, data=[36, 95]),
   midi.NoteOffEvent(tick=240, channel=9, data=[42, 80]),
   midi.NoteOffEvent(tick=0, channel=9, data=[36, 80]),
   midi.NoteOnEvent(tick=0, channel=9, data=[38, 95]),
   midi.NoteOnEvent(tick=0, channel=9, data=[36, 95]),
   midi.NoteOffEvent(tick=240, channel=9, data=[38, 80]),
   midi.NoteOffEvent(tick=0, channel=9, data=[36, 80]),
   midi.NoteOnEvent(tick=0, channel=9, data=[42, 95]),
   midi.NoteOffEvent(tick=120, channel=9, data=[42, 80]),
   midi.NoteOnEvent(tick=0, channel=9, data=[44, 95]),
   midi.NoteOffEvent(tick=120, channel=9, data=[44, 80]),
   midi.NoteOnEvent(tick=0, channel=9, data=[36, 95]),
   midi.NoteOffEvent(tick=240, channel=9, data=[36, 80]),
   midi.NoteOnEvent(tick=0, channel=9, data=[42, 95]),
   midi.NoteOffEvent(tick=240, channel=9, data=[42, 80]),
   midi.NoteOnEvent(tick=0, channel=9, data=[38, 95]),
   midi.NoteOnEvent(tick=0, channel=9, data=[36, 95]),
   midi.NoteOffEvent(tick=240, channel=9, data=[38, 80]),
   midi.NoteOffEvent(tick=0, channel=9, data=[36, 80]),
   midi.NoteOnEvent(tick=0, channel=9, data=[42, 95]),
   midi.NoteOffEvent(tick=240, channel=9, data=[42, 80]),
   midi.NoteOnEvent(tick=0, channel=9, data=[36, 95]),
   midi.NoteOffEvent(tick=240, channel=9, data=[36, 80]),
   midi.NoteOnEvent(tick=0, channel=9, data=[42, 95]),
   midi.NoteOnEvent(tick=0, channel=9, data=[36, 95]),
   midi.NoteOffEvent(tick=240, channel=9, data=[42, 80]),
   midi.NoteOffEvent(tick=0, channel=9, data=[36, 80]),
   midi.NoteOnEvent(tick=0, channel=9, data=[38, 95]),
   midi.NoteOnEvent(tick=0, channel=9, data=[36, 95]),
   midi.NoteOffEvent(tick=240, channel=9, data=[38, 80]),
   midi.NoteOffEvent(tick=0, channel=9, data=[36, 80]),
   midi.NoteOnEvent(tick=0, channel=9, data=[42, 95]),
   midi.NoteOffEvent(tick=240, channel=9, data=[42, 80]),
   midi.NoteOnEvent(tick=0, channel=9, data=[36, 95]),
   midi.NoteOffEvent(tick=240, channel=9, data=[36, 80]),
   midi.NoteOnEvent(tick=0, channel=9, data=[42, 95]),
   midi.NoteOffEvent(tick=240, channel=9, data=[42, 80]),
   midi.NoteOnEvent(tick=0, channel=9, data=[38, 95]),
   midi.NoteOnEvent(tick=0, channel=9, data=[36, 95]),
   midi.NoteOffEvent(tick=240, channel=9, data=[38, 80]),
   midi.NoteOffEvent(tick=0, channel=9, data=[36, 80]),
   midi.NoteOnEvent(tick=0, channel=9, data=[42, 95]),
   midi.NoteOffEvent(tick=240, channel=9, data=[42, 80]),
   midi.NoteOnEvent(tick=0, channel=9, data=[49, 95]),
   midi.NoteOnEvent(tick=0, channel=9, data=[36, 95]),
   midi.NoteOffEvent(tick=240, channel=9, data=[49, 80]),
   midi.NoteOffEvent(tick=0, channel=9, data=[36, 80]),
   midi.NoteOnEvent(tick=0, channel=9, data=[42, 95]),
   midi.NoteOffEvent(tick=240, channel=9, data=[42, 80]),
   midi.NoteOnEvent(tick=0, channel=9, data=[38, 95]),
   midi.NoteOnEvent(tick=0, channel=9, data=[36, 95]),
   midi.NoteOffEvent(tick=240, channel=9, data=[38, 80]),
   midi.NoteOffEvent(tick=0, channel=9, data=[36, 80]),
   midi.NoteOnEvent(tick=0, channel=9, data=[42, 95]),
   midi.NoteOffEvent(tick=120, channel=9, data=[42, 80]),
   midi.NoteOnEvent(tick=0, channel=9, data=[44, 95]),
   midi.NoteOffEvent(tick=120, channel=9, data=[44, 80]),
   midi.NoteOnEvent(tick=0, channel=9, data=[36, 95]),
   midi.NoteOffEvent(tick=240, channel=9, data=[36, 80]),
   midi.NoteOnEvent(tick=0, channel=9, data=[42, 95]),
   midi.NoteOffEvent(tick=240, channel=9, data=[42, 80]),
   midi.NoteOnEvent(tick=0, channel=9, data=[38, 95]),
   midi.NoteOnEvent(tick=0, channel=9, data=[36, 95]),
   midi.NoteOffEvent(tick=240, channel=9, data=[38, 80]),
   midi.NoteOffEvent(tick=0, channel=9, data=[36, 80]),
   midi.NoteOnEvent(tick=0, channel=9, data=[42, 95]),
   midi.NoteOffEvent(tick=240, channel=9, data=[42, 80]),
   midi.NoteOnEvent(tick=0, channel=9, data=[36, 95]),
   midi.NoteOffEvent(tick=240, channel=9, data=[36, 80]),
   midi.NoteOnEvent(tick=0, channel=9, data=[42, 95]),
   midi.NoteOffEvent(tick=240, channel=9, data=[42, 80]),
   midi.NoteOnEvent(tick=0, channel=9, data=[38, 95]),
   midi.NoteOnEvent(tick=0, channel=9, data=[36, 95]),
   midi.NoteOffEvent(tick=240, channel=9, data=[38, 80]),
   midi.NoteOffEvent(tick=0, channel=9, data=[36, 80]),
   midi.NoteOnEvent(tick=0, channel=9, data=[42, 95]),
   midi.NoteOffEvent(tick=240, channel=9, data=[42, 80]),
   midi.NoteOnEvent(tick=0, channel=9, data=[36, 95]),
   midi.NoteOffEvent(tick=240, channel=9, data=[36, 80]),
   midi.NoteOnEvent(tick=0, channel=9, data=[42, 95]),
   midi.NoteOffEvent(tick=240, channel=9, data=[42, 80]),
   midi.NoteOnEvent(tick=0, channel=9, data=[38, 95]),
   midi.NoteOnEvent(tick=0, channel=9, data=[36, 95]),
   midi.NoteOffEvent(tick=240, channel=9, data=[38, 80]),
   midi.NoteOffEvent(tick=0, channel=9, data=[36, 80]),
   midi.NoteOnEvent(tick=0, channel=9, data=[42, 95]),
   midi.NoteOffEvent(tick=240, channel=9, data=[42, 80]),
   midi.NoteOnEvent(tick=0, channel=9, data=[36, 95]),
   midi.NoteOffEvent(tick=240, channel=9, data=[36, 80]),
   midi.NoteOnEvent(tick=0, channel=9, data=[42, 95]),
   midi.NoteOnEvent(tick=0, channel=9, data=[36, 95]),
   midi.NoteOffEvent(tick=240, channel=9, data=[42, 80]),
   midi.NoteOffEvent(tick=0, channel=9, data=[36, 80]),
   midi.NoteOnEvent(tick=0, channel=9, data=[38, 95]),
   midi.NoteOnEvent(tick=0, channel=9, data=[36, 95]),
   midi.NoteOffEvent(tick=240, channel=9, data=[38, 80]),
   midi.NoteOffEvent(tick=0, channel=9, data=[36, 80]),
   midi.NoteOnEvent(tick=0, channel=9, data=[42, 95]),
   midi.NoteOffEvent(tick=120, channel=9, data=[42, 80]),
   midi.NoteOnEvent(tick=0, channel=9, data=[44, 95]),
   midi.NoteOffEvent(tick=120, channel=9, data=[44, 80]),
   midi.NoteOnEvent(tick=0, channel=9, data=[36, 95]),
   midi.NoteOffEvent(tick=240, channel=9, data=[36, 80]),
   midi.NoteOnEvent(tick=0, channel=9, data=[42, 95]),
   midi.NoteOffEvent(tick=240, channel=9, data=[42, 80]),
   midi.NoteOnEvent(tick=0, channel=9, data=[38, 95]),
   midi.NoteOnEvent(tick=0, channel=9, data=[36, 95]),
   midi.NoteOffEvent(tick=240, channel=9, data=[38, 80]),
   midi.NoteOffEvent(tick=0, channel=9, data=[36, 80]),
   midi.NoteOnEvent(tick=0, channel=9, data=[42, 95]),
   midi.NoteOffEvent(tick=240, channel=9, data=[42, 80]),
   midi.NoteOnEvent(tick=1920, channel=9, data=[49, 95]),
   midi.NoteOnEvent(tick=0, channel=9, data=[36, 95]),
   midi.NoteOffEvent(tick=240, channel=9, data=[49, 80]),
   midi.NoteOffEvent(tick=0, channel=9, data=[36, 80]),
   midi.NoteOnEvent(tick=0, channel=9, data=[42, 95]),
   midi.NoteOffEvent(tick=240, channel=9, data=[42, 80]),
   midi.NoteOnEvent(tick=0, channel=9, data=[38, 95]),
   midi.NoteOnEvent(tick=0, channel=9, data=[36, 95]),
   midi.NoteOffEvent(tick=240, channel=9, data=[38, 80]),
   midi.NoteOffEvent(tick=0, channel=9, data=[36, 80]),
   midi.NoteOnEvent(tick=0, channel=9, data=[42, 95]),
   midi.NoteOffEvent(tick=120, channel=9, data=[42, 80]),
   midi.NoteOnEvent(tick=0, channel=9, data=[44, 95]),
   midi.NoteOffEvent(tick=120, channel=9, data=[44, 80]),
   midi.NoteOnEvent(tick=0, channel=9, data=[36, 95]),
   midi.NoteOffEvent(tick=240, channel=9, data=[36, 80]),
   midi.NoteOnEvent(tick=0, channel=9, data=[42, 95]),
   midi.NoteOffEvent(tick=240, channel=9, data=[42, 80]),
   midi.NoteOnEvent(tick=0, channel=9, data=[38, 95]),
   midi.NoteOnEvent(tick=0, channel=9, data=[36, 95]),
   midi.NoteOffEvent(tick=240, channel=9, data=[38, 80]),
   midi.NoteOffEvent(tick=0, channel=9, data=[36, 80]),
   midi.NoteOnEvent(tick=0, channel=9, data=[42, 95]),
   midi.NoteOffEvent(tick=240, channel=9, data=[42, 80]),
   midi.NoteOnEvent(tick=0, channel=9, data=[36, 95]),
   midi.NoteOffEvent(tick=240, channel=9, data=[36, 80]),
   midi.NoteOnEvent(tick=0, channel=9, data=[42, 95]),
   midi.NoteOffEvent(tick=240, channel=9, data=[42, 80]),
   midi.NoteOnEvent(tick=0, channel=9, data=[38, 95]),
   midi.NoteOnEvent(tick=0, channel=9, data=[36, 95]),
   midi.NoteOffEvent(tick=240, channel=9, data=[38, 80]),
   midi.NoteOffEvent(tick=0, channel=9, data=[36, 80]),
   midi.NoteOnEvent(tick=0, channel=9, data=[42, 95]),
   midi.NoteOffEvent(tick=240, channel=9, data=[42, 80]),
   midi.NoteOnEvent(tick=0, channel=9, data=[36, 95]),
   midi.NoteOffEvent(tick=240, channel=9, data=[36, 80]),
   midi.NoteOnEvent(tick=0, channel=9, data=[42, 95]),
   midi.NoteOffEvent(tick=240, channel=9, data=[42, 80]),
   midi.NoteOnEvent(tick=0, channel=9, data=[38, 95]),
   midi.NoteOnEvent(tick=0, channel=9, data=[36, 95]),
   midi.NoteOffEvent(tick=240, channel=9, data=[38, 80]),
   midi.NoteOffEvent(tick=0, channel=9, data=[36, 80]),
   midi.NoteOnEvent(tick=0, channel=9, data=[42, 95]),
   midi.NoteOffEvent(tick=240, channel=9, data=[42, 80]),
   midi.NoteOnEvent(tick=0, channel=9, data=[36, 95]),
   midi.NoteOffEvent(tick=240, channel=9, data=[36, 80]),
   midi.NoteOnEvent(tick=0, channel=9, data=[42, 95]),
   midi.NoteOffEvent(tick=240, channel=9, data=[42, 80]),
   midi.NoteOnEvent(tick=0, channel=9, data=[38, 95]),
   midi.NoteOnEvent(tick=0, channel=9, data=[36, 95]),
   midi.NoteOffEvent(tick=240, channel=9, data=[38, 80]),
   midi.NoteOffEvent(tick=0, channel=9, data=[36, 80]),
   midi.NoteOnEvent(tick=0, channel=9, data=[42, 95]),
   midi.NoteOffEvent(tick=120, channel=9, data=[42, 80]),
   midi.NoteOnEvent(tick=0, channel=9, data=[44, 95]),
   midi.NoteOffEvent(tick=120, channel=9, data=[44, 80]),
   midi.NoteOnEvent(tick=0, channel=9, data=[36, 95]),
   midi.NoteOffEvent(tick=240, channel=9, data=[36, 80]),
   midi.NoteOnEvent(tick=0, channel=9, data=[42, 95]),
   midi.NoteOffEvent(tick=240, channel=9, data=[42, 80]),
   midi.NoteOnEvent(tick=0, channel=9, data=[38, 95]),
   midi.NoteOnEvent(tick=0, channel=9, data=[36, 95]),
   midi.NoteOffEvent(tick=240, channel=9, data=[38, 80]),
   midi.NoteOffEvent(tick=0, channel=9, data=[36, 80]),
   midi.NoteOnEvent(tick=0, channel=9, data=[42, 95]),
   midi.NoteOffEvent(tick=240, channel=9, data=[42, 80]),
   midi.NoteOnEvent(tick=0, channel=9, data=[36, 95]),
   midi.NoteOffEvent(tick=240, channel=9, data=[36, 80]),
   midi.NoteOnEvent(tick=0, channel=9, data=[42, 95]),
   midi.NoteOffEvent(tick=240, channel=9, data=[42, 80]),
   midi.NoteOnEvent(tick=0, channel=9, data=[38, 95]),
   midi.NoteOnEvent(tick=0, channel=9, data=[36, 95]),
   midi.NoteOffEvent(tick=240, channel=9, data=[38, 80]),
   midi.NoteOffEvent(tick=0, channel=9, data=[36, 80]),
   midi.NoteOnEvent(tick=0, channel=9, data=[42, 95]),
   midi.NoteOffEvent(tick=240, channel=9, data=[42, 80]),
   midi.NoteOnEvent(tick=0, channel=9, data=[36, 95]),
   midi.NoteOffEvent(tick=240, channel=9, data=[36, 80]),
   midi.NoteOnEvent(tick=0, channel=9, data=[42, 95]),
   midi.NoteOffEvent(tick=240, channel=9, data=[42, 80]),
   midi.NoteOnEvent(tick=0, channel=9, data=[38, 95]),
   midi.NoteOnEvent(tick=0, channel=9, data=[36, 95]),
   midi.NoteOffEvent(tick=240, channel=9, data=[38, 80]),
   midi.NoteOffEvent(tick=0, channel=9, data=[36, 80]),
   midi.NoteOnEvent(tick=0, channel=9, data=[42, 95]),
   midi.NoteOffEvent(tick=240, channel=9, data=[42, 80]),
   midi.NoteOnEvent(tick=0, channel=9, data=[49, 95]),
   midi.NoteOnEvent(tick=0, channel=9, data=[36, 95]),
   midi.NoteOffEvent(tick=240, channel=9, data=[49, 80]),
   midi.NoteOffEvent(tick=0, channel=9, data=[36, 80]),
   midi.NoteOnEvent(tick=0, channel=9, data=[42, 95]),
   midi.NoteOffEvent(tick=240, channel=9, data=[42, 80]),
   midi.NoteOnEvent(tick=0, channel=9, data=[38, 95]),
   midi.NoteOnEvent(tick=0, channel=9, data=[36, 95]),
   midi.NoteOffEvent(tick=240, channel=9, data=[38, 80]),
   midi.NoteOffEvent(tick=0, channel=9, data=[36, 80]),
   midi.NoteOnEvent(tick=0, channel=9, data=[42, 95]),
   midi.NoteOffEvent(tick=120, channel=9, data=[42, 80]),
   midi.NoteOnEvent(tick=0, channel=9, data=[44, 95]),
   midi.NoteOffEvent(tick=120, channel=9, data=[44, 80]),
   midi.NoteOnEvent(tick=0, channel=9, data=[36, 95]),
   midi.NoteOffEvent(tick=240, channel=9, data=[36, 80]),
   midi.NoteOnEvent(tick=0, channel=9, data=[42, 95]),
   midi.NoteOffEvent(tick=240, channel=9, data=[42, 80]),
   midi.NoteOnEvent(tick=0, channel=9, data=[38, 95]),
   midi.NoteOnEvent(tick=0, channel=9, data=[36, 95]),
   midi.NoteOffEvent(tick=240, channel=9, data=[38, 80]),
   midi.NoteOffEvent(tick=0, channel=9, data=[36, 80]),
   midi.NoteOnEvent(tick=0, channel=9, data=[42, 95]),
   midi.NoteOffEvent(tick=240, channel=9, data=[42, 80]),
   midi.NoteOnEvent(tick=0, channel=9, data=[36, 95]),
   midi.NoteOffEvent(tick=240, channel=9, data=[36, 80]),
   midi.NoteOnEvent(tick=0, channel=9, data=[42, 95]),
   midi.NoteOffEvent(tick=240, channel=9, data=[42, 80]),
   midi.NoteOnEvent(tick=0, channel=9, data=[38, 95]),
   midi.NoteOnEvent(tick=0, channel=9, data=[36, 95]),
   midi.NoteOffEvent(tick=240, channel=9, data=[38, 80]),
   midi.NoteOffEvent(tick=0, channel=9, data=[36, 80]),
   midi.NoteOnEvent(tick=0, channel=9, data=[42, 95]),
   midi.NoteOffEvent(tick=240, channel=9, data=[42, 80]),
   midi.NoteOnEvent(tick=0, channel=9, data=[36, 95]),
   midi.NoteOffEvent(tick=240, channel=9, data=[36, 80]),
   midi.NoteOnEvent(tick=0, channel=9, data=[42, 95]),
   midi.NoteOffEvent(tick=240, channel=9, data=[42, 80]),
   midi.NoteOnEvent(tick=0, channel=9, data=[38, 95]),
   midi.NoteOnEvent(tick=0, channel=9, data=[36, 95]),
   midi.NoteOffEvent(tick=240, channel=9, data=[38, 80]),
   midi.NoteOffEvent(tick=0, channel=9, data=[36, 80]),
   midi.NoteOnEvent(tick=0, channel=9, data=[42, 95]),
   midi.NoteOffEvent(tick=240, channel=9, data=[42, 80]),
   midi.NoteOnEvent(tick=0, channel=9, data=[36, 95]),
   midi.NoteOffEvent(tick=240, channel=9, data=[36, 80]),
   midi.NoteOnEvent(tick=0, channel=9, data=[42, 95]),
   midi.NoteOffEvent(tick=240, channel=9, data=[42, 80]),
   midi.NoteOnEvent(tick=0, channel=9, data=[38, 95]),
   midi.NoteOnEvent(tick=0, channel=9, data=[36, 95]),
   midi.NoteOffEvent(tick=240, channel=9, data=[38, 80]),
   midi.NoteOffEvent(tick=0, channel=9, data=[36, 80]),
   midi.NoteOnEvent(tick=0, channel=9, data=[42, 95]),
   midi.NoteOffEvent(tick=120, channel=9, data=[42, 80]),
   midi.NoteOnEvent(tick=0, channel=9, data=[44, 95]),
   midi.NoteOffEvent(tick=120, channel=9, data=[44, 80]),
   midi.NoteOnEvent(tick=0, channel=9, data=[36, 95]),
   midi.NoteOffEvent(tick=240, channel=9, data=[36, 80]),
   midi.NoteOnEvent(tick=0, channel=9, data=[42, 95]),
   midi.NoteOffEvent(tick=240, channel=9, data=[42, 80]),
   midi.NoteOnEvent(tick=0, channel=9, data=[38, 95]),
   midi.NoteOnEvent(tick=0, channel=9, data=[36, 95]),
   midi.NoteOffEvent(tick=240, channel=9, data=[38, 80]),
   midi.NoteOffEvent(tick=0, channel=9, data=[36, 80]),
   midi.NoteOnEvent(tick=0, channel=9, data=[42, 95]),
   midi.NoteOffEvent(tick=240, channel=9, data=[42, 80]),
   midi.NoteOnEvent(tick=0, channel=9, data=[36, 95]),
   midi.NoteOffEvent(tick=240, channel=9, data=[36, 80]),
   midi.NoteOnEvent(tick=0, channel=9, data=[42, 95]),
   midi.NoteOffEvent(tick=240, channel=9, data=[42, 80]),
   midi.NoteOnEvent(tick=0, channel=9, data=[38, 95]),
   midi.NoteOnEvent(tick=0, channel=9, data=[36, 95]),
   midi.NoteOffEvent(tick=240, channel=9, data=[38, 80]),
   midi.NoteOffEvent(tick=0, channel=9, data=[36, 80]),
   midi.NoteOnEvent(tick=0, channel=9, data=[42, 95]),
   midi.NoteOffEvent(tick=240, channel=9, data=[42, 80]),
   midi.NoteOnEvent(tick=0, channel=9, data=[36, 95]),
   midi.NoteOffEvent(tick=240, channel=9, data=[36, 80]),
   midi.NoteOnEvent(tick=0, channel=9, data=[42, 95]),
   midi.NoteOffEvent(tick=240, channel=9, data=[42, 80]),
   midi.NoteOnEvent(tick=0, channel=9, data=[38, 95]),
   midi.NoteOnEvent(tick=0, channel=9, data=[36, 95]),
   midi.NoteOffEvent(tick=240, channel=9, data=[38, 80]),
   midi.NoteOffEvent(tick=0, channel=9, data=[36, 80]),
   midi.NoteOnEvent(tick=0, channel=9, data=[42, 95]),
   midi.NoteOffEvent(tick=240, channel=9, data=[42, 80]),
   midi.NoteOnEvent(tick=0, channel=9, data=[49, 95]),
   midi.NoteOnEvent(tick=0, channel=9, data=[36, 95]),
   midi.NoteOffEvent(tick=240, channel=9, data=[49, 80]),
   midi.NoteOffEvent(tick=0, channel=9, data=[36, 80]),
   midi.NoteOnEvent(tick=0, channel=9, data=[42, 95]),
   midi.NoteOffEvent(tick=240, channel=9, data=[42, 80]),
   midi.NoteOnEvent(tick=0, channel=9, data=[38, 95]),
   midi.NoteOnEvent(tick=0, channel=9, data=[36, 95]),
   midi.NoteOffEvent(tick=240, channel=9, data=[38, 80]),
   midi.NoteOffEvent(tick=0, channel=9, data=[36, 80]),
   midi.NoteOnEvent(tick=0, channel=9, data=[42, 95]),
   midi.NoteOffEvent(tick=120, channel=9, data=[42, 80]),
   midi.NoteOnEvent(tick=0, channel=9, data=[44, 95]),
   midi.NoteOffEvent(tick=120, channel=9, data=[44, 80]),
   midi.NoteOnEvent(tick=0, channel=9, data=[36, 95]),
   midi.NoteOffEvent(tick=240, channel=9, data=[36, 80]),
   midi.NoteOnEvent(tick=0, channel=9, data=[42, 95]),
   midi.NoteOffEvent(tick=240, channel=9, data=[42, 80]),
   midi.NoteOnEvent(tick=0, channel=9, data=[38, 95]),
   midi.NoteOnEvent(tick=0, channel=9, data=[36, 95]),
   midi.NoteOffEvent(tick=240, channel=9, data=[38, 80]),
   midi.NoteOffEvent(tick=0, channel=9, data=[36, 80]),
   midi.NoteOnEvent(tick=0, channel=9, data=[42, 95]),
   midi.NoteOffEvent(tick=240, channel=9, data=[42, 80]),
   midi.NoteOnEvent(tick=0, channel=9, data=[36, 95]),
   midi.NoteOffEvent(tick=240, channel=9, data=[36, 80]),
   midi.NoteOnEvent(tick=0, channel=9, data=[42, 95]),
   midi.NoteOffEvent(tick=240, channel=9, data=[42, 80]),
   midi.NoteOnEvent(tick=0, channel=9, data=[38, 95]),
   midi.NoteOnEvent(tick=0, channel=9, data=[36, 95]),
   midi.NoteOffEvent(tick=240, channel=9, data=[38, 80]),
   midi.NoteOffEvent(tick=0, channel=9, data=[36, 80]),
   midi.NoteOnEvent(tick=0, channel=9, data=[42, 95]),
   midi.NoteOffEvent(tick=240, channel=9, data=[42, 80]),
   midi.NoteOnEvent(tick=0, channel=9, data=[36, 95]),
   midi.NoteOffEvent(tick=240, channel=9, data=[36, 80]),
   midi.NoteOnEvent(tick=0, channel=9, data=[42, 95]),
   midi.NoteOffEvent(tick=240, channel=9, data=[42, 80]),
   midi.NoteOnEvent(tick=0, channel=9, data=[38, 95]),
   midi.NoteOnEvent(tick=0, channel=9, data=[36, 95]),
   midi.NoteOffEvent(tick=240, channel=9, data=[38, 80]),
   midi.NoteOffEvent(tick=0, channel=9, data=[36, 80]),
   midi.NoteOnEvent(tick=0, channel=9, data=[42, 95]),
   midi.NoteOffEvent(tick=240, channel=9, data=[42, 80]),
   midi.NoteOnEvent(tick=0, channel=9, data=[36, 95]),
   midi.NoteOffEvent(tick=240, channel=9, data=[36, 80]),
   midi.NoteOnEvent(tick=0, channel=9, data=[42, 95]),
   midi.NoteOffEvent(tick=240, channel=9, data=[42, 80]),
   midi.NoteOnEvent(tick=0, channel=9, data=[38, 95]),
   midi.NoteOnEvent(tick=0, channel=9, data=[36, 95]),
   midi.NoteOffEvent(tick=240, channel=9, data=[38, 80]),
   midi.NoteOffEvent(tick=0, channel=9, data=[36, 80]),
   midi.NoteOnEvent(tick=0, channel=9, data=[42, 95]),
   midi.NoteOffEvent(tick=120, channel=9, data=[42, 80]),
   midi.NoteOnEvent(tick=0, channel=9, data=[44, 95]),
   midi.NoteOffEvent(tick=120, channel=9, data=[44, 80]),
   midi.NoteOnEvent(tick=0, channel=9, data=[36, 95]),
   midi.NoteOffEvent(tick=240, channel=9, data=[36, 80]),
   midi.NoteOnEvent(tick=0, channel=9, data=[42, 95]),
   midi.NoteOffEvent(tick=240, channel=9, data=[42, 80]),
   midi.NoteOnEvent(tick=0, channel=9, data=[38, 95]),
   midi.NoteOnEvent(tick=0, channel=9, data=[36, 95]),
   midi.NoteOffEvent(tick=240, channel=9, data=[38, 80]),
   midi.NoteOffEvent(tick=0, channel=9, data=[36, 80]),
   midi.NoteOnEvent(tick=0, channel=9, data=[42, 95]),
   midi.NoteOffEvent(tick=240, channel=9, data=[42, 80]),
   midi.NoteOnEvent(tick=0, channel=9, data=[36, 95]),
   midi.NoteOffEvent(tick=240, channel=9, data=[36, 80]),
   midi.NoteOnEvent(tick=0, channel=9, data=[42, 95]),
   midi.NoteOffEvent(tick=240, channel=9, data=[42, 80]),
   midi.NoteOnEvent(tick=0, channel=9, data=[38, 95]),
   midi.NoteOnEvent(tick=0, channel=9, data=[36, 95]),
   midi.NoteOffEvent(tick=240, channel=9, data=[38, 80]),
   midi.NoteOffEvent(tick=0, channel=9, data=[36, 80]),
   midi.NoteOnEvent(tick=0, channel=9, data=[42, 95]),
   midi.NoteOffEvent(tick=240, channel=9, data=[42, 80]),
   midi.NoteOnEvent(tick=0, channel=9, data=[36, 95]),
   midi.NoteOffEvent(tick=240, channel=9, data=[36, 80]),
   midi.NoteOnEvent(tick=0, channel=9, data=[42, 95]),
   midi.NoteOffEvent(tick=240, channel=9, data=[42, 80]),
   midi.NoteOnEvent(tick=0, channel=9, data=[38, 95]),
   midi.NoteOnEvent(tick=0, channel=9, data=[36, 95]),
   midi.NoteOffEvent(tick=240, channel=9, data=[38, 80]),
   midi.NoteOffEvent(tick=0, channel=9, data=[36, 80]),
   midi.NoteOnEvent(tick=0, channel=9, data=[42, 95]),
   midi.NoteOffEvent(tick=240, channel=9, data=[42, 80]),
   midi.NoteOnEvent(tick=1920, channel=9, data=[36, 95]),
   midi.NoteOffEvent(tick=240, channel=9, data=[36, 80]),
   midi.NoteOnEvent(tick=0, channel=9, data=[42, 95]),
   midi.NoteOffEvent(tick=240, channel=9, data=[42, 80]),
   midi.NoteOnEvent(tick=0, channel=9, data=[38, 95]),
   midi.NoteOnEvent(tick=0, channel=9, data=[36, 95]),
   midi.NoteOffEvent(tick=240, channel=9, data=[38, 80]),
   midi.NoteOffEvent(tick=0, channel=9, data=[36, 80]),
   midi.NoteOnEvent(tick=0, channel=9, data=[42, 95]),
   midi.NoteOffEvent(tick=240, channel=9, data=[42, 80]),
   midi.NoteOnEvent(tick=0, channel=9, data=[36, 95]),
   midi.NoteOffEvent(tick=240, channel=9, data=[36, 80]),
   midi.NoteOnEvent(tick=0, channel=9, data=[42, 95]),
   midi.NoteOffEvent(tick=240, channel=9, data=[42, 80]),
   midi.NoteOnEvent(tick=0, channel=9, data=[38, 95]),
   midi.NoteOnEvent(tick=0, channel=9, data=[36, 95]),
   midi.NoteOffEvent(tick=240, channel=9, data=[38, 80]),
   midi.NoteOffEvent(tick=0, channel=9, data=[36, 80]),
   midi.NoteOnEvent(tick=0, channel=9, data=[42, 95]),
   midi.NoteOffEvent(tick=240, channel=9, data=[42, 80]),
   midi.NoteOnEvent(tick=0, channel=9, data=[36, 95]),
   midi.NoteOffEvent(tick=240, channel=9, data=[36, 80]),
   midi.NoteOnEvent(tick=0, channel=9, data=[42, 95]),
   midi.NoteOnEvent(tick=0, channel=9, data=[36, 95]),
   midi.NoteOffEvent(tick=240, channel=9, data=[42, 80]),
   midi.NoteOffEvent(tick=0, channel=9, data=[36, 80]),
   midi.NoteOnEvent(tick=0, channel=9, data=[38, 95]),
   midi.NoteOnEvent(tick=0, channel=9, data=[36, 95]),
   midi.NoteOffEvent(tick=240, channel=9, data=[38, 80]),
   midi.NoteOffEvent(tick=0, channel=9, data=[36, 80]),
   midi.NoteOnEvent(tick=0, channel=9, data=[42, 95]),
   midi.NoteOffEvent(tick=120, channel=9, data=[42, 80]),
   midi.NoteOnEvent(tick=0, channel=9, data=[44, 95]),
   midi.NoteOffEvent(tick=120, channel=9, data=[44, 80]),
   midi.NoteOnEvent(tick=0, channel=9, data=[36, 95]),
   midi.NoteOffEvent(tick=240, channel=9, data=[36, 80]),
   midi.NoteOnEvent(tick=0, channel=9, data=[42, 95]),
   midi.NoteOffEvent(tick=240, channel=9, data=[42, 80]),
   midi.NoteOnEvent(tick=0, channel=9, data=[38, 95]),
   midi.NoteOnEvent(tick=0, channel=9, data=[36, 95]),
   midi.NoteOffEvent(tick=240, channel=9, data=[38, 80]),
   midi.NoteOffEvent(tick=0, channel=9, data=[36, 80]),
   midi.NoteOnEvent(tick=0, channel=9, data=[42, 95]),
   midi.NoteOffEvent(tick=240, channel=9, data=[42, 80]),
   midi.NoteOnEvent(tick=0, channel=9, data=[36, 95]),
   midi.NoteOffEvent(tick=240, channel=9, data=[36, 80]),
   midi.NoteOnEvent(tick=0, channel=9, data=[42, 95]),
   midi.NoteOnEvent(tick=0, channel=9, data=[36, 95]),
   midi.NoteOffEvent(tick=240, channel=9, data=[42, 80]),
   midi.NoteOffEvent(tick=0, channel=9, data=[36, 80]),
   midi.NoteOnEvent(tick=0, channel=9, data=[38, 95]),
   midi.NoteOnEvent(tick=0, channel=9, data=[36, 95]),
   midi.NoteOffEvent(tick=240, channel=9, data=[38, 80]),
   midi.NoteOffEvent(tick=0, channel=9, data=[36, 80]),
   midi.NoteOnEvent(tick=0, channel=9, data=[42, 95]),
   midi.NoteOffEvent(tick=240, channel=9, data=[42, 80]),
   midi.NoteOnEvent(tick=0, channel=9, data=[36, 95]),
   midi.NoteOffEvent(tick=240, channel=9, data=[36, 80]),
   midi.NoteOnEvent(tick=0, channel=9, data=[42, 95]),
   midi.NoteOffEvent(tick=240, channel=9, data=[42, 80]),
   midi.NoteOnEvent(tick=0, channel=9, data=[38, 95]),
   midi.NoteOnEvent(tick=0, channel=9, data=[36, 95]),
   midi.NoteOffEvent(tick=240, channel=9, data=[38, 80]),
   midi.NoteOffEvent(tick=0, channel=9, data=[36, 80]),
   midi.NoteOnEvent(tick=0, channel=9, data=[42, 95]),
   midi.NoteOffEvent(tick=240, channel=9, data=[42, 80]),
   midi.NoteOnEvent(tick=0, channel=9, data=[49, 95]),
   midi.NoteOnEvent(tick=0, channel=9, data=[36, 95]),
   midi.NoteOffEvent(tick=240, channel=9, data=[49, 80]),
   midi.NoteOffEvent(tick=0, channel=9, data=[36, 80]),
   midi.NoteOnEvent(tick=0, channel=9, data=[42, 95]),
   midi.NoteOffEvent(tick=240, channel=9, data=[42, 80]),
   midi.NoteOnEvent(tick=0, channel=9, data=[38, 95]),
   midi.NoteOnEvent(tick=0, channel=9, data=[36, 95]),
   midi.NoteOffEvent(tick=240, channel=9, data=[38, 80]),
   midi.NoteOffEvent(tick=0, channel=9, data=[36, 80]),
   midi.NoteOnEvent(tick=0, channel=9, data=[42, 95]),
   midi.NoteOffEvent(tick=120, channel=9, data=[42, 80]),
   midi.NoteOnEvent(tick=0, channel=9, data=[44, 95]),
   midi.NoteOffEvent(tick=120, channel=9, data=[44, 80]),
   midi.NoteOnEvent(tick=0, channel=9, data=[36, 95]),
   midi.NoteOffEvent(tick=240, channel=9, data=[36, 80]),
   midi.NoteOnEvent(tick=0, channel=9, data=[42, 95]),
   midi.NoteOffEvent(tick=240, channel=9, data=[42, 80]),
   midi.NoteOnEvent(tick=0, channel=9, data=[38, 95]),
   midi.NoteOnEvent(tick=0, channel=9, data=[36, 95]),
   midi.NoteOffEvent(tick=240, channel=9, data=[38, 80]),
   midi.NoteOffEvent(tick=0, channel=9, data=[36, 80]),
   midi.NoteOnEvent(tick=0, channel=9, data=[42, 95]),
   midi.NoteOffEvent(tick=240, channel=9, data=[42, 80]),
   midi.NoteOnEvent(tick=0, channel=9, data=[36, 95]),
   midi.NoteOffEvent(tick=240, channel=9, data=[36, 80]),
   midi.NoteOnEvent(tick=0, channel=9, data=[42, 95]),
   midi.NoteOffEvent(tick=240, channel=9, data=[42, 80]),
   midi.NoteOnEvent(tick=0, channel=9, data=[38, 95]),
   midi.NoteOnEvent(tick=0, channel=9, data=[36, 95]),
   midi.NoteOffEvent(tick=240, channel=9, data=[38, 80]),
   midi.NoteOffEvent(tick=0, channel=9, data=[36, 80]),
   midi.NoteOnEvent(tick=0, channel=9, data=[42, 95]),
   midi.NoteOffEvent(tick=240, channel=9, data=[42, 80]),
   midi.NoteOnEvent(tick=0, channel=9, data=[36, 95]),
   midi.NoteOffEvent(tick=240, channel=9, data=[36, 80]),
   midi.NoteOnEvent(tick=0, channel=9, data=[42, 95]),
   midi.NoteOffEvent(tick=240, channel=9, data=[42, 80]),
   midi.NoteOnEvent(tick=0, channel=9, data=[38, 95]),
   midi.NoteOnEvent(tick=0, channel=9, data=[36, 95]),
   midi.NoteOffEvent(tick=240, channel=9, data=[38, 80]),
   midi.NoteOffEvent(tick=0, channel=9, data=[36, 80]),
   midi.NoteOnEvent(tick=0, channel=9, data=[42, 95]),
   midi.NoteOffEvent(tick=240, channel=9, data=[42, 80]),
   midi.NoteOnEvent(tick=0, channel=9, data=[36, 95]),
   midi.NoteOffEvent(tick=240, channel=9, data=[36, 80]),
   midi.NoteOnEvent(tick=0, channel=9, data=[42, 95]),
   midi.NoteOnEvent(tick=0, channel=9, data=[36, 95]),
   midi.NoteOffEvent(tick=240, channel=9, data=[42, 80]),
   midi.NoteOffEvent(tick=0, channel=9, data=[36, 80]),
   midi.NoteOnEvent(tick=0, channel=9, data=[38, 95]),
   midi.NoteOnEvent(tick=0, channel=9, data=[36, 95]),
   midi.NoteOffEvent(tick=240, channel=9, data=[38, 80]),
   midi.NoteOffEvent(tick=0, channel=9, data=[36, 80]),
   midi.NoteOnEvent(tick=0, channel=9, data=[42, 95]),
   midi.NoteOffEvent(tick=120, channel=9, data=[42, 80]),
   midi.NoteOnEvent(tick=0, channel=9, data=[44, 95]),
   midi.NoteOffEvent(tick=120, channel=9, data=[44, 80]),
   midi.NoteOnEvent(tick=0, channel=9, data=[36, 95]),
   midi.NoteOffEvent(tick=240, channel=9, data=[36, 80]),
   midi.NoteOnEvent(tick=0, channel=9, data=[42, 95]),
   midi.NoteOffEvent(tick=240, channel=9, data=[42, 80]),
   midi.NoteOnEvent(tick=0, channel=9, data=[38, 95]),
   midi.NoteOnEvent(tick=0, channel=9, data=[36, 95]),
   midi.NoteOffEvent(tick=240, channel=9, data=[38, 80]),
   midi.NoteOffEvent(tick=0, channel=9, data=[36, 80]),
   midi.NoteOnEvent(tick=0, channel=9, data=[42, 95]),
   midi.NoteOffEvent(tick=240, channel=9, data=[42, 80]),
   midi.NoteOnEvent(tick=0, channel=9, data=[36, 95]),
   midi.NoteOffEvent(tick=240, channel=9, data=[36, 80]),
   midi.NoteOnEvent(tick=0, channel=9, data=[42, 95]),
   midi.NoteOnEvent(tick=0, channel=9, data=[36, 95]),
   midi.NoteOffEvent(tick=240, channel=9, data=[42, 80]),
   midi.NoteOffEvent(tick=0, channel=9, data=[36, 80]),
   midi.NoteOnEvent(tick=0, channel=9, data=[38, 95]),
   midi.NoteOnEvent(tick=0, channel=9, data=[36, 95]),
   midi.NoteOffEvent(tick=240, channel=9, data=[38, 80]),
   midi.NoteOffEvent(tick=0, channel=9, data=[36, 80]),
   midi.NoteOnEvent(tick=0, channel=9, data=[42, 95]),
   midi.NoteOffEvent(tick=240, channel=9, data=[42, 80]),
   midi.NoteOnEvent(tick=0, channel=9, data=[36, 95]),
   midi.NoteOffEvent(tick=240, channel=9, data=[36, 80]),
   midi.NoteOnEvent(tick=0, channel=9, data=[42, 95]),
   midi.NoteOffEvent(tick=240, channel=9, data=[42, 80]),
   midi.NoteOnEvent(tick=0, channel=9, data=[38, 95]),
   midi.NoteOnEvent(tick=0, channel=9, data=[36, 95]),
   midi.NoteOffEvent(tick=240, channel=9, data=[38, 80]),
   midi.NoteOffEvent(tick=0, channel=9, data=[36, 80]),
   midi.NoteOnEvent(tick=0, channel=9, data=[38, 95]),
   midi.NoteOffEvent(tick=120, channel=9, data=[38, 80]),
   midi.NoteOnEvent(tick=0, channel=9, data=[38, 95]),
   midi.NoteOffEvent(tick=120, channel=9, data=[38, 80]),
   midi.NoteOnEvent(tick=0, channel=9, data=[49, 95]),
   midi.NoteOnEvent(tick=0, channel=9, data=[36, 95]),
   midi.NoteOffEvent(tick=240, channel=9, data=[49, 80]),
   midi.NoteOffEvent(tick=0, channel=9, data=[36, 80]),
   midi.NoteOnEvent(tick=0, channel=9, data=[42, 95]),
   midi.NoteOffEvent(tick=240, channel=9, data=[42, 80]),
   midi.NoteOnEvent(tick=0, channel=9, data=[38, 95]),
   midi.NoteOnEvent(tick=0, channel=9, data=[36, 95]),
   midi.NoteOffEvent(tick=240, channel=9, data=[38, 80]),
   midi.NoteOffEvent(tick=0, channel=9, data=[36, 80]),
   midi.NoteOnEvent(tick=0, channel=9, data=[42, 95]),
   midi.NoteOffEvent(tick=120, channel=9, data=[42, 80]),
   midi.NoteOnEvent(tick=0, channel=9, data=[44, 95]),
   midi.NoteOffEvent(tick=120, channel=9, data=[44, 80]),
   midi.NoteOnEvent(tick=0, channel=9, data=[36, 95]),
   midi.NoteOffEvent(tick=240, channel=9, data=[36, 80]),
   midi.NoteOnEvent(tick=0, channel=9, data=[42, 95]),
   midi.NoteOffEvent(tick=240, channel=9, data=[42, 80]),
   midi.NoteOnEvent(tick=0, channel=9, data=[38, 95]),
   midi.NoteOnEvent(tick=0, channel=9, data=[36, 95]),
   midi.NoteOffEvent(tick=240, channel=9, data=[38, 80]),
   midi.NoteOffEvent(tick=0, channel=9, data=[36, 80]),
   midi.NoteOnEvent(tick=0, channel=9, data=[42, 95]),
   midi.NoteOffEvent(tick=240, channel=9, data=[42, 80]),
   midi.NoteOnEvent(tick=0, channel=9, data=[36, 95]),
   midi.NoteOffEvent(tick=240, channel=9, data=[36, 80]),
   midi.NoteOnEvent(tick=0, channel=9, data=[42, 95]),
   midi.NoteOffEvent(tick=240, channel=9, data=[42, 80]),
   midi.NoteOnEvent(tick=0, channel=9, data=[38, 95]),
   midi.NoteOnEvent(tick=0, channel=9, data=[36, 95]),
   midi.NoteOffEvent(tick=240, channel=9, data=[38, 80]),
   midi.NoteOffEvent(tick=0, channel=9, data=[36, 80]),
   midi.NoteOnEvent(tick=0, channel=9, data=[42, 95]),
   midi.NoteOffEvent(tick=240, channel=9, data=[42, 80]),
   midi.NoteOnEvent(tick=0, channel=9, data=[36, 95]),
   midi.NoteOffEvent(tick=240, channel=9, data=[36, 80]),
   midi.NoteOnEvent(tick=0, channel=9, data=[42, 95]),
   midi.NoteOffEvent(tick=240, channel=9, data=[42, 80]),
   midi.NoteOnEvent(tick=0, channel=9, data=[38, 95]),
   midi.NoteOnEvent(tick=0, channel=9, data=[36, 95]),
   midi.NoteOffEvent(tick=240, channel=9, data=[38, 80]),
   midi.NoteOffEvent(tick=0, channel=9, data=[36, 80]),
   midi.NoteOnEvent(tick=0, channel=9, data=[42, 95]),
   midi.NoteOffEvent(tick=240, channel=9, data=[42, 80]),
   midi.NoteOnEvent(tick=0, channel=9, data=[36, 95]),
   midi.NoteOffEvent(tick=240, channel=9, data=[36, 80]),
   midi.NoteOnEvent(tick=0, channel=9, data=[42, 95]),
   midi.NoteOnEvent(tick=0, channel=9, data=[36, 95]),
   midi.NoteOffEvent(tick=240, channel=9, data=[42, 80]),
   midi.NoteOffEvent(tick=0, channel=9, data=[36, 80]),
   midi.NoteOnEvent(tick=0, channel=9, data=[38, 95]),
   midi.NoteOnEvent(tick=0, channel=9, data=[36, 95]),
   midi.NoteOffEvent(tick=240, channel=9, data=[38, 80]),
   midi.NoteOffEvent(tick=0, channel=9, data=[36, 80]),
   midi.NoteOnEvent(tick=0, channel=9, data=[42, 95]),
   midi.NoteOffEvent(tick=120, channel=9, data=[42, 80]),
   midi.NoteOnEvent(tick=0, channel=9, data=[44, 95]),
   midi.NoteOffEvent(tick=120, channel=9, data=[44, 80]),
   midi.NoteOnEvent(tick=0, channel=9, data=[36, 95]),
   midi.NoteOffEvent(tick=240, channel=9, data=[36, 80]),
   midi.NoteOnEvent(tick=0, channel=9, data=[42, 95]),
   midi.NoteOffEvent(tick=240, channel=9, data=[42, 80]),
   midi.NoteOnEvent(tick=0, channel=9, data=[38, 95]),
   midi.NoteOnEvent(tick=0, channel=9, data=[36, 95]),
   midi.NoteOffEvent(tick=240, channel=9, data=[38, 80]),
   midi.NoteOffEvent(tick=0, channel=9, data=[36, 80]),
   midi.NoteOnEvent(tick=0, channel=9, data=[42, 95]),
   midi.NoteOffEvent(tick=240, channel=9, data=[42, 80]),
   midi.NoteOnEvent(tick=0, channel=9, data=[36, 95]),
   midi.NoteOffEvent(tick=240, channel=9, data=[36, 80]),
   midi.NoteOnEvent(tick=0, channel=9, data=[42, 95]),
   midi.NoteOnEvent(tick=0, channel=9, data=[36, 95]),
   midi.NoteOffEvent(tick=240, channel=9, data=[42, 80]),
   midi.NoteOffEvent(tick=0, channel=9, data=[36, 80]),
   midi.NoteOnEvent(tick=0, channel=9, data=[38, 95]),
   midi.NoteOnEvent(tick=0, channel=9, data=[36, 95]),
   midi.NoteOffEvent(tick=240, channel=9, data=[38, 80]),
   midi.NoteOffEvent(tick=0, channel=9, data=[36, 80]),
   midi.NoteOnEvent(tick=0, channel=9, data=[42, 95]),
   midi.NoteOffEvent(tick=240, channel=9, data=[42, 80]),
   midi.NoteOnEvent(tick=0, channel=9, data=[36, 95]),
   midi.NoteOffEvent(tick=240, channel=9, data=[36, 80]),
   midi.NoteOnEvent(tick=0, channel=9, data=[42, 95]),
   midi.NoteOffEvent(tick=240, channel=9, data=[42, 80]),
   midi.NoteOnEvent(tick=0, channel=9, data=[38, 95]),
   midi.NoteOnEvent(tick=0, channel=9, data=[36, 95]),
   midi.NoteOffEvent(tick=240, channel=9, data=[38, 80]),
   midi.NoteOffEvent(tick=0, channel=9, data=[36, 80]),
   midi.NoteOnEvent(tick=0, channel=9, data=[38, 95]),
   midi.NoteOffEvent(tick=120, channel=9, data=[38, 80]),
   midi.NoteOnEvent(tick=0, channel=9, data=[38, 95]),
   midi.NoteOffEvent(tick=120, channel=9, data=[38, 80]),
   midi.NoteOnEvent(tick=0, channel=9, data=[49, 95]),
   midi.NoteOnEvent(tick=0, channel=9, data=[36, 95]),
   midi.NoteOffEvent(tick=240, channel=9, data=[49, 80]),
   midi.NoteOffEvent(tick=0, channel=9, data=[36, 80]),
   midi.NoteOnEvent(tick=0, channel=9, data=[42, 95]),
   midi.NoteOffEvent(tick=240, channel=9, data=[42, 80]),
   midi.NoteOnEvent(tick=0, channel=9, data=[38, 95]),
   midi.NoteOnEvent(tick=0, channel=9, data=[36, 95]),
   midi.NoteOffEvent(tick=240, channel=9, data=[38, 80]),
   midi.NoteOffEvent(tick=0, channel=9, data=[36, 80]),
   midi.NoteOnEvent(tick=0, channel=9, data=[42, 95]),
   midi.NoteOffEvent(tick=120, channel=9, data=[42, 80]),
   midi.NoteOnEvent(tick=0, channel=9, data=[44, 95]),
   midi.NoteOffEvent(tick=120, channel=9, data=[44, 80]),
   midi.NoteOnEvent(tick=0, channel=9, data=[36, 95]),
   midi.NoteOffEvent(tick=240, channel=9, data=[36, 80]),
   midi.NoteOnEvent(tick=0, channel=9, data=[42, 95]),
   midi.NoteOffEvent(tick=240, channel=9, data=[42, 80]),
   midi.NoteOnEvent(tick=0, channel=9, data=[38, 95]),
   midi.NoteOnEvent(tick=0, channel=9, data=[36, 95]),
   midi.NoteOffEvent(tick=240, channel=9, data=[38, 80]),
   midi.NoteOffEvent(tick=0, channel=9, data=[36, 80]),
   midi.NoteOnEvent(tick=0, channel=9, data=[42, 95]),
   midi.NoteOffEvent(tick=240, channel=9, data=[42, 80]),
   midi.NoteOnEvent(tick=0, channel=9, data=[36, 95]),
   midi.NoteOffEvent(tick=240, channel=9, data=[36, 80]),
   midi.NoteOnEvent(tick=0, channel=9, data=[42, 95]),
   midi.NoteOffEvent(tick=240, channel=9, data=[42, 80]),
   midi.NoteOnEvent(tick=0, channel=9, data=[38, 95]),
   midi.NoteOnEvent(tick=0, channel=9, data=[36, 95]),
   midi.NoteOffEvent(tick=240, channel=9, data=[38, 80]),
   midi.NoteOffEvent(tick=0, channel=9, data=[36, 80]),
   midi.NoteOnEvent(tick=0, channel=9, data=[42, 95]),
   midi.NoteOffEvent(tick=240, channel=9, data=[42, 80]),
   midi.NoteOnEvent(tick=0, channel=9, data=[36, 95]),
   midi.NoteOffEvent(tick=240, channel=9, data=[36, 80]),
   midi.NoteOnEvent(tick=0, channel=9, data=[42, 95]),
   midi.NoteOffEvent(tick=240, channel=9, data=[42, 80]),
   midi.NoteOnEvent(tick=0, channel=9, data=[38, 95]),
   midi.NoteOnEvent(tick=0, channel=9, data=[36, 95]),
   midi.NoteOffEvent(tick=240, channel=9, data=[38, 80]),
   midi.NoteOffEvent(tick=0, channel=9, data=[36, 80]),
   midi.NoteOnEvent(tick=0, channel=9, data=[42, 95]),
   midi.NoteOffEvent(tick=240, channel=9, data=[42, 80]),
   midi.NoteOnEvent(tick=0, channel=9, data=[36, 95]),
   midi.NoteOffEvent(tick=240, channel=9, data=[36, 80]),
   midi.NoteOnEvent(tick=0, channel=9, data=[42, 95]),
   midi.NoteOnEvent(tick=0, channel=9, data=[36, 95]),
   midi.NoteOffEvent(tick=240, channel=9, data=[42, 80]),
   midi.NoteOffEvent(tick=0, channel=9, data=[36, 80]),
   midi.NoteOnEvent(tick=0, channel=9, data=[38, 95]),
   midi.NoteOnEvent(tick=0, channel=9, data=[36, 95]),
   midi.NoteOffEvent(tick=240, channel=9, data=[38, 80]),
   midi.NoteOffEvent(tick=0, channel=9, data=[36, 80]),
   midi.NoteOnEvent(tick=0, channel=9, data=[42, 95]),
   midi.NoteOffEvent(tick=120, channel=9, data=[42, 80]),
   midi.NoteOnEvent(tick=0, channel=9, data=[44, 95]),
   midi.NoteOffEvent(tick=120, channel=9, data=[44, 80]),
   midi.NoteOnEvent(tick=0, channel=9, data=[36, 95]),
   midi.NoteOffEvent(tick=240, channel=9, data=[36, 80]),
   midi.NoteOnEvent(tick=0, channel=9, data=[42, 95]),
   midi.NoteOffEvent(tick=240, channel=9, data=[42, 80]),
   midi.NoteOnEvent(tick=0, channel=9, data=[38, 95]),
   midi.NoteOnEvent(tick=0, channel=9, data=[36, 95]),
   midi.NoteOffEvent(tick=240, channel=9, data=[38, 80]),
   midi.NoteOffEvent(tick=0, channel=9, data=[36, 80]),
   midi.NoteOnEvent(tick=0, channel=9, data=[42, 95]),
   midi.NoteOffEvent(tick=240, channel=9, data=[42, 80]),
   midi.NoteOnEvent(tick=1920, channel=9, data=[49, 95]),
   midi.NoteOnEvent(tick=0, channel=9, data=[36, 95]),
   midi.NoteOffEvent(tick=240, channel=9, data=[49, 80]),
   midi.NoteOffEvent(tick=0, channel=9, data=[36, 80]),
   midi.NoteOnEvent(tick=0, channel=9, data=[42, 95]),
   midi.NoteOffEvent(tick=240, channel=9, data=[42, 80]),
   midi.NoteOnEvent(tick=0, channel=9, data=[38, 95]),
   midi.NoteOnEvent(tick=0, channel=9, data=[36, 95]),
   midi.NoteOffEvent(tick=240, channel=9, data=[38, 80]),
   midi.NoteOffEvent(tick=0, channel=9, data=[36, 80]),
   midi.NoteOnEvent(tick=0, channel=9, data=[42, 95]),
   midi.NoteOffEvent(tick=120, channel=9, data=[42, 80]),
   midi.NoteOnEvent(tick=0, channel=9, data=[44, 95]),
   midi.NoteOffEvent(tick=120, channel=9, data=[44, 80]),
   midi.NoteOnEvent(tick=0, channel=9, data=[36, 95]),
   midi.NoteOffEvent(tick=240, channel=9, data=[36, 80]),
   midi.NoteOnEvent(tick=0, channel=9, data=[42, 95]),
   midi.NoteOffEvent(tick=240, channel=9, data=[42, 80]),
   midi.NoteOnEvent(tick=0, channel=9, data=[38, 95]),
   midi.NoteOnEvent(tick=0, channel=9, data=[36, 95]),
   midi.NoteOffEvent(tick=240, channel=9, data=[38, 80]),
   midi.NoteOffEvent(tick=0, channel=9, data=[36, 80]),
   midi.NoteOnEvent(tick=0, channel=9, data=[42, 95]),
   midi.NoteOffEvent(tick=240, channel=9, data=[42, 80]),
   midi.NoteOnEvent(tick=0, channel=9, data=[36, 95]),
   midi.NoteOffEvent(tick=240, channel=9, data=[36, 80]),
   midi.NoteOnEvent(tick=0, channel=9, data=[42, 95]),
   midi.NoteOffEvent(tick=240, channel=9, data=[42, 80]),
   midi.NoteOnEvent(tick=0, channel=9, data=[38, 95]),
   midi.NoteOnEvent(tick=0, channel=9, data=[36, 95]),
   midi.NoteOffEvent(tick=240, channel=9, data=[38, 80]),
   midi.NoteOffEvent(tick=0, channel=9, data=[36, 80]),
   midi.NoteOnEvent(tick=0, channel=9, data=[42, 95]),
   midi.NoteOffEvent(tick=240, channel=9, data=[42, 80]),
   midi.NoteOnEvent(tick=0, channel=9, data=[36, 95]),
   midi.NoteOffEvent(tick=240, channel=9, data=[36, 80]),
   midi.NoteOnEvent(tick=0, channel=9, data=[42, 95]),
   midi.NoteOffEvent(tick=240, channel=9, data=[42, 80]),
   midi.NoteOnEvent(tick=0, channel=9, data=[38, 95]),
   midi.NoteOnEvent(tick=0, channel=9, data=[36, 95]),
   midi.NoteOffEvent(tick=240, channel=9, data=[38, 80]),
   midi.NoteOffEvent(tick=0, channel=9, data=[36, 80]),
   midi.NoteOnEvent(tick=0, channel=9, data=[42, 95]),
   midi.NoteOffEvent(tick=240, channel=9, data=[42, 80]),
   midi.NoteOnEvent(tick=0, channel=9, data=[36, 95]),
   midi.NoteOffEvent(tick=240, channel=9, data=[36, 80]),
   midi.NoteOnEvent(tick=0, channel=9, data=[42, 95]),
   midi.NoteOffEvent(tick=240, channel=9, data=[42, 80]),
   midi.NoteOnEvent(tick=0, channel=9, data=[38, 95]),
   midi.NoteOnEvent(tick=0, channel=9, data=[36, 95]),
   midi.NoteOffEvent(tick=240, channel=9, data=[38, 80]),
   midi.NoteOffEvent(tick=0, channel=9, data=[36, 80]),
   midi.NoteOnEvent(tick=0, channel=9, data=[42, 95]),
   midi.NoteOffEvent(tick=120, channel=9, data=[42, 80]),
   midi.NoteOnEvent(tick=0, channel=9, data=[44, 95]),
   midi.NoteOffEvent(tick=120, channel=9, data=[44, 80]),
   midi.NoteOnEvent(tick=0, channel=9, data=[36, 95]),
   midi.NoteOffEvent(tick=240, channel=9, data=[36, 80]),
   midi.NoteOnEvent(tick=0, channel=9, data=[42, 95]),
   midi.NoteOffEvent(tick=240, channel=9, data=[42, 80]),
   midi.NoteOnEvent(tick=0, channel=9, data=[38, 95]),
   midi.NoteOnEvent(tick=0, channel=9, data=[36, 95]),
   midi.NoteOffEvent(tick=240, channel=9, data=[38, 80]),
   midi.NoteOffEvent(tick=0, channel=9, data=[36, 80]),
   midi.NoteOnEvent(tick=0, channel=9, data=[42, 95]),
   midi.NoteOffEvent(tick=240, channel=9, data=[42, 80]),
   midi.NoteOnEvent(tick=0, channel=9, data=[36, 95]),
   midi.NoteOffEvent(tick=240, channel=9, data=[36, 80]),
   midi.NoteOnEvent(tick=0, channel=9, data=[42, 95]),
   midi.NoteOffEvent(tick=240, channel=9, data=[42, 80]),
   midi.NoteOnEvent(tick=0, channel=9, data=[38, 95]),
   midi.NoteOnEvent(tick=0, channel=9, data=[36, 95]),
   midi.NoteOffEvent(tick=240, channel=9, data=[38, 80]),
   midi.NoteOffEvent(tick=0, channel=9, data=[36, 80]),
   midi.NoteOnEvent(tick=0, channel=9, data=[42, 95]),
   midi.NoteOffEvent(tick=240, channel=9, data=[42, 80]),
   midi.NoteOnEvent(tick=0, channel=9, data=[36, 95]),
   midi.NoteOffEvent(tick=240, channel=9, data=[36, 80]),
   midi.NoteOnEvent(tick=0, channel=9, data=[42, 95]),
   midi.NoteOffEvent(tick=240, channel=9, data=[42, 80]),
   midi.NoteOnEvent(tick=0, channel=9, data=[38, 95]),
   midi.NoteOnEvent(tick=0, channel=9, data=[36, 95]),
   midi.NoteOffEvent(tick=240, channel=9, data=[38, 80]),
   midi.NoteOffEvent(tick=0, channel=9, data=[36, 80]),
   midi.NoteOnEvent(tick=0, channel=9, data=[42, 95]),
   midi.NoteOffEvent(tick=240, channel=9, data=[42, 80]),
   midi.NoteOnEvent(tick=0, channel=9, data=[49, 95]),
   midi.NoteOnEvent(tick=0, channel=9, data=[36, 95]),
   midi.NoteOffEvent(tick=240, channel=9, data=[49, 80]),
   midi.NoteOffEvent(tick=0, channel=9, data=[36, 80]),
   midi.NoteOnEvent(tick=0, channel=9, data=[42, 95]),
   midi.NoteOffEvent(tick=240, channel=9, data=[42, 80]),
   midi.NoteOnEvent(tick=0, channel=9, data=[38, 95]),
   midi.NoteOnEvent(tick=0, channel=9, data=[36, 95]),
   midi.NoteOffEvent(tick=240, channel=9, data=[38, 80]),
   midi.NoteOffEvent(tick=0, channel=9, data=[36, 80]),
   midi.NoteOnEvent(tick=0, channel=9, data=[42, 95]),
   midi.NoteOffEvent(tick=120, channel=9, data=[42, 80]),
   midi.NoteOnEvent(tick=0, channel=9, data=[44, 95]),
   midi.NoteOffEvent(tick=120, channel=9, data=[44, 80]),
   midi.NoteOnEvent(tick=0, channel=9, data=[36, 95]),
   midi.NoteOffEvent(tick=240, channel=9, data=[36, 80]),
   midi.NoteOnEvent(tick=0, channel=9, data=[42, 95]),
   midi.NoteOffEvent(tick=240, channel=9, data=[42, 80]),
   midi.NoteOnEvent(tick=0, channel=9, data=[38, 95]),
   midi.NoteOnEvent(tick=0, channel=9, data=[36, 95]),
   midi.NoteOffEvent(tick=240, channel=9, data=[38, 80]),
   midi.NoteOffEvent(tick=0, channel=9, data=[36, 80]),
   midi.NoteOnEvent(tick=0, channel=9, data=[42, 95]),
   midi.NoteOffEvent(tick=240, channel=9, data=[42, 80]),
   midi.NoteOnEvent(tick=0, channel=9, data=[36, 95]),
   midi.NoteOffEvent(tick=240, channel=9, data=[36, 80]),
   midi.NoteOnEvent(tick=0, channel=9, data=[42, 95]),
   midi.NoteOffEvent(tick=240, channel=9, data=[42, 80]),
   midi.NoteOnEvent(tick=0, channel=9, data=[38, 95]),
   midi.NoteOnEvent(tick=0, channel=9, data=[36, 95]),
   midi.NoteOffEvent(tick=240, channel=9, data=[38, 80]),
   midi.NoteOffEvent(tick=0, channel=9, data=[36, 80]),
   midi.NoteOnEvent(tick=0, channel=9, data=[42, 95]),
   midi.NoteOffEvent(tick=240, channel=9, data=[42, 80]),
   midi.NoteOnEvent(tick=0, channel=9, data=[36, 95]),
   midi.NoteOffEvent(tick=240, channel=9, data=[36, 80]),
   midi.NoteOnEvent(tick=0, channel=9, data=[42, 95]),
   midi.NoteOffEvent(tick=240, channel=9, data=[42, 80]),
   midi.NoteOnEvent(tick=0, channel=9, data=[38, 95]),
   midi.NoteOnEvent(tick=0, channel=9, data=[36, 95]),
   midi.NoteOffEvent(tick=240, channel=9, data=[38, 80]),
   midi.NoteOffEvent(tick=0, channel=9, data=[36, 80]),
   midi.NoteOnEvent(tick=0, channel=9, data=[42, 95]),
   midi.NoteOffEvent(tick=240, channel=9, data=[42, 80]),
   midi.NoteOnEvent(tick=0, channel=9, data=[36, 95]),
   midi.NoteOffEvent(tick=240, channel=9, data=[36, 80]),
   midi.NoteOnEvent(tick=0, channel=9, data=[42, 95]),
   midi.NoteOffEvent(tick=240, channel=9, data=[42, 80]),
   midi.NoteOnEvent(tick=0, channel=9, data=[38, 95]),
   midi.NoteOnEvent(tick=0, channel=9, data=[36, 95]),
   midi.NoteOffEvent(tick=240, channel=9, data=[38, 80]),
   midi.NoteOffEvent(tick=0, channel=9, data=[36, 80]),
   midi.NoteOnEvent(tick=0, channel=9, data=[42, 95]),
   midi.NoteOffEvent(tick=120, channel=9, data=[42, 80]),
   midi.NoteOnEvent(tick=0, channel=9, data=[44, 95]),
   midi.NoteOffEvent(tick=120, channel=9, data=[44, 80]),
   midi.NoteOnEvent(tick=0, channel=9, data=[36, 95]),
   midi.NoteOffEvent(tick=240, channel=9, data=[36, 80]),
   midi.NoteOnEvent(tick=0, channel=9, data=[42, 95]),
   midi.NoteOffEvent(tick=240, channel=9, data=[42, 80]),
   midi.NoteOnEvent(tick=0, channel=9, data=[38, 95]),
   midi.NoteOnEvent(tick=0, channel=9, data=[36, 95]),
   midi.NoteOffEvent(tick=240, channel=9, data=[38, 80]),
   midi.NoteOffEvent(tick=0, channel=9, data=[36, 80]),
   midi.NoteOnEvent(tick=0, channel=9, data=[42, 95]),
   midi.NoteOffEvent(tick=240, channel=9, data=[42, 80]),
   midi.NoteOnEvent(tick=0, channel=9, data=[36, 95]),
   midi.NoteOffEvent(tick=240, channel=9, data=[36, 80]),
   midi.NoteOnEvent(tick=0, channel=9, data=[42, 95]),
   midi.NoteOffEvent(tick=240, channel=9, data=[42, 80]),
   midi.NoteOnEvent(tick=0, channel=9, data=[38, 95]),
   midi.NoteOnEvent(tick=0, channel=9, data=[36, 95]),
   midi.NoteOffEvent(tick=240, channel=9, data=[38, 80]),
   midi.NoteOffEvent(tick=0, channel=9, data=[36, 80]),
   midi.NoteOnEvent(tick=0, channel=9, data=[42, 95]),
   midi.NoteOffEvent(tick=240, channel=9, data=[42, 80]),
   midi.NoteOnEvent(tick=0, channel=9, data=[36, 95]),
   midi.NoteOffEvent(tick=240, channel=9, data=[36, 80]),
   midi.NoteOnEvent(tick=0, channel=9, data=[42, 95]),
   midi.NoteOffEvent(tick=240, channel=9, data=[42, 80]),
   midi.NoteOnEvent(tick=0, channel=9, data=[38, 95]),
   midi.NoteOnEvent(tick=0, channel=9, data=[36, 95]),
   midi.NoteOffEvent(tick=240, channel=9, data=[38, 80]),
   midi.NoteOffEvent(tick=0, channel=9, data=[36, 80]),
   midi.NoteOnEvent(tick=0, channel=9, data=[42, 95]),
   midi.NoteOffEvent(tick=240, channel=9, data=[42, 80]),
   midi.NoteOnEvent(tick=0, channel=9, data=[49, 95]),
   midi.NoteOnEvent(tick=0, channel=9, data=[36, 95]),
   midi.NoteOffEvent(tick=240, channel=9, data=[49, 80]),
   midi.NoteOffEvent(tick=0, channel=9, data=[36, 80]),
   midi.NoteOnEvent(tick=0, channel=9, data=[42, 95]),
   midi.NoteOffEvent(tick=240, channel=9, data=[42, 80]),
   midi.NoteOnEvent(tick=0, channel=9, data=[38, 95]),
   midi.NoteOnEvent(tick=0, channel=9, data=[36, 95]),
   midi.NoteOffEvent(tick=240, channel=9, data=[38, 80]),
   midi.NoteOffEvent(tick=0, channel=9, data=[36, 80]),
   midi.NoteOnEvent(tick=0, channel=9, data=[42, 95]),
   midi.NoteOffEvent(tick=240, channel=9, data=[42, 80]),
   midi.NoteOnEvent(tick=0, channel=9, data=[36, 95]),
   midi.NoteOffEvent(tick=240, channel=9, data=[36, 80]),
   midi.NoteOnEvent(tick=0, channel=9, data=[42, 95]),
   midi.NoteOffEvent(tick=240, channel=9, data=[42, 80]),
   midi.NoteOnEvent(tick=0, channel=9, data=[38, 95]),
   midi.NoteOnEvent(tick=0, channel=9, data=[36, 95]),
   midi.NoteOffEvent(tick=240, channel=9, data=[38, 80]),
   midi.NoteOffEvent(tick=0, channel=9, data=[36, 80]),
   midi.NoteOnEvent(tick=0, channel=9, data=[42, 95]),
   midi.NoteOffEvent(tick=240, channel=9, data=[42, 80]),
   midi.NoteOnEvent(tick=0, channel=9, data=[36, 95]),
   midi.NoteOffEvent(tick=240, channel=9, data=[36, 80]),
   midi.NoteOnEvent(tick=0, channel=9, data=[42, 95]),
   midi.NoteOffEvent(tick=240, channel=9, data=[42, 80]),
   midi.NoteOnEvent(tick=0, channel=9, data=[38, 95]),
   midi.NoteOnEvent(tick=0, channel=9, data=[36, 95]),
   midi.NoteOffEvent(tick=240, channel=9, data=[38, 80]),
   midi.NoteOffEvent(tick=0, channel=9, data=[36, 80]),
   midi.NoteOnEvent(tick=0, channel=9, data=[42, 95]),
   midi.NoteOffEvent(tick=240, channel=9, data=[42, 80]),
   midi.NoteOnEvent(tick=0, channel=9, data=[36, 95]),
   midi.NoteOffEvent(tick=240, channel=9, data=[36, 80]),
   midi.NoteOnEvent(tick=0, channel=9, data=[42, 95]),
   midi.NoteOffEvent(tick=240, channel=9, data=[42, 80]),
   midi.NoteOnEvent(tick=0, channel=9, data=[38, 95]),
   midi.NoteOnEvent(tick=0, channel=9, data=[36, 95]),
   midi.NoteOffEvent(tick=240, channel=9, data=[38, 80]),
   midi.NoteOffEvent(tick=0, channel=9, data=[36, 80]),
   midi.NoteOnEvent(tick=0, channel=9, data=[42, 95]),
   midi.NoteOffEvent(tick=240, channel=9, data=[42, 80]),
   midi.NoteOnEvent(tick=0, channel=9, data=[36, 95]),
   midi.NoteOffEvent(tick=240, channel=9, data=[36, 80]),
   midi.NoteOnEvent(tick=0, channel=9, data=[42, 95]),
   midi.NoteOffEvent(tick=240, channel=9, data=[42, 80]),
   midi.NoteOnEvent(tick=0, channel=9, data=[38, 95]),
   midi.NoteOnEvent(tick=0, channel=9, data=[36, 95]),
   midi.NoteOffEvent(tick=240, channel=9, data=[38, 80]),
   midi.NoteOffEvent(tick=0, channel=9, data=[36, 80]),
   midi.NoteOnEvent(tick=0, channel=9, data=[42, 95]),
   midi.NoteOffEvent(tick=240, channel=9, data=[42, 80]),
   midi.NoteOnEvent(tick=0, channel=9, data=[36, 95]),
   midi.NoteOffEvent(tick=240, channel=9, data=[36, 80]),
   midi.NoteOnEvent(tick=0, channel=9, data=[42, 95]),
   midi.NoteOffEvent(tick=240, channel=9, data=[42, 80]),
   midi.NoteOnEvent(tick=0, channel=9, data=[38, 95]),
   midi.NoteOnEvent(tick=0, channel=9, data=[36, 95]),
   midi.NoteOffEvent(tick=240, channel=9, data=[38, 80]),
   midi.NoteOffEvent(tick=0, channel=9, data=[36, 80]),
   midi.NoteOnEvent(tick=0, channel=9, data=[42, 95]),
   midi.NoteOffEvent(tick=240, channel=9, data=[42, 80]),
   midi.NoteOnEvent(tick=0, channel=9, data=[36, 95]),
   midi.NoteOffEvent(tick=240, channel=9, data=[36, 80]),
   midi.NoteOnEvent(tick=0, channel=9, data=[42, 95]),
   midi.NoteOffEvent(tick=240, channel=9, data=[42, 80]),
   midi.NoteOnEvent(tick=0, channel=9, data=[38, 95]),
   midi.NoteOnEvent(tick=0, channel=9, data=[36, 95]),
   midi.NoteOffEvent(tick=240, channel=9, data=[38, 80]),
   midi.NoteOffEvent(tick=0, channel=9, data=[36, 80]),
   midi.NoteOnEvent(tick=0, channel=9, data=[42, 95]),
   midi.NoteOffEvent(tick=240, channel=9, data=[42, 80]),
   midi.NoteOnEvent(tick=0, channel=9, data=[36, 95]),
   midi.NoteOffEvent(tick=240, channel=9, data=[36, 80]),
   midi.NoteOnEvent(tick=0, channel=9, data=[42, 95]),
   midi.NoteOffEvent(tick=240, channel=9, data=[42, 80]),
   midi.NoteOnEvent(tick=0, channel=9, data=[38, 95]),
   midi.NoteOnEvent(tick=0, channel=9, data=[36, 95]),
   midi.NoteOffEvent(tick=240, channel=9, data=[38, 80]),
   midi.NoteOffEvent(tick=0, channel=9, data=[36, 80]),
   midi.NoteOnEvent(tick=0, channel=9, data=[42, 95]),
   midi.NoteOffEvent(tick=240, channel=9, data=[42, 80]),
   midi.NoteOnEvent(tick=0, channel=9, data=[36, 95]),
   midi.NoteOffEvent(tick=240, channel=9, data=[36, 80]),
   midi.NoteOnEvent(tick=0, channel=9, data=[42, 95]),
   midi.NoteOffEvent(tick=240, channel=9, data=[42, 80]),
   midi.NoteOnEvent(tick=0, channel=9, data=[38, 95]),
   midi.NoteOnEvent(tick=0, channel=9, data=[36, 95]),
   midi.NoteOffEvent(tick=240, channel=9, data=[38, 80]),
   midi.NoteOffEvent(tick=0, channel=9, data=[36, 80]),
   midi.NoteOnEvent(tick=0, channel=9, data=[42, 95]),
   midi.NoteOffEvent(tick=240, channel=9, data=[42, 80]),
   midi.NoteOnEvent(tick=0, channel=9, data=[36, 95]),
   midi.NoteOffEvent(tick=240, channel=9, data=[36, 80]),
   midi.NoteOnEvent(tick=0, channel=9, data=[42, 95]),
   midi.NoteOffEvent(tick=240, channel=9, data=[42, 80]),
   midi.NoteOnEvent(tick=0, channel=9, data=[38, 95]),
   midi.NoteOnEvent(tick=0, channel=9, data=[36, 95]),
   midi.NoteOffEvent(tick=240, channel=9, data=[38, 80]),
   midi.NoteOffEvent(tick=0, channel=9, data=[36, 80]),
   midi.NoteOnEvent(tick=0, channel=9, data=[42, 95]),
   midi.NoteOffEvent(tick=240, channel=9, data=[42, 80]),
   midi.NoteOnEvent(tick=0, channel=9, data=[36, 95]),
   midi.NoteOffEvent(tick=240, channel=9, data=[36, 80]),
   midi.NoteOnEvent(tick=0, channel=9, data=[42, 95]),
   midi.NoteOffEvent(tick=240, channel=9, data=[42, 80]),
   midi.NoteOnEvent(tick=0, channel=9, data=[38, 95]),
   midi.NoteOnEvent(tick=0, channel=9, data=[36, 95]),
   midi.NoteOffEvent(tick=240, channel=9, data=[38, 80]),
   midi.NoteOffEvent(tick=0, channel=9, data=[36, 80]),
   midi.NoteOnEvent(tick=0, channel=9, data=[42, 95]),
   midi.NoteOffEvent(tick=240, channel=9, data=[42, 80]),
   midi.NoteOnEvent(tick=0, channel=9, data=[36, 95]),
   midi.NoteOffEvent(tick=240, channel=9, data=[36, 80]),
   midi.NoteOnEvent(tick=0, channel=9, data=[42, 95]),
   midi.NoteOffEvent(tick=240, channel=9, data=[42, 80]),
   midi.NoteOnEvent(tick=0, channel=9, data=[38, 95]),
   midi.NoteOnEvent(tick=0, channel=9, data=[36, 95]),
   midi.NoteOffEvent(tick=240, channel=9, data=[38, 80]),
   midi.NoteOffEvent(tick=0, channel=9, data=[36, 80]),
   midi.NoteOnEvent(tick=0, channel=9, data=[42, 95]),
   midi.NoteOffEvent(tick=240, channel=9, data=[42, 80]),
   midi.NoteOnEvent(tick=0, channel=9, data=[36, 95]),
   midi.NoteOffEvent(tick=240, channel=9, data=[36, 80]),
   midi.NoteOnEvent(tick=0, channel=9, data=[42, 95]),
   midi.NoteOffEvent(tick=240, channel=9, data=[42, 80]),
   midi.NoteOnEvent(tick=0, channel=9, data=[38, 95]),
   midi.NoteOnEvent(tick=0, channel=9, data=[36, 95]),
   midi.NoteOffEvent(tick=240, channel=9, data=[38, 80]),
   midi.NoteOffEvent(tick=0, channel=9, data=[36, 80]),
   midi.NoteOnEvent(tick=0, channel=9, data=[42, 95]),
   midi.NoteOffEvent(tick=240, channel=9, data=[42, 80]),
   midi.NoteOnEvent(tick=0, channel=9, data=[36, 95]),
   midi.NoteOffEvent(tick=240, channel=9, data=[36, 80]),
   midi.NoteOnEvent(tick=0, channel=9, data=[42, 95]),
   midi.NoteOffEvent(tick=240, channel=9, data=[42, 80]),
   midi.NoteOnEvent(tick=0, channel=9, data=[38, 95]),
   midi.NoteOnEvent(tick=0, channel=9, data=[36, 95]),
   midi.NoteOffEvent(tick=240, channel=9, data=[38, 80]),
   midi.NoteOffEvent(tick=0, channel=9, data=[36, 80]),
   midi.NoteOnEvent(tick=0, channel=9, data=[42, 95]),
   midi.NoteOffEvent(tick=240, channel=9, data=[42, 80]),
   midi.NoteOnEvent(tick=0, channel=9, data=[36, 95]),
   midi.NoteOffEvent(tick=240, channel=9, data=[36, 80]),
   midi.NoteOnEvent(tick=0, channel=9, data=[42, 95]),
   midi.NoteOffEvent(tick=240, channel=9, data=[42, 80]),
   midi.NoteOnEvent(tick=0, channel=9, data=[38, 95]),
   midi.NoteOnEvent(tick=0, channel=9, data=[36, 95]),
   midi.NoteOffEvent(tick=240, channel=9, data=[38, 80]),
   midi.NoteOffEvent(tick=0, channel=9, data=[36, 80]),
   midi.NoteOnEvent(tick=0, channel=9, data=[42, 95]),
   midi.NoteOffEvent(tick=240, channel=9, data=[42, 80]),
   midi.NoteOnEvent(tick=0, channel=9, data=[36, 95]),
   midi.NoteOffEvent(tick=240, channel=9, data=[36, 80]),
   midi.NoteOnEvent(tick=0, channel=9, data=[42, 95]),
   midi.NoteOffEvent(tick=240, channel=9, data=[42, 80]),
   midi.NoteOnEvent(tick=0, channel=9, data=[38, 95]),
   midi.NoteOnEvent(tick=0, channel=9, data=[36, 95]),
   midi.NoteOffEvent(tick=240, channel=9, data=[38, 80]),
   midi.NoteOffEvent(tick=0, channel=9, data=[36, 80]),
   midi.NoteOnEvent(tick=0, channel=9, data=[42, 95]),
   midi.NoteOffEvent(tick=240, channel=9, data=[42, 80]),
   midi.NoteOnEvent(tick=0, channel=9, data=[49, 95]),
   midi.NoteOffEvent(tick=1920, channel=9, data=[49, 80]),
   midi.NoteOnEvent(tick=1920, channel=9, data=[45, 95]),
   midi.NoteOnEvent(tick=0, channel=9, data=[36, 95]),
   midi.NoteOffEvent(tick=240, channel=9, data=[45, 80]),
   midi.NoteOffEvent(tick=0, channel=9, data=[36, 80]),
   midi.NoteOnEvent(tick=0, channel=9, data=[45, 95]),
   midi.NoteOnEvent(tick=0, channel=9, data=[36, 95]),
   midi.NoteOffEvent(tick=240, channel=9, data=[45, 80]),
   midi.NoteOffEvent(tick=0, channel=9, data=[36, 80]),
   midi.NoteOnEvent(tick=0, channel=9, data=[42, 95]),
   midi.NoteOffEvent(tick=120, channel=9, data=[42, 80]),
   midi.NoteOnEvent(tick=0, channel=9, data=[42, 95]),
   midi.NoteOffEvent(tick=120, channel=9, data=[42, 80]),
   midi.NoteOnEvent(tick=0, channel=9, data=[45, 95]),
   midi.NoteOnEvent(tick=0, channel=9, data=[36, 95]),
   midi.NoteOffEvent(tick=240, channel=9, data=[45, 80]),
   midi.NoteOffEvent(tick=0, channel=9, data=[36, 80]),
   midi.NoteOnEvent(tick=0, channel=9, data=[45, 95]),
   midi.NoteOnEvent(tick=0, channel=9, data=[36, 95]),
   midi.NoteOffEvent(tick=240, channel=9, data=[45, 80]),
   midi.NoteOffEvent(tick=0, channel=9, data=[36, 80]),
   midi.NoteOnEvent(tick=0, channel=9, data=[42, 95]),
   midi.NoteOffEvent(tick=120, channel=9, data=[42, 80]),
   midi.NoteOnEvent(tick=0, channel=9, data=[42, 95]),
   midi.NoteOffEvent(tick=120, channel=9, data=[42, 80]),
   midi.NoteOnEvent(tick=0, channel=9, data=[42, 95]),
   midi.NoteOffEvent(tick=120, channel=9, data=[42, 80]),
   midi.NoteOnEvent(tick=0, channel=9, data=[42, 95]),
   midi.NoteOffEvent(tick=120, channel=9, data=[42, 80]),
   midi.NoteOnEvent(tick=0, channel=9, data=[42, 95]),
   midi.NoteOffEvent(tick=120, channel=9, data=[42, 80]),
   midi.NoteOnEvent(tick=0, channel=9, data=[42, 95]),
   midi.NoteOffEvent(tick=120, channel=9, data=[42, 80]),
   midi.NoteOnEvent(tick=0, channel=9, data=[45, 95]),
   midi.NoteOnEvent(tick=0, channel=9, data=[36, 95]),
   midi.NoteOffEvent(tick=240, channel=9, data=[45, 80]),
   midi.NoteOffEvent(tick=0, channel=9, data=[36, 80]),
   midi.NoteOnEvent(tick=0, channel=9, data=[45, 95]),
   midi.NoteOnEvent(tick=0, channel=9, data=[36, 95]),
   midi.NoteOffEvent(tick=240, channel=9, data=[45, 80]),
   midi.NoteOffEvent(tick=0, channel=9, data=[36, 80]),
   midi.NoteOnEvent(tick=0, channel=9, data=[42, 95]),
   midi.NoteOffEvent(tick=120, channel=9, data=[42, 80]),
   midi.NoteOnEvent(tick=0, channel=9, data=[42, 95]),
   midi.NoteOffEvent(tick=120, channel=9, data=[42, 80]),
   midi.NoteOnEvent(tick=0, channel=9, data=[45, 95]),
   midi.NoteOnEvent(tick=0, channel=9, data=[36, 95]),
   midi.NoteOffEvent(tick=240, channel=9, data=[45, 80]),
   midi.NoteOffEvent(tick=0, channel=9, data=[36, 80]),
   midi.NoteOnEvent(tick=0, channel=9, data=[45, 95]),
   midi.NoteOnEvent(tick=0, channel=9, data=[36, 95]),
   midi.NoteOffEvent(tick=960, channel=9, data=[45, 80]),
   midi.NoteOffEvent(tick=0, channel=9, data=[36, 80]),
   midi.NoteOnEvent(tick=0, channel=9, data=[49, 95]),
   midi.NoteOnEvent(tick=0, channel=9, data=[36, 95]),
   midi.NoteOffEvent(tick=240, channel=9, data=[49, 80]),
   midi.NoteOffEvent(tick=0, channel=9, data=[36, 80]),
   midi.NoteOnEvent(tick=0, channel=9, data=[42, 95]),
   midi.NoteOffEvent(tick=240, channel=9, data=[42, 80]),
   midi.NoteOnEvent(tick=0, channel=9, data=[38, 95]),
   midi.NoteOnEvent(tick=0, channel=9, data=[36, 95]),
   midi.NoteOffEvent(tick=240, channel=9, data=[38, 80]),
   midi.NoteOffEvent(tick=0, channel=9, data=[36, 80]),
   midi.NoteOnEvent(tick=0, channel=9, data=[42, 95]),
   midi.NoteOffEvent(tick=120, channel=9, data=[42, 80]),
   midi.NoteOnEvent(tick=0, channel=9, data=[44, 95]),
   midi.NoteOffEvent(tick=120, channel=9, data=[44, 80]),
   midi.NoteOnEvent(tick=0, channel=9, data=[36, 95]),
   midi.NoteOffEvent(tick=240, channel=9, data=[36, 80]),
   midi.NoteOnEvent(tick=0, channel=9, data=[42, 95]),
   midi.NoteOffEvent(tick=240, channel=9, data=[42, 80]),
   midi.NoteOnEvent(tick=0, channel=9, data=[38, 95]),
   midi.NoteOnEvent(tick=0, channel=9, data=[36, 95]),
   midi.NoteOffEvent(tick=240, channel=9, data=[38, 80]),
   midi.NoteOffEvent(tick=0, channel=9, data=[36, 80]),
   midi.NoteOnEvent(tick=0, channel=9, data=[42, 95]),
   midi.NoteOffEvent(tick=240, channel=9, data=[42, 80]),
   midi.NoteOnEvent(tick=0, channel=9, data=[36, 95]),
   midi.NoteOffEvent(tick=240, channel=9, data=[36, 80]),
   midi.NoteOnEvent(tick=0, channel=9, data=[42, 95]),
   midi.NoteOffEvent(tick=240, channel=9, data=[42, 80]),
   midi.NoteOnEvent(tick=0, channel=9, data=[38, 95]),
   midi.NoteOnEvent(tick=0, channel=9, data=[36, 95]),
   midi.NoteOffEvent(tick=240, channel=9, data=[38, 80]),
   midi.NoteOffEvent(tick=0, channel=9, data=[36, 80]),
   midi.NoteOnEvent(tick=0, channel=9, data=[42, 95]),
   midi.NoteOffEvent(tick=240, channel=9, data=[42, 80]),
   midi.NoteOnEvent(tick=0, channel=9, data=[36, 95]),
   midi.NoteOffEvent(tick=240, channel=9, data=[36, 80]),
   midi.NoteOnEvent(tick=0, channel=9, data=[42, 95]),
   midi.NoteOffEvent(tick=240, channel=9, data=[42, 80]),
   midi.NoteOnEvent(tick=0, channel=9, data=[38, 95]),
   midi.NoteOnEvent(tick=0, channel=9, data=[36, 95]),
   midi.NoteOffEvent(tick=240, channel=9, data=[38, 80]),
   midi.NoteOffEvent(tick=0, channel=9, data=[36, 80]),
   midi.NoteOnEvent(tick=0, channel=9, data=[42, 95]),
   midi.NoteOffEvent(tick=240, channel=9, data=[42, 80]),
   midi.NoteOnEvent(tick=0, channel=9, data=[36, 95]),
   midi.NoteOffEvent(tick=240, channel=9, data=[36, 80]),
   midi.NoteOnEvent(tick=0, channel=9, data=[42, 95]),
   midi.NoteOffEvent(tick=240, channel=9, data=[42, 80]),
   midi.NoteOnEvent(tick=0, channel=9, data=[38, 95]),
   midi.NoteOnEvent(tick=0, channel=9, data=[36, 95]),
   midi.NoteOffEvent(tick=240, channel=9, data=[38, 80]),
   midi.NoteOffEvent(tick=0, channel=9, data=[36, 80]),
   midi.NoteOnEvent(tick=0, channel=9, data=[42, 95]),
   midi.NoteOffEvent(tick=120, channel=9, data=[42, 80]),
   midi.NoteOnEvent(tick=0, channel=9, data=[44, 95]),
   midi.NoteOffEvent(tick=120, channel=9, data=[44, 80]),
   midi.NoteOnEvent(tick=0, channel=9, data=[36, 95]),
   midi.NoteOffEvent(tick=240, channel=9, data=[36, 80]),
   midi.NoteOnEvent(tick=0, channel=9, data=[42, 95]),
   midi.NoteOffEvent(tick=240, channel=9, data=[42, 80]),
   midi.NoteOnEvent(tick=0, channel=9, data=[38, 95]),
   midi.NoteOnEvent(tick=0, channel=9, data=[36, 95]),
   midi.NoteOffEvent(tick=240, channel=9, data=[38, 80]),
   midi.NoteOffEvent(tick=0, channel=9, data=[36, 80]),
   midi.NoteOnEvent(tick=0, channel=9, data=[42, 95]),
   midi.NoteOffEvent(tick=240, channel=9, data=[42, 80]),
   midi.NoteOnEvent(tick=0, channel=9, data=[36, 95]),
   midi.NoteOffEvent(tick=240, channel=9, data=[36, 80]),
   midi.NoteOnEvent(tick=0, channel=9, data=[42, 95]),
   midi.NoteOffEvent(tick=240, channel=9, data=[42, 80]),
   midi.NoteOnEvent(tick=0, channel=9, data=[38, 95]),
   midi.NoteOnEvent(tick=0, channel=9, data=[36, 95]),
   midi.NoteOffEvent(tick=240, channel=9, data=[38, 80]),
   midi.NoteOffEvent(tick=0, channel=9, data=[36, 80]),
   midi.NoteOnEvent(tick=0, channel=9, data=[42, 95]),
   midi.NoteOffEvent(tick=240, channel=9, data=[42, 80]),
   midi.NoteOnEvent(tick=0, channel=9, data=[36, 95]),
   midi.NoteOffEvent(tick=240, channel=9, data=[36, 80]),
   midi.NoteOnEvent(tick=0, channel=9, data=[42, 95]),
   midi.NoteOffEvent(tick=240, channel=9, data=[42, 80]),
   midi.NoteOnEvent(tick=0, channel=9, data=[38, 95]),
   midi.NoteOnEvent(tick=0, channel=9, data=[36, 95]),
   midi.NoteOffEvent(tick=240, channel=9, data=[38, 80]),
   midi.NoteOffEvent(tick=0, channel=9, data=[36, 80]),
   midi.NoteOnEvent(tick=0, channel=9, data=[42, 95]),
   midi.NoteOffEvent(tick=240, channel=9, data=[42, 80]),
   midi.NoteOnEvent(tick=0, channel=9, data=[49, 95]),
   midi.NoteOnEvent(tick=0, channel=9, data=[36, 95]),
   midi.NoteOffEvent(tick=240, channel=9, data=[49, 80]),
   midi.NoteOffEvent(tick=0, channel=9, data=[36, 80]),
   midi.NoteOnEvent(tick=0, channel=9, data=[42, 95]),
   midi.NoteOffEvent(tick=240, channel=9, data=[42, 80]),
   midi.NoteOnEvent(tick=0, channel=9, data=[38, 95]),
   midi.NoteOnEvent(tick=0, channel=9, data=[36, 95]),
   midi.NoteOffEvent(tick=240, channel=9, data=[38, 80]),
   midi.NoteOffEvent(tick=0, channel=9, data=[36, 80]),
   midi.NoteOnEvent(tick=0, channel=9, data=[42, 95]),
   midi.NoteOffEvent(tick=120, channel=9, data=[42, 80]),
   midi.NoteOnEvent(tick=0, channel=9, data=[44, 95]),
   midi.NoteOffEvent(tick=120, channel=9, data=[44, 80]),
   midi.NoteOnEvent(tick=0, channel=9, data=[36, 95]),
   midi.NoteOffEvent(tick=240, channel=9, data=[36, 80]),
   midi.NoteOnEvent(tick=0, channel=9, data=[42, 95]),
   midi.NoteOffEvent(tick=240, channel=9, data=[42, 80]),
   midi.NoteOnEvent(tick=0, channel=9, data=[38, 95]),
   midi.NoteOnEvent(tick=0, channel=9, data=[36, 95]),
   midi.NoteOffEvent(tick=240, channel=9, data=[38, 80]),
   midi.NoteOffEvent(tick=0, channel=9, data=[36, 80]),
   midi.NoteOnEvent(tick=0, channel=9, data=[42, 95]),
   midi.NoteOffEvent(tick=240, channel=9, data=[42, 80]),
   midi.NoteOnEvent(tick=0, channel=9, data=[36, 95]),
   midi.NoteOffEvent(tick=240, channel=9, data=[36, 80]),
   midi.NoteOnEvent(tick=0, channel=9, data=[42, 95]),
   midi.NoteOffEvent(tick=240, channel=9, data=[42, 80]),
   midi.NoteOnEvent(tick=0, channel=9, data=[38, 95]),
   midi.NoteOnEvent(tick=0, channel=9, data=[36, 95]),
   midi.NoteOffEvent(tick=240, channel=9, data=[38, 80]),
   midi.NoteOffEvent(tick=0, channel=9, data=[36, 80]),
   midi.NoteOnEvent(tick=0, channel=9, data=[42, 95]),
   midi.NoteOffEvent(tick=240, channel=9, data=[42, 80]),
   midi.NoteOnEvent(tick=0, channel=9, data=[36, 95]),
   midi.NoteOffEvent(tick=240, channel=9, data=[36, 80]),
   midi.NoteOnEvent(tick=0, channel=9, data=[42, 95]),
   midi.NoteOffEvent(tick=240, channel=9, data=[42, 80]),
   midi.NoteOnEvent(tick=0, channel=9, data=[38, 95]),
   midi.NoteOnEvent(tick=0, channel=9, data=[36, 95]),
   midi.NoteOffEvent(tick=240, channel=9, data=[38, 80]),
   midi.NoteOffEvent(tick=0, channel=9, data=[36, 80]),
   midi.NoteOnEvent(tick=0, channel=9, data=[42, 95]),
   midi.NoteOffEvent(tick=240, channel=9, data=[42, 80]),
   midi.NoteOnEvent(tick=0, channel=9, data=[36, 95]),
   midi.NoteOffEvent(tick=240, channel=9, data=[36, 80]),
   midi.NoteOnEvent(tick=0, channel=9, data=[42, 95]),
   midi.NoteOffEvent(tick=240, channel=9, data=[42, 80]),
   midi.NoteOnEvent(tick=0, channel=9, data=[38, 95]),
   midi.NoteOnEvent(tick=0, channel=9, data=[36, 95]),
   midi.NoteOffEvent(tick=240, channel=9, data=[38, 80]),
   midi.NoteOffEvent(tick=0, channel=9, data=[36, 80]),
   midi.NoteOnEvent(tick=0, channel=9, data=[42, 95]),
   midi.NoteOffEvent(tick=120, channel=9, data=[42, 80]),
   midi.NoteOnEvent(tick=0, channel=9, data=[44, 95]),
   midi.NoteOffEvent(tick=120, channel=9, data=[44, 80]),
   midi.NoteOnEvent(tick=0, channel=9, data=[36, 95]),
   midi.NoteOffEvent(tick=240, channel=9, data=[36, 80]),
   midi.NoteOnEvent(tick=0, channel=9, data=[42, 95]),
   midi.NoteOffEvent(tick=240, channel=9, data=[42, 80]),
   midi.NoteOnEvent(tick=0, channel=9, data=[38, 95]),
   midi.NoteOnEvent(tick=0, channel=9, data=[36, 95]),
   midi.NoteOffEvent(tick=240, channel=9, data=[38, 80]),
   midi.NoteOffEvent(tick=0, channel=9, data=[36, 80]),
   midi.NoteOnEvent(tick=0, channel=9, data=[42, 95]),
   midi.NoteOffEvent(tick=240, channel=9, data=[42, 80]),
   midi.NoteOnEvent(tick=0, channel=9, data=[36, 95]),
   midi.NoteOffEvent(tick=240, channel=9, data=[36, 80]),
   midi.NoteOnEvent(tick=0, channel=9, data=[42, 95]),
   midi.NoteOffEvent(tick=240, channel=9, data=[42, 80]),
   midi.NoteOnEvent(tick=0, channel=9, data=[38, 95]),
   midi.NoteOnEvent(tick=0, channel=9, data=[36, 95]),
   midi.NoteOffEvent(tick=240, channel=9, data=[38, 80]),
   midi.NoteOffEvent(tick=0, channel=9, data=[36, 80]),
   midi.NoteOnEvent(tick=0, channel=9, data=[42, 95]),
   midi.NoteOffEvent(tick=240, channel=9, data=[42, 80]),
   midi.NoteOnEvent(tick=0, channel=9, data=[36, 95]),
   midi.NoteOffEvent(tick=240, channel=9, data=[36, 80]),
   midi.NoteOnEvent(tick=0, channel=9, data=[42, 95]),
   midi.NoteOffEvent(tick=240, channel=9, data=[42, 80]),
   midi.NoteOnEvent(tick=0, channel=9, data=[38, 95]),
   midi.NoteOnEvent(tick=0, channel=9, data=[36, 95]),
   midi.NoteOffEvent(tick=240, channel=9, data=[38, 80]),
   midi.NoteOffEvent(tick=0, channel=9, data=[36, 80]),
   midi.NoteOnEvent(tick=0, channel=9, data=[42, 95]),
   midi.NoteOffEvent(tick=240, channel=9, data=[42, 80]),
   midi.NoteOnEvent(tick=0, channel=9, data=[49, 95]),
   midi.NoteOnEvent(tick=0, channel=9, data=[36, 95]),
   midi.NoteOffEvent(tick=240, channel=9, data=[49, 80]),
   midi.NoteOffEvent(tick=0, channel=9, data=[36, 80]),
   midi.NoteOnEvent(tick=0, channel=9, data=[42, 95]),
   midi.NoteOffEvent(tick=240, channel=9, data=[42, 80]),
   midi.NoteOnEvent(tick=0, channel=9, data=[38, 95]),
   midi.NoteOnEvent(tick=0, channel=9, data=[36, 95]),
   midi.NoteOffEvent(tick=240, channel=9, data=[38, 80]),
   midi.NoteOffEvent(tick=0, channel=9, data=[36, 80]),
   midi.NoteOnEvent(tick=0, channel=9, data=[42, 95]),
   midi.NoteOffEvent(tick=120, channel=9, data=[42, 80]),
   midi.NoteOnEvent(tick=0, channel=9, data=[44, 95]),
   midi.NoteOffEvent(tick=120, channel=9, data=[44, 80]),
   midi.NoteOnEvent(tick=0, channel=9, data=[36, 95]),
   midi.NoteOffEvent(tick=240, channel=9, data=[36, 80]),
   midi.NoteOnEvent(tick=0, channel=9, data=[42, 95]),
   midi.NoteOffEvent(tick=240, channel=9, data=[42, 80]),
   midi.NoteOnEvent(tick=0, channel=9, data=[38, 95]),
   midi.NoteOnEvent(tick=0, channel=9, data=[36, 95]),
   midi.NoteOffEvent(tick=240, channel=9, data=[38, 80]),
   midi.NoteOffEvent(tick=0, channel=9, data=[36, 80]),
   midi.NoteOnEvent(tick=0, channel=9, data=[42, 95]),
   midi.NoteOffEvent(tick=240, channel=9, data=[42, 80]),
   midi.NoteOnEvent(tick=0, channel=9, data=[36, 95]),
   midi.NoteOffEvent(tick=240, channel=9, data=[36, 80]),
   midi.NoteOnEvent(tick=0, channel=9, data=[42, 95]),
   midi.NoteOffEvent(tick=240, channel=9, data=[42, 80]),
   midi.NoteOnEvent(tick=0, channel=9, data=[38, 95]),
   midi.NoteOnEvent(tick=0, channel=9, data=[36, 95]),
   midi.NoteOffEvent(tick=240, channel=9, data=[38, 80]),
   midi.NoteOffEvent(tick=0, channel=9, data=[36, 80]),
   midi.NoteOnEvent(tick=0, channel=9, data=[42, 95]),
   midi.NoteOffEvent(tick=240, channel=9, data=[42, 80]),
   midi.NoteOnEvent(tick=0, channel=9, data=[36, 95]),
   midi.NoteOffEvent(tick=240, channel=9, data=[36, 80]),
   midi.NoteOnEvent(tick=0, channel=9, data=[42, 95]),
   midi.NoteOffEvent(tick=240, channel=9, data=[42, 80]),
   midi.NoteOnEvent(tick=0, channel=9, data=[38, 95]),
   midi.NoteOnEvent(tick=0, channel=9, data=[36, 95]),
   midi.NoteOffEvent(tick=240, channel=9, data=[38, 80]),
   midi.NoteOffEvent(tick=0, channel=9, data=[36, 80]),
   midi.NoteOnEvent(tick=0, channel=9, data=[42, 95]),
   midi.NoteOffEvent(tick=240, channel=9, data=[42, 80]),
   midi.NoteOnEvent(tick=0, channel=9, data=[36, 95]),
   midi.NoteOffEvent(tick=240, channel=9, data=[36, 80]),
   midi.NoteOnEvent(tick=0, channel=9, data=[42, 95]),
   midi.NoteOffEvent(tick=240, channel=9, data=[42, 80]),
   midi.NoteOnEvent(tick=0, channel=9, data=[38, 95]),
   midi.NoteOnEvent(tick=0, channel=9, data=[36, 95]),
   midi.NoteOffEvent(tick=240, channel=9, data=[38, 80]),
   midi.NoteOffEvent(tick=0, channel=9, data=[36, 80]),
   midi.NoteOnEvent(tick=0, channel=9, data=[42, 95]),
   midi.NoteOffEvent(tick=120, channel=9, data=[42, 80]),
   midi.NoteOnEvent(tick=0, channel=9, data=[44, 95]),
   midi.NoteOffEvent(tick=120, channel=9, data=[44, 80]),
   midi.NoteOnEvent(tick=0, channel=9, data=[36, 95]),
   midi.NoteOffEvent(tick=240, channel=9, data=[36, 80]),
   midi.NoteOnEvent(tick=0, channel=9, data=[42, 95]),
   midi.NoteOffEvent(tick=240, channel=9, data=[42, 80]),
   midi.NoteOnEvent(tick=0, channel=9, data=[38, 95]),
   midi.NoteOnEvent(tick=0, channel=9, data=[36, 95]),
   midi.NoteOffEvent(tick=240, channel=9, data=[38, 80]),
   midi.NoteOffEvent(tick=0, channel=9, data=[36, 80]),
   midi.NoteOnEvent(tick=0, channel=9, data=[42, 95]),
   midi.NoteOffEvent(tick=240, channel=9, data=[42, 80]),
   midi.NoteOnEvent(tick=0, channel=9, data=[36, 95]),
   midi.NoteOffEvent(tick=240, channel=9, data=[36, 80]),
   midi.NoteOnEvent(tick=0, channel=9, data=[42, 95]),
   midi.NoteOffEvent(tick=240, channel=9, data=[42, 80]),
   midi.NoteOnEvent(tick=0, channel=9, data=[38, 95]),
   midi.NoteOnEvent(tick=0, channel=9, data=[36, 95]),
   midi.NoteOffEvent(tick=240, channel=9, data=[38, 80]),
   midi.NoteOffEvent(tick=0, channel=9, data=[36, 80]),
   midi.NoteOnEvent(tick=0, channel=9, data=[42, 95]),
   midi.NoteOffEvent(tick=240, channel=9, data=[42, 80]),
   midi.NoteOnEvent(tick=0, channel=9, data=[36, 95]),
   midi.NoteOffEvent(tick=240, channel=9, data=[36, 80]),
   midi.NoteOnEvent(tick=0, channel=9, data=[42, 95]),
   midi.NoteOffEvent(tick=240, channel=9, data=[42, 80]),
   midi.NoteOnEvent(tick=0, channel=9, data=[38, 95]),
   midi.NoteOnEvent(tick=0, channel=9, data=[36, 95]),
   midi.NoteOffEvent(tick=240, channel=9, data=[38, 80]),
   midi.NoteOffEvent(tick=0, channel=9, data=[36, 80]),
   midi.NoteOnEvent(tick=0, channel=9, data=[42, 95]),
   midi.NoteOffEvent(tick=240, channel=9, data=[42, 80]),
   midi.NoteOnEvent(tick=0, channel=9, data=[49, 95]),
   midi.NoteOnEvent(tick=0, channel=9, data=[36, 95]),
   midi.NoteOffEvent(tick=240, channel=9, data=[49, 80]),
   midi.NoteOffEvent(tick=0, channel=9, data=[36, 80]),
   midi.NoteOnEvent(tick=0, channel=9, data=[42, 95]),
   midi.NoteOffEvent(tick=240, channel=9, data=[42, 80]),
   midi.NoteOnEvent(tick=0, channel=9, data=[38, 95]),
   midi.NoteOnEvent(tick=0, channel=9, data=[36, 95]),
   midi.NoteOffEvent(tick=240, channel=9, data=[38, 80]),
   midi.NoteOffEvent(tick=0, channel=9, data=[36, 80]),
   midi.NoteOnEvent(tick=0, channel=9, data=[42, 95]),
   midi.NoteOffEvent(tick=120, channel=9, data=[42, 80]),
   midi.NoteOnEvent(tick=0, channel=9, data=[44, 95]),
   midi.NoteOffEvent(tick=120, channel=9, data=[44, 80]),
   midi.NoteOnEvent(tick=0, channel=9, data=[36, 95]),
   midi.NoteOffEvent(tick=240, channel=9, data=[36, 80]),
   midi.NoteOnEvent(tick=0, channel=9, data=[42, 95]),
   midi.NoteOffEvent(tick=240, channel=9, data=[42, 80]),
   midi.NoteOnEvent(tick=0, channel=9, data=[38, 95]),
   midi.NoteOnEvent(tick=0, channel=9, data=[36, 95]),
   midi.NoteOffEvent(tick=240, channel=9, data=[38, 80]),
   midi.NoteOffEvent(tick=0, channel=9, data=[36, 80]),
   midi.NoteOnEvent(tick=0, channel=9, data=[42, 95]),
   midi.NoteOffEvent(tick=240, channel=9, data=[42, 80]),
   midi.NoteOnEvent(tick=0, channel=9, data=[36, 95]),
   midi.NoteOffEvent(tick=240, channel=9, data=[36, 80]),
   midi.NoteOnEvent(tick=0, channel=9, data=[42, 95]),
   midi.NoteOffEvent(tick=240, channel=9, data=[42, 80]),
   midi.NoteOnEvent(tick=0, channel=9, data=[38, 95]),
   midi.NoteOnEvent(tick=0, channel=9, data=[36, 95]),
   midi.NoteOffEvent(tick=240, channel=9, data=[38, 80]),
   midi.NoteOffEvent(tick=0, channel=9, data=[36, 80]),
   midi.NoteOnEvent(tick=0, channel=9, data=[42, 95]),
   midi.NoteOffEvent(tick=240, channel=9, data=[42, 80]),
   midi.NoteOnEvent(tick=0, channel=9, data=[36, 95]),
   midi.NoteOffEvent(tick=240, channel=9, data=[36, 80]),
   midi.NoteOnEvent(tick=0, channel=9, data=[42, 95]),
   midi.NoteOffEvent(tick=240, channel=9, data=[42, 80]),
   midi.NoteOnEvent(tick=0, channel=9, data=[38, 95]),
   midi.NoteOnEvent(tick=0, channel=9, data=[36, 95]),
   midi.NoteOffEvent(tick=240, channel=9, data=[38, 80]),
   midi.NoteOffEvent(tick=0, channel=9, data=[36, 80]),
   midi.NoteOnEvent(tick=0, channel=9, data=[42, 95]),
   midi.NoteOffEvent(tick=240, channel=9, data=[42, 80]),
   midi.NoteOnEvent(tick=0, channel=9, data=[36, 95]),
   midi.NoteOffEvent(tick=240, channel=9, data=[36, 80]),
   midi.NoteOnEvent(tick=0, channel=9, data=[42, 95]),
   midi.NoteOffEvent(tick=240, channel=9, data=[42, 80]),
   midi.NoteOnEvent(tick=0, channel=9, data=[38, 95]),
   midi.NoteOnEvent(tick=0, channel=9, data=[36, 95]),
   midi.NoteOffEvent(tick=240, channel=9, data=[38, 80]),
   midi.NoteOffEvent(tick=0, channel=9, data=[36, 80]),
   midi.NoteOnEvent(tick=0, channel=9, data=[42, 95]),
   midi.NoteOffEvent(tick=120, channel=9, data=[42, 80]),
   midi.NoteOnEvent(tick=0, channel=9, data=[44, 95]),
   midi.NoteOffEvent(tick=120, channel=9, data=[44, 80]),
   midi.NoteOnEvent(tick=0, channel=9, data=[36, 95]),
   midi.NoteOffEvent(tick=240, channel=9, data=[36, 80]),
   midi.NoteOnEvent(tick=0, channel=9, data=[42, 95]),
   midi.NoteOffEvent(tick=240, channel=9, data=[42, 80]),
   midi.NoteOnEvent(tick=0, channel=9, data=[38, 95]),
   midi.NoteOnEvent(tick=0, channel=9, data=[36, 95]),
   midi.NoteOffEvent(tick=240, channel=9, data=[38, 80]),
   midi.NoteOffEvent(tick=0, channel=9, data=[36, 80]),
   midi.NoteOnEvent(tick=0, channel=9, data=[42, 95]),
   midi.NoteOffEvent(tick=240, channel=9, data=[42, 80]),
   midi.NoteOnEvent(tick=0, channel=9, data=[36, 95]),
   midi.NoteOffEvent(tick=240, channel=9, data=[36, 80]),
   midi.NoteOnEvent(tick=0, channel=9, data=[42, 95]),
   midi.NoteOffEvent(tick=240, channel=9, data=[42, 80]),
   midi.NoteOnEvent(tick=0, channel=9, data=[38, 95]),
   midi.NoteOnEvent(tick=0, channel=9, data=[36, 95]),
   midi.NoteOffEvent(tick=240, channel=9, data=[38, 80]),
   midi.NoteOffEvent(tick=0, channel=9, data=[36, 80]),
   midi.NoteOnEvent(tick=0, channel=9, data=[42, 95]),
   midi.NoteOffEvent(tick=240, channel=9, data=[42, 80]),
   midi.NoteOnEvent(tick=0, channel=9, data=[36, 95]),
   midi.NoteOffEvent(tick=240, channel=9, data=[36, 80]),
   midi.NoteOnEvent(tick=0, channel=9, data=[42, 95]),
   midi.NoteOffEvent(tick=240, channel=9, data=[42, 80]),
   midi.NoteOnEvent(tick=0, channel=9, data=[38, 95]),
   midi.NoteOnEvent(tick=0, channel=9, data=[36, 95]),
   midi.NoteOffEvent(tick=240, channel=9, data=[38, 80]),
   midi.NoteOffEvent(tick=0, channel=9, data=[36, 80]),
   midi.NoteOnEvent(tick=0, channel=9, data=[42, 95]),
   midi.NoteOffEvent(tick=240, channel=9, data=[42, 80]),
   midi.NoteOnEvent(tick=1920, channel=9, data=[49, 95]),
   midi.NoteOnEvent(tick=0, channel=9, data=[36, 95]),
   midi.NoteOffEvent(tick=240, channel=9, data=[49, 80]),
   midi.NoteOffEvent(tick=0, channel=9, data=[36, 80]),
   midi.NoteOnEvent(tick=0, channel=9, data=[42, 95]),
   midi.NoteOffEvent(tick=240, channel=9, data=[42, 80]),
   midi.NoteOnEvent(tick=0, channel=9, data=[38, 95]),
   midi.NoteOnEvent(tick=0, channel=9, data=[36, 95]),
   midi.NoteOffEvent(tick=240, channel=9, data=[38, 80]),
   midi.NoteOffEvent(tick=0, channel=9, data=[36, 80]),
   midi.NoteOnEvent(tick=0, channel=9, data=[42, 95]),
   midi.NoteOffEvent(tick=120, channel=9, data=[42, 80]),
   midi.NoteOnEvent(tick=0, channel=9, data=[44, 95]),
   midi.NoteOffEvent(tick=120, channel=9, data=[44, 80]),
   midi.NoteOnEvent(tick=0, channel=9, data=[36, 95]),
   midi.NoteOffEvent(tick=240, channel=9, data=[36, 80]),
   midi.NoteOnEvent(tick=0, channel=9, data=[42, 95]),
   midi.NoteOffEvent(tick=240, channel=9, data=[42, 80]),
   midi.NoteOnEvent(tick=0, channel=9, data=[38, 95]),
   midi.NoteOnEvent(tick=0, channel=9, data=[36, 95]),
   midi.NoteOffEvent(tick=240, channel=9, data=[38, 80]),
   midi.NoteOffEvent(tick=0, channel=9, data=[36, 80]),
   midi.NoteOnEvent(tick=0, channel=9, data=[42, 95]),
   midi.NoteOffEvent(tick=240, channel=9, data=[42, 80]),
   midi.NoteOnEvent(tick=0, channel=9, data=[36, 95]),
   midi.NoteOffEvent(tick=240, channel=9, data=[36, 80]),
   midi.NoteOnEvent(tick=0, channel=9, data=[42, 95]),
   midi.NoteOffEvent(tick=240, channel=9, data=[42, 80]),
   midi.NoteOnEvent(tick=0, channel=9, data=[38, 95]),
   midi.NoteOnEvent(tick=0, channel=9, data=[36, 95]),
   midi.NoteOffEvent(tick=240, channel=9, data=[38, 80]),
   midi.NoteOffEvent(tick=0, channel=9, data=[36, 80]),
   midi.NoteOnEvent(tick=0, channel=9, data=[42, 95]),
   midi.NoteOffEvent(tick=240, channel=9, data=[42, 80]),
   midi.NoteOnEvent(tick=0, channel=9, data=[36, 95]),
   midi.NoteOffEvent(tick=240, channel=9, data=[36, 80]),
   midi.NoteOnEvent(tick=0, channel=9, data=[42, 95]),
   midi.NoteOffEvent(tick=240, channel=9, data=[42, 80]),
   midi.NoteOnEvent(tick=0, channel=9, data=[38, 95]),
   midi.NoteOnEvent(tick=0, channel=9, data=[36, 95]),
   midi.NoteOffEvent(tick=240, channel=9, data=[38, 80]),
   midi.NoteOffEvent(tick=0, channel=9, data=[36, 80]),
   midi.NoteOnEvent(tick=0, channel=9, data=[42, 95]),
   midi.NoteOffEvent(tick=240, channel=9, data=[42, 80]),
   midi.NoteOnEvent(tick=0, channel=9, data=[36, 95]),
   midi.NoteOffEvent(tick=240, channel=9, data=[36, 80]),
   midi.NoteOnEvent(tick=0, channel=9, data=[42, 95]),
   midi.NoteOffEvent(tick=240, channel=9, data=[42, 80]),
   midi.NoteOnEvent(tick=0, channel=9, data=[38, 95]),
   midi.NoteOnEvent(tick=0, channel=9, data=[36, 95]),
   midi.NoteOffEvent(tick=240, channel=9, data=[38, 80]),
   midi.NoteOffEvent(tick=0, channel=9, data=[36, 80]),
   midi.NoteOnEvent(tick=0, channel=9, data=[42, 95]),
   midi.NoteOffEvent(tick=120, channel=9, data=[42, 80]),
   midi.NoteOnEvent(tick=0, channel=9, data=[44, 95]),
   midi.NoteOffEvent(tick=120, channel=9, data=[44, 80]),
   midi.NoteOnEvent(tick=0, channel=9, data=[36, 95]),
   midi.NoteOffEvent(tick=240, channel=9, data=[36, 80]),
   midi.NoteOnEvent(tick=0, channel=9, data=[42, 95]),
   midi.NoteOffEvent(tick=240, channel=9, data=[42, 80]),
   midi.NoteOnEvent(tick=0, channel=9, data=[38, 95]),
   midi.NoteOnEvent(tick=0, channel=9, data=[36, 95]),
   midi.NoteOffEvent(tick=240, channel=9, data=[38, 80]),
   midi.NoteOffEvent(tick=0, channel=9, data=[36, 80]),
   midi.NoteOnEvent(tick=0, channel=9, data=[42, 95]),
   midi.NoteOffEvent(tick=240, channel=9, data=[42, 80]),
   midi.NoteOnEvent(tick=240, channel=9, data=[42, 95]),
   midi.NoteOffEvent(tick=480, channel=9, data=[42, 80]),
   midi.NoteOnEvent(tick=0, channel=9, data=[42, 95]),
   midi.NoteOffEvent(tick=480, channel=9, data=[42, 80]),
   midi.NoteOnEvent(tick=0, channel=9, data=[42, 95]),
   midi.NoteOffEvent(tick=480, channel=9, data=[42, 80]),
   midi.NoteOnEvent(tick=0, channel=9, data=[42, 95]),
   midi.NoteOffEvent(tick=240, channel=9, data=[42, 80]),
   midi.NoteOnEvent(tick=240, channel=9, data=[42, 95]),
   midi.NoteOffEvent(tick=480, channel=9, data=[42, 80]),
   midi.NoteOnEvent(tick=0, channel=9, data=[42, 95]),
   midi.NoteOffEvent(tick=480, channel=9, data=[42, 80]),
   midi.NoteOnEvent(tick=0, channel=9, data=[42, 95]),
   midi.NoteOffEvent(tick=480, channel=9, data=[42, 80]),
   midi.NoteOnEvent(tick=0, channel=9, data=[42, 95]),
   midi.NoteOffEvent(tick=240, channel=9, data=[42, 80]),
   midi.EndOfTrackEvent(tick=0, data=[])]),
 midi.Track(\
  [midi.TrackNameEvent(tick=0, text='Spur 6', data=[83, 112, 117, 114, 32, 54]),
   midi.ControlChangeEvent(tick=0, channel=10, data=[100, 0]),
   midi.ControlChangeEvent(tick=0, channel=10, data=[101, 0]),
   midi.ControlChangeEvent(tick=0, channel=10, data=[6, 12]),
   midi.PitchWheelEvent(tick=0, channel=10, data=[0, 64]),
   midi.ControlChangeEvent(tick=0, channel=10, data=[101, 0]),
   midi.ControlChangeEvent(tick=0, channel=10, data=[100, 1]),
   midi.ControlChangeEvent(tick=0, channel=10, data=[6, 64]),
   midi.ControlChangeEvent(tick=0, channel=10, data=[38, 0]),
   midi.ControlChangeEvent(tick=0, channel=10, data=[101, 127]),
   midi.ControlChangeEvent(tick=0, channel=10, data=[100, 127]),
   midi.ControlChangeEvent(tick=0, channel=8, data=[100, 0]),
   midi.ControlChangeEvent(tick=0, channel=8, data=[101, 0]),
   midi.ControlChangeEvent(tick=0, channel=8, data=[6, 12]),
   midi.PitchWheelEvent(tick=0, channel=8, data=[0, 64]),
   midi.ControlChangeEvent(tick=0, channel=8, data=[101, 0]),
   midi.ControlChangeEvent(tick=0, channel=8, data=[100, 1]),
   midi.ControlChangeEvent(tick=0, channel=8, data=[6, 64]),
   midi.ControlChangeEvent(tick=0, channel=8, data=[38, 0]),
   midi.ControlChangeEvent(tick=0, channel=8, data=[101, 127]),
   midi.ControlChangeEvent(tick=0, channel=8, data=[100, 127]),
   midi.ControlChangeEvent(tick=0, channel=10, data=[101, 0]),
   midi.ControlChangeEvent(tick=0, channel=10, data=[100, 2]),
   midi.ControlChangeEvent(tick=0, channel=10, data=[6, 64]),
   midi.ControlChangeEvent(tick=0, channel=10, data=[101, 127]),
   midi.ControlChangeEvent(tick=0, channel=10, data=[100, 127]),
   midi.ControlChangeEvent(tick=0, channel=8, data=[101, 0]),
   midi.ControlChangeEvent(tick=0, channel=8, data=[100, 2]),
   midi.ControlChangeEvent(tick=0, channel=8, data=[6, 64]),
   midi.ControlChangeEvent(tick=0, channel=8, data=[101, 127]),
   midi.ControlChangeEvent(tick=0, channel=8, data=[100, 127]),
   midi.ProgramChangeEvent(tick=0, channel=10, data=[100]),
   midi.ProgramChangeEvent(tick=0, channel=8, data=[100]),
   midi.ControlChangeEvent(tick=0, channel=10, data=[0, 0]),
   midi.ControlChangeEvent(tick=0, channel=8, data=[0, 0]),
   midi.ControlChangeEvent(tick=0, channel=10, data=[7, 80]),
   midi.ControlChangeEvent(tick=0, channel=8, data=[7, 80]),
   midi.ControlChangeEvent(tick=0, channel=10, data=[10, 64]),
   midi.ControlChangeEvent(tick=0, channel=8, data=[10, 64]),
   midi.ControlChangeEvent(tick=0, channel=10, data=[93, 0]),
   midi.ControlChangeEvent(tick=0, channel=8, data=[93, 0]),
   midi.ControlChangeEvent(tick=0, channel=10, data=[91, 0]),
   midi.ControlChangeEvent(tick=0, channel=8, data=[91, 0]),
   midi.ControlChangeEvent(tick=0, channel=10, data=[92, 0]),
   midi.ControlChangeEvent(tick=0, channel=8, data=[92, 0]),
   midi.ControlChangeEvent(tick=0, channel=10, data=[95, 0]),
   midi.ControlChangeEvent(tick=0, channel=8, data=[95, 0]),
   midi.NoteOnEvent(tick=0, channel=8, data=[65, 95]),
   midi.NoteOnEvent(tick=0, channel=8, data=[62, 95]),
   midi.NoteOffEvent(tick=1440, channel=8, data=[65, 80]),
   midi.NoteOffEvent(tick=0, channel=8, data=[62, 80]),
   midi.NoteOnEvent(tick=0, channel=8, data=[67, 95]),
   midi.NoteOnEvent(tick=0, channel=8, data=[64, 95]),
   midi.NoteOffEvent(tick=480, channel=8, data=[67, 80]),
   midi.NoteOffEvent(tick=0, channel=8, data=[64, 80]),
   midi.NoteOnEvent(tick=0, channel=8, data=[72, 95]),
   midi.NoteOnEvent(tick=0, channel=8, data=[69, 95]),
   midi.NoteOnEvent(tick=0, channel=8, data=[65, 95]),
   midi.NoteOffEvent(tick=1920, channel=8, data=[72, 80]),
   midi.NoteOffEvent(tick=0, channel=8, data=[69, 80]),
   midi.NoteOffEvent(tick=0, channel=8, data=[65, 80]),
   midi.NoteOnEvent(tick=0, channel=8, data=[72, 95]),
   midi.NoteOnEvent(tick=0, channel=8, data=[69, 95]),
   midi.NoteOffEvent(tick=1440, channel=8, data=[72, 80]),
   midi.NoteOffEvent(tick=0, channel=8, data=[69, 80]),
   midi.NoteOnEvent(tick=0, channel=8, data=[71, 95]),
   midi.NoteOnEvent(tick=0, channel=8, data=[67, 95]),
   midi.NoteOffEvent(tick=480, channel=8, data=[71, 80]),
   midi.NoteOffEvent(tick=0, channel=8, data=[67, 80]),
   midi.NoteOnEvent(tick=0, channel=8, data=[67, 95]),
   midi.NoteOnEvent(tick=0, channel=8, data=[62, 95]),
   midi.NoteOffEvent(tick=1920, channel=8, data=[67, 80]),
   midi.NoteOffEvent(tick=0, channel=8, data=[62, 80]),
   midi.NoteOnEvent(tick=0, channel=8, data=[65, 95]),
   midi.NoteOnEvent(tick=0, channel=8, data=[62, 95]),
   midi.NoteOffEvent(tick=1440, channel=8, data=[65, 80]),
   midi.NoteOffEvent(tick=0, channel=8, data=[62, 80]),
   midi.NoteOnEvent(tick=0, channel=8, data=[67, 95]),
   midi.NoteOnEvent(tick=0, channel=8, data=[64, 95]),
   midi.NoteOffEvent(tick=480, channel=8, data=[67, 80]),
   midi.NoteOffEvent(tick=0, channel=8, data=[64, 80]),
   midi.NoteOnEvent(tick=0, channel=8, data=[72, 95]),
   midi.NoteOnEvent(tick=0, channel=8, data=[69, 95]),
   midi.NoteOnEvent(tick=0, channel=8, data=[65, 95]),
   midi.NoteOffEvent(tick=1920, channel=8, data=[72, 80]),
   midi.NoteOffEvent(tick=0, channel=8, data=[69, 80]),
   midi.NoteOffEvent(tick=0, channel=8, data=[65, 80]),
   midi.NoteOnEvent(tick=0, channel=8, data=[72, 95]),
   midi.NoteOnEvent(tick=0, channel=8, data=[69, 95]),
   midi.NoteOffEvent(tick=1440, channel=8, data=[72, 80]),
   midi.NoteOffEvent(tick=0, channel=8, data=[69, 80]),
   midi.NoteOnEvent(tick=0, channel=8, data=[71, 95]),
   midi.NoteOnEvent(tick=0, channel=8, data=[67, 95]),
   midi.NoteOffEvent(tick=480, channel=8, data=[71, 80]),
   midi.NoteOffEvent(tick=0, channel=8, data=[67, 80]),
   midi.NoteOnEvent(tick=0, channel=8, data=[67, 95]),
   midi.NoteOnEvent(tick=0, channel=8, data=[62, 95]),
   midi.NoteOffEvent(tick=1920, channel=8, data=[67, 80]),
   midi.NoteOffEvent(tick=0, channel=8, data=[62, 80]),
   midi.NoteOnEvent(tick=0, channel=8, data=[65, 95]),
   midi.NoteOnEvent(tick=0, channel=8, data=[62, 95]),
   midi.NoteOffEvent(tick=1440, channel=8, data=[65, 80]),
   midi.NoteOffEvent(tick=0, channel=8, data=[62, 80]),
   midi.NoteOnEvent(tick=0, channel=8, data=[67, 95]),
   midi.NoteOnEvent(tick=0, channel=8, data=[64, 95]),
   midi.NoteOffEvent(tick=480, channel=8, data=[67, 80]),
   midi.NoteOffEvent(tick=0, channel=8, data=[64, 80]),
   midi.NoteOnEvent(tick=0, channel=8, data=[72, 95]),
   midi.NoteOnEvent(tick=0, channel=8, data=[69, 95]),
   midi.NoteOnEvent(tick=0, channel=8, data=[65, 95]),
   midi.NoteOffEvent(tick=1920, channel=8, data=[72, 80]),
   midi.NoteOffEvent(tick=0, channel=8, data=[69, 80]),
   midi.NoteOffEvent(tick=0, channel=8, data=[65, 80]),
   midi.NoteOnEvent(tick=0, channel=8, data=[72, 95]),
   midi.NoteOnEvent(tick=0, channel=8, data=[69, 95]),
   midi.NoteOffEvent(tick=1440, channel=8, data=[72, 80]),
   midi.NoteOffEvent(tick=0, channel=8, data=[69, 80]),
   midi.NoteOnEvent(tick=0, channel=8, data=[71, 95]),
   midi.NoteOnEvent(tick=0, channel=8, data=[67, 95]),
   midi.NoteOffEvent(tick=480, channel=8, data=[71, 80]),
   midi.NoteOffEvent(tick=0, channel=8, data=[67, 80]),
   midi.NoteOnEvent(tick=0, channel=8, data=[67, 95]),
   midi.NoteOnEvent(tick=0, channel=8, data=[62, 95]),
   midi.NoteOffEvent(tick=1920, channel=8, data=[67, 80]),
   midi.NoteOffEvent(tick=0, channel=8, data=[62, 80]),
   midi.NoteOnEvent(tick=0, channel=8, data=[65, 95]),
   midi.NoteOnEvent(tick=0, channel=8, data=[62, 95]),
   midi.NoteOffEvent(tick=1440, channel=8, data=[65, 80]),
   midi.NoteOffEvent(tick=0, channel=8, data=[62, 80]),
   midi.NoteOnEvent(tick=0, channel=8, data=[67, 95]),
   midi.NoteOnEvent(tick=0, channel=8, data=[64, 95]),
   midi.NoteOffEvent(tick=480, channel=8, data=[67, 80]),
   midi.NoteOffEvent(tick=0, channel=8, data=[64, 80]),
   midi.NoteOnEvent(tick=0, channel=8, data=[72, 95]),
   midi.NoteOnEvent(tick=0, channel=8, data=[69, 95]),
   midi.NoteOnEvent(tick=0, channel=8, data=[65, 95]),
   midi.NoteOffEvent(tick=1920, channel=8, data=[72, 80]),
   midi.NoteOffEvent(tick=0, channel=8, data=[69, 80]),
   midi.NoteOffEvent(tick=0, channel=8, data=[65, 80]),
   midi.NoteOnEvent(tick=0, channel=8, data=[72, 95]),
   midi.NoteOnEvent(tick=0, channel=8, data=[69, 95]),
   midi.NoteOffEvent(tick=1440, channel=8, data=[72, 80]),
   midi.NoteOffEvent(tick=0, channel=8, data=[69, 80]),
   midi.NoteOnEvent(tick=0, channel=8, data=[71, 95]),
   midi.NoteOnEvent(tick=0, channel=8, data=[67, 95]),
   midi.NoteOffEvent(tick=480, channel=8, data=[71, 80]),
   midi.NoteOffEvent(tick=0, channel=8, data=[67, 80]),
   midi.NoteOnEvent(tick=0, channel=8, data=[67, 95]),
   midi.NoteOnEvent(tick=0, channel=8, data=[62, 95]),
   midi.NoteOffEvent(tick=1920, channel=8, data=[67, 80]),
   midi.NoteOffEvent(tick=0, channel=8, data=[62, 80]),
   midi.NoteOnEvent(tick=0, channel=8, data=[65, 95]),
   midi.NoteOnEvent(tick=0, channel=8, data=[62, 95]),
   midi.NoteOffEvent(tick=1440, channel=8, data=[65, 80]),
   midi.NoteOffEvent(tick=0, channel=8, data=[62, 80]),
   midi.NoteOnEvent(tick=0, channel=8, data=[67, 95]),
   midi.NoteOnEvent(tick=0, channel=8, data=[64, 95]),
   midi.NoteOffEvent(tick=480, channel=8, data=[67, 80]),
   midi.NoteOffEvent(tick=0, channel=8, data=[64, 80]),
   midi.NoteOnEvent(tick=0, channel=8, data=[72, 95]),
   midi.NoteOnEvent(tick=0, channel=8, data=[69, 95]),
   midi.NoteOnEvent(tick=0, channel=8, data=[65, 95]),
   midi.NoteOffEvent(tick=1920, channel=8, data=[72, 80]),
   midi.NoteOffEvent(tick=0, channel=8, data=[69, 80]),
   midi.NoteOffEvent(tick=0, channel=8, data=[65, 80]),
   midi.NoteOnEvent(tick=0, channel=8, data=[72, 95]),
   midi.NoteOnEvent(tick=0, channel=8, data=[69, 95]),
   midi.NoteOffEvent(tick=1440, channel=8, data=[72, 80]),
   midi.NoteOffEvent(tick=0, channel=8, data=[69, 80]),
   midi.NoteOnEvent(tick=0, channel=8, data=[71, 95]),
   midi.NoteOnEvent(tick=0, channel=8, data=[67, 95]),
   midi.NoteOffEvent(tick=480, channel=8, data=[71, 80]),
   midi.NoteOffEvent(tick=0, channel=8, data=[67, 80]),
   midi.NoteOnEvent(tick=0, channel=8, data=[67, 95]),
   midi.NoteOnEvent(tick=0, channel=8, data=[62, 95]),
   midi.NoteOffEvent(tick=1920, channel=8, data=[67, 80]),
   midi.NoteOffEvent(tick=0, channel=8, data=[62, 80]),
   midi.NoteOnEvent(tick=0, channel=8, data=[65, 95]),
   midi.NoteOnEvent(tick=0, channel=8, data=[62, 95]),
   midi.NoteOffEvent(tick=1440, channel=8, data=[65, 80]),
   midi.NoteOffEvent(tick=0, channel=8, data=[62, 80]),
   midi.NoteOnEvent(tick=0, channel=8, data=[67, 95]),
   midi.NoteOnEvent(tick=0, channel=8, data=[64, 95]),
   midi.NoteOffEvent(tick=480, channel=8, data=[67, 80]),
   midi.NoteOffEvent(tick=0, channel=8, data=[64, 80]),
   midi.NoteOnEvent(tick=0, channel=8, data=[72, 95]),
   midi.NoteOnEvent(tick=0, channel=8, data=[69, 95]),
   midi.NoteOnEvent(tick=0, channel=8, data=[65, 95]),
   midi.NoteOffEvent(tick=1920, channel=8, data=[72, 80]),
   midi.NoteOffEvent(tick=0, channel=8, data=[69, 80]),
   midi.NoteOffEvent(tick=0, channel=8, data=[65, 80]),
   midi.NoteOnEvent(tick=0, channel=8, data=[72, 95]),
   midi.NoteOnEvent(tick=0, channel=8, data=[69, 95]),
   midi.NoteOffEvent(tick=1440, channel=8, data=[72, 80]),
   midi.NoteOffEvent(tick=0, channel=8, data=[69, 80]),
   midi.NoteOnEvent(tick=0, channel=8, data=[71, 95]),
   midi.NoteOnEvent(tick=0, channel=8, data=[67, 95]),
   midi.NoteOffEvent(tick=480, channel=8, data=[71, 80]),
   midi.NoteOffEvent(tick=0, channel=8, data=[67, 80]),
   midi.NoteOnEvent(tick=0, channel=8, data=[67, 95]),
   midi.NoteOnEvent(tick=0, channel=8, data=[62, 95]),
   midi.NoteOffEvent(tick=1920, channel=8, data=[67, 80]),
   midi.NoteOffEvent(tick=0, channel=8, data=[62, 80]),
   midi.NoteOnEvent(tick=0, channel=8, data=[65, 95]),
   midi.NoteOnEvent(tick=0, channel=8, data=[62, 95]),
   midi.NoteOffEvent(tick=1440, channel=8, data=[65, 80]),
   midi.NoteOffEvent(tick=0, channel=8, data=[62, 80]),
   midi.NoteOnEvent(tick=0, channel=8, data=[67, 95]),
   midi.NoteOnEvent(tick=0, channel=8, data=[64, 95]),
   midi.NoteOffEvent(tick=480, channel=8, data=[67, 80]),
   midi.NoteOffEvent(tick=0, channel=8, data=[64, 80]),
   midi.NoteOnEvent(tick=0, channel=8, data=[72, 95]),
   midi.NoteOnEvent(tick=0, channel=8, data=[69, 95]),
   midi.NoteOnEvent(tick=0, channel=8, data=[65, 95]),
   midi.NoteOffEvent(tick=1920, channel=8, data=[72, 80]),
   midi.NoteOffEvent(tick=0, channel=8, data=[69, 80]),
   midi.NoteOffEvent(tick=0, channel=8, data=[65, 80]),
   midi.NoteOnEvent(tick=0, channel=8, data=[72, 95]),
   midi.NoteOnEvent(tick=0, channel=8, data=[69, 95]),
   midi.NoteOffEvent(tick=1440, channel=8, data=[72, 80]),
   midi.NoteOffEvent(tick=0, channel=8, data=[69, 80]),
   midi.NoteOnEvent(tick=0, channel=8, data=[71, 95]),
   midi.NoteOnEvent(tick=0, channel=8, data=[67, 95]),
   midi.NoteOffEvent(tick=480, channel=8, data=[71, 80]),
   midi.NoteOffEvent(tick=0, channel=8, data=[67, 80]),
   midi.NoteOnEvent(tick=0, channel=8, data=[67, 95]),
   midi.NoteOnEvent(tick=0, channel=8, data=[62, 95]),
   midi.NoteOffEvent(tick=1920, channel=8, data=[67, 80]),
   midi.NoteOffEvent(tick=0, channel=8, data=[62, 80]),
   midi.NoteOnEvent(tick=0, channel=8, data=[65, 95]),
   midi.NoteOnEvent(tick=0, channel=8, data=[62, 95]),
   midi.NoteOffEvent(tick=1440, channel=8, data=[65, 80]),
   midi.NoteOffEvent(tick=0, channel=8, data=[62, 80]),
   midi.NoteOnEvent(tick=0, channel=8, data=[67, 95]),
   midi.NoteOnEvent(tick=0, channel=8, data=[64, 95]),
   midi.NoteOffEvent(tick=480, channel=8, data=[67, 80]),
   midi.NoteOffEvent(tick=0, channel=8, data=[64, 80]),
   midi.NoteOnEvent(tick=0, channel=8, data=[72, 95]),
   midi.NoteOnEvent(tick=0, channel=8, data=[69, 95]),
   midi.NoteOnEvent(tick=0, channel=8, data=[65, 95]),
   midi.NoteOffEvent(tick=1920, channel=8, data=[72, 80]),
   midi.NoteOffEvent(tick=0, channel=8, data=[69, 80]),
   midi.NoteOffEvent(tick=0, channel=8, data=[65, 80]),
   midi.NoteOnEvent(tick=0, channel=8, data=[72, 95]),
   midi.NoteOnEvent(tick=0, channel=8, data=[69, 95]),
   midi.NoteOffEvent(tick=1440, channel=8, data=[72, 80]),
   midi.NoteOffEvent(tick=0, channel=8, data=[69, 80]),
   midi.NoteOnEvent(tick=0, channel=8, data=[71, 95]),
   midi.NoteOnEvent(tick=0, channel=8, data=[67, 95]),
   midi.NoteOffEvent(tick=480, channel=8, data=[71, 80]),
   midi.NoteOffEvent(tick=0, channel=8, data=[67, 80]),
   midi.NoteOnEvent(tick=0, channel=8, data=[67, 95]),
   midi.NoteOnEvent(tick=0, channel=8, data=[62, 95]),
   midi.NoteOffEvent(tick=1920, channel=8, data=[67, 80]),
   midi.NoteOffEvent(tick=0, channel=8, data=[62, 80]),
   midi.NoteOnEvent(tick=0, channel=8, data=[65, 95]),
   midi.NoteOnEvent(tick=0, channel=8, data=[62, 95]),
   midi.NoteOffEvent(tick=1440, channel=8, data=[65, 80]),
   midi.NoteOffEvent(tick=0, channel=8, data=[62, 80]),
   midi.NoteOnEvent(tick=0, channel=8, data=[67, 95]),
   midi.NoteOnEvent(tick=0, channel=8, data=[64, 95]),
   midi.NoteOffEvent(tick=480, channel=8, data=[67, 80]),
   midi.NoteOffEvent(tick=0, channel=8, data=[64, 80]),
   midi.NoteOnEvent(tick=0, channel=8, data=[72, 95]),
   midi.NoteOnEvent(tick=0, channel=8, data=[69, 95]),
   midi.NoteOnEvent(tick=0, channel=8, data=[65, 95]),
   midi.NoteOffEvent(tick=1920, channel=8, data=[72, 80]),
   midi.NoteOffEvent(tick=0, channel=8, data=[69, 80]),
   midi.NoteOffEvent(tick=0, channel=8, data=[65, 80]),
   midi.NoteOnEvent(tick=0, channel=8, data=[72, 95]),
   midi.NoteOnEvent(tick=0, channel=8, data=[69, 95]),
   midi.NoteOffEvent(tick=1440, channel=8, data=[72, 80]),
   midi.NoteOffEvent(tick=0, channel=8, data=[69, 80]),
   midi.NoteOnEvent(tick=0, channel=8, data=[71, 95]),
   midi.NoteOnEvent(tick=0, channel=8, data=[67, 95]),
   midi.NoteOffEvent(tick=480, channel=8, data=[71, 80]),
   midi.NoteOffEvent(tick=0, channel=8, data=[67, 80]),
   midi.NoteOnEvent(tick=0, channel=8, data=[67, 95]),
   midi.NoteOnEvent(tick=0, channel=8, data=[62, 95]),
   midi.NoteOffEvent(tick=1920, channel=8, data=[67, 80]),
   midi.NoteOffEvent(tick=0, channel=8, data=[62, 80]),
   midi.NoteOnEvent(tick=0, channel=8, data=[65, 95]),
   midi.NoteOnEvent(tick=0, channel=8, data=[62, 95]),
   midi.NoteOffEvent(tick=1440, channel=8, data=[65, 80]),
   midi.NoteOffEvent(tick=0, channel=8, data=[62, 80]),
   midi.NoteOnEvent(tick=0, channel=8, data=[67, 95]),
   midi.NoteOnEvent(tick=0, channel=8, data=[64, 95]),
   midi.NoteOffEvent(tick=480, channel=8, data=[67, 80]),
   midi.NoteOffEvent(tick=0, channel=8, data=[64, 80]),
   midi.NoteOnEvent(tick=0, channel=8, data=[72, 95]),
   midi.NoteOnEvent(tick=0, channel=8, data=[69, 95]),
   midi.NoteOnEvent(tick=0, channel=8, data=[65, 95]),
   midi.NoteOffEvent(tick=1920, channel=8, data=[72, 80]),
   midi.NoteOffEvent(tick=0, channel=8, data=[69, 80]),
   midi.NoteOffEvent(tick=0, channel=8, data=[65, 80]),
   midi.NoteOnEvent(tick=0, channel=8, data=[72, 95]),
   midi.NoteOnEvent(tick=0, channel=8, data=[69, 95]),
   midi.NoteOffEvent(tick=1440, channel=8, data=[72, 80]),
   midi.NoteOffEvent(tick=0, channel=8, data=[69, 80]),
   midi.NoteOnEvent(tick=0, channel=8, data=[71, 95]),
   midi.NoteOnEvent(tick=0, channel=8, data=[67, 95]),
   midi.NoteOffEvent(tick=480, channel=8, data=[71, 80]),
   midi.NoteOffEvent(tick=0, channel=8, data=[67, 80]),
   midi.NoteOnEvent(tick=0, channel=8, data=[67, 95]),
   midi.NoteOnEvent(tick=0, channel=8, data=[62, 95]),
   midi.NoteOffEvent(tick=1920, channel=8, data=[67, 80]),
   midi.NoteOffEvent(tick=0, channel=8, data=[62, 80]),
   midi.NoteOnEvent(tick=0, channel=8, data=[65, 95]),
   midi.NoteOnEvent(tick=0, channel=8, data=[62, 95]),
   midi.NoteOffEvent(tick=1440, channel=8, data=[65, 80]),
   midi.NoteOffEvent(tick=0, channel=8, data=[62, 80]),
   midi.NoteOnEvent(tick=0, channel=8, data=[67, 95]),
   midi.NoteOnEvent(tick=0, channel=8, data=[64, 95]),
   midi.NoteOffEvent(tick=480, channel=8, data=[67, 80]),
   midi.NoteOffEvent(tick=0, channel=8, data=[64, 80]),
   midi.NoteOnEvent(tick=0, channel=8, data=[72, 95]),
   midi.NoteOnEvent(tick=0, channel=8, data=[69, 95]),
   midi.NoteOnEvent(tick=0, channel=8, data=[65, 95]),
   midi.NoteOffEvent(tick=1920, channel=8, data=[72, 80]),
   midi.NoteOffEvent(tick=0, channel=8, data=[69, 80]),
   midi.NoteOffEvent(tick=0, channel=8, data=[65, 80]),
   midi.NoteOnEvent(tick=0, channel=8, data=[72, 95]),
   midi.NoteOnEvent(tick=0, channel=8, data=[69, 95]),
   midi.NoteOffEvent(tick=1440, channel=8, data=[72, 80]),
   midi.NoteOffEvent(tick=0, channel=8, data=[69, 80]),
   midi.NoteOnEvent(tick=0, channel=8, data=[71, 95]),
   midi.NoteOnEvent(tick=0, channel=8, data=[67, 95]),
   midi.NoteOffEvent(tick=480, channel=8, data=[71, 80]),
   midi.NoteOffEvent(tick=0, channel=8, data=[67, 80]),
   midi.NoteOnEvent(tick=0, channel=8, data=[67, 95]),
   midi.NoteOnEvent(tick=0, channel=8, data=[62, 95]),
   midi.NoteOffEvent(tick=1920, channel=8, data=[67, 80]),
   midi.NoteOffEvent(tick=0, channel=8, data=[62, 80]),
   midi.NoteOnEvent(tick=0, channel=8, data=[65, 95]),
   midi.NoteOnEvent(tick=0, channel=8, data=[62, 95]),
   midi.NoteOffEvent(tick=1440, channel=8, data=[65, 80]),
   midi.NoteOffEvent(tick=0, channel=8, data=[62, 80]),
   midi.NoteOnEvent(tick=0, channel=8, data=[67, 95]),
   midi.NoteOnEvent(tick=0, channel=8, data=[64, 95]),
   midi.NoteOffEvent(tick=480, channel=8, data=[67, 80]),
   midi.NoteOffEvent(tick=0, channel=8, data=[64, 80]),
   midi.NoteOnEvent(tick=0, channel=8, data=[72, 95]),
   midi.NoteOnEvent(tick=0, channel=8, data=[69, 95]),
   midi.NoteOnEvent(tick=0, channel=8, data=[65, 95]),
   midi.NoteOffEvent(tick=1920, channel=8, data=[72, 80]),
   midi.NoteOffEvent(tick=0, channel=8, data=[69, 80]),
   midi.NoteOffEvent(tick=0, channel=8, data=[65, 80]),
   midi.NoteOnEvent(tick=0, channel=8, data=[72, 95]),
   midi.NoteOnEvent(tick=0, channel=8, data=[69, 95]),
   midi.NoteOffEvent(tick=1440, channel=8, data=[72, 80]),
   midi.NoteOffEvent(tick=0, channel=8, data=[69, 80]),
   midi.NoteOnEvent(tick=0, channel=8, data=[71, 95]),
   midi.NoteOnEvent(tick=0, channel=8, data=[67, 95]),
   midi.NoteOffEvent(tick=480, channel=8, data=[71, 80]),
   midi.NoteOffEvent(tick=0, channel=8, data=[67, 80]),
   midi.NoteOnEvent(tick=0, channel=8, data=[67, 95]),
   midi.NoteOnEvent(tick=0, channel=8, data=[62, 95]),
   midi.NoteOffEvent(tick=1920, channel=8, data=[67, 80]),
   midi.NoteOffEvent(tick=0, channel=8, data=[62, 80]),
   midi.NoteOnEvent(tick=0, channel=8, data=[65, 95]),
   midi.NoteOnEvent(tick=0, channel=8, data=[62, 95]),
   midi.NoteOffEvent(tick=1440, channel=8, data=[65, 80]),
   midi.NoteOffEvent(tick=0, channel=8, data=[62, 80]),
   midi.NoteOnEvent(tick=0, channel=8, data=[67, 95]),
   midi.NoteOnEvent(tick=0, channel=8, data=[64, 95]),
   midi.NoteOffEvent(tick=480, channel=8, data=[67, 80]),
   midi.NoteOffEvent(tick=0, channel=8, data=[64, 80]),
   midi.NoteOnEvent(tick=0, channel=8, data=[72, 95]),
   midi.NoteOnEvent(tick=0, channel=8, data=[69, 95]),
   midi.NoteOnEvent(tick=0, channel=8, data=[65, 95]),
   midi.NoteOffEvent(tick=1920, channel=8, data=[72, 80]),
   midi.NoteOffEvent(tick=0, channel=8, data=[69, 80]),
   midi.NoteOffEvent(tick=0, channel=8, data=[65, 80]),
   midi.NoteOnEvent(tick=0, channel=8, data=[72, 95]),
   midi.NoteOnEvent(tick=0, channel=8, data=[69, 95]),
   midi.NoteOffEvent(tick=1440, channel=8, data=[72, 80]),
   midi.NoteOffEvent(tick=0, channel=8, data=[69, 80]),
   midi.NoteOnEvent(tick=0, channel=8, data=[71, 95]),
   midi.NoteOnEvent(tick=0, channel=8, data=[67, 95]),
   midi.NoteOffEvent(tick=480, channel=8, data=[71, 80]),
   midi.NoteOffEvent(tick=0, channel=8, data=[67, 80]),
   midi.NoteOnEvent(tick=0, channel=8, data=[67, 95]),
   midi.NoteOnEvent(tick=0, channel=8, data=[62, 95]),
   midi.NoteOffEvent(tick=1920, channel=8, data=[67, 80]),
   midi.NoteOffEvent(tick=0, channel=8, data=[62, 80]),
   midi.NoteOnEvent(tick=0, channel=8, data=[65, 95]),
   midi.NoteOnEvent(tick=0, channel=8, data=[62, 95]),
   midi.NoteOffEvent(tick=1440, channel=8, data=[65, 80]),
   midi.NoteOffEvent(tick=0, channel=8, data=[62, 80]),
   midi.NoteOnEvent(tick=0, channel=8, data=[67, 95]),
   midi.NoteOnEvent(tick=0, channel=8, data=[64, 95]),
   midi.NoteOffEvent(tick=480, channel=8, data=[67, 80]),
   midi.NoteOffEvent(tick=0, channel=8, data=[64, 80]),
   midi.NoteOnEvent(tick=0, channel=8, data=[72, 95]),
   midi.NoteOnEvent(tick=0, channel=8, data=[69, 95]),
   midi.NoteOnEvent(tick=0, channel=8, data=[65, 95]),
   midi.NoteOffEvent(tick=1920, channel=8, data=[72, 80]),
   midi.NoteOffEvent(tick=0, channel=8, data=[69, 80]),
   midi.NoteOffEvent(tick=0, channel=8, data=[65, 80]),
   midi.NoteOnEvent(tick=0, channel=8, data=[72, 95]),
   midi.NoteOnEvent(tick=0, channel=8, data=[69, 95]),
   midi.NoteOffEvent(tick=1440, channel=8, data=[72, 80]),
   midi.NoteOffEvent(tick=0, channel=8, data=[69, 80]),
   midi.NoteOnEvent(tick=0, channel=8, data=[71, 95]),
   midi.NoteOnEvent(tick=0, channel=8, data=[67, 95]),
   midi.NoteOffEvent(tick=480, channel=8, data=[71, 80]),
   midi.NoteOffEvent(tick=0, channel=8, data=[67, 80]),
   midi.NoteOnEvent(tick=0, channel=8, data=[67, 95]),
   midi.NoteOnEvent(tick=0, channel=8, data=[62, 95]),
   midi.NoteOffEvent(tick=1920, channel=8, data=[67, 80]),
   midi.NoteOffEvent(tick=0, channel=8, data=[62, 80]),
   midi.NoteOnEvent(tick=0, channel=8, data=[65, 95]),
   midi.NoteOnEvent(tick=0, channel=8, data=[62, 95]),
   midi.NoteOffEvent(tick=1440, channel=8, data=[65, 80]),
   midi.NoteOffEvent(tick=0, channel=8, data=[62, 80]),
   midi.NoteOnEvent(tick=0, channel=8, data=[67, 95]),
   midi.NoteOnEvent(tick=0, channel=8, data=[64, 95]),
   midi.NoteOffEvent(tick=480, channel=8, data=[67, 80]),
   midi.NoteOffEvent(tick=0, channel=8, data=[64, 80]),
   midi.NoteOnEvent(tick=0, channel=8, data=[72, 95]),
   midi.NoteOnEvent(tick=0, channel=8, data=[69, 95]),
   midi.NoteOnEvent(tick=0, channel=8, data=[65, 95]),
   midi.NoteOffEvent(tick=1920, channel=8, data=[72, 80]),
   midi.NoteOffEvent(tick=0, channel=8, data=[69, 80]),
   midi.NoteOffEvent(tick=0, channel=8, data=[65, 80]),
   midi.NoteOnEvent(tick=0, channel=8, data=[72, 95]),
   midi.NoteOnEvent(tick=0, channel=8, data=[69, 95]),
   midi.NoteOffEvent(tick=1440, channel=8, data=[72, 80]),
   midi.NoteOffEvent(tick=0, channel=8, data=[69, 80]),
   midi.NoteOnEvent(tick=0, channel=8, data=[71, 95]),
   midi.NoteOnEvent(tick=0, channel=8, data=[67, 95]),
   midi.NoteOffEvent(tick=480, channel=8, data=[71, 80]),
   midi.NoteOffEvent(tick=0, channel=8, data=[67, 80]),
   midi.NoteOnEvent(tick=0, channel=8, data=[67, 95]),
   midi.NoteOnEvent(tick=0, channel=8, data=[62, 95]),
   midi.NoteOffEvent(tick=1920, channel=8, data=[67, 80]),
   midi.NoteOffEvent(tick=0, channel=8, data=[62, 80]),
   midi.NoteOnEvent(tick=30720, channel=8, data=[65, 95]),
   midi.NoteOnEvent(tick=0, channel=8, data=[62, 95]),
   midi.NoteOffEvent(tick=1440, channel=8, data=[65, 80]),
   midi.NoteOffEvent(tick=0, channel=8, data=[62, 80]),
   midi.NoteOnEvent(tick=0, channel=8, data=[67, 95]),
   midi.NoteOnEvent(tick=0, channel=8, data=[64, 95]),
   midi.NoteOffEvent(tick=480, channel=8, data=[67, 80]),
   midi.NoteOffEvent(tick=0, channel=8, data=[64, 80]),
   midi.NoteOnEvent(tick=0, channel=8, data=[72, 95]),
   midi.NoteOnEvent(tick=0, channel=8, data=[69, 95]),
   midi.NoteOnEvent(tick=0, channel=8, data=[65, 95]),
   midi.NoteOffEvent(tick=1920, channel=8, data=[72, 80]),
   midi.NoteOffEvent(tick=0, channel=8, data=[69, 80]),
   midi.NoteOffEvent(tick=0, channel=8, data=[65, 80]),
   midi.NoteOnEvent(tick=0, channel=8, data=[72, 95]),
   midi.NoteOnEvent(tick=0, channel=8, data=[69, 95]),
   midi.NoteOffEvent(tick=1440, channel=8, data=[72, 80]),
   midi.NoteOffEvent(tick=0, channel=8, data=[69, 80]),
   midi.NoteOnEvent(tick=0, channel=8, data=[71, 95]),
   midi.NoteOnEvent(tick=0, channel=8, data=[67, 95]),
   midi.NoteOffEvent(tick=480, channel=8, data=[71, 80]),
   midi.NoteOffEvent(tick=0, channel=8, data=[67, 80]),
   midi.NoteOnEvent(tick=0, channel=8, data=[67, 95]),
   midi.NoteOnEvent(tick=0, channel=8, data=[62, 95]),
   midi.NoteOffEvent(tick=1920, channel=8, data=[67, 80]),
   midi.NoteOffEvent(tick=0, channel=8, data=[62, 80]),
   midi.NoteOnEvent(tick=0, channel=8, data=[65, 95]),
   midi.NoteOnEvent(tick=0, channel=8, data=[62, 95]),
   midi.NoteOffEvent(tick=1440, channel=8, data=[65, 80]),
   midi.NoteOffEvent(tick=0, channel=8, data=[62, 80]),
   midi.NoteOnEvent(tick=0, channel=8, data=[67, 95]),
   midi.NoteOnEvent(tick=0, channel=8, data=[64, 95]),
   midi.NoteOffEvent(tick=480, channel=8, data=[67, 80]),
   midi.NoteOffEvent(tick=0, channel=8, data=[64, 80]),
   midi.NoteOnEvent(tick=0, channel=8, data=[72, 95]),
   midi.NoteOnEvent(tick=0, channel=8, data=[69, 95]),
   midi.NoteOnEvent(tick=0, channel=8, data=[65, 95]),
   midi.NoteOffEvent(tick=1920, channel=8, data=[72, 80]),
   midi.NoteOffEvent(tick=0, channel=8, data=[69, 80]),
   midi.NoteOffEvent(tick=0, channel=8, data=[65, 80]),
   midi.NoteOnEvent(tick=0, channel=8, data=[72, 95]),
   midi.NoteOnEvent(tick=0, channel=8, data=[69, 95]),
   midi.NoteOffEvent(tick=1440, channel=8, data=[72, 80]),
   midi.NoteOffEvent(tick=0, channel=8, data=[69, 80]),
   midi.NoteOnEvent(tick=0, channel=8, data=[71, 95]),
   midi.NoteOnEvent(tick=0, channel=8, data=[67, 95]),
   midi.NoteOffEvent(tick=480, channel=8, data=[71, 80]),
   midi.NoteOffEvent(tick=0, channel=8, data=[67, 80]),
   midi.NoteOnEvent(tick=0, channel=8, data=[67, 95]),
   midi.NoteOnEvent(tick=0, channel=8, data=[62, 95]),
   midi.NoteOffEvent(tick=1920, channel=8, data=[67, 80]),
   midi.NoteOffEvent(tick=0, channel=8, data=[62, 80]),
   midi.NoteOnEvent(tick=0, channel=8, data=[65, 95]),
   midi.NoteOnEvent(tick=0, channel=8, data=[62, 95]),
   midi.NoteOffEvent(tick=1440, channel=8, data=[65, 80]),
   midi.NoteOffEvent(tick=0, channel=8, data=[62, 80]),
   midi.NoteOnEvent(tick=0, channel=8, data=[67, 95]),
   midi.NoteOnEvent(tick=0, channel=8, data=[64, 95]),
   midi.NoteOffEvent(tick=480, channel=8, data=[67, 80]),
   midi.NoteOffEvent(tick=0, channel=8, data=[64, 80]),
   midi.NoteOnEvent(tick=0, channel=8, data=[72, 95]),
   midi.NoteOnEvent(tick=0, channel=8, data=[69, 95]),
   midi.NoteOnEvent(tick=0, channel=8, data=[65, 95]),
   midi.NoteOffEvent(tick=1920, channel=8, data=[72, 80]),
   midi.NoteOffEvent(tick=0, channel=8, data=[69, 80]),
   midi.NoteOffEvent(tick=0, channel=8, data=[65, 80]),
   midi.NoteOnEvent(tick=0, channel=8, data=[72, 95]),
   midi.NoteOnEvent(tick=0, channel=8, data=[69, 95]),
   midi.NoteOffEvent(tick=1440, channel=8, data=[72, 80]),
   midi.NoteOffEvent(tick=0, channel=8, data=[69, 80]),
   midi.NoteOnEvent(tick=0, channel=8, data=[71, 95]),
   midi.NoteOnEvent(tick=0, channel=8, data=[67, 95]),
   midi.NoteOffEvent(tick=480, channel=8, data=[71, 80]),
   midi.NoteOffEvent(tick=0, channel=8, data=[67, 80]),
   midi.NoteOnEvent(tick=0, channel=8, data=[67, 95]),
   midi.NoteOnEvent(tick=0, channel=8, data=[62, 95]),
   midi.NoteOffEvent(tick=1920, channel=8, data=[67, 80]),
   midi.NoteOffEvent(tick=0, channel=8, data=[62, 80]),
   midi.NoteOnEvent(tick=0, channel=8, data=[65, 95]),
   midi.NoteOnEvent(tick=0, channel=8, data=[62, 95]),
   midi.NoteOffEvent(tick=1440, channel=8, data=[65, 80]),
   midi.NoteOffEvent(tick=0, channel=8, data=[62, 80]),
   midi.NoteOnEvent(tick=0, channel=8, data=[67, 95]),
   midi.NoteOnEvent(tick=0, channel=8, data=[64, 95]),
   midi.NoteOffEvent(tick=480, channel=8, data=[67, 80]),
   midi.NoteOffEvent(tick=0, channel=8, data=[64, 80]),
   midi.NoteOnEvent(tick=0, channel=8, data=[72, 95]),
   midi.NoteOnEvent(tick=0, channel=8, data=[69, 95]),
   midi.NoteOnEvent(tick=0, channel=8, data=[65, 95]),
   midi.NoteOffEvent(tick=1920, channel=8, data=[72, 80]),
   midi.NoteOffEvent(tick=0, channel=8, data=[69, 80]),
   midi.NoteOffEvent(tick=0, channel=8, data=[65, 80]),
   midi.NoteOnEvent(tick=0, channel=8, data=[72, 95]),
   midi.NoteOnEvent(tick=0, channel=8, data=[69, 95]),
   midi.NoteOffEvent(tick=1440, channel=8, data=[72, 80]),
   midi.NoteOffEvent(tick=0, channel=8, data=[69, 80]),
   midi.NoteOnEvent(tick=0, channel=8, data=[71, 95]),
   midi.NoteOnEvent(tick=0, channel=8, data=[67, 95]),
   midi.NoteOffEvent(tick=480, channel=8, data=[71, 80]),
   midi.NoteOffEvent(tick=0, channel=8, data=[67, 80]),
   midi.NoteOnEvent(tick=0, channel=8, data=[67, 95]),
   midi.NoteOnEvent(tick=0, channel=8, data=[62, 95]),
   midi.NoteOffEvent(tick=1920, channel=8, data=[67, 80]),
   midi.NoteOffEvent(tick=0, channel=8, data=[62, 80]),
   midi.NoteOnEvent(tick=0, channel=8, data=[65, 95]),
   midi.NoteOnEvent(tick=0, channel=8, data=[62, 95]),
   midi.NoteOffEvent(tick=1440, channel=8, data=[65, 80]),
   midi.NoteOffEvent(tick=0, channel=8, data=[62, 80]),
   midi.NoteOnEvent(tick=0, channel=8, data=[67, 95]),
   midi.NoteOnEvent(tick=0, channel=8, data=[64, 95]),
   midi.NoteOffEvent(tick=480, channel=8, data=[67, 80]),
   midi.NoteOffEvent(tick=0, channel=8, data=[64, 80]),
   midi.NoteOnEvent(tick=0, channel=8, data=[72, 95]),
   midi.NoteOnEvent(tick=0, channel=8, data=[69, 95]),
   midi.NoteOnEvent(tick=0, channel=8, data=[65, 95]),
   midi.NoteOffEvent(tick=1920, channel=8, data=[72, 80]),
   midi.NoteOffEvent(tick=0, channel=8, data=[69, 80]),
   midi.NoteOffEvent(tick=0, channel=8, data=[65, 80]),
   midi.NoteOnEvent(tick=0, channel=8, data=[72, 95]),
   midi.NoteOnEvent(tick=0, channel=8, data=[69, 95]),
   midi.NoteOffEvent(tick=1440, channel=8, data=[72, 80]),
   midi.NoteOffEvent(tick=0, channel=8, data=[69, 80]),
   midi.NoteOnEvent(tick=0, channel=8, data=[71, 95]),
   midi.NoteOnEvent(tick=0, channel=8, data=[67, 95]),
   midi.NoteOffEvent(tick=480, channel=8, data=[71, 80]),
   midi.NoteOffEvent(tick=0, channel=8, data=[67, 80]),
   midi.NoteOnEvent(tick=0, channel=8, data=[67, 95]),
   midi.NoteOnEvent(tick=0, channel=8, data=[62, 95]),
   midi.NoteOffEvent(tick=1920, channel=8, data=[67, 80]),
   midi.NoteOffEvent(tick=0, channel=8, data=[62, 80]),
   midi.NoteOnEvent(tick=0, channel=8, data=[65, 95]),
   midi.NoteOnEvent(tick=0, channel=8, data=[62, 95]),
   midi.NoteOffEvent(tick=1440, channel=8, data=[65, 80]),
   midi.NoteOffEvent(tick=0, channel=8, data=[62, 80]),
   midi.NoteOnEvent(tick=0, channel=8, data=[67, 95]),
   midi.NoteOnEvent(tick=0, channel=8, data=[64, 95]),
   midi.NoteOffEvent(tick=480, channel=8, data=[67, 80]),
   midi.NoteOffEvent(tick=0, channel=8, data=[64, 80]),
   midi.NoteOnEvent(tick=0, channel=8, data=[72, 95]),
   midi.NoteOnEvent(tick=0, channel=8, data=[69, 95]),
   midi.NoteOnEvent(tick=0, channel=8, data=[65, 95]),
   midi.NoteOffEvent(tick=1920, channel=8, data=[72, 80]),
   midi.NoteOffEvent(tick=0, channel=8, data=[69, 80]),
   midi.NoteOffEvent(tick=0, channel=8, data=[65, 80]),
   midi.NoteOnEvent(tick=0, channel=8, data=[72, 95]),
   midi.NoteOnEvent(tick=0, channel=8, data=[69, 95]),
   midi.NoteOffEvent(tick=1440, channel=8, data=[72, 80]),
   midi.NoteOffEvent(tick=0, channel=8, data=[69, 80]),
   midi.NoteOnEvent(tick=0, channel=8, data=[71, 95]),
   midi.NoteOnEvent(tick=0, channel=8, data=[67, 95]),
   midi.NoteOffEvent(tick=480, channel=8, data=[71, 80]),
   midi.NoteOffEvent(tick=0, channel=8, data=[67, 80]),
   midi.NoteOnEvent(tick=0, channel=8, data=[67, 95]),
   midi.NoteOnEvent(tick=0, channel=8, data=[62, 95]),
   midi.NoteOffEvent(tick=1920, channel=8, data=[67, 80]),
   midi.NoteOffEvent(tick=0, channel=8, data=[62, 80]),
   midi.NoteOnEvent(tick=0, channel=8, data=[65, 95]),
   midi.NoteOnEvent(tick=0, channel=8, data=[62, 95]),
   midi.NoteOffEvent(tick=1440, channel=8, data=[65, 80]),
   midi.NoteOffEvent(tick=0, channel=8, data=[62, 80]),
   midi.NoteOnEvent(tick=0, channel=8, data=[67, 95]),
   midi.NoteOnEvent(tick=0, channel=8, data=[64, 95]),
   midi.NoteOffEvent(tick=480, channel=8, data=[67, 80]),
   midi.NoteOffEvent(tick=0, channel=8, data=[64, 80]),
   midi.NoteOnEvent(tick=0, channel=8, data=[72, 95]),
   midi.NoteOnEvent(tick=0, channel=8, data=[69, 95]),
   midi.NoteOnEvent(tick=0, channel=8, data=[65, 95]),
   midi.NoteOffEvent(tick=1920, channel=8, data=[72, 80]),
   midi.NoteOffEvent(tick=0, channel=8, data=[69, 80]),
   midi.NoteOffEvent(tick=0, channel=8, data=[65, 80]),
   midi.NoteOnEvent(tick=0, channel=8, data=[72, 95]),
   midi.NoteOnEvent(tick=0, channel=8, data=[69, 95]),
   midi.NoteOffEvent(tick=1440, channel=8, data=[72, 80]),
   midi.NoteOffEvent(tick=0, channel=8, data=[69, 80]),
   midi.NoteOnEvent(tick=0, channel=8, data=[71, 95]),
   midi.NoteOnEvent(tick=0, channel=8, data=[67, 95]),
   midi.NoteOffEvent(tick=480, channel=8, data=[71, 80]),
   midi.NoteOffEvent(tick=0, channel=8, data=[67, 80]),
   midi.NoteOnEvent(tick=0, channel=8, data=[67, 95]),
   midi.NoteOnEvent(tick=0, channel=8, data=[62, 95]),
   midi.NoteOffEvent(tick=1920, channel=8, data=[67, 80]),
   midi.NoteOffEvent(tick=0, channel=8, data=[62, 80]),
   midi.EndOfTrackEvent(tick=0, data=[])])])
