midi.Pattern(format=1, resolution=960, tracks=\
[midi.Track(\
  [midi.ControlChangeEvent(tick=0, channel=0, data=[101, 0]),
   midi.ControlChangeEvent(tick=0, channel=0, data=[100, 0]),
   midi.ControlChangeEvent(tick=0, channel=0, data=[6, 12]),
   midi.ControlChangeEvent(tick=0, channel=0, data=[38, 0]),
   midi.ControlChangeEvent(tick=0, channel=1, data=[101, 0]),
   midi.ControlChangeEvent(tick=0, channel=1, data=[100, 0]),
   midi.ControlChangeEvent(tick=0, channel=1, data=[6, 12]),
   midi.ControlChangeEvent(tick=0, channel=1, data=[38, 0]),
   midi.ControlChangeEvent(tick=0, channel=2, data=[101, 0]),
   midi.ControlChangeEvent(tick=0, channel=2, data=[100, 0]),
   midi.ControlChangeEvent(tick=0, channel=2, data=[6, 12]),
   midi.ControlChangeEvent(tick=0, channel=2, data=[38, 0]),
   midi.ControlChangeEvent(tick=0, channel=3, data=[101, 0]),
   midi.ControlChangeEvent(tick=0, channel=3, data=[100, 0]),
   midi.ControlChangeEvent(tick=0, channel=3, data=[6, 12]),
   midi.ControlChangeEvent(tick=0, channel=3, data=[38, 0]),
   midi.ControlChangeEvent(tick=0, channel=4, data=[101, 0]),
   midi.ControlChangeEvent(tick=0, channel=4, data=[100, 0]),
   midi.ControlChangeEvent(tick=0, channel=4, data=[6, 12]),
   midi.ControlChangeEvent(tick=0, channel=4, data=[38, 0]),
   midi.ControlChangeEvent(tick=0, channel=5, data=[101, 0]),
   midi.ControlChangeEvent(tick=0, channel=5, data=[100, 0]),
   midi.ControlChangeEvent(tick=0, channel=5, data=[6, 12]),
   midi.ControlChangeEvent(tick=0, channel=5, data=[38, 0]),
   midi.ControlChangeEvent(tick=0, channel=6, data=[101, 0]),
   midi.ControlChangeEvent(tick=0, channel=6, data=[100, 0]),
   midi.ControlChangeEvent(tick=0, channel=6, data=[6, 12]),
   midi.ControlChangeEvent(tick=0, channel=6, data=[38, 0]),
   midi.ControlChangeEvent(tick=0, channel=7, data=[101, 0]),
   midi.ControlChangeEvent(tick=0, channel=7, data=[100, 0]),
   midi.ControlChangeEvent(tick=0, channel=7, data=[6, 12]),
   midi.ControlChangeEvent(tick=0, channel=7, data=[38, 0]),
   midi.ControlChangeEvent(tick=0, channel=8, data=[101, 0]),
   midi.ControlChangeEvent(tick=0, channel=8, data=[100, 0]),
   midi.ControlChangeEvent(tick=0, channel=8, data=[6, 12]),
   midi.ControlChangeEvent(tick=0, channel=8, data=[38, 0]),
   midi.ControlChangeEvent(tick=0, channel=9, data=[101, 0]),
   midi.ControlChangeEvent(tick=0, channel=9, data=[100, 0]),
   midi.ControlChangeEvent(tick=0, channel=9, data=[6, 12]),
   midi.ControlChangeEvent(tick=0, channel=9, data=[38, 0]),
   midi.ControlChangeEvent(tick=0, channel=10, data=[101, 0]),
   midi.ControlChangeEvent(tick=0, channel=10, data=[100, 0]),
   midi.ControlChangeEvent(tick=0, channel=10, data=[6, 12]),
   midi.ControlChangeEvent(tick=0, channel=10, data=[38, 0]),
   midi.ControlChangeEvent(tick=0, channel=11, data=[101, 0]),
   midi.ControlChangeEvent(tick=0, channel=11, data=[100, 0]),
   midi.ControlChangeEvent(tick=0, channel=11, data=[6, 12]),
   midi.ControlChangeEvent(tick=0, channel=11, data=[38, 0]),
   midi.ControlChangeEvent(tick=0, channel=12, data=[101, 0]),
   midi.ControlChangeEvent(tick=0, channel=12, data=[100, 0]),
   midi.ControlChangeEvent(tick=0, channel=12, data=[6, 12]),
   midi.ControlChangeEvent(tick=0, channel=12, data=[38, 0]),
   midi.ControlChangeEvent(tick=0, channel=13, data=[101, 0]),
   midi.ControlChangeEvent(tick=0, channel=13, data=[100, 0]),
   midi.ControlChangeEvent(tick=0, channel=13, data=[6, 12]),
   midi.ControlChangeEvent(tick=0, channel=13, data=[38, 0]),
   midi.ControlChangeEvent(tick=0, channel=14, data=[101, 0]),
   midi.ControlChangeEvent(tick=0, channel=14, data=[100, 0]),
   midi.ControlChangeEvent(tick=0, channel=14, data=[6, 12]),
   midi.ControlChangeEvent(tick=0, channel=14, data=[38, 0]),
   midi.ControlChangeEvent(tick=0, channel=15, data=[101, 0]),
   midi.ControlChangeEvent(tick=0, channel=15, data=[100, 0]),
   midi.ControlChangeEvent(tick=0, channel=15, data=[6, 12]),
   midi.ControlChangeEvent(tick=0, channel=15, data=[38, 0]),
   midi.TimeSignatureEvent(tick=0, data=[4, 2, 24, 8]),
   midi.SetTempoEvent(tick=0, data=[8, 205, 155]),
   midi.EndOfTrackEvent(tick=0, data=[])]),
 midi.Track(\
  [midi.PitchWheelEvent(tick=0, channel=0, data=[0, 64]),
   midi.ControlChangeEvent(tick=0, channel=0, data=[7, 111]),
   midi.ControlChangeEvent(tick=0, channel=0, data=[10, 63]),
   midi.ControlChangeEvent(tick=0, channel=0, data=[93, 0]),
   midi.ControlChangeEvent(tick=0, channel=0, data=[91, 0]),
   midi.ControlChangeEvent(tick=0, channel=0, data=[95, 0]),
   midi.ControlChangeEvent(tick=0, channel=0, data=[92, 0]),
   midi.ControlChangeEvent(tick=0, channel=0, data=[11, 127]),
   midi.ProgramChangeEvent(tick=0, channel=0, data=[71]),
   midi.NoteOnEvent(tick=32160, channel=0, data=[58, 79]),
   midi.NoteOffEvent(tick=480, channel=0, data=[58, 79]),
   midi.NoteOnEvent(tick=0, channel=0, data=[58, 79]),
   midi.NoteOffEvent(tick=840, channel=0, data=[58, 79]),
   midi.NoteOnEvent(tick=120, channel=0, data=[59, 79]),
   midi.NoteOffEvent(tick=840, channel=0, data=[59, 79]),
   midi.NoteOnEvent(tick=120, channel=0, data=[58, 79]),
   midi.NoteOffEvent(tick=1320, channel=0, data=[58, 79]),
   midi.NoteOnEvent(tick=12120, channel=0, data=[58, 79]),
   midi.NoteOffEvent(tick=840, channel=0, data=[58, 79]),
   midi.NoteOnEvent(tick=120, channel=0, data=[59, 79]),
   midi.NoteOffEvent(tick=840, channel=0, data=[59, 79]),
   midi.NoteOnEvent(tick=120, channel=0, data=[58, 79]),
   midi.NoteOffEvent(tick=1320, channel=0, data=[58, 79]),
   midi.NoteOnEvent(tick=11640, channel=0, data=[58, 79]),
   midi.NoteOffEvent(tick=480, channel=0, data=[58, 79]),
   midi.NoteOnEvent(tick=0, channel=0, data=[58, 79]),
   midi.NoteOffEvent(tick=840, channel=0, data=[58, 79]),
   midi.NoteOnEvent(tick=120, channel=0, data=[59, 79]),
   midi.NoteOffEvent(tick=840, channel=0, data=[59, 79]),
   midi.NoteOnEvent(tick=120, channel=0, data=[58, 79]),
   midi.NoteOffEvent(tick=1320, channel=0, data=[58, 79]),
   midi.NoteOnEvent(tick=12120, channel=0, data=[66, 79]),
   midi.NoteOffEvent(tick=840, channel=0, data=[66, 79]),
   midi.NoteOnEvent(tick=120, channel=0, data=[68, 79]),
   midi.NoteOffEvent(tick=840, channel=0, data=[68, 79]),
   midi.NoteOnEvent(tick=120, channel=0, data=[70, 79]),
   midi.NoteOffEvent(tick=11520, channel=0, data=[70, 79]),
   midi.NoteOnEvent(tick=1440, channel=0, data=[61, 79]),
   midi.NoteOffEvent(tick=480, channel=0, data=[61, 79]),
   midi.NoteOnEvent(tick=0, channel=0, data=[61, 79]),
   midi.NoteOffEvent(tick=840, channel=0, data=[61, 79]),
   midi.NoteOnEvent(tick=120, channel=0, data=[63, 79]),
   midi.NoteOffEvent(tick=840, channel=0, data=[63, 79]),
   midi.NoteOnEvent(tick=120, channel=0, data=[65, 79]),
   midi.NoteOffEvent(tick=1320, channel=0, data=[65, 79]),
   midi.NoteOnEvent(tick=120, channel=0, data=[65, 79]),
   midi.NoteOffEvent(tick=480, channel=0, data=[65, 79]),
   midi.NoteOnEvent(tick=0, channel=0, data=[65, 79]),
   midi.NoteOffEvent(tick=600, channel=0, data=[65, 79]),
   midi.NoteOnEvent(tick=120, channel=0, data=[61, 79]),
   midi.NoteOffEvent(tick=600, channel=0, data=[61, 79]),
   midi.NoteOnEvent(tick=120, channel=0, data=[61, 79]),
   midi.NoteOffEvent(tick=2880, channel=0, data=[61, 79]),
   midi.NoteOnEvent(tick=0, channel=0, data=[61, 79]),
   midi.NoteOffEvent(tick=240, channel=0, data=[61, 79]),
   midi.NoteOnEvent(tick=0, channel=0, data=[61, 79]),
   midi.NoteOffEvent(tick=480, channel=0, data=[61, 79]),
   midi.NoteOnEvent(tick=0, channel=0, data=[63, 79]),
   midi.NoteOffEvent(tick=480, channel=0, data=[63, 79]),
   midi.NoteOnEvent(tick=0, channel=0, data=[65, 79]),
   midi.NoteOffEvent(tick=1560, channel=0, data=[65, 79]),
   midi.NoteOnEvent(tick=120, channel=0, data=[63, 79]),
   midi.NoteOffEvent(tick=480, channel=0, data=[63, 79]),
   midi.NoteOnEvent(tick=0, channel=0, data=[65, 79]),
   midi.NoteOffEvent(tick=240, channel=0, data=[65, 79]),
   midi.NoteOnEvent(tick=0, channel=0, data=[63, 79]),
   midi.NoteOffEvent(tick=240, channel=0, data=[63, 79]),
   midi.NoteOnEvent(tick=0, channel=0, data=[65, 79]),
   midi.NoteOffEvent(tick=480, channel=0, data=[65, 79]),
   midi.NoteOnEvent(tick=0, channel=0, data=[66, 79]),
   midi.NoteOffEvent(tick=480, channel=0, data=[66, 79]),
   midi.NoteOnEvent(tick=0, channel=0, data=[65, 79]),
   midi.NoteOffEvent(tick=960, channel=0, data=[65, 79]),
   midi.NoteOnEvent(tick=0, channel=0, data=[63, 79]),
   midi.NoteOffEvent(tick=840, channel=0, data=[63, 79]),
   midi.NoteOnEvent(tick=120, channel=0, data=[58, 79]),
   midi.NoteOffEvent(tick=480, channel=0, data=[58, 79]),
   midi.NoteOnEvent(tick=0, channel=0, data=[61, 79]),
   midi.NoteOffEvent(tick=840, channel=0, data=[61, 79]),
   midi.NoteOnEvent(tick=120, channel=0, data=[63, 79]),
   midi.NoteOffEvent(tick=840, channel=0, data=[63, 79]),
   midi.NoteOnEvent(tick=120, channel=0, data=[65, 79]),
   midi.NoteOffEvent(tick=1320, channel=0, data=[65, 79]),
   midi.NoteOnEvent(tick=120, channel=0, data=[65, 79]),
   midi.NoteOffEvent(tick=480, channel=0, data=[65, 79]),
   midi.NoteOnEvent(tick=0, channel=0, data=[65, 79]),
   midi.NoteOffEvent(tick=600, channel=0, data=[65, 79]),
   midi.NoteOnEvent(tick=120, channel=0, data=[61, 79]),
   midi.NoteOffEvent(tick=600, channel=0, data=[61, 79]),
   midi.NoteOnEvent(tick=120, channel=0, data=[61, 79]),
   midi.NoteOffEvent(tick=2880, channel=0, data=[61, 79]),
   midi.NoteOnEvent(tick=0, channel=0, data=[61, 79]),
   midi.NoteOffEvent(tick=240, channel=0, data=[61, 79]),
   midi.NoteOnEvent(tick=0, channel=0, data=[61, 79]),
   midi.NoteOffEvent(tick=480, channel=0, data=[61, 79]),
   midi.NoteOnEvent(tick=0, channel=0, data=[63, 79]),
   midi.NoteOffEvent(tick=480, channel=0, data=[63, 79]),
   midi.NoteOnEvent(tick=0, channel=0, data=[65, 79]),
   midi.NoteOffEvent(tick=1560, channel=0, data=[65, 79]),
   midi.NoteOnEvent(tick=120, channel=0, data=[63, 79]),
   midi.NoteOffEvent(tick=480, channel=0, data=[63, 79]),
   midi.NoteOnEvent(tick=0, channel=0, data=[65, 79]),
   midi.NoteOffEvent(tick=240, channel=0, data=[65, 79]),
   midi.NoteOnEvent(tick=0, channel=0, data=[63, 79]),
   midi.NoteOffEvent(tick=240, channel=0, data=[63, 79]),
   midi.NoteOnEvent(tick=0, channel=0, data=[65, 79]),
   midi.NoteOffEvent(tick=480, channel=0, data=[65, 79]),
   midi.NoteOnEvent(tick=0, channel=0, data=[63, 79]),
   midi.NoteOffEvent(tick=480, channel=0, data=[63, 79]),
   midi.NoteOnEvent(tick=0, channel=0, data=[66, 79]),
   midi.NoteOffEvent(tick=960, channel=0, data=[66, 79]),
   midi.NoteOnEvent(tick=0, channel=0, data=[65, 79]),
   midi.NoteOffEvent(tick=480, channel=0, data=[65, 79]),
   midi.NoteOnEvent(tick=0, channel=0, data=[63, 79]),
   midi.NoteOffEvent(tick=480, channel=0, data=[63, 79]),
   midi.NoteOnEvent(tick=0, channel=0, data=[61, 79]),
   midi.NoteOffEvent(tick=960, channel=0, data=[61, 79]),
   midi.NoteOnEvent(tick=0, channel=0, data=[63, 79]),
   midi.NoteOffEvent(tick=240, channel=0, data=[63, 79]),
   midi.NoteOnEvent(tick=0, channel=0, data=[61, 79]),
   midi.NoteOffEvent(tick=240, channel=0, data=[61, 79]),
   midi.NoteOnEvent(tick=0, channel=0, data=[58, 79]),
   midi.NoteOffEvent(tick=840, channel=0, data=[58, 79]),
   midi.NoteOnEvent(tick=13080, channel=0, data=[58, 79]),
   midi.NoteOffEvent(tick=480, channel=0, data=[58, 79]),
   midi.NoteOnEvent(tick=0, channel=0, data=[58, 79]),
   midi.NoteOffEvent(tick=840, channel=0, data=[58, 79]),
   midi.NoteOnEvent(tick=120, channel=0, data=[59, 79]),
   midi.NoteOffEvent(tick=840, channel=0, data=[59, 79]),
   midi.NoteOnEvent(tick=120, channel=0, data=[58, 79]),
   midi.NoteOffEvent(tick=1320, channel=0, data=[58, 79]),
   midi.NoteOnEvent(tick=12120, channel=0, data=[58, 79]),
   midi.NoteOffEvent(tick=840, channel=0, data=[58, 79]),
   midi.NoteOnEvent(tick=120, channel=0, data=[59, 79]),
   midi.NoteOffEvent(tick=840, channel=0, data=[59, 79]),
   midi.NoteOnEvent(tick=120, channel=0, data=[58, 79]),
   midi.NoteOffEvent(tick=1320, channel=0, data=[58, 79]),
   midi.NoteOnEvent(tick=12120, channel=0, data=[66, 79]),
   midi.NoteOffEvent(tick=840, channel=0, data=[66, 79]),
   midi.NoteOnEvent(tick=120, channel=0, data=[68, 79]),
   midi.NoteOffEvent(tick=840, channel=0, data=[68, 79]),
   midi.NoteOnEvent(tick=120, channel=0, data=[70, 79]),
   midi.NoteOffEvent(tick=11160, channel=0, data=[70, 79]),
   midi.NoteOnEvent(tick=1800, channel=0, data=[61, 79]),
   midi.NoteOffEvent(tick=480, channel=0, data=[61, 79]),
   midi.NoteOnEvent(tick=0, channel=0, data=[61, 79]),
   midi.NoteOffEvent(tick=840, channel=0, data=[61, 79]),
   midi.NoteOnEvent(tick=120, channel=0, data=[63, 79]),
   midi.NoteOffEvent(tick=840, channel=0, data=[63, 79]),
   midi.NoteOnEvent(tick=120, channel=0, data=[65, 79]),
   midi.NoteOffEvent(tick=1320, channel=0, data=[65, 79]),
   midi.NoteOnEvent(tick=120, channel=0, data=[65, 79]),
   midi.NoteOffEvent(tick=480, channel=0, data=[65, 79]),
   midi.NoteOnEvent(tick=0, channel=0, data=[65, 79]),
   midi.NoteOffEvent(tick=600, channel=0, data=[65, 79]),
   midi.NoteOnEvent(tick=120, channel=0, data=[61, 79]),
   midi.NoteOffEvent(tick=600, channel=0, data=[61, 79]),
   midi.NoteOnEvent(tick=120, channel=0, data=[61, 79]),
   midi.NoteOffEvent(tick=2880, channel=0, data=[61, 79]),
   midi.NoteOnEvent(tick=0, channel=0, data=[61, 79]),
   midi.NoteOffEvent(tick=240, channel=0, data=[61, 79]),
   midi.NoteOnEvent(tick=0, channel=0, data=[61, 79]),
   midi.NoteOffEvent(tick=480, channel=0, data=[61, 79]),
   midi.NoteOnEvent(tick=0, channel=0, data=[63, 79]),
   midi.NoteOffEvent(tick=480, channel=0, data=[63, 79]),
   midi.NoteOnEvent(tick=0, channel=0, data=[65, 79]),
   midi.NoteOffEvent(tick=1560, channel=0, data=[65, 79]),
   midi.NoteOnEvent(tick=120, channel=0, data=[63, 79]),
   midi.NoteOffEvent(tick=480, channel=0, data=[63, 79]),
   midi.NoteOnEvent(tick=0, channel=0, data=[65, 79]),
   midi.NoteOffEvent(tick=240, channel=0, data=[65, 79]),
   midi.NoteOnEvent(tick=0, channel=0, data=[63, 79]),
   midi.NoteOffEvent(tick=240, channel=0, data=[63, 79]),
   midi.NoteOnEvent(tick=0, channel=0, data=[65, 79]),
   midi.NoteOffEvent(tick=480, channel=0, data=[65, 79]),
   midi.NoteOnEvent(tick=0, channel=0, data=[66, 79]),
   midi.NoteOffEvent(tick=480, channel=0, data=[66, 79]),
   midi.NoteOnEvent(tick=0, channel=0, data=[65, 79]),
   midi.NoteOffEvent(tick=960, channel=0, data=[65, 79]),
   midi.NoteOnEvent(tick=0, channel=0, data=[63, 79]),
   midi.NoteOffEvent(tick=840, channel=0, data=[63, 79]),
   midi.NoteOnEvent(tick=120, channel=0, data=[58, 79]),
   midi.NoteOffEvent(tick=480, channel=0, data=[58, 79]),
   midi.NoteOnEvent(tick=0, channel=0, data=[61, 79]),
   midi.NoteOffEvent(tick=840, channel=0, data=[61, 79]),
   midi.NoteOnEvent(tick=120, channel=0, data=[63, 79]),
   midi.NoteOffEvent(tick=840, channel=0, data=[63, 79]),
   midi.NoteOnEvent(tick=120, channel=0, data=[65, 79]),
   midi.NoteOffEvent(tick=1320, channel=0, data=[65, 79]),
   midi.NoteOnEvent(tick=120, channel=0, data=[65, 79]),
   midi.NoteOffEvent(tick=480, channel=0, data=[65, 79]),
   midi.NoteOnEvent(tick=0, channel=0, data=[65, 79]),
   midi.NoteOffEvent(tick=600, channel=0, data=[65, 79]),
   midi.NoteOnEvent(tick=120, channel=0, data=[61, 79]),
   midi.NoteOffEvent(tick=600, channel=0, data=[61, 79]),
   midi.NoteOnEvent(tick=120, channel=0, data=[61, 79]),
   midi.NoteOffEvent(tick=2880, channel=0, data=[61, 79]),
   midi.NoteOnEvent(tick=0, channel=0, data=[61, 79]),
   midi.NoteOffEvent(tick=240, channel=0, data=[61, 79]),
   midi.NoteOnEvent(tick=0, channel=0, data=[61, 79]),
   midi.NoteOffEvent(tick=480, channel=0, data=[61, 79]),
   midi.NoteOnEvent(tick=0, channel=0, data=[63, 79]),
   midi.NoteOffEvent(tick=480, channel=0, data=[63, 79]),
   midi.NoteOnEvent(tick=0, channel=0, data=[65, 79]),
   midi.NoteOffEvent(tick=1560, channel=0, data=[65, 79]),
   midi.NoteOnEvent(tick=120, channel=0, data=[63, 79]),
   midi.NoteOffEvent(tick=480, channel=0, data=[63, 79]),
   midi.NoteOnEvent(tick=0, channel=0, data=[65, 79]),
   midi.NoteOffEvent(tick=240, channel=0, data=[65, 79]),
   midi.NoteOnEvent(tick=0, channel=0, data=[63, 79]),
   midi.NoteOffEvent(tick=240, channel=0, data=[63, 79]),
   midi.NoteOnEvent(tick=0, channel=0, data=[65, 79]),
   midi.NoteOffEvent(tick=480, channel=0, data=[65, 79]),
   midi.NoteOnEvent(tick=0, channel=0, data=[63, 79]),
   midi.NoteOffEvent(tick=480, channel=0, data=[63, 79]),
   midi.NoteOnEvent(tick=0, channel=0, data=[66, 79]),
   midi.NoteOffEvent(tick=960, channel=0, data=[66, 79]),
   midi.NoteOnEvent(tick=0, channel=0, data=[65, 79]),
   midi.NoteOffEvent(tick=480, channel=0, data=[65, 79]),
   midi.NoteOnEvent(tick=0, channel=0, data=[63, 79]),
   midi.NoteOffEvent(tick=480, channel=0, data=[63, 79]),
   midi.NoteOnEvent(tick=0, channel=0, data=[61, 79]),
   midi.NoteOffEvent(tick=840, channel=0, data=[61, 79]),
   midi.NoteOnEvent(tick=120, channel=0, data=[63, 79]),
   midi.NoteOffEvent(tick=240, channel=0, data=[63, 79]),
   midi.NoteOnEvent(tick=0, channel=0, data=[61, 79]),
   midi.NoteOffEvent(tick=240, channel=0, data=[61, 79]),
   midi.NoteOnEvent(tick=0, channel=0, data=[58, 79]),
   midi.NoteOffEvent(tick=1800, channel=0, data=[58, 79]),
   midi.NoteOnEvent(tick=600, channel=0, data=[58, 79]),
   midi.NoteOffEvent(tick=480, channel=0, data=[58, 79]),
   midi.NoteOnEvent(tick=0, channel=0, data=[61, 79]),
   midi.NoteOffEvent(tick=480, channel=0, data=[61, 79]),
   midi.NoteOnEvent(tick=0, channel=0, data=[61, 79]),
   midi.NoteOffEvent(tick=960, channel=0, data=[61, 79]),
   midi.NoteOnEvent(tick=0, channel=0, data=[61, 79]),
   midi.NoteOffEvent(tick=1800, channel=0, data=[61, 79]),
   midi.NoteOnEvent(tick=600, channel=0, data=[54, 79]),
   midi.NoteOffEvent(tick=1440, channel=0, data=[54, 79]),
   midi.NoteOnEvent(tick=0, channel=0, data=[56, 79]),
   midi.NoteOffEvent(tick=960, channel=0, data=[56, 79]),
   midi.NoteOnEvent(tick=0, channel=0, data=[58, 79]),
   midi.NoteOffEvent(tick=960, channel=0, data=[58, 79]),
   midi.NoteOnEvent(tick=480, channel=0, data=[61, 79]),
   midi.NoteOffEvent(tick=480, channel=0, data=[61, 79]),
   midi.NoteOnEvent(tick=0, channel=0, data=[61, 79]),
   midi.NoteOffEvent(tick=840, channel=0, data=[61, 79]),
   midi.NoteOnEvent(tick=120, channel=0, data=[61, 79]),
   midi.NoteOffEvent(tick=960, channel=0, data=[61, 79]),
   midi.NoteOnEvent(tick=0, channel=0, data=[54, 79]),
   midi.NoteOffEvent(tick=840, channel=0, data=[54, 79]),
   midi.NoteOnEvent(tick=120, channel=0, data=[54, 79]),
   midi.NoteOffEvent(tick=840, channel=0, data=[54, 79]),
   midi.NoteOnEvent(tick=120, channel=0, data=[58, 79]),
   midi.NoteOffEvent(tick=840, channel=0, data=[58, 79]),
   midi.NoteOnEvent(tick=120, channel=0, data=[56, 79]),
   midi.NoteOffEvent(tick=1800, channel=0, data=[56, 79]),
   midi.NoteOnEvent(tick=600, channel=0, data=[61, 79]),
   midi.NoteOffEvent(tick=480, channel=0, data=[61, 79]),
   midi.NoteOnEvent(tick=0, channel=0, data=[61, 79]),
   midi.NoteOffEvent(tick=840, channel=0, data=[61, 79]),
   midi.NoteOnEvent(tick=120, channel=0, data=[61, 79]),
   midi.NoteOffEvent(tick=1800, channel=0, data=[61, 79]),
   midi.NoteOnEvent(tick=120, channel=0, data=[54, 79]),
   midi.NoteOffEvent(tick=480, channel=0, data=[54, 79]),
   midi.NoteOnEvent(tick=0, channel=0, data=[54, 79]),
   midi.NoteOffEvent(tick=480, channel=0, data=[54, 79]),
   midi.NoteOnEvent(tick=0, channel=0, data=[54, 79]),
   midi.NoteOffEvent(tick=840, channel=0, data=[54, 79]),
   midi.NoteOnEvent(tick=120, channel=0, data=[58, 79]),
   midi.NoteOffEvent(tick=960, channel=0, data=[58, 79]),
   midi.NoteOnEvent(tick=0, channel=0, data=[56, 79]),
   midi.NoteOffEvent(tick=840, channel=0, data=[56, 79]),
   midi.NoteOnEvent(tick=120, channel=0, data=[54, 79]),
   midi.NoteOffEvent(tick=840, channel=0, data=[54, 79]),
   midi.NoteOnEvent(tick=120, channel=0, data=[58, 79]),
   midi.NoteOffEvent(tick=840, channel=0, data=[58, 79]),
   midi.NoteOnEvent(tick=120, channel=0, data=[56, 79]),
   midi.NoteOffEvent(tick=3840, channel=0, data=[56, 79]),
   midi.NoteOnEvent(tick=0, channel=0, data=[58, 79]),
   midi.NoteOffEvent(tick=240, channel=0, data=[58, 79]),
   midi.NoteOnEvent(tick=0, channel=0, data=[56, 79]),
   midi.NoteOffEvent(tick=240, channel=0, data=[56, 79]),
   midi.NoteOnEvent(tick=0, channel=0, data=[54, 79]),
   midi.NoteOffEvent(tick=840, channel=0, data=[54, 79]),
   midi.NoteOnEvent(tick=600, channel=0, data=[58, 79]),
   midi.NoteOffEvent(tick=480, channel=0, data=[58, 79]),
   midi.NoteOnEvent(tick=0, channel=0, data=[66, 79]),
   midi.NoteOffEvent(tick=480, channel=0, data=[66, 79]),
   midi.NoteOnEvent(tick=0, channel=0, data=[66, 79]),
   midi.NoteOffEvent(tick=840, channel=0, data=[66, 79]),
   midi.NoteOnEvent(tick=120, channel=0, data=[66, 79]),
   midi.NoteOffEvent(tick=2280, channel=0, data=[66, 79]),
   midi.NoteOnEvent(tick=120, channel=0, data=[63, 79]),
   midi.NoteOffEvent(tick=1320, channel=0, data=[63, 79]),
   midi.NoteOnEvent(tick=120, channel=0, data=[65, 79]),
   midi.NoteOffEvent(tick=1800, channel=0, data=[65, 79]),
   midi.NoteOnEvent(tick=600, channel=0, data=[66, 79]),
   midi.NoteOffEvent(tick=480, channel=0, data=[66, 79]),
   midi.NoteOnEvent(tick=0, channel=0, data=[66, 79]),
   midi.NoteOffEvent(tick=840, channel=0, data=[66, 79]),
   midi.NoteOnEvent(tick=120, channel=0, data=[66, 79]),
   midi.NoteOffEvent(tick=960, channel=0, data=[66, 79]),
   midi.NoteOnEvent(tick=0, channel=0, data=[63, 79]),
   midi.NoteOffEvent(tick=840, channel=0, data=[63, 79]),
   midi.NoteOnEvent(tick=120, channel=0, data=[63, 79]),
   midi.NoteOffEvent(tick=840, channel=0, data=[63, 79]),
   midi.NoteOnEvent(tick=120, channel=0, data=[66, 79]),
   midi.NoteOffEvent(tick=840, channel=0, data=[66, 79]),
   midi.NoteOnEvent(tick=120, channel=0, data=[65, 79]),
   midi.NoteOffEvent(tick=1800, channel=0, data=[65, 79]),
   midi.NoteOnEvent(tick=600, channel=0, data=[66, 79]),
   midi.NoteOffEvent(tick=480, channel=0, data=[66, 79]),
   midi.NoteOnEvent(tick=0, channel=0, data=[66, 79]),
   midi.NoteOffEvent(tick=840, channel=0, data=[66, 79]),
   midi.NoteOnEvent(tick=120, channel=0, data=[66, 79]),
   midi.NoteOffEvent(tick=1320, channel=0, data=[66, 79]),
   midi.NoteOnEvent(tick=600, channel=0, data=[63, 79]),
   midi.NoteOffEvent(tick=480, channel=0, data=[63, 79]),
   midi.NoteOnEvent(tick=0, channel=0, data=[63, 79]),
   midi.NoteOffEvent(tick=480, channel=0, data=[63, 79]),
   midi.NoteOnEvent(tick=0, channel=0, data=[63, 79]),
   midi.NoteOffEvent(tick=840, channel=0, data=[63, 79]),
   midi.NoteOnEvent(tick=120, channel=0, data=[66, 79]),
   midi.NoteOffEvent(tick=960, channel=0, data=[66, 79]),
   midi.NoteOnEvent(tick=0, channel=0, data=[65, 79]),
   midi.NoteOffEvent(tick=840, channel=0, data=[65, 79]),
   midi.NoteOnEvent(tick=120, channel=0, data=[63, 79]),
   midi.NoteOffEvent(tick=840, channel=0, data=[63, 79]),
   midi.NoteOnEvent(tick=120, channel=0, data=[66, 79]),
   midi.NoteOffEvent(tick=840, channel=0, data=[66, 79]),
   midi.NoteOnEvent(tick=120, channel=0, data=[65, 79]),
   midi.NoteOffEvent(tick=3840, channel=0, data=[65, 79]),
   midi.NoteOnEvent(tick=0, channel=0, data=[66, 79]),
   midi.NoteOffEvent(tick=240, channel=0, data=[66, 79]),
   midi.NoteOnEvent(tick=0, channel=0, data=[65, 79]),
   midi.NoteOffEvent(tick=240, channel=0, data=[65, 79]),
   midi.NoteOnEvent(tick=0, channel=0, data=[63, 79]),
   midi.NoteOffEvent(tick=840, channel=0, data=[63, 79]),
   midi.NoteOnEvent(tick=600, channel=0, data=[58, 79]),
   midi.NoteOffEvent(tick=480, channel=0, data=[58, 79]),
   midi.NoteOnEvent(tick=0, channel=0, data=[61, 79]),
   midi.NoteOffEvent(tick=840, channel=0, data=[61, 79]),
   midi.NoteOnEvent(tick=120, channel=0, data=[63, 79]),
   midi.NoteOffEvent(tick=840, channel=0, data=[63, 79]),
   midi.NoteOnEvent(tick=120, channel=0, data=[65, 79]),
   midi.NoteOffEvent(tick=1320, channel=0, data=[65, 79]),
   midi.NoteOnEvent(tick=120, channel=0, data=[65, 79]),
   midi.NoteOffEvent(tick=480, channel=0, data=[65, 79]),
   midi.NoteOnEvent(tick=0, channel=0, data=[65, 79]),
   midi.NoteOffEvent(tick=600, channel=0, data=[65, 79]),
   midi.NoteOnEvent(tick=120, channel=0, data=[61, 79]),
   midi.NoteOffEvent(tick=600, channel=0, data=[61, 79]),
   midi.NoteOnEvent(tick=120, channel=0, data=[61, 79]),
   midi.NoteOffEvent(tick=2880, channel=0, data=[61, 79]),
   midi.NoteOnEvent(tick=0, channel=0, data=[61, 79]),
   midi.NoteOffEvent(tick=240, channel=0, data=[61, 79]),
   midi.NoteOnEvent(tick=0, channel=0, data=[61, 79]),
   midi.NoteOffEvent(tick=480, channel=0, data=[61, 79]),
   midi.NoteOnEvent(tick=0, channel=0, data=[63, 79]),
   midi.NoteOffEvent(tick=480, channel=0, data=[63, 79]),
   midi.NoteOnEvent(tick=0, channel=0, data=[65, 79]),
   midi.NoteOffEvent(tick=1560, channel=0, data=[65, 79]),
   midi.NoteOnEvent(tick=120, channel=0, data=[63, 79]),
   midi.NoteOffEvent(tick=480, channel=0, data=[63, 79]),
   midi.NoteOnEvent(tick=0, channel=0, data=[65, 79]),
   midi.NoteOffEvent(tick=240, channel=0, data=[65, 79]),
   midi.NoteOnEvent(tick=0, channel=0, data=[63, 79]),
   midi.NoteOffEvent(tick=240, channel=0, data=[63, 79]),
   midi.NoteOnEvent(tick=0, channel=0, data=[65, 79]),
   midi.NoteOffEvent(tick=480, channel=0, data=[65, 79]),
   midi.NoteOnEvent(tick=0, channel=0, data=[66, 79]),
   midi.NoteOffEvent(tick=480, channel=0, data=[66, 79]),
   midi.NoteOnEvent(tick=0, channel=0, data=[65, 79]),
   midi.NoteOffEvent(tick=960, channel=0, data=[65, 79]),
   midi.NoteOnEvent(tick=0, channel=0, data=[63, 79]),
   midi.NoteOffEvent(tick=840, channel=0, data=[63, 79]),
   midi.NoteOnEvent(tick=120, channel=0, data=[58, 79]),
   midi.NoteOffEvent(tick=480, channel=0, data=[58, 79]),
   midi.NoteOnEvent(tick=0, channel=0, data=[61, 79]),
   midi.NoteOffEvent(tick=840, channel=0, data=[61, 79]),
   midi.NoteOnEvent(tick=120, channel=0, data=[63, 79]),
   midi.NoteOffEvent(tick=840, channel=0, data=[63, 79]),
   midi.NoteOnEvent(tick=120, channel=0, data=[65, 79]),
   midi.NoteOffEvent(tick=1320, channel=0, data=[65, 79]),
   midi.NoteOnEvent(tick=120, channel=0, data=[65, 79]),
   midi.NoteOffEvent(tick=480, channel=0, data=[65, 79]),
   midi.NoteOnEvent(tick=0, channel=0, data=[65, 79]),
   midi.NoteOffEvent(tick=600, channel=0, data=[65, 79]),
   midi.NoteOnEvent(tick=120, channel=0, data=[61, 79]),
   midi.NoteOffEvent(tick=600, channel=0, data=[61, 79]),
   midi.NoteOnEvent(tick=120, channel=0, data=[61, 79]),
   midi.NoteOffEvent(tick=2880, channel=0, data=[61, 79]),
   midi.NoteOnEvent(tick=0, channel=0, data=[61, 79]),
   midi.NoteOffEvent(tick=240, channel=0, data=[61, 79]),
   midi.NoteOnEvent(tick=0, channel=0, data=[61, 79]),
   midi.NoteOffEvent(tick=480, channel=0, data=[61, 79]),
   midi.NoteOnEvent(tick=0, channel=0, data=[63, 79]),
   midi.NoteOffEvent(tick=480, channel=0, data=[63, 79]),
   midi.NoteOnEvent(tick=0, channel=0, data=[65, 79]),
   midi.NoteOffEvent(tick=1560, channel=0, data=[65, 79]),
   midi.NoteOnEvent(tick=120, channel=0, data=[63, 79]),
   midi.NoteOffEvent(tick=480, channel=0, data=[63, 79]),
   midi.NoteOnEvent(tick=0, channel=0, data=[65, 79]),
   midi.NoteOffEvent(tick=240, channel=0, data=[65, 79]),
   midi.NoteOnEvent(tick=0, channel=0, data=[63, 79]),
   midi.NoteOffEvent(tick=240, channel=0, data=[63, 79]),
   midi.NoteOnEvent(tick=0, channel=0, data=[65, 79]),
   midi.NoteOffEvent(tick=480, channel=0, data=[65, 79]),
   midi.NoteOnEvent(tick=0, channel=0, data=[63, 79]),
   midi.NoteOffEvent(tick=480, channel=0, data=[63, 79]),
   midi.NoteOnEvent(tick=0, channel=0, data=[66, 79]),
   midi.NoteOffEvent(tick=960, channel=0, data=[66, 79]),
   midi.NoteOnEvent(tick=0, channel=0, data=[65, 79]),
   midi.NoteOffEvent(tick=480, channel=0, data=[65, 79]),
   midi.NoteOnEvent(tick=0, channel=0, data=[63, 79]),
   midi.NoteOffEvent(tick=480, channel=0, data=[63, 79]),
   midi.NoteOnEvent(tick=0, channel=0, data=[61, 79]),
   midi.NoteOffEvent(tick=960, channel=0, data=[61, 79]),
   midi.NoteOnEvent(tick=0, channel=0, data=[63, 79]),
   midi.NoteOffEvent(tick=240, channel=0, data=[63, 79]),
   midi.NoteOnEvent(tick=0, channel=0, data=[61, 79]),
   midi.NoteOffEvent(tick=240, channel=0, data=[61, 79]),
   midi.NoteOnEvent(tick=0, channel=0, data=[58, 79]),
   midi.NoteOffEvent(tick=1800, channel=0, data=[58, 79]),
   midi.EndOfTrackEvent(tick=0, data=[])]),
 midi.Track(\
  [midi.PitchWheelEvent(tick=0, channel=1, data=[0, 64]),
   midi.ControlChangeEvent(tick=0, channel=1, data=[7, 111]),
   midi.ControlChangeEvent(tick=0, channel=1, data=[10, 63]),
   midi.ControlChangeEvent(tick=0, channel=1, data=[93, 0]),
   midi.ControlChangeEvent(tick=0, channel=1, data=[91, 0]),
   midi.ControlChangeEvent(tick=0, channel=1, data=[95, 0]),
   midi.ControlChangeEvent(tick=0, channel=1, data=[92, 0]),
   midi.ControlChangeEvent(tick=0, channel=1, data=[11, 127]),
   midi.ProgramChangeEvent(tick=0, channel=1, data=[26]),
   midi.NoteOnEvent(tick=34560, channel=1, data=[58, 95]),
   midi.NoteOffEvent(tick=480, channel=1, data=[58, 95]),
   midi.NoteOnEvent(tick=0, channel=1, data=[58, 95]),
   midi.NoteOffEvent(tick=480, channel=1, data=[58, 95]),
   midi.NoteOnEvent(tick=720, channel=1, data=[58, 95]),
   midi.NoteOffEvent(tick=240, channel=1, data=[58, 95]),
   midi.NoteOnEvent(tick=0, channel=1, data=[58, 95]),
   midi.NoteOffEvent(tick=480, channel=1, data=[58, 95]),
   midi.NoteOnEvent(tick=0, channel=1, data=[58, 95]),
   midi.NoteOffEvent(tick=480, channel=1, data=[58, 95]),
   midi.NoteOnEvent(tick=0, channel=1, data=[58, 95]),
   midi.NoteOffEvent(tick=720, channel=1, data=[58, 95]),
   midi.NoteOnEvent(tick=0, channel=1, data=[58, 95]),
   midi.NoteOffEvent(tick=240, channel=1, data=[58, 95]),
   midi.NoteOnEvent(tick=0, channel=1, data=[58, 95]),
   midi.NoteOffEvent(tick=240, channel=1, data=[58, 95]),
   midi.NoteOnEvent(tick=0, channel=1, data=[58, 95]),
   midi.NoteOffEvent(tick=240, channel=1, data=[58, 95]),
   midi.NoteOnEvent(tick=0, channel=1, data=[58, 95]),
   midi.NoteOffEvent(tick=240, channel=1, data=[58, 95]),
   midi.NoteOnEvent(tick=0, channel=1, data=[58, 95]),
   midi.NoteOffEvent(tick=240, channel=1, data=[58, 95]),
   midi.NoteOnEvent(tick=0, channel=1, data=[58, 95]),
   midi.NoteOffEvent(tick=240, channel=1, data=[58, 95]),
   midi.NoteOnEvent(tick=0, channel=1, data=[58, 95]),
   midi.NoteOffEvent(tick=240, channel=1, data=[58, 95]),
   midi.NoteOnEvent(tick=0, channel=1, data=[58, 95]),
   midi.NoteOffEvent(tick=360, channel=1, data=[58, 95]),
   midi.NoteOnEvent(tick=120, channel=1, data=[58, 95]),
   midi.NoteOffEvent(tick=360, channel=1, data=[58, 95]),
   midi.NoteOnEvent(tick=120, channel=1, data=[58, 95]),
   midi.NoteOffEvent(tick=240, channel=1, data=[58, 95]),
   midi.NoteOnEvent(tick=0, channel=1, data=[58, 95]),
   midi.NoteOffEvent(tick=720, channel=1, data=[58, 95]),
   midi.NoteOnEvent(tick=240, channel=1, data=[58, 95]),
   midi.NoteOffEvent(tick=600, channel=1, data=[58, 95]),
   midi.NoteOnEvent(tick=120, channel=1, data=[58, 95]),
   midi.NoteOffEvent(tick=240, channel=1, data=[58, 95]),
   midi.NoteOnEvent(tick=0, channel=1, data=[58, 95]),
   midi.NoteOffEvent(tick=240, channel=1, data=[58, 95]),
   midi.NoteOnEvent(tick=0, channel=1, data=[58, 95]),
   midi.NoteOffEvent(tick=360, channel=1, data=[58, 95]),
   midi.NoteOnEvent(tick=120, channel=1, data=[58, 95]),
   midi.NoteOffEvent(tick=240, channel=1, data=[58, 95]),
   midi.NoteOnEvent(tick=0, channel=1, data=[58, 95]),
   midi.NoteOffEvent(tick=240, channel=1, data=[58, 95]),
   midi.NoteOnEvent(tick=0, channel=1, data=[58, 95]),
   midi.NoteOffEvent(tick=360, channel=1, data=[58, 95]),
   midi.NoteOnEvent(tick=120, channel=1, data=[58, 95]),
   midi.NoteOffEvent(tick=240, channel=1, data=[58, 95]),
   midi.NoteOnEvent(tick=0, channel=1, data=[58, 95]),
   midi.NoteOffEvent(tick=360, channel=1, data=[58, 95]),
   midi.NoteOnEvent(tick=120, channel=1, data=[58, 95]),
   midi.NoteOffEvent(tick=240, channel=1, data=[58, 95]),
   midi.NoteOnEvent(tick=0, channel=1, data=[58, 95]),
   midi.NoteOffEvent(tick=240, channel=1, data=[58, 95]),
   midi.NoteOnEvent(tick=0, channel=1, data=[58, 95]),
   midi.NoteOffEvent(tick=480, channel=1, data=[58, 95]),
   midi.NoteOnEvent(tick=0, channel=1, data=[58, 95]),
   midi.NoteOffEvent(tick=240, channel=1, data=[58, 95]),
   midi.NoteOnEvent(tick=0, channel=1, data=[58, 95]),
   midi.NoteOffEvent(tick=360, channel=1, data=[58, 95]),
   midi.NoteOnEvent(tick=120, channel=1, data=[58, 95]),
   midi.NoteOffEvent(tick=360, channel=1, data=[58, 95]),
   midi.NoteOnEvent(tick=600, channel=1, data=[58, 95]),
   midi.NoteOffEvent(tick=720, channel=1, data=[58, 95]),
   midi.NoteOnEvent(tick=240, channel=1, data=[59, 95]),
   midi.NoteOffEvent(tick=720, channel=1, data=[59, 95]),
   midi.NoteOnEvent(tick=240, channel=1, data=[58, 95]),
   midi.NoteOffEvent(tick=720, channel=1, data=[58, 95]),
   midi.NoteOnEvent(tick=240, channel=1, data=[58, 95]),
   midi.NoteOffEvent(tick=360, channel=1, data=[58, 95]),
   midi.NoteOnEvent(tick=120, channel=1, data=[58, 95]),
   midi.NoteOffEvent(tick=240, channel=1, data=[58, 95]),
   midi.NoteOnEvent(tick=0, channel=1, data=[58, 95]),
   midi.NoteOffEvent(tick=240, channel=1, data=[58, 95]),
   midi.NoteOnEvent(tick=0, channel=1, data=[58, 95]),
   midi.NoteOffEvent(tick=240, channel=1, data=[58, 95]),
   midi.NoteOnEvent(tick=0, channel=1, data=[58, 95]),
   midi.NoteOffEvent(tick=240, channel=1, data=[58, 95]),
   midi.NoteOnEvent(tick=0, channel=1, data=[58, 95]),
   midi.NoteOffEvent(tick=240, channel=1, data=[58, 95]),
   midi.NoteOnEvent(tick=0, channel=1, data=[58, 95]),
   midi.NoteOffEvent(tick=360, channel=1, data=[58, 95]),
   midi.NoteOnEvent(tick=600, channel=1, data=[58, 95]),
   midi.NoteOffEvent(tick=480, channel=1, data=[58, 95]),
   midi.NoteOnEvent(tick=0, channel=1, data=[58, 95]),
   midi.NoteOffEvent(tick=240, channel=1, data=[58, 95]),
   midi.NoteOnEvent(tick=0, channel=1, data=[58, 95]),
   midi.NoteOffEvent(tick=360, channel=1, data=[58, 95]),
   midi.NoteOnEvent(tick=120, channel=1, data=[58, 95]),
   midi.NoteOffEvent(tick=360, channel=1, data=[58, 95]),
   midi.NoteOnEvent(tick=120, channel=1, data=[58, 95]),
   midi.NoteOffEvent(tick=240, channel=1, data=[58, 95]),
   midi.NoteOnEvent(tick=0, channel=1, data=[58, 95]),
   midi.NoteOffEvent(tick=240, channel=1, data=[58, 95]),
   midi.NoteOnEvent(tick=0, channel=1, data=[58, 95]),
   midi.NoteOffEvent(tick=240, channel=1, data=[58, 95]),
   midi.NoteOnEvent(tick=0, channel=1, data=[58, 95]),
   midi.NoteOffEvent(tick=240, channel=1, data=[58, 95]),
   midi.NoteOnEvent(tick=0, channel=1, data=[58, 95]),
   midi.NoteOffEvent(tick=240, channel=1, data=[58, 95]),
   midi.NoteOnEvent(tick=0, channel=1, data=[58, 95]),
   midi.NoteOffEvent(tick=360, channel=1, data=[58, 95]),
   midi.NoteOnEvent(tick=600, channel=1, data=[58, 95]),
   midi.NoteOffEvent(tick=480, channel=1, data=[58, 95]),
   midi.NoteOnEvent(tick=0, channel=1, data=[58, 95]),
   midi.NoteOffEvent(tick=240, channel=1, data=[58, 95]),
   midi.NoteOnEvent(tick=0, channel=1, data=[58, 95]),
   midi.NoteOffEvent(tick=360, channel=1, data=[58, 95]),
   midi.NoteOnEvent(tick=120, channel=1, data=[58, 95]),
   midi.NoteOffEvent(tick=360, channel=1, data=[58, 95]),
   midi.NoteOnEvent(tick=120, channel=1, data=[58, 95]),
   midi.NoteOffEvent(tick=240, channel=1, data=[58, 95]),
   midi.NoteOnEvent(tick=0, channel=1, data=[58, 95]),
   midi.NoteOffEvent(tick=240, channel=1, data=[58, 95]),
   midi.NoteOnEvent(tick=0, channel=1, data=[58, 95]),
   midi.NoteOffEvent(tick=240, channel=1, data=[58, 95]),
   midi.NoteOnEvent(tick=0, channel=1, data=[58, 95]),
   midi.NoteOffEvent(tick=240, channel=1, data=[58, 95]),
   midi.NoteOnEvent(tick=0, channel=1, data=[58, 95]),
   midi.NoteOffEvent(tick=240, channel=1, data=[58, 95]),
   midi.NoteOnEvent(tick=0, channel=1, data=[58, 95]),
   midi.NoteOffEvent(tick=360, channel=1, data=[58, 95]),
   midi.NoteOnEvent(tick=120, channel=1, data=[58, 95]),
   midi.NoteOffEvent(tick=240, channel=1, data=[58, 95]),
   midi.NoteOnEvent(tick=0, channel=1, data=[58, 95]),
   midi.NoteOffEvent(tick=360, channel=1, data=[58, 95]),
   midi.NoteOnEvent(tick=120, channel=1, data=[58, 95]),
   midi.NoteOffEvent(tick=360, channel=1, data=[58, 95]),
   midi.NoteOnEvent(tick=120, channel=1, data=[58, 95]),
   midi.NoteOffEvent(tick=240, channel=1, data=[58, 95]),
   midi.NoteOnEvent(tick=0, channel=1, data=[58, 95]),
   midi.NoteOffEvent(tick=240, channel=1, data=[58, 95]),
   midi.NoteOnEvent(tick=0, channel=1, data=[58, 95]),
   midi.NoteOffEvent(tick=360, channel=1, data=[58, 95]),
   midi.NoteOnEvent(tick=600, channel=1, data=[58, 95]),
   midi.NoteOffEvent(tick=720, channel=1, data=[58, 95]),
   midi.NoteOnEvent(tick=240, channel=1, data=[59, 95]),
   midi.NoteOffEvent(tick=720, channel=1, data=[59, 95]),
   midi.NoteOnEvent(tick=240, channel=1, data=[58, 95]),
   midi.NoteOffEvent(tick=720, channel=1, data=[58, 95]),
   midi.NoteOnEvent(tick=240, channel=1, data=[58, 95]),
   midi.NoteOffEvent(tick=240, channel=1, data=[58, 95]),
   midi.NoteOnEvent(tick=0, channel=1, data=[58, 95]),
   midi.NoteOffEvent(tick=240, channel=1, data=[58, 95]),
   midi.NoteOnEvent(tick=0, channel=1, data=[58, 95]),
   midi.NoteOffEvent(tick=360, channel=1, data=[58, 95]),
   midi.NoteOnEvent(tick=120, channel=1, data=[58, 95]),
   midi.NoteOffEvent(tick=360, channel=1, data=[58, 95]),
   midi.NoteOnEvent(tick=120, channel=1, data=[58, 95]),
   midi.NoteOffEvent(tick=240, channel=1, data=[58, 95]),
   midi.NoteOnEvent(tick=0, channel=1, data=[58, 95]),
   midi.NoteOffEvent(tick=360, channel=1, data=[58, 95]),
   midi.NoteOnEvent(tick=600, channel=1, data=[58, 95]),
   midi.NoteOffEvent(tick=480, channel=1, data=[58, 95]),
   midi.NoteOnEvent(tick=0, channel=1, data=[58, 95]),
   midi.NoteOffEvent(tick=240, channel=1, data=[58, 95]),
   midi.NoteOnEvent(tick=0, channel=1, data=[58, 95]),
   midi.NoteOffEvent(tick=360, channel=1, data=[58, 95]),
   midi.NoteOnEvent(tick=120, channel=1, data=[58, 95]),
   midi.NoteOffEvent(tick=360, channel=1, data=[58, 95]),
   midi.NoteOnEvent(tick=120, channel=1, data=[58, 95]),
   midi.NoteOffEvent(tick=240, channel=1, data=[58, 95]),
   midi.NoteOnEvent(tick=0, channel=1, data=[58, 95]),
   midi.NoteOffEvent(tick=360, channel=1, data=[58, 95]),
   midi.NoteOnEvent(tick=120, channel=1, data=[58, 95]),
   midi.NoteOffEvent(tick=240, channel=1, data=[58, 95]),
   midi.NoteOnEvent(tick=0, channel=1, data=[58, 95]),
   midi.NoteOffEvent(tick=360, channel=1, data=[58, 95]),
   midi.NoteOnEvent(tick=120, channel=1, data=[58, 95]),
   midi.NoteOffEvent(tick=360, channel=1, data=[58, 95]),
   midi.NoteOnEvent(tick=360, channel=1, data=[58, 95]),
   midi.NoteOffEvent(tick=480, channel=1, data=[58, 95]),
   midi.NoteOnEvent(tick=0, channel=1, data=[58, 95]),
   midi.NoteOffEvent(tick=240, channel=1, data=[58, 95]),
   midi.NoteOnEvent(tick=0, channel=1, data=[58, 95]),
   midi.NoteOffEvent(tick=360, channel=1, data=[58, 95]),
   midi.NoteOnEvent(tick=120, channel=1, data=[58, 95]),
   midi.NoteOffEvent(tick=600, channel=1, data=[58, 95]),
   midi.NoteOnEvent(tick=120, channel=1, data=[58, 95]),
   midi.NoteOffEvent(tick=240, channel=1, data=[58, 95]),
   midi.NoteOnEvent(tick=0, channel=1, data=[58, 95]),
   midi.NoteOffEvent(tick=240, channel=1, data=[58, 95]),
   midi.NoteOnEvent(tick=0, channel=1, data=[58, 95]),
   midi.NoteOffEvent(tick=240, channel=1, data=[58, 95]),
   midi.NoteOnEvent(tick=0, channel=1, data=[58, 95]),
   midi.NoteOffEvent(tick=240, channel=1, data=[58, 95]),
   midi.NoteOnEvent(tick=0, channel=1, data=[58, 95]),
   midi.NoteOffEvent(tick=240, channel=1, data=[58, 95]),
   midi.NoteOnEvent(tick=0, channel=1, data=[58, 95]),
   midi.NoteOffEvent(tick=360, channel=1, data=[58, 95]),
   midi.NoteOnEvent(tick=120, channel=1, data=[58, 95]),
   midi.NoteOffEvent(tick=240, channel=1, data=[58, 95]),
   midi.NoteOnEvent(tick=0, channel=1, data=[58, 95]),
   midi.NoteOffEvent(tick=480, channel=1, data=[58, 95]),
   midi.NoteOnEvent(tick=0, channel=1, data=[58, 95]),
   midi.NoteOffEvent(tick=240, channel=1, data=[58, 95]),
   midi.NoteOnEvent(tick=0, channel=1, data=[58, 95]),
   midi.NoteOffEvent(tick=360, channel=1, data=[58, 95]),
   midi.NoteOnEvent(tick=120, channel=1, data=[58, 95]),
   midi.NoteOffEvent(tick=360, channel=1, data=[58, 95]),
   midi.NoteOnEvent(tick=120, channel=1, data=[58, 95]),
   midi.NoteOffEvent(tick=240, channel=1, data=[58, 95]),
   midi.NoteOnEvent(tick=0, channel=1, data=[58, 95]),
   midi.NoteOffEvent(tick=240, channel=1, data=[58, 95]),
   midi.NoteOnEvent(tick=0, channel=1, data=[58, 95]),
   midi.NoteOffEvent(tick=720, channel=1, data=[58, 95]),
   midi.NoteOnEvent(tick=240, channel=1, data=[58, 95]),
   midi.NoteOffEvent(tick=720, channel=1, data=[58, 95]),
   midi.NoteOnEvent(tick=240, channel=1, data=[58, 95]),
   midi.NoteOffEvent(tick=720, channel=1, data=[58, 95]),
   midi.NoteOnEvent(tick=0, channel=1, data=[58, 95]),
   midi.NoteOffEvent(tick=240, channel=1, data=[58, 95]),
   midi.NoteOnEvent(tick=0, channel=1, data=[58, 95]),
   midi.NoteOffEvent(tick=360, channel=1, data=[58, 95]),
   midi.NoteOnEvent(tick=120, channel=1, data=[58, 95]),
   midi.NoteOffEvent(tick=240, channel=1, data=[58, 95]),
   midi.NoteOnEvent(tick=0, channel=1, data=[58, 95]),
   midi.NoteOffEvent(tick=240, channel=1, data=[58, 95]),
   midi.NoteOnEvent(tick=0, channel=1, data=[58, 95]),
   midi.NoteOffEvent(tick=360, channel=1, data=[58, 95]),
   midi.NoteOnEvent(tick=120, channel=1, data=[58, 95]),
   midi.NoteOffEvent(tick=240, channel=1, data=[58, 95]),
   midi.NoteOnEvent(tick=0, channel=1, data=[58, 95]),
   midi.NoteOffEvent(tick=360, channel=1, data=[58, 95]),
   midi.NoteOnEvent(tick=120, channel=1, data=[58, 95]),
   midi.NoteOffEvent(tick=240, channel=1, data=[58, 95]),
   midi.NoteOnEvent(tick=0, channel=1, data=[58, 95]),
   midi.NoteOffEvent(tick=240, channel=1, data=[58, 95]),
   midi.NoteOnEvent(tick=0, channel=1, data=[58, 95]),
   midi.NoteOffEvent(tick=240, channel=1, data=[58, 95]),
   midi.NoteOnEvent(tick=0, channel=1, data=[58, 95]),
   midi.NoteOffEvent(tick=360, channel=1, data=[58, 95]),
   midi.NoteOnEvent(tick=120, channel=1, data=[58, 95]),
   midi.NoteOffEvent(tick=240, channel=1, data=[58, 95]),
   midi.NoteOnEvent(tick=0, channel=1, data=[58, 95]),
   midi.NoteOffEvent(tick=720, channel=1, data=[58, 95]),
   midi.NoteOnEvent(tick=240, channel=1, data=[58, 95]),
   midi.NoteOffEvent(tick=240, channel=1, data=[58, 95]),
   midi.NoteOnEvent(tick=0, channel=1, data=[58, 95]),
   midi.NoteOffEvent(tick=360, channel=1, data=[58, 95]),
   midi.NoteOnEvent(tick=120, channel=1, data=[58, 95]),
   midi.NoteOffEvent(tick=240, channel=1, data=[58, 95]),
   midi.NoteOnEvent(tick=0, channel=1, data=[58, 95]),
   midi.NoteOffEvent(tick=240, channel=1, data=[58, 95]),
   midi.NoteOnEvent(tick=0, channel=1, data=[58, 95]),
   midi.NoteOffEvent(tick=360, channel=1, data=[58, 95]),
   midi.NoteOnEvent(tick=600, channel=1, data=[58, 95]),
   midi.NoteOffEvent(tick=240, channel=1, data=[58, 95]),
   midi.NoteOnEvent(tick=0, channel=1, data=[58, 95]),
   midi.NoteOffEvent(tick=240, channel=1, data=[58, 95]),
   midi.NoteOnEvent(tick=0, channel=1, data=[58, 95]),
   midi.NoteOffEvent(tick=240, channel=1, data=[58, 95]),
   midi.NoteOnEvent(tick=0, channel=1, data=[58, 95]),
   midi.NoteOffEvent(tick=240, channel=1, data=[58, 95]),
   midi.NoteOnEvent(tick=0, channel=1, data=[58, 95]),
   midi.NoteOffEvent(tick=360, channel=1, data=[58, 95]),
   midi.NoteOnEvent(tick=120, channel=1, data=[58, 95]),
   midi.NoteOffEvent(tick=240, channel=1, data=[58, 95]),
   midi.NoteOnEvent(tick=0, channel=1, data=[58, 95]),
   midi.NoteOffEvent(tick=240, channel=1, data=[58, 95]),
   midi.NoteOnEvent(tick=0, channel=1, data=[58, 95]),
   midi.NoteOffEvent(tick=240, channel=1, data=[58, 95]),
   midi.NoteOnEvent(tick=0, channel=1, data=[58, 95]),
   midi.NoteOffEvent(tick=240, channel=1, data=[58, 95]),
   midi.NoteOnEvent(tick=0, channel=1, data=[58, 95]),
   midi.NoteOffEvent(tick=360, channel=1, data=[58, 95]),
   midi.NoteOnEvent(tick=120, channel=1, data=[58, 95]),
   midi.NoteOffEvent(tick=240, channel=1, data=[58, 95]),
   midi.NoteOnEvent(tick=0, channel=1, data=[58, 95]),
   midi.NoteOffEvent(tick=240, channel=1, data=[58, 95]),
   midi.NoteOnEvent(tick=0, channel=1, data=[58, 95]),
   midi.NoteOffEvent(tick=240, channel=1, data=[58, 95]),
   midi.NoteOnEvent(tick=0, channel=1, data=[58, 95]),
   midi.NoteOffEvent(tick=240, channel=1, data=[58, 95]),
   midi.NoteOnEvent(tick=0, channel=1, data=[58, 95]),
   midi.NoteOffEvent(tick=360, channel=1, data=[58, 95]),
   midi.NoteOnEvent(tick=120, channel=1, data=[58, 95]),
   midi.NoteOffEvent(tick=240, channel=1, data=[58, 95]),
   midi.NoteOnEvent(tick=0, channel=1, data=[58, 95]),
   midi.NoteOffEvent(tick=240, channel=1, data=[58, 95]),
   midi.NoteOnEvent(tick=0, channel=1, data=[58, 95]),
   midi.NoteOffEvent(tick=360, channel=1, data=[58, 95]),
   midi.NoteOnEvent(tick=120, channel=1, data=[58, 95]),
   midi.NoteOffEvent(tick=360, channel=1, data=[58, 95]),
   midi.NoteOnEvent(tick=120, channel=1, data=[58, 95]),
   midi.NoteOffEvent(tick=720, channel=1, data=[58, 95]),
   midi.NoteOnEvent(tick=240, channel=1, data=[58, 95]),
   midi.NoteOffEvent(tick=720, channel=1, data=[58, 95]),
   midi.NoteOnEvent(tick=240, channel=1, data=[58, 95]),
   midi.NoteOffEvent(tick=720, channel=1, data=[58, 95]),
   midi.NoteOnEvent(tick=30000, channel=1, data=[58, 95]),
   midi.NoteOffEvent(tick=480, channel=1, data=[58, 95]),
   midi.NoteOnEvent(tick=0, channel=1, data=[58, 95]),
   midi.NoteOffEvent(tick=480, channel=1, data=[58, 95]),
   midi.NoteOnEvent(tick=720, channel=1, data=[58, 95]),
   midi.NoteOffEvent(tick=240, channel=1, data=[58, 95]),
   midi.NoteOnEvent(tick=0, channel=1, data=[58, 95]),
   midi.NoteOffEvent(tick=480, channel=1, data=[58, 95]),
   midi.NoteOnEvent(tick=0, channel=1, data=[58, 95]),
   midi.NoteOffEvent(tick=480, channel=1, data=[58, 95]),
   midi.NoteOnEvent(tick=0, channel=1, data=[58, 95]),
   midi.NoteOffEvent(tick=720, channel=1, data=[58, 95]),
   midi.NoteOnEvent(tick=0, channel=1, data=[58, 95]),
   midi.NoteOffEvent(tick=240, channel=1, data=[58, 95]),
   midi.NoteOnEvent(tick=0, channel=1, data=[58, 95]),
   midi.NoteOffEvent(tick=240, channel=1, data=[58, 95]),
   midi.NoteOnEvent(tick=0, channel=1, data=[58, 95]),
   midi.NoteOffEvent(tick=240, channel=1, data=[58, 95]),
   midi.NoteOnEvent(tick=0, channel=1, data=[58, 95]),
   midi.NoteOffEvent(tick=240, channel=1, data=[58, 95]),
   midi.NoteOnEvent(tick=0, channel=1, data=[58, 95]),
   midi.NoteOffEvent(tick=240, channel=1, data=[58, 95]),
   midi.NoteOnEvent(tick=0, channel=1, data=[58, 95]),
   midi.NoteOffEvent(tick=240, channel=1, data=[58, 95]),
   midi.NoteOnEvent(tick=0, channel=1, data=[58, 95]),
   midi.NoteOffEvent(tick=240, channel=1, data=[58, 95]),
   midi.NoteOnEvent(tick=0, channel=1, data=[58, 95]),
   midi.NoteOffEvent(tick=360, channel=1, data=[58, 95]),
   midi.NoteOnEvent(tick=120, channel=1, data=[58, 95]),
   midi.NoteOffEvent(tick=360, channel=1, data=[58, 95]),
   midi.NoteOnEvent(tick=120, channel=1, data=[58, 95]),
   midi.NoteOffEvent(tick=240, channel=1, data=[58, 95]),
   midi.NoteOnEvent(tick=0, channel=1, data=[58, 95]),
   midi.NoteOffEvent(tick=720, channel=1, data=[58, 95]),
   midi.NoteOnEvent(tick=240, channel=1, data=[58, 95]),
   midi.NoteOffEvent(tick=600, channel=1, data=[58, 95]),
   midi.NoteOnEvent(tick=120, channel=1, data=[58, 95]),
   midi.NoteOffEvent(tick=240, channel=1, data=[58, 95]),
   midi.NoteOnEvent(tick=0, channel=1, data=[58, 95]),
   midi.NoteOffEvent(tick=240, channel=1, data=[58, 95]),
   midi.NoteOnEvent(tick=0, channel=1, data=[58, 95]),
   midi.NoteOffEvent(tick=360, channel=1, data=[58, 95]),
   midi.NoteOnEvent(tick=120, channel=1, data=[58, 95]),
   midi.NoteOffEvent(tick=240, channel=1, data=[58, 95]),
   midi.NoteOnEvent(tick=0, channel=1, data=[58, 95]),
   midi.NoteOffEvent(tick=240, channel=1, data=[58, 95]),
   midi.NoteOnEvent(tick=0, channel=1, data=[58, 95]),
   midi.NoteOffEvent(tick=360, channel=1, data=[58, 95]),
   midi.NoteOnEvent(tick=120, channel=1, data=[58, 95]),
   midi.NoteOffEvent(tick=240, channel=1, data=[58, 95]),
   midi.NoteOnEvent(tick=0, channel=1, data=[58, 95]),
   midi.NoteOffEvent(tick=360, channel=1, data=[58, 95]),
   midi.NoteOnEvent(tick=120, channel=1, data=[58, 95]),
   midi.NoteOffEvent(tick=240, channel=1, data=[58, 95]),
   midi.NoteOnEvent(tick=0, channel=1, data=[58, 95]),
   midi.NoteOffEvent(tick=240, channel=1, data=[58, 95]),
   midi.NoteOnEvent(tick=0, channel=1, data=[58, 95]),
   midi.NoteOffEvent(tick=480, channel=1, data=[58, 95]),
   midi.NoteOnEvent(tick=0, channel=1, data=[58, 95]),
   midi.NoteOffEvent(tick=240, channel=1, data=[58, 95]),
   midi.NoteOnEvent(tick=0, channel=1, data=[58, 95]),
   midi.NoteOffEvent(tick=360, channel=1, data=[58, 95]),
   midi.NoteOnEvent(tick=120, channel=1, data=[58, 95]),
   midi.NoteOffEvent(tick=360, channel=1, data=[58, 95]),
   midi.NoteOnEvent(tick=120, channel=1, data=[58, 95]),
   midi.NoteOffEvent(tick=360, channel=1, data=[58, 95]),
   midi.NoteOnEvent(tick=120, channel=1, data=[58, 95]),
   midi.NoteOffEvent(tick=720, channel=1, data=[58, 95]),
   midi.NoteOnEvent(tick=240, channel=1, data=[59, 95]),
   midi.NoteOffEvent(tick=720, channel=1, data=[59, 95]),
   midi.NoteOnEvent(tick=240, channel=1, data=[58, 95]),
   midi.NoteOffEvent(tick=720, channel=1, data=[58, 95]),
   midi.NoteOnEvent(tick=0, channel=1, data=[58, 95]),
   midi.NoteOffEvent(tick=240, channel=1, data=[58, 95]),
   midi.NoteOnEvent(tick=0, channel=1, data=[58, 95]),
   midi.NoteOffEvent(tick=360, channel=1, data=[58, 95]),
   midi.NoteOnEvent(tick=120, channel=1, data=[58, 95]),
   midi.NoteOffEvent(tick=240, channel=1, data=[58, 95]),
   midi.NoteOnEvent(tick=0, channel=1, data=[58, 95]),
   midi.NoteOffEvent(tick=240, channel=1, data=[58, 95]),
   midi.NoteOnEvent(tick=0, channel=1, data=[58, 95]),
   midi.NoteOffEvent(tick=240, channel=1, data=[58, 95]),
   midi.NoteOnEvent(tick=0, channel=1, data=[58, 95]),
   midi.NoteOffEvent(tick=240, channel=1, data=[58, 95]),
   midi.NoteOnEvent(tick=0, channel=1, data=[58, 95]),
   midi.NoteOffEvent(tick=240, channel=1, data=[58, 95]),
   midi.NoteOnEvent(tick=0, channel=1, data=[58, 95]),
   midi.NoteOffEvent(tick=360, channel=1, data=[58, 95]),
   midi.NoteOnEvent(tick=120, channel=1, data=[58, 95]),
   midi.NoteOffEvent(tick=240, channel=1, data=[58, 95]),
   midi.NoteOnEvent(tick=0, channel=1, data=[58, 95]),
   midi.NoteOffEvent(tick=360, channel=1, data=[58, 95]),
   midi.NoteOnEvent(tick=600, channel=1, data=[58, 95]),
   midi.NoteOffEvent(tick=240, channel=1, data=[58, 95]),
   midi.NoteOnEvent(tick=0, channel=1, data=[58, 95]),
   midi.NoteOffEvent(tick=240, channel=1, data=[58, 95]),
   midi.NoteOnEvent(tick=0, channel=1, data=[58, 95]),
   midi.NoteOffEvent(tick=360, channel=1, data=[58, 95]),
   midi.NoteOnEvent(tick=120, channel=1, data=[58, 95]),
   midi.NoteOffEvent(tick=240, channel=1, data=[58, 95]),
   midi.NoteOnEvent(tick=0, channel=1, data=[58, 95]),
   midi.NoteOffEvent(tick=240, channel=1, data=[58, 95]),
   midi.NoteOnEvent(tick=0, channel=1, data=[58, 95]),
   midi.NoteOffEvent(tick=240, channel=1, data=[58, 95]),
   midi.NoteOnEvent(tick=0, channel=1, data=[58, 95]),
   midi.NoteOffEvent(tick=240, channel=1, data=[58, 95]),
   midi.NoteOnEvent(tick=0, channel=1, data=[58, 95]),
   midi.NoteOffEvent(tick=240, channel=1, data=[58, 95]),
   midi.NoteOnEvent(tick=0, channel=1, data=[58, 95]),
   midi.NoteOffEvent(tick=360, channel=1, data=[58, 95]),
   midi.NoteOnEvent(tick=120, channel=1, data=[58, 95]),
   midi.NoteOffEvent(tick=240, channel=1, data=[58, 95]),
   midi.NoteOnEvent(tick=0, channel=1, data=[58, 95]),
   midi.NoteOffEvent(tick=360, channel=1, data=[58, 95]),
   midi.NoteOnEvent(tick=360, channel=1, data=[58, 95]),
   midi.NoteOffEvent(tick=240, channel=1, data=[58, 95]),
   midi.NoteOnEvent(tick=0, channel=1, data=[58, 95]),
   midi.NoteOffEvent(tick=240, channel=1, data=[58, 95]),
   midi.NoteOnEvent(tick=0, channel=1, data=[58, 95]),
   midi.NoteOffEvent(tick=240, channel=1, data=[58, 95]),
   midi.NoteOnEvent(tick=0, channel=1, data=[58, 95]),
   midi.NoteOffEvent(tick=360, channel=1, data=[58, 95]),
   midi.NoteOnEvent(tick=120, channel=1, data=[58, 95]),
   midi.NoteOffEvent(tick=240, channel=1, data=[58, 95]),
   midi.NoteOnEvent(tick=0, channel=1, data=[58, 95]),
   midi.NoteOffEvent(tick=240, channel=1, data=[58, 95]),
   midi.NoteOnEvent(tick=0, channel=1, data=[58, 95]),
   midi.NoteOffEvent(tick=360, channel=1, data=[58, 95]),
   midi.NoteOnEvent(tick=120, channel=1, data=[58, 95]),
   midi.NoteOffEvent(tick=240, channel=1, data=[58, 95]),
   midi.NoteOnEvent(tick=0, channel=1, data=[58, 95]),
   midi.NoteOffEvent(tick=360, channel=1, data=[58, 95]),
   midi.NoteOnEvent(tick=120, channel=1, data=[58, 95]),
   midi.NoteOffEvent(tick=240, channel=1, data=[58, 95]),
   midi.NoteOnEvent(tick=0, channel=1, data=[58, 95]),
   midi.NoteOffEvent(tick=360, channel=1, data=[58, 95]),
   midi.NoteOnEvent(tick=360, channel=1, data=[58, 95]),
   midi.NoteOffEvent(tick=360, channel=1, data=[58, 95]),
   midi.NoteOnEvent(tick=120, channel=1, data=[58, 95]),
   midi.NoteOffEvent(tick=240, channel=1, data=[58, 95]),
   midi.NoteOnEvent(tick=0, channel=1, data=[58, 95]),
   midi.NoteOffEvent(tick=360, channel=1, data=[58, 95]),
   midi.NoteOnEvent(tick=120, channel=1, data=[58, 95]),
   midi.NoteOffEvent(tick=360, channel=1, data=[58, 95]),
   midi.NoteOnEvent(tick=120, channel=1, data=[58, 95]),
   midi.NoteOffEvent(tick=720, channel=1, data=[58, 95]),
   midi.NoteOnEvent(tick=240, channel=1, data=[59, 95]),
   midi.NoteOffEvent(tick=720, channel=1, data=[59, 95]),
   midi.NoteOnEvent(tick=240, channel=1, data=[58, 95]),
   midi.NoteOffEvent(tick=720, channel=1, data=[58, 95]),
   midi.NoteOnEvent(tick=240, channel=1, data=[58, 95]),
   midi.NoteOffEvent(tick=600, channel=1, data=[58, 95]),
   midi.NoteOnEvent(tick=120, channel=1, data=[58, 95]),
   midi.NoteOffEvent(tick=240, channel=1, data=[58, 95]),
   midi.NoteOnEvent(tick=0, channel=1, data=[58, 95]),
   midi.NoteOffEvent(tick=360, channel=1, data=[58, 95]),
   midi.NoteOnEvent(tick=120, channel=1, data=[58, 95]),
   midi.NoteOffEvent(tick=240, channel=1, data=[58, 95]),
   midi.NoteOnEvent(tick=0, channel=1, data=[58, 95]),
   midi.NoteOffEvent(tick=360, channel=1, data=[58, 95]),
   midi.NoteOnEvent(tick=120, channel=1, data=[58, 95]),
   midi.NoteOffEvent(tick=240, channel=1, data=[58, 95]),
   midi.NoteOnEvent(tick=0, channel=1, data=[58, 95]),
   midi.NoteOffEvent(tick=360, channel=1, data=[58, 95]),
   midi.NoteOnEvent(tick=840, channel=1, data=[58, 95]),
   midi.NoteOffEvent(tick=240, channel=1, data=[58, 95]),
   midi.NoteOnEvent(tick=0, channel=1, data=[58, 95]),
   midi.NoteOffEvent(tick=240, channel=1, data=[58, 95]),
   midi.NoteOnEvent(tick=0, channel=1, data=[58, 95]),
   midi.NoteOffEvent(tick=240, channel=1, data=[58, 95]),
   midi.NoteOnEvent(tick=0, channel=1, data=[58, 95]),
   midi.NoteOffEvent(tick=240, channel=1, data=[58, 95]),
   midi.NoteOnEvent(tick=0, channel=1, data=[58, 95]),
   midi.NoteOffEvent(tick=240, channel=1, data=[58, 95]),
   midi.NoteOnEvent(tick=0, channel=1, data=[58, 95]),
   midi.NoteOffEvent(tick=240, channel=1, data=[58, 95]),
   midi.NoteOnEvent(tick=0, channel=1, data=[58, 95]),
   midi.NoteOffEvent(tick=240, channel=1, data=[58, 95]),
   midi.NoteOnEvent(tick=0, channel=1, data=[58, 95]),
   midi.NoteOffEvent(tick=240, channel=1, data=[58, 95]),
   midi.NoteOnEvent(tick=0, channel=1, data=[58, 95]),
   midi.NoteOffEvent(tick=240, channel=1, data=[58, 95]),
   midi.NoteOnEvent(tick=0, channel=1, data=[58, 95]),
   midi.NoteOffEvent(tick=240, channel=1, data=[58, 95]),
   midi.NoteOnEvent(tick=0, channel=1, data=[58, 95]),
   midi.NoteOffEvent(tick=240, channel=1, data=[58, 95]),
   midi.NoteOnEvent(tick=0, channel=1, data=[58, 95]),
   midi.NoteOffEvent(tick=360, channel=1, data=[58, 95]),
   midi.NoteOnEvent(tick=600, channel=1, data=[58, 95]),
   midi.NoteOffEvent(tick=360, channel=1, data=[58, 95]),
   midi.NoteOnEvent(tick=120, channel=1, data=[58, 95]),
   midi.NoteOffEvent(tick=480, channel=1, data=[58, 95]),
   midi.NoteOnEvent(tick=0, channel=1, data=[58, 95]),
   midi.NoteOffEvent(tick=240, channel=1, data=[58, 95]),
   midi.NoteOnEvent(tick=0, channel=1, data=[58, 95]),
   midi.NoteOffEvent(tick=360, channel=1, data=[58, 95]),
   midi.NoteOnEvent(tick=120, channel=1, data=[58, 95]),
   midi.NoteOffEvent(tick=240, channel=1, data=[58, 95]),
   midi.NoteOnEvent(tick=0, channel=1, data=[58, 95]),
   midi.NoteOffEvent(tick=360, channel=1, data=[58, 95]),
   midi.NoteOnEvent(tick=120, channel=1, data=[58, 95]),
   midi.NoteOffEvent(tick=360, channel=1, data=[58, 95]),
   midi.NoteOnEvent(tick=120, channel=1, data=[58, 95]),
   midi.NoteOffEvent(tick=240, channel=1, data=[58, 95]),
   midi.NoteOnEvent(tick=0, channel=1, data=[58, 95]),
   midi.NoteOffEvent(tick=240, channel=1, data=[58, 95]),
   midi.NoteOnEvent(tick=0, channel=1, data=[58, 95]),
   midi.NoteOffEvent(tick=360, channel=1, data=[58, 95]),
   midi.NoteOnEvent(tick=120, channel=1, data=[58, 95]),
   midi.NoteOffEvent(tick=360, channel=1, data=[58, 95]),
   midi.NoteOnEvent(tick=120, channel=1, data=[58, 95]),
   midi.NoteOffEvent(tick=360, channel=1, data=[58, 95]),
   midi.NoteOnEvent(tick=120, channel=1, data=[58, 95]),
   midi.NoteOffEvent(tick=240, channel=1, data=[58, 95]),
   midi.NoteOnEvent(tick=0, channel=1, data=[58, 95]),
   midi.NoteOffEvent(tick=240, channel=1, data=[58, 95]),
   midi.NoteOnEvent(tick=0, channel=1, data=[58, 95]),
   midi.NoteOffEvent(tick=720, channel=1, data=[58, 95]),
   midi.NoteOnEvent(tick=240, channel=1, data=[58, 95]),
   midi.NoteOffEvent(tick=720, channel=1, data=[58, 95]),
   midi.NoteOnEvent(tick=240, channel=1, data=[58, 95]),
   midi.NoteOffEvent(tick=720, channel=1, data=[58, 95]),
   midi.NoteOnEvent(tick=0, channel=1, data=[58, 95]),
   midi.NoteOffEvent(tick=240, channel=1, data=[58, 95]),
   midi.NoteOnEvent(tick=0, channel=1, data=[58, 95]),
   midi.NoteOffEvent(tick=360, channel=1, data=[58, 95]),
   midi.NoteOnEvent(tick=120, channel=1, data=[58, 95]),
   midi.NoteOffEvent(tick=240, channel=1, data=[58, 95]),
   midi.NoteOnEvent(tick=0, channel=1, data=[58, 95]),
   midi.NoteOffEvent(tick=240, channel=1, data=[58, 95]),
   midi.NoteOnEvent(tick=0, channel=1, data=[58, 95]),
   midi.NoteOffEvent(tick=360, channel=1, data=[58, 95]),
   midi.NoteOnEvent(tick=120, channel=1, data=[58, 95]),
   midi.NoteOffEvent(tick=240, channel=1, data=[58, 95]),
   midi.NoteOnEvent(tick=0, channel=1, data=[58, 95]),
   midi.NoteOffEvent(tick=360, channel=1, data=[58, 95]),
   midi.NoteOnEvent(tick=120, channel=1, data=[58, 95]),
   midi.NoteOffEvent(tick=240, channel=1, data=[58, 95]),
   midi.NoteOnEvent(tick=0, channel=1, data=[58, 95]),
   midi.NoteOffEvent(tick=240, channel=1, data=[58, 95]),
   midi.NoteOnEvent(tick=0, channel=1, data=[58, 95]),
   midi.NoteOffEvent(tick=240, channel=1, data=[58, 95]),
   midi.NoteOnEvent(tick=0, channel=1, data=[58, 95]),
   midi.NoteOffEvent(tick=360, channel=1, data=[58, 95]),
   midi.NoteOnEvent(tick=120, channel=1, data=[58, 95]),
   midi.NoteOffEvent(tick=240, channel=1, data=[58, 95]),
   midi.NoteOnEvent(tick=0, channel=1, data=[58, 95]),
   midi.NoteOffEvent(tick=720, channel=1, data=[58, 95]),
   midi.NoteOnEvent(tick=240, channel=1, data=[58, 95]),
   midi.NoteOffEvent(tick=240, channel=1, data=[58, 95]),
   midi.NoteOnEvent(tick=0, channel=1, data=[58, 95]),
   midi.NoteOffEvent(tick=360, channel=1, data=[58, 95]),
   midi.NoteOnEvent(tick=120, channel=1, data=[58, 95]),
   midi.NoteOffEvent(tick=240, channel=1, data=[58, 95]),
   midi.NoteOnEvent(tick=0, channel=1, data=[58, 95]),
   midi.NoteOffEvent(tick=240, channel=1, data=[58, 95]),
   midi.NoteOnEvent(tick=0, channel=1, data=[58, 95]),
   midi.NoteOffEvent(tick=360, channel=1, data=[58, 95]),
   midi.NoteOnEvent(tick=600, channel=1, data=[58, 95]),
   midi.NoteOffEvent(tick=240, channel=1, data=[58, 95]),
   midi.NoteOnEvent(tick=0, channel=1, data=[58, 95]),
   midi.NoteOffEvent(tick=240, channel=1, data=[58, 95]),
   midi.NoteOnEvent(tick=0, channel=1, data=[58, 95]),
   midi.NoteOffEvent(tick=240, channel=1, data=[58, 95]),
   midi.NoteOnEvent(tick=0, channel=1, data=[58, 95]),
   midi.NoteOffEvent(tick=240, channel=1, data=[58, 95]),
   midi.NoteOnEvent(tick=0, channel=1, data=[58, 95]),
   midi.NoteOffEvent(tick=360, channel=1, data=[58, 95]),
   midi.NoteOnEvent(tick=120, channel=1, data=[58, 95]),
   midi.NoteOffEvent(tick=240, channel=1, data=[58, 95]),
   midi.NoteOnEvent(tick=0, channel=1, data=[58, 95]),
   midi.NoteOffEvent(tick=240, channel=1, data=[58, 95]),
   midi.NoteOnEvent(tick=0, channel=1, data=[58, 95]),
   midi.NoteOffEvent(tick=240, channel=1, data=[58, 95]),
   midi.NoteOnEvent(tick=0, channel=1, data=[58, 95]),
   midi.NoteOffEvent(tick=240, channel=1, data=[58, 95]),
   midi.NoteOnEvent(tick=0, channel=1, data=[58, 95]),
   midi.NoteOffEvent(tick=360, channel=1, data=[58, 95]),
   midi.NoteOnEvent(tick=120, channel=1, data=[58, 95]),
   midi.NoteOffEvent(tick=240, channel=1, data=[58, 95]),
   midi.NoteOnEvent(tick=0, channel=1, data=[58, 95]),
   midi.NoteOffEvent(tick=240, channel=1, data=[58, 95]),
   midi.NoteOnEvent(tick=0, channel=1, data=[58, 95]),
   midi.NoteOffEvent(tick=240, channel=1, data=[58, 95]),
   midi.NoteOnEvent(tick=0, channel=1, data=[58, 95]),
   midi.NoteOffEvent(tick=240, channel=1, data=[58, 95]),
   midi.NoteOnEvent(tick=0, channel=1, data=[58, 95]),
   midi.NoteOffEvent(tick=360, channel=1, data=[58, 95]),
   midi.NoteOnEvent(tick=120, channel=1, data=[58, 95]),
   midi.NoteOffEvent(tick=240, channel=1, data=[58, 95]),
   midi.NoteOnEvent(tick=0, channel=1, data=[58, 95]),
   midi.NoteOffEvent(tick=240, channel=1, data=[58, 95]),
   midi.NoteOnEvent(tick=0, channel=1, data=[58, 95]),
   midi.NoteOffEvent(tick=360, channel=1, data=[58, 95]),
   midi.NoteOnEvent(tick=120, channel=1, data=[58, 95]),
   midi.NoteOffEvent(tick=360, channel=1, data=[58, 95]),
   midi.NoteOnEvent(tick=120, channel=1, data=[58, 95]),
   midi.NoteOffEvent(tick=720, channel=1, data=[58, 95]),
   midi.NoteOnEvent(tick=240, channel=1, data=[58, 95]),
   midi.NoteOffEvent(tick=720, channel=1, data=[58, 95]),
   midi.NoteOnEvent(tick=240, channel=1, data=[58, 95]),
   midi.NoteOffEvent(tick=720, channel=1, data=[58, 95]),
   midi.EndOfTrackEvent(tick=0, data=[])]),
 midi.Track(\
  [midi.PitchWheelEvent(tick=0, channel=2, data=[0, 64]),
   midi.ControlChangeEvent(tick=0, channel=2, data=[7, 47]),
   midi.ControlChangeEvent(tick=0, channel=2, data=[10, 63]),
   midi.ControlChangeEvent(tick=0, channel=2, data=[93, 0]),
   midi.ControlChangeEvent(tick=0, channel=2, data=[91, 0]),
   midi.ControlChangeEvent(tick=0, channel=2, data=[95, 0]),
   midi.ControlChangeEvent(tick=0, channel=2, data=[92, 0]),
   midi.ControlChangeEvent(tick=0, channel=2, data=[11, 127]),
   midi.ProgramChangeEvent(tick=0, channel=2, data=[65]),
   midi.NoteOnEvent(tick=34560, channel=2, data=[58, 79]),
   midi.NoteOffEvent(tick=480, channel=2, data=[58, 79]),
   midi.NoteOnEvent(tick=0, channel=2, data=[58, 79]),
   midi.NoteOffEvent(tick=480, channel=2, data=[58, 79]),
   midi.NoteOnEvent(tick=12000, channel=2, data=[58, 79]),
   midi.NoteOffEvent(tick=720, channel=2, data=[58, 79]),
   midi.NoteOnEvent(tick=240, channel=2, data=[58, 79]),
   midi.NoteOffEvent(tick=720, channel=2, data=[58, 79]),
   midi.NoteOnEvent(tick=240, channel=2, data=[59, 79]),
   midi.NoteOffEvent(tick=840, channel=2, data=[59, 79]),
   midi.NoteOnEvent(tick=120, channel=2, data=[58, 79]),
   midi.NoteOffEvent(tick=720, channel=2, data=[58, 79]),
   midi.NoteOnEvent(tick=720, channel=2, data=[58, 79]),
   midi.NoteOffEvent(tick=240, channel=2, data=[58, 79]),
   midi.NoteOnEvent(tick=0, channel=2, data=[58, 79]),
   midi.NoteOffEvent(tick=240, channel=2, data=[58, 79]),
   midi.NoteOnEvent(tick=0, channel=2, data=[58, 79]),
   midi.NoteOffEvent(tick=240, channel=2, data=[58, 79]),
   midi.NoteOnEvent(tick=0, channel=2, data=[58, 79]),
   midi.NoteOffEvent(tick=360, channel=2, data=[58, 79]),
   midi.NoteOnEvent(tick=7800, channel=2, data=[58, 79]),
   midi.NoteOffEvent(tick=240, channel=2, data=[58, 79]),
   midi.NoteOnEvent(tick=0, channel=2, data=[58, 79]),
   midi.NoteOffEvent(tick=360, channel=2, data=[58, 79]),
   midi.NoteOnEvent(tick=120, channel=2, data=[58, 79]),
   midi.NoteOffEvent(tick=360, channel=2, data=[58, 79]),
   midi.NoteOnEvent(tick=120, channel=2, data=[58, 79]),
   midi.NoteOffEvent(tick=240, channel=2, data=[58, 79]),
   midi.NoteOnEvent(tick=0, channel=2, data=[58, 79]),
   midi.NoteOffEvent(tick=240, channel=2, data=[58, 79]),
   midi.NoteOnEvent(tick=0, channel=2, data=[58, 79]),
   midi.NoteOffEvent(tick=360, channel=2, data=[58, 79]),
   midi.NoteOnEvent(tick=1080, channel=2, data=[58, 79]),
   midi.NoteOffEvent(tick=720, channel=2, data=[58, 79]),
   midi.NoteOnEvent(tick=240, channel=2, data=[59, 79]),
   midi.NoteOffEvent(tick=840, channel=2, data=[59, 79]),
   midi.NoteOnEvent(tick=120, channel=2, data=[58, 79]),
   midi.NoteOffEvent(tick=720, channel=2, data=[58, 79]),
   midi.NoteOnEvent(tick=1200, channel=2, data=[58, 79]),
   midi.NoteOffEvent(tick=240, channel=2, data=[58, 79]),
   midi.NoteOnEvent(tick=0, channel=2, data=[58, 79]),
   midi.NoteOffEvent(tick=360, channel=2, data=[58, 79]),
   midi.NoteOnEvent(tick=2280, channel=2, data=[58, 79]),
   midi.NoteOffEvent(tick=240, channel=2, data=[58, 79]),
   midi.NoteOnEvent(tick=0, channel=2, data=[58, 79]),
   midi.NoteOffEvent(tick=360, channel=2, data=[58, 79]),
   midi.NoteOnEvent(tick=120, channel=2, data=[58, 79]),
   midi.NoteOffEvent(tick=240, channel=2, data=[58, 79]),
   midi.NoteOnEvent(tick=0, channel=2, data=[58, 79]),
   midi.NoteOffEvent(tick=360, channel=2, data=[58, 79]),
   midi.NoteOnEvent(tick=120, channel=2, data=[58, 79]),
   midi.NoteOffEvent(tick=360, channel=2, data=[58, 79]),
   midi.NoteOnEvent(tick=2760, channel=2, data=[58, 79]),
   midi.NoteOffEvent(tick=240, channel=2, data=[58, 79]),
   midi.NoteOnEvent(tick=0, channel=2, data=[58, 79]),
   midi.NoteOffEvent(tick=240, channel=2, data=[58, 79]),
   midi.NoteOnEvent(tick=0, channel=2, data=[58, 79]),
   midi.NoteOffEvent(tick=240, channel=2, data=[58, 79]),
   midi.NoteOnEvent(tick=0, channel=2, data=[58, 79]),
   midi.NoteOffEvent(tick=240, channel=2, data=[58, 79]),
   midi.NoteOnEvent(tick=0, channel=2, data=[58, 79]),
   midi.NoteOffEvent(tick=360, channel=2, data=[58, 79]),
   midi.NoteOnEvent(tick=2760, channel=2, data=[58, 79]),
   midi.NoteOffEvent(tick=720, channel=2, data=[58, 79]),
   midi.NoteOnEvent(tick=240, channel=2, data=[58, 79]),
   midi.NoteOffEvent(tick=840, channel=2, data=[58, 79]),
   midi.NoteOnEvent(tick=120, channel=2, data=[58, 79]),
   midi.NoteOffEvent(tick=720, channel=2, data=[58, 79]),
   midi.NoteOnEvent(tick=4320, channel=2, data=[58, 79]),
   midi.NoteOffEvent(tick=240, channel=2, data=[58, 79]),
   midi.NoteOnEvent(tick=0, channel=2, data=[58, 79]),
   midi.NoteOffEvent(tick=360, channel=2, data=[58, 79]),
   midi.NoteOnEvent(tick=120, channel=2, data=[58, 79]),
   midi.NoteOffEvent(tick=240, channel=2, data=[58, 79]),
   midi.NoteOnEvent(tick=0, channel=2, data=[58, 79]),
   midi.NoteOffEvent(tick=240, channel=2, data=[58, 79]),
   midi.NoteOnEvent(tick=0, channel=2, data=[58, 79]),
   midi.NoteOffEvent(tick=360, channel=2, data=[58, 79]),
   midi.NoteOnEvent(tick=39960, channel=2, data=[58, 79]),
   midi.NoteOffEvent(tick=480, channel=2, data=[58, 79]),
   midi.NoteOnEvent(tick=0, channel=2, data=[58, 79]),
   midi.NoteOffEvent(tick=480, channel=2, data=[58, 79]),
   midi.NoteOnEvent(tick=4560, channel=2, data=[58, 79]),
   midi.NoteOffEvent(tick=720, channel=2, data=[58, 79]),
   midi.NoteOnEvent(tick=6720, channel=2, data=[58, 79]),
   midi.NoteOffEvent(tick=720, channel=2, data=[58, 79]),
   midi.NoteOnEvent(tick=240, channel=2, data=[59, 79]),
   midi.NoteOffEvent(tick=840, channel=2, data=[59, 79]),
   midi.NoteOnEvent(tick=120, channel=2, data=[58, 79]),
   midi.NoteOffEvent(tick=720, channel=2, data=[58, 79]),
   midi.NoteOnEvent(tick=12720, channel=2, data=[58, 79]),
   midi.NoteOffEvent(tick=720, channel=2, data=[58, 79]),
   midi.NoteOnEvent(tick=240, channel=2, data=[59, 79]),
   midi.NoteOffEvent(tick=360, channel=2, data=[59, 79]),
   midi.NoteOnEvent(tick=120, channel=2, data=[58, 79]),
   midi.NoteOffEvent(tick=720, channel=2, data=[58, 79]),
   midi.NoteOnEvent(tick=240, channel=2, data=[58, 79]),
   midi.NoteOffEvent(tick=600, channel=2, data=[58, 79]),
   midi.NoteOnEvent(tick=120, channel=2, data=[58, 79]),
   midi.NoteOffEvent(tick=240, channel=2, data=[58, 79]),
   midi.NoteOnEvent(tick=0, channel=2, data=[58, 79]),
   midi.NoteOffEvent(tick=360, channel=2, data=[58, 79]),
   midi.NoteOnEvent(tick=120, channel=2, data=[58, 79]),
   midi.NoteOffEvent(tick=240, channel=2, data=[58, 79]),
   midi.NoteOnEvent(tick=0, channel=2, data=[58, 79]),
   midi.NoteOffEvent(tick=360, channel=2, data=[58, 79]),
   midi.NoteOnEvent(tick=120, channel=2, data=[58, 79]),
   midi.NoteOffEvent(tick=240, channel=2, data=[58, 79]),
   midi.NoteOnEvent(tick=0, channel=2, data=[58, 79]),
   midi.NoteOffEvent(tick=360, channel=2, data=[58, 79]),
   midi.NoteOnEvent(tick=4440, channel=2, data=[58, 79]),
   midi.NoteOffEvent(tick=360, channel=2, data=[58, 79]),
   midi.NoteOnEvent(tick=120, channel=2, data=[58, 79]),
   midi.NoteOffEvent(tick=600, channel=2, data=[58, 79]),
   midi.NoteOnEvent(tick=4680, channel=2, data=[58, 79]),
   midi.NoteOffEvent(tick=720, channel=2, data=[58, 79]),
   midi.NoteOnEvent(tick=240, channel=2, data=[58, 79]),
   midi.NoteOffEvent(tick=840, channel=2, data=[58, 79]),
   midi.NoteOnEvent(tick=120, channel=2, data=[58, 79]),
   midi.NoteOffEvent(tick=720, channel=2, data=[58, 79]),
   midi.NoteOnEvent(tick=6480, channel=2, data=[58, 79]),
   midi.NoteOffEvent(tick=240, channel=2, data=[58, 79]),
   midi.NoteOnEvent(tick=0, channel=2, data=[58, 79]),
   midi.NoteOffEvent(tick=240, channel=2, data=[58, 79]),
   midi.NoteOnEvent(tick=0, channel=2, data=[58, 79]),
   midi.NoteOffEvent(tick=240, channel=2, data=[58, 79]),
   midi.NoteOnEvent(tick=0, channel=2, data=[58, 79]),
   midi.NoteOffEvent(tick=240, channel=2, data=[58, 79]),
   midi.NoteOnEvent(tick=0, channel=2, data=[58, 79]),
   midi.NoteOffEvent(tick=360, channel=2, data=[58, 79]),
   midi.NoteOnEvent(tick=120, channel=2, data=[58, 79]),
   midi.NoteOffEvent(tick=240, channel=2, data=[58, 79]),
   midi.NoteOnEvent(tick=0, channel=2, data=[58, 79]),
   midi.NoteOffEvent(tick=240, channel=2, data=[58, 79]),
   midi.NoteOnEvent(tick=0, channel=2, data=[58, 79]),
   midi.NoteOffEvent(tick=240, channel=2, data=[58, 79]),
   midi.NoteOnEvent(tick=0, channel=2, data=[58, 79]),
   midi.NoteOffEvent(tick=240, channel=2, data=[58, 79]),
   midi.NoteOnEvent(tick=0, channel=2, data=[58, 79]),
   midi.NoteOffEvent(tick=360, channel=2, data=[58, 79]),
   midi.NoteOnEvent(tick=120, channel=2, data=[58, 79]),
   midi.NoteOffEvent(tick=240, channel=2, data=[58, 79]),
   midi.NoteOnEvent(tick=0, channel=2, data=[58, 79]),
   midi.NoteOffEvent(tick=240, channel=2, data=[58, 79]),
   midi.NoteOnEvent(tick=0, channel=2, data=[58, 79]),
   midi.NoteOffEvent(tick=240, channel=2, data=[58, 79]),
   midi.NoteOnEvent(tick=0, channel=2, data=[58, 79]),
   midi.NoteOffEvent(tick=240, channel=2, data=[58, 79]),
   midi.NoteOnEvent(tick=0, channel=2, data=[58, 79]),
   midi.NoteOffEvent(tick=360, channel=2, data=[58, 79]),
   midi.NoteOnEvent(tick=120, channel=2, data=[58, 79]),
   midi.NoteOffEvent(tick=240, channel=2, data=[58, 79]),
   midi.NoteOnEvent(tick=0, channel=2, data=[58, 79]),
   midi.NoteOffEvent(tick=240, channel=2, data=[58, 79]),
   midi.NoteOnEvent(tick=0, channel=2, data=[58, 79]),
   midi.NoteOffEvent(tick=360, channel=2, data=[58, 79]),
   midi.EndOfTrackEvent(tick=0, data=[])]),
 midi.Track(\
  [midi.PitchWheelEvent(tick=0, channel=3, data=[0, 64]),
   midi.ControlChangeEvent(tick=0, channel=3, data=[7, 111]),
   midi.ControlChangeEvent(tick=0, channel=3, data=[10, 63]),
   midi.ControlChangeEvent(tick=0, channel=3, data=[93, 0]),
   midi.ControlChangeEvent(tick=0, channel=3, data=[91, 0]),
   midi.ControlChangeEvent(tick=0, channel=3, data=[95, 0]),
   midi.ControlChangeEvent(tick=0, channel=3, data=[92, 0]),
   midi.ControlChangeEvent(tick=0, channel=3, data=[11, 127]),
   midi.ProgramChangeEvent(tick=0, channel=3, data=[1]),
   midi.NoteOnEvent(tick=3840, channel=3, data=[51, 79]),
   midi.NoteOffEvent(tick=960, channel=3, data=[51, 79]),
   midi.NoteOnEvent(tick=0, channel=3, data=[58, 79]),
   midi.NoteOffEvent(tick=960, channel=3, data=[58, 79]),
   midi.NoteOnEvent(tick=0, channel=3, data=[58, 79]),
   midi.NoteOffEvent(tick=960, channel=3, data=[58, 79]),
   midi.NoteOnEvent(tick=0, channel=3, data=[54, 79]),
   midi.NoteOffEvent(tick=960, channel=3, data=[54, 79]),
   midi.NoteOnEvent(tick=0, channel=3, data=[53, 79]),
   midi.NoteOffEvent(tick=960, channel=3, data=[53, 79]),
   midi.NoteOnEvent(tick=0, channel=3, data=[53, 79]),
   midi.NoteOffEvent(tick=960, channel=3, data=[53, 79]),
   midi.NoteOnEvent(tick=0, channel=3, data=[53, 79]),
   midi.NoteOffEvent(tick=960, channel=3, data=[53, 79]),
   midi.NoteOnEvent(tick=0, channel=3, data=[53, 79]),
   midi.NoteOffEvent(tick=480, channel=3, data=[53, 79]),
   midi.NoteOnEvent(tick=0, channel=3, data=[54, 79]),
   midi.NoteOffEvent(tick=480, channel=3, data=[54, 79]),
   midi.NoteOnEvent(tick=0, channel=3, data=[51, 79]),
   midi.NoteOffEvent(tick=960, channel=3, data=[51, 79]),
   midi.NoteOnEvent(tick=0, channel=3, data=[58, 79]),
   midi.NoteOffEvent(tick=960, channel=3, data=[58, 79]),
   midi.NoteOnEvent(tick=0, channel=3, data=[58, 79]),
   midi.NoteOffEvent(tick=960, channel=3, data=[58, 79]),
   midi.NoteOnEvent(tick=0, channel=3, data=[54, 79]),
   midi.NoteOffEvent(tick=960, channel=3, data=[54, 79]),
   midi.NoteOnEvent(tick=0, channel=3, data=[53, 79]),
   midi.NoteOffEvent(tick=960, channel=3, data=[53, 79]),
   midi.NoteOnEvent(tick=0, channel=3, data=[53, 79]),
   midi.NoteOffEvent(tick=960, channel=3, data=[53, 79]),
   midi.NoteOnEvent(tick=0, channel=3, data=[53, 79]),
   midi.NoteOffEvent(tick=960, channel=3, data=[53, 79]),
   midi.NoteOnEvent(tick=0, channel=3, data=[53, 79]),
   midi.NoteOffEvent(tick=480, channel=3, data=[53, 79]),
   midi.NoteOnEvent(tick=0, channel=3, data=[54, 79]),
   midi.NoteOffEvent(tick=480, channel=3, data=[54, 79]),
   midi.NoteOnEvent(tick=0, channel=3, data=[51, 79]),
   midi.NoteOffEvent(tick=960, channel=3, data=[51, 79]),
   midi.NoteOnEvent(tick=0, channel=3, data=[58, 79]),
   midi.NoteOffEvent(tick=960, channel=3, data=[58, 79]),
   midi.NoteOnEvent(tick=0, channel=3, data=[58, 79]),
   midi.NoteOffEvent(tick=960, channel=3, data=[58, 79]),
   midi.NoteOnEvent(tick=0, channel=3, data=[54, 79]),
   midi.NoteOffEvent(tick=960, channel=3, data=[54, 79]),
   midi.NoteOnEvent(tick=0, channel=3, data=[53, 79]),
   midi.NoteOffEvent(tick=960, channel=3, data=[53, 79]),
   midi.NoteOnEvent(tick=0, channel=3, data=[53, 79]),
   midi.NoteOffEvent(tick=960, channel=3, data=[53, 79]),
   midi.NoteOnEvent(tick=0, channel=3, data=[53, 79]),
   midi.NoteOffEvent(tick=960, channel=3, data=[53, 79]),
   midi.NoteOnEvent(tick=0, channel=3, data=[53, 79]),
   midi.NoteOffEvent(tick=480, channel=3, data=[53, 79]),
   midi.NoteOnEvent(tick=0, channel=3, data=[54, 79]),
   midi.NoteOffEvent(tick=480, channel=3, data=[54, 79]),
   midi.NoteOnEvent(tick=0, channel=3, data=[51, 79]),
   midi.NoteOffEvent(tick=960, channel=3, data=[51, 79]),
   midi.NoteOnEvent(tick=0, channel=3, data=[58, 79]),
   midi.NoteOffEvent(tick=960, channel=3, data=[58, 79]),
   midi.NoteOnEvent(tick=0, channel=3, data=[58, 79]),
   midi.NoteOffEvent(tick=960, channel=3, data=[58, 79]),
   midi.NoteOnEvent(tick=0, channel=3, data=[54, 79]),
   midi.NoteOffEvent(tick=960, channel=3, data=[54, 79]),
   midi.NoteOnEvent(tick=0, channel=3, data=[53, 79]),
   midi.NoteOffEvent(tick=2880, channel=3, data=[53, 79]),
   midi.NoteOnEvent(tick=31680, channel=3, data=[51, 79]),
   midi.NoteOffEvent(tick=960, channel=3, data=[51, 79]),
   midi.NoteOnEvent(tick=0, channel=3, data=[58, 79]),
   midi.NoteOffEvent(tick=960, channel=3, data=[58, 79]),
   midi.NoteOnEvent(tick=0, channel=3, data=[58, 79]),
   midi.NoteOffEvent(tick=960, channel=3, data=[58, 79]),
   midi.NoteOnEvent(tick=0, channel=3, data=[54, 79]),
   midi.NoteOffEvent(tick=960, channel=3, data=[54, 79]),
   midi.NoteOnEvent(tick=0, channel=3, data=[53, 79]),
   midi.NoteOffEvent(tick=960, channel=3, data=[53, 79]),
   midi.NoteOnEvent(tick=0, channel=3, data=[53, 79]),
   midi.NoteOffEvent(tick=960, channel=3, data=[53, 79]),
   midi.NoteOnEvent(tick=0, channel=3, data=[53, 79]),
   midi.NoteOffEvent(tick=960, channel=3, data=[53, 79]),
   midi.NoteOnEvent(tick=0, channel=3, data=[53, 79]),
   midi.NoteOffEvent(tick=480, channel=3, data=[53, 79]),
   midi.NoteOnEvent(tick=0, channel=3, data=[54, 79]),
   midi.NoteOffEvent(tick=480, channel=3, data=[54, 79]),
   midi.NoteOnEvent(tick=0, channel=3, data=[51, 79]),
   midi.NoteOffEvent(tick=960, channel=3, data=[51, 79]),
   midi.NoteOnEvent(tick=0, channel=3, data=[58, 79]),
   midi.NoteOffEvent(tick=960, channel=3, data=[58, 79]),
   midi.NoteOnEvent(tick=0, channel=3, data=[58, 79]),
   midi.NoteOffEvent(tick=960, channel=3, data=[58, 79]),
   midi.NoteOnEvent(tick=0, channel=3, data=[54, 79]),
   midi.NoteOffEvent(tick=960, channel=3, data=[54, 79]),
   midi.NoteOnEvent(tick=0, channel=3, data=[53, 79]),
   midi.NoteOffEvent(tick=960, channel=3, data=[53, 79]),
   midi.NoteOnEvent(tick=0, channel=3, data=[53, 79]),
   midi.NoteOffEvent(tick=960, channel=3, data=[53, 79]),
   midi.NoteOnEvent(tick=0, channel=3, data=[53, 79]),
   midi.NoteOffEvent(tick=960, channel=3, data=[53, 79]),
   midi.NoteOnEvent(tick=0, channel=3, data=[53, 79]),
   midi.NoteOffEvent(tick=480, channel=3, data=[53, 79]),
   midi.NoteOnEvent(tick=0, channel=3, data=[54, 79]),
   midi.NoteOffEvent(tick=480, channel=3, data=[54, 79]),
   midi.NoteOnEvent(tick=0, channel=3, data=[51, 79]),
   midi.NoteOffEvent(tick=960, channel=3, data=[51, 79]),
   midi.NoteOnEvent(tick=0, channel=3, data=[58, 79]),
   midi.NoteOffEvent(tick=960, channel=3, data=[58, 79]),
   midi.NoteOnEvent(tick=0, channel=3, data=[58, 79]),
   midi.NoteOffEvent(tick=960, channel=3, data=[58, 79]),
   midi.NoteOnEvent(tick=0, channel=3, data=[54, 79]),
   midi.NoteOffEvent(tick=960, channel=3, data=[54, 79]),
   midi.NoteOnEvent(tick=0, channel=3, data=[53, 79]),
   midi.NoteOffEvent(tick=960, channel=3, data=[53, 79]),
   midi.NoteOnEvent(tick=0, channel=3, data=[53, 79]),
   midi.NoteOffEvent(tick=960, channel=3, data=[53, 79]),
   midi.NoteOnEvent(tick=0, channel=3, data=[53, 79]),
   midi.NoteOffEvent(tick=960, channel=3, data=[53, 79]),
   midi.NoteOnEvent(tick=0, channel=3, data=[53, 79]),
   midi.NoteOffEvent(tick=480, channel=3, data=[53, 79]),
   midi.NoteOnEvent(tick=0, channel=3, data=[54, 79]),
   midi.NoteOffEvent(tick=480, channel=3, data=[54, 79]),
   midi.NoteOnEvent(tick=0, channel=3, data=[51, 79]),
   midi.NoteOffEvent(tick=960, channel=3, data=[51, 79]),
   midi.NoteOnEvent(tick=0, channel=3, data=[58, 79]),
   midi.NoteOffEvent(tick=960, channel=3, data=[58, 79]),
   midi.NoteOnEvent(tick=0, channel=3, data=[58, 79]),
   midi.NoteOffEvent(tick=960, channel=3, data=[58, 79]),
   midi.NoteOnEvent(tick=0, channel=3, data=[54, 79]),
   midi.NoteOffEvent(tick=960, channel=3, data=[54, 79]),
   midi.NoteOnEvent(tick=0, channel=3, data=[53, 79]),
   midi.NoteOffEvent(tick=960, channel=3, data=[53, 79]),
   midi.NoteOnEvent(tick=0, channel=3, data=[53, 79]),
   midi.NoteOffEvent(tick=960, channel=3, data=[53, 79]),
   midi.NoteOnEvent(tick=0, channel=3, data=[53, 79]),
   midi.NoteOffEvent(tick=960, channel=3, data=[53, 79]),
   midi.NoteOnEvent(tick=62400, channel=3, data=[51, 79]),
   midi.NoteOffEvent(tick=960, channel=3, data=[51, 79]),
   midi.NoteOnEvent(tick=0, channel=3, data=[58, 79]),
   midi.NoteOffEvent(tick=960, channel=3, data=[58, 79]),
   midi.NoteOnEvent(tick=0, channel=3, data=[58, 79]),
   midi.NoteOffEvent(tick=960, channel=3, data=[58, 79]),
   midi.NoteOnEvent(tick=0, channel=3, data=[54, 79]),
   midi.NoteOffEvent(tick=960, channel=3, data=[54, 79]),
   midi.NoteOnEvent(tick=0, channel=3, data=[53, 79]),
   midi.NoteOffEvent(tick=960, channel=3, data=[53, 79]),
   midi.NoteOnEvent(tick=0, channel=3, data=[53, 79]),
   midi.NoteOffEvent(tick=960, channel=3, data=[53, 79]),
   midi.NoteOnEvent(tick=0, channel=3, data=[53, 79]),
   midi.NoteOffEvent(tick=960, channel=3, data=[53, 79]),
   midi.NoteOnEvent(tick=0, channel=3, data=[53, 79]),
   midi.NoteOffEvent(tick=480, channel=3, data=[53, 79]),
   midi.NoteOnEvent(tick=0, channel=3, data=[54, 79]),
   midi.NoteOffEvent(tick=480, channel=3, data=[54, 79]),
   midi.NoteOnEvent(tick=0, channel=3, data=[51, 79]),
   midi.NoteOffEvent(tick=960, channel=3, data=[51, 79]),
   midi.NoteOnEvent(tick=0, channel=3, data=[58, 79]),
   midi.NoteOffEvent(tick=960, channel=3, data=[58, 79]),
   midi.NoteOnEvent(tick=0, channel=3, data=[58, 79]),
   midi.NoteOffEvent(tick=960, channel=3, data=[58, 79]),
   midi.NoteOnEvent(tick=0, channel=3, data=[54, 79]),
   midi.NoteOffEvent(tick=960, channel=3, data=[54, 79]),
   midi.NoteOnEvent(tick=0, channel=3, data=[53, 79]),
   midi.NoteOffEvent(tick=960, channel=3, data=[53, 79]),
   midi.NoteOnEvent(tick=0, channel=3, data=[53, 79]),
   midi.NoteOffEvent(tick=960, channel=3, data=[53, 79]),
   midi.NoteOnEvent(tick=0, channel=3, data=[53, 79]),
   midi.NoteOffEvent(tick=960, channel=3, data=[53, 79]),
   midi.NoteOnEvent(tick=0, channel=3, data=[53, 79]),
   midi.NoteOffEvent(tick=480, channel=3, data=[53, 79]),
   midi.NoteOnEvent(tick=0, channel=3, data=[54, 79]),
   midi.NoteOffEvent(tick=480, channel=3, data=[54, 79]),
   midi.NoteOnEvent(tick=0, channel=3, data=[51, 79]),
   midi.NoteOffEvent(tick=960, channel=3, data=[51, 79]),
   midi.NoteOnEvent(tick=0, channel=3, data=[58, 79]),
   midi.NoteOffEvent(tick=960, channel=3, data=[58, 79]),
   midi.NoteOnEvent(tick=0, channel=3, data=[58, 79]),
   midi.NoteOffEvent(tick=960, channel=3, data=[58, 79]),
   midi.NoteOnEvent(tick=0, channel=3, data=[54, 79]),
   midi.NoteOffEvent(tick=960, channel=3, data=[54, 79]),
   midi.NoteOnEvent(tick=0, channel=3, data=[53, 79]),
   midi.NoteOffEvent(tick=960, channel=3, data=[53, 79]),
   midi.NoteOnEvent(tick=0, channel=3, data=[53, 79]),
   midi.NoteOffEvent(tick=960, channel=3, data=[53, 79]),
   midi.NoteOnEvent(tick=0, channel=3, data=[53, 79]),
   midi.NoteOffEvent(tick=960, channel=3, data=[53, 79]),
   midi.NoteOnEvent(tick=0, channel=3, data=[53, 79]),
   midi.NoteOffEvent(tick=480, channel=3, data=[53, 79]),
   midi.NoteOnEvent(tick=0, channel=3, data=[54, 79]),
   midi.NoteOffEvent(tick=480, channel=3, data=[54, 79]),
   midi.NoteOnEvent(tick=0, channel=3, data=[51, 79]),
   midi.NoteOffEvent(tick=960, channel=3, data=[51, 79]),
   midi.NoteOnEvent(tick=0, channel=3, data=[58, 79]),
   midi.NoteOffEvent(tick=960, channel=3, data=[58, 79]),
   midi.NoteOnEvent(tick=0, channel=3, data=[58, 79]),
   midi.NoteOffEvent(tick=960, channel=3, data=[58, 79]),
   midi.NoteOnEvent(tick=0, channel=3, data=[54, 79]),
   midi.NoteOffEvent(tick=960, channel=3, data=[54, 79]),
   midi.NoteOnEvent(tick=0, channel=3, data=[53, 79]),
   midi.NoteOffEvent(tick=960, channel=3, data=[53, 79]),
   midi.NoteOnEvent(tick=0, channel=3, data=[53, 79]),
   midi.NoteOffEvent(tick=960, channel=3, data=[53, 79]),
   midi.NoteOnEvent(tick=0, channel=3, data=[53, 79]),
   midi.NoteOffEvent(tick=960, channel=3, data=[53, 79]),
   midi.NoteOnEvent(tick=35520, channel=3, data=[51, 79]),
   midi.NoteOffEvent(tick=960, channel=3, data=[51, 79]),
   midi.NoteOnEvent(tick=0, channel=3, data=[58, 79]),
   midi.NoteOffEvent(tick=960, channel=3, data=[58, 79]),
   midi.NoteOnEvent(tick=0, channel=3, data=[58, 79]),
   midi.NoteOffEvent(tick=960, channel=3, data=[58, 79]),
   midi.NoteOnEvent(tick=0, channel=3, data=[54, 79]),
   midi.NoteOffEvent(tick=960, channel=3, data=[54, 79]),
   midi.NoteOnEvent(tick=0, channel=3, data=[53, 79]),
   midi.NoteOffEvent(tick=960, channel=3, data=[53, 79]),
   midi.NoteOnEvent(tick=0, channel=3, data=[53, 79]),
   midi.NoteOffEvent(tick=960, channel=3, data=[53, 79]),
   midi.NoteOnEvent(tick=0, channel=3, data=[53, 79]),
   midi.NoteOffEvent(tick=960, channel=3, data=[53, 79]),
   midi.NoteOnEvent(tick=0, channel=3, data=[53, 79]),
   midi.NoteOffEvent(tick=480, channel=3, data=[53, 79]),
   midi.NoteOnEvent(tick=0, channel=3, data=[54, 79]),
   midi.NoteOffEvent(tick=480, channel=3, data=[54, 79]),
   midi.NoteOnEvent(tick=0, channel=3, data=[51, 79]),
   midi.NoteOffEvent(tick=960, channel=3, data=[51, 79]),
   midi.NoteOnEvent(tick=0, channel=3, data=[58, 79]),
   midi.NoteOffEvent(tick=960, channel=3, data=[58, 79]),
   midi.NoteOnEvent(tick=0, channel=3, data=[58, 79]),
   midi.NoteOffEvent(tick=960, channel=3, data=[58, 79]),
   midi.NoteOnEvent(tick=0, channel=3, data=[54, 79]),
   midi.NoteOffEvent(tick=960, channel=3, data=[54, 79]),
   midi.NoteOnEvent(tick=0, channel=3, data=[53, 79]),
   midi.NoteOffEvent(tick=960, channel=3, data=[53, 79]),
   midi.NoteOnEvent(tick=0, channel=3, data=[53, 79]),
   midi.NoteOffEvent(tick=960, channel=3, data=[53, 79]),
   midi.NoteOnEvent(tick=0, channel=3, data=[53, 79]),
   midi.NoteOffEvent(tick=960, channel=3, data=[53, 79]),
   midi.NoteOnEvent(tick=0, channel=3, data=[53, 79]),
   midi.NoteOffEvent(tick=480, channel=3, data=[53, 79]),
   midi.NoteOnEvent(tick=0, channel=3, data=[54, 79]),
   midi.NoteOffEvent(tick=480, channel=3, data=[54, 79]),
   midi.NoteOnEvent(tick=0, channel=3, data=[51, 79]),
   midi.NoteOffEvent(tick=960, channel=3, data=[51, 79]),
   midi.NoteOnEvent(tick=0, channel=3, data=[58, 79]),
   midi.NoteOffEvent(tick=960, channel=3, data=[58, 79]),
   midi.NoteOnEvent(tick=0, channel=3, data=[58, 79]),
   midi.NoteOffEvent(tick=960, channel=3, data=[58, 79]),
   midi.NoteOnEvent(tick=0, channel=3, data=[54, 79]),
   midi.NoteOffEvent(tick=960, channel=3, data=[54, 79]),
   midi.NoteOnEvent(tick=0, channel=3, data=[53, 79]),
   midi.NoteOffEvent(tick=960, channel=3, data=[53, 79]),
   midi.NoteOnEvent(tick=0, channel=3, data=[53, 79]),
   midi.NoteOffEvent(tick=960, channel=3, data=[53, 79]),
   midi.NoteOnEvent(tick=0, channel=3, data=[53, 79]),
   midi.NoteOffEvent(tick=960, channel=3, data=[53, 79]),
   midi.NoteOnEvent(tick=0, channel=3, data=[53, 79]),
   midi.NoteOffEvent(tick=480, channel=3, data=[53, 79]),
   midi.NoteOnEvent(tick=0, channel=3, data=[54, 79]),
   midi.NoteOffEvent(tick=480, channel=3, data=[54, 79]),
   midi.NoteOnEvent(tick=0, channel=3, data=[51, 79]),
   midi.NoteOffEvent(tick=960, channel=3, data=[51, 79]),
   midi.NoteOnEvent(tick=0, channel=3, data=[58, 79]),
   midi.NoteOffEvent(tick=960, channel=3, data=[58, 79]),
   midi.NoteOnEvent(tick=0, channel=3, data=[58, 79]),
   midi.NoteOffEvent(tick=960, channel=3, data=[58, 79]),
   midi.NoteOnEvent(tick=0, channel=3, data=[54, 79]),
   midi.NoteOffEvent(tick=960, channel=3, data=[54, 79]),
   midi.NoteOnEvent(tick=0, channel=3, data=[53, 79]),
   midi.NoteOffEvent(tick=960, channel=3, data=[53, 79]),
   midi.NoteOnEvent(tick=64320, channel=3, data=[51, 79]),
   midi.NoteOffEvent(tick=960, channel=3, data=[51, 79]),
   midi.NoteOnEvent(tick=0, channel=3, data=[58, 79]),
   midi.NoteOffEvent(tick=960, channel=3, data=[58, 79]),
   midi.NoteOnEvent(tick=0, channel=3, data=[58, 79]),
   midi.NoteOffEvent(tick=960, channel=3, data=[58, 79]),
   midi.NoteOnEvent(tick=0, channel=3, data=[54, 79]),
   midi.NoteOffEvent(tick=960, channel=3, data=[54, 79]),
   midi.NoteOnEvent(tick=0, channel=3, data=[53, 79]),
   midi.NoteOffEvent(tick=960, channel=3, data=[53, 79]),
   midi.NoteOnEvent(tick=0, channel=3, data=[53, 79]),
   midi.NoteOffEvent(tick=960, channel=3, data=[53, 79]),
   midi.NoteOnEvent(tick=0, channel=3, data=[53, 79]),
   midi.NoteOffEvent(tick=960, channel=3, data=[53, 79]),
   midi.NoteOnEvent(tick=0, channel=3, data=[53, 79]),
   midi.NoteOffEvent(tick=480, channel=3, data=[53, 79]),
   midi.NoteOnEvent(tick=0, channel=3, data=[54, 79]),
   midi.NoteOffEvent(tick=480, channel=3, data=[54, 79]),
   midi.NoteOnEvent(tick=0, channel=3, data=[51, 79]),
   midi.NoteOffEvent(tick=960, channel=3, data=[51, 79]),
   midi.NoteOnEvent(tick=0, channel=3, data=[58, 79]),
   midi.NoteOffEvent(tick=960, channel=3, data=[58, 79]),
   midi.NoteOnEvent(tick=0, channel=3, data=[58, 79]),
   midi.NoteOffEvent(tick=960, channel=3, data=[58, 79]),
   midi.NoteOnEvent(tick=0, channel=3, data=[54, 79]),
   midi.NoteOffEvent(tick=960, channel=3, data=[54, 79]),
   midi.NoteOnEvent(tick=0, channel=3, data=[53, 79]),
   midi.NoteOffEvent(tick=960, channel=3, data=[53, 79]),
   midi.NoteOnEvent(tick=0, channel=3, data=[53, 79]),
   midi.NoteOffEvent(tick=960, channel=3, data=[53, 79]),
   midi.NoteOnEvent(tick=0, channel=3, data=[53, 79]),
   midi.NoteOffEvent(tick=960, channel=3, data=[53, 79]),
   midi.NoteOnEvent(tick=0, channel=3, data=[53, 79]),
   midi.NoteOffEvent(tick=480, channel=3, data=[53, 79]),
   midi.NoteOnEvent(tick=0, channel=3, data=[54, 79]),
   midi.NoteOffEvent(tick=480, channel=3, data=[54, 79]),
   midi.NoteOnEvent(tick=0, channel=3, data=[51, 79]),
   midi.NoteOffEvent(tick=960, channel=3, data=[51, 79]),
   midi.NoteOnEvent(tick=0, channel=3, data=[58, 79]),
   midi.NoteOffEvent(tick=960, channel=3, data=[58, 79]),
   midi.NoteOnEvent(tick=0, channel=3, data=[58, 79]),
   midi.NoteOffEvent(tick=960, channel=3, data=[58, 79]),
   midi.NoteOnEvent(tick=0, channel=3, data=[54, 79]),
   midi.NoteOffEvent(tick=960, channel=3, data=[54, 79]),
   midi.NoteOnEvent(tick=0, channel=3, data=[53, 79]),
   midi.NoteOffEvent(tick=960, channel=3, data=[53, 79]),
   midi.NoteOnEvent(tick=0, channel=3, data=[53, 79]),
   midi.NoteOffEvent(tick=960, channel=3, data=[53, 79]),
   midi.NoteOnEvent(tick=0, channel=3, data=[53, 79]),
   midi.NoteOffEvent(tick=960, channel=3, data=[53, 79]),
   midi.NoteOnEvent(tick=0, channel=3, data=[53, 79]),
   midi.NoteOffEvent(tick=480, channel=3, data=[53, 79]),
   midi.NoteOnEvent(tick=0, channel=3, data=[54, 79]),
   midi.NoteOffEvent(tick=480, channel=3, data=[54, 79]),
   midi.NoteOnEvent(tick=0, channel=3, data=[51, 79]),
   midi.NoteOffEvent(tick=960, channel=3, data=[51, 79]),
   midi.NoteOnEvent(tick=0, channel=3, data=[58, 79]),
   midi.NoteOffEvent(tick=960, channel=3, data=[58, 79]),
   midi.NoteOnEvent(tick=0, channel=3, data=[58, 79]),
   midi.NoteOffEvent(tick=960, channel=3, data=[58, 79]),
   midi.NoteOnEvent(tick=0, channel=3, data=[54, 79]),
   midi.NoteOffEvent(tick=960, channel=3, data=[54, 79]),
   midi.NoteOnEvent(tick=0, channel=3, data=[53, 79]),
   midi.NoteOffEvent(tick=960, channel=3, data=[53, 79]),
   midi.NoteOnEvent(tick=0, channel=3, data=[53, 79]),
   midi.NoteOffEvent(tick=960, channel=3, data=[53, 79]),
   midi.NoteOnEvent(tick=0, channel=3, data=[53, 79]),
   midi.NoteOffEvent(tick=960, channel=3, data=[53, 79]),
   midi.NoteOnEvent(tick=0, channel=3, data=[53, 79]),
   midi.NoteOffEvent(tick=480, channel=3, data=[53, 79]),
   midi.NoteOnEvent(tick=0, channel=3, data=[54, 79]),
   midi.NoteOffEvent(tick=1440, channel=3, data=[54, 79]),
   midi.NoteOnEvent(tick=0, channel=3, data=[51, 79]),
   midi.NoteOffEvent(tick=480, channel=3, data=[51, 79]),
   midi.NoteOnEvent(tick=0, channel=3, data=[54, 79]),
   midi.NoteOffEvent(tick=480, channel=3, data=[54, 79]),
   midi.NoteOnEvent(tick=0, channel=3, data=[58, 79]),
   midi.NoteOffEvent(tick=480, channel=3, data=[58, 79]),
   midi.NoteOnEvent(tick=0, channel=3, data=[63, 79]),
   midi.NoteOffEvent(tick=480, channel=3, data=[63, 79]),
   midi.NoteOnEvent(tick=0, channel=3, data=[65, 79]),
   midi.NoteOffEvent(tick=480, channel=3, data=[65, 79]),
   midi.NoteOnEvent(tick=0, channel=3, data=[66, 79]),
   midi.NoteOffEvent(tick=960, channel=3, data=[66, 79]),
   midi.NoteOnEvent(tick=0, channel=3, data=[65, 79]),
   midi.NoteOffEvent(tick=1920, channel=3, data=[65, 79]),
   midi.EndOfTrackEvent(tick=0, data=[])]),
 midi.Track(\
  [midi.PitchWheelEvent(tick=0, channel=4, data=[0, 64]),
   midi.ControlChangeEvent(tick=0, channel=4, data=[7, 63]),
   midi.ControlChangeEvent(tick=0, channel=4, data=[10, 63]),
   midi.ControlChangeEvent(tick=0, channel=4, data=[93, 0]),
   midi.ControlChangeEvent(tick=0, channel=4, data=[91, 0]),
   midi.ControlChangeEvent(tick=0, channel=4, data=[95, 0]),
   midi.ControlChangeEvent(tick=0, channel=4, data=[92, 0]),
   midi.ControlChangeEvent(tick=0, channel=4, data=[11, 127]),
   midi.ProgramChangeEvent(tick=0, channel=4, data=[48]),
   midi.NoteOnEvent(tick=3840, channel=4, data=[63, 47]),
   midi.NoteOnEvent(tick=0, channel=4, data=[58, 47]),
   midi.NoteOnEvent(tick=0, channel=4, data=[51, 47]),
   midi.NoteOffEvent(tick=3840, channel=4, data=[63, 47]),
   midi.NoteOffEvent(tick=0, channel=4, data=[58, 47]),
   midi.NoteOffEvent(tick=0, channel=4, data=[51, 47]),
   midi.NoteOnEvent(tick=0, channel=4, data=[61, 47]),
   midi.NoteOnEvent(tick=0, channel=4, data=[53, 47]),
   midi.NoteOnEvent(tick=0, channel=4, data=[49, 47]),
   midi.NoteOffEvent(tick=3840, channel=4, data=[61, 47]),
   midi.NoteOffEvent(tick=0, channel=4, data=[53, 47]),
   midi.NoteOffEvent(tick=0, channel=4, data=[49, 47]),
   midi.NoteOnEvent(tick=0, channel=4, data=[59, 47]),
   midi.NoteOnEvent(tick=0, channel=4, data=[51, 47]),
   midi.NoteOnEvent(tick=0, channel=4, data=[47, 47]),
   midi.NoteOffEvent(tick=3840, channel=4, data=[59, 47]),
   midi.NoteOffEvent(tick=0, channel=4, data=[51, 47]),
   midi.NoteOffEvent(tick=0, channel=4, data=[47, 47]),
   midi.NoteOnEvent(tick=0, channel=4, data=[61, 47]),
   midi.NoteOnEvent(tick=0, channel=4, data=[53, 47]),
   midi.NoteOnEvent(tick=0, channel=4, data=[49, 47]),
   midi.NoteOffEvent(tick=3840, channel=4, data=[61, 47]),
   midi.NoteOffEvent(tick=0, channel=4, data=[53, 47]),
   midi.NoteOffEvent(tick=0, channel=4, data=[49, 47]),
   midi.NoteOnEvent(tick=0, channel=4, data=[63, 47]),
   midi.NoteOnEvent(tick=0, channel=4, data=[58, 47]),
   midi.NoteOnEvent(tick=0, channel=4, data=[51, 47]),
   midi.NoteOffEvent(tick=3840, channel=4, data=[63, 47]),
   midi.NoteOffEvent(tick=0, channel=4, data=[58, 47]),
   midi.NoteOffEvent(tick=0, channel=4, data=[51, 47]),
   midi.NoteOnEvent(tick=0, channel=4, data=[61, 47]),
   midi.NoteOnEvent(tick=0, channel=4, data=[53, 47]),
   midi.NoteOnEvent(tick=0, channel=4, data=[49, 47]),
   midi.NoteOffEvent(tick=3840, channel=4, data=[61, 47]),
   midi.NoteOffEvent(tick=0, channel=4, data=[53, 47]),
   midi.NoteOffEvent(tick=0, channel=4, data=[49, 47]),
   midi.NoteOnEvent(tick=0, channel=4, data=[59, 47]),
   midi.NoteOnEvent(tick=0, channel=4, data=[51, 47]),
   midi.NoteOnEvent(tick=0, channel=4, data=[47, 47]),
   midi.NoteOffEvent(tick=3840, channel=4, data=[59, 47]),
   midi.NoteOffEvent(tick=0, channel=4, data=[51, 47]),
   midi.NoteOffEvent(tick=0, channel=4, data=[47, 47]),
   midi.NoteOnEvent(tick=0, channel=4, data=[61, 47]),
   midi.NoteOnEvent(tick=0, channel=4, data=[53, 47]),
   midi.NoteOnEvent(tick=0, channel=4, data=[49, 47]),
   midi.NoteOffEvent(tick=3840, channel=4, data=[61, 47]),
   midi.NoteOffEvent(tick=0, channel=4, data=[53, 47]),
   midi.NoteOffEvent(tick=0, channel=4, data=[49, 47]),
   midi.NoteOnEvent(tick=26880, channel=4, data=[68, 63]),
   midi.NoteOnEvent(tick=0, channel=4, data=[65, 63]),
   midi.NoteOnEvent(tick=0, channel=4, data=[61, 63]),
   midi.NoteOffEvent(tick=3840, channel=4, data=[68, 63]),
   midi.NoteOffEvent(tick=0, channel=4, data=[65, 63]),
   midi.NoteOffEvent(tick=0, channel=4, data=[61, 63]),
   midi.NoteOnEvent(tick=0, channel=4, data=[70, 63]),
   midi.NoteOnEvent(tick=0, channel=4, data=[66, 63]),
   midi.NoteOnEvent(tick=0, channel=4, data=[63, 63]),
   midi.NoteOffEvent(tick=3840, channel=4, data=[70, 63]),
   midi.NoteOffEvent(tick=0, channel=4, data=[66, 63]),
   midi.NoteOffEvent(tick=0, channel=4, data=[63, 63]),
   midi.NoteOnEvent(tick=0, channel=4, data=[68, 63]),
   midi.NoteOnEvent(tick=0, channel=4, data=[65, 63]),
   midi.NoteOnEvent(tick=0, channel=4, data=[61, 63]),
   midi.NoteOffEvent(tick=3840, channel=4, data=[68, 63]),
   midi.NoteOffEvent(tick=0, channel=4, data=[65, 63]),
   midi.NoteOffEvent(tick=0, channel=4, data=[61, 63]),
   midi.NoteOnEvent(tick=0, channel=4, data=[66, 63]),
   midi.NoteOnEvent(tick=0, channel=4, data=[63, 63]),
   midi.NoteOnEvent(tick=0, channel=4, data=[59, 63]),
   midi.NoteOffEvent(tick=3840, channel=4, data=[66, 63]),
   midi.NoteOffEvent(tick=0, channel=4, data=[63, 63]),
   midi.NoteOffEvent(tick=0, channel=4, data=[59, 63]),
   midi.NoteOnEvent(tick=0, channel=4, data=[68, 63]),
   midi.NoteOnEvent(tick=0, channel=4, data=[65, 63]),
   midi.NoteOnEvent(tick=0, channel=4, data=[61, 63]),
   midi.NoteOffEvent(tick=3840, channel=4, data=[68, 63]),
   midi.NoteOffEvent(tick=0, channel=4, data=[65, 63]),
   midi.NoteOffEvent(tick=0, channel=4, data=[61, 63]),
   midi.NoteOnEvent(tick=0, channel=4, data=[70, 63]),
   midi.NoteOnEvent(tick=0, channel=4, data=[66, 63]),
   midi.NoteOnEvent(tick=0, channel=4, data=[63, 63]),
   midi.NoteOffEvent(tick=3840, channel=4, data=[70, 63]),
   midi.NoteOffEvent(tick=0, channel=4, data=[66, 63]),
   midi.NoteOffEvent(tick=0, channel=4, data=[63, 63]),
   midi.NoteOnEvent(tick=0, channel=4, data=[68, 63]),
   midi.NoteOnEvent(tick=0, channel=4, data=[65, 63]),
   midi.NoteOnEvent(tick=0, channel=4, data=[61, 63]),
   midi.NoteOffEvent(tick=3840, channel=4, data=[68, 63]),
   midi.NoteOffEvent(tick=0, channel=4, data=[65, 63]),
   midi.NoteOffEvent(tick=0, channel=4, data=[61, 63]),
   midi.NoteOnEvent(tick=0, channel=4, data=[66, 63]),
   midi.NoteOnEvent(tick=0, channel=4, data=[63, 63]),
   midi.NoteOnEvent(tick=0, channel=4, data=[59, 63]),
   midi.NoteOffEvent(tick=3840, channel=4, data=[66, 63]),
   midi.NoteOffEvent(tick=0, channel=4, data=[63, 63]),
   midi.NoteOffEvent(tick=0, channel=4, data=[59, 63]),
   midi.NoteOnEvent(tick=0, channel=4, data=[68, 63]),
   midi.NoteOnEvent(tick=0, channel=4, data=[65, 63]),
   midi.NoteOnEvent(tick=0, channel=4, data=[61, 63]),
   midi.NoteOffEvent(tick=3840, channel=4, data=[68, 63]),
   midi.NoteOffEvent(tick=0, channel=4, data=[65, 63]),
   midi.NoteOffEvent(tick=0, channel=4, data=[61, 63]),
   midi.NoteOnEvent(tick=57600, channel=4, data=[68, 63]),
   midi.NoteOnEvent(tick=0, channel=4, data=[65, 63]),
   midi.NoteOnEvent(tick=0, channel=4, data=[61, 63]),
   midi.NoteOffEvent(tick=3840, channel=4, data=[68, 63]),
   midi.NoteOffEvent(tick=0, channel=4, data=[65, 63]),
   midi.NoteOffEvent(tick=0, channel=4, data=[61, 63]),
   midi.NoteOnEvent(tick=0, channel=4, data=[70, 63]),
   midi.NoteOnEvent(tick=0, channel=4, data=[66, 63]),
   midi.NoteOnEvent(tick=0, channel=4, data=[63, 63]),
   midi.NoteOffEvent(tick=3840, channel=4, data=[70, 63]),
   midi.NoteOffEvent(tick=0, channel=4, data=[66, 63]),
   midi.NoteOffEvent(tick=0, channel=4, data=[63, 63]),
   midi.NoteOnEvent(tick=0, channel=4, data=[68, 63]),
   midi.NoteOnEvent(tick=0, channel=4, data=[65, 63]),
   midi.NoteOnEvent(tick=0, channel=4, data=[61, 63]),
   midi.NoteOffEvent(tick=3840, channel=4, data=[68, 63]),
   midi.NoteOffEvent(tick=0, channel=4, data=[65, 63]),
   midi.NoteOffEvent(tick=0, channel=4, data=[61, 63]),
   midi.NoteOnEvent(tick=0, channel=4, data=[66, 63]),
   midi.NoteOnEvent(tick=0, channel=4, data=[63, 63]),
   midi.NoteOnEvent(tick=0, channel=4, data=[59, 63]),
   midi.NoteOffEvent(tick=3840, channel=4, data=[66, 63]),
   midi.NoteOffEvent(tick=0, channel=4, data=[63, 63]),
   midi.NoteOffEvent(tick=0, channel=4, data=[59, 63]),
   midi.NoteOnEvent(tick=0, channel=4, data=[68, 63]),
   midi.NoteOnEvent(tick=0, channel=4, data=[65, 63]),
   midi.NoteOnEvent(tick=0, channel=4, data=[61, 63]),
   midi.NoteOffEvent(tick=3840, channel=4, data=[68, 63]),
   midi.NoteOffEvent(tick=0, channel=4, data=[65, 63]),
   midi.NoteOffEvent(tick=0, channel=4, data=[61, 63]),
   midi.NoteOnEvent(tick=0, channel=4, data=[70, 63]),
   midi.NoteOnEvent(tick=0, channel=4, data=[66, 63]),
   midi.NoteOnEvent(tick=0, channel=4, data=[63, 63]),
   midi.NoteOffEvent(tick=3840, channel=4, data=[70, 63]),
   midi.NoteOffEvent(tick=0, channel=4, data=[66, 63]),
   midi.NoteOffEvent(tick=0, channel=4, data=[63, 63]),
   midi.NoteOnEvent(tick=0, channel=4, data=[68, 63]),
   midi.NoteOnEvent(tick=0, channel=4, data=[65, 63]),
   midi.NoteOnEvent(tick=0, channel=4, data=[61, 63]),
   midi.NoteOffEvent(tick=3840, channel=4, data=[68, 63]),
   midi.NoteOffEvent(tick=0, channel=4, data=[65, 63]),
   midi.NoteOffEvent(tick=0, channel=4, data=[61, 63]),
   midi.NoteOnEvent(tick=0, channel=4, data=[66, 63]),
   midi.NoteOnEvent(tick=0, channel=4, data=[63, 63]),
   midi.NoteOnEvent(tick=0, channel=4, data=[59, 63]),
   midi.NoteOffEvent(tick=3840, channel=4, data=[66, 63]),
   midi.NoteOffEvent(tick=0, channel=4, data=[63, 63]),
   midi.NoteOffEvent(tick=0, channel=4, data=[59, 63]),
   midi.NoteOnEvent(tick=0, channel=4, data=[68, 63]),
   midi.NoteOnEvent(tick=0, channel=4, data=[65, 63]),
   midi.NoteOnEvent(tick=0, channel=4, data=[61, 63]),
   midi.NoteOffEvent(tick=3840, channel=4, data=[68, 63]),
   midi.NoteOffEvent(tick=0, channel=4, data=[65, 63]),
   midi.NoteOffEvent(tick=0, channel=4, data=[61, 63]),
   midi.EndOfTrackEvent(tick=0, data=[])]),
 midi.Track(\
  [midi.PitchWheelEvent(tick=0, channel=5, data=[0, 64]),
   midi.ControlChangeEvent(tick=0, channel=5, data=[7, 79]),
   midi.ControlChangeEvent(tick=0, channel=5, data=[10, 63]),
   midi.ControlChangeEvent(tick=0, channel=5, data=[93, 0]),
   midi.ControlChangeEvent(tick=0, channel=5, data=[91, 0]),
   midi.ControlChangeEvent(tick=0, channel=5, data=[95, 0]),
   midi.ControlChangeEvent(tick=0, channel=5, data=[92, 0]),
   midi.ControlChangeEvent(tick=0, channel=5, data=[11, 127]),
   midi.ProgramChangeEvent(tick=0, channel=5, data=[48]),
   midi.EndOfTrackEvent(tick=0, data=[])]),
 midi.Track(\
  [midi.PitchWheelEvent(tick=0, channel=6, data=[0, 64]),
   midi.ControlChangeEvent(tick=0, channel=6, data=[7, 103]),
   midi.ControlChangeEvent(tick=0, channel=6, data=[10, 63]),
   midi.ControlChangeEvent(tick=0, channel=6, data=[93, 0]),
   midi.ControlChangeEvent(tick=0, channel=6, data=[91, 0]),
   midi.ControlChangeEvent(tick=0, channel=6, data=[95, 0]),
   midi.ControlChangeEvent(tick=0, channel=6, data=[92, 0]),
   midi.ControlChangeEvent(tick=0, channel=6, data=[11, 127]),
   midi.ProgramChangeEvent(tick=0, channel=6, data=[1]),
   midi.NoteOnEvent(tick=33600, channel=6, data=[78, 95]),
   midi.NoteOffEvent(tick=720, channel=6, data=[78, 95]),
   midi.NoteOnEvent(tick=240, channel=6, data=[77, 79]),
   midi.NoteOffEvent(tick=3120, channel=6, data=[77, 79]),
   midi.NoteOnEvent(tick=720, channel=6, data=[82, 79]),
   midi.NoteOffEvent(tick=2280, channel=6, data=[82, 79]),
   midi.NoteOnEvent(tick=600, channel=6, data=[78, 79]),
   midi.NoteOffEvent(tick=720, channel=6, data=[78, 79]),
   midi.NoteOnEvent(tick=240, channel=6, data=[77, 79]),
   midi.NoteOffEvent(tick=3120, channel=6, data=[77, 79]),
   midi.NoteOnEvent(tick=720, channel=6, data=[75, 79]),
   midi.NoteOffEvent(tick=3120, channel=6, data=[75, 79]),
   midi.NoteOnEvent(tick=720, channel=6, data=[77, 79]),
   midi.NoteOffEvent(tick=3120, channel=6, data=[77, 79]),
   midi.NoteOnEvent(tick=720, channel=6, data=[82, 79]),
   midi.NoteOffEvent(tick=2280, channel=6, data=[82, 79]),
   midi.NoteOnEvent(tick=600, channel=6, data=[78, 79]),
   midi.NoteOffEvent(tick=720, channel=6, data=[78, 79]),
   midi.NoteOnEvent(tick=240, channel=6, data=[77, 79]),
   midi.NoteOffEvent(tick=3120, channel=6, data=[77, 79]),
   midi.NoteOnEvent(tick=720, channel=6, data=[75, 79]),
   midi.NoteOffEvent(tick=3120, channel=6, data=[75, 79]),
   midi.NoteOnEvent(tick=720, channel=6, data=[77, 79]),
   midi.NoteOffEvent(tick=3120, channel=6, data=[77, 79]),
   midi.NoteOnEvent(tick=720, channel=6, data=[82, 79]),
   midi.NoteOffEvent(tick=2280, channel=6, data=[82, 79]),
   midi.NoteOnEvent(tick=600, channel=6, data=[78, 79]),
   midi.NoteOffEvent(tick=720, channel=6, data=[78, 79]),
   midi.NoteOnEvent(tick=240, channel=6, data=[77, 79]),
   midi.NoteOffEvent(tick=3120, channel=6, data=[77, 79]),
   midi.NoteOnEvent(tick=720, channel=6, data=[75, 79]),
   midi.NoteOffEvent(tick=3120, channel=6, data=[75, 79]),
   midi.NoteOnEvent(tick=720, channel=6, data=[77, 79]),
   midi.NoteOffEvent(tick=3120, channel=6, data=[77, 79]),
   midi.NoteOnEvent(tick=720, channel=6, data=[82, 79]),
   midi.NoteOffEvent(tick=2280, channel=6, data=[82, 79]),
   midi.NoteOnEvent(tick=600, channel=6, data=[78, 79]),
   midi.NoteOffEvent(tick=720, channel=6, data=[78, 79]),
   midi.NoteOnEvent(tick=240, channel=6, data=[77, 79]),
   midi.NoteOffEvent(tick=3120, channel=6, data=[77, 79]),
   midi.NoteOnEvent(tick=720, channel=6, data=[75, 79]),
   midi.NoteOffEvent(tick=3120, channel=6, data=[75, 79]),
   midi.NoteOnEvent(tick=31440, channel=6, data=[77, 79]),
   midi.NoteOffEvent(tick=3120, channel=6, data=[77, 79]),
   midi.NoteOnEvent(tick=720, channel=6, data=[82, 79]),
   midi.NoteOffEvent(tick=2280, channel=6, data=[82, 79]),
   midi.NoteOnEvent(tick=600, channel=6, data=[78, 79]),
   midi.NoteOffEvent(tick=720, channel=6, data=[78, 79]),
   midi.NoteOnEvent(tick=240, channel=6, data=[77, 79]),
   midi.NoteOffEvent(tick=3120, channel=6, data=[77, 79]),
   midi.NoteOnEvent(tick=720, channel=6, data=[75, 79]),
   midi.NoteOffEvent(tick=3120, channel=6, data=[75, 79]),
   midi.NoteOnEvent(tick=720, channel=6, data=[77, 79]),
   midi.NoteOffEvent(tick=3120, channel=6, data=[77, 79]),
   midi.NoteOnEvent(tick=720, channel=6, data=[82, 79]),
   midi.NoteOffEvent(tick=2280, channel=6, data=[82, 79]),
   midi.NoteOnEvent(tick=600, channel=6, data=[78, 79]),
   midi.NoteOffEvent(tick=720, channel=6, data=[78, 79]),
   midi.NoteOnEvent(tick=240, channel=6, data=[77, 79]),
   midi.NoteOffEvent(tick=3120, channel=6, data=[77, 79]),
   midi.NoteOnEvent(tick=720, channel=6, data=[75, 79]),
   midi.NoteOffEvent(tick=3120, channel=6, data=[75, 79]),
   midi.NoteOnEvent(tick=720, channel=6, data=[77, 79]),
   midi.NoteOffEvent(tick=3120, channel=6, data=[77, 79]),
   midi.NoteOnEvent(tick=720, channel=6, data=[82, 79]),
   midi.NoteOffEvent(tick=2280, channel=6, data=[82, 79]),
   midi.NoteOnEvent(tick=600, channel=6, data=[78, 79]),
   midi.NoteOffEvent(tick=720, channel=6, data=[78, 79]),
   midi.NoteOnEvent(tick=240, channel=6, data=[77, 79]),
   midi.NoteOffEvent(tick=3120, channel=6, data=[77, 79]),
   midi.NoteOnEvent(tick=720, channel=6, data=[75, 79]),
   midi.NoteOffEvent(tick=3120, channel=6, data=[75, 79]),
   midi.NoteOnEvent(tick=720, channel=6, data=[77, 79]),
   midi.NoteOffEvent(tick=3120, channel=6, data=[77, 79]),
   midi.NoteOnEvent(tick=720, channel=6, data=[82, 79]),
   midi.NoteOffEvent(tick=2280, channel=6, data=[82, 79]),
   midi.NoteOnEvent(tick=600, channel=6, data=[78, 79]),
   midi.NoteOffEvent(tick=720, channel=6, data=[78, 79]),
   midi.NoteOnEvent(tick=240, channel=6, data=[77, 79]),
   midi.NoteOffEvent(tick=3120, channel=6, data=[77, 79]),
   midi.NoteOnEvent(tick=720, channel=6, data=[75, 79]),
   midi.NoteOffEvent(tick=3120, channel=6, data=[75, 79]),
   midi.EndOfTrackEvent(tick=0, data=[])]),
 midi.Track(\
  [midi.PitchWheelEvent(tick=0, channel=7, data=[0, 64]),
   midi.ControlChangeEvent(tick=0, channel=7, data=[7, 79]),
   midi.ControlChangeEvent(tick=0, channel=7, data=[10, 63]),
   midi.ControlChangeEvent(tick=0, channel=7, data=[93, 0]),
   midi.ControlChangeEvent(tick=0, channel=7, data=[91, 0]),
   midi.ControlChangeEvent(tick=0, channel=7, data=[95, 0]),
   midi.ControlChangeEvent(tick=0, channel=7, data=[92, 0]),
   midi.ControlChangeEvent(tick=0, channel=7, data=[11, 127]),
   midi.ProgramChangeEvent(tick=0, channel=7, data=[30]),
   midi.NoteOnEvent(tick=95040, channel=7, data=[75, 79]),
   midi.NoteOffEvent(tick=960, channel=7, data=[75, 79]),
   midi.NoteOnEvent(tick=0, channel=7, data=[77, 79]),
   midi.NoteOffEvent(tick=3840, channel=7, data=[77, 79]),
   midi.NoteOnEvent(tick=0, channel=7, data=[82, 79]),
   midi.NoteOffEvent(tick=2880, channel=7, data=[82, 79]),
   midi.NoteOnEvent(tick=0, channel=7, data=[78, 79]),
   midi.NoteOffEvent(tick=960, channel=7, data=[78, 79]),
   midi.NoteOnEvent(tick=0, channel=7, data=[77, 79]),
   midi.NoteOffEvent(tick=3840, channel=7, data=[77, 79]),
   midi.NoteOnEvent(tick=0, channel=7, data=[82, 79]),
   midi.NoteOffEvent(tick=2880, channel=7, data=[82, 79]),
   midi.NoteOnEvent(tick=0, channel=7, data=[75, 79]),
   midi.NoteOffEvent(tick=960, channel=7, data=[75, 79]),
   midi.NoteOnEvent(tick=0, channel=7, data=[77, 79]),
   midi.NoteOffEvent(tick=3840, channel=7, data=[77, 79]),
   midi.NoteOnEvent(tick=0, channel=7, data=[82, 79]),
   midi.NoteOffEvent(tick=2880, channel=7, data=[82, 79]),
   midi.NoteOnEvent(tick=0, channel=7, data=[78, 79]),
   midi.NoteOffEvent(tick=960, channel=7, data=[78, 79]),
   midi.NoteOnEvent(tick=0, channel=7, data=[77, 79]),
   midi.NoteOffEvent(tick=3840, channel=7, data=[77, 79]),
   midi.NoteOnEvent(tick=0, channel=7, data=[82, 79]),
   midi.NoteOffEvent(tick=3840, channel=7, data=[82, 79]),
   midi.NoteOnEvent(tick=60480, channel=7, data=[75, 79]),
   midi.NoteOffEvent(tick=960, channel=7, data=[75, 79]),
   midi.NoteOnEvent(tick=0, channel=7, data=[77, 79]),
   midi.NoteOffEvent(tick=3840, channel=7, data=[77, 79]),
   midi.NoteOnEvent(tick=0, channel=7, data=[82, 79]),
   midi.NoteOffEvent(tick=2880, channel=7, data=[82, 79]),
   midi.NoteOnEvent(tick=0, channel=7, data=[78, 79]),
   midi.NoteOffEvent(tick=960, channel=7, data=[78, 79]),
   midi.NoteOnEvent(tick=0, channel=7, data=[77, 79]),
   midi.NoteOffEvent(tick=3840, channel=7, data=[77, 79]),
   midi.NoteOnEvent(tick=0, channel=7, data=[82, 79]),
   midi.NoteOffEvent(tick=2880, channel=7, data=[82, 79]),
   midi.NoteOnEvent(tick=0, channel=7, data=[75, 79]),
   midi.NoteOffEvent(tick=960, channel=7, data=[75, 79]),
   midi.NoteOnEvent(tick=0, channel=7, data=[77, 79]),
   midi.NoteOffEvent(tick=3840, channel=7, data=[77, 79]),
   midi.NoteOnEvent(tick=0, channel=7, data=[82, 79]),
   midi.NoteOffEvent(tick=2880, channel=7, data=[82, 79]),
   midi.NoteOnEvent(tick=0, channel=7, data=[78, 79]),
   midi.NoteOffEvent(tick=960, channel=7, data=[78, 79]),
   midi.NoteOnEvent(tick=0, channel=7, data=[77, 79]),
   midi.NoteOffEvent(tick=3840, channel=7, data=[77, 79]),
   midi.NoteOnEvent(tick=0, channel=7, data=[82, 79]),
   midi.NoteOffEvent(tick=7680, channel=7, data=[82, 79]),
   midi.NoteOnEvent(tick=60480, channel=7, data=[75, 79]),
   midi.NoteOffEvent(tick=960, channel=7, data=[75, 79]),
   midi.NoteOnEvent(tick=0, channel=7, data=[77, 79]),
   midi.NoteOffEvent(tick=3840, channel=7, data=[77, 79]),
   midi.NoteOnEvent(tick=0, channel=7, data=[82, 79]),
   midi.NoteOffEvent(tick=2880, channel=7, data=[82, 79]),
   midi.NoteOnEvent(tick=0, channel=7, data=[78, 79]),
   midi.NoteOffEvent(tick=960, channel=7, data=[78, 79]),
   midi.NoteOnEvent(tick=0, channel=7, data=[77, 79]),
   midi.NoteOffEvent(tick=3840, channel=7, data=[77, 79]),
   midi.NoteOnEvent(tick=0, channel=7, data=[82, 79]),
   midi.NoteOffEvent(tick=2880, channel=7, data=[82, 79]),
   midi.NoteOnEvent(tick=0, channel=7, data=[75, 79]),
   midi.NoteOffEvent(tick=960, channel=7, data=[75, 79]),
   midi.NoteOnEvent(tick=0, channel=7, data=[77, 79]),
   midi.NoteOffEvent(tick=3840, channel=7, data=[77, 79]),
   midi.NoteOnEvent(tick=0, channel=7, data=[82, 79]),
   midi.NoteOffEvent(tick=2880, channel=7, data=[82, 79]),
   midi.NoteOnEvent(tick=0, channel=7, data=[78, 79]),
   midi.NoteOffEvent(tick=960, channel=7, data=[78, 79]),
   midi.NoteOnEvent(tick=0, channel=7, data=[77, 79]),
   midi.NoteOffEvent(tick=3840, channel=7, data=[77, 79]),
   midi.NoteOnEvent(tick=0, channel=7, data=[82, 79]),
   midi.NoteOffEvent(tick=3840, channel=7, data=[82, 79]),
   midi.EndOfTrackEvent(tick=0, data=[])]),
 midi.Track(\
  [midi.PitchWheelEvent(tick=0, channel=8, data=[0, 64]),
   midi.ControlChangeEvent(tick=0, channel=8, data=[7, 79]),
   midi.ControlChangeEvent(tick=0, channel=8, data=[10, 63]),
   midi.ControlChangeEvent(tick=0, channel=8, data=[93, 0]),
   midi.ControlChangeEvent(tick=0, channel=8, data=[91, 0]),
   midi.ControlChangeEvent(tick=0, channel=8, data=[95, 0]),
   midi.ControlChangeEvent(tick=0, channel=8, data=[92, 0]),
   midi.ControlChangeEvent(tick=0, channel=8, data=[11, 127]),
   midi.ProgramChangeEvent(tick=0, channel=8, data=[30]),
   midi.NoteOnEvent(tick=96000, channel=8, data=[51, 79]),
   midi.NoteOnEvent(tick=0, channel=8, data=[46, 79]),
   midi.NoteOffEvent(tick=960, channel=8, data=[51, 79]),
   midi.NoteOffEvent(tick=0, channel=8, data=[46, 79]),
   midi.NoteOnEvent(tick=0, channel=8, data=[51, 79]),
   midi.NoteOnEvent(tick=0, channel=8, data=[46, 79]),
   midi.NoteOffEvent(tick=2880, channel=8, data=[51, 79]),
   midi.NoteOffEvent(tick=0, channel=8, data=[46, 79]),
   midi.NoteOnEvent(tick=0, channel=8, data=[54, 79]),
   midi.NoteOnEvent(tick=0, channel=8, data=[49, 79]),
   midi.NoteOnEvent(tick=0, channel=8, data=[42, 79]),
   midi.NoteOffEvent(tick=960, channel=8, data=[54, 79]),
   midi.NoteOffEvent(tick=0, channel=8, data=[49, 79]),
   midi.NoteOffEvent(tick=0, channel=8, data=[42, 79]),
   midi.NoteOnEvent(tick=0, channel=8, data=[54, 79]),
   midi.NoteOnEvent(tick=0, channel=8, data=[49, 79]),
   midi.NoteOnEvent(tick=0, channel=8, data=[42, 79]),
   midi.NoteOffEvent(tick=2880, channel=8, data=[54, 79]),
   midi.NoteOffEvent(tick=0, channel=8, data=[49, 79]),
   midi.NoteOffEvent(tick=0, channel=8, data=[42, 79]),
   midi.NoteOnEvent(tick=0, channel=8, data=[49, 79]),
   midi.NoteOnEvent(tick=0, channel=8, data=[44, 79]),
   midi.NoteOffEvent(tick=960, channel=8, data=[49, 79]),
   midi.NoteOffEvent(tick=0, channel=8, data=[44, 79]),
   midi.NoteOnEvent(tick=0, channel=8, data=[49, 79]),
   midi.NoteOnEvent(tick=0, channel=8, data=[44, 79]),
   midi.NoteOffEvent(tick=2880, channel=8, data=[49, 79]),
   midi.NoteOffEvent(tick=0, channel=8, data=[44, 79]),
   midi.NoteOnEvent(tick=0, channel=8, data=[59, 79]),
   midi.NoteOnEvent(tick=0, channel=8, data=[54, 79]),
   midi.NoteOnEvent(tick=0, channel=8, data=[47, 79]),
   midi.NoteOffEvent(tick=2880, channel=8, data=[59, 79]),
   midi.NoteOffEvent(tick=0, channel=8, data=[54, 79]),
   midi.NoteOffEvent(tick=0, channel=8, data=[47, 79]),
   midi.NoteOnEvent(tick=0, channel=8, data=[49, 79]),
   midi.NoteOnEvent(tick=0, channel=8, data=[44, 79]),
   midi.NoteOffEvent(tick=960, channel=8, data=[49, 79]),
   midi.NoteOffEvent(tick=0, channel=8, data=[44, 79]),
   midi.NoteOnEvent(tick=0, channel=8, data=[51, 79]),
   midi.NoteOnEvent(tick=0, channel=8, data=[46, 79]),
   midi.NoteOffEvent(tick=960, channel=8, data=[51, 79]),
   midi.NoteOffEvent(tick=0, channel=8, data=[46, 79]),
   midi.NoteOnEvent(tick=0, channel=8, data=[51, 79]),
   midi.NoteOnEvent(tick=0, channel=8, data=[46, 79]),
   midi.NoteOffEvent(tick=2880, channel=8, data=[51, 79]),
   midi.NoteOffEvent(tick=0, channel=8, data=[46, 79]),
   midi.NoteOnEvent(tick=0, channel=8, data=[54, 79]),
   midi.NoteOnEvent(tick=0, channel=8, data=[49, 79]),
   midi.NoteOnEvent(tick=0, channel=8, data=[42, 79]),
   midi.NoteOffEvent(tick=960, channel=8, data=[54, 79]),
   midi.NoteOffEvent(tick=0, channel=8, data=[49, 79]),
   midi.NoteOffEvent(tick=0, channel=8, data=[42, 79]),
   midi.NoteOnEvent(tick=0, channel=8, data=[54, 79]),
   midi.NoteOnEvent(tick=0, channel=8, data=[49, 79]),
   midi.NoteOnEvent(tick=0, channel=8, data=[42, 79]),
   midi.NoteOffEvent(tick=2880, channel=8, data=[54, 79]),
   midi.NoteOffEvent(tick=0, channel=8, data=[49, 79]),
   midi.NoteOffEvent(tick=0, channel=8, data=[42, 79]),
   midi.NoteOnEvent(tick=0, channel=8, data=[49, 79]),
   midi.NoteOnEvent(tick=0, channel=8, data=[44, 79]),
   midi.NoteOffEvent(tick=960, channel=8, data=[49, 79]),
   midi.NoteOffEvent(tick=0, channel=8, data=[44, 79]),
   midi.NoteOnEvent(tick=0, channel=8, data=[49, 79]),
   midi.NoteOnEvent(tick=0, channel=8, data=[44, 79]),
   midi.NoteOffEvent(tick=2880, channel=8, data=[49, 79]),
   midi.NoteOffEvent(tick=0, channel=8, data=[44, 79]),
   midi.NoteOnEvent(tick=0, channel=8, data=[59, 79]),
   midi.NoteOnEvent(tick=0, channel=8, data=[54, 79]),
   midi.NoteOnEvent(tick=0, channel=8, data=[47, 79]),
   midi.NoteOffEvent(tick=2880, channel=8, data=[59, 79]),
   midi.NoteOffEvent(tick=0, channel=8, data=[54, 79]),
   midi.NoteOffEvent(tick=0, channel=8, data=[47, 79]),
   midi.NoteOnEvent(tick=0, channel=8, data=[58, 79]),
   midi.NoteOnEvent(tick=0, channel=8, data=[53, 79]),
   midi.NoteOnEvent(tick=0, channel=8, data=[46, 79]),
   midi.NoteOffEvent(tick=960, channel=8, data=[58, 79]),
   midi.NoteOffEvent(tick=0, channel=8, data=[53, 79]),
   midi.NoteOffEvent(tick=0, channel=8, data=[46, 79]),
   midi.NoteOnEvent(tick=61440, channel=8, data=[51, 79]),
   midi.NoteOnEvent(tick=0, channel=8, data=[46, 79]),
   midi.NoteOffEvent(tick=960, channel=8, data=[51, 79]),
   midi.NoteOffEvent(tick=0, channel=8, data=[46, 79]),
   midi.NoteOnEvent(tick=0, channel=8, data=[51, 79]),
   midi.NoteOnEvent(tick=0, channel=8, data=[46, 79]),
   midi.NoteOffEvent(tick=2880, channel=8, data=[51, 79]),
   midi.NoteOffEvent(tick=0, channel=8, data=[46, 79]),
   midi.NoteOnEvent(tick=0, channel=8, data=[54, 79]),
   midi.NoteOnEvent(tick=0, channel=8, data=[49, 79]),
   midi.NoteOnEvent(tick=0, channel=8, data=[42, 79]),
   midi.NoteOffEvent(tick=960, channel=8, data=[54, 79]),
   midi.NoteOffEvent(tick=0, channel=8, data=[49, 79]),
   midi.NoteOffEvent(tick=0, channel=8, data=[42, 79]),
   midi.NoteOnEvent(tick=0, channel=8, data=[54, 79]),
   midi.NoteOnEvent(tick=0, channel=8, data=[49, 79]),
   midi.NoteOnEvent(tick=0, channel=8, data=[42, 79]),
   midi.NoteOffEvent(tick=2880, channel=8, data=[54, 79]),
   midi.NoteOffEvent(tick=0, channel=8, data=[49, 79]),
   midi.NoteOffEvent(tick=0, channel=8, data=[42, 79]),
   midi.NoteOnEvent(tick=0, channel=8, data=[49, 79]),
   midi.NoteOnEvent(tick=0, channel=8, data=[44, 79]),
   midi.NoteOffEvent(tick=960, channel=8, data=[49, 79]),
   midi.NoteOffEvent(tick=0, channel=8, data=[44, 79]),
   midi.NoteOnEvent(tick=0, channel=8, data=[49, 79]),
   midi.NoteOnEvent(tick=0, channel=8, data=[44, 79]),
   midi.NoteOffEvent(tick=2880, channel=8, data=[49, 79]),
   midi.NoteOffEvent(tick=0, channel=8, data=[44, 79]),
   midi.NoteOnEvent(tick=0, channel=8, data=[59, 79]),
   midi.NoteOnEvent(tick=0, channel=8, data=[54, 79]),
   midi.NoteOnEvent(tick=0, channel=8, data=[47, 79]),
   midi.NoteOffEvent(tick=2880, channel=8, data=[59, 79]),
   midi.NoteOffEvent(tick=0, channel=8, data=[54, 79]),
   midi.NoteOffEvent(tick=0, channel=8, data=[47, 79]),
   midi.NoteOnEvent(tick=0, channel=8, data=[49, 79]),
   midi.NoteOnEvent(tick=0, channel=8, data=[44, 79]),
   midi.NoteOffEvent(tick=960, channel=8, data=[49, 79]),
   midi.NoteOffEvent(tick=0, channel=8, data=[44, 79]),
   midi.NoteOnEvent(tick=0, channel=8, data=[51, 79]),
   midi.NoteOnEvent(tick=0, channel=8, data=[46, 79]),
   midi.NoteOffEvent(tick=960, channel=8, data=[51, 79]),
   midi.NoteOffEvent(tick=0, channel=8, data=[46, 79]),
   midi.NoteOnEvent(tick=0, channel=8, data=[51, 79]),
   midi.NoteOnEvent(tick=0, channel=8, data=[46, 79]),
   midi.NoteOffEvent(tick=2880, channel=8, data=[51, 79]),
   midi.NoteOffEvent(tick=0, channel=8, data=[46, 79]),
   midi.NoteOnEvent(tick=0, channel=8, data=[54, 79]),
   midi.NoteOnEvent(tick=0, channel=8, data=[49, 79]),
   midi.NoteOnEvent(tick=0, channel=8, data=[42, 79]),
   midi.NoteOffEvent(tick=960, channel=8, data=[54, 79]),
   midi.NoteOffEvent(tick=0, channel=8, data=[49, 79]),
   midi.NoteOffEvent(tick=0, channel=8, data=[42, 79]),
   midi.NoteOnEvent(tick=0, channel=8, data=[54, 79]),
   midi.NoteOnEvent(tick=0, channel=8, data=[49, 79]),
   midi.NoteOnEvent(tick=0, channel=8, data=[42, 79]),
   midi.NoteOffEvent(tick=2880, channel=8, data=[54, 79]),
   midi.NoteOffEvent(tick=0, channel=8, data=[49, 79]),
   midi.NoteOffEvent(tick=0, channel=8, data=[42, 79]),
   midi.NoteOnEvent(tick=0, channel=8, data=[49, 79]),
   midi.NoteOnEvent(tick=0, channel=8, data=[44, 79]),
   midi.NoteOffEvent(tick=960, channel=8, data=[49, 79]),
   midi.NoteOffEvent(tick=0, channel=8, data=[44, 79]),
   midi.NoteOnEvent(tick=0, channel=8, data=[49, 79]),
   midi.NoteOnEvent(tick=0, channel=8, data=[44, 79]),
   midi.NoteOffEvent(tick=2880, channel=8, data=[49, 79]),
   midi.NoteOffEvent(tick=0, channel=8, data=[44, 79]),
   midi.NoteOnEvent(tick=0, channel=8, data=[59, 79]),
   midi.NoteOnEvent(tick=0, channel=8, data=[54, 79]),
   midi.NoteOnEvent(tick=0, channel=8, data=[47, 79]),
   midi.NoteOffEvent(tick=3840, channel=8, data=[59, 79]),
   midi.NoteOffEvent(tick=0, channel=8, data=[54, 79]),
   midi.NoteOffEvent(tick=0, channel=8, data=[47, 79]),
   midi.NoteOnEvent(tick=0, channel=8, data=[63, 63]),
   midi.NoteOnEvent(tick=0, channel=8, data=[59, 79]),
   midi.NoteOnEvent(tick=0, channel=8, data=[54, 79]),
   midi.NoteOnEvent(tick=0, channel=8, data=[47, 79]),
   midi.NoteOffEvent(tick=3840, channel=8, data=[63, 63]),
   midi.NoteOffEvent(tick=0, channel=8, data=[59, 79]),
   midi.NoteOffEvent(tick=0, channel=8, data=[54, 79]),
   midi.NoteOffEvent(tick=0, channel=8, data=[47, 79]),
   midi.NoteOnEvent(tick=30720, channel=8, data=[51, 79]),
   midi.NoteOnEvent(tick=0, channel=8, data=[46, 79]),
   midi.NoteOffEvent(tick=960, channel=8, data=[51, 79]),
   midi.NoteOffEvent(tick=0, channel=8, data=[46, 79]),
   midi.NoteOnEvent(tick=0, channel=8, data=[51, 79]),
   midi.NoteOnEvent(tick=0, channel=8, data=[46, 79]),
   midi.NoteOffEvent(tick=2880, channel=8, data=[51, 79]),
   midi.NoteOffEvent(tick=0, channel=8, data=[46, 79]),
   midi.NoteOnEvent(tick=0, channel=8, data=[54, 79]),
   midi.NoteOnEvent(tick=0, channel=8, data=[49, 79]),
   midi.NoteOnEvent(tick=0, channel=8, data=[42, 79]),
   midi.NoteOffEvent(tick=960, channel=8, data=[54, 79]),
   midi.NoteOffEvent(tick=0, channel=8, data=[49, 79]),
   midi.NoteOffEvent(tick=0, channel=8, data=[42, 79]),
   midi.NoteOnEvent(tick=0, channel=8, data=[54, 79]),
   midi.NoteOnEvent(tick=0, channel=8, data=[49, 79]),
   midi.NoteOnEvent(tick=0, channel=8, data=[42, 79]),
   midi.NoteOffEvent(tick=2880, channel=8, data=[54, 79]),
   midi.NoteOffEvent(tick=0, channel=8, data=[49, 79]),
   midi.NoteOffEvent(tick=0, channel=8, data=[42, 79]),
   midi.NoteOnEvent(tick=0, channel=8, data=[49, 79]),
   midi.NoteOnEvent(tick=0, channel=8, data=[44, 79]),
   midi.NoteOffEvent(tick=3840, channel=8, data=[49, 79]),
   midi.NoteOffEvent(tick=0, channel=8, data=[44, 79]),
   midi.NoteOnEvent(tick=0, channel=8, data=[59, 79]),
   midi.NoteOnEvent(tick=0, channel=8, data=[54, 79]),
   midi.NoteOnEvent(tick=0, channel=8, data=[47, 79]),
   midi.NoteOffEvent(tick=1920, channel=8, data=[59, 79]),
   midi.NoteOffEvent(tick=0, channel=8, data=[54, 79]),
   midi.NoteOffEvent(tick=0, channel=8, data=[47, 79]),
   midi.NoteOnEvent(tick=0, channel=8, data=[59, 79]),
   midi.NoteOnEvent(tick=0, channel=8, data=[54, 79]),
   midi.NoteOnEvent(tick=0, channel=8, data=[47, 79]),
   midi.NoteOffEvent(tick=960, channel=8, data=[59, 79]),
   midi.NoteOffEvent(tick=0, channel=8, data=[54, 79]),
   midi.NoteOffEvent(tick=0, channel=8, data=[47, 79]),
   midi.NoteOnEvent(tick=0, channel=8, data=[49, 79]),
   midi.NoteOnEvent(tick=0, channel=8, data=[44, 79]),
   midi.NoteOffEvent(tick=960, channel=8, data=[49, 79]),
   midi.NoteOffEvent(tick=0, channel=8, data=[44, 79]),
   midi.NoteOnEvent(tick=0, channel=8, data=[51, 79]),
   midi.NoteOnEvent(tick=0, channel=8, data=[46, 79]),
   midi.NoteOffEvent(tick=3840, channel=8, data=[51, 79]),
   midi.NoteOffEvent(tick=0, channel=8, data=[46, 79]),
   midi.NoteOnEvent(tick=0, channel=8, data=[54, 79]),
   midi.NoteOnEvent(tick=0, channel=8, data=[49, 79]),
   midi.NoteOnEvent(tick=0, channel=8, data=[42, 79]),
   midi.NoteOffEvent(tick=3840, channel=8, data=[54, 79]),
   midi.NoteOffEvent(tick=0, channel=8, data=[49, 79]),
   midi.NoteOffEvent(tick=0, channel=8, data=[42, 79]),
   midi.NoteOnEvent(tick=0, channel=8, data=[49, 79]),
   midi.NoteOnEvent(tick=0, channel=8, data=[44, 79]),
   midi.NoteOffEvent(tick=3840, channel=8, data=[49, 79]),
   midi.NoteOffEvent(tick=0, channel=8, data=[44, 79]),
   midi.NoteOnEvent(tick=0, channel=8, data=[59, 79]),
   midi.NoteOnEvent(tick=0, channel=8, data=[54, 79]),
   midi.NoteOnEvent(tick=0, channel=8, data=[47, 79]),
   midi.NoteOffEvent(tick=3840, channel=8, data=[59, 79]),
   midi.NoteOffEvent(tick=0, channel=8, data=[54, 79]),
   midi.NoteOffEvent(tick=0, channel=8, data=[47, 79]),
   midi.NoteOnEvent(tick=0, channel=8, data=[51, 79]),
   midi.NoteOnEvent(tick=0, channel=8, data=[46, 79]),
   midi.NoteOffEvent(tick=960, channel=8, data=[51, 79]),
   midi.NoteOffEvent(tick=0, channel=8, data=[46, 79]),
   midi.NoteOnEvent(tick=0, channel=8, data=[51, 79]),
   midi.NoteOnEvent(tick=0, channel=8, data=[46, 79]),
   midi.NoteOffEvent(tick=2880, channel=8, data=[51, 79]),
   midi.NoteOffEvent(tick=0, channel=8, data=[46, 79]),
   midi.NoteOnEvent(tick=0, channel=8, data=[54, 79]),
   midi.NoteOnEvent(tick=0, channel=8, data=[49, 79]),
   midi.NoteOnEvent(tick=0, channel=8, data=[42, 79]),
   midi.NoteOffEvent(tick=960, channel=8, data=[54, 79]),
   midi.NoteOffEvent(tick=0, channel=8, data=[49, 79]),
   midi.NoteOffEvent(tick=0, channel=8, data=[42, 79]),
   midi.NoteOnEvent(tick=0, channel=8, data=[54, 79]),
   midi.NoteOnEvent(tick=0, channel=8, data=[49, 79]),
   midi.NoteOnEvent(tick=0, channel=8, data=[42, 79]),
   midi.NoteOffEvent(tick=2880, channel=8, data=[54, 79]),
   midi.NoteOffEvent(tick=0, channel=8, data=[49, 79]),
   midi.NoteOffEvent(tick=0, channel=8, data=[42, 79]),
   midi.NoteOnEvent(tick=0, channel=8, data=[49, 79]),
   midi.NoteOnEvent(tick=0, channel=8, data=[44, 79]),
   midi.NoteOffEvent(tick=960, channel=8, data=[49, 79]),
   midi.NoteOffEvent(tick=0, channel=8, data=[44, 79]),
   midi.NoteOnEvent(tick=0, channel=8, data=[49, 79]),
   midi.NoteOnEvent(tick=0, channel=8, data=[44, 79]),
   midi.NoteOffEvent(tick=2880, channel=8, data=[49, 79]),
   midi.NoteOffEvent(tick=0, channel=8, data=[44, 79]),
   midi.NoteOnEvent(tick=0, channel=8, data=[59, 79]),
   midi.NoteOnEvent(tick=0, channel=8, data=[54, 79]),
   midi.NoteOnEvent(tick=0, channel=8, data=[47, 79]),
   midi.NoteOffEvent(tick=2880, channel=8, data=[59, 79]),
   midi.NoteOffEvent(tick=0, channel=8, data=[54, 79]),
   midi.NoteOffEvent(tick=0, channel=8, data=[47, 79]),
   midi.NoteOnEvent(tick=0, channel=8, data=[49, 79]),
   midi.NoteOnEvent(tick=0, channel=8, data=[44, 79]),
   midi.NoteOffEvent(tick=960, channel=8, data=[49, 79]),
   midi.NoteOffEvent(tick=0, channel=8, data=[44, 79]),
   midi.NoteOnEvent(tick=0, channel=8, data=[51, 79]),
   midi.NoteOnEvent(tick=0, channel=8, data=[46, 79]),
   midi.NoteOffEvent(tick=960, channel=8, data=[51, 79]),
   midi.NoteOffEvent(tick=0, channel=8, data=[46, 79]),
   midi.NoteOnEvent(tick=0, channel=8, data=[51, 79]),
   midi.NoteOnEvent(tick=0, channel=8, data=[46, 79]),
   midi.NoteOffEvent(tick=2880, channel=8, data=[51, 79]),
   midi.NoteOffEvent(tick=0, channel=8, data=[46, 79]),
   midi.NoteOnEvent(tick=0, channel=8, data=[54, 79]),
   midi.NoteOnEvent(tick=0, channel=8, data=[49, 79]),
   midi.NoteOnEvent(tick=0, channel=8, data=[42, 79]),
   midi.NoteOffEvent(tick=960, channel=8, data=[54, 79]),
   midi.NoteOffEvent(tick=0, channel=8, data=[49, 79]),
   midi.NoteOffEvent(tick=0, channel=8, data=[42, 79]),
   midi.NoteOnEvent(tick=0, channel=8, data=[54, 79]),
   midi.NoteOnEvent(tick=0, channel=8, data=[49, 79]),
   midi.NoteOnEvent(tick=0, channel=8, data=[42, 79]),
   midi.NoteOffEvent(tick=2880, channel=8, data=[54, 79]),
   midi.NoteOffEvent(tick=0, channel=8, data=[49, 79]),
   midi.NoteOffEvent(tick=0, channel=8, data=[42, 79]),
   midi.NoteOnEvent(tick=0, channel=8, data=[49, 79]),
   midi.NoteOnEvent(tick=0, channel=8, data=[44, 79]),
   midi.NoteOffEvent(tick=960, channel=8, data=[49, 79]),
   midi.NoteOffEvent(tick=0, channel=8, data=[44, 79]),
   midi.NoteOnEvent(tick=0, channel=8, data=[49, 79]),
   midi.NoteOnEvent(tick=0, channel=8, data=[44, 79]),
   midi.NoteOffEvent(tick=2880, channel=8, data=[49, 79]),
   midi.NoteOffEvent(tick=0, channel=8, data=[44, 79]),
   midi.NoteOnEvent(tick=0, channel=8, data=[75, 79]),
   midi.NoteOnEvent(tick=0, channel=8, data=[59, 79]),
   midi.NoteOnEvent(tick=0, channel=8, data=[54, 79]),
   midi.NoteOnEvent(tick=0, channel=8, data=[47, 79]),
   midi.NoteOffEvent(tick=3840, channel=8, data=[59, 79]),
   midi.NoteOffEvent(tick=0, channel=8, data=[54, 79]),
   midi.NoteOffEvent(tick=0, channel=8, data=[47, 79]),
   midi.NoteOffEvent(tick=11520, channel=8, data=[75, 79]),
   midi.EndOfTrackEvent(tick=0, data=[])]),
 midi.Track(\
  [midi.PitchWheelEvent(tick=0, channel=10, data=[0, 64]),
   midi.ControlChangeEvent(tick=0, channel=10, data=[7, 119]),
   midi.ControlChangeEvent(tick=0, channel=10, data=[10, 63]),
   midi.ControlChangeEvent(tick=0, channel=10, data=[93, 0]),
   midi.ControlChangeEvent(tick=0, channel=10, data=[91, 0]),
   midi.ControlChangeEvent(tick=0, channel=10, data=[95, 0]),
   midi.ControlChangeEvent(tick=0, channel=10, data=[92, 0]),
   midi.ControlChangeEvent(tick=0, channel=10, data=[11, 127]),
   midi.ProgramChangeEvent(tick=0, channel=10, data=[30]),
   midi.NoteOnEvent(tick=96000, channel=10, data=[51, 79]),
   midi.NoteOnEvent(tick=0, channel=10, data=[46, 79]),
   midi.NoteOffEvent(tick=3840, channel=10, data=[51, 79]),
   midi.NoteOffEvent(tick=0, channel=10, data=[46, 79]),
   midi.NoteOnEvent(tick=0, channel=10, data=[54, 79]),
   midi.NoteOnEvent(tick=0, channel=10, data=[49, 79]),
   midi.NoteOnEvent(tick=0, channel=10, data=[42, 79]),
   midi.NoteOffEvent(tick=3840, channel=10, data=[54, 79]),
   midi.NoteOffEvent(tick=0, channel=10, data=[49, 79]),
   midi.NoteOffEvent(tick=0, channel=10, data=[42, 79]),
   midi.NoteOnEvent(tick=0, channel=10, data=[49, 79]),
   midi.NoteOnEvent(tick=0, channel=10, data=[44, 79]),
   midi.NoteOffEvent(tick=3840, channel=10, data=[49, 79]),
   midi.NoteOffEvent(tick=0, channel=10, data=[44, 79]),
   midi.NoteOnEvent(tick=0, channel=10, data=[59, 79]),
   midi.NoteOnEvent(tick=0, channel=10, data=[54, 79]),
   midi.NoteOnEvent(tick=0, channel=10, data=[47, 79]),
   midi.NoteOffEvent(tick=2880, channel=10, data=[59, 79]),
   midi.NoteOffEvent(tick=0, channel=10, data=[54, 79]),
   midi.NoteOffEvent(tick=0, channel=10, data=[47, 79]),
   midi.NoteOnEvent(tick=0, channel=10, data=[49, 79]),
   midi.NoteOnEvent(tick=0, channel=10, data=[44, 79]),
   midi.NoteOffEvent(tick=960, channel=10, data=[49, 79]),
   midi.NoteOffEvent(tick=0, channel=10, data=[44, 79]),
   midi.NoteOnEvent(tick=0, channel=10, data=[51, 79]),
   midi.NoteOnEvent(tick=0, channel=10, data=[46, 79]),
   midi.NoteOffEvent(tick=3840, channel=10, data=[51, 79]),
   midi.NoteOffEvent(tick=0, channel=10, data=[46, 79]),
   midi.NoteOnEvent(tick=0, channel=10, data=[54, 79]),
   midi.NoteOnEvent(tick=0, channel=10, data=[49, 79]),
   midi.NoteOnEvent(tick=0, channel=10, data=[42, 79]),
   midi.NoteOffEvent(tick=3840, channel=10, data=[54, 79]),
   midi.NoteOffEvent(tick=0, channel=10, data=[49, 79]),
   midi.NoteOffEvent(tick=0, channel=10, data=[42, 79]),
   midi.NoteOnEvent(tick=0, channel=10, data=[49, 79]),
   midi.NoteOnEvent(tick=0, channel=10, data=[44, 79]),
   midi.NoteOffEvent(tick=3840, channel=10, data=[49, 79]),
   midi.NoteOffEvent(tick=0, channel=10, data=[44, 79]),
   midi.NoteOnEvent(tick=0, channel=10, data=[59, 79]),
   midi.NoteOnEvent(tick=0, channel=10, data=[54, 79]),
   midi.NoteOnEvent(tick=0, channel=10, data=[47, 79]),
   midi.NoteOffEvent(tick=2880, channel=10, data=[59, 79]),
   midi.NoteOffEvent(tick=0, channel=10, data=[54, 79]),
   midi.NoteOffEvent(tick=0, channel=10, data=[47, 79]),
   midi.NoteOnEvent(tick=0, channel=10, data=[58, 79]),
   midi.NoteOnEvent(tick=0, channel=10, data=[53, 79]),
   midi.NoteOnEvent(tick=0, channel=10, data=[46, 79]),
   midi.NoteOffEvent(tick=960, channel=10, data=[58, 79]),
   midi.NoteOffEvent(tick=0, channel=10, data=[53, 79]),
   midi.NoteOffEvent(tick=0, channel=10, data=[46, 79]),
   midi.NoteOnEvent(tick=61440, channel=10, data=[51, 79]),
   midi.NoteOnEvent(tick=0, channel=10, data=[46, 79]),
   midi.NoteOffEvent(tick=3840, channel=10, data=[51, 79]),
   midi.NoteOffEvent(tick=0, channel=10, data=[46, 79]),
   midi.NoteOnEvent(tick=0, channel=10, data=[54, 79]),
   midi.NoteOnEvent(tick=0, channel=10, data=[49, 79]),
   midi.NoteOnEvent(tick=0, channel=10, data=[42, 79]),
   midi.NoteOffEvent(tick=3840, channel=10, data=[54, 79]),
   midi.NoteOffEvent(tick=0, channel=10, data=[49, 79]),
   midi.NoteOffEvent(tick=0, channel=10, data=[42, 79]),
   midi.NoteOnEvent(tick=0, channel=10, data=[49, 79]),
   midi.NoteOnEvent(tick=0, channel=10, data=[44, 79]),
   midi.NoteOffEvent(tick=3840, channel=10, data=[49, 79]),
   midi.NoteOffEvent(tick=0, channel=10, data=[44, 79]),
   midi.NoteOnEvent(tick=0, channel=10, data=[59, 79]),
   midi.NoteOnEvent(tick=0, channel=10, data=[54, 79]),
   midi.NoteOnEvent(tick=0, channel=10, data=[47, 79]),
   midi.NoteOffEvent(tick=2880, channel=10, data=[59, 79]),
   midi.NoteOffEvent(tick=0, channel=10, data=[54, 79]),
   midi.NoteOffEvent(tick=0, channel=10, data=[47, 79]),
   midi.NoteOnEvent(tick=0, channel=10, data=[49, 79]),
   midi.NoteOnEvent(tick=0, channel=10, data=[44, 79]),
   midi.NoteOffEvent(tick=960, channel=10, data=[49, 79]),
   midi.NoteOffEvent(tick=0, channel=10, data=[44, 79]),
   midi.NoteOnEvent(tick=0, channel=10, data=[51, 79]),
   midi.NoteOnEvent(tick=0, channel=10, data=[46, 79]),
   midi.NoteOffEvent(tick=3840, channel=10, data=[51, 79]),
   midi.NoteOffEvent(tick=0, channel=10, data=[46, 79]),
   midi.NoteOnEvent(tick=0, channel=10, data=[54, 79]),
   midi.NoteOnEvent(tick=0, channel=10, data=[49, 79]),
   midi.NoteOnEvent(tick=0, channel=10, data=[42, 79]),
   midi.NoteOffEvent(tick=3840, channel=10, data=[54, 79]),
   midi.NoteOffEvent(tick=0, channel=10, data=[49, 79]),
   midi.NoteOffEvent(tick=0, channel=10, data=[42, 79]),
   midi.NoteOnEvent(tick=0, channel=10, data=[49, 79]),
   midi.NoteOnEvent(tick=0, channel=10, data=[44, 79]),
   midi.NoteOffEvent(tick=3840, channel=10, data=[49, 79]),
   midi.NoteOffEvent(tick=0, channel=10, data=[44, 79]),
   midi.NoteOnEvent(tick=0, channel=10, data=[59, 79]),
   midi.NoteOnEvent(tick=0, channel=10, data=[54, 79]),
   midi.NoteOnEvent(tick=0, channel=10, data=[47, 79]),
   midi.NoteOffEvent(tick=3840, channel=10, data=[59, 79]),
   midi.NoteOffEvent(tick=0, channel=10, data=[54, 79]),
   midi.NoteOffEvent(tick=0, channel=10, data=[47, 79]),
   midi.NoteOnEvent(tick=0, channel=10, data=[63, 63]),
   midi.NoteOnEvent(tick=0, channel=10, data=[59, 79]),
   midi.NoteOnEvent(tick=0, channel=10, data=[54, 79]),
   midi.NoteOnEvent(tick=0, channel=10, data=[47, 79]),
   midi.NoteOffEvent(tick=3840, channel=10, data=[63, 63]),
   midi.NoteOffEvent(tick=0, channel=10, data=[59, 79]),
   midi.NoteOffEvent(tick=0, channel=10, data=[54, 79]),
   midi.NoteOffEvent(tick=0, channel=10, data=[47, 79]),
   midi.NoteOnEvent(tick=30720, channel=10, data=[51, 79]),
   midi.NoteOnEvent(tick=0, channel=10, data=[46, 79]),
   midi.NoteOffEvent(tick=3840, channel=10, data=[51, 79]),
   midi.NoteOffEvent(tick=0, channel=10, data=[46, 79]),
   midi.NoteOnEvent(tick=0, channel=10, data=[54, 79]),
   midi.NoteOnEvent(tick=0, channel=10, data=[49, 79]),
   midi.NoteOnEvent(tick=0, channel=10, data=[42, 79]),
   midi.NoteOffEvent(tick=3840, channel=10, data=[54, 79]),
   midi.NoteOffEvent(tick=0, channel=10, data=[49, 79]),
   midi.NoteOffEvent(tick=0, channel=10, data=[42, 79]),
   midi.NoteOnEvent(tick=0, channel=10, data=[49, 79]),
   midi.NoteOnEvent(tick=0, channel=10, data=[44, 79]),
   midi.NoteOffEvent(tick=3840, channel=10, data=[49, 79]),
   midi.NoteOffEvent(tick=0, channel=10, data=[44, 79]),
   midi.NoteOnEvent(tick=0, channel=10, data=[59, 79]),
   midi.NoteOnEvent(tick=0, channel=10, data=[54, 79]),
   midi.NoteOnEvent(tick=0, channel=10, data=[47, 79]),
   midi.NoteOffEvent(tick=1920, channel=10, data=[59, 79]),
   midi.NoteOffEvent(tick=0, channel=10, data=[54, 79]),
   midi.NoteOffEvent(tick=0, channel=10, data=[47, 79]),
   midi.NoteOnEvent(tick=0, channel=10, data=[59, 79]),
   midi.NoteOnEvent(tick=0, channel=10, data=[54, 79]),
   midi.NoteOnEvent(tick=0, channel=10, data=[47, 79]),
   midi.NoteOffEvent(tick=960, channel=10, data=[59, 79]),
   midi.NoteOffEvent(tick=0, channel=10, data=[54, 79]),
   midi.NoteOffEvent(tick=0, channel=10, data=[47, 79]),
   midi.NoteOnEvent(tick=0, channel=10, data=[49, 79]),
   midi.NoteOnEvent(tick=0, channel=10, data=[44, 79]),
   midi.NoteOffEvent(tick=960, channel=10, data=[49, 79]),
   midi.NoteOffEvent(tick=0, channel=10, data=[44, 79]),
   midi.NoteOnEvent(tick=0, channel=10, data=[51, 79]),
   midi.NoteOnEvent(tick=0, channel=10, data=[46, 79]),
   midi.NoteOffEvent(tick=3840, channel=10, data=[51, 79]),
   midi.NoteOffEvent(tick=0, channel=10, data=[46, 79]),
   midi.NoteOnEvent(tick=0, channel=10, data=[54, 79]),
   midi.NoteOnEvent(tick=0, channel=10, data=[49, 79]),
   midi.NoteOnEvent(tick=0, channel=10, data=[42, 79]),
   midi.NoteOffEvent(tick=3840, channel=10, data=[54, 79]),
   midi.NoteOffEvent(tick=0, channel=10, data=[49, 79]),
   midi.NoteOffEvent(tick=0, channel=10, data=[42, 79]),
   midi.NoteOnEvent(tick=0, channel=10, data=[49, 79]),
   midi.NoteOnEvent(tick=0, channel=10, data=[44, 79]),
   midi.NoteOffEvent(tick=3840, channel=10, data=[49, 79]),
   midi.NoteOffEvent(tick=0, channel=10, data=[44, 79]),
   midi.NoteOnEvent(tick=0, channel=10, data=[59, 79]),
   midi.NoteOnEvent(tick=0, channel=10, data=[54, 79]),
   midi.NoteOnEvent(tick=0, channel=10, data=[47, 79]),
   midi.NoteOffEvent(tick=3840, channel=10, data=[59, 79]),
   midi.NoteOffEvent(tick=0, channel=10, data=[54, 79]),
   midi.NoteOffEvent(tick=0, channel=10, data=[47, 79]),
   midi.NoteOnEvent(tick=0, channel=10, data=[51, 79]),
   midi.NoteOnEvent(tick=0, channel=10, data=[46, 79]),
   midi.NoteOffEvent(tick=3840, channel=10, data=[51, 79]),
   midi.NoteOffEvent(tick=0, channel=10, data=[46, 79]),
   midi.NoteOnEvent(tick=0, channel=10, data=[54, 79]),
   midi.NoteOnEvent(tick=0, channel=10, data=[49, 79]),
   midi.NoteOnEvent(tick=0, channel=10, data=[42, 79]),
   midi.NoteOffEvent(tick=3840, channel=10, data=[54, 79]),
   midi.NoteOffEvent(tick=0, channel=10, data=[49, 79]),
   midi.NoteOffEvent(tick=0, channel=10, data=[42, 79]),
   midi.NoteOnEvent(tick=0, channel=10, data=[49, 79]),
   midi.NoteOnEvent(tick=0, channel=10, data=[44, 79]),
   midi.NoteOffEvent(tick=3840, channel=10, data=[49, 79]),
   midi.NoteOffEvent(tick=0, channel=10, data=[44, 79]),
   midi.NoteOnEvent(tick=0, channel=10, data=[59, 79]),
   midi.NoteOnEvent(tick=0, channel=10, data=[54, 79]),
   midi.NoteOnEvent(tick=0, channel=10, data=[47, 79]),
   midi.NoteOffEvent(tick=2880, channel=10, data=[59, 79]),
   midi.NoteOffEvent(tick=0, channel=10, data=[54, 79]),
   midi.NoteOffEvent(tick=0, channel=10, data=[47, 79]),
   midi.NoteOnEvent(tick=0, channel=10, data=[49, 79]),
   midi.NoteOnEvent(tick=0, channel=10, data=[44, 79]),
   midi.NoteOffEvent(tick=960, channel=10, data=[49, 79]),
   midi.NoteOffEvent(tick=0, channel=10, data=[44, 79]),
   midi.NoteOnEvent(tick=0, channel=10, data=[51, 79]),
   midi.NoteOnEvent(tick=0, channel=10, data=[46, 79]),
   midi.NoteOffEvent(tick=3840, channel=10, data=[51, 79]),
   midi.NoteOffEvent(tick=0, channel=10, data=[46, 79]),
   midi.NoteOnEvent(tick=0, channel=10, data=[54, 79]),
   midi.NoteOnEvent(tick=0, channel=10, data=[49, 79]),
   midi.NoteOnEvent(tick=0, channel=10, data=[42, 79]),
   midi.NoteOffEvent(tick=3840, channel=10, data=[54, 79]),
   midi.NoteOffEvent(tick=0, channel=10, data=[49, 79]),
   midi.NoteOffEvent(tick=0, channel=10, data=[42, 79]),
   midi.NoteOnEvent(tick=0, channel=10, data=[49, 79]),
   midi.NoteOnEvent(tick=0, channel=10, data=[44, 79]),
   midi.NoteOffEvent(tick=3840, channel=10, data=[49, 79]),
   midi.NoteOffEvent(tick=0, channel=10, data=[44, 79]),
   midi.NoteOnEvent(tick=0, channel=10, data=[59, 79]),
   midi.NoteOnEvent(tick=0, channel=10, data=[54, 79]),
   midi.NoteOnEvent(tick=0, channel=10, data=[47, 79]),
   midi.NoteOffEvent(tick=3840, channel=10, data=[59, 79]),
   midi.NoteOffEvent(tick=0, channel=10, data=[54, 79]),
   midi.NoteOffEvent(tick=0, channel=10, data=[47, 79]),
   midi.EndOfTrackEvent(tick=0, data=[])]),
 midi.Track(\
  [midi.PitchWheelEvent(tick=0, channel=11, data=[0, 64]),
   midi.ControlChangeEvent(tick=0, channel=11, data=[7, 87]),
   midi.ControlChangeEvent(tick=0, channel=11, data=[10, 63]),
   midi.ControlChangeEvent(tick=0, channel=11, data=[93, 0]),
   midi.ControlChangeEvent(tick=0, channel=11, data=[91, 0]),
   midi.ControlChangeEvent(tick=0, channel=11, data=[95, 0]),
   midi.ControlChangeEvent(tick=0, channel=11, data=[92, 0]),
   midi.ControlChangeEvent(tick=0, channel=11, data=[11, 127]),
   midi.ProgramChangeEvent(tick=0, channel=11, data=[33]),
   midi.NoteOnEvent(tick=34560, channel=11, data=[39, 79]),
   midi.NoteOffEvent(tick=240, channel=11, data=[39, 79]),
   midi.NoteOnEvent(tick=0, channel=11, data=[39, 79]),
   midi.NoteOffEvent(tick=240, channel=11, data=[39, 79]),
   midi.NoteOnEvent(tick=0, channel=11, data=[39, 79]),
   midi.NoteOffEvent(tick=240, channel=11, data=[39, 79]),
   midi.NoteOnEvent(tick=0, channel=11, data=[39, 79]),
   midi.NoteOffEvent(tick=240, channel=11, data=[39, 79]),
   midi.NoteOnEvent(tick=0, channel=11, data=[39, 79]),
   midi.NoteOffEvent(tick=480, channel=11, data=[39, 79]),
   midi.NoteOnEvent(tick=960, channel=11, data=[39, 79]),
   midi.NoteOffEvent(tick=480, channel=11, data=[39, 79]),
   midi.NoteOnEvent(tick=0, channel=11, data=[39, 79]),
   midi.NoteOffEvent(tick=240, channel=11, data=[39, 79]),
   midi.NoteOnEvent(tick=0, channel=11, data=[39, 79]),
   midi.NoteOffEvent(tick=240, channel=11, data=[39, 79]),
   midi.NoteOnEvent(tick=0, channel=11, data=[39, 79]),
   midi.NoteOffEvent(tick=240, channel=11, data=[39, 79]),
   midi.NoteOnEvent(tick=0, channel=11, data=[39, 79]),
   midi.NoteOffEvent(tick=240, channel=11, data=[39, 79]),
   midi.NoteOnEvent(tick=0, channel=11, data=[37, 79]),
   midi.NoteOffEvent(tick=240, channel=11, data=[37, 79]),
   midi.NoteOnEvent(tick=0, channel=11, data=[37, 79]),
   midi.NoteOffEvent(tick=240, channel=11, data=[37, 79]),
   midi.NoteOnEvent(tick=0, channel=11, data=[37, 79]),
   midi.NoteOffEvent(tick=240, channel=11, data=[37, 79]),
   midi.NoteOnEvent(tick=0, channel=11, data=[37, 79]),
   midi.NoteOffEvent(tick=240, channel=11, data=[37, 79]),
   midi.NoteOnEvent(tick=0, channel=11, data=[37, 79]),
   midi.NoteOffEvent(tick=480, channel=11, data=[37, 79]),
   midi.NoteOnEvent(tick=960, channel=11, data=[37, 79]),
   midi.NoteOffEvent(tick=480, channel=11, data=[37, 79]),
   midi.NoteOnEvent(tick=0, channel=11, data=[37, 79]),
   midi.NoteOffEvent(tick=240, channel=11, data=[37, 79]),
   midi.NoteOnEvent(tick=0, channel=11, data=[37, 79]),
   midi.NoteOffEvent(tick=240, channel=11, data=[37, 79]),
   midi.NoteOnEvent(tick=0, channel=11, data=[37, 79]),
   midi.NoteOffEvent(tick=240, channel=11, data=[37, 79]),
   midi.NoteOnEvent(tick=0, channel=11, data=[37, 79]),
   midi.NoteOffEvent(tick=240, channel=11, data=[37, 79]),
   midi.NoteOnEvent(tick=0, channel=11, data=[35, 79]),
   midi.NoteOffEvent(tick=240, channel=11, data=[35, 79]),
   midi.NoteOnEvent(tick=0, channel=11, data=[35, 79]),
   midi.NoteOffEvent(tick=240, channel=11, data=[35, 79]),
   midi.NoteOnEvent(tick=0, channel=11, data=[35, 79]),
   midi.NoteOffEvent(tick=240, channel=11, data=[35, 79]),
   midi.NoteOnEvent(tick=0, channel=11, data=[35, 79]),
   midi.NoteOffEvent(tick=240, channel=11, data=[35, 79]),
   midi.NoteOnEvent(tick=0, channel=11, data=[35, 79]),
   midi.NoteOffEvent(tick=480, channel=11, data=[35, 79]),
   midi.NoteOnEvent(tick=960, channel=11, data=[35, 79]),
   midi.NoteOffEvent(tick=480, channel=11, data=[35, 79]),
   midi.NoteOnEvent(tick=0, channel=11, data=[35, 79]),
   midi.NoteOffEvent(tick=240, channel=11, data=[35, 79]),
   midi.NoteOnEvent(tick=0, channel=11, data=[35, 79]),
   midi.NoteOffEvent(tick=240, channel=11, data=[35, 79]),
   midi.NoteOnEvent(tick=0, channel=11, data=[35, 79]),
   midi.NoteOffEvent(tick=240, channel=11, data=[35, 79]),
   midi.NoteOnEvent(tick=0, channel=11, data=[35, 79]),
   midi.NoteOffEvent(tick=240, channel=11, data=[35, 79]),
   midi.NoteOnEvent(tick=0, channel=11, data=[37, 79]),
   midi.NoteOffEvent(tick=240, channel=11, data=[37, 79]),
   midi.NoteOnEvent(tick=0, channel=11, data=[37, 79]),
   midi.NoteOffEvent(tick=240, channel=11, data=[37, 79]),
   midi.NoteOnEvent(tick=0, channel=11, data=[37, 79]),
   midi.NoteOffEvent(tick=240, channel=11, data=[37, 79]),
   midi.NoteOnEvent(tick=0, channel=11, data=[37, 79]),
   midi.NoteOffEvent(tick=240, channel=11, data=[37, 79]),
   midi.NoteOnEvent(tick=0, channel=11, data=[37, 79]),
   midi.NoteOffEvent(tick=480, channel=11, data=[37, 79]),
   midi.NoteOnEvent(tick=960, channel=11, data=[37, 79]),
   midi.NoteOffEvent(tick=480, channel=11, data=[37, 79]),
   midi.NoteOnEvent(tick=0, channel=11, data=[37, 79]),
   midi.NoteOffEvent(tick=480, channel=11, data=[37, 79]),
   midi.NoteOnEvent(tick=0, channel=11, data=[37, 79]),
   midi.NoteOffEvent(tick=480, channel=11, data=[37, 79]),
   midi.NoteOnEvent(tick=0, channel=11, data=[39, 79]),
   midi.NoteOffEvent(tick=240, channel=11, data=[39, 79]),
   midi.NoteOnEvent(tick=0, channel=11, data=[39, 79]),
   midi.NoteOffEvent(tick=240, channel=11, data=[39, 79]),
   midi.NoteOnEvent(tick=0, channel=11, data=[39, 79]),
   midi.NoteOffEvent(tick=240, channel=11, data=[39, 79]),
   midi.NoteOnEvent(tick=0, channel=11, data=[39, 79]),
   midi.NoteOffEvent(tick=240, channel=11, data=[39, 79]),
   midi.NoteOnEvent(tick=0, channel=11, data=[39, 79]),
   midi.NoteOffEvent(tick=480, channel=11, data=[39, 79]),
   midi.NoteOnEvent(tick=960, channel=11, data=[39, 79]),
   midi.NoteOffEvent(tick=480, channel=11, data=[39, 79]),
   midi.NoteOnEvent(tick=0, channel=11, data=[39, 79]),
   midi.NoteOffEvent(tick=240, channel=11, data=[39, 79]),
   midi.NoteOnEvent(tick=0, channel=11, data=[39, 79]),
   midi.NoteOffEvent(tick=240, channel=11, data=[39, 79]),
   midi.NoteOnEvent(tick=0, channel=11, data=[39, 79]),
   midi.NoteOffEvent(tick=240, channel=11, data=[39, 79]),
   midi.NoteOnEvent(tick=0, channel=11, data=[39, 79]),
   midi.NoteOffEvent(tick=240, channel=11, data=[39, 79]),
   midi.NoteOnEvent(tick=0, channel=11, data=[37, 79]),
   midi.NoteOffEvent(tick=240, channel=11, data=[37, 79]),
   midi.NoteOnEvent(tick=0, channel=11, data=[37, 79]),
   midi.NoteOffEvent(tick=240, channel=11, data=[37, 79]),
   midi.NoteOnEvent(tick=0, channel=11, data=[37, 79]),
   midi.NoteOffEvent(tick=240, channel=11, data=[37, 79]),
   midi.NoteOnEvent(tick=0, channel=11, data=[37, 79]),
   midi.NoteOffEvent(tick=240, channel=11, data=[37, 79]),
   midi.NoteOnEvent(tick=0, channel=11, data=[37, 79]),
   midi.NoteOffEvent(tick=480, channel=11, data=[37, 79]),
   midi.NoteOnEvent(tick=960, channel=11, data=[37, 79]),
   midi.NoteOffEvent(tick=480, channel=11, data=[37, 79]),
   midi.NoteOnEvent(tick=0, channel=11, data=[37, 79]),
   midi.NoteOffEvent(tick=240, channel=11, data=[37, 79]),
   midi.NoteOnEvent(tick=0, channel=11, data=[37, 79]),
   midi.NoteOffEvent(tick=240, channel=11, data=[37, 79]),
   midi.NoteOnEvent(tick=0, channel=11, data=[37, 79]),
   midi.NoteOffEvent(tick=240, channel=11, data=[37, 79]),
   midi.NoteOnEvent(tick=0, channel=11, data=[37, 79]),
   midi.NoteOffEvent(tick=240, channel=11, data=[37, 79]),
   midi.NoteOnEvent(tick=0, channel=11, data=[35, 79]),
   midi.NoteOffEvent(tick=240, channel=11, data=[35, 79]),
   midi.NoteOnEvent(tick=0, channel=11, data=[35, 79]),
   midi.NoteOffEvent(tick=240, channel=11, data=[35, 79]),
   midi.NoteOnEvent(tick=0, channel=11, data=[35, 79]),
   midi.NoteOffEvent(tick=240, channel=11, data=[35, 79]),
   midi.NoteOnEvent(tick=0, channel=11, data=[35, 79]),
   midi.NoteOffEvent(tick=240, channel=11, data=[35, 79]),
   midi.NoteOnEvent(tick=0, channel=11, data=[35, 79]),
   midi.NoteOffEvent(tick=480, channel=11, data=[35, 79]),
   midi.NoteOnEvent(tick=960, channel=11, data=[35, 79]),
   midi.NoteOffEvent(tick=480, channel=11, data=[35, 79]),
   midi.NoteOnEvent(tick=0, channel=11, data=[35, 79]),
   midi.NoteOffEvent(tick=240, channel=11, data=[35, 79]),
   midi.NoteOnEvent(tick=0, channel=11, data=[35, 79]),
   midi.NoteOffEvent(tick=240, channel=11, data=[35, 79]),
   midi.NoteOnEvent(tick=0, channel=11, data=[35, 79]),
   midi.NoteOffEvent(tick=240, channel=11, data=[35, 79]),
   midi.NoteOnEvent(tick=0, channel=11, data=[35, 79]),
   midi.NoteOffEvent(tick=240, channel=11, data=[35, 79]),
   midi.NoteOnEvent(tick=0, channel=11, data=[37, 79]),
   midi.NoteOffEvent(tick=240, channel=11, data=[37, 79]),
   midi.NoteOnEvent(tick=0, channel=11, data=[37, 79]),
   midi.NoteOffEvent(tick=240, channel=11, data=[37, 79]),
   midi.NoteOnEvent(tick=0, channel=11, data=[37, 79]),
   midi.NoteOffEvent(tick=240, channel=11, data=[37, 79]),
   midi.NoteOnEvent(tick=0, channel=11, data=[37, 79]),
   midi.NoteOffEvent(tick=240, channel=11, data=[37, 79]),
   midi.NoteOnEvent(tick=0, channel=11, data=[37, 79]),
   midi.NoteOffEvent(tick=480, channel=11, data=[37, 79]),
   midi.NoteOnEvent(tick=960, channel=11, data=[37, 79]),
   midi.NoteOffEvent(tick=480, channel=11, data=[37, 79]),
   midi.NoteOnEvent(tick=0, channel=11, data=[37, 79]),
   midi.NoteOffEvent(tick=480, channel=11, data=[37, 79]),
   midi.NoteOnEvent(tick=0, channel=11, data=[37, 79]),
   midi.NoteOffEvent(tick=480, channel=11, data=[37, 79]),
   midi.NoteOnEvent(tick=0, channel=11, data=[39, 79]),
   midi.NoteOffEvent(tick=240, channel=11, data=[39, 79]),
   midi.NoteOnEvent(tick=0, channel=11, data=[39, 79]),
   midi.NoteOffEvent(tick=240, channel=11, data=[39, 79]),
   midi.NoteOnEvent(tick=0, channel=11, data=[39, 79]),
   midi.NoteOffEvent(tick=240, channel=11, data=[39, 79]),
   midi.NoteOnEvent(tick=0, channel=11, data=[39, 79]),
   midi.NoteOffEvent(tick=240, channel=11, data=[39, 79]),
   midi.NoteOnEvent(tick=0, channel=11, data=[39, 79]),
   midi.NoteOffEvent(tick=480, channel=11, data=[39, 79]),
   midi.NoteOnEvent(tick=960, channel=11, data=[39, 79]),
   midi.NoteOffEvent(tick=480, channel=11, data=[39, 79]),
   midi.NoteOnEvent(tick=0, channel=11, data=[39, 79]),
   midi.NoteOffEvent(tick=240, channel=11, data=[39, 79]),
   midi.NoteOnEvent(tick=0, channel=11, data=[39, 79]),
   midi.NoteOffEvent(tick=240, channel=11, data=[39, 79]),
   midi.NoteOnEvent(tick=0, channel=11, data=[39, 79]),
   midi.NoteOffEvent(tick=240, channel=11, data=[39, 79]),
   midi.NoteOnEvent(tick=0, channel=11, data=[39, 79]),
   midi.NoteOffEvent(tick=240, channel=11, data=[39, 79]),
   midi.NoteOnEvent(tick=0, channel=11, data=[37, 79]),
   midi.NoteOffEvent(tick=240, channel=11, data=[37, 79]),
   midi.NoteOnEvent(tick=0, channel=11, data=[37, 79]),
   midi.NoteOffEvent(tick=240, channel=11, data=[37, 79]),
   midi.NoteOnEvent(tick=0, channel=11, data=[37, 79]),
   midi.NoteOffEvent(tick=240, channel=11, data=[37, 79]),
   midi.NoteOnEvent(tick=0, channel=11, data=[37, 79]),
   midi.NoteOffEvent(tick=240, channel=11, data=[37, 79]),
   midi.NoteOnEvent(tick=0, channel=11, data=[37, 79]),
   midi.NoteOffEvent(tick=480, channel=11, data=[37, 79]),
   midi.NoteOnEvent(tick=960, channel=11, data=[37, 79]),
   midi.NoteOffEvent(tick=480, channel=11, data=[37, 79]),
   midi.NoteOnEvent(tick=0, channel=11, data=[37, 79]),
   midi.NoteOffEvent(tick=240, channel=11, data=[37, 79]),
   midi.NoteOnEvent(tick=0, channel=11, data=[37, 79]),
   midi.NoteOffEvent(tick=240, channel=11, data=[37, 79]),
   midi.NoteOnEvent(tick=0, channel=11, data=[37, 79]),
   midi.NoteOffEvent(tick=240, channel=11, data=[37, 79]),
   midi.NoteOnEvent(tick=0, channel=11, data=[37, 79]),
   midi.NoteOffEvent(tick=240, channel=11, data=[37, 79]),
   midi.NoteOnEvent(tick=0, channel=11, data=[35, 79]),
   midi.NoteOffEvent(tick=240, channel=11, data=[35, 79]),
   midi.NoteOnEvent(tick=0, channel=11, data=[35, 79]),
   midi.NoteOffEvent(tick=240, channel=11, data=[35, 79]),
   midi.NoteOnEvent(tick=0, channel=11, data=[35, 79]),
   midi.NoteOffEvent(tick=240, channel=11, data=[35, 79]),
   midi.NoteOnEvent(tick=0, channel=11, data=[35, 79]),
   midi.NoteOffEvent(tick=240, channel=11, data=[35, 79]),
   midi.NoteOnEvent(tick=0, channel=11, data=[35, 79]),
   midi.NoteOffEvent(tick=480, channel=11, data=[35, 79]),
   midi.NoteOnEvent(tick=960, channel=11, data=[35, 79]),
   midi.NoteOffEvent(tick=480, channel=11, data=[35, 79]),
   midi.NoteOnEvent(tick=0, channel=11, data=[35, 79]),
   midi.NoteOffEvent(tick=240, channel=11, data=[35, 79]),
   midi.NoteOnEvent(tick=0, channel=11, data=[35, 79]),
   midi.NoteOffEvent(tick=240, channel=11, data=[35, 79]),
   midi.NoteOnEvent(tick=0, channel=11, data=[35, 79]),
   midi.NoteOffEvent(tick=240, channel=11, data=[35, 79]),
   midi.NoteOnEvent(tick=0, channel=11, data=[35, 79]),
   midi.NoteOffEvent(tick=240, channel=11, data=[35, 79]),
   midi.NoteOnEvent(tick=0, channel=11, data=[37, 79]),
   midi.NoteOffEvent(tick=240, channel=11, data=[37, 79]),
   midi.NoteOnEvent(tick=0, channel=11, data=[37, 79]),
   midi.NoteOffEvent(tick=240, channel=11, data=[37, 79]),
   midi.NoteOnEvent(tick=0, channel=11, data=[37, 79]),
   midi.NoteOffEvent(tick=240, channel=11, data=[37, 79]),
   midi.NoteOnEvent(tick=0, channel=11, data=[37, 79]),
   midi.NoteOffEvent(tick=240, channel=11, data=[37, 79]),
   midi.NoteOnEvent(tick=0, channel=11, data=[37, 79]),
   midi.NoteOffEvent(tick=480, channel=11, data=[37, 79]),
   midi.NoteOnEvent(tick=960, channel=11, data=[37, 79]),
   midi.NoteOffEvent(tick=480, channel=11, data=[37, 79]),
   midi.NoteOnEvent(tick=0, channel=11, data=[37, 79]),
   midi.NoteOffEvent(tick=480, channel=11, data=[37, 79]),
   midi.NoteOnEvent(tick=0, channel=11, data=[37, 79]),
   midi.NoteOffEvent(tick=480, channel=11, data=[37, 79]),
   midi.NoteOnEvent(tick=0, channel=11, data=[39, 79]),
   midi.NoteOffEvent(tick=240, channel=11, data=[39, 79]),
   midi.NoteOnEvent(tick=0, channel=11, data=[39, 79]),
   midi.NoteOffEvent(tick=240, channel=11, data=[39, 79]),
   midi.NoteOnEvent(tick=0, channel=11, data=[39, 79]),
   midi.NoteOffEvent(tick=240, channel=11, data=[39, 79]),
   midi.NoteOnEvent(tick=0, channel=11, data=[39, 79]),
   midi.NoteOffEvent(tick=240, channel=11, data=[39, 79]),
   midi.NoteOnEvent(tick=0, channel=11, data=[39, 79]),
   midi.NoteOffEvent(tick=480, channel=11, data=[39, 79]),
   midi.NoteOnEvent(tick=960, channel=11, data=[39, 79]),
   midi.NoteOffEvent(tick=480, channel=11, data=[39, 79]),
   midi.NoteOnEvent(tick=0, channel=11, data=[39, 79]),
   midi.NoteOffEvent(tick=240, channel=11, data=[39, 79]),
   midi.NoteOnEvent(tick=0, channel=11, data=[39, 79]),
   midi.NoteOffEvent(tick=240, channel=11, data=[39, 79]),
   midi.NoteOnEvent(tick=0, channel=11, data=[39, 79]),
   midi.NoteOffEvent(tick=240, channel=11, data=[39, 79]),
   midi.NoteOnEvent(tick=0, channel=11, data=[39, 79]),
   midi.NoteOffEvent(tick=240, channel=11, data=[39, 79]),
   midi.NoteOnEvent(tick=0, channel=11, data=[37, 79]),
   midi.NoteOffEvent(tick=240, channel=11, data=[37, 79]),
   midi.NoteOnEvent(tick=0, channel=11, data=[37, 79]),
   midi.NoteOffEvent(tick=240, channel=11, data=[37, 79]),
   midi.NoteOnEvent(tick=0, channel=11, data=[37, 79]),
   midi.NoteOffEvent(tick=240, channel=11, data=[37, 79]),
   midi.NoteOnEvent(tick=0, channel=11, data=[37, 79]),
   midi.NoteOffEvent(tick=240, channel=11, data=[37, 79]),
   midi.NoteOnEvent(tick=0, channel=11, data=[37, 79]),
   midi.NoteOffEvent(tick=480, channel=11, data=[37, 79]),
   midi.NoteOnEvent(tick=960, channel=11, data=[37, 79]),
   midi.NoteOffEvent(tick=480, channel=11, data=[37, 79]),
   midi.NoteOnEvent(tick=0, channel=11, data=[37, 79]),
   midi.NoteOffEvent(tick=240, channel=11, data=[37, 79]),
   midi.NoteOnEvent(tick=0, channel=11, data=[37, 79]),
   midi.NoteOffEvent(tick=240, channel=11, data=[37, 79]),
   midi.NoteOnEvent(tick=0, channel=11, data=[37, 79]),
   midi.NoteOffEvent(tick=240, channel=11, data=[37, 79]),
   midi.NoteOnEvent(tick=0, channel=11, data=[37, 79]),
   midi.NoteOffEvent(tick=240, channel=11, data=[37, 79]),
   midi.NoteOnEvent(tick=0, channel=11, data=[35, 79]),
   midi.NoteOffEvent(tick=240, channel=11, data=[35, 79]),
   midi.NoteOnEvent(tick=0, channel=11, data=[35, 79]),
   midi.NoteOffEvent(tick=240, channel=11, data=[35, 79]),
   midi.NoteOnEvent(tick=0, channel=11, data=[35, 79]),
   midi.NoteOffEvent(tick=240, channel=11, data=[35, 79]),
   midi.NoteOnEvent(tick=0, channel=11, data=[35, 79]),
   midi.NoteOffEvent(tick=240, channel=11, data=[35, 79]),
   midi.NoteOnEvent(tick=0, channel=11, data=[35, 79]),
   midi.NoteOffEvent(tick=480, channel=11, data=[35, 79]),
   midi.NoteOnEvent(tick=960, channel=11, data=[35, 79]),
   midi.NoteOffEvent(tick=480, channel=11, data=[35, 79]),
   midi.NoteOnEvent(tick=0, channel=11, data=[35, 79]),
   midi.NoteOffEvent(tick=240, channel=11, data=[35, 79]),
   midi.NoteOnEvent(tick=0, channel=11, data=[35, 79]),
   midi.NoteOffEvent(tick=240, channel=11, data=[35, 79]),
   midi.NoteOnEvent(tick=0, channel=11, data=[35, 79]),
   midi.NoteOffEvent(tick=240, channel=11, data=[35, 79]),
   midi.NoteOnEvent(tick=0, channel=11, data=[35, 79]),
   midi.NoteOffEvent(tick=240, channel=11, data=[35, 79]),
   midi.NoteOnEvent(tick=0, channel=11, data=[37, 79]),
   midi.NoteOffEvent(tick=240, channel=11, data=[37, 79]),
   midi.NoteOnEvent(tick=0, channel=11, data=[37, 79]),
   midi.NoteOffEvent(tick=240, channel=11, data=[37, 79]),
   midi.NoteOnEvent(tick=0, channel=11, data=[37, 79]),
   midi.NoteOffEvent(tick=240, channel=11, data=[37, 79]),
   midi.NoteOnEvent(tick=0, channel=11, data=[37, 79]),
   midi.NoteOffEvent(tick=240, channel=11, data=[37, 79]),
   midi.NoteOnEvent(tick=0, channel=11, data=[37, 79]),
   midi.NoteOffEvent(tick=480, channel=11, data=[37, 79]),
   midi.NoteOnEvent(tick=2400, channel=11, data=[39, 79]),
   midi.NoteOffEvent(tick=600, channel=11, data=[39, 79]),
   midi.NoteOnEvent(tick=120, channel=11, data=[39, 79]),
   midi.NoteOffEvent(tick=240, channel=11, data=[39, 79]),
   midi.NoteOnEvent(tick=0, channel=11, data=[39, 79]),
   midi.NoteOffEvent(tick=1920, channel=11, data=[39, 79]),
   midi.NoteOnEvent(tick=0, channel=11, data=[39, 79]),
   midi.NoteOffEvent(tick=840, channel=11, data=[39, 79]),
   midi.NoteOnEvent(tick=120, channel=11, data=[42, 79]),
   midi.NoteOffEvent(tick=600, channel=11, data=[42, 79]),
   midi.NoteOnEvent(tick=120, channel=11, data=[42, 79]),
   midi.NoteOffEvent(tick=240, channel=11, data=[42, 79]),
   midi.NoteOnEvent(tick=0, channel=11, data=[42, 79]),
   midi.NoteOffEvent(tick=1920, channel=11, data=[42, 79]),
   midi.NoteOnEvent(tick=0, channel=11, data=[39, 79]),
   midi.NoteOffEvent(tick=840, channel=11, data=[39, 79]),
   midi.NoteOnEvent(tick=120, channel=11, data=[37, 79]),
   midi.NoteOffEvent(tick=600, channel=11, data=[37, 79]),
   midi.NoteOnEvent(tick=120, channel=11, data=[37, 79]),
   midi.NoteOffEvent(tick=240, channel=11, data=[37, 79]),
   midi.NoteOnEvent(tick=0, channel=11, data=[37, 79]),
   midi.NoteOffEvent(tick=1920, channel=11, data=[37, 79]),
   midi.NoteOnEvent(tick=0, channel=11, data=[37, 79]),
   midi.NoteOffEvent(tick=840, channel=11, data=[37, 79]),
   midi.NoteOnEvent(tick=120, channel=11, data=[47, 79]),
   midi.NoteOffEvent(tick=600, channel=11, data=[47, 79]),
   midi.NoteOnEvent(tick=120, channel=11, data=[47, 79]),
   midi.NoteOffEvent(tick=240, channel=11, data=[47, 79]),
   midi.NoteOnEvent(tick=0, channel=11, data=[47, 79]),
   midi.NoteOffEvent(tick=1920, channel=11, data=[47, 79]),
   midi.NoteOnEvent(tick=0, channel=11, data=[37, 79]),
   midi.NoteOffEvent(tick=840, channel=11, data=[37, 79]),
   midi.NoteOnEvent(tick=120, channel=11, data=[39, 79]),
   midi.NoteOffEvent(tick=600, channel=11, data=[39, 79]),
   midi.NoteOnEvent(tick=120, channel=11, data=[39, 79]),
   midi.NoteOffEvent(tick=240, channel=11, data=[39, 79]),
   midi.NoteOnEvent(tick=0, channel=11, data=[39, 79]),
   midi.NoteOffEvent(tick=1920, channel=11, data=[39, 79]),
   midi.NoteOnEvent(tick=0, channel=11, data=[39, 79]),
   midi.NoteOffEvent(tick=840, channel=11, data=[39, 79]),
   midi.NoteOnEvent(tick=120, channel=11, data=[42, 79]),
   midi.NoteOffEvent(tick=600, channel=11, data=[42, 79]),
   midi.NoteOnEvent(tick=120, channel=11, data=[42, 79]),
   midi.NoteOffEvent(tick=240, channel=11, data=[42, 79]),
   midi.NoteOnEvent(tick=0, channel=11, data=[42, 79]),
   midi.NoteOffEvent(tick=1920, channel=11, data=[42, 79]),
   midi.NoteOnEvent(tick=0, channel=11, data=[39, 79]),
   midi.NoteOffEvent(tick=840, channel=11, data=[39, 79]),
   midi.NoteOnEvent(tick=120, channel=11, data=[37, 79]),
   midi.NoteOffEvent(tick=600, channel=11, data=[37, 79]),
   midi.NoteOnEvent(tick=120, channel=11, data=[37, 79]),
   midi.NoteOffEvent(tick=240, channel=11, data=[37, 79]),
   midi.NoteOnEvent(tick=0, channel=11, data=[37, 79]),
   midi.NoteOffEvent(tick=2760, channel=11, data=[37, 79]),
   midi.NoteOnEvent(tick=120, channel=11, data=[47, 79]),
   midi.NoteOffEvent(tick=2880, channel=11, data=[47, 79]),
   midi.NoteOnEvent(tick=0, channel=11, data=[46, 79]),
   midi.NoteOffEvent(tick=840, channel=11, data=[46, 79]),
   midi.NoteOnEvent(tick=120, channel=11, data=[39, 79]),
   midi.NoteOffEvent(tick=240, channel=11, data=[39, 79]),
   midi.NoteOnEvent(tick=0, channel=11, data=[39, 79]),
   midi.NoteOffEvent(tick=240, channel=11, data=[39, 79]),
   midi.NoteOnEvent(tick=0, channel=11, data=[39, 79]),
   midi.NoteOffEvent(tick=240, channel=11, data=[39, 79]),
   midi.NoteOnEvent(tick=0, channel=11, data=[39, 79]),
   midi.NoteOffEvent(tick=240, channel=11, data=[39, 79]),
   midi.NoteOnEvent(tick=0, channel=11, data=[39, 79]),
   midi.NoteOffEvent(tick=1680, channel=11, data=[39, 79]),
   midi.NoteOnEvent(tick=240, channel=11, data=[39, 79]),
   midi.NoteOffEvent(tick=480, channel=11, data=[39, 79]),
   midi.NoteOnEvent(tick=0, channel=11, data=[39, 79]),
   midi.NoteOffEvent(tick=480, channel=11, data=[39, 79]),
   midi.NoteOnEvent(tick=0, channel=11, data=[37, 79]),
   midi.NoteOffEvent(tick=240, channel=11, data=[37, 79]),
   midi.NoteOnEvent(tick=0, channel=11, data=[37, 79]),
   midi.NoteOffEvent(tick=240, channel=11, data=[37, 79]),
   midi.NoteOnEvent(tick=0, channel=11, data=[37, 79]),
   midi.NoteOffEvent(tick=240, channel=11, data=[37, 79]),
   midi.NoteOnEvent(tick=0, channel=11, data=[37, 79]),
   midi.NoteOffEvent(tick=240, channel=11, data=[37, 79]),
   midi.NoteOnEvent(tick=0, channel=11, data=[37, 79]),
   midi.NoteOffEvent(tick=1680, channel=11, data=[37, 79]),
   midi.NoteOnEvent(tick=240, channel=11, data=[37, 79]),
   midi.NoteOffEvent(tick=480, channel=11, data=[37, 79]),
   midi.NoteOnEvent(tick=0, channel=11, data=[37, 79]),
   midi.NoteOffEvent(tick=480, channel=11, data=[37, 79]),
   midi.NoteOnEvent(tick=0, channel=11, data=[35, 79]),
   midi.NoteOffEvent(tick=240, channel=11, data=[35, 79]),
   midi.NoteOnEvent(tick=0, channel=11, data=[35, 79]),
   midi.NoteOffEvent(tick=240, channel=11, data=[35, 79]),
   midi.NoteOnEvent(tick=0, channel=11, data=[35, 79]),
   midi.NoteOffEvent(tick=240, channel=11, data=[35, 79]),
   midi.NoteOnEvent(tick=0, channel=11, data=[35, 79]),
   midi.NoteOffEvent(tick=240, channel=11, data=[35, 79]),
   midi.NoteOnEvent(tick=0, channel=11, data=[35, 79]),
   midi.NoteOffEvent(tick=1680, channel=11, data=[35, 79]),
   midi.NoteOnEvent(tick=240, channel=11, data=[35, 79]),
   midi.NoteOffEvent(tick=480, channel=11, data=[35, 79]),
   midi.NoteOnEvent(tick=0, channel=11, data=[35, 79]),
   midi.NoteOffEvent(tick=480, channel=11, data=[35, 79]),
   midi.NoteOnEvent(tick=0, channel=11, data=[37, 79]),
   midi.NoteOffEvent(tick=240, channel=11, data=[37, 79]),
   midi.NoteOnEvent(tick=0, channel=11, data=[37, 79]),
   midi.NoteOffEvent(tick=240, channel=11, data=[37, 79]),
   midi.NoteOnEvent(tick=0, channel=11, data=[37, 79]),
   midi.NoteOffEvent(tick=240, channel=11, data=[37, 79]),
   midi.NoteOnEvent(tick=0, channel=11, data=[37, 79]),
   midi.NoteOffEvent(tick=240, channel=11, data=[37, 79]),
   midi.NoteOnEvent(tick=0, channel=11, data=[37, 79]),
   midi.NoteOffEvent(tick=840, channel=11, data=[37, 79]),
   midi.NoteOnEvent(tick=120, channel=11, data=[44, 79]),
   midi.NoteOffEvent(tick=840, channel=11, data=[44, 79]),
   midi.NoteOnEvent(tick=120, channel=11, data=[42, 79]),
   midi.NoteOffEvent(tick=840, channel=11, data=[42, 79]),
   midi.NoteOnEvent(tick=120, channel=11, data=[39, 79]),
   midi.NoteOffEvent(tick=240, channel=11, data=[39, 79]),
   midi.NoteOnEvent(tick=0, channel=11, data=[39, 79]),
   midi.NoteOffEvent(tick=240, channel=11, data=[39, 79]),
   midi.NoteOnEvent(tick=0, channel=11, data=[39, 79]),
   midi.NoteOffEvent(tick=240, channel=11, data=[39, 79]),
   midi.NoteOnEvent(tick=0, channel=11, data=[39, 79]),
   midi.NoteOffEvent(tick=240, channel=11, data=[39, 79]),
   midi.NoteOnEvent(tick=0, channel=11, data=[39, 79]),
   midi.NoteOffEvent(tick=1680, channel=11, data=[39, 79]),
   midi.NoteOnEvent(tick=240, channel=11, data=[39, 79]),
   midi.NoteOffEvent(tick=480, channel=11, data=[39, 79]),
   midi.NoteOnEvent(tick=0, channel=11, data=[39, 79]),
   midi.NoteOffEvent(tick=480, channel=11, data=[39, 79]),
   midi.NoteOnEvent(tick=0, channel=11, data=[37, 79]),
   midi.NoteOffEvent(tick=240, channel=11, data=[37, 79]),
   midi.NoteOnEvent(tick=0, channel=11, data=[37, 79]),
   midi.NoteOffEvent(tick=240, channel=11, data=[37, 79]),
   midi.NoteOnEvent(tick=0, channel=11, data=[37, 79]),
   midi.NoteOffEvent(tick=240, channel=11, data=[37, 79]),
   midi.NoteOnEvent(tick=0, channel=11, data=[37, 79]),
   midi.NoteOffEvent(tick=240, channel=11, data=[37, 79]),
   midi.NoteOnEvent(tick=0, channel=11, data=[37, 79]),
   midi.NoteOffEvent(tick=1680, channel=11, data=[37, 79]),
   midi.NoteOnEvent(tick=240, channel=11, data=[37, 79]),
   midi.NoteOffEvent(tick=480, channel=11, data=[37, 79]),
   midi.NoteOnEvent(tick=0, channel=11, data=[37, 79]),
   midi.NoteOffEvent(tick=480, channel=11, data=[37, 79]),
   midi.NoteOnEvent(tick=0, channel=11, data=[35, 79]),
   midi.NoteOffEvent(tick=240, channel=11, data=[35, 79]),
   midi.NoteOnEvent(tick=0, channel=11, data=[35, 79]),
   midi.NoteOffEvent(tick=240, channel=11, data=[35, 79]),
   midi.NoteOnEvent(tick=0, channel=11, data=[35, 79]),
   midi.NoteOffEvent(tick=240, channel=11, data=[35, 79]),
   midi.NoteOnEvent(tick=0, channel=11, data=[35, 79]),
   midi.NoteOffEvent(tick=240, channel=11, data=[35, 79]),
   midi.NoteOnEvent(tick=0, channel=11, data=[35, 79]),
   midi.NoteOffEvent(tick=1680, channel=11, data=[35, 79]),
   midi.NoteOnEvent(tick=240, channel=11, data=[35, 79]),
   midi.NoteOffEvent(tick=480, channel=11, data=[35, 79]),
   midi.NoteOnEvent(tick=0, channel=11, data=[35, 79]),
   midi.NoteOffEvent(tick=480, channel=11, data=[35, 79]),
   midi.NoteOnEvent(tick=0, channel=11, data=[37, 79]),
   midi.NoteOffEvent(tick=240, channel=11, data=[37, 79]),
   midi.NoteOnEvent(tick=0, channel=11, data=[37, 79]),
   midi.NoteOffEvent(tick=240, channel=11, data=[37, 79]),
   midi.NoteOnEvent(tick=0, channel=11, data=[37, 79]),
   midi.NoteOffEvent(tick=240, channel=11, data=[37, 79]),
   midi.NoteOnEvent(tick=0, channel=11, data=[37, 79]),
   midi.NoteOffEvent(tick=240, channel=11, data=[37, 79]),
   midi.NoteOnEvent(tick=0, channel=11, data=[37, 79]),
   midi.NoteOffEvent(tick=2400, channel=11, data=[37, 79]),
   midi.NoteOnEvent(tick=0, channel=11, data=[37, 79]),
   midi.NoteOffEvent(tick=480, channel=11, data=[37, 79]),
   midi.NoteOnEvent(tick=0, channel=11, data=[39, 79]),
   midi.NoteOffEvent(tick=240, channel=11, data=[39, 79]),
   midi.NoteOnEvent(tick=0, channel=11, data=[39, 79]),
   midi.NoteOffEvent(tick=240, channel=11, data=[39, 79]),
   midi.NoteOnEvent(tick=0, channel=11, data=[39, 79]),
   midi.NoteOffEvent(tick=240, channel=11, data=[39, 79]),
   midi.NoteOnEvent(tick=0, channel=11, data=[39, 79]),
   midi.NoteOffEvent(tick=240, channel=11, data=[39, 79]),
   midi.NoteOnEvent(tick=0, channel=11, data=[39, 79]),
   midi.NoteOffEvent(tick=1680, channel=11, data=[39, 79]),
   midi.NoteOnEvent(tick=240, channel=11, data=[39, 79]),
   midi.NoteOffEvent(tick=480, channel=11, data=[39, 79]),
   midi.NoteOnEvent(tick=0, channel=11, data=[39, 79]),
   midi.NoteOffEvent(tick=480, channel=11, data=[39, 79]),
   midi.NoteOnEvent(tick=0, channel=11, data=[37, 79]),
   midi.NoteOffEvent(tick=240, channel=11, data=[37, 79]),
   midi.NoteOnEvent(tick=0, channel=11, data=[37, 79]),
   midi.NoteOffEvent(tick=240, channel=11, data=[37, 79]),
   midi.NoteOnEvent(tick=0, channel=11, data=[37, 79]),
   midi.NoteOffEvent(tick=240, channel=11, data=[37, 79]),
   midi.NoteOnEvent(tick=0, channel=11, data=[37, 79]),
   midi.NoteOffEvent(tick=240, channel=11, data=[37, 79]),
   midi.NoteOnEvent(tick=0, channel=11, data=[37, 79]),
   midi.NoteOffEvent(tick=1680, channel=11, data=[37, 79]),
   midi.NoteOnEvent(tick=240, channel=11, data=[37, 79]),
   midi.NoteOffEvent(tick=480, channel=11, data=[37, 79]),
   midi.NoteOnEvent(tick=0, channel=11, data=[37, 79]),
   midi.NoteOffEvent(tick=480, channel=11, data=[37, 79]),
   midi.NoteOnEvent(tick=0, channel=11, data=[35, 79]),
   midi.NoteOffEvent(tick=240, channel=11, data=[35, 79]),
   midi.NoteOnEvent(tick=0, channel=11, data=[35, 79]),
   midi.NoteOffEvent(tick=240, channel=11, data=[35, 79]),
   midi.NoteOnEvent(tick=0, channel=11, data=[35, 79]),
   midi.NoteOffEvent(tick=240, channel=11, data=[35, 79]),
   midi.NoteOnEvent(tick=0, channel=11, data=[35, 79]),
   midi.NoteOffEvent(tick=240, channel=11, data=[35, 79]),
   midi.NoteOnEvent(tick=0, channel=11, data=[35, 79]),
   midi.NoteOffEvent(tick=1680, channel=11, data=[35, 79]),
   midi.NoteOnEvent(tick=240, channel=11, data=[35, 79]),
   midi.NoteOffEvent(tick=480, channel=11, data=[35, 79]),
   midi.NoteOnEvent(tick=0, channel=11, data=[35, 79]),
   midi.NoteOffEvent(tick=480, channel=11, data=[35, 79]),
   midi.NoteOnEvent(tick=0, channel=11, data=[37, 79]),
   midi.NoteOffEvent(tick=240, channel=11, data=[37, 79]),
   midi.NoteOnEvent(tick=0, channel=11, data=[37, 79]),
   midi.NoteOffEvent(tick=240, channel=11, data=[37, 79]),
   midi.NoteOnEvent(tick=0, channel=11, data=[37, 79]),
   midi.NoteOffEvent(tick=240, channel=11, data=[37, 79]),
   midi.NoteOnEvent(tick=0, channel=11, data=[37, 79]),
   midi.NoteOffEvent(tick=240, channel=11, data=[37, 79]),
   midi.NoteOnEvent(tick=0, channel=11, data=[37, 79]),
   midi.NoteOffEvent(tick=2400, channel=11, data=[37, 79]),
   midi.NoteOnEvent(tick=0, channel=11, data=[37, 79]),
   midi.NoteOffEvent(tick=480, channel=11, data=[37, 79]),
   midi.NoteOnEvent(tick=0, channel=11, data=[39, 79]),
   midi.NoteOffEvent(tick=240, channel=11, data=[39, 79]),
   midi.NoteOnEvent(tick=0, channel=11, data=[39, 79]),
   midi.NoteOffEvent(tick=240, channel=11, data=[39, 79]),
   midi.NoteOnEvent(tick=0, channel=11, data=[39, 79]),
   midi.NoteOffEvent(tick=240, channel=11, data=[39, 79]),
   midi.NoteOnEvent(tick=0, channel=11, data=[39, 79]),
   midi.NoteOffEvent(tick=240, channel=11, data=[39, 79]),
   midi.NoteOnEvent(tick=0, channel=11, data=[39, 79]),
   midi.NoteOffEvent(tick=1320, channel=11, data=[39, 79]),
   midi.NoteOnEvent(tick=120, channel=11, data=[39, 79]),
   midi.NoteOffEvent(tick=480, channel=11, data=[39, 79]),
   midi.NoteOnEvent(tick=0, channel=11, data=[39, 79]),
   midi.NoteOffEvent(tick=480, channel=11, data=[39, 79]),
   midi.NoteOnEvent(tick=0, channel=11, data=[39, 79]),
   midi.NoteOffEvent(tick=480, channel=11, data=[39, 79]),
   midi.NoteOnEvent(tick=0, channel=11, data=[37, 79]),
   midi.NoteOffEvent(tick=240, channel=11, data=[37, 79]),
   midi.NoteOnEvent(tick=0, channel=11, data=[37, 79]),
   midi.NoteOffEvent(tick=240, channel=11, data=[37, 79]),
   midi.NoteOnEvent(tick=0, channel=11, data=[37, 79]),
   midi.NoteOffEvent(tick=240, channel=11, data=[37, 79]),
   midi.NoteOnEvent(tick=0, channel=11, data=[37, 79]),
   midi.NoteOffEvent(tick=240, channel=11, data=[37, 79]),
   midi.NoteOnEvent(tick=0, channel=11, data=[37, 79]),
   midi.NoteOffEvent(tick=1320, channel=11, data=[37, 79]),
   midi.NoteOnEvent(tick=120, channel=11, data=[37, 79]),
   midi.NoteOffEvent(tick=480, channel=11, data=[37, 79]),
   midi.NoteOnEvent(tick=0, channel=11, data=[37, 79]),
   midi.NoteOffEvent(tick=480, channel=11, data=[37, 79]),
   midi.NoteOnEvent(tick=0, channel=11, data=[37, 79]),
   midi.NoteOffEvent(tick=480, channel=11, data=[37, 79]),
   midi.NoteOnEvent(tick=0, channel=11, data=[35, 79]),
   midi.NoteOffEvent(tick=240, channel=11, data=[35, 79]),
   midi.NoteOnEvent(tick=0, channel=11, data=[35, 79]),
   midi.NoteOffEvent(tick=240, channel=11, data=[35, 79]),
   midi.NoteOnEvent(tick=0, channel=11, data=[35, 79]),
   midi.NoteOffEvent(tick=240, channel=11, data=[35, 79]),
   midi.NoteOnEvent(tick=0, channel=11, data=[35, 79]),
   midi.NoteOffEvent(tick=240, channel=11, data=[35, 79]),
   midi.NoteOnEvent(tick=0, channel=11, data=[35, 79]),
   midi.NoteOffEvent(tick=1320, channel=11, data=[35, 79]),
   midi.NoteOnEvent(tick=120, channel=11, data=[35, 79]),
   midi.NoteOffEvent(tick=480, channel=11, data=[35, 79]),
   midi.NoteOnEvent(tick=0, channel=11, data=[35, 79]),
   midi.NoteOffEvent(tick=480, channel=11, data=[35, 79]),
   midi.NoteOnEvent(tick=0, channel=11, data=[35, 79]),
   midi.NoteOffEvent(tick=480, channel=11, data=[35, 79]),
   midi.NoteOnEvent(tick=0, channel=11, data=[37, 79]),
   midi.NoteOffEvent(tick=240, channel=11, data=[37, 79]),
   midi.NoteOnEvent(tick=0, channel=11, data=[37, 79]),
   midi.NoteOffEvent(tick=240, channel=11, data=[37, 79]),
   midi.NoteOnEvent(tick=0, channel=11, data=[37, 79]),
   midi.NoteOffEvent(tick=240, channel=11, data=[37, 79]),
   midi.NoteOnEvent(tick=0, channel=11, data=[37, 79]),
   midi.NoteOffEvent(tick=240, channel=11, data=[37, 79]),
   midi.NoteOnEvent(tick=0, channel=11, data=[37, 79]),
   midi.NoteOffEvent(tick=840, channel=11, data=[37, 79]),
   midi.NoteOnEvent(tick=120, channel=11, data=[49, 79]),
   midi.NoteOffEvent(tick=840, channel=11, data=[49, 79]),
   midi.NoteOnEvent(tick=120, channel=11, data=[51, 79]),
   midi.NoteOffEvent(tick=840, channel=11, data=[51, 79]),
   midi.NoteOnEvent(tick=120, channel=11, data=[39, 79]),
   midi.NoteOffEvent(tick=600, channel=11, data=[39, 79]),
   midi.NoteOnEvent(tick=120, channel=11, data=[39, 79]),
   midi.NoteOffEvent(tick=240, channel=11, data=[39, 79]),
   midi.NoteOnEvent(tick=0, channel=11, data=[39, 79]),
   midi.NoteOffEvent(tick=1920, channel=11, data=[39, 79]),
   midi.NoteOnEvent(tick=0, channel=11, data=[39, 79]),
   midi.NoteOffEvent(tick=840, channel=11, data=[39, 79]),
   midi.NoteOnEvent(tick=120, channel=11, data=[42, 79]),
   midi.NoteOffEvent(tick=600, channel=11, data=[42, 79]),
   midi.NoteOnEvent(tick=120, channel=11, data=[42, 79]),
   midi.NoteOffEvent(tick=240, channel=11, data=[42, 79]),
   midi.NoteOnEvent(tick=0, channel=11, data=[42, 79]),
   midi.NoteOffEvent(tick=1920, channel=11, data=[42, 79]),
   midi.NoteOnEvent(tick=0, channel=11, data=[39, 79]),
   midi.NoteOffEvent(tick=840, channel=11, data=[39, 79]),
   midi.NoteOnEvent(tick=120, channel=11, data=[37, 79]),
   midi.NoteOffEvent(tick=600, channel=11, data=[37, 79]),
   midi.NoteOnEvent(tick=120, channel=11, data=[37, 79]),
   midi.NoteOffEvent(tick=240, channel=11, data=[37, 79]),
   midi.NoteOnEvent(tick=0, channel=11, data=[37, 79]),
   midi.NoteOffEvent(tick=1920, channel=11, data=[37, 79]),
   midi.NoteOnEvent(tick=0, channel=11, data=[37, 79]),
   midi.NoteOffEvent(tick=840, channel=11, data=[37, 79]),
   midi.NoteOnEvent(tick=120, channel=11, data=[47, 79]),
   midi.NoteOffEvent(tick=600, channel=11, data=[47, 79]),
   midi.NoteOnEvent(tick=120, channel=11, data=[47, 79]),
   midi.NoteOffEvent(tick=240, channel=11, data=[47, 79]),
   midi.NoteOnEvent(tick=0, channel=11, data=[47, 79]),
   midi.NoteOffEvent(tick=1920, channel=11, data=[47, 79]),
   midi.NoteOnEvent(tick=0, channel=11, data=[37, 79]),
   midi.NoteOffEvent(tick=840, channel=11, data=[37, 79]),
   midi.NoteOnEvent(tick=120, channel=11, data=[39, 79]),
   midi.NoteOffEvent(tick=600, channel=11, data=[39, 79]),
   midi.NoteOnEvent(tick=120, channel=11, data=[39, 79]),
   midi.NoteOffEvent(tick=240, channel=11, data=[39, 79]),
   midi.NoteOnEvent(tick=0, channel=11, data=[39, 79]),
   midi.NoteOffEvent(tick=1920, channel=11, data=[39, 79]),
   midi.NoteOnEvent(tick=0, channel=11, data=[39, 79]),
   midi.NoteOffEvent(tick=840, channel=11, data=[39, 79]),
   midi.NoteOnEvent(tick=120, channel=11, data=[42, 79]),
   midi.NoteOffEvent(tick=600, channel=11, data=[42, 79]),
   midi.NoteOnEvent(tick=120, channel=11, data=[42, 79]),
   midi.NoteOffEvent(tick=240, channel=11, data=[42, 79]),
   midi.NoteOnEvent(tick=0, channel=11, data=[42, 79]),
   midi.NoteOffEvent(tick=1920, channel=11, data=[42, 79]),
   midi.NoteOnEvent(tick=0, channel=11, data=[39, 79]),
   midi.NoteOffEvent(tick=840, channel=11, data=[39, 79]),
   midi.NoteOnEvent(tick=120, channel=11, data=[37, 79]),
   midi.NoteOffEvent(tick=600, channel=11, data=[37, 79]),
   midi.NoteOnEvent(tick=120, channel=11, data=[37, 79]),
   midi.NoteOffEvent(tick=240, channel=11, data=[37, 79]),
   midi.NoteOnEvent(tick=0, channel=11, data=[37, 79]),
   midi.NoteOffEvent(tick=2760, channel=11, data=[37, 79]),
   midi.NoteOnEvent(tick=120, channel=11, data=[47, 79]),
   midi.NoteOffEvent(tick=2880, channel=11, data=[47, 79]),
   midi.NoteOnEvent(tick=0, channel=11, data=[46, 79]),
   midi.NoteOffEvent(tick=840, channel=11, data=[46, 79]),
   midi.NoteOnEvent(tick=120, channel=11, data=[47, 79]),
   midi.NoteOffEvent(tick=3480, channel=11, data=[47, 79]),
   midi.NoteOnEvent(tick=360, channel=11, data=[39, 79]),
   midi.NoteOffEvent(tick=3480, channel=11, data=[39, 79]),
   midi.NoteOnEvent(tick=360, channel=11, data=[37, 79]),
   midi.NoteOffEvent(tick=3480, channel=11, data=[37, 79]),
   midi.NoteOnEvent(tick=360, channel=11, data=[35, 79]),
   midi.NoteOffEvent(tick=3480, channel=11, data=[35, 79]),
   midi.NoteOnEvent(tick=360, channel=11, data=[37, 79]),
   midi.NoteOffEvent(tick=2640, channel=11, data=[37, 79]),
   midi.NoteOnEvent(tick=720, channel=11, data=[37, 79]),
   midi.NoteOffEvent(tick=240, channel=11, data=[37, 79]),
   midi.NoteOnEvent(tick=0, channel=11, data=[41, 79]),
   midi.NoteOffEvent(tick=240, channel=11, data=[41, 79]),
   midi.NoteOnEvent(tick=0, channel=11, data=[39, 79]),
   midi.NoteOffEvent(tick=2400, channel=11, data=[39, 79]),
   midi.NoteOnEvent(tick=0, channel=11, data=[42, 79]),
   midi.NoteOffEvent(tick=840, channel=11, data=[42, 79]),
   midi.NoteOnEvent(tick=120, channel=11, data=[39, 79]),
   midi.NoteOffEvent(tick=480, channel=11, data=[39, 79]),
   midi.NoteOnEvent(tick=0, channel=11, data=[37, 79]),
   midi.NoteOffEvent(tick=3360, channel=11, data=[37, 79]),
   midi.NoteOnEvent(tick=0, channel=11, data=[42, 79]),
   midi.NoteOffEvent(tick=240, channel=11, data=[42, 79]),
   midi.NoteOnEvent(tick=0, channel=11, data=[37, 79]),
   midi.NoteOffEvent(tick=240, channel=11, data=[37, 79]),
   midi.NoteOnEvent(tick=0, channel=11, data=[35, 79]),
   midi.NoteOffEvent(tick=3480, channel=11, data=[35, 79]),
   midi.NoteOnEvent(tick=4200, channel=11, data=[39, 79]),
   midi.NoteOffEvent(tick=240, channel=11, data=[39, 79]),
   midi.NoteOnEvent(tick=0, channel=11, data=[39, 79]),
   midi.NoteOffEvent(tick=240, channel=11, data=[39, 79]),
   midi.NoteOnEvent(tick=0, channel=11, data=[39, 79]),
   midi.NoteOffEvent(tick=240, channel=11, data=[39, 79]),
   midi.NoteOnEvent(tick=0, channel=11, data=[39, 79]),
   midi.NoteOffEvent(tick=240, channel=11, data=[39, 79]),
   midi.NoteOnEvent(tick=0, channel=11, data=[39, 79]),
   midi.NoteOffEvent(tick=240, channel=11, data=[39, 79]),
   midi.NoteOnEvent(tick=0, channel=11, data=[39, 79]),
   midi.NoteOffEvent(tick=240, channel=11, data=[39, 79]),
   midi.NoteOnEvent(tick=0, channel=11, data=[39, 79]),
   midi.NoteOffEvent(tick=240, channel=11, data=[39, 79]),
   midi.NoteOnEvent(tick=0, channel=11, data=[39, 79]),
   midi.NoteOffEvent(tick=240, channel=11, data=[39, 79]),
   midi.NoteOnEvent(tick=0, channel=11, data=[39, 79]),
   midi.NoteOffEvent(tick=240, channel=11, data=[39, 79]),
   midi.NoteOnEvent(tick=0, channel=11, data=[39, 79]),
   midi.NoteOffEvent(tick=240, channel=11, data=[39, 79]),
   midi.NoteOnEvent(tick=0, channel=11, data=[39, 79]),
   midi.NoteOffEvent(tick=240, channel=11, data=[39, 79]),
   midi.NoteOnEvent(tick=0, channel=11, data=[39, 79]),
   midi.NoteOffEvent(tick=240, channel=11, data=[39, 79]),
   midi.NoteOnEvent(tick=0, channel=11, data=[39, 79]),
   midi.NoteOffEvent(tick=240, channel=11, data=[39, 79]),
   midi.NoteOnEvent(tick=0, channel=11, data=[39, 79]),
   midi.NoteOffEvent(tick=240, channel=11, data=[39, 79]),
   midi.NoteOnEvent(tick=0, channel=11, data=[39, 79]),
   midi.NoteOffEvent(tick=240, channel=11, data=[39, 79]),
   midi.NoteOnEvent(tick=0, channel=11, data=[39, 79]),
   midi.NoteOffEvent(tick=240, channel=11, data=[39, 79]),
   midi.NoteOnEvent(tick=0, channel=11, data=[42, 79]),
   midi.NoteOffEvent(tick=240, channel=11, data=[42, 79]),
   midi.NoteOnEvent(tick=0, channel=11, data=[42, 79]),
   midi.NoteOffEvent(tick=240, channel=11, data=[42, 79]),
   midi.NoteOnEvent(tick=0, channel=11, data=[42, 79]),
   midi.NoteOffEvent(tick=240, channel=11, data=[42, 79]),
   midi.NoteOnEvent(tick=0, channel=11, data=[42, 79]),
   midi.NoteOffEvent(tick=240, channel=11, data=[42, 79]),
   midi.NoteOnEvent(tick=0, channel=11, data=[42, 79]),
   midi.NoteOffEvent(tick=240, channel=11, data=[42, 79]),
   midi.NoteOnEvent(tick=0, channel=11, data=[42, 79]),
   midi.NoteOffEvent(tick=240, channel=11, data=[42, 79]),
   midi.NoteOnEvent(tick=0, channel=11, data=[42, 79]),
   midi.NoteOffEvent(tick=240, channel=11, data=[42, 79]),
   midi.NoteOnEvent(tick=0, channel=11, data=[42, 79]),
   midi.NoteOffEvent(tick=240, channel=11, data=[42, 79]),
   midi.NoteOnEvent(tick=0, channel=11, data=[42, 79]),
   midi.NoteOffEvent(tick=240, channel=11, data=[42, 79]),
   midi.NoteOnEvent(tick=0, channel=11, data=[42, 79]),
   midi.NoteOffEvent(tick=240, channel=11, data=[42, 79]),
   midi.NoteOnEvent(tick=0, channel=11, data=[42, 79]),
   midi.NoteOffEvent(tick=240, channel=11, data=[42, 79]),
   midi.NoteOnEvent(tick=0, channel=11, data=[42, 79]),
   midi.NoteOffEvent(tick=240, channel=11, data=[42, 79]),
   midi.NoteOnEvent(tick=0, channel=11, data=[39, 79]),
   midi.NoteOffEvent(tick=240, channel=11, data=[39, 79]),
   midi.NoteOnEvent(tick=0, channel=11, data=[39, 79]),
   midi.NoteOffEvent(tick=240, channel=11, data=[39, 79]),
   midi.NoteOnEvent(tick=0, channel=11, data=[39, 79]),
   midi.NoteOffEvent(tick=240, channel=11, data=[39, 79]),
   midi.NoteOnEvent(tick=0, channel=11, data=[39, 79]),
   midi.NoteOffEvent(tick=240, channel=11, data=[39, 79]),
   midi.NoteOnEvent(tick=0, channel=11, data=[37, 79]),
   midi.NoteOffEvent(tick=240, channel=11, data=[37, 79]),
   midi.NoteOnEvent(tick=0, channel=11, data=[37, 79]),
   midi.NoteOffEvent(tick=240, channel=11, data=[37, 79]),
   midi.NoteOnEvent(tick=0, channel=11, data=[37, 79]),
   midi.NoteOffEvent(tick=240, channel=11, data=[37, 79]),
   midi.NoteOnEvent(tick=0, channel=11, data=[37, 79]),
   midi.NoteOffEvent(tick=240, channel=11, data=[37, 79]),
   midi.NoteOnEvent(tick=0, channel=11, data=[37, 79]),
   midi.NoteOffEvent(tick=240, channel=11, data=[37, 79]),
   midi.NoteOnEvent(tick=0, channel=11, data=[37, 79]),
   midi.NoteOffEvent(tick=240, channel=11, data=[37, 79]),
   midi.NoteOnEvent(tick=0, channel=11, data=[37, 79]),
   midi.NoteOffEvent(tick=240, channel=11, data=[37, 79]),
   midi.NoteOnEvent(tick=0, channel=11, data=[37, 79]),
   midi.NoteOffEvent(tick=240, channel=11, data=[37, 79]),
   midi.NoteOnEvent(tick=0, channel=11, data=[37, 79]),
   midi.NoteOffEvent(tick=240, channel=11, data=[37, 79]),
   midi.NoteOnEvent(tick=0, channel=11, data=[37, 79]),
   midi.NoteOffEvent(tick=240, channel=11, data=[37, 79]),
   midi.NoteOnEvent(tick=0, channel=11, data=[37, 79]),
   midi.NoteOffEvent(tick=240, channel=11, data=[37, 79]),
   midi.NoteOnEvent(tick=0, channel=11, data=[37, 79]),
   midi.NoteOffEvent(tick=240, channel=11, data=[37, 79]),
   midi.NoteOnEvent(tick=0, channel=11, data=[37, 79]),
   midi.NoteOffEvent(tick=240, channel=11, data=[37, 79]),
   midi.NoteOnEvent(tick=0, channel=11, data=[37, 79]),
   midi.NoteOffEvent(tick=240, channel=11, data=[37, 79]),
   midi.NoteOnEvent(tick=0, channel=11, data=[37, 79]),
   midi.NoteOffEvent(tick=240, channel=11, data=[37, 79]),
   midi.NoteOnEvent(tick=0, channel=11, data=[37, 79]),
   midi.NoteOffEvent(tick=240, channel=11, data=[37, 79]),
   midi.NoteOnEvent(tick=0, channel=11, data=[47, 79]),
   midi.NoteOffEvent(tick=240, channel=11, data=[47, 79]),
   midi.NoteOnEvent(tick=0, channel=11, data=[47, 79]),
   midi.NoteOffEvent(tick=240, channel=11, data=[47, 79]),
   midi.NoteOnEvent(tick=0, channel=11, data=[47, 79]),
   midi.NoteOffEvent(tick=240, channel=11, data=[47, 79]),
   midi.NoteOnEvent(tick=0, channel=11, data=[47, 79]),
   midi.NoteOffEvent(tick=240, channel=11, data=[47, 79]),
   midi.NoteOnEvent(tick=0, channel=11, data=[47, 79]),
   midi.NoteOffEvent(tick=240, channel=11, data=[47, 79]),
   midi.NoteOnEvent(tick=0, channel=11, data=[47, 79]),
   midi.NoteOffEvent(tick=240, channel=11, data=[47, 79]),
   midi.NoteOnEvent(tick=0, channel=11, data=[47, 79]),
   midi.NoteOffEvent(tick=240, channel=11, data=[47, 79]),
   midi.NoteOnEvent(tick=0, channel=11, data=[47, 79]),
   midi.NoteOffEvent(tick=240, channel=11, data=[47, 79]),
   midi.NoteOnEvent(tick=0, channel=11, data=[47, 79]),
   midi.NoteOffEvent(tick=240, channel=11, data=[47, 79]),
   midi.NoteOnEvent(tick=0, channel=11, data=[47, 79]),
   midi.NoteOffEvent(tick=240, channel=11, data=[47, 79]),
   midi.NoteOnEvent(tick=0, channel=11, data=[47, 79]),
   midi.NoteOffEvent(tick=240, channel=11, data=[47, 79]),
   midi.NoteOnEvent(tick=0, channel=11, data=[47, 79]),
   midi.NoteOffEvent(tick=240, channel=11, data=[47, 79]),
   midi.NoteOnEvent(tick=0, channel=11, data=[37, 79]),
   midi.NoteOffEvent(tick=240, channel=11, data=[37, 79]),
   midi.NoteOnEvent(tick=0, channel=11, data=[37, 79]),
   midi.NoteOffEvent(tick=240, channel=11, data=[37, 79]),
   midi.NoteOnEvent(tick=0, channel=11, data=[37, 79]),
   midi.NoteOffEvent(tick=240, channel=11, data=[37, 79]),
   midi.NoteOnEvent(tick=0, channel=11, data=[37, 79]),
   midi.NoteOffEvent(tick=240, channel=11, data=[37, 79]),
   midi.NoteOnEvent(tick=0, channel=11, data=[39, 79]),
   midi.NoteOffEvent(tick=240, channel=11, data=[39, 79]),
   midi.NoteOnEvent(tick=0, channel=11, data=[39, 79]),
   midi.NoteOffEvent(tick=240, channel=11, data=[39, 79]),
   midi.NoteOnEvent(tick=0, channel=11, data=[39, 79]),
   midi.NoteOffEvent(tick=240, channel=11, data=[39, 79]),
   midi.NoteOnEvent(tick=0, channel=11, data=[39, 79]),
   midi.NoteOffEvent(tick=240, channel=11, data=[39, 79]),
   midi.NoteOnEvent(tick=0, channel=11, data=[39, 79]),
   midi.NoteOffEvent(tick=240, channel=11, data=[39, 79]),
   midi.NoteOnEvent(tick=0, channel=11, data=[39, 79]),
   midi.NoteOffEvent(tick=240, channel=11, data=[39, 79]),
   midi.NoteOnEvent(tick=0, channel=11, data=[39, 79]),
   midi.NoteOffEvent(tick=240, channel=11, data=[39, 79]),
   midi.NoteOnEvent(tick=0, channel=11, data=[39, 79]),
   midi.NoteOffEvent(tick=240, channel=11, data=[39, 79]),
   midi.NoteOnEvent(tick=0, channel=11, data=[39, 79]),
   midi.NoteOffEvent(tick=240, channel=11, data=[39, 79]),
   midi.NoteOnEvent(tick=0, channel=11, data=[39, 79]),
   midi.NoteOffEvent(tick=240, channel=11, data=[39, 79]),
   midi.NoteOnEvent(tick=0, channel=11, data=[39, 79]),
   midi.NoteOffEvent(tick=240, channel=11, data=[39, 79]),
   midi.NoteOnEvent(tick=0, channel=11, data=[39, 79]),
   midi.NoteOffEvent(tick=240, channel=11, data=[39, 79]),
   midi.NoteOnEvent(tick=0, channel=11, data=[39, 79]),
   midi.NoteOffEvent(tick=240, channel=11, data=[39, 79]),
   midi.NoteOnEvent(tick=0, channel=11, data=[39, 79]),
   midi.NoteOffEvent(tick=240, channel=11, data=[39, 79]),
   midi.NoteOnEvent(tick=0, channel=11, data=[39, 79]),
   midi.NoteOffEvent(tick=240, channel=11, data=[39, 79]),
   midi.NoteOnEvent(tick=0, channel=11, data=[39, 79]),
   midi.NoteOffEvent(tick=240, channel=11, data=[39, 79]),
   midi.NoteOnEvent(tick=0, channel=11, data=[42, 79]),
   midi.NoteOffEvent(tick=240, channel=11, data=[42, 79]),
   midi.NoteOnEvent(tick=0, channel=11, data=[42, 79]),
   midi.NoteOffEvent(tick=240, channel=11, data=[42, 79]),
   midi.NoteOnEvent(tick=0, channel=11, data=[42, 79]),
   midi.NoteOffEvent(tick=240, channel=11, data=[42, 79]),
   midi.NoteOnEvent(tick=0, channel=11, data=[42, 79]),
   midi.NoteOffEvent(tick=240, channel=11, data=[42, 79]),
   midi.NoteOnEvent(tick=0, channel=11, data=[42, 79]),
   midi.NoteOffEvent(tick=240, channel=11, data=[42, 79]),
   midi.NoteOnEvent(tick=0, channel=11, data=[42, 79]),
   midi.NoteOffEvent(tick=240, channel=11, data=[42, 79]),
   midi.NoteOnEvent(tick=0, channel=11, data=[42, 79]),
   midi.NoteOffEvent(tick=240, channel=11, data=[42, 79]),
   midi.NoteOnEvent(tick=0, channel=11, data=[42, 79]),
   midi.NoteOffEvent(tick=240, channel=11, data=[42, 79]),
   midi.NoteOnEvent(tick=0, channel=11, data=[42, 79]),
   midi.NoteOffEvent(tick=240, channel=11, data=[42, 79]),
   midi.NoteOnEvent(tick=0, channel=11, data=[42, 79]),
   midi.NoteOffEvent(tick=240, channel=11, data=[42, 79]),
   midi.NoteOnEvent(tick=0, channel=11, data=[42, 79]),
   midi.NoteOffEvent(tick=240, channel=11, data=[42, 79]),
   midi.NoteOnEvent(tick=0, channel=11, data=[42, 79]),
   midi.NoteOffEvent(tick=240, channel=11, data=[42, 79]),
   midi.NoteOnEvent(tick=0, channel=11, data=[39, 79]),
   midi.NoteOffEvent(tick=240, channel=11, data=[39, 79]),
   midi.NoteOnEvent(tick=0, channel=11, data=[39, 79]),
   midi.NoteOffEvent(tick=240, channel=11, data=[39, 79]),
   midi.NoteOnEvent(tick=0, channel=11, data=[39, 79]),
   midi.NoteOffEvent(tick=240, channel=11, data=[39, 79]),
   midi.NoteOnEvent(tick=0, channel=11, data=[39, 79]),
   midi.NoteOffEvent(tick=240, channel=11, data=[39, 79]),
   midi.NoteOnEvent(tick=0, channel=11, data=[37, 79]),
   midi.NoteOffEvent(tick=240, channel=11, data=[37, 79]),
   midi.NoteOnEvent(tick=0, channel=11, data=[37, 79]),
   midi.NoteOffEvent(tick=240, channel=11, data=[37, 79]),
   midi.NoteOnEvent(tick=0, channel=11, data=[37, 79]),
   midi.NoteOffEvent(tick=240, channel=11, data=[37, 79]),
   midi.NoteOnEvent(tick=0, channel=11, data=[37, 79]),
   midi.NoteOffEvent(tick=240, channel=11, data=[37, 79]),
   midi.NoteOnEvent(tick=0, channel=11, data=[37, 79]),
   midi.NoteOffEvent(tick=240, channel=11, data=[37, 79]),
   midi.NoteOnEvent(tick=0, channel=11, data=[37, 79]),
   midi.NoteOffEvent(tick=240, channel=11, data=[37, 79]),
   midi.NoteOnEvent(tick=0, channel=11, data=[37, 79]),
   midi.NoteOffEvent(tick=240, channel=11, data=[37, 79]),
   midi.NoteOnEvent(tick=0, channel=11, data=[37, 79]),
   midi.NoteOffEvent(tick=240, channel=11, data=[37, 79]),
   midi.NoteOnEvent(tick=0, channel=11, data=[37, 79]),
   midi.NoteOffEvent(tick=240, channel=11, data=[37, 79]),
   midi.NoteOnEvent(tick=0, channel=11, data=[37, 79]),
   midi.NoteOffEvent(tick=240, channel=11, data=[37, 79]),
   midi.NoteOnEvent(tick=0, channel=11, data=[37, 79]),
   midi.NoteOffEvent(tick=240, channel=11, data=[37, 79]),
   midi.NoteOnEvent(tick=0, channel=11, data=[37, 79]),
   midi.NoteOffEvent(tick=240, channel=11, data=[37, 79]),
   midi.NoteOnEvent(tick=0, channel=11, data=[37, 79]),
   midi.NoteOffEvent(tick=240, channel=11, data=[37, 79]),
   midi.NoteOnEvent(tick=0, channel=11, data=[37, 79]),
   midi.NoteOffEvent(tick=240, channel=11, data=[37, 79]),
   midi.NoteOnEvent(tick=0, channel=11, data=[37, 79]),
   midi.NoteOffEvent(tick=240, channel=11, data=[37, 79]),
   midi.NoteOnEvent(tick=0, channel=11, data=[37, 79]),
   midi.NoteOffEvent(tick=240, channel=11, data=[37, 79]),
   midi.NoteOnEvent(tick=0, channel=11, data=[47, 79]),
   midi.NoteOffEvent(tick=240, channel=11, data=[47, 79]),
   midi.NoteOnEvent(tick=0, channel=11, data=[47, 79]),
   midi.NoteOffEvent(tick=240, channel=11, data=[47, 79]),
   midi.NoteOnEvent(tick=0, channel=11, data=[47, 79]),
   midi.NoteOffEvent(tick=240, channel=11, data=[47, 79]),
   midi.NoteOnEvent(tick=0, channel=11, data=[47, 79]),
   midi.NoteOffEvent(tick=240, channel=11, data=[47, 79]),
   midi.NoteOnEvent(tick=0, channel=11, data=[47, 79]),
   midi.NoteOffEvent(tick=240, channel=11, data=[47, 79]),
   midi.NoteOnEvent(tick=0, channel=11, data=[47, 79]),
   midi.NoteOffEvent(tick=240, channel=11, data=[47, 79]),
   midi.NoteOnEvent(tick=0, channel=11, data=[47, 79]),
   midi.NoteOffEvent(tick=240, channel=11, data=[47, 79]),
   midi.NoteOnEvent(tick=0, channel=11, data=[47, 79]),
   midi.NoteOffEvent(tick=240, channel=11, data=[47, 79]),
   midi.NoteOnEvent(tick=0, channel=11, data=[47, 79]),
   midi.NoteOffEvent(tick=840, channel=11, data=[47, 79]),
   midi.NoteOnEvent(tick=120, channel=11, data=[47, 79]),
   midi.NoteOffEvent(tick=840, channel=11, data=[47, 79]),
   midi.NoteOnEvent(tick=120, channel=11, data=[39, 79]),
   midi.NoteOffEvent(tick=600, channel=11, data=[39, 79]),
   midi.NoteOnEvent(tick=120, channel=11, data=[39, 79]),
   midi.NoteOffEvent(tick=240, channel=11, data=[39, 79]),
   midi.NoteOnEvent(tick=0, channel=11, data=[39, 79]),
   midi.NoteOffEvent(tick=1920, channel=11, data=[39, 79]),
   midi.NoteOnEvent(tick=0, channel=11, data=[39, 79]),
   midi.NoteOffEvent(tick=840, channel=11, data=[39, 79]),
   midi.NoteOnEvent(tick=120, channel=11, data=[42, 79]),
   midi.NoteOffEvent(tick=600, channel=11, data=[42, 79]),
   midi.NoteOnEvent(tick=120, channel=11, data=[42, 79]),
   midi.NoteOffEvent(tick=240, channel=11, data=[42, 79]),
   midi.NoteOnEvent(tick=0, channel=11, data=[42, 79]),
   midi.NoteOffEvent(tick=1920, channel=11, data=[42, 79]),
   midi.NoteOnEvent(tick=0, channel=11, data=[39, 79]),
   midi.NoteOffEvent(tick=840, channel=11, data=[39, 79]),
   midi.NoteOnEvent(tick=120, channel=11, data=[37, 79]),
   midi.NoteOffEvent(tick=600, channel=11, data=[37, 79]),
   midi.NoteOnEvent(tick=120, channel=11, data=[37, 79]),
   midi.NoteOffEvent(tick=240, channel=11, data=[37, 79]),
   midi.NoteOnEvent(tick=0, channel=11, data=[37, 79]),
   midi.NoteOffEvent(tick=1920, channel=11, data=[37, 79]),
   midi.NoteOnEvent(tick=0, channel=11, data=[37, 79]),
   midi.NoteOffEvent(tick=840, channel=11, data=[37, 79]),
   midi.NoteOnEvent(tick=120, channel=11, data=[47, 79]),
   midi.NoteOffEvent(tick=600, channel=11, data=[47, 79]),
   midi.NoteOnEvent(tick=120, channel=11, data=[47, 79]),
   midi.NoteOffEvent(tick=240, channel=11, data=[47, 79]),
   midi.NoteOnEvent(tick=0, channel=11, data=[47, 79]),
   midi.NoteOffEvent(tick=1920, channel=11, data=[47, 79]),
   midi.NoteOnEvent(tick=0, channel=11, data=[37, 79]),
   midi.NoteOffEvent(tick=840, channel=11, data=[37, 79]),
   midi.NoteOnEvent(tick=120, channel=11, data=[39, 79]),
   midi.NoteOffEvent(tick=600, channel=11, data=[39, 79]),
   midi.NoteOnEvent(tick=120, channel=11, data=[39, 79]),
   midi.NoteOffEvent(tick=240, channel=11, data=[39, 79]),
   midi.NoteOnEvent(tick=0, channel=11, data=[39, 79]),
   midi.NoteOffEvent(tick=1920, channel=11, data=[39, 79]),
   midi.NoteOnEvent(tick=0, channel=11, data=[39, 79]),
   midi.NoteOffEvent(tick=840, channel=11, data=[39, 79]),
   midi.NoteOnEvent(tick=120, channel=11, data=[42, 79]),
   midi.NoteOffEvent(tick=600, channel=11, data=[42, 79]),
   midi.NoteOnEvent(tick=120, channel=11, data=[42, 79]),
   midi.NoteOffEvent(tick=240, channel=11, data=[42, 79]),
   midi.NoteOnEvent(tick=0, channel=11, data=[42, 79]),
   midi.NoteOffEvent(tick=1920, channel=11, data=[42, 79]),
   midi.NoteOnEvent(tick=0, channel=11, data=[39, 79]),
   midi.NoteOffEvent(tick=840, channel=11, data=[39, 79]),
   midi.NoteOnEvent(tick=120, channel=11, data=[37, 79]),
   midi.NoteOffEvent(tick=600, channel=11, data=[37, 79]),
   midi.NoteOnEvent(tick=120, channel=11, data=[37, 79]),
   midi.NoteOffEvent(tick=240, channel=11, data=[37, 79]),
   midi.NoteOnEvent(tick=0, channel=11, data=[37, 79]),
   midi.NoteOffEvent(tick=1920, channel=11, data=[37, 79]),
   midi.NoteOnEvent(tick=0, channel=11, data=[37, 79]),
   midi.NoteOffEvent(tick=840, channel=11, data=[37, 79]),
   midi.NoteOnEvent(tick=120, channel=11, data=[47, 79]),
   midi.NoteOffEvent(tick=600, channel=11, data=[47, 79]),
   midi.NoteOnEvent(tick=120, channel=11, data=[47, 79]),
   midi.NoteOffEvent(tick=240, channel=11, data=[47, 79]),
   midi.NoteOnEvent(tick=0, channel=11, data=[47, 79]),
   midi.NoteOffEvent(tick=1320, channel=11, data=[47, 79]),
   midi.NoteOnEvent(tick=120, channel=11, data=[47, 79]),
   midi.NoteOffEvent(tick=480, channel=11, data=[47, 79]),
   midi.NoteOnEvent(tick=0, channel=11, data=[46, 79]),
   midi.NoteOffEvent(tick=480, channel=11, data=[46, 79]),
   midi.NoteOnEvent(tick=0, channel=11, data=[42, 79]),
   midi.NoteOffEvent(tick=480, channel=11, data=[42, 79]),
   midi.NoteOnEvent(tick=0, channel=11, data=[39, 79]),
   midi.NoteOffEvent(tick=38040, channel=11, data=[39, 79]),
   midi.EndOfTrackEvent(tick=0, data=[])]),
 midi.Track(\
  [midi.PitchWheelEvent(tick=0, channel=9, data=[0, 64]),
   midi.ControlChangeEvent(tick=0, channel=9, data=[7, 87]),
   midi.ControlChangeEvent(tick=0, channel=9, data=[10, 63]),
   midi.ControlChangeEvent(tick=0, channel=9, data=[93, 0]),
   midi.ControlChangeEvent(tick=0, channel=9, data=[91, 0]),
   midi.ControlChangeEvent(tick=0, channel=9, data=[95, 0]),
   midi.ControlChangeEvent(tick=0, channel=9, data=[92, 0]),
   midi.ControlChangeEvent(tick=0, channel=9, data=[11, 127]),
   midi.ProgramChangeEvent(tick=0, channel=9, data=[0]),
   midi.NoteOnEvent(tick=2400, channel=9, data=[33, 31]),
   midi.NoteOnEvent(tick=0, channel=9, data=[20, 31]),
   midi.NoteOffEvent(tick=240, channel=9, data=[33, 31]),
   midi.NoteOffEvent(tick=0, channel=9, data=[20, 31]),
   midi.NoteOnEvent(tick=0, channel=9, data=[33, 31]),
   midi.NoteOnEvent(tick=0, channel=9, data=[20, 31]),
   midi.NoteOffEvent(tick=240, channel=9, data=[33, 31]),
   midi.NoteOffEvent(tick=0, channel=9, data=[20, 31]),
   midi.NoteOnEvent(tick=0, channel=9, data=[28, 79]),
   midi.NoteOffEvent(tick=360, channel=9, data=[28, 79]),
   midi.NoteOnEvent(tick=120, channel=9, data=[33, 31]),
   midi.NoteOnEvent(tick=0, channel=9, data=[20, 31]),
   midi.NoteOffEvent(tick=240, channel=9, data=[33, 31]),
   midi.NoteOffEvent(tick=0, channel=9, data=[20, 31]),
   midi.NoteOnEvent(tick=0, channel=9, data=[20, 31]),
   midi.NoteOnEvent(tick=0, channel=9, data=[33, 31]),
   midi.NoteOffEvent(tick=240, channel=9, data=[20, 31]),
   midi.NoteOffEvent(tick=0, channel=9, data=[33, 31]),
   midi.NoteOnEvent(tick=0, channel=9, data=[33, 31]),
   midi.NoteOnEvent(tick=0, channel=9, data=[20, 31]),
   midi.NoteOffEvent(tick=240, channel=9, data=[33, 31]),
   midi.NoteOffEvent(tick=0, channel=9, data=[20, 31]),
   midi.NoteOnEvent(tick=0, channel=9, data=[28, 79]),
   midi.NoteOffEvent(tick=600, channel=9, data=[28, 79]),
   midi.NoteOnEvent(tick=120, channel=9, data=[28, 79]),
   midi.NoteOffEvent(tick=480, channel=9, data=[28, 79]),
   midi.NoteOnEvent(tick=0, channel=9, data=[33, 31]),
   midi.NoteOnEvent(tick=0, channel=9, data=[20, 31]),
   midi.NoteOffEvent(tick=240, channel=9, data=[33, 31]),
   midi.NoteOffEvent(tick=0, channel=9, data=[20, 31]),
   midi.NoteOnEvent(tick=0, channel=9, data=[28, 79]),
   midi.NoteOffEvent(tick=240, channel=9, data=[28, 79]),
   midi.NoteOnEvent(tick=0, channel=9, data=[33, 31]),
   midi.NoteOnEvent(tick=0, channel=9, data=[20, 31]),
   midi.NoteOffEvent(tick=240, channel=9, data=[33, 31]),
   midi.NoteOffEvent(tick=0, channel=9, data=[20, 31]),
   midi.NoteOnEvent(tick=0, channel=9, data=[28, 79]),
   midi.NoteOffEvent(tick=600, channel=9, data=[28, 79]),
   midi.NoteOnEvent(tick=120, channel=9, data=[28, 79]),
   midi.NoteOffEvent(tick=480, channel=9, data=[28, 79]),
   midi.NoteOnEvent(tick=0, channel=9, data=[33, 31]),
   midi.NoteOnEvent(tick=0, channel=9, data=[20, 31]),
   midi.NoteOffEvent(tick=240, channel=9, data=[33, 31]),
   midi.NoteOffEvent(tick=0, channel=9, data=[20, 31]),
   midi.NoteOnEvent(tick=0, channel=9, data=[33, 31]),
   midi.NoteOnEvent(tick=0, channel=9, data=[20, 31]),
   midi.NoteOffEvent(tick=240, channel=9, data=[33, 31]),
   midi.NoteOffEvent(tick=0, channel=9, data=[20, 31]),
   midi.NoteOnEvent(tick=0, channel=9, data=[33, 31]),
   midi.NoteOnEvent(tick=0, channel=9, data=[20, 31]),
   midi.NoteOffEvent(tick=240, channel=9, data=[33, 31]),
   midi.NoteOffEvent(tick=0, channel=9, data=[20, 31]),
   midi.NoteOnEvent(tick=0, channel=9, data=[28, 79]),
   midi.NoteOffEvent(tick=600, channel=9, data=[28, 79]),
   midi.NoteOnEvent(tick=120, channel=9, data=[28, 79]),
   midi.NoteOffEvent(tick=480, channel=9, data=[28, 79]),
   midi.NoteOnEvent(tick=0, channel=9, data=[20, 31]),
   midi.NoteOnEvent(tick=0, channel=9, data=[33, 31]),
   midi.NoteOffEvent(tick=240, channel=9, data=[20, 31]),
   midi.NoteOffEvent(tick=0, channel=9, data=[33, 31]),
   midi.NoteOnEvent(tick=0, channel=9, data=[28, 79]),
   midi.NoteOffEvent(tick=240, channel=9, data=[28, 79]),
   midi.NoteOnEvent(tick=0, channel=9, data=[33, 31]),
   midi.NoteOnEvent(tick=0, channel=9, data=[20, 31]),
   midi.NoteOffEvent(tick=240, channel=9, data=[33, 31]),
   midi.NoteOffEvent(tick=0, channel=9, data=[20, 31]),
   midi.NoteOnEvent(tick=0, channel=9, data=[28, 79]),
   midi.NoteOffEvent(tick=600, channel=9, data=[28, 79]),
   midi.NoteOnEvent(tick=120, channel=9, data=[28, 79]),
   midi.NoteOffEvent(tick=480, channel=9, data=[28, 79]),
   midi.NoteOnEvent(tick=0, channel=9, data=[33, 31]),
   midi.NoteOnEvent(tick=0, channel=9, data=[20, 31]),
   midi.NoteOffEvent(tick=240, channel=9, data=[33, 31]),
   midi.NoteOffEvent(tick=0, channel=9, data=[20, 31]),
   midi.NoteOnEvent(tick=0, channel=9, data=[20, 31]),
   midi.NoteOnEvent(tick=0, channel=9, data=[33, 31]),
   midi.NoteOffEvent(tick=240, channel=9, data=[20, 31]),
   midi.NoteOffEvent(tick=0, channel=9, data=[33, 31]),
   midi.NoteOnEvent(tick=0, channel=9, data=[20, 31]),
   midi.NoteOnEvent(tick=0, channel=9, data=[33, 31]),
   midi.NoteOffEvent(tick=240, channel=9, data=[20, 31]),
   midi.NoteOffEvent(tick=0, channel=9, data=[33, 31]),
   midi.NoteOnEvent(tick=0, channel=9, data=[28, 79]),
   midi.NoteOffEvent(tick=600, channel=9, data=[28, 79]),
   midi.NoteOnEvent(tick=120, channel=9, data=[28, 79]),
   midi.NoteOffEvent(tick=480, channel=9, data=[28, 79]),
   midi.NoteOnEvent(tick=0, channel=9, data=[20, 31]),
   midi.NoteOnEvent(tick=0, channel=9, data=[33, 31]),
   midi.NoteOffEvent(tick=240, channel=9, data=[20, 31]),
   midi.NoteOffEvent(tick=0, channel=9, data=[33, 31]),
   midi.NoteOnEvent(tick=0, channel=9, data=[28, 79]),
   midi.NoteOffEvent(tick=240, channel=9, data=[28, 79]),
   midi.NoteOnEvent(tick=0, channel=9, data=[33, 31]),
   midi.NoteOnEvent(tick=0, channel=9, data=[20, 31]),
   midi.NoteOffEvent(tick=240, channel=9, data=[33, 31]),
   midi.NoteOffEvent(tick=0, channel=9, data=[20, 31]),
   midi.NoteOnEvent(tick=0, channel=9, data=[28, 79]),
   midi.NoteOffEvent(tick=600, channel=9, data=[28, 79]),
   midi.NoteOnEvent(tick=120, channel=9, data=[28, 79]),
   midi.NoteOffEvent(tick=480, channel=9, data=[28, 79]),
   midi.NoteOnEvent(tick=0, channel=9, data=[33, 31]),
   midi.NoteOnEvent(tick=0, channel=9, data=[20, 31]),
   midi.NoteOffEvent(tick=240, channel=9, data=[33, 31]),
   midi.NoteOffEvent(tick=0, channel=9, data=[20, 31]),
   midi.NoteOnEvent(tick=0, channel=9, data=[20, 31]),
   midi.NoteOnEvent(tick=0, channel=9, data=[33, 31]),
   midi.NoteOffEvent(tick=240, channel=9, data=[20, 31]),
   midi.NoteOffEvent(tick=0, channel=9, data=[33, 31]),
   midi.NoteOnEvent(tick=0, channel=9, data=[33, 31]),
   midi.NoteOnEvent(tick=0, channel=9, data=[20, 31]),
   midi.NoteOffEvent(tick=240, channel=9, data=[33, 31]),
   midi.NoteOffEvent(tick=0, channel=9, data=[20, 31]),
   midi.NoteOnEvent(tick=0, channel=9, data=[28, 79]),
   midi.NoteOffEvent(tick=600, channel=9, data=[28, 79]),
   midi.NoteOnEvent(tick=120, channel=9, data=[28, 79]),
   midi.NoteOffEvent(tick=480, channel=9, data=[28, 79]),
   midi.NoteOnEvent(tick=0, channel=9, data=[20, 31]),
   midi.NoteOnEvent(tick=0, channel=9, data=[33, 31]),
   midi.NoteOffEvent(tick=240, channel=9, data=[20, 31]),
   midi.NoteOffEvent(tick=0, channel=9, data=[33, 31]),
   midi.NoteOnEvent(tick=0, channel=9, data=[28, 79]),
   midi.NoteOffEvent(tick=240, channel=9, data=[28, 79]),
   midi.NoteOnEvent(tick=0, channel=9, data=[33, 31]),
   midi.NoteOnEvent(tick=0, channel=9, data=[20, 31]),
   midi.NoteOffEvent(tick=240, channel=9, data=[33, 31]),
   midi.NoteOffEvent(tick=0, channel=9, data=[20, 31]),
   midi.NoteOnEvent(tick=0, channel=9, data=[28, 79]),
   midi.NoteOffEvent(tick=600, channel=9, data=[28, 79]),
   midi.NoteOnEvent(tick=120, channel=9, data=[28, 79]),
   midi.NoteOffEvent(tick=480, channel=9, data=[28, 79]),
   midi.NoteOnEvent(tick=0, channel=9, data=[33, 31]),
   midi.NoteOnEvent(tick=0, channel=9, data=[20, 31]),
   midi.NoteOffEvent(tick=240, channel=9, data=[33, 31]),
   midi.NoteOffEvent(tick=0, channel=9, data=[20, 31]),
   midi.NoteOnEvent(tick=0, channel=9, data=[20, 31]),
   midi.NoteOnEvent(tick=0, channel=9, data=[33, 31]),
   midi.NoteOffEvent(tick=240, channel=9, data=[20, 31]),
   midi.NoteOffEvent(tick=0, channel=9, data=[33, 31]),
   midi.NoteOnEvent(tick=0, channel=9, data=[20, 31]),
   midi.NoteOnEvent(tick=0, channel=9, data=[33, 31]),
   midi.NoteOffEvent(tick=240, channel=9, data=[20, 31]),
   midi.NoteOffEvent(tick=0, channel=9, data=[33, 31]),
   midi.NoteOnEvent(tick=0, channel=9, data=[28, 79]),
   midi.NoteOffEvent(tick=600, channel=9, data=[28, 79]),
   midi.NoteOnEvent(tick=120, channel=9, data=[28, 79]),
   midi.NoteOffEvent(tick=480, channel=9, data=[28, 79]),
   midi.NoteOnEvent(tick=0, channel=9, data=[20, 31]),
   midi.NoteOnEvent(tick=0, channel=9, data=[33, 31]),
   midi.NoteOffEvent(tick=240, channel=9, data=[20, 31]),
   midi.NoteOffEvent(tick=0, channel=9, data=[33, 31]),
   midi.NoteOnEvent(tick=0, channel=9, data=[28, 79]),
   midi.NoteOffEvent(tick=240, channel=9, data=[28, 79]),
   midi.NoteOnEvent(tick=0, channel=9, data=[33, 31]),
   midi.NoteOnEvent(tick=0, channel=9, data=[20, 31]),
   midi.NoteOffEvent(tick=240, channel=9, data=[33, 31]),
   midi.NoteOffEvent(tick=0, channel=9, data=[20, 31]),
   midi.NoteOnEvent(tick=0, channel=9, data=[28, 79]),
   midi.NoteOffEvent(tick=600, channel=9, data=[28, 79]),
   midi.NoteOnEvent(tick=120, channel=9, data=[28, 79]),
   midi.NoteOffEvent(tick=480, channel=9, data=[28, 79]),
   midi.NoteOnEvent(tick=0, channel=9, data=[33, 31]),
   midi.NoteOnEvent(tick=0, channel=9, data=[20, 31]),
   midi.NoteOffEvent(tick=240, channel=9, data=[33, 31]),
   midi.NoteOffEvent(tick=0, channel=9, data=[20, 31]),
   midi.NoteOnEvent(tick=0, channel=9, data=[20, 31]),
   midi.NoteOnEvent(tick=0, channel=9, data=[33, 31]),
   midi.NoteOffEvent(tick=240, channel=9, data=[20, 31]),
   midi.NoteOffEvent(tick=0, channel=9, data=[33, 31]),
   midi.NoteOnEvent(tick=0, channel=9, data=[33, 31]),
   midi.NoteOnEvent(tick=0, channel=9, data=[20, 31]),
   midi.NoteOffEvent(tick=240, channel=9, data=[33, 31]),
   midi.NoteOffEvent(tick=0, channel=9, data=[20, 31]),
   midi.NoteOnEvent(tick=0, channel=9, data=[28, 79]),
   midi.NoteOffEvent(tick=600, channel=9, data=[28, 79]),
   midi.NoteOnEvent(tick=120, channel=9, data=[28, 79]),
   midi.NoteOffEvent(tick=480, channel=9, data=[28, 79]),
   midi.NoteOnEvent(tick=0, channel=9, data=[20, 31]),
   midi.NoteOnEvent(tick=0, channel=9, data=[33, 31]),
   midi.NoteOffEvent(tick=240, channel=9, data=[20, 31]),
   midi.NoteOffEvent(tick=0, channel=9, data=[33, 31]),
   midi.NoteOnEvent(tick=0, channel=9, data=[28, 79]),
   midi.NoteOffEvent(tick=240, channel=9, data=[28, 79]),
   midi.NoteOnEvent(tick=0, channel=9, data=[33, 31]),
   midi.NoteOnEvent(tick=0, channel=9, data=[20, 31]),
   midi.NoteOffEvent(tick=240, channel=9, data=[33, 31]),
   midi.NoteOffEvent(tick=0, channel=9, data=[20, 31]),
   midi.NoteOnEvent(tick=0, channel=9, data=[28, 79]),
   midi.NoteOffEvent(tick=600, channel=9, data=[28, 79]),
   midi.NoteOnEvent(tick=120, channel=9, data=[28, 79]),
   midi.NoteOffEvent(tick=480, channel=9, data=[28, 79]),
   midi.NoteOnEvent(tick=0, channel=9, data=[33, 31]),
   midi.NoteOnEvent(tick=0, channel=9, data=[20, 31]),
   midi.NoteOffEvent(tick=240, channel=9, data=[33, 31]),
   midi.NoteOffEvent(tick=0, channel=9, data=[20, 31]),
   midi.NoteOnEvent(tick=0, channel=9, data=[20, 31]),
   midi.NoteOnEvent(tick=0, channel=9, data=[33, 31]),
   midi.NoteOffEvent(tick=240, channel=9, data=[20, 31]),
   midi.NoteOffEvent(tick=0, channel=9, data=[33, 31]),
   midi.NoteOnEvent(tick=0, channel=9, data=[20, 31]),
   midi.NoteOnEvent(tick=0, channel=9, data=[33, 31]),
   midi.NoteOffEvent(tick=240, channel=9, data=[20, 31]),
   midi.NoteOffEvent(tick=0, channel=9, data=[33, 31]),
   midi.NoteOnEvent(tick=0, channel=9, data=[28, 79]),
   midi.NoteOffEvent(tick=600, channel=9, data=[28, 79]),
   midi.NoteOnEvent(tick=120, channel=9, data=[28, 79]),
   midi.NoteOffEvent(tick=480, channel=9, data=[28, 79]),
   midi.NoteOnEvent(tick=0, channel=9, data=[20, 31]),
   midi.NoteOnEvent(tick=0, channel=9, data=[33, 31]),
   midi.NoteOffEvent(tick=240, channel=9, data=[20, 31]),
   midi.NoteOffEvent(tick=0, channel=9, data=[33, 31]),
   midi.NoteOnEvent(tick=0, channel=9, data=[28, 79]),
   midi.NoteOffEvent(tick=240, channel=9, data=[28, 79]),
   midi.NoteOnEvent(tick=0, channel=9, data=[33, 31]),
   midi.NoteOnEvent(tick=0, channel=9, data=[20, 31]),
   midi.NoteOffEvent(tick=240, channel=9, data=[33, 31]),
   midi.NoteOffEvent(tick=0, channel=9, data=[20, 31]),
   midi.NoteOnEvent(tick=0, channel=9, data=[28, 79]),
   midi.NoteOffEvent(tick=600, channel=9, data=[28, 79]),
   midi.NoteOnEvent(tick=120, channel=9, data=[28, 79]),
   midi.NoteOffEvent(tick=480, channel=9, data=[28, 79]),
   midi.NoteOnEvent(tick=0, channel=9, data=[33, 31]),
   midi.NoteOnEvent(tick=0, channel=9, data=[20, 31]),
   midi.NoteOffEvent(tick=240, channel=9, data=[33, 31]),
   midi.NoteOffEvent(tick=0, channel=9, data=[20, 31]),
   midi.NoteOnEvent(tick=0, channel=9, data=[20, 31]),
   midi.NoteOnEvent(tick=0, channel=9, data=[33, 31]),
   midi.NoteOffEvent(tick=240, channel=9, data=[20, 31]),
   midi.NoteOffEvent(tick=0, channel=9, data=[33, 31]),
   midi.NoteOnEvent(tick=0, channel=9, data=[33, 31]),
   midi.NoteOnEvent(tick=0, channel=9, data=[20, 31]),
   midi.NoteOffEvent(tick=240, channel=9, data=[33, 31]),
   midi.NoteOffEvent(tick=0, channel=9, data=[20, 31]),
   midi.NoteOnEvent(tick=3600, channel=9, data=[35, 79]),
   midi.NoteOnEvent(tick=0, channel=9, data=[49, 79]),
   midi.NoteOffEvent(tick=240, channel=9, data=[35, 79]),
   midi.NoteOffEvent(tick=0, channel=9, data=[49, 79]),
   midi.NoteOnEvent(tick=0, channel=9, data=[35, 79]),
   midi.NoteOffEvent(tick=240, channel=9, data=[35, 79]),
   midi.NoteOnEvent(tick=0, channel=9, data=[42, 79]),
   midi.NoteOnEvent(tick=0, channel=9, data=[35, 79]),
   midi.NoteOffEvent(tick=240, channel=9, data=[42, 79]),
   midi.NoteOffEvent(tick=0, channel=9, data=[35, 79]),
   midi.NoteOnEvent(tick=0, channel=9, data=[35, 79]),
   midi.NoteOffEvent(tick=240, channel=9, data=[35, 79]),
   midi.NoteOnEvent(tick=0, channel=9, data=[40, 79]),
   midi.NoteOffEvent(tick=360, channel=9, data=[40, 79]),
   midi.NoteOnEvent(tick=120, channel=9, data=[42, 79]),
   midi.NoteOffEvent(tick=720, channel=9, data=[42, 79]),
   midi.NoteOnEvent(tick=240, channel=9, data=[35, 79]),
   midi.NoteOnEvent(tick=0, channel=9, data=[42, 79]),
   midi.NoteOffEvent(tick=360, channel=9, data=[35, 79]),
   midi.NoteOffEvent(tick=0, channel=9, data=[42, 79]),
   midi.NoteOnEvent(tick=120, channel=9, data=[40, 79]),
   midi.NoteOffEvent(tick=360, channel=9, data=[40, 79]),
   midi.NoteOnEvent(tick=120, channel=9, data=[46, 79]),
   midi.NoteOffEvent(tick=360, channel=9, data=[46, 79]),
   midi.NoteOnEvent(tick=120, channel=9, data=[35, 79]),
   midi.NoteOffEvent(tick=240, channel=9, data=[35, 79]),
   midi.NoteOnEvent(tick=0, channel=9, data=[35, 79]),
   midi.NoteOffEvent(tick=240, channel=9, data=[35, 79]),
   midi.NoteOnEvent(tick=0, channel=9, data=[35, 79]),
   midi.NoteOnEvent(tick=0, channel=9, data=[42, 79]),
   midi.NoteOffEvent(tick=240, channel=9, data=[35, 79]),
   midi.NoteOffEvent(tick=0, channel=9, data=[42, 79]),
   midi.NoteOnEvent(tick=0, channel=9, data=[35, 79]),
   midi.NoteOffEvent(tick=240, channel=9, data=[35, 79]),
   midi.NoteOnEvent(tick=0, channel=9, data=[40, 79]),
   midi.NoteOffEvent(tick=360, channel=9, data=[40, 79]),
   midi.NoteOnEvent(tick=120, channel=9, data=[42, 79]),
   midi.NoteOffEvent(tick=720, channel=9, data=[42, 79]),
   midi.NoteOnEvent(tick=240, channel=9, data=[35, 79]),
   midi.NoteOnEvent(tick=0, channel=9, data=[42, 79]),
   midi.NoteOffEvent(tick=360, channel=9, data=[35, 79]),
   midi.NoteOffEvent(tick=0, channel=9, data=[42, 79]),
   midi.NoteOnEvent(tick=120, channel=9, data=[40, 79]),
   midi.NoteOffEvent(tick=360, channel=9, data=[40, 79]),
   midi.NoteOnEvent(tick=120, channel=9, data=[46, 79]),
   midi.NoteOffEvent(tick=360, channel=9, data=[46, 79]),
   midi.NoteOnEvent(tick=120, channel=9, data=[35, 79]),
   midi.NoteOffEvent(tick=240, channel=9, data=[35, 79]),
   midi.NoteOnEvent(tick=0, channel=9, data=[35, 79]),
   midi.NoteOffEvent(tick=240, channel=9, data=[35, 79]),
   midi.NoteOnEvent(tick=0, channel=9, data=[35, 79]),
   midi.NoteOnEvent(tick=0, channel=9, data=[42, 79]),
   midi.NoteOffEvent(tick=240, channel=9, data=[35, 79]),
   midi.NoteOffEvent(tick=0, channel=9, data=[42, 79]),
   midi.NoteOnEvent(tick=0, channel=9, data=[35, 79]),
   midi.NoteOffEvent(tick=240, channel=9, data=[35, 79]),
   midi.NoteOnEvent(tick=0, channel=9, data=[40, 79]),
   midi.NoteOffEvent(tick=360, channel=9, data=[40, 79]),
   midi.NoteOnEvent(tick=120, channel=9, data=[42, 79]),
   midi.NoteOffEvent(tick=720, channel=9, data=[42, 79]),
   midi.NoteOnEvent(tick=240, channel=9, data=[35, 79]),
   midi.NoteOnEvent(tick=0, channel=9, data=[42, 79]),
   midi.NoteOffEvent(tick=360, channel=9, data=[35, 79]),
   midi.NoteOffEvent(tick=0, channel=9, data=[42, 79]),
   midi.NoteOnEvent(tick=120, channel=9, data=[40, 79]),
   midi.NoteOffEvent(tick=360, channel=9, data=[40, 79]),
   midi.NoteOnEvent(tick=120, channel=9, data=[46, 79]),
   midi.NoteOffEvent(tick=360, channel=9, data=[46, 79]),
   midi.NoteOnEvent(tick=120, channel=9, data=[35, 79]),
   midi.NoteOffEvent(tick=240, channel=9, data=[35, 79]),
   midi.NoteOnEvent(tick=0, channel=9, data=[35, 79]),
   midi.NoteOffEvent(tick=240, channel=9, data=[35, 79]),
   midi.NoteOnEvent(tick=0, channel=9, data=[42, 79]),
   midi.NoteOnEvent(tick=0, channel=9, data=[35, 79]),
   midi.NoteOffEvent(tick=240, channel=9, data=[42, 79]),
   midi.NoteOffEvent(tick=0, channel=9, data=[35, 79]),
   midi.NoteOnEvent(tick=0, channel=9, data=[35, 79]),
   midi.NoteOffEvent(tick=240, channel=9, data=[35, 79]),
   midi.NoteOnEvent(tick=0, channel=9, data=[40, 79]),
   midi.NoteOffEvent(tick=360, channel=9, data=[40, 79]),
   midi.NoteOnEvent(tick=120, channel=9, data=[42, 79]),
   midi.NoteOffEvent(tick=720, channel=9, data=[42, 79]),
   midi.NoteOnEvent(tick=240, channel=9, data=[35, 79]),
   midi.NoteOnEvent(tick=0, channel=9, data=[42, 79]),
   midi.NoteOffEvent(tick=360, channel=9, data=[35, 79]),
   midi.NoteOffEvent(tick=0, channel=9, data=[42, 79]),
   midi.NoteOnEvent(tick=120, channel=9, data=[40, 79]),
   midi.NoteOffEvent(tick=360, channel=9, data=[40, 79]),
   midi.NoteOnEvent(tick=120, channel=9, data=[46, 79]),
   midi.NoteOffEvent(tick=360, channel=9, data=[46, 79]),
   midi.NoteOnEvent(tick=120, channel=9, data=[35, 79]),
   midi.NoteOffEvent(tick=240, channel=9, data=[35, 79]),
   midi.NoteOnEvent(tick=0, channel=9, data=[35, 79]),
   midi.NoteOffEvent(tick=240, channel=9, data=[35, 79]),
   midi.NoteOnEvent(tick=0, channel=9, data=[42, 79]),
   midi.NoteOnEvent(tick=0, channel=9, data=[35, 79]),
   midi.NoteOffEvent(tick=240, channel=9, data=[42, 79]),
   midi.NoteOffEvent(tick=0, channel=9, data=[35, 79]),
   midi.NoteOnEvent(tick=0, channel=9, data=[35, 79]),
   midi.NoteOffEvent(tick=240, channel=9, data=[35, 79]),
   midi.NoteOnEvent(tick=0, channel=9, data=[40, 79]),
   midi.NoteOffEvent(tick=360, channel=9, data=[40, 79]),
   midi.NoteOnEvent(tick=120, channel=9, data=[42, 79]),
   midi.NoteOffEvent(tick=720, channel=9, data=[42, 79]),
   midi.NoteOnEvent(tick=240, channel=9, data=[35, 79]),
   midi.NoteOnEvent(tick=0, channel=9, data=[42, 79]),
   midi.NoteOffEvent(tick=360, channel=9, data=[35, 79]),
   midi.NoteOffEvent(tick=0, channel=9, data=[42, 79]),
   midi.NoteOnEvent(tick=120, channel=9, data=[40, 79]),
   midi.NoteOffEvent(tick=360, channel=9, data=[40, 79]),
   midi.NoteOnEvent(tick=120, channel=9, data=[46, 79]),
   midi.NoteOffEvent(tick=360, channel=9, data=[46, 79]),
   midi.NoteOnEvent(tick=120, channel=9, data=[35, 79]),
   midi.NoteOffEvent(tick=240, channel=9, data=[35, 79]),
   midi.NoteOnEvent(tick=0, channel=9, data=[35, 79]),
   midi.NoteOffEvent(tick=240, channel=9, data=[35, 79]),
   midi.NoteOnEvent(tick=0, channel=9, data=[35, 79]),
   midi.NoteOnEvent(tick=0, channel=9, data=[42, 79]),
   midi.NoteOffEvent(tick=240, channel=9, data=[35, 79]),
   midi.NoteOffEvent(tick=0, channel=9, data=[42, 79]),
   midi.NoteOnEvent(tick=0, channel=9, data=[35, 79]),
   midi.NoteOffEvent(tick=240, channel=9, data=[35, 79]),
   midi.NoteOnEvent(tick=0, channel=9, data=[40, 79]),
   midi.NoteOffEvent(tick=360, channel=9, data=[40, 79]),
   midi.NoteOnEvent(tick=120, channel=9, data=[42, 79]),
   midi.NoteOffEvent(tick=720, channel=9, data=[42, 79]),
   midi.NoteOnEvent(tick=240, channel=9, data=[35, 79]),
   midi.NoteOnEvent(tick=0, channel=9, data=[42, 79]),
   midi.NoteOffEvent(tick=360, channel=9, data=[35, 79]),
   midi.NoteOffEvent(tick=0, channel=9, data=[42, 79]),
   midi.NoteOnEvent(tick=120, channel=9, data=[40, 79]),
   midi.NoteOffEvent(tick=360, channel=9, data=[40, 79]),
   midi.NoteOnEvent(tick=120, channel=9, data=[46, 79]),
   midi.NoteOffEvent(tick=360, channel=9, data=[46, 79]),
   midi.NoteOnEvent(tick=120, channel=9, data=[35, 79]),
   midi.NoteOffEvent(tick=240, channel=9, data=[35, 79]),
   midi.NoteOnEvent(tick=0, channel=9, data=[35, 79]),
   midi.NoteOffEvent(tick=240, channel=9, data=[35, 79]),
   midi.NoteOnEvent(tick=0, channel=9, data=[42, 79]),
   midi.NoteOnEvent(tick=0, channel=9, data=[35, 79]),
   midi.NoteOffEvent(tick=240, channel=9, data=[42, 79]),
   midi.NoteOffEvent(tick=0, channel=9, data=[35, 79]),
   midi.NoteOnEvent(tick=0, channel=9, data=[35, 79]),
   midi.NoteOffEvent(tick=240, channel=9, data=[35, 79]),
   midi.NoteOnEvent(tick=0, channel=9, data=[40, 79]),
   midi.NoteOffEvent(tick=360, channel=9, data=[40, 79]),
   midi.NoteOnEvent(tick=120, channel=9, data=[42, 79]),
   midi.NoteOffEvent(tick=720, channel=9, data=[42, 79]),
   midi.NoteOnEvent(tick=240, channel=9, data=[42, 79]),
   midi.NoteOnEvent(tick=0, channel=9, data=[35, 79]),
   midi.NoteOffEvent(tick=360, channel=9, data=[42, 79]),
   midi.NoteOffEvent(tick=0, channel=9, data=[35, 79]),
   midi.NoteOnEvent(tick=120, channel=9, data=[40, 79]),
   midi.NoteOffEvent(tick=360, channel=9, data=[40, 79]),
   midi.NoteOnEvent(tick=120, channel=9, data=[46, 79]),
   midi.NoteOffEvent(tick=360, channel=9, data=[46, 79]),
   midi.NoteOnEvent(tick=120, channel=9, data=[35, 79]),
   midi.NoteOffEvent(tick=240, channel=9, data=[35, 79]),
   midi.NoteOnEvent(tick=0, channel=9, data=[35, 79]),
   midi.NoteOffEvent(tick=240, channel=9, data=[35, 79]),
   midi.NoteOnEvent(tick=0, channel=9, data=[35, 79]),
   midi.NoteOnEvent(tick=0, channel=9, data=[42, 79]),
   midi.NoteOffEvent(tick=240, channel=9, data=[35, 79]),
   midi.NoteOffEvent(tick=0, channel=9, data=[42, 79]),
   midi.NoteOnEvent(tick=0, channel=9, data=[35, 79]),
   midi.NoteOffEvent(tick=240, channel=9, data=[35, 79]),
   midi.NoteOnEvent(tick=0, channel=9, data=[40, 79]),
   midi.NoteOffEvent(tick=360, channel=9, data=[40, 79]),
   midi.NoteOnEvent(tick=120, channel=9, data=[42, 79]),
   midi.NoteOffEvent(tick=720, channel=9, data=[42, 79]),
   midi.NoteOnEvent(tick=240, channel=9, data=[35, 79]),
   midi.NoteOnEvent(tick=0, channel=9, data=[42, 79]),
   midi.NoteOffEvent(tick=360, channel=9, data=[35, 79]),
   midi.NoteOffEvent(tick=0, channel=9, data=[42, 79]),
   midi.NoteOnEvent(tick=120, channel=9, data=[40, 79]),
   midi.NoteOffEvent(tick=240, channel=9, data=[40, 79]),
   midi.NoteOnEvent(tick=0, channel=9, data=[40, 79]),
   midi.NoteOffEvent(tick=240, channel=9, data=[40, 79]),
   midi.NoteOnEvent(tick=0, channel=9, data=[46, 79]),
   midi.NoteOffEvent(tick=360, channel=9, data=[46, 79]),
   midi.NoteOnEvent(tick=120, channel=9, data=[35, 79]),
   midi.NoteOffEvent(tick=240, channel=9, data=[35, 79]),
   midi.NoteOnEvent(tick=0, channel=9, data=[35, 79]),
   midi.NoteOffEvent(tick=240, channel=9, data=[35, 79]),
   midi.NoteOnEvent(tick=0, channel=9, data=[42, 79]),
   midi.NoteOnEvent(tick=0, channel=9, data=[35, 79]),
   midi.NoteOffEvent(tick=240, channel=9, data=[42, 79]),
   midi.NoteOffEvent(tick=0, channel=9, data=[35, 79]),
   midi.NoteOnEvent(tick=0, channel=9, data=[35, 79]),
   midi.NoteOffEvent(tick=240, channel=9, data=[35, 79]),
   midi.NoteOnEvent(tick=0, channel=9, data=[40, 79]),
   midi.NoteOffEvent(tick=360, channel=9, data=[40, 79]),
   midi.NoteOnEvent(tick=120, channel=9, data=[42, 79]),
   midi.NoteOffEvent(tick=720, channel=9, data=[42, 79]),
   midi.NoteOnEvent(tick=240, channel=9, data=[42, 79]),
   midi.NoteOnEvent(tick=0, channel=9, data=[35, 79]),
   midi.NoteOffEvent(tick=360, channel=9, data=[42, 79]),
   midi.NoteOffEvent(tick=0, channel=9, data=[35, 79]),
   midi.NoteOnEvent(tick=120, channel=9, data=[40, 79]),
   midi.NoteOffEvent(tick=360, channel=9, data=[40, 79]),
   midi.NoteOnEvent(tick=120, channel=9, data=[46, 79]),
   midi.NoteOffEvent(tick=360, channel=9, data=[46, 79]),
   midi.NoteOnEvent(tick=120, channel=9, data=[35, 79]),
   midi.NoteOffEvent(tick=240, channel=9, data=[35, 79]),
   midi.NoteOnEvent(tick=0, channel=9, data=[35, 79]),
   midi.NoteOffEvent(tick=240, channel=9, data=[35, 79]),
   midi.NoteOnEvent(tick=0, channel=9, data=[42, 79]),
   midi.NoteOnEvent(tick=0, channel=9, data=[35, 79]),
   midi.NoteOffEvent(tick=240, channel=9, data=[42, 79]),
   midi.NoteOffEvent(tick=0, channel=9, data=[35, 79]),
   midi.NoteOnEvent(tick=0, channel=9, data=[35, 79]),
   midi.NoteOffEvent(tick=240, channel=9, data=[35, 79]),
   midi.NoteOnEvent(tick=0, channel=9, data=[40, 79]),
   midi.NoteOffEvent(tick=360, channel=9, data=[40, 79]),
   midi.NoteOnEvent(tick=120, channel=9, data=[42, 79]),
   midi.NoteOffEvent(tick=720, channel=9, data=[42, 79]),
   midi.NoteOnEvent(tick=240, channel=9, data=[42, 79]),
   midi.NoteOnEvent(tick=0, channel=9, data=[35, 79]),
   midi.NoteOffEvent(tick=360, channel=9, data=[42, 79]),
   midi.NoteOffEvent(tick=0, channel=9, data=[35, 79]),
   midi.NoteOnEvent(tick=120, channel=9, data=[40, 79]),
   midi.NoteOffEvent(tick=360, channel=9, data=[40, 79]),
   midi.NoteOnEvent(tick=120, channel=9, data=[46, 79]),
   midi.NoteOffEvent(tick=360, channel=9, data=[46, 79]),
   midi.NoteOnEvent(tick=120, channel=9, data=[35, 79]),
   midi.NoteOffEvent(tick=240, channel=9, data=[35, 79]),
   midi.NoteOnEvent(tick=0, channel=9, data=[35, 79]),
   midi.NoteOffEvent(tick=240, channel=9, data=[35, 79]),
   midi.NoteOnEvent(tick=0, channel=9, data=[42, 79]),
   midi.NoteOnEvent(tick=0, channel=9, data=[35, 79]),
   midi.NoteOffEvent(tick=240, channel=9, data=[42, 79]),
   midi.NoteOffEvent(tick=0, channel=9, data=[35, 79]),
   midi.NoteOnEvent(tick=0, channel=9, data=[35, 79]),
   midi.NoteOffEvent(tick=240, channel=9, data=[35, 79]),
   midi.NoteOnEvent(tick=0, channel=9, data=[40, 79]),
   midi.NoteOffEvent(tick=360, channel=9, data=[40, 79]),
   midi.NoteOnEvent(tick=120, channel=9, data=[42, 79]),
   midi.NoteOffEvent(tick=720, channel=9, data=[42, 79]),
   midi.NoteOnEvent(tick=240, channel=9, data=[42, 79]),
   midi.NoteOnEvent(tick=0, channel=9, data=[35, 79]),
   midi.NoteOffEvent(tick=360, channel=9, data=[42, 79]),
   midi.NoteOffEvent(tick=0, channel=9, data=[35, 79]),
   midi.NoteOnEvent(tick=120, channel=9, data=[40, 79]),
   midi.NoteOffEvent(tick=360, channel=9, data=[40, 79]),
   midi.NoteOnEvent(tick=120, channel=9, data=[46, 79]),
   midi.NoteOffEvent(tick=360, channel=9, data=[46, 79]),
   midi.NoteOnEvent(tick=120, channel=9, data=[35, 79]),
   midi.NoteOffEvent(tick=240, channel=9, data=[35, 79]),
   midi.NoteOnEvent(tick=0, channel=9, data=[35, 79]),
   midi.NoteOffEvent(tick=240, channel=9, data=[35, 79]),
   midi.NoteOnEvent(tick=0, channel=9, data=[42, 79]),
   midi.NoteOnEvent(tick=0, channel=9, data=[35, 79]),
   midi.NoteOffEvent(tick=240, channel=9, data=[42, 79]),
   midi.NoteOffEvent(tick=0, channel=9, data=[35, 79]),
   midi.NoteOnEvent(tick=0, channel=9, data=[35, 79]),
   midi.NoteOffEvent(tick=240, channel=9, data=[35, 79]),
   midi.NoteOnEvent(tick=0, channel=9, data=[40, 79]),
   midi.NoteOffEvent(tick=360, channel=9, data=[40, 79]),
   midi.NoteOnEvent(tick=120, channel=9, data=[42, 79]),
   midi.NoteOffEvent(tick=720, channel=9, data=[42, 79]),
   midi.NoteOnEvent(tick=240, channel=9, data=[35, 79]),
   midi.NoteOnEvent(tick=0, channel=9, data=[42, 79]),
   midi.NoteOffEvent(tick=360, channel=9, data=[35, 79]),
   midi.NoteOffEvent(tick=0, channel=9, data=[42, 79]),
   midi.NoteOnEvent(tick=120, channel=9, data=[40, 79]),
   midi.NoteOffEvent(tick=240, channel=9, data=[40, 79]),
   midi.NoteOnEvent(tick=0, channel=9, data=[40, 79]),
   midi.NoteOffEvent(tick=240, channel=9, data=[40, 79]),
   midi.NoteOnEvent(tick=0, channel=9, data=[46, 79]),
   midi.NoteOffEvent(tick=360, channel=9, data=[46, 79]),
   midi.NoteOnEvent(tick=120, channel=9, data=[35, 79]),
   midi.NoteOffEvent(tick=240, channel=9, data=[35, 79]),
   midi.NoteOnEvent(tick=0, channel=9, data=[35, 79]),
   midi.NoteOffEvent(tick=240, channel=9, data=[35, 79]),
   midi.NoteOnEvent(tick=0, channel=9, data=[35, 79]),
   midi.NoteOnEvent(tick=0, channel=9, data=[42, 79]),
   midi.NoteOffEvent(tick=240, channel=9, data=[35, 79]),
   midi.NoteOffEvent(tick=0, channel=9, data=[42, 79]),
   midi.NoteOnEvent(tick=0, channel=9, data=[35, 79]),
   midi.NoteOffEvent(tick=240, channel=9, data=[35, 79]),
   midi.NoteOnEvent(tick=0, channel=9, data=[40, 79]),
   midi.NoteOffEvent(tick=360, channel=9, data=[40, 79]),
   midi.NoteOnEvent(tick=120, channel=9, data=[42, 79]),
   midi.NoteOffEvent(tick=720, channel=9, data=[42, 79]),
   midi.NoteOnEvent(tick=240, channel=9, data=[42, 79]),
   midi.NoteOnEvent(tick=0, channel=9, data=[35, 79]),
   midi.NoteOffEvent(tick=360, channel=9, data=[42, 79]),
   midi.NoteOffEvent(tick=0, channel=9, data=[35, 79]),
   midi.NoteOnEvent(tick=120, channel=9, data=[40, 79]),
   midi.NoteOffEvent(tick=360, channel=9, data=[40, 79]),
   midi.NoteOnEvent(tick=120, channel=9, data=[46, 79]),
   midi.NoteOffEvent(tick=360, channel=9, data=[46, 79]),
   midi.NoteOnEvent(tick=120, channel=9, data=[35, 79]),
   midi.NoteOffEvent(tick=240, channel=9, data=[35, 79]),
   midi.NoteOnEvent(tick=0, channel=9, data=[35, 79]),
   midi.NoteOffEvent(tick=240, channel=9, data=[35, 79]),
   midi.NoteOnEvent(tick=0, channel=9, data=[42, 79]),
   midi.NoteOnEvent(tick=0, channel=9, data=[35, 79]),
   midi.NoteOffEvent(tick=240, channel=9, data=[42, 79]),
   midi.NoteOffEvent(tick=0, channel=9, data=[35, 79]),
   midi.NoteOnEvent(tick=0, channel=9, data=[35, 79]),
   midi.NoteOffEvent(tick=240, channel=9, data=[35, 79]),
   midi.NoteOnEvent(tick=0, channel=9, data=[40, 79]),
   midi.NoteOffEvent(tick=360, channel=9, data=[40, 79]),
   midi.NoteOnEvent(tick=120, channel=9, data=[42, 79]),
   midi.NoteOffEvent(tick=720, channel=9, data=[42, 79]),
   midi.NoteOnEvent(tick=240, channel=9, data=[42, 79]),
   midi.NoteOnEvent(tick=0, channel=9, data=[35, 79]),
   midi.NoteOffEvent(tick=360, channel=9, data=[42, 79]),
   midi.NoteOffEvent(tick=0, channel=9, data=[35, 79]),
   midi.NoteOnEvent(tick=120, channel=9, data=[40, 79]),
   midi.NoteOffEvent(tick=360, channel=9, data=[40, 79]),
   midi.NoteOnEvent(tick=120, channel=9, data=[46, 79]),
   midi.NoteOffEvent(tick=360, channel=9, data=[46, 79]),
   midi.NoteOnEvent(tick=120, channel=9, data=[35, 79]),
   midi.NoteOffEvent(tick=240, channel=9, data=[35, 79]),
   midi.NoteOnEvent(tick=0, channel=9, data=[35, 79]),
   midi.NoteOffEvent(tick=240, channel=9, data=[35, 79]),
   midi.NoteOnEvent(tick=0, channel=9, data=[42, 79]),
   midi.NoteOnEvent(tick=0, channel=9, data=[35, 79]),
   midi.NoteOffEvent(tick=240, channel=9, data=[42, 79]),
   midi.NoteOffEvent(tick=0, channel=9, data=[35, 79]),
   midi.NoteOnEvent(tick=0, channel=9, data=[35, 79]),
   midi.NoteOffEvent(tick=240, channel=9, data=[35, 79]),
   midi.NoteOnEvent(tick=0, channel=9, data=[40, 79]),
   midi.NoteOffEvent(tick=360, channel=9, data=[40, 79]),
   midi.NoteOnEvent(tick=120, channel=9, data=[42, 79]),
   midi.NoteOffEvent(tick=720, channel=9, data=[42, 79]),
   midi.NoteOnEvent(tick=240, channel=9, data=[35, 79]),
   midi.NoteOnEvent(tick=0, channel=9, data=[42, 79]),
   midi.NoteOffEvent(tick=360, channel=9, data=[35, 79]),
   midi.NoteOffEvent(tick=0, channel=9, data=[42, 79]),
   midi.NoteOnEvent(tick=120, channel=9, data=[40, 79]),
   midi.NoteOffEvent(tick=360, channel=9, data=[40, 79]),
   midi.NoteOnEvent(tick=120, channel=9, data=[46, 79]),
   midi.NoteOffEvent(tick=360, channel=9, data=[46, 79]),
   midi.NoteOnEvent(tick=120, channel=9, data=[35, 79]),
   midi.NoteOnEvent(tick=0, channel=9, data=[49, 79]),
   midi.NoteOffEvent(tick=240, channel=9, data=[35, 79]),
   midi.NoteOffEvent(tick=0, channel=9, data=[49, 79]),
   midi.NoteOnEvent(tick=0, channel=9, data=[35, 79]),
   midi.NoteOffEvent(tick=240, channel=9, data=[35, 79]),
   midi.NoteOnEvent(tick=0, channel=9, data=[42, 79]),
   midi.NoteOnEvent(tick=0, channel=9, data=[35, 79]),
   midi.NoteOffEvent(tick=240, channel=9, data=[42, 79]),
   midi.NoteOffEvent(tick=0, channel=9, data=[35, 79]),
   midi.NoteOnEvent(tick=0, channel=9, data=[35, 79]),
   midi.NoteOffEvent(tick=240, channel=9, data=[35, 79]),
   midi.NoteOnEvent(tick=0, channel=9, data=[40, 79]),
   midi.NoteOnEvent(tick=0, channel=9, data=[49, 79]),
   midi.NoteOffEvent(tick=360, channel=9, data=[40, 79]),
   midi.NoteOffEvent(tick=0, channel=9, data=[49, 79]),
   midi.NoteOnEvent(tick=120, channel=9, data=[42, 79]),
   midi.NoteOnEvent(tick=0, channel=9, data=[40, 79]),
   midi.NoteOffEvent(tick=240, channel=9, data=[42, 79]),
   midi.NoteOffEvent(tick=0, channel=9, data=[40, 79]),
   midi.NoteOnEvent(tick=0, channel=9, data=[40, 79]),
   midi.NoteOffEvent(tick=240, channel=9, data=[40, 79]),
   midi.NoteOnEvent(tick=0, channel=9, data=[40, 79]),
   midi.NoteOffEvent(tick=240, channel=9, data=[40, 79]),
   midi.NoteOnEvent(tick=0, channel=9, data=[40, 79]),
   midi.NoteOffEvent(tick=240, channel=9, data=[40, 79]),
   midi.NoteOnEvent(tick=0, channel=9, data=[42, 79]),
   midi.NoteOffEvent(tick=360, channel=9, data=[42, 79]),
   midi.NoteOnEvent(tick=120, channel=9, data=[45, 79]),
   midi.NoteOnEvent(tick=0, channel=9, data=[40, 79]),
   midi.NoteOffEvent(tick=240, channel=9, data=[45, 79]),
   midi.NoteOffEvent(tick=0, channel=9, data=[40, 79]),
   midi.NoteOnEvent(tick=0, channel=9, data=[45, 79]),
   midi.NoteOffEvent(tick=240, channel=9, data=[45, 79]),
   midi.NoteOnEvent(tick=0, channel=9, data=[42, 79]),
   midi.NoteOnEvent(tick=0, channel=9, data=[43, 79]),
   midi.NoteOffEvent(tick=240, channel=9, data=[42, 79]),
   midi.NoteOffEvent(tick=0, channel=9, data=[43, 79]),
   midi.NoteOnEvent(tick=0, channel=9, data=[41, 79]),
   midi.NoteOffEvent(tick=240, channel=9, data=[41, 79]),
   midi.NoteOnEvent(tick=0, channel=9, data=[49, 79]),
   midi.NoteOnEvent(tick=0, channel=9, data=[35, 79]),
   midi.NoteOffEvent(tick=360, channel=9, data=[49, 79]),
   midi.NoteOffEvent(tick=0, channel=9, data=[35, 79]),
   midi.NoteOnEvent(tick=120, channel=9, data=[46, 79]),
   midi.NoteOffEvent(tick=240, channel=9, data=[46, 79]),
   midi.NoteOnEvent(tick=0, channel=9, data=[35, 79]),
   midi.NoteOffEvent(tick=240, channel=9, data=[35, 79]),
   midi.NoteOnEvent(tick=0, channel=9, data=[40, 79]),
   midi.NoteOnEvent(tick=0, channel=9, data=[46, 79]),
   midi.NoteOffEvent(tick=360, channel=9, data=[40, 79]),
   midi.NoteOffEvent(tick=0, channel=9, data=[46, 79]),
   midi.NoteOnEvent(tick=120, channel=9, data=[46, 79]),
   midi.NoteOffEvent(tick=240, channel=9, data=[46, 79]),
   midi.NoteOnEvent(tick=0, channel=9, data=[40, 79]),
   midi.NoteOffEvent(tick=240, channel=9, data=[40, 79]),
   midi.NoteOnEvent(tick=0, channel=9, data=[46, 79]),
   midi.NoteOffEvent(tick=240, channel=9, data=[46, 79]),
   midi.NoteOnEvent(tick=0, channel=9, data=[35, 79]),
   midi.NoteOffEvent(tick=240, channel=9, data=[35, 79]),
   midi.NoteOnEvent(tick=0, channel=9, data=[46, 79]),
   midi.NoteOnEvent(tick=0, channel=9, data=[35, 79]),
   midi.NoteOffEvent(tick=240, channel=9, data=[46, 79]),
   midi.NoteOffEvent(tick=0, channel=9, data=[35, 79]),
   midi.NoteOnEvent(tick=0, channel=9, data=[35, 79]),
   midi.NoteOffEvent(tick=240, channel=9, data=[35, 79]),
   midi.NoteOnEvent(tick=0, channel=9, data=[40, 79]),
   midi.NoteOnEvent(tick=0, channel=9, data=[46, 79]),
   midi.NoteOffEvent(tick=360, channel=9, data=[40, 79]),
   midi.NoteOffEvent(tick=0, channel=9, data=[46, 79]),
   midi.NoteOnEvent(tick=120, channel=9, data=[46, 79]),
   midi.NoteOffEvent(tick=360, channel=9, data=[46, 79]),
   midi.NoteOnEvent(tick=120, channel=9, data=[46, 79]),
   midi.NoteOnEvent(tick=0, channel=9, data=[35, 79]),
   midi.NoteOffEvent(tick=360, channel=9, data=[46, 79]),
   midi.NoteOffEvent(tick=0, channel=9, data=[35, 79]),
   midi.NoteOnEvent(tick=120, channel=9, data=[46, 79]),
   midi.NoteOffEvent(tick=240, channel=9, data=[46, 79]),
   midi.NoteOnEvent(tick=0, channel=9, data=[35, 79]),
   midi.NoteOffEvent(tick=240, channel=9, data=[35, 79]),
   midi.NoteOnEvent(tick=0, channel=9, data=[40, 79]),
   midi.NoteOnEvent(tick=0, channel=9, data=[46, 79]),
   midi.NoteOffEvent(tick=360, channel=9, data=[40, 79]),
   midi.NoteOffEvent(tick=0, channel=9, data=[46, 79]),
   midi.NoteOnEvent(tick=120, channel=9, data=[46, 79]),
   midi.NoteOffEvent(tick=240, channel=9, data=[46, 79]),
   midi.NoteOnEvent(tick=0, channel=9, data=[40, 79]),
   midi.NoteOffEvent(tick=240, channel=9, data=[40, 79]),
   midi.NoteOnEvent(tick=0, channel=9, data=[46, 79]),
   midi.NoteOffEvent(tick=240, channel=9, data=[46, 79]),
   midi.NoteOnEvent(tick=0, channel=9, data=[35, 79]),
   midi.NoteOffEvent(tick=240, channel=9, data=[35, 79]),
   midi.NoteOnEvent(tick=0, channel=9, data=[35, 79]),
   midi.NoteOnEvent(tick=0, channel=9, data=[46, 79]),
   midi.NoteOffEvent(tick=240, channel=9, data=[35, 79]),
   midi.NoteOffEvent(tick=0, channel=9, data=[46, 79]),
   midi.NoteOnEvent(tick=0, channel=9, data=[35, 79]),
   midi.NoteOffEvent(tick=240, channel=9, data=[35, 79]),
   midi.NoteOnEvent(tick=0, channel=9, data=[46, 79]),
   midi.NoteOnEvent(tick=0, channel=9, data=[40, 79]),
   midi.NoteOffEvent(tick=240, channel=9, data=[46, 79]),
   midi.NoteOffEvent(tick=0, channel=9, data=[40, 79]),
   midi.NoteOnEvent(tick=0, channel=9, data=[35, 79]),
   midi.NoteOffEvent(tick=240, channel=9, data=[35, 79]),
   midi.NoteOnEvent(tick=0, channel=9, data=[46, 79]),
   midi.NoteOffEvent(tick=360, channel=9, data=[46, 79]),
   midi.NoteOnEvent(tick=120, channel=9, data=[46, 79]),
   midi.NoteOnEvent(tick=0, channel=9, data=[35, 79]),
   midi.NoteOffEvent(tick=360, channel=9, data=[46, 79]),
   midi.NoteOffEvent(tick=0, channel=9, data=[35, 79]),
   midi.NoteOnEvent(tick=120, channel=9, data=[46, 79]),
   midi.NoteOffEvent(tick=240, channel=9, data=[46, 79]),
   midi.NoteOnEvent(tick=0, channel=9, data=[35, 79]),
   midi.NoteOffEvent(tick=240, channel=9, data=[35, 79]),
   midi.NoteOnEvent(tick=0, channel=9, data=[40, 79]),
   midi.NoteOnEvent(tick=0, channel=9, data=[46, 79]),
   midi.NoteOffEvent(tick=360, channel=9, data=[40, 79]),
   midi.NoteOffEvent(tick=0, channel=9, data=[46, 79]),
   midi.NoteOnEvent(tick=120, channel=9, data=[46, 79]),
   midi.NoteOffEvent(tick=240, channel=9, data=[46, 79]),
   midi.NoteOnEvent(tick=0, channel=9, data=[40, 79]),
   midi.NoteOffEvent(tick=240, channel=9, data=[40, 79]),
   midi.NoteOnEvent(tick=0, channel=9, data=[46, 79]),
   midi.NoteOffEvent(tick=240, channel=9, data=[46, 79]),
   midi.NoteOnEvent(tick=0, channel=9, data=[35, 79]),
   midi.NoteOffEvent(tick=240, channel=9, data=[35, 79]),
   midi.NoteOnEvent(tick=0, channel=9, data=[46, 79]),
   midi.NoteOnEvent(tick=0, channel=9, data=[35, 79]),
   midi.NoteOffEvent(tick=240, channel=9, data=[46, 79]),
   midi.NoteOffEvent(tick=0, channel=9, data=[35, 79]),
   midi.NoteOnEvent(tick=0, channel=9, data=[35, 79]),
   midi.NoteOffEvent(tick=240, channel=9, data=[35, 79]),
   midi.NoteOnEvent(tick=0, channel=9, data=[46, 79]),
   midi.NoteOnEvent(tick=0, channel=9, data=[40, 79]),
   midi.NoteOffEvent(tick=360, channel=9, data=[46, 79]),
   midi.NoteOffEvent(tick=0, channel=9, data=[40, 79]),
   midi.NoteOnEvent(tick=120, channel=9, data=[46, 79]),
   midi.NoteOffEvent(tick=360, channel=9, data=[46, 79]),
   midi.NoteOnEvent(tick=120, channel=9, data=[49, 79]),
   midi.NoteOnEvent(tick=0, channel=9, data=[35, 79]),
   midi.NoteOffEvent(tick=360, channel=9, data=[49, 79]),
   midi.NoteOffEvent(tick=0, channel=9, data=[35, 79]),
   midi.NoteOnEvent(tick=120, channel=9, data=[46, 79]),
   midi.NoteOffEvent(tick=240, channel=9, data=[46, 79]),
   midi.NoteOnEvent(tick=0, channel=9, data=[35, 79]),
   midi.NoteOffEvent(tick=240, channel=9, data=[35, 79]),
   midi.NoteOnEvent(tick=0, channel=9, data=[40, 79]),
   midi.NoteOnEvent(tick=0, channel=9, data=[46, 79]),
   midi.NoteOffEvent(tick=360, channel=9, data=[40, 79]),
   midi.NoteOffEvent(tick=0, channel=9, data=[46, 79]),
   midi.NoteOnEvent(tick=120, channel=9, data=[46, 79]),
   midi.NoteOffEvent(tick=240, channel=9, data=[46, 79]),
   midi.NoteOnEvent(tick=0, channel=9, data=[40, 79]),
   midi.NoteOffEvent(tick=240, channel=9, data=[40, 79]),
   midi.NoteOnEvent(tick=0, channel=9, data=[46, 79]),
   midi.NoteOffEvent(tick=240, channel=9, data=[46, 79]),
   midi.NoteOnEvent(tick=0, channel=9, data=[35, 79]),
   midi.NoteOffEvent(tick=240, channel=9, data=[35, 79]),
   midi.NoteOnEvent(tick=0, channel=9, data=[46, 79]),
   midi.NoteOnEvent(tick=0, channel=9, data=[35, 79]),
   midi.NoteOffEvent(tick=240, channel=9, data=[46, 79]),
   midi.NoteOffEvent(tick=0, channel=9, data=[35, 79]),
   midi.NoteOnEvent(tick=0, channel=9, data=[35, 79]),
   midi.NoteOffEvent(tick=240, channel=9, data=[35, 79]),
   midi.NoteOnEvent(tick=0, channel=9, data=[46, 79]),
   midi.NoteOnEvent(tick=0, channel=9, data=[40, 79]),
   midi.NoteOffEvent(tick=240, channel=9, data=[46, 79]),
   midi.NoteOffEvent(tick=0, channel=9, data=[40, 79]),
   midi.NoteOnEvent(tick=0, channel=9, data=[35, 79]),
   midi.NoteOffEvent(tick=240, channel=9, data=[35, 79]),
   midi.NoteOnEvent(tick=0, channel=9, data=[46, 79]),
   midi.NoteOffEvent(tick=360, channel=9, data=[46, 79]),
   midi.NoteOnEvent(tick=120, channel=9, data=[53, 79]),
   midi.NoteOnEvent(tick=0, channel=9, data=[49, 79]),
   midi.NoteOnEvent(tick=0, channel=9, data=[35, 79]),
   midi.NoteOffEvent(tick=360, channel=9, data=[53, 79]),
   midi.NoteOffEvent(tick=0, channel=9, data=[49, 79]),
   midi.NoteOffEvent(tick=0, channel=9, data=[35, 79]),
   midi.NoteOnEvent(tick=120, channel=9, data=[46, 79]),
   midi.NoteOffEvent(tick=240, channel=9, data=[46, 79]),
   midi.NoteOnEvent(tick=0, channel=9, data=[35, 79]),
   midi.NoteOffEvent(tick=240, channel=9, data=[35, 79]),
   midi.NoteOnEvent(tick=0, channel=9, data=[46, 79]),
   midi.NoteOnEvent(tick=0, channel=9, data=[40, 79]),
   midi.NoteOffEvent(tick=360, channel=9, data=[46, 79]),
   midi.NoteOffEvent(tick=0, channel=9, data=[40, 79]),
   midi.NoteOnEvent(tick=120, channel=9, data=[46, 79]),
   midi.NoteOffEvent(tick=240, channel=9, data=[46, 79]),
   midi.NoteOnEvent(tick=0, channel=9, data=[40, 79]),
   midi.NoteOffEvent(tick=240, channel=9, data=[40, 79]),
   midi.NoteOnEvent(tick=0, channel=9, data=[46, 79]),
   midi.NoteOffEvent(tick=240, channel=9, data=[46, 79]),
   midi.NoteOnEvent(tick=0, channel=9, data=[35, 79]),
   midi.NoteOffEvent(tick=240, channel=9, data=[35, 79]),
   midi.NoteOnEvent(tick=0, channel=9, data=[35, 79]),
   midi.NoteOnEvent(tick=0, channel=9, data=[46, 79]),
   midi.NoteOffEvent(tick=240, channel=9, data=[35, 79]),
   midi.NoteOffEvent(tick=0, channel=9, data=[46, 79]),
   midi.NoteOnEvent(tick=0, channel=9, data=[35, 79]),
   midi.NoteOffEvent(tick=240, channel=9, data=[35, 79]),
   midi.NoteOnEvent(tick=0, channel=9, data=[46, 79]),
   midi.NoteOnEvent(tick=0, channel=9, data=[40, 79]),
   midi.NoteOffEvent(tick=360, channel=9, data=[46, 79]),
   midi.NoteOffEvent(tick=0, channel=9, data=[40, 79]),
   midi.NoteOnEvent(tick=120, channel=9, data=[46, 79]),
   midi.NoteOffEvent(tick=360, channel=9, data=[46, 79]),
   midi.NoteOnEvent(tick=120, channel=9, data=[35, 79]),
   midi.NoteOnEvent(tick=0, channel=9, data=[46, 79]),
   midi.NoteOffEvent(tick=360, channel=9, data=[35, 79]),
   midi.NoteOffEvent(tick=0, channel=9, data=[46, 79]),
   midi.NoteOnEvent(tick=120, channel=9, data=[46, 79]),
   midi.NoteOffEvent(tick=240, channel=9, data=[46, 79]),
   midi.NoteOnEvent(tick=0, channel=9, data=[35, 79]),
   midi.NoteOffEvent(tick=240, channel=9, data=[35, 79]),
   midi.NoteOnEvent(tick=0, channel=9, data=[46, 79]),
   midi.NoteOnEvent(tick=0, channel=9, data=[40, 79]),
   midi.NoteOffEvent(tick=360, channel=9, data=[46, 79]),
   midi.NoteOffEvent(tick=0, channel=9, data=[40, 79]),
   midi.NoteOnEvent(tick=120, channel=9, data=[46, 79]),
   midi.NoteOffEvent(tick=240, channel=9, data=[46, 79]),
   midi.NoteOnEvent(tick=0, channel=9, data=[40, 79]),
   midi.NoteOffEvent(tick=240, channel=9, data=[40, 79]),
   midi.NoteOnEvent(tick=0, channel=9, data=[46, 79]),
   midi.NoteOffEvent(tick=240, channel=9, data=[46, 79]),
   midi.NoteOnEvent(tick=0, channel=9, data=[35, 79]),
   midi.NoteOffEvent(tick=240, channel=9, data=[35, 79]),
   midi.NoteOnEvent(tick=0, channel=9, data=[35, 79]),
   midi.NoteOnEvent(tick=0, channel=9, data=[46, 79]),
   midi.NoteOffEvent(tick=240, channel=9, data=[35, 79]),
   midi.NoteOffEvent(tick=0, channel=9, data=[46, 79]),
   midi.NoteOnEvent(tick=0, channel=9, data=[35, 79]),
   midi.NoteOffEvent(tick=240, channel=9, data=[35, 79]),
   midi.NoteOnEvent(tick=0, channel=9, data=[46, 79]),
   midi.NoteOnEvent(tick=0, channel=9, data=[40, 79]),
   midi.NoteOffEvent(tick=240, channel=9, data=[46, 79]),
   midi.NoteOffEvent(tick=0, channel=9, data=[40, 79]),
   midi.NoteOnEvent(tick=0, channel=9, data=[35, 79]),
   midi.NoteOffEvent(tick=240, channel=9, data=[35, 79]),
   midi.NoteOnEvent(tick=0, channel=9, data=[46, 79]),
   midi.NoteOffEvent(tick=360, channel=9, data=[46, 79]),
   midi.NoteOnEvent(tick=120, channel=9, data=[46, 79]),
   midi.NoteOnEvent(tick=0, channel=9, data=[35, 79]),
   midi.NoteOffEvent(tick=360, channel=9, data=[46, 79]),
   midi.NoteOffEvent(tick=0, channel=9, data=[35, 79]),
   midi.NoteOnEvent(tick=120, channel=9, data=[46, 79]),
   midi.NoteOffEvent(tick=240, channel=9, data=[46, 79]),
   midi.NoteOnEvent(tick=0, channel=9, data=[35, 79]),
   midi.NoteOffEvent(tick=240, channel=9, data=[35, 79]),
   midi.NoteOnEvent(tick=0, channel=9, data=[40, 79]),
   midi.NoteOnEvent(tick=0, channel=9, data=[46, 79]),
   midi.NoteOffEvent(tick=360, channel=9, data=[40, 79]),
   midi.NoteOffEvent(tick=0, channel=9, data=[46, 79]),
   midi.NoteOnEvent(tick=120, channel=9, data=[46, 79]),
   midi.NoteOffEvent(tick=240, channel=9, data=[46, 79]),
   midi.NoteOnEvent(tick=0, channel=9, data=[40, 79]),
   midi.NoteOffEvent(tick=240, channel=9, data=[40, 79]),
   midi.NoteOnEvent(tick=0, channel=9, data=[46, 79]),
   midi.NoteOffEvent(tick=240, channel=9, data=[46, 79]),
   midi.NoteOnEvent(tick=0, channel=9, data=[35, 79]),
   midi.NoteOffEvent(tick=240, channel=9, data=[35, 79]),
   midi.NoteOnEvent(tick=0, channel=9, data=[35, 79]),
   midi.NoteOnEvent(tick=0, channel=9, data=[46, 79]),
   midi.NoteOffEvent(tick=240, channel=9, data=[35, 79]),
   midi.NoteOffEvent(tick=0, channel=9, data=[46, 79]),
   midi.NoteOnEvent(tick=0, channel=9, data=[35, 79]),
   midi.NoteOffEvent(tick=240, channel=9, data=[35, 79]),
   midi.NoteOnEvent(tick=0, channel=9, data=[46, 79]),
   midi.NoteOnEvent(tick=0, channel=9, data=[40, 79]),
   midi.NoteOffEvent(tick=360, channel=9, data=[46, 79]),
   midi.NoteOffEvent(tick=0, channel=9, data=[40, 79]),
   midi.NoteOnEvent(tick=120, channel=9, data=[46, 79]),
   midi.NoteOffEvent(tick=360, channel=9, data=[46, 79]),
   midi.NoteOnEvent(tick=120, channel=9, data=[35, 79]),
   midi.NoteOnEvent(tick=0, channel=9, data=[46, 79]),
   midi.NoteOffEvent(tick=360, channel=9, data=[35, 79]),
   midi.NoteOffEvent(tick=0, channel=9, data=[46, 79]),
   midi.NoteOnEvent(tick=120, channel=9, data=[46, 79]),
   midi.NoteOffEvent(tick=240, channel=9, data=[46, 79]),
   midi.NoteOnEvent(tick=0, channel=9, data=[35, 79]),
   midi.NoteOffEvent(tick=240, channel=9, data=[35, 79]),
   midi.NoteOnEvent(tick=0, channel=9, data=[46, 79]),
   midi.NoteOnEvent(tick=0, channel=9, data=[40, 79]),
   midi.NoteOffEvent(tick=360, channel=9, data=[46, 79]),
   midi.NoteOffEvent(tick=0, channel=9, data=[40, 79]),
   midi.NoteOnEvent(tick=120, channel=9, data=[46, 79]),
   midi.NoteOffEvent(tick=240, channel=9, data=[46, 79]),
   midi.NoteOnEvent(tick=0, channel=9, data=[40, 79]),
   midi.NoteOffEvent(tick=240, channel=9, data=[40, 79]),
   midi.NoteOnEvent(tick=0, channel=9, data=[46, 79]),
   midi.NoteOffEvent(tick=240, channel=9, data=[46, 79]),
   midi.NoteOnEvent(tick=0, channel=9, data=[35, 79]),
   midi.NoteOffEvent(tick=240, channel=9, data=[35, 79]),
   midi.NoteOnEvent(tick=0, channel=9, data=[35, 79]),
   midi.NoteOnEvent(tick=0, channel=9, data=[46, 79]),
   midi.NoteOffEvent(tick=240, channel=9, data=[35, 79]),
   midi.NoteOffEvent(tick=0, channel=9, data=[46, 79]),
   midi.NoteOnEvent(tick=0, channel=9, data=[35, 79]),
   midi.NoteOffEvent(tick=240, channel=9, data=[35, 79]),
   midi.NoteOnEvent(tick=0, channel=9, data=[46, 79]),
   midi.NoteOnEvent(tick=0, channel=9, data=[40, 79]),
   midi.NoteOffEvent(tick=240, channel=9, data=[46, 79]),
   midi.NoteOffEvent(tick=0, channel=9, data=[40, 79]),
   midi.NoteOnEvent(tick=0, channel=9, data=[35, 79]),
   midi.NoteOffEvent(tick=240, channel=9, data=[35, 79]),
   midi.NoteOnEvent(tick=0, channel=9, data=[46, 79]),
   midi.NoteOffEvent(tick=360, channel=9, data=[46, 79]),
   midi.NoteOnEvent(tick=120, channel=9, data=[35, 79]),
   midi.NoteOffEvent(tick=240, channel=9, data=[35, 79]),
   midi.NoteOnEvent(tick=0, channel=9, data=[35, 79]),
   midi.NoteOffEvent(tick=240, channel=9, data=[35, 79]),
   midi.NoteOnEvent(tick=0, channel=9, data=[42, 79]),
   midi.NoteOnEvent(tick=0, channel=9, data=[35, 79]),
   midi.NoteOffEvent(tick=240, channel=9, data=[42, 79]),
   midi.NoteOffEvent(tick=0, channel=9, data=[35, 79]),
   midi.NoteOnEvent(tick=0, channel=9, data=[35, 79]),
   midi.NoteOffEvent(tick=240, channel=9, data=[35, 79]),
   midi.NoteOnEvent(tick=0, channel=9, data=[40, 79]),
   midi.NoteOffEvent(tick=360, channel=9, data=[40, 79]),
   midi.NoteOnEvent(tick=120, channel=9, data=[42, 79]),
   midi.NoteOffEvent(tick=720, channel=9, data=[42, 79]),
   midi.NoteOnEvent(tick=240, channel=9, data=[35, 79]),
   midi.NoteOnEvent(tick=0, channel=9, data=[42, 79]),
   midi.NoteOffEvent(tick=360, channel=9, data=[35, 79]),
   midi.NoteOffEvent(tick=0, channel=9, data=[42, 79]),
   midi.NoteOnEvent(tick=120, channel=9, data=[40, 79]),
   midi.NoteOffEvent(tick=360, channel=9, data=[40, 79]),
   midi.NoteOnEvent(tick=120, channel=9, data=[46, 79]),
   midi.NoteOffEvent(tick=360, channel=9, data=[46, 79]),
   midi.NoteOnEvent(tick=120, channel=9, data=[35, 79]),
   midi.NoteOffEvent(tick=240, channel=9, data=[35, 79]),
   midi.NoteOnEvent(tick=0, channel=9, data=[35, 79]),
   midi.NoteOffEvent(tick=240, channel=9, data=[35, 79]),
   midi.NoteOnEvent(tick=0, channel=9, data=[42, 79]),
   midi.NoteOnEvent(tick=0, channel=9, data=[35, 79]),
   midi.NoteOffEvent(tick=240, channel=9, data=[42, 79]),
   midi.NoteOffEvent(tick=0, channel=9, data=[35, 79]),
   midi.NoteOnEvent(tick=0, channel=9, data=[35, 79]),
   midi.NoteOffEvent(tick=240, channel=9, data=[35, 79]),
   midi.NoteOnEvent(tick=0, channel=9, data=[40, 79]),
   midi.NoteOffEvent(tick=360, channel=9, data=[40, 79]),
   midi.NoteOnEvent(tick=120, channel=9, data=[42, 79]),
   midi.NoteOffEvent(tick=720, channel=9, data=[42, 79]),
   midi.NoteOnEvent(tick=240, channel=9, data=[42, 79]),
   midi.NoteOnEvent(tick=0, channel=9, data=[35, 79]),
   midi.NoteOffEvent(tick=360, channel=9, data=[42, 79]),
   midi.NoteOffEvent(tick=0, channel=9, data=[35, 79]),
   midi.NoteOnEvent(tick=120, channel=9, data=[40, 79]),
   midi.NoteOffEvent(tick=360, channel=9, data=[40, 79]),
   midi.NoteOnEvent(tick=120, channel=9, data=[46, 79]),
   midi.NoteOffEvent(tick=360, channel=9, data=[46, 79]),
   midi.NoteOnEvent(tick=120, channel=9, data=[35, 79]),
   midi.NoteOffEvent(tick=240, channel=9, data=[35, 79]),
   midi.NoteOnEvent(tick=0, channel=9, data=[35, 79]),
   midi.NoteOffEvent(tick=240, channel=9, data=[35, 79]),
   midi.NoteOnEvent(tick=0, channel=9, data=[35, 79]),
   midi.NoteOnEvent(tick=0, channel=9, data=[42, 79]),
   midi.NoteOffEvent(tick=240, channel=9, data=[35, 79]),
   midi.NoteOffEvent(tick=0, channel=9, data=[42, 79]),
   midi.NoteOnEvent(tick=0, channel=9, data=[35, 79]),
   midi.NoteOffEvent(tick=240, channel=9, data=[35, 79]),
   midi.NoteOnEvent(tick=0, channel=9, data=[40, 79]),
   midi.NoteOffEvent(tick=360, channel=9, data=[40, 79]),
   midi.NoteOnEvent(tick=120, channel=9, data=[42, 79]),
   midi.NoteOffEvent(tick=720, channel=9, data=[42, 79]),
   midi.NoteOnEvent(tick=240, channel=9, data=[42, 79]),
   midi.NoteOnEvent(tick=0, channel=9, data=[35, 79]),
   midi.NoteOffEvent(tick=360, channel=9, data=[42, 79]),
   midi.NoteOffEvent(tick=0, channel=9, data=[35, 79]),
   midi.NoteOnEvent(tick=120, channel=9, data=[40, 79]),
   midi.NoteOffEvent(tick=360, channel=9, data=[40, 79]),
   midi.NoteOnEvent(tick=120, channel=9, data=[46, 79]),
   midi.NoteOffEvent(tick=360, channel=9, data=[46, 79]),
   midi.NoteOnEvent(tick=120, channel=9, data=[35, 79]),
   midi.NoteOffEvent(tick=240, channel=9, data=[35, 79]),
   midi.NoteOnEvent(tick=0, channel=9, data=[35, 79]),
   midi.NoteOffEvent(tick=240, channel=9, data=[35, 79]),
   midi.NoteOnEvent(tick=0, channel=9, data=[35, 79]),
   midi.NoteOnEvent(tick=0, channel=9, data=[42, 79]),
   midi.NoteOffEvent(tick=240, channel=9, data=[35, 79]),
   midi.NoteOffEvent(tick=0, channel=9, data=[42, 79]),
   midi.NoteOnEvent(tick=0, channel=9, data=[35, 79]),
   midi.NoteOffEvent(tick=240, channel=9, data=[35, 79]),
   midi.NoteOnEvent(tick=0, channel=9, data=[40, 79]),
   midi.NoteOffEvent(tick=360, channel=9, data=[40, 79]),
   midi.NoteOnEvent(tick=120, channel=9, data=[42, 79]),
   midi.NoteOffEvent(tick=360, channel=9, data=[42, 79]),
   midi.NoteOnEvent(tick=120, channel=9, data=[35, 79]),
   midi.NoteOffEvent(tick=720, channel=9, data=[35, 79]),
   midi.NoteOnEvent(tick=240, channel=9, data=[35, 79]),
   midi.NoteOffEvent(tick=720, channel=9, data=[35, 79]),
   midi.NoteOnEvent(tick=240, channel=9, data=[35, 79]),
   midi.NoteOffEvent(tick=240, channel=9, data=[35, 79]),
   midi.NoteOnEvent(tick=0, channel=9, data=[35, 79]),
   midi.NoteOffEvent(tick=240, channel=9, data=[35, 79]),
   midi.NoteOnEvent(tick=0, channel=9, data=[35, 79]),
   midi.NoteOnEvent(tick=0, channel=9, data=[42, 79]),
   midi.NoteOffEvent(tick=240, channel=9, data=[35, 79]),
   midi.NoteOffEvent(tick=0, channel=9, data=[42, 79]),
   midi.NoteOnEvent(tick=0, channel=9, data=[35, 79]),
   midi.NoteOffEvent(tick=240, channel=9, data=[35, 79]),
   midi.NoteOnEvent(tick=0, channel=9, data=[40, 79]),
   midi.NoteOffEvent(tick=360, channel=9, data=[40, 79]),
   midi.NoteOnEvent(tick=120, channel=9, data=[42, 79]),
   midi.NoteOffEvent(tick=720, channel=9, data=[42, 79]),
   midi.NoteOnEvent(tick=240, channel=9, data=[42, 79]),
   midi.NoteOnEvent(tick=0, channel=9, data=[35, 79]),
   midi.NoteOffEvent(tick=360, channel=9, data=[42, 79]),
   midi.NoteOffEvent(tick=0, channel=9, data=[35, 79]),
   midi.NoteOnEvent(tick=120, channel=9, data=[40, 79]),
   midi.NoteOffEvent(tick=360, channel=9, data=[40, 79]),
   midi.NoteOnEvent(tick=120, channel=9, data=[46, 79]),
   midi.NoteOffEvent(tick=360, channel=9, data=[46, 79]),
   midi.NoteOnEvent(tick=120, channel=9, data=[35, 79]),
   midi.NoteOffEvent(tick=240, channel=9, data=[35, 79]),
   midi.NoteOnEvent(tick=0, channel=9, data=[35, 79]),
   midi.NoteOffEvent(tick=240, channel=9, data=[35, 79]),
   midi.NoteOnEvent(tick=0, channel=9, data=[35, 79]),
   midi.NoteOnEvent(tick=0, channel=9, data=[42, 79]),
   midi.NoteOffEvent(tick=240, channel=9, data=[35, 79]),
   midi.NoteOffEvent(tick=0, channel=9, data=[42, 79]),
   midi.NoteOnEvent(tick=0, channel=9, data=[35, 79]),
   midi.NoteOffEvent(tick=240, channel=9, data=[35, 79]),
   midi.NoteOnEvent(tick=0, channel=9, data=[40, 79]),
   midi.NoteOffEvent(tick=360, channel=9, data=[40, 79]),
   midi.NoteOnEvent(tick=120, channel=9, data=[42, 79]),
   midi.NoteOffEvent(tick=720, channel=9, data=[42, 79]),
   midi.NoteOnEvent(tick=240, channel=9, data=[35, 79]),
   midi.NoteOnEvent(tick=0, channel=9, data=[42, 79]),
   midi.NoteOffEvent(tick=360, channel=9, data=[35, 79]),
   midi.NoteOffEvent(tick=0, channel=9, data=[42, 79]),
   midi.NoteOnEvent(tick=120, channel=9, data=[40, 79]),
   midi.NoteOffEvent(tick=360, channel=9, data=[40, 79]),
   midi.NoteOnEvent(tick=120, channel=9, data=[46, 79]),
   midi.NoteOffEvent(tick=360, channel=9, data=[46, 79]),
   midi.NoteOnEvent(tick=120, channel=9, data=[35, 79]),
   midi.NoteOffEvent(tick=240, channel=9, data=[35, 79]),
   midi.NoteOnEvent(tick=0, channel=9, data=[35, 79]),
   midi.NoteOffEvent(tick=240, channel=9, data=[35, 79]),
   midi.NoteOnEvent(tick=0, channel=9, data=[42, 79]),
   midi.NoteOnEvent(tick=0, channel=9, data=[35, 79]),
   midi.NoteOffEvent(tick=240, channel=9, data=[42, 79]),
   midi.NoteOffEvent(tick=0, channel=9, data=[35, 79]),
   midi.NoteOnEvent(tick=0, channel=9, data=[35, 79]),
   midi.NoteOffEvent(tick=240, channel=9, data=[35, 79]),
   midi.NoteOnEvent(tick=0, channel=9, data=[40, 79]),
   midi.NoteOffEvent(tick=360, channel=9, data=[40, 79]),
   midi.NoteOnEvent(tick=120, channel=9, data=[42, 79]),
   midi.NoteOffEvent(tick=720, channel=9, data=[42, 79]),
   midi.NoteOnEvent(tick=240, channel=9, data=[42, 79]),
   midi.NoteOnEvent(tick=0, channel=9, data=[35, 79]),
   midi.NoteOffEvent(tick=360, channel=9, data=[42, 79]),
   midi.NoteOffEvent(tick=0, channel=9, data=[35, 79]),
   midi.NoteOnEvent(tick=120, channel=9, data=[40, 79]),
   midi.NoteOffEvent(tick=360, channel=9, data=[40, 79]),
   midi.NoteOnEvent(tick=120, channel=9, data=[46, 79]),
   midi.NoteOffEvent(tick=360, channel=9, data=[46, 79]),
   midi.NoteOnEvent(tick=120, channel=9, data=[35, 79]),
   midi.NoteOffEvent(tick=240, channel=9, data=[35, 79]),
   midi.NoteOnEvent(tick=0, channel=9, data=[35, 79]),
   midi.NoteOffEvent(tick=240, channel=9, data=[35, 79]),
   midi.NoteOnEvent(tick=0, channel=9, data=[42, 79]),
   midi.NoteOnEvent(tick=0, channel=9, data=[35, 79]),
   midi.NoteOffEvent(tick=240, channel=9, data=[42, 79]),
   midi.NoteOffEvent(tick=0, channel=9, data=[35, 79]),
   midi.NoteOnEvent(tick=0, channel=9, data=[35, 79]),
   midi.NoteOffEvent(tick=240, channel=9, data=[35, 79]),
   midi.NoteOnEvent(tick=0, channel=9, data=[40, 79]),
   midi.NoteOffEvent(tick=360, channel=9, data=[40, 79]),
   midi.NoteOnEvent(tick=120, channel=9, data=[42, 79]),
   midi.NoteOffEvent(tick=720, channel=9, data=[42, 79]),
   midi.NoteOnEvent(tick=240, channel=9, data=[42, 79]),
   midi.NoteOnEvent(tick=0, channel=9, data=[35, 79]),
   midi.NoteOffEvent(tick=360, channel=9, data=[42, 79]),
   midi.NoteOffEvent(tick=0, channel=9, data=[35, 79]),
   midi.NoteOnEvent(tick=120, channel=9, data=[40, 79]),
   midi.NoteOffEvent(tick=240, channel=9, data=[40, 79]),
   midi.NoteOnEvent(tick=0, channel=9, data=[40, 79]),
   midi.NoteOffEvent(tick=240, channel=9, data=[40, 79]),
   midi.NoteOnEvent(tick=0, channel=9, data=[46, 79]),
   midi.NoteOffEvent(tick=360, channel=9, data=[46, 79]),
   midi.NoteOnEvent(tick=120, channel=9, data=[35, 79]),
   midi.NoteOffEvent(tick=240, channel=9, data=[35, 79]),
   midi.NoteOnEvent(tick=0, channel=9, data=[35, 79]),
   midi.NoteOffEvent(tick=240, channel=9, data=[35, 79]),
   midi.NoteOnEvent(tick=0, channel=9, data=[35, 79]),
   midi.NoteOnEvent(tick=0, channel=9, data=[42, 79]),
   midi.NoteOffEvent(tick=240, channel=9, data=[35, 79]),
   midi.NoteOffEvent(tick=0, channel=9, data=[42, 79]),
   midi.NoteOnEvent(tick=0, channel=9, data=[35, 79]),
   midi.NoteOffEvent(tick=240, channel=9, data=[35, 79]),
   midi.NoteOnEvent(tick=0, channel=9, data=[40, 79]),
   midi.NoteOffEvent(tick=360, channel=9, data=[40, 79]),
   midi.NoteOnEvent(tick=120, channel=9, data=[42, 79]),
   midi.NoteOffEvent(tick=720, channel=9, data=[42, 79]),
   midi.NoteOnEvent(tick=240, channel=9, data=[42, 79]),
   midi.NoteOnEvent(tick=0, channel=9, data=[35, 79]),
   midi.NoteOffEvent(tick=360, channel=9, data=[42, 79]),
   midi.NoteOffEvent(tick=0, channel=9, data=[35, 79]),
   midi.NoteOnEvent(tick=120, channel=9, data=[40, 79]),
   midi.NoteOffEvent(tick=360, channel=9, data=[40, 79]),
   midi.NoteOnEvent(tick=120, channel=9, data=[46, 79]),
   midi.NoteOffEvent(tick=360, channel=9, data=[46, 79]),
   midi.NoteOnEvent(tick=120, channel=9, data=[35, 79]),
   midi.NoteOffEvent(tick=240, channel=9, data=[35, 79]),
   midi.NoteOnEvent(tick=0, channel=9, data=[35, 79]),
   midi.NoteOffEvent(tick=240, channel=9, data=[35, 79]),
   midi.NoteOnEvent(tick=0, channel=9, data=[42, 79]),
   midi.NoteOnEvent(tick=0, channel=9, data=[35, 79]),
   midi.NoteOffEvent(tick=240, channel=9, data=[42, 79]),
   midi.NoteOffEvent(tick=0, channel=9, data=[35, 79]),
   midi.NoteOnEvent(tick=0, channel=9, data=[35, 79]),
   midi.NoteOffEvent(tick=240, channel=9, data=[35, 79]),
   midi.NoteOnEvent(tick=0, channel=9, data=[40, 79]),
   midi.NoteOffEvent(tick=360, channel=9, data=[40, 79]),
   midi.NoteOnEvent(tick=120, channel=9, data=[42, 79]),
   midi.NoteOffEvent(tick=720, channel=9, data=[42, 79]),
   midi.NoteOnEvent(tick=240, channel=9, data=[42, 79]),
   midi.NoteOnEvent(tick=0, channel=9, data=[35, 79]),
   midi.NoteOffEvent(tick=360, channel=9, data=[42, 79]),
   midi.NoteOffEvent(tick=0, channel=9, data=[35, 79]),
   midi.NoteOnEvent(tick=120, channel=9, data=[40, 79]),
   midi.NoteOffEvent(tick=360, channel=9, data=[40, 79]),
   midi.NoteOnEvent(tick=120, channel=9, data=[46, 79]),
   midi.NoteOffEvent(tick=360, channel=9, data=[46, 79]),
   midi.NoteOnEvent(tick=120, channel=9, data=[35, 79]),
   midi.NoteOffEvent(tick=240, channel=9, data=[35, 79]),
   midi.NoteOnEvent(tick=0, channel=9, data=[35, 79]),
   midi.NoteOffEvent(tick=240, channel=9, data=[35, 79]),
   midi.NoteOnEvent(tick=0, channel=9, data=[42, 79]),
   midi.NoteOnEvent(tick=0, channel=9, data=[35, 79]),
   midi.NoteOffEvent(tick=240, channel=9, data=[42, 79]),
   midi.NoteOffEvent(tick=0, channel=9, data=[35, 79]),
   midi.NoteOnEvent(tick=0, channel=9, data=[35, 79]),
   midi.NoteOffEvent(tick=240, channel=9, data=[35, 79]),
   midi.NoteOnEvent(tick=0, channel=9, data=[40, 79]),
   midi.NoteOffEvent(tick=360, channel=9, data=[40, 79]),
   midi.NoteOnEvent(tick=120, channel=9, data=[42, 79]),
   midi.NoteOffEvent(tick=720, channel=9, data=[42, 79]),
   midi.NoteOnEvent(tick=240, channel=9, data=[42, 79]),
   midi.NoteOnEvent(tick=0, channel=9, data=[35, 79]),
   midi.NoteOffEvent(tick=360, channel=9, data=[42, 79]),
   midi.NoteOffEvent(tick=0, channel=9, data=[35, 79]),
   midi.NoteOnEvent(tick=120, channel=9, data=[40, 79]),
   midi.NoteOffEvent(tick=360, channel=9, data=[40, 79]),
   midi.NoteOnEvent(tick=120, channel=9, data=[46, 79]),
   midi.NoteOffEvent(tick=360, channel=9, data=[46, 79]),
   midi.NoteOnEvent(tick=120, channel=9, data=[35, 79]),
   midi.NoteOffEvent(tick=240, channel=9, data=[35, 79]),
   midi.NoteOnEvent(tick=0, channel=9, data=[35, 79]),
   midi.NoteOffEvent(tick=240, channel=9, data=[35, 79]),
   midi.NoteOnEvent(tick=0, channel=9, data=[42, 79]),
   midi.NoteOnEvent(tick=0, channel=9, data=[35, 79]),
   midi.NoteOffEvent(tick=240, channel=9, data=[42, 79]),
   midi.NoteOffEvent(tick=0, channel=9, data=[35, 79]),
   midi.NoteOnEvent(tick=0, channel=9, data=[35, 79]),
   midi.NoteOffEvent(tick=240, channel=9, data=[35, 79]),
   midi.NoteOnEvent(tick=0, channel=9, data=[40, 79]),
   midi.NoteOffEvent(tick=360, channel=9, data=[40, 79]),
   midi.NoteOnEvent(tick=120, channel=9, data=[42, 79]),
   midi.NoteOffEvent(tick=720, channel=9, data=[42, 79]),
   midi.NoteOnEvent(tick=240, channel=9, data=[35, 79]),
   midi.NoteOnEvent(tick=0, channel=9, data=[42, 79]),
   midi.NoteOffEvent(tick=360, channel=9, data=[35, 79]),
   midi.NoteOffEvent(tick=0, channel=9, data=[42, 79]),
   midi.NoteOnEvent(tick=120, channel=9, data=[40, 79]),
   midi.NoteOffEvent(tick=240, channel=9, data=[40, 79]),
   midi.NoteOnEvent(tick=0, channel=9, data=[40, 79]),
   midi.NoteOffEvent(tick=240, channel=9, data=[40, 79]),
   midi.NoteOnEvent(tick=0, channel=9, data=[46, 79]),
   midi.NoteOffEvent(tick=360, channel=9, data=[46, 79]),
   midi.NoteOnEvent(tick=120, channel=9, data=[35, 79]),
   midi.NoteOffEvent(tick=240, channel=9, data=[35, 79]),
   midi.NoteOnEvent(tick=0, channel=9, data=[35, 79]),
   midi.NoteOffEvent(tick=240, channel=9, data=[35, 79]),
   midi.NoteOnEvent(tick=0, channel=9, data=[42, 79]),
   midi.NoteOnEvent(tick=0, channel=9, data=[35, 79]),
   midi.NoteOffEvent(tick=240, channel=9, data=[42, 79]),
   midi.NoteOffEvent(tick=0, channel=9, data=[35, 79]),
   midi.NoteOnEvent(tick=0, channel=9, data=[35, 79]),
   midi.NoteOffEvent(tick=240, channel=9, data=[35, 79]),
   midi.NoteOnEvent(tick=0, channel=9, data=[40, 79]),
   midi.NoteOffEvent(tick=360, channel=9, data=[40, 79]),
   midi.NoteOnEvent(tick=120, channel=9, data=[42, 79]),
   midi.NoteOffEvent(tick=720, channel=9, data=[42, 79]),
   midi.NoteOnEvent(tick=240, channel=9, data=[42, 79]),
   midi.NoteOnEvent(tick=0, channel=9, data=[35, 79]),
   midi.NoteOffEvent(tick=360, channel=9, data=[42, 79]),
   midi.NoteOffEvent(tick=0, channel=9, data=[35, 79]),
   midi.NoteOnEvent(tick=120, channel=9, data=[40, 79]),
   midi.NoteOffEvent(tick=360, channel=9, data=[40, 79]),
   midi.NoteOnEvent(tick=120, channel=9, data=[46, 79]),
   midi.NoteOffEvent(tick=360, channel=9, data=[46, 79]),
   midi.NoteOnEvent(tick=120, channel=9, data=[35, 79]),
   midi.NoteOffEvent(tick=240, channel=9, data=[35, 79]),
   midi.NoteOnEvent(tick=0, channel=9, data=[35, 79]),
   midi.NoteOffEvent(tick=240, channel=9, data=[35, 79]),
   midi.NoteOnEvent(tick=0, channel=9, data=[42, 79]),
   midi.NoteOnEvent(tick=0, channel=9, data=[35, 79]),
   midi.NoteOffEvent(tick=240, channel=9, data=[42, 79]),
   midi.NoteOffEvent(tick=0, channel=9, data=[35, 79]),
   midi.NoteOnEvent(tick=0, channel=9, data=[35, 79]),
   midi.NoteOffEvent(tick=240, channel=9, data=[35, 79]),
   midi.NoteOnEvent(tick=0, channel=9, data=[40, 79]),
   midi.NoteOffEvent(tick=360, channel=9, data=[40, 79]),
   midi.NoteOnEvent(tick=120, channel=9, data=[42, 79]),
   midi.NoteOffEvent(tick=720, channel=9, data=[42, 79]),
   midi.NoteOnEvent(tick=240, channel=9, data=[42, 79]),
   midi.NoteOnEvent(tick=0, channel=9, data=[35, 79]),
   midi.NoteOffEvent(tick=360, channel=9, data=[42, 79]),
   midi.NoteOffEvent(tick=0, channel=9, data=[35, 79]),
   midi.NoteOnEvent(tick=120, channel=9, data=[40, 79]),
   midi.NoteOffEvent(tick=360, channel=9, data=[40, 79]),
   midi.NoteOnEvent(tick=120, channel=9, data=[46, 79]),
   midi.NoteOffEvent(tick=360, channel=9, data=[46, 79]),
   midi.NoteOnEvent(tick=120, channel=9, data=[35, 79]),
   midi.NoteOffEvent(tick=240, channel=9, data=[35, 79]),
   midi.NoteOnEvent(tick=0, channel=9, data=[35, 79]),
   midi.NoteOffEvent(tick=240, channel=9, data=[35, 79]),
   midi.NoteOnEvent(tick=0, channel=9, data=[42, 79]),
   midi.NoteOnEvent(tick=0, channel=9, data=[35, 79]),
   midi.NoteOffEvent(tick=240, channel=9, data=[42, 79]),
   midi.NoteOffEvent(tick=0, channel=9, data=[35, 79]),
   midi.NoteOnEvent(tick=0, channel=9, data=[35, 79]),
   midi.NoteOffEvent(tick=240, channel=9, data=[35, 79]),
   midi.NoteOnEvent(tick=0, channel=9, data=[40, 79]),
   midi.NoteOffEvent(tick=360, channel=9, data=[40, 79]),
   midi.NoteOnEvent(tick=120, channel=9, data=[42, 79]),
   midi.NoteOffEvent(tick=240, channel=9, data=[42, 79]),
   midi.NoteOnEvent(tick=0, channel=9, data=[40, 79]),
   midi.NoteOffEvent(tick=600, channel=9, data=[40, 79]),
   midi.NoteOnEvent(tick=120, channel=9, data=[35, 79]),
   midi.NoteOnEvent(tick=0, channel=9, data=[42, 79]),
   midi.NoteOffEvent(tick=360, channel=9, data=[35, 79]),
   midi.NoteOffEvent(tick=0, channel=9, data=[42, 79]),
   midi.NoteOnEvent(tick=120, channel=9, data=[40, 79]),
   midi.NoteOffEvent(tick=360, channel=9, data=[40, 79]),
   midi.NoteOnEvent(tick=120, channel=9, data=[46, 79]),
   midi.NoteOffEvent(tick=360, channel=9, data=[46, 79]),
   midi.NoteOnEvent(tick=120, channel=9, data=[46, 79]),
   midi.NoteOnEvent(tick=0, channel=9, data=[35, 79]),
   midi.NoteOffEvent(tick=240, channel=9, data=[46, 79]),
   midi.NoteOffEvent(tick=0, channel=9, data=[35, 79]),
   midi.NoteOnEvent(tick=0, channel=9, data=[35, 79]),
   midi.NoteOffEvent(tick=240, channel=9, data=[35, 79]),
   midi.NoteOnEvent(tick=0, channel=9, data=[42, 79]),
   midi.NoteOnEvent(tick=0, channel=9, data=[35, 79]),
   midi.NoteOffEvent(tick=240, channel=9, data=[42, 79]),
   midi.NoteOffEvent(tick=0, channel=9, data=[35, 79]),
   midi.NoteOnEvent(tick=0, channel=9, data=[35, 79]),
   midi.NoteOffEvent(tick=240, channel=9, data=[35, 79]),
   midi.NoteOnEvent(tick=0, channel=9, data=[40, 79]),
   midi.NoteOffEvent(tick=360, channel=9, data=[40, 79]),
   midi.NoteOnEvent(tick=120, channel=9, data=[42, 79]),
   midi.NoteOffEvent(tick=240, channel=9, data=[42, 79]),
   midi.NoteOnEvent(tick=0, channel=9, data=[40, 79]),
   midi.NoteOffEvent(tick=240, channel=9, data=[40, 79]),
   midi.NoteOnEvent(tick=0, channel=9, data=[40, 79]),
   midi.NoteOffEvent(tick=240, channel=9, data=[40, 79]),
   midi.NoteOnEvent(tick=0, channel=9, data=[40, 79]),
   midi.NoteOffEvent(tick=240, channel=9, data=[40, 79]),
   midi.NoteOnEvent(tick=0, channel=9, data=[40, 79]),
   midi.NoteOffEvent(tick=240, channel=9, data=[40, 79]),
   midi.NoteOnEvent(tick=0, channel=9, data=[40, 79]),
   midi.NoteOffEvent(tick=240, channel=9, data=[40, 79]),
   midi.NoteOnEvent(tick=0, channel=9, data=[40, 79]),
   midi.NoteOffEvent(tick=240, channel=9, data=[40, 79]),
   midi.NoteOnEvent(tick=0, channel=9, data=[40, 79]),
   midi.NoteOffEvent(tick=240, channel=9, data=[40, 79]),
   midi.NoteOnEvent(tick=0, channel=9, data=[43, 79]),
   midi.NoteOffEvent(tick=240, channel=9, data=[43, 79]),
   midi.NoteOnEvent(tick=0, channel=9, data=[41, 79]),
   midi.NoteOffEvent(tick=240, channel=9, data=[41, 79]),
   midi.NoteOnEvent(tick=0, channel=9, data=[35, 79]),
   midi.NoteOnEvent(tick=0, channel=9, data=[49, 79]),
   midi.NoteOffEvent(tick=360, channel=9, data=[35, 79]),
   midi.NoteOffEvent(tick=0, channel=9, data=[49, 79]),
   midi.NoteOnEvent(tick=120, channel=9, data=[46, 79]),
   midi.NoteOffEvent(tick=240, channel=9, data=[46, 79]),
   midi.NoteOnEvent(tick=0, channel=9, data=[35, 79]),
   midi.NoteOffEvent(tick=240, channel=9, data=[35, 79]),
   midi.NoteOnEvent(tick=0, channel=9, data=[46, 79]),
   midi.NoteOnEvent(tick=0, channel=9, data=[40, 79]),
   midi.NoteOffEvent(tick=360, channel=9, data=[46, 79]),
   midi.NoteOffEvent(tick=0, channel=9, data=[40, 79]),
   midi.NoteOnEvent(tick=120, channel=9, data=[46, 79]),
   midi.NoteOffEvent(tick=240, channel=9, data=[46, 79]),
   midi.NoteOnEvent(tick=0, channel=9, data=[40, 79]),
   midi.NoteOffEvent(tick=240, channel=9, data=[40, 79]),
   midi.NoteOnEvent(tick=0, channel=9, data=[46, 79]),
   midi.NoteOffEvent(tick=240, channel=9, data=[46, 79]),
   midi.NoteOnEvent(tick=0, channel=9, data=[35, 79]),
   midi.NoteOffEvent(tick=240, channel=9, data=[35, 79]),
   midi.NoteOnEvent(tick=0, channel=9, data=[46, 79]),
   midi.NoteOnEvent(tick=0, channel=9, data=[35, 79]),
   midi.NoteOffEvent(tick=240, channel=9, data=[46, 79]),
   midi.NoteOffEvent(tick=0, channel=9, data=[35, 79]),
   midi.NoteOnEvent(tick=0, channel=9, data=[35, 79]),
   midi.NoteOffEvent(tick=240, channel=9, data=[35, 79]),
   midi.NoteOnEvent(tick=0, channel=9, data=[46, 79]),
   midi.NoteOnEvent(tick=0, channel=9, data=[40, 79]),
   midi.NoteOffEvent(tick=360, channel=9, data=[46, 79]),
   midi.NoteOffEvent(tick=0, channel=9, data=[40, 79]),
   midi.NoteOnEvent(tick=120, channel=9, data=[46, 79]),
   midi.NoteOffEvent(tick=360, channel=9, data=[46, 79]),
   midi.NoteOnEvent(tick=120, channel=9, data=[49, 79]),
   midi.NoteOnEvent(tick=0, channel=9, data=[35, 79]),
   midi.NoteOffEvent(tick=360, channel=9, data=[49, 79]),
   midi.NoteOffEvent(tick=0, channel=9, data=[35, 79]),
   midi.NoteOnEvent(tick=120, channel=9, data=[46, 79]),
   midi.NoteOffEvent(tick=240, channel=9, data=[46, 79]),
   midi.NoteOnEvent(tick=0, channel=9, data=[35, 79]),
   midi.NoteOffEvent(tick=240, channel=9, data=[35, 79]),
   midi.NoteOnEvent(tick=0, channel=9, data=[40, 79]),
   midi.NoteOnEvent(tick=0, channel=9, data=[46, 79]),
   midi.NoteOffEvent(tick=360, channel=9, data=[40, 79]),
   midi.NoteOffEvent(tick=0, channel=9, data=[46, 79]),
   midi.NoteOnEvent(tick=120, channel=9, data=[46, 79]),
   midi.NoteOffEvent(tick=240, channel=9, data=[46, 79]),
   midi.NoteOnEvent(tick=0, channel=9, data=[40, 79]),
   midi.NoteOffEvent(tick=240, channel=9, data=[40, 79]),
   midi.NoteOnEvent(tick=0, channel=9, data=[46, 79]),
   midi.NoteOffEvent(tick=240, channel=9, data=[46, 79]),
   midi.NoteOnEvent(tick=0, channel=9, data=[35, 79]),
   midi.NoteOffEvent(tick=240, channel=9, data=[35, 79]),
   midi.NoteOnEvent(tick=0, channel=9, data=[46, 79]),
   midi.NoteOnEvent(tick=0, channel=9, data=[35, 79]),
   midi.NoteOffEvent(tick=240, channel=9, data=[46, 79]),
   midi.NoteOffEvent(tick=0, channel=9, data=[35, 79]),
   midi.NoteOnEvent(tick=0, channel=9, data=[35, 79]),
   midi.NoteOffEvent(tick=240, channel=9, data=[35, 79]),
   midi.NoteOnEvent(tick=0, channel=9, data=[40, 79]),
   midi.NoteOnEvent(tick=0, channel=9, data=[46, 79]),
   midi.NoteOffEvent(tick=240, channel=9, data=[40, 79]),
   midi.NoteOffEvent(tick=0, channel=9, data=[46, 79]),
   midi.NoteOnEvent(tick=0, channel=9, data=[35, 79]),
   midi.NoteOffEvent(tick=240, channel=9, data=[35, 79]),
   midi.NoteOnEvent(tick=0, channel=9, data=[46, 79]),
   midi.NoteOffEvent(tick=360, channel=9, data=[46, 79]),
   midi.NoteOnEvent(tick=120, channel=9, data=[46, 79]),
   midi.NoteOnEvent(tick=0, channel=9, data=[35, 79]),
   midi.NoteOffEvent(tick=360, channel=9, data=[46, 79]),
   midi.NoteOffEvent(tick=0, channel=9, data=[35, 79]),
   midi.NoteOnEvent(tick=120, channel=9, data=[46, 79]),
   midi.NoteOffEvent(tick=240, channel=9, data=[46, 79]),
   midi.NoteOnEvent(tick=0, channel=9, data=[35, 79]),
   midi.NoteOffEvent(tick=240, channel=9, data=[35, 79]),
   midi.NoteOnEvent(tick=0, channel=9, data=[46, 79]),
   midi.NoteOnEvent(tick=0, channel=9, data=[40, 79]),
   midi.NoteOffEvent(tick=360, channel=9, data=[46, 79]),
   midi.NoteOffEvent(tick=0, channel=9, data=[40, 79]),
   midi.NoteOnEvent(tick=120, channel=9, data=[46, 79]),
   midi.NoteOffEvent(tick=240, channel=9, data=[46, 79]),
   midi.NoteOnEvent(tick=0, channel=9, data=[40, 79]),
   midi.NoteOffEvent(tick=240, channel=9, data=[40, 79]),
   midi.NoteOnEvent(tick=0, channel=9, data=[46, 79]),
   midi.NoteOffEvent(tick=240, channel=9, data=[46, 79]),
   midi.NoteOnEvent(tick=0, channel=9, data=[35, 79]),
   midi.NoteOffEvent(tick=240, channel=9, data=[35, 79]),
   midi.NoteOnEvent(tick=0, channel=9, data=[46, 79]),
   midi.NoteOnEvent(tick=0, channel=9, data=[35, 79]),
   midi.NoteOffEvent(tick=240, channel=9, data=[46, 79]),
   midi.NoteOffEvent(tick=0, channel=9, data=[35, 79]),
   midi.NoteOnEvent(tick=0, channel=9, data=[35, 79]),
   midi.NoteOffEvent(tick=240, channel=9, data=[35, 79]),
   midi.NoteOnEvent(tick=0, channel=9, data=[40, 79]),
   midi.NoteOnEvent(tick=0, channel=9, data=[46, 79]),
   midi.NoteOffEvent(tick=360, channel=9, data=[40, 79]),
   midi.NoteOffEvent(tick=0, channel=9, data=[46, 79]),
   midi.NoteOnEvent(tick=120, channel=9, data=[46, 79]),
   midi.NoteOffEvent(tick=360, channel=9, data=[46, 79]),
   midi.NoteOnEvent(tick=120, channel=9, data=[49, 79]),
   midi.NoteOnEvent(tick=0, channel=9, data=[35, 79]),
   midi.NoteOffEvent(tick=360, channel=9, data=[49, 79]),
   midi.NoteOffEvent(tick=0, channel=9, data=[35, 79]),
   midi.NoteOnEvent(tick=120, channel=9, data=[46, 79]),
   midi.NoteOffEvent(tick=240, channel=9, data=[46, 79]),
   midi.NoteOnEvent(tick=0, channel=9, data=[35, 79]),
   midi.NoteOffEvent(tick=240, channel=9, data=[35, 79]),
   midi.NoteOnEvent(tick=0, channel=9, data=[46, 79]),
   midi.NoteOnEvent(tick=0, channel=9, data=[40, 79]),
   midi.NoteOffEvent(tick=360, channel=9, data=[46, 79]),
   midi.NoteOffEvent(tick=0, channel=9, data=[40, 79]),
   midi.NoteOnEvent(tick=120, channel=9, data=[46, 79]),
   midi.NoteOffEvent(tick=240, channel=9, data=[46, 79]),
   midi.NoteOnEvent(tick=0, channel=9, data=[40, 79]),
   midi.NoteOffEvent(tick=240, channel=9, data=[40, 79]),
   midi.NoteOnEvent(tick=0, channel=9, data=[46, 79]),
   midi.NoteOffEvent(tick=240, channel=9, data=[46, 79]),
   midi.NoteOnEvent(tick=0, channel=9, data=[35, 79]),
   midi.NoteOffEvent(tick=240, channel=9, data=[35, 79]),
   midi.NoteOnEvent(tick=0, channel=9, data=[46, 79]),
   midi.NoteOnEvent(tick=0, channel=9, data=[35, 79]),
   midi.NoteOffEvent(tick=240, channel=9, data=[46, 79]),
   midi.NoteOffEvent(tick=0, channel=9, data=[35, 79]),
   midi.NoteOnEvent(tick=0, channel=9, data=[35, 79]),
   midi.NoteOffEvent(tick=240, channel=9, data=[35, 79]),
   midi.NoteOnEvent(tick=0, channel=9, data=[46, 79]),
   midi.NoteOnEvent(tick=0, channel=9, data=[40, 79]),
   midi.NoteOffEvent(tick=240, channel=9, data=[46, 79]),
   midi.NoteOffEvent(tick=0, channel=9, data=[40, 79]),
   midi.NoteOnEvent(tick=0, channel=9, data=[35, 79]),
   midi.NoteOffEvent(tick=240, channel=9, data=[35, 79]),
   midi.NoteOnEvent(tick=0, channel=9, data=[46, 79]),
   midi.NoteOffEvent(tick=360, channel=9, data=[46, 79]),
   midi.NoteOnEvent(tick=120, channel=9, data=[35, 79]),
   midi.NoteOnEvent(tick=0, channel=9, data=[49, 79]),
   midi.NoteOnEvent(tick=0, channel=9, data=[53, 79]),
   midi.NoteOffEvent(tick=360, channel=9, data=[35, 79]),
   midi.NoteOffEvent(tick=0, channel=9, data=[49, 79]),
   midi.NoteOffEvent(tick=0, channel=9, data=[53, 79]),
   midi.NoteOnEvent(tick=120, channel=9, data=[46, 79]),
   midi.NoteOffEvent(tick=240, channel=9, data=[46, 79]),
   midi.NoteOnEvent(tick=0, channel=9, data=[35, 79]),
   midi.NoteOffEvent(tick=240, channel=9, data=[35, 79]),
   midi.NoteOnEvent(tick=0, channel=9, data=[40, 79]),
   midi.NoteOnEvent(tick=0, channel=9, data=[46, 79]),
   midi.NoteOffEvent(tick=360, channel=9, data=[40, 79]),
   midi.NoteOffEvent(tick=0, channel=9, data=[46, 79]),
   midi.NoteOnEvent(tick=120, channel=9, data=[46, 79]),
   midi.NoteOffEvent(tick=240, channel=9, data=[46, 79]),
   midi.NoteOnEvent(tick=0, channel=9, data=[40, 79]),
   midi.NoteOffEvent(tick=240, channel=9, data=[40, 79]),
   midi.NoteOnEvent(tick=0, channel=9, data=[46, 79]),
   midi.NoteOffEvent(tick=240, channel=9, data=[46, 79]),
   midi.NoteOnEvent(tick=0, channel=9, data=[35, 79]),
   midi.NoteOffEvent(tick=240, channel=9, data=[35, 79]),
   midi.NoteOnEvent(tick=0, channel=9, data=[35, 79]),
   midi.NoteOnEvent(tick=0, channel=9, data=[46, 79]),
   midi.NoteOffEvent(tick=240, channel=9, data=[35, 79]),
   midi.NoteOffEvent(tick=0, channel=9, data=[46, 79]),
   midi.NoteOnEvent(tick=0, channel=9, data=[35, 79]),
   midi.NoteOffEvent(tick=240, channel=9, data=[35, 79]),
   midi.NoteOnEvent(tick=0, channel=9, data=[46, 79]),
   midi.NoteOnEvent(tick=0, channel=9, data=[40, 79]),
   midi.NoteOffEvent(tick=360, channel=9, data=[46, 79]),
   midi.NoteOffEvent(tick=0, channel=9, data=[40, 79]),
   midi.NoteOnEvent(tick=120, channel=9, data=[46, 79]),
   midi.NoteOffEvent(tick=360, channel=9, data=[46, 79]),
   midi.NoteOnEvent(tick=120, channel=9, data=[49, 79]),
   midi.NoteOnEvent(tick=0, channel=9, data=[35, 79]),
   midi.NoteOffEvent(tick=360, channel=9, data=[49, 79]),
   midi.NoteOffEvent(tick=0, channel=9, data=[35, 79]),
   midi.NoteOnEvent(tick=120, channel=9, data=[46, 79]),
   midi.NoteOffEvent(tick=240, channel=9, data=[46, 79]),
   midi.NoteOnEvent(tick=0, channel=9, data=[35, 79]),
   midi.NoteOffEvent(tick=240, channel=9, data=[35, 79]),
   midi.NoteOnEvent(tick=0, channel=9, data=[46, 79]),
   midi.NoteOnEvent(tick=0, channel=9, data=[40, 79]),
   midi.NoteOffEvent(tick=360, channel=9, data=[46, 79]),
   midi.NoteOffEvent(tick=0, channel=9, data=[40, 79]),
   midi.NoteOnEvent(tick=120, channel=9, data=[46, 79]),
   midi.NoteOffEvent(tick=240, channel=9, data=[46, 79]),
   midi.NoteOnEvent(tick=0, channel=9, data=[40, 79]),
   midi.NoteOffEvent(tick=240, channel=9, data=[40, 79]),
   midi.NoteOnEvent(tick=0, channel=9, data=[46, 79]),
   midi.NoteOffEvent(tick=240, channel=9, data=[46, 79]),
   midi.NoteOnEvent(tick=0, channel=9, data=[35, 79]),
   midi.NoteOffEvent(tick=240, channel=9, data=[35, 79]),
   midi.NoteOnEvent(tick=0, channel=9, data=[46, 79]),
   midi.NoteOnEvent(tick=0, channel=9, data=[35, 79]),
   midi.NoteOffEvent(tick=240, channel=9, data=[46, 79]),
   midi.NoteOffEvent(tick=0, channel=9, data=[35, 79]),
   midi.NoteOnEvent(tick=0, channel=9, data=[35, 79]),
   midi.NoteOffEvent(tick=240, channel=9, data=[35, 79]),
   midi.NoteOnEvent(tick=0, channel=9, data=[40, 79]),
   midi.NoteOnEvent(tick=0, channel=9, data=[46, 79]),
   midi.NoteOffEvent(tick=240, channel=9, data=[40, 79]),
   midi.NoteOffEvent(tick=0, channel=9, data=[46, 79]),
   midi.NoteOnEvent(tick=0, channel=9, data=[35, 79]),
   midi.NoteOffEvent(tick=240, channel=9, data=[35, 79]),
   midi.NoteOnEvent(tick=0, channel=9, data=[46, 79]),
   midi.NoteOffEvent(tick=360, channel=9, data=[46, 79]),
   midi.NoteOnEvent(tick=120, channel=9, data=[35, 79]),
   midi.NoteOnEvent(tick=0, channel=9, data=[46, 79]),
   midi.NoteOffEvent(tick=360, channel=9, data=[35, 79]),
   midi.NoteOffEvent(tick=0, channel=9, data=[46, 79]),
   midi.NoteOnEvent(tick=120, channel=9, data=[46, 79]),
   midi.NoteOffEvent(tick=240, channel=9, data=[46, 79]),
   midi.NoteOnEvent(tick=0, channel=9, data=[35, 79]),
   midi.NoteOffEvent(tick=240, channel=9, data=[35, 79]),
   midi.NoteOnEvent(tick=0, channel=9, data=[40, 79]),
   midi.NoteOnEvent(tick=0, channel=9, data=[46, 79]),
   midi.NoteOffEvent(tick=360, channel=9, data=[40, 79]),
   midi.NoteOffEvent(tick=0, channel=9, data=[46, 79]),
   midi.NoteOnEvent(tick=120, channel=9, data=[46, 79]),
   midi.NoteOffEvent(tick=240, channel=9, data=[46, 79]),
   midi.NoteOnEvent(tick=0, channel=9, data=[40, 79]),
   midi.NoteOffEvent(tick=240, channel=9, data=[40, 79]),
   midi.NoteOnEvent(tick=0, channel=9, data=[46, 79]),
   midi.NoteOffEvent(tick=240, channel=9, data=[46, 79]),
   midi.NoteOnEvent(tick=0, channel=9, data=[35, 79]),
   midi.NoteOffEvent(tick=240, channel=9, data=[35, 79]),
   midi.NoteOnEvent(tick=0, channel=9, data=[46, 79]),
   midi.NoteOnEvent(tick=0, channel=9, data=[35, 79]),
   midi.NoteOffEvent(tick=240, channel=9, data=[46, 79]),
   midi.NoteOffEvent(tick=0, channel=9, data=[35, 79]),
   midi.NoteOnEvent(tick=0, channel=9, data=[35, 79]),
   midi.NoteOffEvent(tick=240, channel=9, data=[35, 79]),
   midi.NoteOnEvent(tick=0, channel=9, data=[46, 79]),
   midi.NoteOnEvent(tick=0, channel=9, data=[40, 79]),
   midi.NoteOffEvent(tick=360, channel=9, data=[46, 79]),
   midi.NoteOffEvent(tick=0, channel=9, data=[40, 79]),
   midi.NoteOnEvent(tick=120, channel=9, data=[46, 79]),
   midi.NoteOffEvent(tick=360, channel=9, data=[46, 79]),
   midi.NoteOnEvent(tick=120, channel=9, data=[46, 79]),
   midi.NoteOnEvent(tick=0, channel=9, data=[35, 79]),
   midi.NoteOffEvent(tick=360, channel=9, data=[46, 79]),
   midi.NoteOffEvent(tick=0, channel=9, data=[35, 79]),
   midi.NoteOnEvent(tick=120, channel=9, data=[46, 79]),
   midi.NoteOffEvent(tick=240, channel=9, data=[46, 79]),
   midi.NoteOnEvent(tick=0, channel=9, data=[35, 79]),
   midi.NoteOffEvent(tick=240, channel=9, data=[35, 79]),
   midi.NoteOnEvent(tick=0, channel=9, data=[46, 79]),
   midi.NoteOnEvent(tick=0, channel=9, data=[40, 79]),
   midi.NoteOffEvent(tick=360, channel=9, data=[46, 79]),
   midi.NoteOffEvent(tick=0, channel=9, data=[40, 79]),
   midi.NoteOnEvent(tick=120, channel=9, data=[46, 79]),
   midi.NoteOffEvent(tick=240, channel=9, data=[46, 79]),
   midi.NoteOnEvent(tick=0, channel=9, data=[40, 79]),
   midi.NoteOffEvent(tick=240, channel=9, data=[40, 79]),
   midi.NoteOnEvent(tick=0, channel=9, data=[46, 79]),
   midi.NoteOffEvent(tick=240, channel=9, data=[46, 79]),
   midi.NoteOnEvent(tick=0, channel=9, data=[35, 79]),
   midi.NoteOffEvent(tick=240, channel=9, data=[35, 79]),
   midi.NoteOnEvent(tick=0, channel=9, data=[35, 79]),
   midi.NoteOnEvent(tick=0, channel=9, data=[46, 79]),
   midi.NoteOffEvent(tick=240, channel=9, data=[35, 79]),
   midi.NoteOffEvent(tick=0, channel=9, data=[46, 79]),
   midi.NoteOnEvent(tick=0, channel=9, data=[35, 79]),
   midi.NoteOffEvent(tick=240, channel=9, data=[35, 79]),
   midi.NoteOnEvent(tick=0, channel=9, data=[46, 79]),
   midi.NoteOnEvent(tick=0, channel=9, data=[40, 79]),
   midi.NoteOffEvent(tick=240, channel=9, data=[46, 79]),
   midi.NoteOffEvent(tick=0, channel=9, data=[40, 79]),
   midi.NoteOnEvent(tick=0, channel=9, data=[35, 79]),
   midi.NoteOffEvent(tick=240, channel=9, data=[35, 79]),
   midi.NoteOnEvent(tick=0, channel=9, data=[46, 79]),
   midi.NoteOffEvent(tick=360, channel=9, data=[46, 79]),
   midi.NoteOnEvent(tick=120, channel=9, data=[35, 79]),
   midi.NoteOnEvent(tick=0, channel=9, data=[46, 79]),
   midi.NoteOffEvent(tick=360, channel=9, data=[35, 79]),
   midi.NoteOffEvent(tick=0, channel=9, data=[46, 79]),
   midi.NoteOnEvent(tick=120, channel=9, data=[46, 79]),
   midi.NoteOffEvent(tick=240, channel=9, data=[46, 79]),
   midi.NoteOnEvent(tick=0, channel=9, data=[35, 79]),
   midi.NoteOffEvent(tick=240, channel=9, data=[35, 79]),
   midi.NoteOnEvent(tick=0, channel=9, data=[46, 79]),
   midi.NoteOnEvent(tick=0, channel=9, data=[40, 79]),
   midi.NoteOffEvent(tick=360, channel=9, data=[46, 79]),
   midi.NoteOffEvent(tick=0, channel=9, data=[40, 79]),
   midi.NoteOnEvent(tick=120, channel=9, data=[46, 79]),
   midi.NoteOffEvent(tick=240, channel=9, data=[46, 79]),
   midi.NoteOnEvent(tick=0, channel=9, data=[40, 79]),
   midi.NoteOffEvent(tick=240, channel=9, data=[40, 79]),
   midi.NoteOnEvent(tick=0, channel=9, data=[46, 79]),
   midi.NoteOffEvent(tick=240, channel=9, data=[46, 79]),
   midi.NoteOnEvent(tick=0, channel=9, data=[35, 79]),
   midi.NoteOffEvent(tick=240, channel=9, data=[35, 79]),
   midi.NoteOnEvent(tick=0, channel=9, data=[46, 79]),
   midi.NoteOnEvent(tick=0, channel=9, data=[40, 79]),
   midi.NoteOffEvent(tick=240, channel=9, data=[46, 79]),
   midi.NoteOffEvent(tick=0, channel=9, data=[40, 79]),
   midi.NoteOnEvent(tick=0, channel=9, data=[40, 79]),
   midi.NoteOffEvent(tick=240, channel=9, data=[40, 79]),
   midi.NoteOnEvent(tick=0, channel=9, data=[40, 79]),
   midi.NoteOffEvent(tick=240, channel=9, data=[40, 79]),
   midi.NoteOnEvent(tick=0, channel=9, data=[45, 79]),
   midi.NoteOffEvent(tick=240, channel=9, data=[45, 79]),
   midi.NoteOnEvent(tick=0, channel=9, data=[43, 79]),
   midi.NoteOffEvent(tick=240, channel=9, data=[43, 79]),
   midi.NoteOnEvent(tick=0, channel=9, data=[41, 79]),
   midi.NoteOffEvent(tick=240, channel=9, data=[41, 79]),
   midi.NoteOnEvent(tick=0, channel=9, data=[55, 79]),
   midi.NoteOnEvent(tick=0, channel=9, data=[42, 79]),
   midi.NoteOnEvent(tick=0, channel=9, data=[35, 79]),
   midi.NoteOffEvent(tick=360, channel=9, data=[55, 79]),
   midi.NoteOffEvent(tick=0, channel=9, data=[42, 79]),
   midi.NoteOffEvent(tick=0, channel=9, data=[35, 79]),
   midi.NoteOnEvent(tick=120, channel=9, data=[35, 79]),
   midi.NoteOnEvent(tick=0, channel=9, data=[42, 79]),
   midi.NoteOffEvent(tick=360, channel=9, data=[35, 79]),
   midi.NoteOffEvent(tick=0, channel=9, data=[42, 79]),
   midi.NoteOnEvent(tick=120, channel=9, data=[40, 79]),
   midi.NoteOnEvent(tick=0, channel=9, data=[42, 79]),
   midi.NoteOffEvent(tick=240, channel=9, data=[40, 79]),
   midi.NoteOffEvent(tick=0, channel=9, data=[42, 79]),
   midi.NoteOnEvent(tick=0, channel=9, data=[35, 79]),
   midi.NoteOffEvent(tick=240, channel=9, data=[35, 79]),
   midi.NoteOnEvent(tick=0, channel=9, data=[42, 79]),
   midi.NoteOffEvent(tick=360, channel=9, data=[42, 79]),
   midi.NoteOnEvent(tick=120, channel=9, data=[42, 79]),
   midi.NoteOffEvent(tick=360, channel=9, data=[42, 79]),
   midi.NoteOnEvent(tick=120, channel=9, data=[42, 79]),
   midi.NoteOffEvent(tick=360, channel=9, data=[42, 79]),
   midi.NoteOnEvent(tick=120, channel=9, data=[40, 79]),
   midi.NoteOnEvent(tick=0, channel=9, data=[42, 79]),
   midi.NoteOffEvent(tick=360, channel=9, data=[40, 79]),
   midi.NoteOffEvent(tick=0, channel=9, data=[42, 79]),
   midi.NoteOnEvent(tick=120, channel=9, data=[42, 79]),
   midi.NoteOffEvent(tick=360, channel=9, data=[42, 79]),
   midi.NoteOnEvent(tick=120, channel=9, data=[35, 79]),
   midi.NoteOnEvent(tick=0, channel=9, data=[42, 79]),
   midi.NoteOffEvent(tick=360, channel=9, data=[35, 79]),
   midi.NoteOffEvent(tick=0, channel=9, data=[42, 79]),
   midi.NoteOnEvent(tick=120, channel=9, data=[42, 79]),
   midi.NoteOnEvent(tick=0, channel=9, data=[35, 79]),
   midi.NoteOffEvent(tick=360, channel=9, data=[42, 79]),
   midi.NoteOffEvent(tick=0, channel=9, data=[35, 79]),
   midi.NoteOnEvent(tick=120, channel=9, data=[40, 79]),
   midi.NoteOnEvent(tick=0, channel=9, data=[42, 79]),
   midi.NoteOffEvent(tick=240, channel=9, data=[40, 79]),
   midi.NoteOffEvent(tick=0, channel=9, data=[42, 79]),
   midi.NoteOnEvent(tick=0, channel=9, data=[35, 79]),
   midi.NoteOffEvent(tick=240, channel=9, data=[35, 79]),
   midi.NoteOnEvent(tick=0, channel=9, data=[42, 79]),
   midi.NoteOffEvent(tick=360, channel=9, data=[42, 79]),
   midi.NoteOnEvent(tick=120, channel=9, data=[42, 79]),
   midi.NoteOffEvent(tick=360, channel=9, data=[42, 79]),
   midi.NoteOnEvent(tick=120, channel=9, data=[42, 79]),
   midi.NoteOffEvent(tick=240, channel=9, data=[42, 79]),
   midi.NoteOnEvent(tick=0, channel=9, data=[35, 79]),
   midi.NoteOffEvent(tick=240, channel=9, data=[35, 79]),
   midi.NoteOnEvent(tick=0, channel=9, data=[42, 79]),
   midi.NoteOnEvent(tick=0, channel=9, data=[40, 79]),
   midi.NoteOffEvent(tick=360, channel=9, data=[42, 79]),
   midi.NoteOffEvent(tick=0, channel=9, data=[40, 79]),
   midi.NoteOnEvent(tick=120, channel=9, data=[42, 79]),
   midi.NoteOffEvent(tick=360, channel=9, data=[42, 79]),
   midi.NoteOnEvent(tick=120, channel=9, data=[42, 79]),
   midi.NoteOnEvent(tick=0, channel=9, data=[35, 79]),
   midi.NoteOffEvent(tick=360, channel=9, data=[42, 79]),
   midi.NoteOffEvent(tick=0, channel=9, data=[35, 79]),
   midi.NoteOnEvent(tick=120, channel=9, data=[35, 79]),
   midi.NoteOnEvent(tick=0, channel=9, data=[42, 79]),
   midi.NoteOffEvent(tick=360, channel=9, data=[35, 79]),
   midi.NoteOffEvent(tick=0, channel=9, data=[42, 79]),
   midi.NoteOnEvent(tick=120, channel=9, data=[42, 79]),
   midi.NoteOnEvent(tick=0, channel=9, data=[40, 79]),
   midi.NoteOffEvent(tick=240, channel=9, data=[42, 79]),
   midi.NoteOffEvent(tick=0, channel=9, data=[40, 79]),
   midi.NoteOnEvent(tick=0, channel=9, data=[35, 79]),
   midi.NoteOffEvent(tick=240, channel=9, data=[35, 79]),
   midi.NoteOnEvent(tick=0, channel=9, data=[42, 79]),
   midi.NoteOffEvent(tick=360, channel=9, data=[42, 79]),
   midi.NoteOnEvent(tick=120, channel=9, data=[42, 79]),
   midi.NoteOffEvent(tick=360, channel=9, data=[42, 79]),
   midi.NoteOnEvent(tick=120, channel=9, data=[42, 79]),
   midi.NoteOffEvent(tick=360, channel=9, data=[42, 79]),
   midi.NoteOnEvent(tick=120, channel=9, data=[42, 79]),
   midi.NoteOnEvent(tick=0, channel=9, data=[40, 79]),
   midi.NoteOffEvent(tick=360, channel=9, data=[42, 79]),
   midi.NoteOffEvent(tick=0, channel=9, data=[40, 79]),
   midi.NoteOnEvent(tick=120, channel=9, data=[42, 79]),
   midi.NoteOffEvent(tick=360, channel=9, data=[42, 79]),
   midi.NoteOnEvent(tick=120, channel=9, data=[42, 79]),
   midi.NoteOnEvent(tick=0, channel=9, data=[35, 79]),
   midi.NoteOffEvent(tick=360, channel=9, data=[42, 79]),
   midi.NoteOffEvent(tick=0, channel=9, data=[35, 79]),
   midi.NoteOnEvent(tick=120, channel=9, data=[35, 79]),
   midi.NoteOnEvent(tick=0, channel=9, data=[42, 79]),
   midi.NoteOffEvent(tick=360, channel=9, data=[35, 79]),
   midi.NoteOffEvent(tick=0, channel=9, data=[42, 79]),
   midi.NoteOnEvent(tick=120, channel=9, data=[40, 79]),
   midi.NoteOnEvent(tick=0, channel=9, data=[42, 79]),
   midi.NoteOffEvent(tick=240, channel=9, data=[40, 79]),
   midi.NoteOffEvent(tick=0, channel=9, data=[42, 79]),
   midi.NoteOnEvent(tick=0, channel=9, data=[35, 79]),
   midi.NoteOffEvent(tick=240, channel=9, data=[35, 79]),
   midi.NoteOnEvent(tick=0, channel=9, data=[42, 79]),
   midi.NoteOffEvent(tick=360, channel=9, data=[42, 79]),
   midi.NoteOnEvent(tick=120, channel=9, data=[42, 79]),
   midi.NoteOffEvent(tick=360, channel=9, data=[42, 79]),
   midi.NoteOnEvent(tick=120, channel=9, data=[42, 79]),
   midi.NoteOffEvent(tick=360, channel=9, data=[42, 79]),
   midi.NoteOnEvent(tick=120, channel=9, data=[40, 79]),
   midi.NoteOffEvent(tick=240, channel=9, data=[40, 79]),
   midi.NoteOnEvent(tick=0, channel=9, data=[40, 79]),
   midi.NoteOffEvent(tick=240, channel=9, data=[40, 79]),
   midi.NoteOnEvent(tick=0, channel=9, data=[40, 79]),
   midi.NoteOffEvent(tick=240, channel=9, data=[40, 79]),
   midi.NoteOnEvent(tick=0, channel=9, data=[40, 79]),
   midi.NoteOffEvent(tick=240, channel=9, data=[40, 79]),
   midi.NoteOnEvent(tick=0, channel=9, data=[42, 79]),
   midi.NoteOnEvent(tick=0, channel=9, data=[35, 79]),
   midi.NoteOnEvent(tick=0, channel=9, data=[55, 79]),
   midi.NoteOffEvent(tick=360, channel=9, data=[42, 79]),
   midi.NoteOffEvent(tick=0, channel=9, data=[35, 79]),
   midi.NoteOffEvent(tick=0, channel=9, data=[55, 79]),
   midi.NoteOnEvent(tick=120, channel=9, data=[35, 79]),
   midi.NoteOnEvent(tick=0, channel=9, data=[42, 79]),
   midi.NoteOffEvent(tick=360, channel=9, data=[35, 79]),
   midi.NoteOffEvent(tick=0, channel=9, data=[42, 79]),
   midi.NoteOnEvent(tick=120, channel=9, data=[42, 79]),
   midi.NoteOnEvent(tick=0, channel=9, data=[40, 79]),
   midi.NoteOffEvent(tick=240, channel=9, data=[42, 79]),
   midi.NoteOffEvent(tick=0, channel=9, data=[40, 79]),
   midi.NoteOnEvent(tick=0, channel=9, data=[35, 79]),
   midi.NoteOffEvent(tick=240, channel=9, data=[35, 79]),
   midi.NoteOnEvent(tick=0, channel=9, data=[42, 79]),
   midi.NoteOffEvent(tick=360, channel=9, data=[42, 79]),
   midi.NoteOnEvent(tick=120, channel=9, data=[42, 79]),
   midi.NoteOffEvent(tick=360, channel=9, data=[42, 79]),
   midi.NoteOnEvent(tick=120, channel=9, data=[42, 79]),
   midi.NoteOffEvent(tick=240, channel=9, data=[42, 79]),
   midi.NoteOnEvent(tick=0, channel=9, data=[35, 79]),
   midi.NoteOffEvent(tick=240, channel=9, data=[35, 79]),
   midi.NoteOnEvent(tick=0, channel=9, data=[42, 79]),
   midi.NoteOnEvent(tick=0, channel=9, data=[40, 79]),
   midi.NoteOffEvent(tick=360, channel=9, data=[42, 79]),
   midi.NoteOffEvent(tick=0, channel=9, data=[40, 79]),
   midi.NoteOnEvent(tick=120, channel=9, data=[42, 79]),
   midi.NoteOffEvent(tick=360, channel=9, data=[42, 79]),
   midi.NoteOnEvent(tick=120, channel=9, data=[42, 79]),
   midi.NoteOnEvent(tick=0, channel=9, data=[35, 79]),
   midi.NoteOffEvent(tick=360, channel=9, data=[42, 79]),
   midi.NoteOffEvent(tick=0, channel=9, data=[35, 79]),
   midi.NoteOnEvent(tick=120, channel=9, data=[35, 79]),
   midi.NoteOnEvent(tick=0, channel=9, data=[42, 79]),
   midi.NoteOffEvent(tick=360, channel=9, data=[35, 79]),
   midi.NoteOffEvent(tick=0, channel=9, data=[42, 79]),
   midi.NoteOnEvent(tick=120, channel=9, data=[40, 79]),
   midi.NoteOnEvent(tick=0, channel=9, data=[42, 79]),
   midi.NoteOffEvent(tick=240, channel=9, data=[40, 79]),
   midi.NoteOffEvent(tick=0, channel=9, data=[42, 79]),
   midi.NoteOnEvent(tick=0, channel=9, data=[35, 79]),
   midi.NoteOffEvent(tick=240, channel=9, data=[35, 79]),
   midi.NoteOnEvent(tick=0, channel=9, data=[42, 79]),
   midi.NoteOffEvent(tick=360, channel=9, data=[42, 79]),
   midi.NoteOnEvent(tick=120, channel=9, data=[42, 79]),
   midi.NoteOffEvent(tick=360, channel=9, data=[42, 79]),
   midi.NoteOnEvent(tick=120, channel=9, data=[42, 79]),
   midi.NoteOffEvent(tick=360, channel=9, data=[42, 79]),
   midi.NoteOnEvent(tick=120, channel=9, data=[42, 79]),
   midi.NoteOnEvent(tick=0, channel=9, data=[40, 79]),
   midi.NoteOffEvent(tick=360, channel=9, data=[42, 79]),
   midi.NoteOffEvent(tick=0, channel=9, data=[40, 79]),
   midi.NoteOnEvent(tick=120, channel=9, data=[42, 79]),
   midi.NoteOffEvent(tick=360, channel=9, data=[42, 79]),
   midi.NoteOnEvent(tick=120, channel=9, data=[35, 79]),
   midi.NoteOnEvent(tick=0, channel=9, data=[42, 79]),
   midi.NoteOffEvent(tick=360, channel=9, data=[35, 79]),
   midi.NoteOffEvent(tick=0, channel=9, data=[42, 79]),
   midi.NoteOnEvent(tick=120, channel=9, data=[42, 79]),
   midi.NoteOnEvent(tick=0, channel=9, data=[35, 79]),
   midi.NoteOffEvent(tick=360, channel=9, data=[42, 79]),
   midi.NoteOffEvent(tick=0, channel=9, data=[35, 79]),
   midi.NoteOnEvent(tick=120, channel=9, data=[42, 79]),
   midi.NoteOnEvent(tick=0, channel=9, data=[40, 79]),
   midi.NoteOffEvent(tick=240, channel=9, data=[42, 79]),
   midi.NoteOffEvent(tick=0, channel=9, data=[40, 79]),
   midi.NoteOnEvent(tick=0, channel=9, data=[35, 79]),
   midi.NoteOffEvent(tick=240, channel=9, data=[35, 79]),
   midi.NoteOnEvent(tick=0, channel=9, data=[42, 79]),
   midi.NoteOffEvent(tick=360, channel=9, data=[42, 79]),
   midi.NoteOnEvent(tick=120, channel=9, data=[42, 79]),
   midi.NoteOffEvent(tick=360, channel=9, data=[42, 79]),
   midi.NoteOnEvent(tick=120, channel=9, data=[42, 79]),
   midi.NoteOffEvent(tick=360, channel=9, data=[42, 79]),
   midi.NoteOnEvent(tick=120, channel=9, data=[40, 79]),
   midi.NoteOnEvent(tick=0, channel=9, data=[42, 79]),
   midi.NoteOffEvent(tick=360, channel=9, data=[40, 79]),
   midi.NoteOffEvent(tick=0, channel=9, data=[42, 79]),
   midi.NoteOnEvent(tick=120, channel=9, data=[42, 79]),
   midi.NoteOffEvent(tick=360, channel=9, data=[42, 79]),
   midi.NoteOnEvent(tick=3960, channel=9, data=[49, 79]),
   midi.NoteOnEvent(tick=0, channel=9, data=[35, 79]),
   midi.NoteOffEvent(tick=360, channel=9, data=[49, 79]),
   midi.NoteOffEvent(tick=0, channel=9, data=[35, 79]),
   midi.NoteOnEvent(tick=120, channel=9, data=[46, 79]),
   midi.NoteOffEvent(tick=240, channel=9, data=[46, 79]),
   midi.NoteOnEvent(tick=0, channel=9, data=[35, 79]),
   midi.NoteOffEvent(tick=240, channel=9, data=[35, 79]),
   midi.NoteOnEvent(tick=0, channel=9, data=[46, 79]),
   midi.NoteOnEvent(tick=0, channel=9, data=[40, 79]),
   midi.NoteOffEvent(tick=360, channel=9, data=[46, 79]),
   midi.NoteOffEvent(tick=0, channel=9, data=[40, 79]),
   midi.NoteOnEvent(tick=120, channel=9, data=[46, 79]),
   midi.NoteOffEvent(tick=360, channel=9, data=[46, 79]),
   midi.NoteOnEvent(tick=120, channel=9, data=[46, 79]),
   midi.NoteOffEvent(tick=360, channel=9, data=[46, 79]),
   midi.NoteOnEvent(tick=120, channel=9, data=[46, 79]),
   midi.NoteOnEvent(tick=0, channel=9, data=[35, 79]),
   midi.NoteOffEvent(tick=360, channel=9, data=[46, 79]),
   midi.NoteOffEvent(tick=0, channel=9, data=[35, 79]),
   midi.NoteOnEvent(tick=120, channel=9, data=[46, 79]),
   midi.NoteOnEvent(tick=0, channel=9, data=[40, 79]),
   midi.NoteOffEvent(tick=240, channel=9, data=[46, 79]),
   midi.NoteOffEvent(tick=0, channel=9, data=[40, 79]),
   midi.NoteOnEvent(tick=0, channel=9, data=[35, 79]),
   midi.NoteOffEvent(tick=240, channel=9, data=[35, 79]),
   midi.NoteOnEvent(tick=0, channel=9, data=[46, 79]),
   midi.NoteOffEvent(tick=360, channel=9, data=[46, 79]),
   midi.NoteOnEvent(tick=120, channel=9, data=[35, 79]),
   midi.NoteOnEvent(tick=0, channel=9, data=[49, 79]),
   midi.NoteOffEvent(tick=360, channel=9, data=[35, 79]),
   midi.NoteOffEvent(tick=0, channel=9, data=[49, 79]),
   midi.NoteOnEvent(tick=120, channel=9, data=[46, 79]),
   midi.NoteOffEvent(tick=240, channel=9, data=[46, 79]),
   midi.NoteOnEvent(tick=0, channel=9, data=[35, 79]),
   midi.NoteOffEvent(tick=240, channel=9, data=[35, 79]),
   midi.NoteOnEvent(tick=0, channel=9, data=[40, 79]),
   midi.NoteOnEvent(tick=0, channel=9, data=[46, 79]),
   midi.NoteOffEvent(tick=360, channel=9, data=[40, 79]),
   midi.NoteOffEvent(tick=0, channel=9, data=[46, 79]),
   midi.NoteOnEvent(tick=120, channel=9, data=[46, 79]),
   midi.NoteOffEvent(tick=360, channel=9, data=[46, 79]),
   midi.NoteOnEvent(tick=120, channel=9, data=[46, 79]),
   midi.NoteOffEvent(tick=360, channel=9, data=[46, 79]),
   midi.NoteOnEvent(tick=120, channel=9, data=[46, 79]),
   midi.NoteOnEvent(tick=0, channel=9, data=[35, 79]),
   midi.NoteOffEvent(tick=360, channel=9, data=[46, 79]),
   midi.NoteOffEvent(tick=0, channel=9, data=[35, 79]),
   midi.NoteOnEvent(tick=120, channel=9, data=[40, 79]),
   midi.NoteOnEvent(tick=0, channel=9, data=[46, 79]),
   midi.NoteOffEvent(tick=240, channel=9, data=[40, 79]),
   midi.NoteOffEvent(tick=0, channel=9, data=[46, 79]),
   midi.NoteOnEvent(tick=0, channel=9, data=[35, 79]),
   midi.NoteOffEvent(tick=240, channel=9, data=[35, 79]),
   midi.NoteOnEvent(tick=0, channel=9, data=[46, 79]),
   midi.NoteOffEvent(tick=360, channel=9, data=[46, 79]),
   midi.NoteOnEvent(tick=120, channel=9, data=[49, 79]),
   midi.NoteOnEvent(tick=0, channel=9, data=[35, 79]),
   midi.NoteOffEvent(tick=360, channel=9, data=[49, 79]),
   midi.NoteOffEvent(tick=0, channel=9, data=[35, 79]),
   midi.NoteOnEvent(tick=120, channel=9, data=[46, 79]),
   midi.NoteOffEvent(tick=240, channel=9, data=[46, 79]),
   midi.NoteOnEvent(tick=0, channel=9, data=[35, 79]),
   midi.NoteOffEvent(tick=240, channel=9, data=[35, 79]),
   midi.NoteOnEvent(tick=0, channel=9, data=[46, 79]),
   midi.NoteOnEvent(tick=0, channel=9, data=[40, 79]),
   midi.NoteOffEvent(tick=360, channel=9, data=[46, 79]),
   midi.NoteOffEvent(tick=0, channel=9, data=[40, 79]),
   midi.NoteOnEvent(tick=120, channel=9, data=[46, 79]),
   midi.NoteOffEvent(tick=360, channel=9, data=[46, 79]),
   midi.NoteOnEvent(tick=120, channel=9, data=[46, 79]),
   midi.NoteOffEvent(tick=360, channel=9, data=[46, 79]),
   midi.NoteOnEvent(tick=120, channel=9, data=[35, 79]),
   midi.NoteOnEvent(tick=0, channel=9, data=[46, 79]),
   midi.NoteOffEvent(tick=360, channel=9, data=[35, 79]),
   midi.NoteOffEvent(tick=0, channel=9, data=[46, 79]),
   midi.NoteOnEvent(tick=120, channel=9, data=[40, 79]),
   midi.NoteOnEvent(tick=0, channel=9, data=[46, 79]),
   midi.NoteOffEvent(tick=240, channel=9, data=[40, 79]),
   midi.NoteOffEvent(tick=0, channel=9, data=[46, 79]),
   midi.NoteOnEvent(tick=0, channel=9, data=[35, 79]),
   midi.NoteOffEvent(tick=240, channel=9, data=[35, 79]),
   midi.NoteOnEvent(tick=0, channel=9, data=[46, 79]),
   midi.NoteOffEvent(tick=360, channel=9, data=[46, 79]),
   midi.NoteOnEvent(tick=120, channel=9, data=[35, 79]),
   midi.NoteOnEvent(tick=0, channel=9, data=[49, 79]),
   midi.NoteOffEvent(tick=360, channel=9, data=[35, 79]),
   midi.NoteOffEvent(tick=0, channel=9, data=[49, 79]),
   midi.NoteOnEvent(tick=120, channel=9, data=[46, 79]),
   midi.NoteOffEvent(tick=240, channel=9, data=[46, 79]),
   midi.NoteOnEvent(tick=0, channel=9, data=[35, 79]),
   midi.NoteOffEvent(tick=240, channel=9, data=[35, 79]),
   midi.NoteOnEvent(tick=0, channel=9, data=[40, 79]),
   midi.NoteOnEvent(tick=0, channel=9, data=[46, 79]),
   midi.NoteOffEvent(tick=360, channel=9, data=[40, 79]),
   midi.NoteOffEvent(tick=0, channel=9, data=[46, 79]),
   midi.NoteOnEvent(tick=120, channel=9, data=[46, 79]),
   midi.NoteOffEvent(tick=360, channel=9, data=[46, 79]),
   midi.NoteOnEvent(tick=120, channel=9, data=[46, 79]),
   midi.NoteOffEvent(tick=360, channel=9, data=[46, 79]),
   midi.NoteOnEvent(tick=120, channel=9, data=[35, 79]),
   midi.NoteOnEvent(tick=0, channel=9, data=[46, 79]),
   midi.NoteOffEvent(tick=360, channel=9, data=[35, 79]),
   midi.NoteOffEvent(tick=0, channel=9, data=[46, 79]),
   midi.NoteOnEvent(tick=120, channel=9, data=[40, 79]),
   midi.NoteOnEvent(tick=0, channel=9, data=[46, 79]),
   midi.NoteOffEvent(tick=240, channel=9, data=[40, 79]),
   midi.NoteOffEvent(tick=0, channel=9, data=[46, 79]),
   midi.NoteOnEvent(tick=0, channel=9, data=[35, 79]),
   midi.NoteOffEvent(tick=240, channel=9, data=[35, 79]),
   midi.NoteOnEvent(tick=0, channel=9, data=[46, 79]),
   midi.NoteOffEvent(tick=360, channel=9, data=[46, 79]),
   midi.NoteOnEvent(tick=120, channel=9, data=[35, 79]),
   midi.NoteOnEvent(tick=0, channel=9, data=[49, 79]),
   midi.NoteOffEvent(tick=360, channel=9, data=[35, 79]),
   midi.NoteOffEvent(tick=0, channel=9, data=[49, 79]),
   midi.NoteOnEvent(tick=120, channel=9, data=[46, 79]),
   midi.NoteOffEvent(tick=240, channel=9, data=[46, 79]),
   midi.NoteOnEvent(tick=0, channel=9, data=[35, 79]),
   midi.NoteOffEvent(tick=240, channel=9, data=[35, 79]),
   midi.NoteOnEvent(tick=0, channel=9, data=[46, 79]),
   midi.NoteOnEvent(tick=0, channel=9, data=[40, 79]),
   midi.NoteOffEvent(tick=360, channel=9, data=[46, 79]),
   midi.NoteOffEvent(tick=0, channel=9, data=[40, 79]),
   midi.NoteOnEvent(tick=120, channel=9, data=[46, 79]),
   midi.NoteOffEvent(tick=360, channel=9, data=[46, 79]),
   midi.NoteOnEvent(tick=120, channel=9, data=[46, 79]),
   midi.NoteOffEvent(tick=360, channel=9, data=[46, 79]),
   midi.NoteOnEvent(tick=120, channel=9, data=[35, 79]),
   midi.NoteOnEvent(tick=0, channel=9, data=[46, 79]),
   midi.NoteOffEvent(tick=360, channel=9, data=[35, 79]),
   midi.NoteOffEvent(tick=0, channel=9, data=[46, 79]),
   midi.NoteOnEvent(tick=120, channel=9, data=[46, 79]),
   midi.NoteOnEvent(tick=0, channel=9, data=[40, 79]),
   midi.NoteOffEvent(tick=240, channel=9, data=[46, 79]),
   midi.NoteOffEvent(tick=0, channel=9, data=[40, 79]),
   midi.NoteOnEvent(tick=0, channel=9, data=[35, 79]),
   midi.NoteOffEvent(tick=240, channel=9, data=[35, 79]),
   midi.NoteOnEvent(tick=0, channel=9, data=[46, 79]),
   midi.NoteOffEvent(tick=360, channel=9, data=[46, 79]),
   midi.NoteOnEvent(tick=120, channel=9, data=[35, 79]),
   midi.NoteOnEvent(tick=0, channel=9, data=[49, 79]),
   midi.NoteOffEvent(tick=360, channel=9, data=[35, 79]),
   midi.NoteOffEvent(tick=0, channel=9, data=[49, 79]),
   midi.NoteOnEvent(tick=120, channel=9, data=[46, 79]),
   midi.NoteOffEvent(tick=240, channel=9, data=[46, 79]),
   midi.NoteOnEvent(tick=0, channel=9, data=[35, 79]),
   midi.NoteOffEvent(tick=240, channel=9, data=[35, 79]),
   midi.NoteOnEvent(tick=0, channel=9, data=[46, 79]),
   midi.NoteOnEvent(tick=0, channel=9, data=[40, 79]),
   midi.NoteOffEvent(tick=360, channel=9, data=[46, 79]),
   midi.NoteOffEvent(tick=0, channel=9, data=[40, 79]),
   midi.NoteOnEvent(tick=120, channel=9, data=[46, 79]),
   midi.NoteOffEvent(tick=360, channel=9, data=[46, 79]),
   midi.NoteOnEvent(tick=120, channel=9, data=[46, 79]),
   midi.NoteOffEvent(tick=360, channel=9, data=[46, 79]),
   midi.NoteOnEvent(tick=120, channel=9, data=[46, 79]),
   midi.NoteOnEvent(tick=0, channel=9, data=[35, 79]),
   midi.NoteOffEvent(tick=360, channel=9, data=[46, 79]),
   midi.NoteOffEvent(tick=0, channel=9, data=[35, 79]),
   midi.NoteOnEvent(tick=120, channel=9, data=[46, 79]),
   midi.NoteOnEvent(tick=0, channel=9, data=[40, 79]),
   midi.NoteOffEvent(tick=240, channel=9, data=[46, 79]),
   midi.NoteOffEvent(tick=0, channel=9, data=[40, 79]),
   midi.NoteOnEvent(tick=0, channel=9, data=[35, 79]),
   midi.NoteOffEvent(tick=240, channel=9, data=[35, 79]),
   midi.NoteOnEvent(tick=0, channel=9, data=[46, 79]),
   midi.NoteOffEvent(tick=360, channel=9, data=[46, 79]),
   midi.NoteOnEvent(tick=120, channel=9, data=[35, 79]),
   midi.NoteOnEvent(tick=0, channel=9, data=[49, 79]),
   midi.NoteOffEvent(tick=360, channel=9, data=[35, 79]),
   midi.NoteOffEvent(tick=0, channel=9, data=[49, 79]),
   midi.NoteOnEvent(tick=120, channel=9, data=[46, 79]),
   midi.NoteOffEvent(tick=240, channel=9, data=[46, 79]),
   midi.NoteOnEvent(tick=0, channel=9, data=[35, 79]),
   midi.NoteOffEvent(tick=240, channel=9, data=[35, 79]),
   midi.NoteOnEvent(tick=0, channel=9, data=[46, 79]),
   midi.NoteOnEvent(tick=0, channel=9, data=[40, 79]),
   midi.NoteOffEvent(tick=360, channel=9, data=[46, 79]),
   midi.NoteOffEvent(tick=0, channel=9, data=[40, 79]),
   midi.NoteOnEvent(tick=120, channel=9, data=[46, 79]),
   midi.NoteOffEvent(tick=360, channel=9, data=[46, 79]),
   midi.NoteOnEvent(tick=120, channel=9, data=[46, 79]),
   midi.NoteOffEvent(tick=360, channel=9, data=[46, 79]),
   midi.NoteOnEvent(tick=120, channel=9, data=[46, 79]),
   midi.NoteOnEvent(tick=0, channel=9, data=[35, 79]),
   midi.NoteOffEvent(tick=360, channel=9, data=[46, 79]),
   midi.NoteOffEvent(tick=0, channel=9, data=[35, 79]),
   midi.NoteOnEvent(tick=120, channel=9, data=[40, 79]),
   midi.NoteOnEvent(tick=0, channel=9, data=[46, 79]),
   midi.NoteOffEvent(tick=240, channel=9, data=[40, 79]),
   midi.NoteOffEvent(tick=0, channel=9, data=[46, 79]),
   midi.NoteOnEvent(tick=0, channel=9, data=[35, 79]),
   midi.NoteOffEvent(tick=240, channel=9, data=[35, 79]),
   midi.NoteOnEvent(tick=0, channel=9, data=[46, 79]),
   midi.NoteOffEvent(tick=360, channel=9, data=[46, 79]),
   midi.NoteOnEvent(tick=120, channel=9, data=[49, 79]),
   midi.NoteOnEvent(tick=0, channel=9, data=[35, 79]),
   midi.NoteOffEvent(tick=360, channel=9, data=[49, 79]),
   midi.NoteOffEvent(tick=0, channel=9, data=[35, 79]),
   midi.NoteOnEvent(tick=120, channel=9, data=[46, 79]),
   midi.NoteOffEvent(tick=240, channel=9, data=[46, 79]),
   midi.NoteOnEvent(tick=0, channel=9, data=[35, 79]),
   midi.NoteOffEvent(tick=240, channel=9, data=[35, 79]),
   midi.NoteOnEvent(tick=0, channel=9, data=[40, 79]),
   midi.NoteOnEvent(tick=0, channel=9, data=[46, 79]),
   midi.NoteOffEvent(tick=360, channel=9, data=[40, 79]),
   midi.NoteOffEvent(tick=0, channel=9, data=[46, 79]),
   midi.NoteOnEvent(tick=120, channel=9, data=[40, 79]),
   midi.NoteOffEvent(tick=240, channel=9, data=[40, 79]),
   midi.NoteOnEvent(tick=0, channel=9, data=[40, 79]),
   midi.NoteOffEvent(tick=240, channel=9, data=[40, 79]),
   midi.NoteOnEvent(tick=0, channel=9, data=[40, 79]),
   midi.NoteOffEvent(tick=240, channel=9, data=[40, 79]),
   midi.NoteOnEvent(tick=0, channel=9, data=[40, 79]),
   midi.NoteOffEvent(tick=240, channel=9, data=[40, 79]),
   midi.NoteOnEvent(tick=0, channel=9, data=[46, 79]),
   midi.NoteOffEvent(tick=360, channel=9, data=[46, 79]),
   midi.NoteOnEvent(tick=120, channel=9, data=[40, 79]),
   midi.NoteOffEvent(tick=240, channel=9, data=[40, 79]),
   midi.NoteOnEvent(tick=0, channel=9, data=[45, 79]),
   midi.NoteOffEvent(tick=240, channel=9, data=[45, 79]),
   midi.NoteOnEvent(tick=0, channel=9, data=[43, 79]),
   midi.NoteOffEvent(tick=240, channel=9, data=[43, 79]),
   midi.NoteOnEvent(tick=0, channel=9, data=[41, 79]),
   midi.NoteOffEvent(tick=240, channel=9, data=[41, 79]),
   midi.NoteOnEvent(tick=0, channel=9, data=[49, 79]),
   midi.NoteOnEvent(tick=0, channel=9, data=[35, 79]),
   midi.NoteOffEvent(tick=360, channel=9, data=[49, 79]),
   midi.NoteOffEvent(tick=0, channel=9, data=[35, 79]),
   midi.NoteOnEvent(tick=120, channel=9, data=[46, 79]),
   midi.NoteOffEvent(tick=240, channel=9, data=[46, 79]),
   midi.NoteOnEvent(tick=0, channel=9, data=[35, 79]),
   midi.NoteOffEvent(tick=240, channel=9, data=[35, 79]),
   midi.NoteOnEvent(tick=0, channel=9, data=[40, 79]),
   midi.NoteOnEvent(tick=0, channel=9, data=[46, 79]),
   midi.NoteOffEvent(tick=360, channel=9, data=[40, 79]),
   midi.NoteOffEvent(tick=0, channel=9, data=[46, 79]),
   midi.NoteOnEvent(tick=120, channel=9, data=[46, 79]),
   midi.NoteOffEvent(tick=240, channel=9, data=[46, 79]),
   midi.NoteOnEvent(tick=0, channel=9, data=[40, 79]),
   midi.NoteOffEvent(tick=240, channel=9, data=[40, 79]),
   midi.NoteOnEvent(tick=0, channel=9, data=[46, 79]),
   midi.NoteOffEvent(tick=240, channel=9, data=[46, 79]),
   midi.NoteOnEvent(tick=0, channel=9, data=[35, 79]),
   midi.NoteOffEvent(tick=240, channel=9, data=[35, 79]),
   midi.NoteOnEvent(tick=0, channel=9, data=[35, 79]),
   midi.NoteOnEvent(tick=0, channel=9, data=[46, 79]),
   midi.NoteOffEvent(tick=240, channel=9, data=[35, 79]),
   midi.NoteOffEvent(tick=0, channel=9, data=[46, 79]),
   midi.NoteOnEvent(tick=0, channel=9, data=[35, 79]),
   midi.NoteOffEvent(tick=240, channel=9, data=[35, 79]),
   midi.NoteOnEvent(tick=0, channel=9, data=[40, 79]),
   midi.NoteOnEvent(tick=0, channel=9, data=[46, 79]),
   midi.NoteOffEvent(tick=360, channel=9, data=[40, 79]),
   midi.NoteOffEvent(tick=0, channel=9, data=[46, 79]),
   midi.NoteOnEvent(tick=120, channel=9, data=[46, 79]),
   midi.NoteOffEvent(tick=360, channel=9, data=[46, 79]),
   midi.NoteOnEvent(tick=120, channel=9, data=[49, 79]),
   midi.NoteOnEvent(tick=0, channel=9, data=[35, 79]),
   midi.NoteOffEvent(tick=360, channel=9, data=[49, 79]),
   midi.NoteOffEvent(tick=0, channel=9, data=[35, 79]),
   midi.NoteOnEvent(tick=120, channel=9, data=[46, 79]),
   midi.NoteOffEvent(tick=240, channel=9, data=[46, 79]),
   midi.NoteOnEvent(tick=0, channel=9, data=[35, 79]),
   midi.NoteOffEvent(tick=240, channel=9, data=[35, 79]),
   midi.NoteOnEvent(tick=0, channel=9, data=[46, 79]),
   midi.NoteOnEvent(tick=0, channel=9, data=[40, 79]),
   midi.NoteOffEvent(tick=360, channel=9, data=[46, 79]),
   midi.NoteOffEvent(tick=0, channel=9, data=[40, 79]),
   midi.NoteOnEvent(tick=120, channel=9, data=[46, 79]),
   midi.NoteOffEvent(tick=240, channel=9, data=[46, 79]),
   midi.NoteOnEvent(tick=0, channel=9, data=[40, 79]),
   midi.NoteOffEvent(tick=240, channel=9, data=[40, 79]),
   midi.NoteOnEvent(tick=0, channel=9, data=[46, 79]),
   midi.NoteOffEvent(tick=240, channel=9, data=[46, 79]),
   midi.NoteOnEvent(tick=0, channel=9, data=[35, 79]),
   midi.NoteOffEvent(tick=240, channel=9, data=[35, 79]),
   midi.NoteOnEvent(tick=0, channel=9, data=[35, 79]),
   midi.NoteOnEvent(tick=0, channel=9, data=[46, 79]),
   midi.NoteOffEvent(tick=240, channel=9, data=[35, 79]),
   midi.NoteOffEvent(tick=0, channel=9, data=[46, 79]),
   midi.NoteOnEvent(tick=0, channel=9, data=[35, 79]),
   midi.NoteOffEvent(tick=240, channel=9, data=[35, 79]),
   midi.NoteOnEvent(tick=0, channel=9, data=[40, 79]),
   midi.NoteOnEvent(tick=0, channel=9, data=[46, 79]),
   midi.NoteOffEvent(tick=240, channel=9, data=[40, 79]),
   midi.NoteOffEvent(tick=0, channel=9, data=[46, 79]),
   midi.NoteOnEvent(tick=0, channel=9, data=[35, 79]),
   midi.NoteOffEvent(tick=240, channel=9, data=[35, 79]),
   midi.NoteOnEvent(tick=0, channel=9, data=[46, 79]),
   midi.NoteOffEvent(tick=360, channel=9, data=[46, 79]),
   midi.NoteOnEvent(tick=120, channel=9, data=[35, 79]),
   midi.NoteOnEvent(tick=0, channel=9, data=[49, 79]),
   midi.NoteOffEvent(tick=360, channel=9, data=[35, 79]),
   midi.NoteOffEvent(tick=0, channel=9, data=[49, 79]),
   midi.NoteOnEvent(tick=120, channel=9, data=[46, 79]),
   midi.NoteOffEvent(tick=240, channel=9, data=[46, 79]),
   midi.NoteOnEvent(tick=0, channel=9, data=[35, 79]),
   midi.NoteOffEvent(tick=240, channel=9, data=[35, 79]),
   midi.NoteOnEvent(tick=0, channel=9, data=[46, 79]),
   midi.NoteOnEvent(tick=0, channel=9, data=[40, 79]),
   midi.NoteOffEvent(tick=360, channel=9, data=[46, 79]),
   midi.NoteOffEvent(tick=0, channel=9, data=[40, 79]),
   midi.NoteOnEvent(tick=120, channel=9, data=[46, 79]),
   midi.NoteOffEvent(tick=240, channel=9, data=[46, 79]),
   midi.NoteOnEvent(tick=0, channel=9, data=[40, 79]),
   midi.NoteOffEvent(tick=240, channel=9, data=[40, 79]),
   midi.NoteOnEvent(tick=0, channel=9, data=[46, 79]),
   midi.NoteOffEvent(tick=240, channel=9, data=[46, 79]),
   midi.NoteOnEvent(tick=0, channel=9, data=[35, 79]),
   midi.NoteOffEvent(tick=240, channel=9, data=[35, 79]),
   midi.NoteOnEvent(tick=0, channel=9, data=[46, 79]),
   midi.NoteOnEvent(tick=0, channel=9, data=[35, 79]),
   midi.NoteOffEvent(tick=240, channel=9, data=[46, 79]),
   midi.NoteOffEvent(tick=0, channel=9, data=[35, 79]),
   midi.NoteOnEvent(tick=0, channel=9, data=[35, 79]),
   midi.NoteOffEvent(tick=240, channel=9, data=[35, 79]),
   midi.NoteOnEvent(tick=0, channel=9, data=[46, 79]),
   midi.NoteOnEvent(tick=0, channel=9, data=[40, 79]),
   midi.NoteOffEvent(tick=360, channel=9, data=[46, 79]),
   midi.NoteOffEvent(tick=0, channel=9, data=[40, 79]),
   midi.NoteOnEvent(tick=120, channel=9, data=[46, 79]),
   midi.NoteOffEvent(tick=360, channel=9, data=[46, 79]),
   midi.NoteOnEvent(tick=120, channel=9, data=[35, 79]),
   midi.NoteOnEvent(tick=0, channel=9, data=[49, 79]),
   midi.NoteOffEvent(tick=360, channel=9, data=[35, 79]),
   midi.NoteOffEvent(tick=0, channel=9, data=[49, 79]),
   midi.NoteOnEvent(tick=120, channel=9, data=[46, 79]),
   midi.NoteOffEvent(tick=240, channel=9, data=[46, 79]),
   midi.NoteOnEvent(tick=0, channel=9, data=[35, 79]),
   midi.NoteOffEvent(tick=240, channel=9, data=[35, 79]),
   midi.NoteOnEvent(tick=0, channel=9, data=[46, 79]),
   midi.NoteOnEvent(tick=0, channel=9, data=[40, 79]),
   midi.NoteOffEvent(tick=360, channel=9, data=[46, 79]),
   midi.NoteOffEvent(tick=0, channel=9, data=[40, 79]),
   midi.NoteOnEvent(tick=120, channel=9, data=[46, 79]),
   midi.NoteOffEvent(tick=240, channel=9, data=[46, 79]),
   midi.NoteOnEvent(tick=0, channel=9, data=[40, 79]),
   midi.NoteOffEvent(tick=240, channel=9, data=[40, 79]),
   midi.NoteOnEvent(tick=0, channel=9, data=[46, 79]),
   midi.NoteOffEvent(tick=240, channel=9, data=[46, 79]),
   midi.NoteOnEvent(tick=0, channel=9, data=[35, 79]),
   midi.NoteOffEvent(tick=240, channel=9, data=[35, 79]),
   midi.NoteOnEvent(tick=0, channel=9, data=[46, 79]),
   midi.NoteOnEvent(tick=0, channel=9, data=[35, 79]),
   midi.NoteOffEvent(tick=240, channel=9, data=[46, 79]),
   midi.NoteOffEvent(tick=0, channel=9, data=[35, 79]),
   midi.NoteOnEvent(tick=0, channel=9, data=[35, 79]),
   midi.NoteOffEvent(tick=240, channel=9, data=[35, 79]),
   midi.NoteOnEvent(tick=0, channel=9, data=[46, 79]),
   midi.NoteOnEvent(tick=0, channel=9, data=[40, 79]),
   midi.NoteOffEvent(tick=240, channel=9, data=[46, 79]),
   midi.NoteOffEvent(tick=0, channel=9, data=[40, 79]),
   midi.NoteOnEvent(tick=0, channel=9, data=[40, 79]),
   midi.NoteOffEvent(tick=240, channel=9, data=[40, 79]),
   midi.NoteOnEvent(tick=0, channel=9, data=[40, 79]),
   midi.NoteOnEvent(tick=0, channel=9, data=[46, 79]),
   midi.NoteOffEvent(tick=360, channel=9, data=[40, 79]),
   midi.NoteOffEvent(tick=0, channel=9, data=[46, 79]),
   midi.NoteOnEvent(tick=120, channel=9, data=[35, 79]),
   midi.NoteOnEvent(tick=0, channel=9, data=[49, 79]),
   midi.NoteOffEvent(tick=360, channel=9, data=[35, 79]),
   midi.NoteOffEvent(tick=0, channel=9, data=[49, 79]),
   midi.NoteOnEvent(tick=120, channel=9, data=[46, 79]),
   midi.NoteOffEvent(tick=480, channel=9, data=[46, 79]),
   midi.NoteOnEvent(tick=0, channel=9, data=[46, 79]),
   midi.NoteOnEvent(tick=0, channel=9, data=[40, 79]),
   midi.NoteOffEvent(tick=360, channel=9, data=[46, 79]),
   midi.NoteOffEvent(tick=0, channel=9, data=[40, 79]),
   midi.NoteOnEvent(tick=120, channel=9, data=[46, 79]),
   midi.NoteOffEvent(tick=240, channel=9, data=[46, 79]),
   midi.NoteOnEvent(tick=0, channel=9, data=[40, 79]),
   midi.NoteOffEvent(tick=240, channel=9, data=[40, 79]),
   midi.NoteOnEvent(tick=0, channel=9, data=[46, 79]),
   midi.NoteOffEvent(tick=240, channel=9, data=[46, 79]),
   midi.NoteOnEvent(tick=0, channel=9, data=[35, 79]),
   midi.NoteOffEvent(tick=240, channel=9, data=[35, 79]),
   midi.NoteOnEvent(tick=0, channel=9, data=[46, 79]),
   midi.NoteOnEvent(tick=0, channel=9, data=[35, 79]),
   midi.NoteOffEvent(tick=240, channel=9, data=[46, 79]),
   midi.NoteOffEvent(tick=0, channel=9, data=[35, 79]),
   midi.NoteOnEvent(tick=0, channel=9, data=[35, 79]),
   midi.NoteOffEvent(tick=240, channel=9, data=[35, 79]),
   midi.NoteOnEvent(tick=0, channel=9, data=[40, 79]),
   midi.NoteOnEvent(tick=0, channel=9, data=[46, 79]),
   midi.NoteOffEvent(tick=360, channel=9, data=[40, 79]),
   midi.NoteOffEvent(tick=0, channel=9, data=[46, 79]),
   midi.NoteOnEvent(tick=120, channel=9, data=[46, 79]),
   midi.NoteOffEvent(tick=360, channel=9, data=[46, 79]),
   midi.NoteOnEvent(tick=120, channel=9, data=[49, 79]),
   midi.NoteOnEvent(tick=0, channel=9, data=[35, 79]),
   midi.NoteOffEvent(tick=360, channel=9, data=[49, 79]),
   midi.NoteOffEvent(tick=0, channel=9, data=[35, 79]),
   midi.NoteOnEvent(tick=120, channel=9, data=[46, 79]),
   midi.NoteOffEvent(tick=240, channel=9, data=[46, 79]),
   midi.NoteOnEvent(tick=0, channel=9, data=[35, 79]),
   midi.NoteOffEvent(tick=240, channel=9, data=[35, 79]),
   midi.NoteOnEvent(tick=0, channel=9, data=[46, 79]),
   midi.NoteOnEvent(tick=0, channel=9, data=[40, 79]),
   midi.NoteOffEvent(tick=360, channel=9, data=[46, 79]),
   midi.NoteOffEvent(tick=0, channel=9, data=[40, 79]),
   midi.NoteOnEvent(tick=120, channel=9, data=[46, 79]),
   midi.NoteOffEvent(tick=240, channel=9, data=[46, 79]),
   midi.NoteOnEvent(tick=0, channel=9, data=[40, 79]),
   midi.NoteOffEvent(tick=240, channel=9, data=[40, 79]),
   midi.NoteOnEvent(tick=0, channel=9, data=[46, 79]),
   midi.NoteOffEvent(tick=240, channel=9, data=[46, 79]),
   midi.NoteOnEvent(tick=0, channel=9, data=[35, 79]),
   midi.NoteOffEvent(tick=240, channel=9, data=[35, 79]),
   midi.NoteOnEvent(tick=0, channel=9, data=[35, 79]),
   midi.NoteOnEvent(tick=0, channel=9, data=[46, 79]),
   midi.NoteOffEvent(tick=240, channel=9, data=[35, 79]),
   midi.NoteOffEvent(tick=0, channel=9, data=[46, 79]),
   midi.NoteOnEvent(tick=0, channel=9, data=[35, 79]),
   midi.NoteOffEvent(tick=240, channel=9, data=[35, 79]),
   midi.NoteOnEvent(tick=0, channel=9, data=[40, 79]),
   midi.NoteOnEvent(tick=0, channel=9, data=[46, 79]),
   midi.NoteOffEvent(tick=240, channel=9, data=[40, 79]),
   midi.NoteOffEvent(tick=0, channel=9, data=[46, 79]),
   midi.NoteOnEvent(tick=0, channel=9, data=[35, 79]),
   midi.NoteOffEvent(tick=240, channel=9, data=[35, 79]),
   midi.NoteOnEvent(tick=0, channel=9, data=[46, 79]),
   midi.NoteOffEvent(tick=360, channel=9, data=[46, 79]),
   midi.NoteOnEvent(tick=120, channel=9, data=[35, 79]),
   midi.NoteOnEvent(tick=0, channel=9, data=[49, 79]),
   midi.NoteOffEvent(tick=360, channel=9, data=[35, 79]),
   midi.NoteOffEvent(tick=0, channel=9, data=[49, 79]),
   midi.NoteOnEvent(tick=120, channel=9, data=[46, 79]),
   midi.NoteOffEvent(tick=240, channel=9, data=[46, 79]),
   midi.NoteOnEvent(tick=0, channel=9, data=[35, 79]),
   midi.NoteOffEvent(tick=240, channel=9, data=[35, 79]),
   midi.NoteOnEvent(tick=0, channel=9, data=[40, 79]),
   midi.NoteOnEvent(tick=0, channel=9, data=[46, 79]),
   midi.NoteOffEvent(tick=360, channel=9, data=[40, 79]),
   midi.NoteOffEvent(tick=0, channel=9, data=[46, 79]),
   midi.NoteOnEvent(tick=120, channel=9, data=[46, 79]),
   midi.NoteOffEvent(tick=240, channel=9, data=[46, 79]),
   midi.NoteOnEvent(tick=0, channel=9, data=[40, 79]),
   midi.NoteOffEvent(tick=240, channel=9, data=[40, 79]),
   midi.NoteOnEvent(tick=0, channel=9, data=[46, 79]),
   midi.NoteOffEvent(tick=240, channel=9, data=[46, 79]),
   midi.NoteOnEvent(tick=0, channel=9, data=[35, 79]),
   midi.NoteOffEvent(tick=240, channel=9, data=[35, 79]),
   midi.NoteOnEvent(tick=0, channel=9, data=[35, 79]),
   midi.NoteOnEvent(tick=0, channel=9, data=[46, 79]),
   midi.NoteOffEvent(tick=240, channel=9, data=[35, 79]),
   midi.NoteOffEvent(tick=0, channel=9, data=[46, 79]),
   midi.NoteOnEvent(tick=0, channel=9, data=[35, 79]),
   midi.NoteOffEvent(tick=240, channel=9, data=[35, 79]),
   midi.NoteOnEvent(tick=0, channel=9, data=[46, 79]),
   midi.NoteOnEvent(tick=0, channel=9, data=[40, 79]),
   midi.NoteOffEvent(tick=360, channel=9, data=[46, 79]),
   midi.NoteOffEvent(tick=0, channel=9, data=[40, 79]),
   midi.NoteOnEvent(tick=120, channel=9, data=[46, 79]),
   midi.NoteOffEvent(tick=360, channel=9, data=[46, 79]),
   midi.NoteOnEvent(tick=120, channel=9, data=[35, 79]),
   midi.NoteOnEvent(tick=0, channel=9, data=[49, 79]),
   midi.NoteOffEvent(tick=360, channel=9, data=[35, 79]),
   midi.NoteOffEvent(tick=0, channel=9, data=[49, 79]),
   midi.NoteOnEvent(tick=120, channel=9, data=[46, 79]),
   midi.NoteOffEvent(tick=240, channel=9, data=[46, 79]),
   midi.NoteOnEvent(tick=0, channel=9, data=[35, 79]),
   midi.NoteOffEvent(tick=240, channel=9, data=[35, 79]),
   midi.NoteOnEvent(tick=0, channel=9, data=[46, 79]),
   midi.NoteOnEvent(tick=0, channel=9, data=[40, 79]),
   midi.NoteOffEvent(tick=360, channel=9, data=[46, 79]),
   midi.NoteOffEvent(tick=0, channel=9, data=[40, 79]),
   midi.NoteOnEvent(tick=120, channel=9, data=[46, 79]),
   midi.NoteOffEvent(tick=240, channel=9, data=[46, 79]),
   midi.NoteOnEvent(tick=0, channel=9, data=[40, 79]),
   midi.NoteOffEvent(tick=240, channel=9, data=[40, 79]),
   midi.NoteOnEvent(tick=0, channel=9, data=[46, 79]),
   midi.NoteOffEvent(tick=360, channel=9, data=[46, 79]),
   midi.NoteOnEvent(tick=120, channel=9, data=[45, 79]),
   midi.NoteOffEvent(tick=360, channel=9, data=[45, 79]),
   midi.NoteOnEvent(tick=120, channel=9, data=[47, 79]),
   midi.NoteOffEvent(tick=240, channel=9, data=[47, 79]),
   midi.NoteOnEvent(tick=0, channel=9, data=[45, 79]),
   midi.NoteOffEvent(tick=240, channel=9, data=[45, 79]),
   midi.NoteOnEvent(tick=0, channel=9, data=[43, 79]),
   midi.NoteOffEvent(tick=240, channel=9, data=[43, 79]),
   midi.NoteOnEvent(tick=0, channel=9, data=[41, 79]),
   midi.NoteOffEvent(tick=240, channel=9, data=[41, 79]),
   midi.NoteOnEvent(tick=0, channel=9, data=[20, 31]),
   midi.NoteOnEvent(tick=0, channel=9, data=[49, 95]),
   midi.NoteOnEvent(tick=0, channel=9, data=[33, 31]),
   midi.NoteOnEvent(tick=0, channel=9, data=[35, 63]),
   midi.NoteOffEvent(tick=240, channel=9, data=[20, 31]),
   midi.NoteOffEvent(tick=0, channel=9, data=[49, 95]),
   midi.NoteOffEvent(tick=0, channel=9, data=[33, 31]),
   midi.NoteOffEvent(tick=0, channel=9, data=[35, 63]),
   midi.NoteOnEvent(tick=0, channel=9, data=[28, 79]),
   midi.NoteOffEvent(tick=600, channel=9, data=[28, 79]),
   midi.NoteOnEvent(tick=120, channel=9, data=[28, 79]),
   midi.NoteOffEvent(tick=480, channel=9, data=[28, 79]),
   midi.NoteOnEvent(tick=0, channel=9, data=[33, 31]),
   midi.NoteOnEvent(tick=0, channel=9, data=[20, 31]),
   midi.NoteOffEvent(tick=240, channel=9, data=[33, 31]),
   midi.NoteOffEvent(tick=0, channel=9, data=[20, 31]),
   midi.NoteOnEvent(tick=0, channel=9, data=[28, 79]),
   midi.NoteOffEvent(tick=240, channel=9, data=[28, 79]),
   midi.NoteOnEvent(tick=0, channel=9, data=[33, 31]),
   midi.NoteOnEvent(tick=0, channel=9, data=[20, 31]),
   midi.NoteOffEvent(tick=240, channel=9, data=[33, 31]),
   midi.NoteOffEvent(tick=0, channel=9, data=[20, 31]),
   midi.NoteOnEvent(tick=0, channel=9, data=[28, 79]),
   midi.NoteOffEvent(tick=600, channel=9, data=[28, 79]),
   midi.NoteOnEvent(tick=120, channel=9, data=[28, 79]),
   midi.NoteOffEvent(tick=480, channel=9, data=[28, 79]),
   midi.NoteOnEvent(tick=0, channel=9, data=[20, 31]),
   midi.NoteOnEvent(tick=0, channel=9, data=[33, 31]),
   midi.NoteOffEvent(tick=240, channel=9, data=[20, 31]),
   midi.NoteOffEvent(tick=0, channel=9, data=[33, 31]),
   midi.NoteOnEvent(tick=0, channel=9, data=[20, 31]),
   midi.NoteOnEvent(tick=0, channel=9, data=[33, 31]),
   midi.NoteOffEvent(tick=240, channel=9, data=[20, 31]),
   midi.NoteOffEvent(tick=0, channel=9, data=[33, 31]),
   midi.NoteOnEvent(tick=0, channel=9, data=[33, 31]),
   midi.NoteOnEvent(tick=0, channel=9, data=[20, 31]),
   midi.NoteOffEvent(tick=240, channel=9, data=[33, 31]),
   midi.NoteOffEvent(tick=0, channel=9, data=[20, 31]),
   midi.NoteOnEvent(tick=0, channel=9, data=[28, 79]),
   midi.NoteOffEvent(tick=600, channel=9, data=[28, 79]),
   midi.NoteOnEvent(tick=120, channel=9, data=[28, 79]),
   midi.NoteOffEvent(tick=480, channel=9, data=[28, 79]),
   midi.NoteOnEvent(tick=0, channel=9, data=[20, 31]),
   midi.NoteOnEvent(tick=0, channel=9, data=[33, 31]),
   midi.NoteOffEvent(tick=240, channel=9, data=[20, 31]),
   midi.NoteOffEvent(tick=0, channel=9, data=[33, 31]),
   midi.NoteOnEvent(tick=0, channel=9, data=[28, 79]),
   midi.NoteOffEvent(tick=240, channel=9, data=[28, 79]),
   midi.NoteOnEvent(tick=0, channel=9, data=[20, 31]),
   midi.NoteOnEvent(tick=0, channel=9, data=[33, 31]),
   midi.NoteOffEvent(tick=240, channel=9, data=[20, 31]),
   midi.NoteOffEvent(tick=0, channel=9, data=[33, 31]),
   midi.NoteOnEvent(tick=0, channel=9, data=[28, 79]),
   midi.NoteOffEvent(tick=600, channel=9, data=[28, 79]),
   midi.NoteOnEvent(tick=120, channel=9, data=[28, 79]),
   midi.NoteOffEvent(tick=480, channel=9, data=[28, 79]),
   midi.NoteOnEvent(tick=0, channel=9, data=[33, 31]),
   midi.NoteOnEvent(tick=0, channel=9, data=[20, 31]),
   midi.NoteOffEvent(tick=240, channel=9, data=[33, 31]),
   midi.NoteOffEvent(tick=0, channel=9, data=[20, 31]),
   midi.NoteOnEvent(tick=0, channel=9, data=[20, 31]),
   midi.NoteOnEvent(tick=0, channel=9, data=[33, 31]),
   midi.NoteOffEvent(tick=240, channel=9, data=[20, 31]),
   midi.NoteOffEvent(tick=0, channel=9, data=[33, 31]),
   midi.NoteOnEvent(tick=0, channel=9, data=[33, 31]),
   midi.NoteOnEvent(tick=0, channel=9, data=[20, 31]),
   midi.NoteOffEvent(tick=240, channel=9, data=[33, 31]),
   midi.NoteOffEvent(tick=0, channel=9, data=[20, 31]),
   midi.NoteOnEvent(tick=0, channel=9, data=[28, 79]),
   midi.NoteOffEvent(tick=600, channel=9, data=[28, 79]),
   midi.NoteOnEvent(tick=120, channel=9, data=[28, 79]),
   midi.NoteOffEvent(tick=480, channel=9, data=[28, 79]),
   midi.NoteOnEvent(tick=0, channel=9, data=[20, 31]),
   midi.NoteOnEvent(tick=0, channel=9, data=[33, 31]),
   midi.NoteOffEvent(tick=240, channel=9, data=[20, 31]),
   midi.NoteOffEvent(tick=0, channel=9, data=[33, 31]),
   midi.NoteOnEvent(tick=0, channel=9, data=[28, 79]),
   midi.NoteOffEvent(tick=240, channel=9, data=[28, 79]),
   midi.NoteOnEvent(tick=0, channel=9, data=[20, 31]),
   midi.NoteOnEvent(tick=0, channel=9, data=[33, 31]),
   midi.NoteOffEvent(tick=240, channel=9, data=[20, 31]),
   midi.NoteOffEvent(tick=0, channel=9, data=[33, 31]),
   midi.NoteOnEvent(tick=0, channel=9, data=[28, 79]),
   midi.NoteOffEvent(tick=600, channel=9, data=[28, 79]),
   midi.NoteOnEvent(tick=120, channel=9, data=[28, 79]),
   midi.NoteOffEvent(tick=480, channel=9, data=[28, 79]),
   midi.NoteOnEvent(tick=0, channel=9, data=[33, 31]),
   midi.NoteOnEvent(tick=0, channel=9, data=[20, 31]),
   midi.NoteOffEvent(tick=240, channel=9, data=[33, 31]),
   midi.NoteOffEvent(tick=0, channel=9, data=[20, 31]),
   midi.NoteOnEvent(tick=0, channel=9, data=[33, 31]),
   midi.NoteOnEvent(tick=0, channel=9, data=[20, 31]),
   midi.NoteOffEvent(tick=240, channel=9, data=[33, 31]),
   midi.NoteOffEvent(tick=0, channel=9, data=[20, 31]),
   midi.NoteOnEvent(tick=0, channel=9, data=[33, 15]),
   midi.NoteOnEvent(tick=0, channel=9, data=[20, 31]),
   midi.NoteOffEvent(tick=240, channel=9, data=[33, 15]),
   midi.NoteOffEvent(tick=0, channel=9, data=[20, 31]),
   midi.NoteOnEvent(tick=0, channel=9, data=[28, 79]),
   midi.NoteOffEvent(tick=600, channel=9, data=[28, 79]),
   midi.NoteOnEvent(tick=120, channel=9, data=[28, 63]),
   midi.NoteOffEvent(tick=480, channel=9, data=[28, 63]),
   midi.NoteOnEvent(tick=0, channel=9, data=[33, 15]),
   midi.NoteOnEvent(tick=0, channel=9, data=[20, 31]),
   midi.NoteOffEvent(tick=240, channel=9, data=[33, 15]),
   midi.NoteOffEvent(tick=0, channel=9, data=[20, 31]),
   midi.NoteOnEvent(tick=0, channel=9, data=[28, 63]),
   midi.NoteOffEvent(tick=240, channel=9, data=[28, 63]),
   midi.NoteOnEvent(tick=0, channel=9, data=[33, 15]),
   midi.NoteOnEvent(tick=0, channel=9, data=[20, 31]),
   midi.NoteOffEvent(tick=240, channel=9, data=[33, 15]),
   midi.NoteOffEvent(tick=0, channel=9, data=[20, 31]),
   midi.NoteOnEvent(tick=0, channel=9, data=[28, 47]),
   midi.NoteOffEvent(tick=600, channel=9, data=[28, 47]),
   midi.NoteOnEvent(tick=120, channel=9, data=[28, 47]),
   midi.NoteOffEvent(tick=480, channel=9, data=[28, 47]),
   midi.NoteOnEvent(tick=0, channel=9, data=[33, 15]),
   midi.NoteOnEvent(tick=0, channel=9, data=[20, 15]),
   midi.NoteOffEvent(tick=240, channel=9, data=[33, 15]),
   midi.NoteOffEvent(tick=0, channel=9, data=[20, 15]),
   midi.NoteOnEvent(tick=0, channel=9, data=[33, 15]),
   midi.NoteOnEvent(tick=0, channel=9, data=[20, 15]),
   midi.NoteOffEvent(tick=240, channel=9, data=[33, 15]),
   midi.NoteOffEvent(tick=0, channel=9, data=[20, 15]),
   midi.EndOfTrackEvent(tick=0, data=[])])])
Press any key to stop...